<?xml version="1.0" encoding="utf-8"?>
<svg xmlns="http://www.w3.org/2000/svg" xmlns:xlink="http://www.w3.org/1999/xlink" width="600" height="400" viewBox="0 0 2400 1600">
<defs>
  <clipPath id="clip530">
    <rect x="0" y="0" width="2400" height="1600"/>
  </clipPath>
</defs>
<path clip-path="url(#clip530)" d="
M0 1600 L2400 1600 L2400 0 L0 0  Z
  " fill="#ffffff" fill-rule="evenodd" fill-opacity="1"/>
<defs>
  <clipPath id="clip531">
    <rect x="480" y="0" width="1681" height="1600"/>
  </clipPath>
</defs>
<path clip-path="url(#clip530)" d="
M186.76 1486.45 L2352.76 1486.45 L2352.76 123.472 L186.76 123.472  Z
  " fill="#ffffff" fill-rule="evenodd" fill-opacity="1"/>
<defs>
  <clipPath id="clip532">
    <rect x="186" y="123" width="2167" height="1364"/>
  </clipPath>
</defs>
<polyline clip-path="url(#clip532)" style="stroke:#000000; stroke-linecap:butt; stroke-linejoin:round; stroke-width:2; stroke-opacity:0.1; fill:none" points="
  418.345,1486.45 418.345,123.472 
  "/>
<polyline clip-path="url(#clip532)" style="stroke:#000000; stroke-linecap:butt; stroke-linejoin:round; stroke-width:2; stroke-opacity:0.1; fill:none" points="
  844.051,1486.45 844.051,123.472 
  "/>
<polyline clip-path="url(#clip532)" style="stroke:#000000; stroke-linecap:butt; stroke-linejoin:round; stroke-width:2; stroke-opacity:0.1; fill:none" points="
  1269.76,1486.45 1269.76,123.472 
  "/>
<polyline clip-path="url(#clip532)" style="stroke:#000000; stroke-linecap:butt; stroke-linejoin:round; stroke-width:2; stroke-opacity:0.1; fill:none" points="
  1695.46,1486.45 1695.46,123.472 
  "/>
<polyline clip-path="url(#clip532)" style="stroke:#000000; stroke-linecap:butt; stroke-linejoin:round; stroke-width:2; stroke-opacity:0.1; fill:none" points="
  2121.17,1486.45 2121.17,123.472 
  "/>
<polyline clip-path="url(#clip530)" style="stroke:#000000; stroke-linecap:butt; stroke-linejoin:round; stroke-width:4; stroke-opacity:1; fill:none" points="
  186.76,1486.45 2352.76,1486.45 
  "/>
<polyline clip-path="url(#clip530)" style="stroke:#000000; stroke-linecap:butt; stroke-linejoin:round; stroke-width:4; stroke-opacity:1; fill:none" points="
  418.345,1486.45 418.345,1467.55 
  "/>
<polyline clip-path="url(#clip530)" style="stroke:#000000; stroke-linecap:butt; stroke-linejoin:round; stroke-width:4; stroke-opacity:1; fill:none" points="
  844.051,1486.45 844.051,1467.55 
  "/>
<polyline clip-path="url(#clip530)" style="stroke:#000000; stroke-linecap:butt; stroke-linejoin:round; stroke-width:4; stroke-opacity:1; fill:none" points="
  1269.76,1486.45 1269.76,1467.55 
  "/>
<polyline clip-path="url(#clip530)" style="stroke:#000000; stroke-linecap:butt; stroke-linejoin:round; stroke-width:4; stroke-opacity:1; fill:none" points="
  1695.46,1486.45 1695.46,1467.55 
  "/>
<polyline clip-path="url(#clip530)" style="stroke:#000000; stroke-linecap:butt; stroke-linejoin:round; stroke-width:4; stroke-opacity:1; fill:none" points="
  2121.17,1486.45 2121.17,1467.55 
  "/>
<path clip-path="url(#clip530)" d="M372.407 1532.02 L402.083 1532.02 L402.083 1535.95 L372.407 1535.95 L372.407 1532.02 Z" fill="#000000" fill-rule="evenodd" fill-opacity="1" /><path clip-path="url(#clip530)" d="M412.986 1544.91 L420.625 1544.91 L420.625 1518.55 L412.315 1520.21 L412.315 1515.95 L420.578 1514.29 L425.254 1514.29 L425.254 1544.91 L432.893 1544.91 L432.893 1548.85 L412.986 1548.85 L412.986 1544.91 Z" fill="#000000" fill-rule="evenodd" fill-opacity="1" /><path clip-path="url(#clip530)" d="M452.337 1517.37 Q448.726 1517.37 446.898 1520.93 Q445.092 1524.47 445.092 1531.6 Q445.092 1538.71 446.898 1542.27 Q448.726 1545.82 452.337 1545.82 Q455.972 1545.82 457.777 1542.27 Q459.606 1538.71 459.606 1531.6 Q459.606 1524.47 457.777 1520.93 Q455.972 1517.37 452.337 1517.37 M452.337 1513.66 Q458.148 1513.66 461.203 1518.27 Q464.282 1522.85 464.282 1531.6 Q464.282 1540.33 461.203 1544.94 Q458.148 1549.52 452.337 1549.52 Q446.527 1549.52 443.449 1544.94 Q440.393 1540.33 440.393 1531.6 Q440.393 1522.85 443.449 1518.27 Q446.527 1513.66 452.337 1513.66 Z" fill="#000000" fill-rule="evenodd" fill-opacity="1" /><path clip-path="url(#clip530)" d="M813.693 1532.02 L843.368 1532.02 L843.368 1535.95 L813.693 1535.95 L813.693 1532.02 Z" fill="#000000" fill-rule="evenodd" fill-opacity="1" /><path clip-path="url(#clip530)" d="M853.507 1514.29 L871.864 1514.29 L871.864 1518.22 L857.79 1518.22 L857.79 1526.7 Q858.808 1526.35 859.827 1526.19 Q860.845 1526 861.864 1526 Q867.651 1526 871.03 1529.17 Q874.41 1532.34 874.41 1537.76 Q874.41 1543.34 870.938 1546.44 Q867.466 1549.52 861.146 1549.52 Q858.97 1549.52 856.702 1549.15 Q854.456 1548.78 852.049 1548.04 L852.049 1543.34 Q854.132 1544.47 856.354 1545.03 Q858.577 1545.58 861.054 1545.58 Q865.058 1545.58 867.396 1543.48 Q869.734 1541.37 869.734 1537.76 Q869.734 1534.15 867.396 1532.04 Q865.058 1529.94 861.054 1529.94 Q859.179 1529.94 857.304 1530.35 Q855.452 1530.77 853.507 1531.65 L853.507 1514.29 Z" fill="#000000" fill-rule="evenodd" fill-opacity="1" /><path clip-path="url(#clip530)" d="M1269.76 1517.37 Q1266.15 1517.37 1264.32 1520.93 Q1262.51 1524.47 1262.51 1531.6 Q1262.51 1538.71 1264.32 1542.27 Q1266.15 1545.82 1269.76 1545.82 Q1273.39 1545.82 1275.2 1542.27 Q1277.03 1538.71 1277.03 1531.6 Q1277.03 1524.47 1275.2 1520.93 Q1273.39 1517.37 1269.76 1517.37 M1269.76 1513.66 Q1275.57 1513.66 1278.62 1518.27 Q1281.7 1522.85 1281.7 1531.6 Q1281.7 1540.33 1278.62 1544.94 Q1275.57 1549.52 1269.76 1549.52 Q1263.95 1549.52 1260.87 1544.94 Q1257.81 1540.33 1257.81 1531.6 Q1257.81 1522.85 1260.87 1518.27 Q1263.95 1513.66 1269.76 1513.66 Z" fill="#000000" fill-rule="evenodd" fill-opacity="1" /><path clip-path="url(#clip530)" d="M1685.74 1514.29 L1704.1 1514.29 L1704.1 1518.22 L1690.02 1518.22 L1690.02 1526.7 Q1691.04 1526.35 1692.06 1526.19 Q1693.08 1526 1694.1 1526 Q1699.89 1526 1703.27 1529.17 Q1706.65 1532.34 1706.65 1537.76 Q1706.65 1543.34 1703.17 1546.44 Q1699.7 1549.52 1693.38 1549.52 Q1691.21 1549.52 1688.94 1549.15 Q1686.69 1548.78 1684.28 1548.04 L1684.28 1543.34 Q1686.37 1544.47 1688.59 1545.03 Q1690.81 1545.58 1693.29 1545.58 Q1697.29 1545.58 1699.63 1543.48 Q1701.97 1541.37 1701.97 1537.76 Q1701.97 1534.15 1699.63 1532.04 Q1697.29 1529.94 1693.29 1529.94 Q1691.41 1529.94 1689.54 1530.35 Q1687.69 1530.77 1685.74 1531.65 L1685.74 1514.29 Z" fill="#000000" fill-rule="evenodd" fill-opacity="1" /><path clip-path="url(#clip530)" d="M2095.86 1544.91 L2103.5 1544.91 L2103.5 1518.55 L2095.19 1520.21 L2095.19 1515.95 L2103.45 1514.29 L2108.13 1514.29 L2108.13 1544.91 L2115.77 1544.91 L2115.77 1548.85 L2095.86 1548.85 L2095.86 1544.91 Z" fill="#000000" fill-rule="evenodd" fill-opacity="1" /><path clip-path="url(#clip530)" d="M2135.21 1517.37 Q2131.6 1517.37 2129.77 1520.93 Q2127.97 1524.47 2127.97 1531.6 Q2127.97 1538.71 2129.77 1542.27 Q2131.6 1545.82 2135.21 1545.82 Q2138.84 1545.82 2140.65 1542.27 Q2142.48 1538.71 2142.48 1531.6 Q2142.48 1524.47 2140.65 1520.93 Q2138.84 1517.37 2135.21 1517.37 M2135.21 1513.66 Q2141.02 1513.66 2144.08 1518.27 Q2147.16 1522.85 2147.16 1531.6 Q2147.16 1540.33 2144.08 1544.94 Q2141.02 1549.52 2135.21 1549.52 Q2129.4 1549.52 2126.32 1544.94 Q2123.27 1540.33 2123.27 1531.6 Q2123.27 1522.85 2126.32 1518.27 Q2129.4 1513.66 2135.21 1513.66 Z" fill="#000000" fill-rule="evenodd" fill-opacity="1" /><polyline clip-path="url(#clip532)" style="stroke:#000000; stroke-linecap:butt; stroke-linejoin:round; stroke-width:2; stroke-opacity:0.1; fill:none" points="
  186.76,1447.87 2352.76,1447.87 
  "/>
<polyline clip-path="url(#clip532)" style="stroke:#000000; stroke-linecap:butt; stroke-linejoin:round; stroke-width:2; stroke-opacity:0.1; fill:none" points="
  186.76,1083.78 2352.76,1083.78 
  "/>
<polyline clip-path="url(#clip532)" style="stroke:#000000; stroke-linecap:butt; stroke-linejoin:round; stroke-width:2; stroke-opacity:0.1; fill:none" points="
  186.76,719.691 2352.76,719.691 
  "/>
<polyline clip-path="url(#clip532)" style="stroke:#000000; stroke-linecap:butt; stroke-linejoin:round; stroke-width:2; stroke-opacity:0.1; fill:none" points="
  186.76,355.6 2352.76,355.6 
  "/>
<polyline clip-path="url(#clip530)" style="stroke:#000000; stroke-linecap:butt; stroke-linejoin:round; stroke-width:4; stroke-opacity:1; fill:none" points="
  186.76,1486.45 186.76,123.472 
  "/>
<polyline clip-path="url(#clip530)" style="stroke:#000000; stroke-linecap:butt; stroke-linejoin:round; stroke-width:4; stroke-opacity:1; fill:none" points="
  186.76,1447.87 205.658,1447.87 
  "/>
<polyline clip-path="url(#clip530)" style="stroke:#000000; stroke-linecap:butt; stroke-linejoin:round; stroke-width:4; stroke-opacity:1; fill:none" points="
  186.76,1083.78 205.658,1083.78 
  "/>
<polyline clip-path="url(#clip530)" style="stroke:#000000; stroke-linecap:butt; stroke-linejoin:round; stroke-width:4; stroke-opacity:1; fill:none" points="
  186.76,719.691 205.658,719.691 
  "/>
<polyline clip-path="url(#clip530)" style="stroke:#000000; stroke-linecap:butt; stroke-linejoin:round; stroke-width:4; stroke-opacity:1; fill:none" points="
  186.76,355.6 205.658,355.6 
  "/>
<path clip-path="url(#clip530)" d="M63.4226 1433.67 Q59.8115 1433.67 57.9828 1437.24 Q56.1773 1440.78 56.1773 1447.91 Q56.1773 1455.01 57.9828 1458.58 Q59.8115 1462.12 63.4226 1462.12 Q67.0569 1462.12 68.8624 1458.58 Q70.6911 1455.01 70.6911 1447.91 Q70.6911 1440.78 68.8624 1437.24 Q67.0569 1433.67 63.4226 1433.67 M63.4226 1429.97 Q69.2328 1429.97 72.2883 1434.57 Q75.367 1439.16 75.367 1447.91 Q75.367 1456.63 72.2883 1461.24 Q69.2328 1465.82 63.4226 1465.82 Q57.6125 1465.82 54.5338 1461.24 Q51.4782 1456.63 51.4782 1447.91 Q51.4782 1439.16 54.5338 1434.57 Q57.6125 1429.97 63.4226 1429.97 Z" fill="#000000" fill-rule="evenodd" fill-opacity="1" /><path clip-path="url(#clip530)" d="M83.5845 1459.27 L88.4688 1459.27 L88.4688 1465.15 L83.5845 1465.15 L83.5845 1459.27 Z" fill="#000000" fill-rule="evenodd" fill-opacity="1" /><path clip-path="url(#clip530)" d="M108.654 1433.67 Q105.043 1433.67 103.214 1437.24 Q101.409 1440.78 101.409 1447.91 Q101.409 1455.01 103.214 1458.58 Q105.043 1462.12 108.654 1462.12 Q112.288 1462.12 114.094 1458.58 Q115.922 1455.01 115.922 1447.91 Q115.922 1440.78 114.094 1437.24 Q112.288 1433.67 108.654 1433.67 M108.654 1429.97 Q114.464 1429.97 117.52 1434.57 Q120.598 1439.16 120.598 1447.91 Q120.598 1456.63 117.52 1461.24 Q114.464 1465.82 108.654 1465.82 Q102.844 1465.82 99.765 1461.24 Q96.7095 1456.63 96.7095 1447.91 Q96.7095 1439.16 99.765 1434.57 Q102.844 1429.97 108.654 1429.97 Z" fill="#000000" fill-rule="evenodd" fill-opacity="1" /><path clip-path="url(#clip530)" d="M138.816 1433.67 Q135.205 1433.67 133.376 1437.24 Q131.57 1440.78 131.57 1447.91 Q131.57 1455.01 133.376 1458.58 Q135.205 1462.12 138.816 1462.12 Q142.45 1462.12 144.256 1458.58 Q146.084 1455.01 146.084 1447.91 Q146.084 1440.78 144.256 1437.24 Q142.45 1433.67 138.816 1433.67 M138.816 1429.97 Q144.626 1429.97 147.681 1434.57 Q150.76 1439.16 150.76 1447.91 Q150.76 1456.63 147.681 1461.24 Q144.626 1465.82 138.816 1465.82 Q133.006 1465.82 129.927 1461.24 Q126.871 1456.63 126.871 1447.91 Q126.871 1439.16 129.927 1434.57 Q133.006 1429.97 138.816 1429.97 Z" fill="#000000" fill-rule="evenodd" fill-opacity="1" /><path clip-path="url(#clip530)" d="M65.0198 1069.58 Q61.4087 1069.58 59.58 1073.15 Q57.7745 1076.69 57.7745 1083.82 Q57.7745 1090.92 59.58 1094.49 Q61.4087 1098.03 65.0198 1098.03 Q68.6541 1098.03 70.4596 1094.49 Q72.2883 1090.92 72.2883 1083.82 Q72.2883 1076.69 70.4596 1073.15 Q68.6541 1069.58 65.0198 1069.58 M65.0198 1065.88 Q70.83 1065.88 73.8855 1070.48 Q76.9642 1075.07 76.9642 1083.82 Q76.9642 1092.54 73.8855 1097.15 Q70.83 1101.73 65.0198 1101.73 Q59.2097 1101.73 56.131 1097.15 Q53.0754 1092.54 53.0754 1083.82 Q53.0754 1075.07 56.131 1070.48 Q59.2097 1065.88 65.0198 1065.88 Z" fill="#000000" fill-rule="evenodd" fill-opacity="1" /><path clip-path="url(#clip530)" d="M85.1818 1095.18 L90.066 1095.18 L90.066 1101.06 L85.1818 1101.06 L85.1818 1095.18 Z" fill="#000000" fill-rule="evenodd" fill-opacity="1" /><path clip-path="url(#clip530)" d="M110.251 1069.58 Q106.64 1069.58 104.811 1073.15 Q103.006 1076.69 103.006 1083.82 Q103.006 1090.92 104.811 1094.49 Q106.64 1098.03 110.251 1098.03 Q113.885 1098.03 115.691 1094.49 Q117.52 1090.92 117.52 1083.82 Q117.52 1076.69 115.691 1073.15 Q113.885 1069.58 110.251 1069.58 M110.251 1065.88 Q116.061 1065.88 119.117 1070.48 Q122.195 1075.07 122.195 1083.82 Q122.195 1092.54 119.117 1097.15 Q116.061 1101.73 110.251 1101.73 Q104.441 1101.73 101.362 1097.15 Q98.3067 1092.54 98.3067 1083.82 Q98.3067 1075.07 101.362 1070.48 Q104.441 1065.88 110.251 1065.88 Z" fill="#000000" fill-rule="evenodd" fill-opacity="1" /><path clip-path="url(#clip530)" d="M134.441 1097.13 L150.76 1097.13 L150.76 1101.06 L128.816 1101.06 L128.816 1097.13 Q131.478 1094.37 136.061 1089.74 Q140.668 1085.09 141.848 1083.75 Q144.093 1081.22 144.973 1079.49 Q145.876 1077.73 145.876 1076.04 Q145.876 1073.28 143.931 1071.55 Q142.01 1069.81 138.908 1069.81 Q136.709 1069.81 134.256 1070.58 Q131.825 1071.34 129.047 1072.89 L129.047 1068.17 Q131.871 1067.03 134.325 1066.46 Q136.779 1065.88 138.816 1065.88 Q144.186 1065.88 147.38 1068.56 Q150.575 1071.25 150.575 1075.74 Q150.575 1077.87 149.765 1079.79 Q148.978 1081.69 146.871 1084.28 Q146.293 1084.95 143.191 1088.17 Q140.089 1091.36 134.441 1097.13 Z" fill="#000000" fill-rule="evenodd" fill-opacity="1" /><path clip-path="url(#clip530)" d="M62.9365 705.49 Q59.3254 705.49 57.4967 709.054 Q55.6912 712.596 55.6912 719.726 Q55.6912 726.832 57.4967 730.397 Q59.3254 733.939 62.9365 733.939 Q66.5707 733.939 68.3763 730.397 Q70.205 726.832 70.205 719.726 Q70.205 712.596 68.3763 709.054 Q66.5707 705.49 62.9365 705.49 M62.9365 701.786 Q68.7467 701.786 71.8022 706.392 Q74.8809 710.976 74.8809 719.726 Q74.8809 728.452 71.8022 733.059 Q68.7467 737.642 62.9365 737.642 Q57.1264 737.642 54.0477 733.059 Q50.9921 728.452 50.9921 719.726 Q50.9921 710.976 54.0477 706.392 Q57.1264 701.786 62.9365 701.786 Z" fill="#000000" fill-rule="evenodd" fill-opacity="1" /><path clip-path="url(#clip530)" d="M83.0984 731.091 L87.9827 731.091 L87.9827 736.971 L83.0984 736.971 L83.0984 731.091 Z" fill="#000000" fill-rule="evenodd" fill-opacity="1" /><path clip-path="url(#clip530)" d="M108.168 705.49 Q104.557 705.49 102.728 709.054 Q100.922 712.596 100.922 719.726 Q100.922 726.832 102.728 730.397 Q104.557 733.939 108.168 733.939 Q111.802 733.939 113.608 730.397 Q115.436 726.832 115.436 719.726 Q115.436 712.596 113.608 709.054 Q111.802 705.49 108.168 705.49 M108.168 701.786 Q113.978 701.786 117.033 706.392 Q120.112 710.976 120.112 719.726 Q120.112 728.452 117.033 733.059 Q113.978 737.642 108.168 737.642 Q102.358 737.642 99.2789 733.059 Q96.2234 728.452 96.2234 719.726 Q96.2234 710.976 99.2789 706.392 Q102.358 701.786 108.168 701.786 Z" fill="#000000" fill-rule="evenodd" fill-opacity="1" /><path clip-path="url(#clip530)" d="M141.177 706.485 L129.371 724.934 L141.177 724.934 L141.177 706.485 M139.95 702.411 L145.83 702.411 L145.83 724.934 L150.76 724.934 L150.76 728.823 L145.83 728.823 L145.83 736.971 L141.177 736.971 L141.177 728.823 L125.575 728.823 L125.575 724.309 L139.95 702.411 Z" fill="#000000" fill-rule="evenodd" fill-opacity="1" /><path clip-path="url(#clip530)" d="M63.2606 341.399 Q59.6495 341.399 57.8208 344.963 Q56.0152 348.505 56.0152 355.635 Q56.0152 362.741 57.8208 366.306 Q59.6495 369.847 63.2606 369.847 Q66.8948 369.847 68.7004 366.306 Q70.5291 362.741 70.5291 355.635 Q70.5291 348.505 68.7004 344.963 Q66.8948 341.399 63.2606 341.399 M63.2606 337.695 Q69.0707 337.695 72.1263 342.301 Q75.205 346.885 75.205 355.635 Q75.205 364.361 72.1263 368.968 Q69.0707 373.551 63.2606 373.551 Q57.4504 373.551 54.3717 368.968 Q51.3162 364.361 51.3162 355.635 Q51.3162 346.885 54.3717 342.301 Q57.4504 337.695 63.2606 337.695 Z" fill="#000000" fill-rule="evenodd" fill-opacity="1" /><path clip-path="url(#clip530)" d="M83.4225 367 L88.3067 367 L88.3067 372.88 L83.4225 372.88 L83.4225 367 Z" fill="#000000" fill-rule="evenodd" fill-opacity="1" /><path clip-path="url(#clip530)" d="M108.492 341.399 Q104.881 341.399 103.052 344.963 Q101.246 348.505 101.246 355.635 Q101.246 362.741 103.052 366.306 Q104.881 369.847 108.492 369.847 Q112.126 369.847 113.932 366.306 Q115.76 362.741 115.76 355.635 Q115.76 348.505 113.932 344.963 Q112.126 341.399 108.492 341.399 M108.492 337.695 Q114.302 337.695 117.358 342.301 Q120.436 346.885 120.436 355.635 Q120.436 364.361 117.358 368.968 Q114.302 373.551 108.492 373.551 Q102.682 373.551 99.603 368.968 Q96.5474 364.361 96.5474 355.635 Q96.5474 346.885 99.603 342.301 Q102.682 337.695 108.492 337.695 Z" fill="#000000" fill-rule="evenodd" fill-opacity="1" /><path clip-path="url(#clip530)" d="M139.232 353.736 Q136.084 353.736 134.232 355.889 Q132.404 358.042 132.404 361.792 Q132.404 365.519 134.232 367.695 Q136.084 369.847 139.232 369.847 Q142.381 369.847 144.209 367.695 Q146.061 365.519 146.061 361.792 Q146.061 358.042 144.209 355.889 Q142.381 353.736 139.232 353.736 M148.515 339.084 L148.515 343.343 Q146.756 342.51 144.95 342.07 Q143.168 341.63 141.408 341.63 Q136.779 341.63 134.325 344.755 Q131.894 347.88 131.547 354.199 Q132.913 352.186 134.973 351.121 Q137.033 350.033 139.51 350.033 Q144.718 350.033 147.728 353.204 Q150.76 356.352 150.76 361.792 Q150.76 367.116 147.612 370.334 Q144.464 373.551 139.232 373.551 Q133.237 373.551 130.066 368.968 Q126.894 364.361 126.894 355.635 Q126.894 347.44 130.783 342.579 Q134.672 337.695 141.223 337.695 Q142.982 337.695 144.765 338.042 Q146.57 338.389 148.515 339.084 Z" fill="#000000" fill-rule="evenodd" fill-opacity="1" /><path clip-path="url(#clip530)" d="M726.694 12.096 L737.712 12.096 L764.529 62.6918 L764.529 12.096 L772.469 12.096 L772.469 72.576 L761.451 72.576 L734.634 21.9802 L734.634 72.576 L726.694 72.576 L726.694 12.096 Z" fill="#000000" fill-rule="evenodd" fill-opacity="1" /><path clip-path="url(#clip530)" d="M788.754 12.096 L800.947 12.096 L816.381 53.2532 L831.896 12.096 L844.089 12.096 L844.089 72.576 L836.109 72.576 L836.109 19.4686 L820.513 60.9499 L812.289 60.9499 L796.693 19.4686 L796.693 72.576 L788.754 72.576 L788.754 12.096 Z" fill="#000000" fill-rule="evenodd" fill-opacity="1" /><path clip-path="url(#clip530)" d="M860.333 12.096 L895.09 12.096 L895.09 18.9825 L868.516 18.9825 L868.516 36.8065 L892.497 36.8065 L892.497 43.6931 L868.516 43.6931 L868.516 72.576 L860.333 72.576 L860.333 12.096 Z" fill="#000000" fill-rule="evenodd" fill-opacity="1" /><path clip-path="url(#clip530)" d="M929.766 27.2059 L937.219 27.2059 L946.536 62.6108 L955.813 27.2059 L964.603 27.2059 L973.92 62.6108 L983.197 27.2059 L990.651 27.2059 L978.782 72.576 L969.991 72.576 L960.228 35.3887 L950.425 72.576 L941.635 72.576 L929.766 27.2059 Z" fill="#000000" fill-rule="evenodd" fill-opacity="1" /><path clip-path="url(#clip530)" d="M1001.95 27.2059 L1009.41 27.2059 L1009.41 72.576 L1001.95 72.576 L1001.95 27.2059 M1001.95 9.54393 L1009.41 9.54393 L1009.41 18.9825 L1001.95 18.9825 L1001.95 9.54393 Z" fill="#000000" fill-rule="evenodd" fill-opacity="1" /><path clip-path="url(#clip530)" d="M1032.38 14.324 L1032.38 27.2059 L1047.73 27.2059 L1047.73 32.9987 L1032.38 32.9987 L1032.38 57.6282 Q1032.38 63.1779 1033.87 64.7578 Q1035.41 66.3376 1040.07 66.3376 L1047.73 66.3376 L1047.73 72.576 L1040.07 72.576 Q1031.44 72.576 1028.16 69.3758 Q1024.88 66.1351 1024.88 57.6282 L1024.88 32.9987 L1019.41 32.9987 L1019.41 27.2059 L1024.88 27.2059 L1024.88 14.324 L1032.38 14.324 Z" fill="#000000" fill-rule="evenodd" fill-opacity="1" /><path clip-path="url(#clip530)" d="M1095.25 45.1919 L1095.25 72.576 L1087.79 72.576 L1087.79 45.4349 Q1087.79 38.994 1085.28 35.7938 Q1082.77 32.5936 1077.75 32.5936 Q1071.71 32.5936 1068.23 36.4419 Q1064.74 40.2903 1064.74 46.9338 L1064.74 72.576 L1057.25 72.576 L1057.25 9.54393 L1064.74 9.54393 L1064.74 34.2544 Q1067.42 30.163 1071.02 28.1376 Q1074.67 26.1121 1079.41 26.1121 Q1087.22 26.1121 1091.23 30.9732 Q1095.25 35.7938 1095.25 45.1919 Z" fill="#000000" fill-rule="evenodd" fill-opacity="1" /><path clip-path="url(#clip530)" d="M1131.42 12.096 L1139.68 12.096 L1152.4 63.2184 L1165.08 12.096 L1174.28 12.096 L1187 63.2184 L1199.68 12.096 L1207.98 12.096 L1192.79 72.576 L1182.5 72.576 L1169.74 20.0763 L1156.86 72.576 L1146.57 72.576 L1131.42 12.096 Z" fill="#000000" fill-rule="evenodd" fill-opacity="1" /><path clip-path="url(#clip530)" d="M1233.83 49.7694 Q1224.79 49.7694 1221.31 51.8354 Q1217.83 53.9013 1217.83 58.8839 Q1217.83 62.8538 1220.42 65.2034 Q1223.05 67.5124 1227.55 67.5124 Q1233.75 67.5124 1237.47 63.1374 Q1241.24 58.7219 1241.24 51.4303 L1241.24 49.7694 L1233.83 49.7694 M1248.69 46.6907 L1248.69 72.576 L1241.24 72.576 L1241.24 65.6895 Q1238.69 69.8214 1234.88 71.8063 Q1231.07 73.7508 1225.56 73.7508 Q1218.6 73.7508 1214.46 69.8619 Q1210.37 65.9325 1210.37 59.3701 Q1210.37 51.7138 1215.48 47.825 Q1220.62 43.9361 1230.79 43.9361 L1241.24 43.9361 L1241.24 43.2069 Q1241.24 38.0623 1237.84 35.2672 Q1234.47 32.4315 1228.36 32.4315 Q1224.47 32.4315 1220.78 33.3632 Q1217.1 34.295 1213.69 36.1584 L1213.69 29.2718 Q1217.78 27.692 1221.63 26.9223 Q1225.48 26.1121 1229.13 26.1121 Q1238.97 26.1121 1243.83 31.2163 Q1248.69 36.3204 1248.69 46.6907 Z" fill="#000000" fill-rule="evenodd" fill-opacity="1" /><path clip-path="url(#clip530)" d="M1292.97 28.5427 L1292.97 35.5912 Q1289.81 33.9709 1286.41 33.1607 Q1283 32.3505 1279.36 32.3505 Q1273.81 32.3505 1271.01 34.0519 Q1268.26 35.7533 1268.26 39.156 Q1268.26 41.7486 1270.24 43.2475 Q1272.23 44.7058 1278.22 46.0426 L1280.78 46.6097 Q1288.72 48.3111 1292.04 51.4303 Q1295.4 54.509 1295.4 60.0587 Q1295.4 66.3781 1290.38 70.0644 Q1285.39 73.7508 1276.64 73.7508 Q1273 73.7508 1269.03 73.0216 Q1265.1 72.3329 1260.72 70.9151 L1260.72 63.2184 Q1264.86 65.3654 1268.87 66.4591 Q1272.88 67.5124 1276.81 67.5124 Q1282.07 67.5124 1284.91 65.73 Q1287.74 63.9071 1287.74 60.6258 Q1287.74 57.5877 1285.68 55.9673 Q1283.65 54.3469 1276.73 52.8481 L1274.13 52.2405 Q1267.21 50.7821 1264.13 47.7845 Q1261.05 44.7463 1261.05 39.4801 Q1261.05 33.0797 1265.59 29.5959 Q1270.12 26.1121 1278.47 26.1121 Q1282.6 26.1121 1286.25 26.7198 Q1289.89 27.3274 1292.97 28.5427 Z" fill="#000000" fill-rule="evenodd" fill-opacity="1" /><path clip-path="url(#clip530)" d="M1336.19 28.5427 L1336.19 35.5912 Q1333.03 33.9709 1329.63 33.1607 Q1326.23 32.3505 1322.58 32.3505 Q1317.03 32.3505 1314.24 34.0519 Q1311.48 35.7533 1311.48 39.156 Q1311.48 41.7486 1313.47 43.2475 Q1315.45 44.7058 1321.45 46.0426 L1324 46.6097 Q1331.94 48.3111 1335.26 51.4303 Q1338.62 54.509 1338.62 60.0587 Q1338.62 66.3781 1333.6 70.0644 Q1328.62 73.7508 1319.87 73.7508 Q1316.22 73.7508 1312.25 73.0216 Q1308.32 72.3329 1303.95 70.9151 L1303.95 63.2184 Q1308.08 65.3654 1312.09 66.4591 Q1316.1 67.5124 1320.03 67.5124 Q1325.3 67.5124 1328.13 65.73 Q1330.97 63.9071 1330.97 60.6258 Q1330.97 57.5877 1328.9 55.9673 Q1326.88 54.3469 1319.95 52.8481 L1317.36 52.2405 Q1310.43 50.7821 1307.35 47.7845 Q1304.27 44.7463 1304.27 39.4801 Q1304.27 33.0797 1308.81 29.5959 Q1313.35 26.1121 1321.69 26.1121 Q1325.82 26.1121 1329.47 26.7198 Q1333.11 27.3274 1336.19 28.5427 Z" fill="#000000" fill-rule="evenodd" fill-opacity="1" /><path clip-path="url(#clip530)" d="M1389.3 48.0275 L1389.3 51.6733 L1355.03 51.6733 Q1355.52 59.3701 1359.65 63.421 Q1363.82 67.4314 1371.23 67.4314 Q1375.53 67.4314 1379.54 66.3781 Q1383.59 65.3249 1387.56 63.2184 L1387.56 70.267 Q1383.55 71.9684 1379.33 72.8596 Q1375.12 73.7508 1370.79 73.7508 Q1359.93 73.7508 1353.57 67.4314 Q1347.25 61.1119 1347.25 50.3365 Q1347.25 39.1965 1353.25 32.6746 Q1359.28 26.1121 1369.49 26.1121 Q1378.65 26.1121 1383.95 32.0264 Q1389.3 37.9003 1389.3 48.0275 M1381.85 45.84 Q1381.77 39.7232 1378.4 36.0774 Q1375.08 32.4315 1369.57 32.4315 Q1363.33 32.4315 1359.57 35.9558 Q1355.84 39.4801 1355.27 45.8805 L1381.85 45.84 Z" fill="#000000" fill-rule="evenodd" fill-opacity="1" /><path clip-path="url(#clip530)" d="M1427.82 34.1734 Q1426.57 33.4443 1425.07 33.1202 Q1423.61 32.7556 1421.83 32.7556 Q1415.51 32.7556 1412.11 36.8875 Q1408.74 40.9789 1408.74 48.6757 L1408.74 72.576 L1401.25 72.576 L1401.25 27.2059 L1408.74 27.2059 L1408.74 34.2544 Q1411.09 30.1225 1414.86 28.1376 Q1418.63 26.1121 1424.02 26.1121 Q1424.79 26.1121 1425.72 26.2337 Q1426.65 26.3147 1427.78 26.5172 L1427.82 34.1734 Z" fill="#000000" fill-rule="evenodd" fill-opacity="1" /><path clip-path="url(#clip530)" d="M1464.57 28.5427 L1464.57 35.5912 Q1461.41 33.9709 1458 33.1607 Q1454.6 32.3505 1450.95 32.3505 Q1445.41 32.3505 1442.61 34.0519 Q1439.86 35.7533 1439.86 39.156 Q1439.86 41.7486 1441.84 43.2475 Q1443.83 44.7058 1449.82 46.0426 L1452.37 46.6097 Q1460.31 48.3111 1463.63 51.4303 Q1467 54.509 1467 60.0587 Q1467 66.3781 1461.97 70.0644 Q1456.99 73.7508 1448.24 73.7508 Q1444.6 73.7508 1440.63 73.0216 Q1436.7 72.3329 1432.32 70.9151 L1432.32 63.2184 Q1436.45 65.3654 1440.46 66.4591 Q1444.47 67.5124 1448.4 67.5124 Q1453.67 67.5124 1456.5 65.73 Q1459.34 63.9071 1459.34 60.6258 Q1459.34 57.5877 1457.27 55.9673 Q1455.25 54.3469 1448.32 52.8481 L1445.73 52.2405 Q1438.8 50.7821 1435.72 47.7845 Q1432.64 44.7463 1432.64 39.4801 Q1432.64 33.0797 1437.18 29.5959 Q1441.72 26.1121 1450.06 26.1121 Q1454.2 26.1121 1457.84 26.7198 Q1461.49 27.3274 1464.57 28.5427 Z" fill="#000000" fill-rule="evenodd" fill-opacity="1" /><path clip-path="url(#clip530)" d="M1486.24 14.324 L1486.24 27.2059 L1501.59 27.2059 L1501.59 32.9987 L1486.24 32.9987 L1486.24 57.6282 Q1486.24 63.1779 1487.74 64.7578 Q1489.28 66.3376 1493.94 66.3376 L1501.59 66.3376 L1501.59 72.576 L1493.94 72.576 Q1485.31 72.576 1482.03 69.3758 Q1478.74 66.1351 1478.74 57.6282 L1478.74 32.9987 L1473.28 32.9987 L1473.28 27.2059 L1478.74 27.2059 L1478.74 14.324 L1486.24 14.324 Z" fill="#000000" fill-rule="evenodd" fill-opacity="1" /><path clip-path="url(#clip530)" d="M1550.2 48.0275 L1550.2 51.6733 L1515.93 51.6733 Q1516.42 59.3701 1520.55 63.421 Q1524.72 67.4314 1532.14 67.4314 Q1536.43 67.4314 1540.44 66.3781 Q1544.49 65.3249 1548.46 63.2184 L1548.46 70.267 Q1544.45 71.9684 1540.24 72.8596 Q1536.02 73.7508 1531.69 73.7508 Q1520.83 73.7508 1514.47 67.4314 Q1508.15 61.1119 1508.15 50.3365 Q1508.15 39.1965 1514.15 32.6746 Q1520.18 26.1121 1530.39 26.1121 Q1539.55 26.1121 1544.85 32.0264 Q1550.2 37.9003 1550.2 48.0275 M1542.75 45.84 Q1542.67 39.7232 1539.31 36.0774 Q1535.98 32.4315 1530.47 32.4315 Q1524.24 32.4315 1520.47 35.9558 Q1516.74 39.4801 1516.17 45.8805 L1542.75 45.84 Z" fill="#000000" fill-rule="evenodd" fill-opacity="1" /><path clip-path="url(#clip530)" d="M1562.44 27.2059 L1569.89 27.2059 L1569.89 72.576 L1562.44 72.576 L1562.44 27.2059 M1562.44 9.54393 L1569.89 9.54393 L1569.89 18.9825 L1562.44 18.9825 L1562.44 9.54393 Z" fill="#000000" fill-rule="evenodd" fill-opacity="1" /><path clip-path="url(#clip530)" d="M1623.2 45.1919 L1623.2 72.576 L1615.75 72.576 L1615.75 45.4349 Q1615.75 38.994 1613.23 35.7938 Q1610.72 32.5936 1605.7 32.5936 Q1599.66 32.5936 1596.18 36.4419 Q1592.7 40.2903 1592.7 46.9338 L1592.7 72.576 L1585.2 72.576 L1585.2 27.2059 L1592.7 27.2059 L1592.7 34.2544 Q1595.37 30.163 1598.97 28.1376 Q1602.62 26.1121 1607.36 26.1121 Q1615.18 26.1121 1619.19 30.9732 Q1623.2 35.7938 1623.2 45.1919 Z" fill="#000000" fill-rule="evenodd" fill-opacity="1" /><path clip-path="url(#clip530)" d="M1664.44 9.54393 L1671.89 9.54393 L1671.89 72.576 L1664.44 72.576 L1664.44 9.54393 Z" fill="#000000" fill-rule="evenodd" fill-opacity="1" /><path clip-path="url(#clip530)" d="M1705.07 32.4315 Q1699.07 32.4315 1695.59 37.1306 Q1692.11 41.7891 1692.11 49.9314 Q1692.11 58.0738 1695.55 62.7728 Q1699.03 67.4314 1705.07 67.4314 Q1711.02 67.4314 1714.51 62.7323 Q1717.99 58.0333 1717.99 49.9314 Q1717.99 41.8701 1714.51 37.1711 Q1711.02 32.4315 1705.07 32.4315 M1705.07 26.1121 Q1714.79 26.1121 1720.34 32.4315 Q1725.89 38.7509 1725.89 49.9314 Q1725.89 61.0714 1720.34 67.4314 Q1714.79 73.7508 1705.07 73.7508 Q1695.31 73.7508 1689.76 67.4314 Q1684.25 61.0714 1684.25 49.9314 Q1684.25 38.7509 1689.76 32.4315 Q1695.31 26.1121 1705.07 26.1121 Z" fill="#000000" fill-rule="evenodd" fill-opacity="1" /><path clip-path="url(#clip530)" d="M1767.17 28.5427 L1767.17 35.5912 Q1764.01 33.9709 1760.61 33.1607 Q1757.2 32.3505 1753.56 32.3505 Q1748.01 32.3505 1745.21 34.0519 Q1742.46 35.7533 1742.46 39.156 Q1742.46 41.7486 1744.44 43.2475 Q1746.43 44.7058 1752.42 46.0426 L1754.98 46.6097 Q1762.92 48.3111 1766.24 51.4303 Q1769.6 54.509 1769.6 60.0587 Q1769.6 66.3781 1764.58 70.0644 Q1759.59 73.7508 1750.84 73.7508 Q1747.2 73.7508 1743.23 73.0216 Q1739.3 72.3329 1734.92 70.9151 L1734.92 63.2184 Q1739.06 65.3654 1743.07 66.4591 Q1747.08 67.5124 1751.01 67.5124 Q1756.27 67.5124 1759.11 65.73 Q1761.94 63.9071 1761.94 60.6258 Q1761.94 57.5877 1759.88 55.9673 Q1757.85 54.3469 1750.92 52.8481 L1748.33 52.2405 Q1741.4 50.7821 1738.33 47.7845 Q1735.25 44.7463 1735.25 39.4801 Q1735.25 33.0797 1739.78 29.5959 Q1744.32 26.1121 1752.67 26.1121 Q1756.8 26.1121 1760.44 26.7198 Q1764.09 27.3274 1767.17 28.5427 Z" fill="#000000" fill-rule="evenodd" fill-opacity="1" /><path clip-path="url(#clip530)" d="M1810.39 28.5427 L1810.39 35.5912 Q1807.23 33.9709 1803.83 33.1607 Q1800.43 32.3505 1796.78 32.3505 Q1791.23 32.3505 1788.44 34.0519 Q1785.68 35.7533 1785.68 39.156 Q1785.68 41.7486 1787.67 43.2475 Q1789.65 44.7058 1795.65 46.0426 L1798.2 46.6097 Q1806.14 48.3111 1809.46 51.4303 Q1812.82 54.509 1812.82 60.0587 Q1812.82 66.3781 1807.8 70.0644 Q1802.82 73.7508 1794.07 73.7508 Q1790.42 73.7508 1786.45 73.0216 Q1782.52 72.3329 1778.15 70.9151 L1778.15 63.2184 Q1782.28 65.3654 1786.29 66.4591 Q1790.3 67.5124 1794.23 67.5124 Q1799.49 67.5124 1802.33 65.73 Q1805.17 63.9071 1805.17 60.6258 Q1805.17 57.5877 1803.1 55.9673 Q1801.07 54.3469 1794.15 52.8481 L1791.55 52.2405 Q1784.63 50.7821 1781.55 47.7845 Q1778.47 44.7463 1778.47 39.4801 Q1778.47 33.0797 1783.01 29.5959 Q1787.54 26.1121 1795.89 26.1121 Q1800.02 26.1121 1803.67 26.7198 Q1807.31 27.3274 1810.39 28.5427 Z" fill="#000000" fill-rule="evenodd" fill-opacity="1" /><polyline clip-path="url(#clip532)" style="stroke:#e31a1c; stroke-linecap:butt; stroke-linejoin:round; stroke-width:4; stroke-opacity:1; fill:none" points="
  248.062,1447.87 268.702,1447.87 289.343,1447.87 309.983,1447.87 330.623,1447.87 351.264,1447.87 371.904,1447.87 392.544,1447.87 413.184,1447.87 433.825,1447.87 
  454.465,1447.87 475.105,1447.87 495.746,1447.87 516.386,1447.87 537.026,1447.87 557.667,1447.87 578.307,1447.87 598.947,1447.87 619.588,1447.87 640.228,1447.87 
  660.868,1447.87 681.509,1447.87 702.149,1447.87 722.789,1447.87 743.43,1447.87 764.07,1447.87 784.71,1447.87 805.351,1447.87 825.991,1447.86 846.631,1447.85 
  867.272,1447.79 887.912,1447.52 908.552,1445.96 929.193,1438.76 949.833,1419.26 970.473,1384.35 991.114,1337.59 1011.75,1273.89 1032.39,1204.08 1053.03,1121.28 
  1073.67,1045.06 1094.32,970.736 1114.96,874.285 1135.6,780.362 1156.24,665.68 1176.88,549.974 1197.52,441.76 1218.16,342.327 1238.8,270.405 1259.44,227.099 
  1280.08,212.578 1300.72,247.518 1321.36,308.467 1342,397.535 1362.64,515.397 1383.28,635.126 1403.92,763.891 1424.56,889.385 1445.2,1009.12 1465.84,1115.24 
  1486.48,1209.48 1507.12,1288.7 1527.76,1353.8 1548.4,1404.79 1569.04,1434.23 1589.68,1445.76 1610.32,1447.64 1630.96,1447.84 1651.6,1447.87 1672.24,1447.87 
  1692.88,1447.87 1713.53,1447.87 1734.17,1447.87 1754.81,1447.87 1775.45,1447.87 1796.09,1447.87 1816.73,1447.87 1837.37,1447.87 1858.01,1447.87 1878.65,1447.87 
  1899.29,1447.87 1919.93,1447.87 1940.57,1447.87 1961.21,1447.87 1981.85,1447.87 2002.49,1447.87 2023.13,1447.87 2043.77,1447.87 2064.41,1447.87 2085.05,1447.87 
  2105.69,1447.87 2126.33,1447.87 2146.97,1447.87 2167.61,1447.87 2188.25,1447.87 2208.89,1447.87 2229.53,1447.87 2250.17,1447.87 2270.81,1447.87 2291.45,1447.87 
  
  "/>
<polyline clip-path="url(#clip532)" style="stroke:#377db8; stroke-linecap:butt; stroke-linejoin:round; stroke-width:4; stroke-opacity:1; fill:none" points="
  248.062,1447.6 268.702,1447.72 289.343,1447.65 309.983,1447.71 330.623,1447.75 351.264,1447.75 371.904,1447.71 392.544,1447.74 413.184,1447.77 433.825,1447.8 
  454.465,1447.77 475.105,1447.78 495.746,1447.77 516.386,1447.71 537.026,1447.69 557.667,1447.67 578.307,1447.61 598.947,1447.58 619.588,1447.54 640.228,1447.46 
  660.868,1447.4 681.509,1447.31 702.149,1447.23 722.789,1447.14 743.43,1447.04 764.07,1446.93 784.71,1446.75 805.351,1446.48 825.991,1446.08 846.631,1445.47 
  867.272,1444.36 887.912,1442.77 908.552,1440.41 929.193,1437.48 949.833,1436.59 970.473,1436.28 991.114,1436.12 1011.75,1436.2 1032.39,1437.08 1053.03,1437.96 
  1073.67,1440.16 1094.32,1442.49 1114.96,1443.81 1135.6,1444.56 1156.24,1444.73 1176.88,1444.63 1197.52,1444.23 1218.16,1443.5 1238.8,1442.43 1259.44,1440.97 
  1280.08,1438.99 1300.72,1436.55 1321.36,1433.47 1342,1429.64 1362.64,1425 1383.28,1418.61 1403.92,1409.17 1424.56,1395.2 1445.2,1375.52 1465.84,1348.52 
  1486.48,1314.34 1507.12,1269.86 1527.76,1216.56 1548.4,1164.88 1569.04,1104.09 1589.68,1053.55 1610.32,984.559 1630.96,907.136 1651.6,814.175 1672.24,695.734 
  1692.88,586.035 1713.53,474.883 1734.17,377.794 1754.81,316.592 1775.45,269.213 1796.09,266.893 1816.73,292.538 1837.37,361.462 1858.01,453.741 1878.65,569.885 
  1899.29,694.701 1919.93,822.657 1940.57,947.771 1961.21,1058.96 1981.85,1157.09 2002.49,1227.19 2023.13,1295.41 2043.77,1343.92 2064.41,1379.11 2085.05,1403.42 
  2105.69,1420.58 2126.33,1431.57 2146.97,1438.4 2167.61,1441.35 2188.25,1444.03 2208.89,1445.45 2229.53,1446.58 2250.17,1447.02 2270.81,1447.26 2291.45,1447.37 
  
  "/>
<polyline clip-path="url(#clip532)" style="stroke:#4dae49; stroke-linecap:butt; stroke-linejoin:round; stroke-width:4; stroke-opacity:1; fill:none" points="
  248.062,1447.51 268.702,1447.44 289.343,1446.99 309.983,1446.65 330.623,1445.22 351.264,1443.61 371.904,1440.52 392.544,1434.75 413.184,1425.45 433.825,1409.75 
  454.465,1387.79 475.105,1356.52 495.746,1314.38 516.386,1257.59 537.026,1177.4 557.667,1080.82 578.307,966.591 598.947,843.683 619.588,702.012 640.228,563.787 
  660.868,431.686 681.509,315.523 702.149,236.088 722.789,188.813 743.43,162.047 764.07,206.093 784.71,265.437 805.351,365.516 825.991,485.846 846.631,615.065 
  867.272,741.503 887.912,863.633 908.552,966.128 929.193,1061.52 949.833,1144.58 970.473,1213.31 991.114,1277.03 1011.75,1332.73 1032.39,1384.73 1053.03,1421.63 
  1073.67,1441.93 1094.32,1447 1114.96,1447.73 1135.6,1447.84 1156.24,1447.87 1176.88,1447.87 1197.52,1447.87 1218.16,1447.87 1238.8,1447.87 1259.44,1447.87 
  1280.08,1447.87 1300.72,1447.87 1321.36,1447.87 1342,1447.87 1362.64,1447.87 1383.28,1447.87 1403.92,1447.87 1424.56,1447.87 1445.2,1447.87 1465.84,1447.87 
  1486.48,1447.87 1507.12,1447.87 1527.76,1447.87 1548.4,1447.87 1569.04,1447.87 1589.68,1447.87 1610.32,1447.87 1630.96,1447.87 1651.6,1447.87 1672.24,1447.87 
  1692.88,1447.87 1713.53,1447.87 1734.17,1447.87 1754.81,1447.87 1775.45,1447.87 1796.09,1447.87 1816.73,1447.87 1837.37,1447.87 1858.01,1447.87 1878.65,1447.87 
  1899.29,1447.87 1919.93,1447.87 1940.57,1447.87 1961.21,1447.87 1981.85,1447.87 2002.49,1447.87 2023.13,1447.87 2043.77,1447.87 2064.41,1447.87 2085.05,1447.87 
  2105.69,1447.87 2126.33,1447.87 2146.97,1447.87 2167.61,1447.87 2188.25,1447.87 2208.89,1447.87 2229.53,1447.87 2250.17,1447.87 2270.81,1447.87 2291.45,1447.87 
  
  "/>
<path clip-path="url(#clip530)" d="
M1987.55 376.265 L2280.56 376.265 L2280.56 168.905 L1987.55 168.905  Z
  " fill="#ffffff" fill-rule="evenodd" fill-opacity="1"/>
<polyline clip-path="url(#clip530)" style="stroke:#000000; stroke-linecap:butt; stroke-linejoin:round; stroke-width:4; stroke-opacity:1; fill:none" points="
  1987.55,376.265 2280.56,376.265 2280.56,168.905 1987.55,168.905 1987.55,376.265 
  "/>
<polyline clip-path="url(#clip530)" style="stroke:#e31a1c; stroke-linecap:butt; stroke-linejoin:round; stroke-width:4; stroke-opacity:1; fill:none" points="
  2011.55,220.745 2155.55,220.745 
  "/>
<path clip-path="url(#clip530)" d="M2193.39 240.432 Q2191.58 245.062 2189.87 246.474 Q2188.16 247.886 2185.29 247.886 L2181.89 247.886 L2181.89 244.321 L2184.39 244.321 Q2186.14 244.321 2187.12 243.488 Q2188.09 242.654 2189.27 239.552 L2190.03 237.608 L2179.55 212.099 L2184.06 212.099 L2192.16 232.377 L2200.26 212.099 L2204.78 212.099 L2193.39 240.432 Z" fill="#000000" fill-rule="evenodd" fill-opacity="1" /><path clip-path="url(#clip530)" d="M2212.07 234.089 L2219.71 234.089 L2219.71 207.724 L2211.4 209.391 L2211.4 205.131 L2219.66 203.465 L2224.34 203.465 L2224.34 234.089 L2231.98 234.089 L2231.98 238.025 L2212.07 238.025 L2212.07 234.089 Z" fill="#000000" fill-rule="evenodd" fill-opacity="1" /><polyline clip-path="url(#clip530)" style="stroke:#377db8; stroke-linecap:butt; stroke-linejoin:round; stroke-width:4; stroke-opacity:1; fill:none" points="
  2011.55,272.585 2155.55,272.585 
  "/>
<path clip-path="url(#clip530)" d="M2193.39 292.272 Q2191.58 296.902 2189.87 298.314 Q2188.16 299.726 2185.29 299.726 L2181.89 299.726 L2181.89 296.161 L2184.39 296.161 Q2186.14 296.161 2187.12 295.328 Q2188.09 294.494 2189.27 291.392 L2190.03 289.448 L2179.55 263.939 L2184.06 263.939 L2192.16 284.217 L2200.26 263.939 L2204.78 263.939 L2193.39 292.272 Z" fill="#000000" fill-rule="evenodd" fill-opacity="1" /><path clip-path="url(#clip530)" d="M2215.29 285.929 L2231.61 285.929 L2231.61 289.865 L2209.66 289.865 L2209.66 285.929 Q2212.32 283.175 2216.91 278.545 Q2221.51 273.893 2222.69 272.55 Q2224.94 270.027 2225.82 268.291 Q2226.72 266.531 2226.72 264.842 Q2226.72 262.087 2224.78 260.351 Q2222.86 258.615 2219.76 258.615 Q2217.56 258.615 2215.1 259.379 Q2212.67 260.143 2209.89 261.694 L2209.89 256.971 Q2212.72 255.837 2215.17 255.258 Q2217.63 254.68 2219.66 254.68 Q2225.03 254.68 2228.23 257.365 Q2231.42 260.05 2231.42 264.541 Q2231.42 266.67 2230.61 268.592 Q2229.82 270.49 2227.72 273.082 Q2227.14 273.754 2224.04 276.971 Q2220.94 280.166 2215.29 285.929 Z" fill="#000000" fill-rule="evenodd" fill-opacity="1" /><polyline clip-path="url(#clip530)" style="stroke:#4dae49; stroke-linecap:butt; stroke-linejoin:round; stroke-width:4; stroke-opacity:1; fill:none" points="
  2011.55,324.425 2155.55,324.425 
  "/>
<path clip-path="url(#clip530)" d="M2193.39 344.112 Q2191.58 348.742 2189.87 350.154 Q2188.16 351.566 2185.29 351.566 L2181.89 351.566 L2181.89 348.001 L2184.39 348.001 Q2186.14 348.001 2187.12 347.168 Q2188.09 346.334 2189.27 343.232 L2190.03 341.288 L2179.55 315.779 L2184.06 315.779 L2192.16 336.057 L2200.26 315.779 L2204.78 315.779 L2193.39 344.112 Z" fill="#000000" fill-rule="evenodd" fill-opacity="1" /><path clip-path="url(#clip530)" d="M2225.43 323.07 Q2228.78 323.788 2230.66 326.057 Q2232.56 328.325 2232.56 331.658 Q2232.56 336.774 2229.04 339.575 Q2225.52 342.376 2219.04 342.376 Q2216.86 342.376 2214.55 341.936 Q2212.26 341.519 2209.8 340.663 L2209.8 336.149 Q2211.75 337.283 2214.06 337.862 Q2216.38 338.441 2218.9 338.441 Q2223.3 338.441 2225.59 336.705 Q2227.9 334.969 2227.9 331.658 Q2227.9 328.603 2225.75 326.89 Q2223.62 325.154 2219.8 325.154 L2215.77 325.154 L2215.77 321.311 L2219.99 321.311 Q2223.44 321.311 2225.26 319.946 Q2227.09 318.557 2227.09 315.964 Q2227.09 313.302 2225.19 311.89 Q2223.32 310.455 2219.8 310.455 Q2217.88 310.455 2215.68 310.871 Q2213.48 311.288 2210.84 312.168 L2210.84 308.001 Q2213.51 307.26 2215.82 306.89 Q2218.16 306.52 2220.22 306.52 Q2225.54 306.52 2228.64 308.95 Q2231.75 311.358 2231.75 315.478 Q2231.75 318.348 2230.1 320.339 Q2228.46 322.307 2225.43 323.07 Z" fill="#000000" fill-rule="evenodd" fill-opacity="1" /></svg>
