<?xml version="1.0" encoding="utf-8"?>
<svg xmlns="http://www.w3.org/2000/svg" xmlns:xlink="http://www.w3.org/1999/xlink" width="600" height="400" viewBox="0 0 2400 1600">
<defs>
  <clipPath id="clip870">
    <rect x="0" y="0" width="2400" height="1600"/>
  </clipPath>
</defs>
<path clip-path="url(#clip870)" d="
M0 1600 L2400 1600 L2400 0 L0 0  Z
  " fill="#ffffff" fill-rule="evenodd" fill-opacity="1"/>
<defs>
  <clipPath id="clip871">
    <rect x="480" y="0" width="1681" height="1600"/>
  </clipPath>
</defs>
<path clip-path="url(#clip870)" d="
M156.598 1486.45 L1138.96 1486.45 L1138.96 47.2441 L156.598 47.2441  Z
  " fill="#ffffff" fill-rule="evenodd" fill-opacity="1"/>
<defs>
  <clipPath id="clip872">
    <rect x="156" y="47" width="983" height="1440"/>
  </clipPath>
</defs>
<polyline clip-path="url(#clip872)" style="stroke:#000000; stroke-linecap:butt; stroke-linejoin:round; stroke-width:2; stroke-opacity:0.1; fill:none" points="
  308.742,1486.45 308.742,47.2441 
  "/>
<polyline clip-path="url(#clip872)" style="stroke:#000000; stroke-linecap:butt; stroke-linejoin:round; stroke-width:2; stroke-opacity:0.1; fill:none" points="
  475.912,1486.45 475.912,47.2441 
  "/>
<polyline clip-path="url(#clip872)" style="stroke:#000000; stroke-linecap:butt; stroke-linejoin:round; stroke-width:2; stroke-opacity:0.1; fill:none" points="
  643.082,1486.45 643.082,47.2441 
  "/>
<polyline clip-path="url(#clip872)" style="stroke:#000000; stroke-linecap:butt; stroke-linejoin:round; stroke-width:2; stroke-opacity:0.1; fill:none" points="
  810.251,1486.45 810.251,47.2441 
  "/>
<polyline clip-path="url(#clip872)" style="stroke:#000000; stroke-linecap:butt; stroke-linejoin:round; stroke-width:2; stroke-opacity:0.1; fill:none" points="
  977.421,1486.45 977.421,47.2441 
  "/>
<polyline clip-path="url(#clip870)" style="stroke:#000000; stroke-linecap:butt; stroke-linejoin:round; stroke-width:4; stroke-opacity:1; fill:none" points="
  156.598,1486.45 1138.96,1486.45 
  "/>
<polyline clip-path="url(#clip870)" style="stroke:#000000; stroke-linecap:butt; stroke-linejoin:round; stroke-width:4; stroke-opacity:1; fill:none" points="
  308.742,1486.45 308.742,1467.55 
  "/>
<polyline clip-path="url(#clip870)" style="stroke:#000000; stroke-linecap:butt; stroke-linejoin:round; stroke-width:4; stroke-opacity:1; fill:none" points="
  475.912,1486.45 475.912,1467.55 
  "/>
<polyline clip-path="url(#clip870)" style="stroke:#000000; stroke-linecap:butt; stroke-linejoin:round; stroke-width:4; stroke-opacity:1; fill:none" points="
  643.082,1486.45 643.082,1467.55 
  "/>
<polyline clip-path="url(#clip870)" style="stroke:#000000; stroke-linecap:butt; stroke-linejoin:round; stroke-width:4; stroke-opacity:1; fill:none" points="
  810.251,1486.45 810.251,1467.55 
  "/>
<polyline clip-path="url(#clip870)" style="stroke:#000000; stroke-linecap:butt; stroke-linejoin:round; stroke-width:4; stroke-opacity:1; fill:none" points="
  977.421,1486.45 977.421,1467.55 
  "/>
<path clip-path="url(#clip870)" d="M308.742 1517.37 Q305.131 1517.37 303.303 1520.93 Q301.497 1524.47 301.497 1531.6 Q301.497 1538.71 303.303 1542.27 Q305.131 1545.82 308.742 1545.82 Q312.377 1545.82 314.182 1542.27 Q316.011 1538.71 316.011 1531.6 Q316.011 1524.47 314.182 1520.93 Q312.377 1517.37 308.742 1517.37 M308.742 1513.66 Q314.552 1513.66 317.608 1518.27 Q320.687 1522.85 320.687 1531.6 Q320.687 1540.33 317.608 1544.94 Q314.552 1549.52 308.742 1549.52 Q302.932 1549.52 299.853 1544.94 Q296.798 1540.33 296.798 1531.6 Q296.798 1522.85 299.853 1518.27 Q302.932 1513.66 308.742 1513.66 Z" fill="#000000" fill-rule="evenodd" fill-opacity="1" /><path clip-path="url(#clip870)" d="M466.19 1514.29 L484.546 1514.29 L484.546 1518.22 L470.472 1518.22 L470.472 1526.7 Q471.491 1526.35 472.509 1526.19 Q473.528 1526 474.546 1526 Q480.333 1526 483.713 1529.17 Q487.093 1532.34 487.093 1537.76 Q487.093 1543.34 483.62 1546.44 Q480.148 1549.52 473.829 1549.52 Q471.653 1549.52 469.384 1549.15 Q467.139 1548.78 464.732 1548.04 L464.732 1543.34 Q466.815 1544.47 469.037 1545.03 Q471.259 1545.58 473.736 1545.58 Q477.741 1545.58 480.079 1543.48 Q482.417 1541.37 482.417 1537.76 Q482.417 1534.15 480.079 1532.04 Q477.741 1529.94 473.736 1529.94 Q471.861 1529.94 469.986 1530.35 Q468.134 1530.77 466.19 1531.65 L466.19 1514.29 Z" fill="#000000" fill-rule="evenodd" fill-opacity="1" /><path clip-path="url(#clip870)" d="M617.769 1544.91 L625.408 1544.91 L625.408 1518.55 L617.098 1520.21 L617.098 1515.95 L625.362 1514.29 L630.038 1514.29 L630.038 1544.91 L637.677 1544.91 L637.677 1548.85 L617.769 1548.85 L617.769 1544.91 Z" fill="#000000" fill-rule="evenodd" fill-opacity="1" /><path clip-path="url(#clip870)" d="M657.121 1517.37 Q653.51 1517.37 651.681 1520.93 Q649.876 1524.47 649.876 1531.6 Q649.876 1538.71 651.681 1542.27 Q653.51 1545.82 657.121 1545.82 Q660.755 1545.82 662.561 1542.27 Q664.39 1538.71 664.39 1531.6 Q664.39 1524.47 662.561 1520.93 Q660.755 1517.37 657.121 1517.37 M657.121 1513.66 Q662.931 1513.66 665.987 1518.27 Q669.065 1522.85 669.065 1531.6 Q669.065 1540.33 665.987 1544.94 Q662.931 1549.52 657.121 1549.52 Q651.311 1549.52 648.232 1544.94 Q645.177 1540.33 645.177 1531.6 Q645.177 1522.85 648.232 1518.27 Q651.311 1513.66 657.121 1513.66 Z" fill="#000000" fill-rule="evenodd" fill-opacity="1" /><path clip-path="url(#clip870)" d="M785.437 1544.91 L793.076 1544.91 L793.076 1518.55 L784.766 1520.21 L784.766 1515.95 L793.029 1514.29 L797.705 1514.29 L797.705 1544.91 L805.344 1544.91 L805.344 1548.85 L785.437 1548.85 L785.437 1544.91 Z" fill="#000000" fill-rule="evenodd" fill-opacity="1" /><path clip-path="url(#clip870)" d="M814.835 1514.29 L833.191 1514.29 L833.191 1518.22 L819.117 1518.22 L819.117 1526.7 Q820.136 1526.35 821.154 1526.19 Q822.173 1526 823.191 1526 Q828.978 1526 832.358 1529.17 Q835.737 1532.34 835.737 1537.76 Q835.737 1543.34 832.265 1546.44 Q828.793 1549.52 822.474 1549.52 Q820.298 1549.52 818.029 1549.15 Q815.784 1548.78 813.376 1548.04 L813.376 1543.34 Q815.46 1544.47 817.682 1545.03 Q819.904 1545.58 822.381 1545.58 Q826.386 1545.58 828.724 1543.48 Q831.062 1541.37 831.062 1537.76 Q831.062 1534.15 828.724 1532.04 Q826.386 1529.94 822.381 1529.94 Q820.506 1529.94 818.631 1530.35 Q816.779 1530.77 814.835 1531.65 L814.835 1514.29 Z" fill="#000000" fill-rule="evenodd" fill-opacity="1" /><path clip-path="url(#clip870)" d="M956.194 1544.91 L972.514 1544.91 L972.514 1548.85 L950.57 1548.85 L950.57 1544.91 Q953.232 1542.16 957.815 1537.53 Q962.421 1532.88 963.602 1531.53 Q965.847 1529.01 966.727 1527.27 Q967.63 1525.51 967.63 1523.82 Q967.63 1521.07 965.685 1519.33 Q963.764 1517.6 960.662 1517.6 Q958.463 1517.6 956.009 1518.36 Q953.579 1519.13 950.801 1520.68 L950.801 1515.95 Q953.625 1514.82 956.079 1514.24 Q958.532 1513.66 960.569 1513.66 Q965.94 1513.66 969.134 1516.35 Q972.329 1519.03 972.329 1523.52 Q972.329 1525.65 971.518 1527.57 Q970.731 1529.47 968.625 1532.07 Q968.046 1532.74 964.944 1535.95 Q961.843 1539.15 956.194 1544.91 Z" fill="#000000" fill-rule="evenodd" fill-opacity="1" /><path clip-path="url(#clip870)" d="M992.329 1517.37 Q988.717 1517.37 986.889 1520.93 Q985.083 1524.47 985.083 1531.6 Q985.083 1538.71 986.889 1542.27 Q988.717 1545.82 992.329 1545.82 Q995.963 1545.82 997.768 1542.27 Q999.597 1538.71 999.597 1531.6 Q999.597 1524.47 997.768 1520.93 Q995.963 1517.37 992.329 1517.37 M992.329 1513.66 Q998.139 1513.66 1001.19 1518.27 Q1004.27 1522.85 1004.27 1531.6 Q1004.27 1540.33 1001.19 1544.94 Q998.139 1549.52 992.329 1549.52 Q986.518 1549.52 983.44 1544.94 Q980.384 1540.33 980.384 1531.6 Q980.384 1522.85 983.44 1518.27 Q986.518 1513.66 992.329 1513.66 Z" fill="#000000" fill-rule="evenodd" fill-opacity="1" /><polyline clip-path="url(#clip872)" style="stroke:#000000; stroke-linecap:butt; stroke-linejoin:round; stroke-width:2; stroke-opacity:0.1; fill:none" points="
  156.598,1445.72 1138.96,1445.72 
  "/>
<polyline clip-path="url(#clip872)" style="stroke:#000000; stroke-linecap:butt; stroke-linejoin:round; stroke-width:2; stroke-opacity:0.1; fill:none" points="
  156.598,1105.34 1138.96,1105.34 
  "/>
<polyline clip-path="url(#clip872)" style="stroke:#000000; stroke-linecap:butt; stroke-linejoin:round; stroke-width:2; stroke-opacity:0.1; fill:none" points="
  156.598,764.957 1138.96,764.957 
  "/>
<polyline clip-path="url(#clip872)" style="stroke:#000000; stroke-linecap:butt; stroke-linejoin:round; stroke-width:2; stroke-opacity:0.1; fill:none" points="
  156.598,424.578 1138.96,424.578 
  "/>
<polyline clip-path="url(#clip872)" style="stroke:#000000; stroke-linecap:butt; stroke-linejoin:round; stroke-width:2; stroke-opacity:0.1; fill:none" points="
  156.598,84.1986 1138.96,84.1986 
  "/>
<polyline clip-path="url(#clip870)" style="stroke:#000000; stroke-linecap:butt; stroke-linejoin:round; stroke-width:4; stroke-opacity:1; fill:none" points="
  156.598,1486.45 156.598,47.2441 
  "/>
<polyline clip-path="url(#clip870)" style="stroke:#000000; stroke-linecap:butt; stroke-linejoin:round; stroke-width:4; stroke-opacity:1; fill:none" points="
  156.598,1445.72 175.496,1445.72 
  "/>
<polyline clip-path="url(#clip870)" style="stroke:#000000; stroke-linecap:butt; stroke-linejoin:round; stroke-width:4; stroke-opacity:1; fill:none" points="
  156.598,1105.34 175.496,1105.34 
  "/>
<polyline clip-path="url(#clip870)" style="stroke:#000000; stroke-linecap:butt; stroke-linejoin:round; stroke-width:4; stroke-opacity:1; fill:none" points="
  156.598,764.957 175.496,764.957 
  "/>
<polyline clip-path="url(#clip870)" style="stroke:#000000; stroke-linecap:butt; stroke-linejoin:round; stroke-width:4; stroke-opacity:1; fill:none" points="
  156.598,424.578 175.496,424.578 
  "/>
<polyline clip-path="url(#clip870)" style="stroke:#000000; stroke-linecap:butt; stroke-linejoin:round; stroke-width:4; stroke-opacity:1; fill:none" points="
  156.598,84.1986 175.496,84.1986 
  "/>
<path clip-path="url(#clip870)" d="M63.4226 1431.51 Q59.8115 1431.51 57.9828 1435.08 Q56.1773 1438.62 56.1773 1445.75 Q56.1773 1452.86 57.9828 1456.42 Q59.8115 1459.96 63.4226 1459.96 Q67.0569 1459.96 68.8624 1456.42 Q70.6911 1452.86 70.6911 1445.75 Q70.6911 1438.62 68.8624 1435.08 Q67.0569 1431.51 63.4226 1431.51 M63.4226 1427.81 Q69.2328 1427.81 72.2883 1432.42 Q75.367 1437 75.367 1445.75 Q75.367 1454.48 72.2883 1459.08 Q69.2328 1463.67 63.4226 1463.67 Q57.6125 1463.67 54.5338 1459.08 Q51.4782 1454.48 51.4782 1445.75 Q51.4782 1437 54.5338 1432.42 Q57.6125 1427.81 63.4226 1427.81 Z" fill="#000000" fill-rule="evenodd" fill-opacity="1" /><path clip-path="url(#clip870)" d="M83.5845 1457.12 L88.4688 1457.12 L88.4688 1463 L83.5845 1463 L83.5845 1457.12 Z" fill="#000000" fill-rule="evenodd" fill-opacity="1" /><path clip-path="url(#clip870)" d="M108.654 1431.51 Q105.043 1431.51 103.214 1435.08 Q101.409 1438.62 101.409 1445.75 Q101.409 1452.86 103.214 1456.42 Q105.043 1459.96 108.654 1459.96 Q112.288 1459.96 114.094 1456.42 Q115.922 1452.86 115.922 1445.75 Q115.922 1438.62 114.094 1435.08 Q112.288 1431.51 108.654 1431.51 M108.654 1427.81 Q114.464 1427.81 117.52 1432.42 Q120.598 1437 120.598 1445.75 Q120.598 1454.48 117.52 1459.08 Q114.464 1463.67 108.654 1463.67 Q102.844 1463.67 99.765 1459.08 Q96.7095 1454.48 96.7095 1445.75 Q96.7095 1437 99.765 1432.42 Q102.844 1427.81 108.654 1427.81 Z" fill="#000000" fill-rule="evenodd" fill-opacity="1" /><path clip-path="url(#clip870)" d="M64.6495 1091.14 Q61.0384 1091.14 59.2097 1094.7 Q57.4041 1098.24 57.4041 1105.37 Q57.4041 1112.48 59.2097 1116.04 Q61.0384 1119.58 64.6495 1119.58 Q68.2837 1119.58 70.0892 1116.04 Q71.9179 1112.48 71.9179 1105.37 Q71.9179 1098.24 70.0892 1094.7 Q68.2837 1091.14 64.6495 1091.14 M64.6495 1087.43 Q70.4596 1087.43 73.5152 1092.04 Q76.5938 1096.62 76.5938 1105.37 Q76.5938 1114.1 73.5152 1118.7 Q70.4596 1123.29 64.6495 1123.29 Q58.8393 1123.29 55.7606 1118.7 Q52.7051 1114.1 52.7051 1105.37 Q52.7051 1096.62 55.7606 1092.04 Q58.8393 1087.43 64.6495 1087.43 Z" fill="#000000" fill-rule="evenodd" fill-opacity="1" /><path clip-path="url(#clip870)" d="M84.8114 1116.74 L89.6956 1116.74 L89.6956 1122.62 L84.8114 1122.62 L84.8114 1116.74 Z" fill="#000000" fill-rule="evenodd" fill-opacity="1" /><path clip-path="url(#clip870)" d="M100.691 1118.68 L108.33 1118.68 L108.33 1092.32 L100.02 1093.98 L100.02 1089.72 L108.283 1088.06 L112.959 1088.06 L112.959 1118.68 L120.598 1118.68 L120.598 1122.62 L100.691 1122.62 L100.691 1118.68 Z" fill="#000000" fill-rule="evenodd" fill-opacity="1" /><path clip-path="url(#clip870)" d="M65.0198 750.756 Q61.4087 750.756 59.58 754.321 Q57.7745 757.862 57.7745 764.992 Q57.7745 772.098 59.58 775.663 Q61.4087 779.205 65.0198 779.205 Q68.6541 779.205 70.4596 775.663 Q72.2883 772.098 72.2883 764.992 Q72.2883 757.862 70.4596 754.321 Q68.6541 750.756 65.0198 750.756 M65.0198 747.052 Q70.83 747.052 73.8855 751.659 Q76.9642 756.242 76.9642 764.992 Q76.9642 773.719 73.8855 778.325 Q70.83 782.908 65.0198 782.908 Q59.2097 782.908 56.131 778.325 Q53.0754 773.719 53.0754 764.992 Q53.0754 756.242 56.131 751.659 Q59.2097 747.052 65.0198 747.052 Z" fill="#000000" fill-rule="evenodd" fill-opacity="1" /><path clip-path="url(#clip870)" d="M85.1818 776.358 L90.066 776.358 L90.066 782.237 L85.1818 782.237 L85.1818 776.358 Z" fill="#000000" fill-rule="evenodd" fill-opacity="1" /><path clip-path="url(#clip870)" d="M104.279 778.302 L120.598 778.302 L120.598 782.237 L98.6539 782.237 L98.6539 778.302 Q101.316 775.547 105.899 770.918 Q110.506 766.265 111.686 764.922 Q113.932 762.399 114.811 760.663 Q115.714 758.904 115.714 757.214 Q115.714 754.46 113.77 752.723 Q111.848 750.987 108.746 750.987 Q106.547 750.987 104.094 751.751 Q101.663 752.515 98.8854 754.066 L98.8854 749.344 Q101.709 748.21 104.163 747.631 Q106.617 747.052 108.654 747.052 Q114.024 747.052 117.219 749.737 Q120.413 752.423 120.413 756.913 Q120.413 759.043 119.603 760.964 Q118.816 762.862 116.709 765.455 Q116.131 766.126 113.029 769.344 Q109.927 772.538 104.279 778.302 Z" fill="#000000" fill-rule="evenodd" fill-opacity="1" /><path clip-path="url(#clip870)" d="M64.0708 410.377 Q60.4597 410.377 58.631 413.941 Q56.8254 417.483 56.8254 424.613 Q56.8254 431.719 58.631 435.284 Q60.4597 438.826 64.0708 438.826 Q67.705 438.826 69.5105 435.284 Q71.3392 431.719 71.3392 424.613 Q71.3392 417.483 69.5105 413.941 Q67.705 410.377 64.0708 410.377 M64.0708 406.673 Q69.8809 406.673 72.9365 411.279 Q76.0151 415.863 76.0151 424.613 Q76.0151 433.339 72.9365 437.946 Q69.8809 442.529 64.0708 442.529 Q58.2606 442.529 55.1819 437.946 Q52.1264 433.339 52.1264 424.613 Q52.1264 415.863 55.1819 411.279 Q58.2606 406.673 64.0708 406.673 Z" fill="#000000" fill-rule="evenodd" fill-opacity="1" /><path clip-path="url(#clip870)" d="M84.2327 435.978 L89.1169 435.978 L89.1169 441.858 L84.2327 441.858 L84.2327 435.978 Z" fill="#000000" fill-rule="evenodd" fill-opacity="1" /><path clip-path="url(#clip870)" d="M113.469 423.224 Q116.825 423.941 118.7 426.21 Q120.598 428.478 120.598 431.812 Q120.598 436.927 117.08 439.728 Q113.561 442.529 107.08 442.529 Q104.904 442.529 102.589 442.089 Q100.297 441.673 97.8437 440.816 L97.8437 436.302 Q99.7882 437.437 102.103 438.015 Q104.418 438.594 106.941 438.594 Q111.339 438.594 113.631 436.858 Q115.945 435.122 115.945 431.812 Q115.945 428.756 113.793 427.043 Q111.663 425.307 107.844 425.307 L103.816 425.307 L103.816 421.464 L108.029 421.464 Q111.478 421.464 113.307 420.099 Q115.135 418.71 115.135 416.117 Q115.135 413.455 113.237 412.043 Q111.362 410.608 107.844 410.608 Q105.922 410.608 103.723 411.025 Q101.524 411.441 98.8854 412.321 L98.8854 408.154 Q101.547 407.414 103.862 407.043 Q106.2 406.673 108.26 406.673 Q113.584 406.673 116.686 409.103 Q119.788 411.511 119.788 415.631 Q119.788 418.502 118.145 420.492 Q116.501 422.46 113.469 423.224 Z" fill="#000000" fill-rule="evenodd" fill-opacity="1" /><path clip-path="url(#clip870)" d="M62.9365 69.9973 Q59.3254 69.9973 57.4967 73.5621 Q55.6912 77.1038 55.6912 84.2334 Q55.6912 91.3398 57.4967 94.9046 Q59.3254 98.4463 62.9365 98.4463 Q66.5707 98.4463 68.3763 94.9046 Q70.205 91.3398 70.205 84.2334 Q70.205 77.1038 68.3763 73.5621 Q66.5707 69.9973 62.9365 69.9973 M62.9365 66.2937 Q68.7467 66.2937 71.8022 70.9001 Q74.8809 75.4834 74.8809 84.2334 Q74.8809 92.9602 71.8022 97.5666 Q68.7467 102.15 62.9365 102.15 Q57.1264 102.15 54.0477 97.5666 Q50.9921 92.9602 50.9921 84.2334 Q50.9921 75.4834 54.0477 70.9001 Q57.1264 66.2937 62.9365 66.2937 Z" fill="#000000" fill-rule="evenodd" fill-opacity="1" /><path clip-path="url(#clip870)" d="M83.0984 95.599 L87.9827 95.599 L87.9827 101.479 L83.0984 101.479 L83.0984 95.599 Z" fill="#000000" fill-rule="evenodd" fill-opacity="1" /><path clip-path="url(#clip870)" d="M111.015 70.9927 L99.2095 89.4417 L111.015 89.4417 L111.015 70.9927 M109.788 66.9186 L115.668 66.9186 L115.668 89.4417 L120.598 89.4417 L120.598 93.3305 L115.668 93.3305 L115.668 101.479 L111.015 101.479 L111.015 93.3305 L95.4132 93.3305 L95.4132 88.8167 L109.788 66.9186 Z" fill="#000000" fill-rule="evenodd" fill-opacity="1" /><polyline clip-path="url(#clip872)" style="stroke:#009af9; stroke-linecap:butt; stroke-linejoin:round; stroke-width:4; stroke-opacity:1; fill:none" points="
  184.401,1444.37 185.21,1444.24 186.02,1444.1 193.505,1442.14 200.991,1438.17 205.489,1434.19 209.987,1428.4 213.791,1421.65 217.594,1412.68 219.66,1406.7 
  221.725,1399.8 223.791,1391.89 225.857,1382.86 227.761,1373.45 229.665,1362.89 231.57,1351.1 233.474,1337.98 235.516,1322.34 237.558,1304.94 239.599,1285.69 
  241.641,1264.49 244.007,1237.36 246.372,1207.37 248.738,1174.42 251.103,1138.46 253.206,1103.96 255.308,1067.08 257.41,1027.88 259.512,986.444 261.356,948.358 
  263.199,908.749 265.043,867.745 266.886,825.499 270.906,729.947 274.926,631.529 278.969,532.287 283.013,435.83 284.13,410.092 285.248,384.883 286.366,360.275 
  287.483,336.336 288.601,313.135 289.719,290.741 290.836,269.22 291.954,248.636 293.018,229.978 294.081,212.279 295.145,195.587 296.208,179.95 297.271,165.414 
  298.335,152.02 299.398,139.808 300.462,128.814 301.567,118.709 302.673,109.988 303.779,102.68 304.885,96.8076 305.99,92.3908 307.096,89.4438 308.202,87.9763 
  309.308,87.993 310.238,89.1578 311.169,91.3717 312.1,94.6295 313.031,98.9238 313.962,104.245 314.892,110.579 315.823,117.914 316.754,126.231 317.89,137.69 
  319.027,150.547 320.163,164.758 321.3,180.276 322.436,197.049 323.572,215.022 324.709,234.138 325.845,254.333 327.927,293.922 330.009,336.505 331.05,358.784 
  332.091,381.648 333.132,405.04 334.173,428.905 338.019,520.231 341.865,614.427 345.761,710.065 349.656,803.479 351.839,854.06 354.022,902.976 356.205,949.965 
  358.388,994.813 360.366,1033.46 362.344,1070.11 364.323,1104.7 366.301,1137.18 368.566,1171.77 370.83,1203.6 373.095,1232.71 375.36,1259.18 377.457,1281.41 
  379.554,1301.57 381.651,1319.75 383.748,1336.07 385.816,1350.45 387.883,1363.27 389.95,1374.63 392.018,1384.66 394.025,1393.23 396.033,1400.77 398.04,1407.36 
  400.047,1413.1 404.163,1422.59 408.278,1429.56 412.787,1435 417.296,1438.74 423.846,1442.09 430.396,1443.9 431.74,1444.15 433.084,1444.37 
  "/>
<circle clip-path="url(#clip872)" cx="308.742" cy="1445.56" r="14.4" fill="#e26f46" fill-rule="evenodd" fill-opacity="1" stroke="#000000" stroke-opacity="1" stroke-width="3.2"/>
<circle clip-path="url(#clip872)" cx="342.176" cy="1444.17" r="14.4" fill="#e26f46" fill-rule="evenodd" fill-opacity="1" stroke="#000000" stroke-opacity="1" stroke-width="3.2"/>
<circle clip-path="url(#clip872)" cx="375.61" cy="1437.99" r="14.4" fill="#e26f46" fill-rule="evenodd" fill-opacity="1" stroke="#000000" stroke-opacity="1" stroke-width="3.2"/>
<circle clip-path="url(#clip872)" cx="409.044" cy="1419.96" r="14.4" fill="#e26f46" fill-rule="evenodd" fill-opacity="1" stroke="#000000" stroke-opacity="1" stroke-width="3.2"/>
<circle clip-path="url(#clip872)" cx="442.478" cy="1381.33" r="14.4" fill="#e26f46" fill-rule="evenodd" fill-opacity="1" stroke="#000000" stroke-opacity="1" stroke-width="3.2"/>
<circle clip-path="url(#clip872)" cx="475.912" cy="1316.94" r="14.4" fill="#e26f46" fill-rule="evenodd" fill-opacity="1" stroke="#000000" stroke-opacity="1" stroke-width="3.2"/>
<circle clip-path="url(#clip872)" cx="509.346" cy="1231.09" r="14.4" fill="#e26f46" fill-rule="evenodd" fill-opacity="1" stroke="#000000" stroke-opacity="1" stroke-width="3.2"/>
<circle clip-path="url(#clip872)" cx="542.78" cy="1139.1" r="14.4" fill="#e26f46" fill-rule="evenodd" fill-opacity="1" stroke="#000000" stroke-opacity="1" stroke-width="3.2"/>
<circle clip-path="url(#clip872)" cx="576.214" cy="1062.45" r="14.4" fill="#e26f46" fill-rule="evenodd" fill-opacity="1" stroke="#000000" stroke-opacity="1" stroke-width="3.2"/>
<circle clip-path="url(#clip872)" cx="609.648" cy="1019.87" r="14.4" fill="#e26f46" fill-rule="evenodd" fill-opacity="1" stroke="#000000" stroke-opacity="1" stroke-width="3.2"/>
<circle clip-path="url(#clip872)" cx="643.082" cy="1019.87" r="14.4" fill="#e26f46" fill-rule="evenodd" fill-opacity="1" stroke="#000000" stroke-opacity="1" stroke-width="3.2"/>
<circle clip-path="url(#clip872)" cx="676.516" cy="1058.58" r="14.4" fill="#e26f46" fill-rule="evenodd" fill-opacity="1" stroke="#000000" stroke-opacity="1" stroke-width="3.2"/>
<circle clip-path="url(#clip872)" cx="709.95" cy="1123.1" r="14.4" fill="#e26f46" fill-rule="evenodd" fill-opacity="1" stroke="#000000" stroke-opacity="1" stroke-width="3.2"/>
<circle clip-path="url(#clip872)" cx="743.384" cy="1197.55" r="14.4" fill="#e26f46" fill-rule="evenodd" fill-opacity="1" stroke="#000000" stroke-opacity="1" stroke-width="3.2"/>
<circle clip-path="url(#clip872)" cx="776.818" cy="1268.46" r="14.4" fill="#e26f46" fill-rule="evenodd" fill-opacity="1" stroke="#000000" stroke-opacity="1" stroke-width="3.2"/>
<circle clip-path="url(#clip872)" cx="810.251" cy="1327.54" r="14.4" fill="#e26f46" fill-rule="evenodd" fill-opacity="1" stroke="#000000" stroke-opacity="1" stroke-width="3.2"/>
<circle clip-path="url(#clip872)" cx="843.685" cy="1371.86" r="14.4" fill="#e26f46" fill-rule="evenodd" fill-opacity="1" stroke="#000000" stroke-opacity="1" stroke-width="3.2"/>
<circle clip-path="url(#clip872)" cx="877.119" cy="1402.27" r="14.4" fill="#e26f46" fill-rule="evenodd" fill-opacity="1" stroke="#000000" stroke-opacity="1" stroke-width="3.2"/>
<circle clip-path="url(#clip872)" cx="910.553" cy="1421.58" r="14.4" fill="#e26f46" fill-rule="evenodd" fill-opacity="1" stroke="#000000" stroke-opacity="1" stroke-width="3.2"/>
<circle clip-path="url(#clip872)" cx="943.987" cy="1433.01" r="14.4" fill="#e26f46" fill-rule="evenodd" fill-opacity="1" stroke="#000000" stroke-opacity="1" stroke-width="3.2"/>
<circle clip-path="url(#clip872)" cx="977.421" cy="1439.36" r="14.4" fill="#e26f46" fill-rule="evenodd" fill-opacity="1" stroke="#000000" stroke-opacity="1" stroke-width="3.2"/>
<circle clip-path="url(#clip872)" cx="1010.86" cy="1442.69" r="14.4" fill="#e26f46" fill-rule="evenodd" fill-opacity="1" stroke="#000000" stroke-opacity="1" stroke-width="3.2"/>
<circle clip-path="url(#clip872)" cx="1044.29" cy="1444.34" r="14.4" fill="#e26f46" fill-rule="evenodd" fill-opacity="1" stroke="#000000" stroke-opacity="1" stroke-width="3.2"/>
<circle clip-path="url(#clip872)" cx="1077.72" cy="1445.12" r="14.4" fill="#e26f46" fill-rule="evenodd" fill-opacity="1" stroke="#000000" stroke-opacity="1" stroke-width="3.2"/>
<circle clip-path="url(#clip872)" cx="1111.16" cy="1445.47" r="14.4" fill="#e26f46" fill-rule="evenodd" fill-opacity="1" stroke="#000000" stroke-opacity="1" stroke-width="3.2"/>
<polyline clip-path="url(#clip872)" style="stroke:#e26f46; stroke-linecap:butt; stroke-linejoin:round; stroke-width:4; stroke-opacity:1; fill:none" points="
  308.742,1445.72 308.742,1445.56 
  "/>
<polyline clip-path="url(#clip872)" style="stroke:#e26f46; stroke-linecap:butt; stroke-linejoin:round; stroke-width:4; stroke-opacity:1; fill:none" points="
  342.176,1445.72 342.176,1444.17 
  "/>
<polyline clip-path="url(#clip872)" style="stroke:#e26f46; stroke-linecap:butt; stroke-linejoin:round; stroke-width:4; stroke-opacity:1; fill:none" points="
  375.61,1445.72 375.61,1437.99 
  "/>
<polyline clip-path="url(#clip872)" style="stroke:#e26f46; stroke-linecap:butt; stroke-linejoin:round; stroke-width:4; stroke-opacity:1; fill:none" points="
  409.044,1445.72 409.044,1419.96 
  "/>
<polyline clip-path="url(#clip872)" style="stroke:#e26f46; stroke-linecap:butt; stroke-linejoin:round; stroke-width:4; stroke-opacity:1; fill:none" points="
  442.478,1445.72 442.478,1381.33 
  "/>
<polyline clip-path="url(#clip872)" style="stroke:#e26f46; stroke-linecap:butt; stroke-linejoin:round; stroke-width:4; stroke-opacity:1; fill:none" points="
  475.912,1445.72 475.912,1316.94 
  "/>
<polyline clip-path="url(#clip872)" style="stroke:#e26f46; stroke-linecap:butt; stroke-linejoin:round; stroke-width:4; stroke-opacity:1; fill:none" points="
  509.346,1445.72 509.346,1231.09 
  "/>
<polyline clip-path="url(#clip872)" style="stroke:#e26f46; stroke-linecap:butt; stroke-linejoin:round; stroke-width:4; stroke-opacity:1; fill:none" points="
  542.78,1445.72 542.78,1139.1 
  "/>
<polyline clip-path="url(#clip872)" style="stroke:#e26f46; stroke-linecap:butt; stroke-linejoin:round; stroke-width:4; stroke-opacity:1; fill:none" points="
  576.214,1445.72 576.214,1062.45 
  "/>
<polyline clip-path="url(#clip872)" style="stroke:#e26f46; stroke-linecap:butt; stroke-linejoin:round; stroke-width:4; stroke-opacity:1; fill:none" points="
  609.648,1445.72 609.648,1019.87 
  "/>
<polyline clip-path="url(#clip872)" style="stroke:#e26f46; stroke-linecap:butt; stroke-linejoin:round; stroke-width:4; stroke-opacity:1; fill:none" points="
  643.082,1445.72 643.082,1019.87 
  "/>
<polyline clip-path="url(#clip872)" style="stroke:#e26f46; stroke-linecap:butt; stroke-linejoin:round; stroke-width:4; stroke-opacity:1; fill:none" points="
  676.516,1445.72 676.516,1058.58 
  "/>
<polyline clip-path="url(#clip872)" style="stroke:#e26f46; stroke-linecap:butt; stroke-linejoin:round; stroke-width:4; stroke-opacity:1; fill:none" points="
  709.95,1445.72 709.95,1123.1 
  "/>
<polyline clip-path="url(#clip872)" style="stroke:#e26f46; stroke-linecap:butt; stroke-linejoin:round; stroke-width:4; stroke-opacity:1; fill:none" points="
  743.384,1445.72 743.384,1197.55 
  "/>
<polyline clip-path="url(#clip872)" style="stroke:#e26f46; stroke-linecap:butt; stroke-linejoin:round; stroke-width:4; stroke-opacity:1; fill:none" points="
  776.818,1445.72 776.818,1268.46 
  "/>
<polyline clip-path="url(#clip872)" style="stroke:#e26f46; stroke-linecap:butt; stroke-linejoin:round; stroke-width:4; stroke-opacity:1; fill:none" points="
  810.251,1445.72 810.251,1327.54 
  "/>
<polyline clip-path="url(#clip872)" style="stroke:#e26f46; stroke-linecap:butt; stroke-linejoin:round; stroke-width:4; stroke-opacity:1; fill:none" points="
  843.685,1445.72 843.685,1371.86 
  "/>
<polyline clip-path="url(#clip872)" style="stroke:#e26f46; stroke-linecap:butt; stroke-linejoin:round; stroke-width:4; stroke-opacity:1; fill:none" points="
  877.119,1445.72 877.119,1402.27 
  "/>
<polyline clip-path="url(#clip872)" style="stroke:#e26f46; stroke-linecap:butt; stroke-linejoin:round; stroke-width:4; stroke-opacity:1; fill:none" points="
  910.553,1445.72 910.553,1421.58 
  "/>
<polyline clip-path="url(#clip872)" style="stroke:#e26f46; stroke-linecap:butt; stroke-linejoin:round; stroke-width:4; stroke-opacity:1; fill:none" points="
  943.987,1445.72 943.987,1433.01 
  "/>
<polyline clip-path="url(#clip872)" style="stroke:#e26f46; stroke-linecap:butt; stroke-linejoin:round; stroke-width:4; stroke-opacity:1; fill:none" points="
  977.421,1445.72 977.421,1439.36 
  "/>
<polyline clip-path="url(#clip872)" style="stroke:#e26f46; stroke-linecap:butt; stroke-linejoin:round; stroke-width:4; stroke-opacity:1; fill:none" points="
  1010.86,1445.72 1010.86,1442.69 
  "/>
<polyline clip-path="url(#clip872)" style="stroke:#e26f46; stroke-linecap:butt; stroke-linejoin:round; stroke-width:4; stroke-opacity:1; fill:none" points="
  1044.29,1445.72 1044.29,1444.34 
  "/>
<polyline clip-path="url(#clip872)" style="stroke:#e26f46; stroke-linecap:butt; stroke-linejoin:round; stroke-width:4; stroke-opacity:1; fill:none" points="
  1077.72,1445.72 1077.72,1445.12 
  "/>
<polyline clip-path="url(#clip872)" style="stroke:#e26f46; stroke-linecap:butt; stroke-linejoin:round; stroke-width:4; stroke-opacity:1; fill:none" points="
  1111.16,1445.72 1111.16,1445.47 
  "/>
<path clip-path="url(#clip870)" d="
M972.086 250.738 L1106.21 250.738 L1106.21 95.2176 L972.086 95.2176  Z
  " fill="#ffffff" fill-rule="evenodd" fill-opacity="1"/>
<polyline clip-path="url(#clip870)" style="stroke:#000000; stroke-linecap:butt; stroke-linejoin:round; stroke-width:4; stroke-opacity:1; fill:none" points="
  972.086,250.738 1106.21,250.738 1106.21,95.2176 972.086,95.2176 972.086,250.738 
  "/>
<polyline clip-path="url(#clip870)" style="stroke:#009af9; stroke-linecap:butt; stroke-linejoin:round; stroke-width:4; stroke-opacity:1; fill:none" points="
  983.001,147.058 1048.49,147.058 
  "/>
<path clip-path="url(#clip870)" d="M1059.41 174.199 L1059.41 138.412 L1063.67 138.412 L1063.67 154.523 Q1063.67 157.879 1065.26 159.592 Q1066.86 161.305 1069.99 161.305 Q1073.41 161.305 1075.12 159.361 Q1076.86 157.416 1076.86 153.527 L1076.86 138.412 L1081.12 138.412 L1081.12 158.365 Q1081.12 159.754 1081.51 160.426 Q1081.93 161.074 1082.79 161.074 Q1083 161.074 1083.37 160.958 Q1083.74 160.819 1084.38 160.541 L1084.38 163.967 Q1083.43 164.5 1082.58 164.754 Q1081.75 165.009 1080.93 165.009 Q1079.34 165.009 1078.39 164.106 Q1077.44 163.203 1077.09 161.351 Q1075.94 163.18 1074.25 164.106 Q1072.58 165.009 1070.31 165.009 Q1067.95 165.009 1066.28 164.106 Q1064.64 163.203 1063.67 161.398 L1063.67 174.199 L1059.41 174.199 Z" fill="#000000" fill-rule="evenodd" fill-opacity="1" /><circle clip-path="url(#clip870)" cx="1015.75" cy="198.898" r="23.04" fill="#e26f46" fill-rule="evenodd" fill-opacity="1" stroke="#000000" stroke-opacity="1" stroke-width="5.12"/>
<path clip-path="url(#clip870)" d="M1067.32 216.178 L1059.41 190.252 L1063.99 190.252 L1070.68 212.011 Q1073.46 209.141 1075.77 205.159 Q1077.53 202.173 1077.62 199.58 Q1077.67 198.354 1077.12 196.039 Q1076.47 193.284 1074.01 190.252 L1078.32 190.252 L1078.32 190.252 Q1079.92 192.312 1080.98 195.182 Q1081.95 197.821 1081.95 199.627 Q1081.95 204.164 1078.81 208.215 Q1074.71 213.492 1071.86 216.178 L1067.32 216.178 Z" fill="#000000" fill-rule="evenodd" fill-opacity="1" /><path clip-path="url(#clip870)" d="
M1370.39 1486.45 L2352.76 1486.45 L2352.76 47.2441 L1370.39 47.2441  Z
  " fill="#ffffff" fill-rule="evenodd" fill-opacity="1"/>
<defs>
  <clipPath id="clip873">
    <rect x="1370" y="47" width="983" height="1440"/>
  </clipPath>
</defs>
<polyline clip-path="url(#clip873)" style="stroke:#000000; stroke-linecap:butt; stroke-linejoin:round; stroke-width:2; stroke-opacity:0.1; fill:none" points="
  1398.2,1486.45 1398.2,47.2441 
  "/>
<polyline clip-path="url(#clip873)" style="stroke:#000000; stroke-linecap:butt; stroke-linejoin:round; stroke-width:2; stroke-opacity:0.1; fill:none" points="
  1629.89,1486.45 1629.89,47.2441 
  "/>
<polyline clip-path="url(#clip873)" style="stroke:#000000; stroke-linecap:butt; stroke-linejoin:round; stroke-width:2; stroke-opacity:0.1; fill:none" points="
  1861.58,1486.45 1861.58,47.2441 
  "/>
<polyline clip-path="url(#clip873)" style="stroke:#000000; stroke-linecap:butt; stroke-linejoin:round; stroke-width:2; stroke-opacity:0.1; fill:none" points="
  2093.26,1486.45 2093.26,47.2441 
  "/>
<polyline clip-path="url(#clip873)" style="stroke:#000000; stroke-linecap:butt; stroke-linejoin:round; stroke-width:2; stroke-opacity:0.1; fill:none" points="
  2324.95,1486.45 2324.95,47.2441 
  "/>
<polyline clip-path="url(#clip870)" style="stroke:#000000; stroke-linecap:butt; stroke-linejoin:round; stroke-width:4; stroke-opacity:1; fill:none" points="
  1370.39,1486.45 2352.76,1486.45 
  "/>
<polyline clip-path="url(#clip870)" style="stroke:#000000; stroke-linecap:butt; stroke-linejoin:round; stroke-width:4; stroke-opacity:1; fill:none" points="
  1398.2,1486.45 1398.2,1467.55 
  "/>
<polyline clip-path="url(#clip870)" style="stroke:#000000; stroke-linecap:butt; stroke-linejoin:round; stroke-width:4; stroke-opacity:1; fill:none" points="
  1629.89,1486.45 1629.89,1467.55 
  "/>
<polyline clip-path="url(#clip870)" style="stroke:#000000; stroke-linecap:butt; stroke-linejoin:round; stroke-width:4; stroke-opacity:1; fill:none" points="
  1861.58,1486.45 1861.58,1467.55 
  "/>
<polyline clip-path="url(#clip870)" style="stroke:#000000; stroke-linecap:butt; stroke-linejoin:round; stroke-width:4; stroke-opacity:1; fill:none" points="
  2093.26,1486.45 2093.26,1467.55 
  "/>
<polyline clip-path="url(#clip870)" style="stroke:#000000; stroke-linecap:butt; stroke-linejoin:round; stroke-width:4; stroke-opacity:1; fill:none" points="
  2324.95,1486.45 2324.95,1467.55 
  "/>
<path clip-path="url(#clip870)" d="M1368.14 1532.02 L1397.82 1532.02 L1397.82 1535.95 L1368.14 1535.95 L1368.14 1532.02 Z" fill="#000000" fill-rule="evenodd" fill-opacity="1" /><path clip-path="url(#clip870)" d="M1411.94 1544.91 L1428.25 1544.91 L1428.25 1548.85 L1406.31 1548.85 L1406.31 1544.91 Q1408.97 1542.16 1413.56 1537.53 Q1418.16 1532.88 1419.34 1531.53 Q1421.59 1529.01 1422.47 1527.27 Q1423.37 1525.51 1423.37 1523.82 Q1423.37 1521.07 1421.43 1519.33 Q1419.5 1517.6 1416.4 1517.6 Q1414.2 1517.6 1411.75 1518.36 Q1409.32 1519.13 1406.54 1520.68 L1406.54 1515.95 Q1409.37 1514.82 1411.82 1514.24 Q1414.27 1513.66 1416.31 1513.66 Q1421.68 1513.66 1424.88 1516.35 Q1428.07 1519.03 1428.07 1523.52 Q1428.07 1525.65 1427.26 1527.57 Q1426.47 1529.47 1424.37 1532.07 Q1423.79 1532.74 1420.69 1535.95 Q1417.58 1539.15 1411.94 1544.91 Z" fill="#000000" fill-rule="evenodd" fill-opacity="1" /><path clip-path="url(#clip870)" d="M1599.64 1532.02 L1629.32 1532.02 L1629.32 1535.95 L1599.64 1535.95 L1599.64 1532.02 Z" fill="#000000" fill-rule="evenodd" fill-opacity="1" /><path clip-path="url(#clip870)" d="M1640.22 1544.91 L1647.86 1544.91 L1647.86 1518.55 L1639.55 1520.21 L1639.55 1515.95 L1647.81 1514.29 L1652.49 1514.29 L1652.49 1544.91 L1660.13 1544.91 L1660.13 1548.85 L1640.22 1548.85 L1640.22 1544.91 Z" fill="#000000" fill-rule="evenodd" fill-opacity="1" /><path clip-path="url(#clip870)" d="M1861.58 1517.37 Q1857.96 1517.37 1856.14 1520.93 Q1854.33 1524.47 1854.33 1531.6 Q1854.33 1538.71 1856.14 1542.27 Q1857.96 1545.82 1861.58 1545.82 Q1865.21 1545.82 1867.01 1542.27 Q1868.84 1538.71 1868.84 1531.6 Q1868.84 1524.47 1867.01 1520.93 Q1865.21 1517.37 1861.58 1517.37 M1861.58 1513.66 Q1867.39 1513.66 1870.44 1518.27 Q1873.52 1522.85 1873.52 1531.6 Q1873.52 1540.33 1870.44 1544.94 Q1867.39 1549.52 1861.58 1549.52 Q1855.77 1549.52 1852.69 1544.94 Q1849.63 1540.33 1849.63 1531.6 Q1849.63 1522.85 1852.69 1518.27 Q1855.77 1513.66 1861.58 1513.66 Z" fill="#000000" fill-rule="evenodd" fill-opacity="1" /><path clip-path="url(#clip870)" d="M2083.65 1544.91 L2091.29 1544.91 L2091.29 1518.55 L2082.97 1520.21 L2082.97 1515.95 L2091.24 1514.29 L2095.91 1514.29 L2095.91 1544.91 L2103.55 1544.91 L2103.55 1548.85 L2083.65 1548.85 L2083.65 1544.91 Z" fill="#000000" fill-rule="evenodd" fill-opacity="1" /><path clip-path="url(#clip870)" d="M2319.61 1544.91 L2335.93 1544.91 L2335.93 1548.85 L2313.98 1548.85 L2313.98 1544.91 Q2316.64 1542.16 2321.23 1537.53 Q2325.83 1532.88 2327.01 1531.53 Q2329.26 1529.01 2330.14 1527.27 Q2331.04 1525.51 2331.04 1523.82 Q2331.04 1521.07 2329.1 1519.33 Q2327.18 1517.6 2324.07 1517.6 Q2321.87 1517.6 2319.42 1518.36 Q2316.99 1519.13 2314.21 1520.68 L2314.21 1515.95 Q2317.04 1514.82 2319.49 1514.24 Q2321.94 1513.66 2323.98 1513.66 Q2329.35 1513.66 2332.55 1516.35 Q2335.74 1519.03 2335.74 1523.52 Q2335.74 1525.65 2334.93 1527.57 Q2334.14 1529.47 2332.04 1532.07 Q2331.46 1532.74 2328.36 1535.95 Q2325.25 1539.15 2319.61 1544.91 Z" fill="#000000" fill-rule="evenodd" fill-opacity="1" /><polyline clip-path="url(#clip873)" style="stroke:#000000; stroke-linecap:butt; stroke-linejoin:round; stroke-width:2; stroke-opacity:0.1; fill:none" points="
  1370.39,1341.27 2352.76,1341.27 
  "/>
<polyline clip-path="url(#clip873)" style="stroke:#000000; stroke-linecap:butt; stroke-linejoin:round; stroke-width:2; stroke-opacity:0.1; fill:none" points="
  1370.39,1080.17 2352.76,1080.17 
  "/>
<polyline clip-path="url(#clip873)" style="stroke:#000000; stroke-linecap:butt; stroke-linejoin:round; stroke-width:2; stroke-opacity:0.1; fill:none" points="
  1370.39,819.067 2352.76,819.067 
  "/>
<polyline clip-path="url(#clip873)" style="stroke:#000000; stroke-linecap:butt; stroke-linejoin:round; stroke-width:2; stroke-opacity:0.1; fill:none" points="
  1370.39,557.963 2352.76,557.963 
  "/>
<polyline clip-path="url(#clip873)" style="stroke:#000000; stroke-linecap:butt; stroke-linejoin:round; stroke-width:2; stroke-opacity:0.1; fill:none" points="
  1370.39,296.859 2352.76,296.859 
  "/>
<polyline clip-path="url(#clip870)" style="stroke:#000000; stroke-linecap:butt; stroke-linejoin:round; stroke-width:4; stroke-opacity:1; fill:none" points="
  1370.39,1486.45 1370.39,47.2441 
  "/>
<polyline clip-path="url(#clip870)" style="stroke:#000000; stroke-linecap:butt; stroke-linejoin:round; stroke-width:4; stroke-opacity:1; fill:none" points="
  1370.39,1341.27 1389.29,1341.27 
  "/>
<polyline clip-path="url(#clip870)" style="stroke:#000000; stroke-linecap:butt; stroke-linejoin:round; stroke-width:4; stroke-opacity:1; fill:none" points="
  1370.39,1080.17 1389.29,1080.17 
  "/>
<polyline clip-path="url(#clip870)" style="stroke:#000000; stroke-linecap:butt; stroke-linejoin:round; stroke-width:4; stroke-opacity:1; fill:none" points="
  1370.39,819.067 1389.29,819.067 
  "/>
<polyline clip-path="url(#clip870)" style="stroke:#000000; stroke-linecap:butt; stroke-linejoin:round; stroke-width:4; stroke-opacity:1; fill:none" points="
  1370.39,557.963 1389.29,557.963 
  "/>
<polyline clip-path="url(#clip870)" style="stroke:#000000; stroke-linecap:butt; stroke-linejoin:round; stroke-width:4; stroke-opacity:1; fill:none" points="
  1370.39,296.859 1389.29,296.859 
  "/>
<path clip-path="url(#clip870)" d="M1267.27 1323.99 L1285.62 1323.99 L1285.62 1327.93 L1271.55 1327.93 L1271.55 1336.4 Q1272.57 1336.05 1273.58 1335.89 Q1274.6 1335.71 1275.62 1335.71 Q1281.41 1335.71 1284.79 1338.88 Q1288.17 1342.05 1288.17 1347.47 Q1288.17 1353.04 1284.7 1356.15 Q1281.22 1359.23 1274.9 1359.23 Q1272.73 1359.23 1270.46 1358.86 Q1268.21 1358.48 1265.81 1357.74 L1265.81 1353.04 Q1267.89 1354.18 1270.11 1354.73 Q1272.33 1355.29 1274.81 1355.29 Q1278.82 1355.29 1281.15 1353.18 Q1283.49 1351.08 1283.49 1347.47 Q1283.49 1343.86 1281.15 1341.75 Q1278.82 1339.64 1274.81 1339.64 Q1272.94 1339.64 1271.06 1340.06 Q1269.21 1340.48 1267.27 1341.36 L1267.27 1323.99 Z" fill="#000000" fill-rule="evenodd" fill-opacity="1" /><path clip-path="url(#clip870)" d="M1297.38 1352.67 L1302.26 1352.67 L1302.26 1358.55 L1297.38 1358.55 L1297.38 1352.67 Z" fill="#000000" fill-rule="evenodd" fill-opacity="1" /><path clip-path="url(#clip870)" d="M1322.45 1327.07 Q1318.84 1327.07 1317.01 1330.64 Q1315.2 1334.18 1315.2 1341.31 Q1315.2 1348.42 1317.01 1351.98 Q1318.84 1355.52 1322.45 1355.52 Q1326.08 1355.52 1327.89 1351.98 Q1329.72 1348.42 1329.72 1341.31 Q1329.72 1334.18 1327.89 1330.64 Q1326.08 1327.07 1322.45 1327.07 M1322.45 1323.37 Q1328.26 1323.37 1331.32 1327.98 Q1334.39 1332.56 1334.39 1341.31 Q1334.39 1350.04 1331.32 1354.64 Q1328.26 1359.23 1322.45 1359.23 Q1316.64 1359.23 1313.56 1354.64 Q1310.51 1350.04 1310.51 1341.31 Q1310.51 1332.56 1313.56 1327.98 Q1316.64 1323.37 1322.45 1323.37 Z" fill="#000000" fill-rule="evenodd" fill-opacity="1" /><path clip-path="url(#clip870)" d="M1267.03 1062.89 L1289.26 1062.89 L1289.26 1064.88 L1276.71 1097.45 L1271.83 1097.45 L1283.63 1066.83 L1267.03 1066.83 L1267.03 1062.89 Z" fill="#000000" fill-rule="evenodd" fill-opacity="1" /><path clip-path="url(#clip870)" d="M1298.38 1091.57 L1303.26 1091.57 L1303.26 1097.45 L1298.38 1097.45 L1298.38 1091.57 Z" fill="#000000" fill-rule="evenodd" fill-opacity="1" /><path clip-path="url(#clip870)" d="M1313.49 1062.89 L1331.85 1062.89 L1331.85 1066.83 L1317.77 1066.83 L1317.77 1075.3 Q1318.79 1074.95 1319.81 1074.79 Q1320.83 1074.6 1321.85 1074.6 Q1327.64 1074.6 1331.01 1077.77 Q1334.39 1080.95 1334.39 1086.36 Q1334.39 1091.94 1330.92 1095.04 Q1327.45 1098.12 1321.13 1098.12 Q1318.95 1098.12 1316.69 1097.75 Q1314.44 1097.38 1312.03 1096.64 L1312.03 1091.94 Q1314.12 1093.08 1316.34 1093.63 Q1318.56 1094.19 1321.04 1094.19 Q1325.04 1094.19 1327.38 1092.08 Q1329.72 1089.97 1329.72 1086.36 Q1329.72 1082.75 1327.38 1080.64 Q1325.04 1078.54 1321.04 1078.54 Q1319.16 1078.54 1317.29 1078.96 Q1315.44 1079.37 1313.49 1080.25 L1313.49 1062.89 Z" fill="#000000" fill-rule="evenodd" fill-opacity="1" /><path clip-path="url(#clip870)" d="M1237.87 832.412 L1245.51 832.412 L1245.51 806.046 L1237.2 807.713 L1237.2 803.453 L1245.46 801.787 L1250.14 801.787 L1250.14 832.412 L1257.77 832.412 L1257.77 836.347 L1237.87 836.347 L1237.87 832.412 Z" fill="#000000" fill-rule="evenodd" fill-opacity="1" /><path clip-path="url(#clip870)" d="M1277.22 804.865 Q1273.61 804.865 1271.78 808.43 Q1269.97 811.972 1269.97 819.101 Q1269.97 826.208 1271.78 829.773 Q1273.61 833.314 1277.22 833.314 Q1280.85 833.314 1282.66 829.773 Q1284.49 826.208 1284.49 819.101 Q1284.49 811.972 1282.66 808.43 Q1280.85 804.865 1277.22 804.865 M1277.22 801.162 Q1283.03 801.162 1286.08 805.768 Q1289.16 810.351 1289.16 819.101 Q1289.16 827.828 1286.08 832.435 Q1283.03 837.018 1277.22 837.018 Q1271.41 837.018 1268.33 832.435 Q1265.27 827.828 1265.27 819.101 Q1265.27 810.351 1268.33 805.768 Q1271.41 801.162 1277.22 801.162 Z" fill="#000000" fill-rule="evenodd" fill-opacity="1" /><path clip-path="url(#clip870)" d="M1297.38 830.467 L1302.26 830.467 L1302.26 836.347 L1297.38 836.347 L1297.38 830.467 Z" fill="#000000" fill-rule="evenodd" fill-opacity="1" /><path clip-path="url(#clip870)" d="M1322.45 804.865 Q1318.84 804.865 1317.01 808.43 Q1315.2 811.972 1315.2 819.101 Q1315.2 826.208 1317.01 829.773 Q1318.84 833.314 1322.45 833.314 Q1326.08 833.314 1327.89 829.773 Q1329.72 826.208 1329.72 819.101 Q1329.72 811.972 1327.89 808.43 Q1326.08 804.865 1322.45 804.865 M1322.45 801.162 Q1328.26 801.162 1331.32 805.768 Q1334.39 810.351 1334.39 819.101 Q1334.39 827.828 1331.32 832.435 Q1328.26 837.018 1322.45 837.018 Q1316.64 837.018 1313.56 832.435 Q1310.51 827.828 1310.51 819.101 Q1310.51 810.351 1313.56 805.768 Q1316.64 801.162 1322.45 801.162 Z" fill="#000000" fill-rule="evenodd" fill-opacity="1" /><path clip-path="url(#clip870)" d="M1238.86 571.308 L1246.5 571.308 L1246.5 544.942 L1238.19 546.609 L1238.19 542.35 L1246.46 540.683 L1251.13 540.683 L1251.13 571.308 L1258.77 571.308 L1258.77 575.243 L1238.86 575.243 L1238.86 571.308 Z" fill="#000000" fill-rule="evenodd" fill-opacity="1" /><path clip-path="url(#clip870)" d="M1272.24 571.308 L1288.56 571.308 L1288.56 575.243 L1266.62 575.243 L1266.62 571.308 Q1269.28 568.553 1273.86 563.924 Q1278.47 559.271 1279.65 557.928 Q1281.89 555.405 1282.77 553.669 Q1283.68 551.91 1283.68 550.22 Q1283.68 547.465 1281.73 545.729 Q1279.81 543.993 1276.71 543.993 Q1274.51 543.993 1272.06 544.757 Q1269.63 545.521 1266.85 547.072 L1266.85 542.35 Q1269.67 541.215 1272.13 540.637 Q1274.58 540.058 1276.62 540.058 Q1281.99 540.058 1285.18 542.743 Q1288.38 545.428 1288.38 549.919 Q1288.38 552.049 1287.57 553.97 Q1286.78 555.868 1284.67 558.461 Q1284.09 559.132 1280.99 562.35 Q1277.89 565.544 1272.24 571.308 Z" fill="#000000" fill-rule="evenodd" fill-opacity="1" /><path clip-path="url(#clip870)" d="M1298.38 569.363 L1303.26 569.363 L1303.26 575.243 L1298.38 575.243 L1298.38 569.363 Z" fill="#000000" fill-rule="evenodd" fill-opacity="1" /><path clip-path="url(#clip870)" d="M1313.49 540.683 L1331.85 540.683 L1331.85 544.618 L1317.77 544.618 L1317.77 553.09 Q1318.79 552.743 1319.81 552.581 Q1320.83 552.396 1321.85 552.396 Q1327.64 552.396 1331.01 555.567 Q1334.39 558.738 1334.39 564.155 Q1334.39 569.734 1330.92 572.836 Q1327.45 575.914 1321.13 575.914 Q1318.95 575.914 1316.69 575.544 Q1314.44 575.174 1312.03 574.433 L1312.03 569.734 Q1314.12 570.868 1316.34 571.424 Q1318.56 571.979 1321.04 571.979 Q1325.04 571.979 1327.38 569.873 Q1329.72 567.766 1329.72 564.155 Q1329.72 560.544 1327.38 558.438 Q1325.04 556.331 1321.04 556.331 Q1319.16 556.331 1317.29 556.748 Q1315.44 557.164 1313.49 558.044 L1313.49 540.683 Z" fill="#000000" fill-rule="evenodd" fill-opacity="1" /><path clip-path="url(#clip870)" d="M1237.87 310.204 L1245.51 310.204 L1245.51 283.839 L1237.2 285.505 L1237.2 281.246 L1245.46 279.579 L1250.14 279.579 L1250.14 310.204 L1257.77 310.204 L1257.77 314.139 L1237.87 314.139 L1237.87 310.204 Z" fill="#000000" fill-rule="evenodd" fill-opacity="1" /><path clip-path="url(#clip870)" d="M1267.27 279.579 L1285.62 279.579 L1285.62 283.514 L1271.55 283.514 L1271.55 291.987 Q1272.57 291.639 1273.58 291.477 Q1274.6 291.292 1275.62 291.292 Q1281.41 291.292 1284.79 294.463 Q1288.17 297.635 1288.17 303.051 Q1288.17 308.63 1284.7 311.732 Q1281.22 314.811 1274.9 314.811 Q1272.73 314.811 1270.46 314.44 Q1268.21 314.07 1265.81 313.329 L1265.81 308.63 Q1267.89 309.764 1270.11 310.32 Q1272.33 310.875 1274.81 310.875 Q1278.82 310.875 1281.15 308.769 Q1283.49 306.662 1283.49 303.051 Q1283.49 299.44 1281.15 297.334 Q1278.82 295.227 1274.81 295.227 Q1272.94 295.227 1271.06 295.644 Q1269.21 296.061 1267.27 296.94 L1267.27 279.579 Z" fill="#000000" fill-rule="evenodd" fill-opacity="1" /><path clip-path="url(#clip870)" d="M1297.38 308.26 L1302.26 308.26 L1302.26 314.139 L1297.38 314.139 L1297.38 308.26 Z" fill="#000000" fill-rule="evenodd" fill-opacity="1" /><path clip-path="url(#clip870)" d="M1322.45 282.658 Q1318.84 282.658 1317.01 286.223 Q1315.2 289.764 1315.2 296.894 Q1315.2 304 1317.01 307.565 Q1318.84 311.107 1322.45 311.107 Q1326.08 311.107 1327.89 307.565 Q1329.72 304 1329.72 296.894 Q1329.72 289.764 1327.89 286.223 Q1326.08 282.658 1322.45 282.658 M1322.45 278.954 Q1328.26 278.954 1331.32 283.561 Q1334.39 288.144 1334.39 296.894 Q1334.39 305.621 1331.32 310.227 Q1328.26 314.811 1322.45 314.811 Q1316.64 314.811 1313.56 310.227 Q1310.51 305.621 1310.51 296.894 Q1310.51 288.144 1313.56 283.561 Q1316.64 278.954 1322.45 278.954 Z" fill="#000000" fill-rule="evenodd" fill-opacity="1" /><polyline clip-path="url(#clip873)" style="stroke:#008000; stroke-linecap:butt; stroke-linejoin:round; stroke-width:4; stroke-opacity:1; fill:none" points="
  1398.2,1445.72 1421.37,1445.72 1444.53,1341.27 1467.7,1341.27 1490.87,1341.27 1514.04,1341.27 1537.21,1236.83 1560.38,1236.83 1583.55,1236.83 1606.72,1132.39 
  1629.89,1132.39 1653.06,1132.39 1676.22,1132.39 1699.39,1027.95 1722.56,1027.95 1745.73,1027.95 1768.9,923.508 1792.07,923.508 1815.24,923.508 1838.41,819.067 
  1861.58,819.067 1884.74,819.067 1907.91,819.067 1931.08,714.625 1954.25,714.625 1977.42,714.625 2000.59,610.184 2023.76,610.184 2046.93,610.184 2070.1,505.742 
  2093.26,505.742 2116.43,505.742 2139.6,401.301 2162.77,401.301 2185.94,296.859 2209.11,296.859 2232.28,296.859 2255.45,192.418 2278.62,192.418 2301.78,192.418 
  2324.95,87.9763 
  "/>
<path clip-path="url(#clip870)" d="
M1403.14 198.898 L1784.65 198.898 L1784.65 95.2176 L1403.14 95.2176  Z
  " fill="#ffffff" fill-rule="evenodd" fill-opacity="1"/>
<polyline clip-path="url(#clip870)" style="stroke:#000000; stroke-linecap:butt; stroke-linejoin:round; stroke-width:4; stroke-opacity:1; fill:none" points="
  1403.14,198.898 1784.65,198.898 1784.65,95.2176 1403.14,95.2176 1403.14,198.898 
  "/>
<polyline clip-path="url(#clip870)" style="stroke:#008000; stroke-linecap:butt; stroke-linejoin:round; stroke-width:4; stroke-opacity:1; fill:none" points="
  1414.05,147.058 1479.55,147.058 
  "/>
<path clip-path="url(#clip870)" d="M1490.46 129.778 L1497.43 129.778 L1506.25 153.296 L1515.11 129.778 L1522.08 129.778 L1522.08 164.338 L1517.52 164.338 L1517.52 133.99 L1508.61 157.694 L1503.91 157.694 L1495 133.99 L1495 164.338 L1490.46 164.338 L1490.46 129.778 Z" fill="#000000" fill-rule="evenodd" fill-opacity="1" /><path clip-path="url(#clip870)" d="M1541.22 141.398 Q1537.8 141.398 1535.81 144.083 Q1533.82 146.745 1533.82 151.398 Q1533.82 156.051 1535.78 158.736 Q1537.78 161.398 1541.22 161.398 Q1544.63 161.398 1546.62 158.713 Q1548.61 156.027 1548.61 151.398 Q1548.61 146.791 1546.62 144.106 Q1544.63 141.398 1541.22 141.398 M1541.22 137.787 Q1546.78 137.787 1549.95 141.398 Q1553.12 145.009 1553.12 151.398 Q1553.12 157.764 1549.95 161.398 Q1546.78 165.009 1541.22 165.009 Q1535.65 165.009 1532.47 161.398 Q1529.33 157.764 1529.33 151.398 Q1529.33 145.009 1532.47 141.398 Q1535.65 137.787 1541.22 137.787 Z" fill="#000000" fill-rule="evenodd" fill-opacity="1" /><path clip-path="url(#clip870)" d="M1581.73 148.689 L1581.73 164.338 L1577.47 164.338 L1577.47 148.828 Q1577.47 145.148 1576.04 143.319 Q1574.6 141.49 1571.73 141.49 Q1568.28 141.49 1566.29 143.69 Q1564.3 145.889 1564.3 149.685 L1564.3 164.338 L1560.02 164.338 L1560.02 138.412 L1564.3 138.412 L1564.3 142.44 Q1565.83 140.102 1567.89 138.944 Q1569.97 137.787 1572.68 137.787 Q1577.15 137.787 1579.44 140.565 Q1581.73 143.319 1581.73 148.689 Z" fill="#000000" fill-rule="evenodd" fill-opacity="1" /><path clip-path="url(#clip870)" d="M1607.29 151.074 Q1607.29 146.444 1605.37 143.898 Q1603.47 141.352 1600.02 141.352 Q1596.59 141.352 1594.67 143.898 Q1592.78 146.444 1592.78 151.074 Q1592.78 155.68 1594.67 158.226 Q1596.59 160.773 1600.02 160.773 Q1603.47 160.773 1605.37 158.226 Q1607.29 155.68 1607.29 151.074 M1611.55 161.12 Q1611.55 167.74 1608.61 170.958 Q1605.67 174.199 1599.6 174.199 Q1597.36 174.199 1595.37 173.851 Q1593.38 173.527 1591.5 172.833 L1591.5 168.689 Q1593.38 169.708 1595.21 170.194 Q1597.03 170.68 1598.93 170.68 Q1603.12 170.68 1605.21 168.481 Q1607.29 166.305 1607.29 161.884 L1607.29 159.777 Q1605.97 162.069 1603.91 163.203 Q1601.85 164.338 1598.98 164.338 Q1594.21 164.338 1591.29 160.703 Q1588.38 157.069 1588.38 151.074 Q1588.38 145.055 1591.29 141.421 Q1594.21 137.787 1598.98 137.787 Q1601.85 137.787 1603.91 138.921 Q1605.97 140.055 1607.29 142.347 L1607.29 138.412 L1611.55 138.412 L1611.55 161.12 Z" fill="#000000" fill-rule="evenodd" fill-opacity="1" /><path clip-path="url(#clip870)" d="M1642.5 150.31 L1642.5 152.393 L1622.91 152.393 Q1623.19 156.791 1625.55 159.106 Q1627.94 161.398 1632.17 161.398 Q1634.63 161.398 1636.92 160.796 Q1639.23 160.194 1641.5 158.99 L1641.5 163.018 Q1639.21 163.99 1636.8 164.5 Q1634.4 165.009 1631.92 165.009 Q1625.71 165.009 1622.08 161.398 Q1618.47 157.787 1618.47 151.629 Q1618.47 145.264 1621.9 141.537 Q1625.34 137.787 1631.18 137.787 Q1636.41 137.787 1639.44 141.166 Q1642.5 144.523 1642.5 150.31 M1638.24 149.06 Q1638.19 145.565 1636.27 143.481 Q1634.37 141.398 1631.22 141.398 Q1627.66 141.398 1625.51 143.412 Q1623.38 145.426 1623.05 149.083 L1638.24 149.06 Z" fill="#000000" fill-rule="evenodd" fill-opacity="1" /><path clip-path="url(#clip870)" d="M1684.74 143.389 Q1686.34 140.518 1688.56 139.153 Q1690.78 137.787 1693.79 137.787 Q1697.84 137.787 1700.04 140.634 Q1702.24 143.458 1702.24 148.689 L1702.24 164.338 L1697.96 164.338 L1697.96 148.828 Q1697.96 145.102 1696.64 143.296 Q1695.32 141.49 1692.61 141.49 Q1689.3 141.49 1687.38 143.69 Q1685.46 145.889 1685.46 149.685 L1685.46 164.338 L1681.18 164.338 L1681.18 148.828 Q1681.18 145.078 1679.86 143.296 Q1678.54 141.49 1675.78 141.49 Q1672.52 141.49 1670.6 143.713 Q1668.68 145.912 1668.68 149.685 L1668.68 164.338 L1664.4 164.338 L1664.4 138.412 L1668.68 138.412 L1668.68 142.44 Q1670.14 140.055 1672.17 138.921 Q1674.21 137.787 1677.01 137.787 Q1679.83 137.787 1681.8 139.222 Q1683.79 140.657 1684.74 143.389 Z" fill="#000000" fill-rule="evenodd" fill-opacity="1" /><path clip-path="url(#clip870)" d="M1722.52 151.305 Q1717.36 151.305 1715.37 152.486 Q1713.38 153.666 1713.38 156.514 Q1713.38 158.782 1714.86 160.125 Q1716.36 161.444 1718.93 161.444 Q1722.47 161.444 1724.6 158.944 Q1726.76 156.421 1726.76 152.254 L1726.76 151.305 L1722.52 151.305 M1731.02 149.546 L1731.02 164.338 L1726.76 164.338 L1726.76 160.402 Q1725.3 162.763 1723.12 163.898 Q1720.95 165.009 1717.8 165.009 Q1713.82 165.009 1711.46 162.787 Q1709.12 160.541 1709.12 156.791 Q1709.12 152.416 1712.03 150.194 Q1714.97 147.972 1720.78 147.972 L1726.76 147.972 L1726.76 147.555 Q1726.76 144.615 1724.81 143.018 Q1722.89 141.398 1719.39 141.398 Q1717.17 141.398 1715.07 141.93 Q1712.96 142.463 1711.02 143.527 L1711.02 139.592 Q1713.35 138.69 1715.55 138.25 Q1717.75 137.787 1719.83 137.787 Q1725.46 137.787 1728.24 140.703 Q1731.02 143.62 1731.02 149.546 Z" fill="#000000" fill-rule="evenodd" fill-opacity="1" /><path clip-path="url(#clip870)" d="M1743.91 160.449 L1743.91 174.199 L1739.63 174.199 L1739.63 138.412 L1743.91 138.412 L1743.91 142.347 Q1745.25 140.032 1747.29 138.921 Q1749.35 137.787 1752.2 137.787 Q1756.92 137.787 1759.86 141.537 Q1762.82 145.287 1762.82 151.398 Q1762.82 157.509 1759.86 161.259 Q1756.92 165.009 1752.2 165.009 Q1749.35 165.009 1747.29 163.898 Q1745.25 162.763 1743.91 160.449 M1758.4 151.398 Q1758.4 146.699 1756.45 144.037 Q1754.53 141.352 1751.15 141.352 Q1747.77 141.352 1745.83 144.037 Q1743.91 146.699 1743.91 151.398 Q1743.91 156.097 1745.83 158.782 Q1747.77 161.444 1751.15 161.444 Q1754.53 161.444 1756.45 158.782 Q1758.4 156.097 1758.4 151.398 Z" fill="#000000" fill-rule="evenodd" fill-opacity="1" /></svg>
