<?xml version="1.0" encoding="utf-8"?>
<svg xmlns="http://www.w3.org/2000/svg" xmlns:xlink="http://www.w3.org/1999/xlink" width="600" height="400" viewBox="0 0 2400 1600">
<defs>
  <clipPath id="clip350">
    <rect x="0" y="0" width="2400" height="1600"/>
  </clipPath>
</defs>
<path clip-path="url(#clip350)" d="
M0 1600 L2400 1600 L2400 0 L0 0  Z
  " fill="#ffffff" fill-rule="evenodd" fill-opacity="1"/>
<defs>
  <clipPath id="clip351">
    <rect x="480" y="0" width="1681" height="1600"/>
  </clipPath>
</defs>
<path clip-path="url(#clip350)" d="
M147.478 1486.45 L2352.76 1486.45 L2352.76 123.472 L147.478 123.472  Z
  " fill="#ffffff" fill-rule="evenodd" fill-opacity="1"/>
<defs>
  <clipPath id="clip352">
    <rect x="147" y="123" width="2206" height="1364"/>
  </clipPath>
</defs>
<polyline clip-path="url(#clip352)" style="stroke:#000000; stroke-linecap:butt; stroke-linejoin:round; stroke-width:2; stroke-opacity:0.1; fill:none" points="
  491.766,1486.45 491.766,123.472 
  "/>
<polyline clip-path="url(#clip352)" style="stroke:#000000; stroke-linecap:butt; stroke-linejoin:round; stroke-width:2; stroke-opacity:0.1; fill:none" points="
  880.324,1486.45 880.324,123.472 
  "/>
<polyline clip-path="url(#clip352)" style="stroke:#000000; stroke-linecap:butt; stroke-linejoin:round; stroke-width:2; stroke-opacity:0.1; fill:none" points="
  1268.88,1486.45 1268.88,123.472 
  "/>
<polyline clip-path="url(#clip352)" style="stroke:#000000; stroke-linecap:butt; stroke-linejoin:round; stroke-width:2; stroke-opacity:0.1; fill:none" points="
  1657.44,1486.45 1657.44,123.472 
  "/>
<polyline clip-path="url(#clip352)" style="stroke:#000000; stroke-linecap:butt; stroke-linejoin:round; stroke-width:2; stroke-opacity:0.1; fill:none" points="
  2046,1486.45 2046,123.472 
  "/>
<polyline clip-path="url(#clip350)" style="stroke:#000000; stroke-linecap:butt; stroke-linejoin:round; stroke-width:4; stroke-opacity:1; fill:none" points="
  147.478,1486.45 2352.76,1486.45 
  "/>
<polyline clip-path="url(#clip350)" style="stroke:#000000; stroke-linecap:butt; stroke-linejoin:round; stroke-width:4; stroke-opacity:1; fill:none" points="
  491.766,1486.45 491.766,1467.55 
  "/>
<polyline clip-path="url(#clip350)" style="stroke:#000000; stroke-linecap:butt; stroke-linejoin:round; stroke-width:4; stroke-opacity:1; fill:none" points="
  880.324,1486.45 880.324,1467.55 
  "/>
<polyline clip-path="url(#clip350)" style="stroke:#000000; stroke-linecap:butt; stroke-linejoin:round; stroke-width:4; stroke-opacity:1; fill:none" points="
  1268.88,1486.45 1268.88,1467.55 
  "/>
<polyline clip-path="url(#clip350)" style="stroke:#000000; stroke-linecap:butt; stroke-linejoin:round; stroke-width:4; stroke-opacity:1; fill:none" points="
  1657.44,1486.45 1657.44,1467.55 
  "/>
<polyline clip-path="url(#clip350)" style="stroke:#000000; stroke-linecap:butt; stroke-linejoin:round; stroke-width:4; stroke-opacity:1; fill:none" points="
  2046,1486.45 2046,1467.55 
  "/>
<path clip-path="url(#clip350)" d="M461.708 1532.02 L491.384 1532.02 L491.384 1535.95 L461.708 1535.95 L461.708 1532.02 Z" fill="#000000" fill-rule="evenodd" fill-opacity="1" /><path clip-path="url(#clip350)" d="M505.504 1544.91 L521.824 1544.91 L521.824 1548.85 L499.879 1548.85 L499.879 1544.91 Q502.541 1542.16 507.125 1537.53 Q511.731 1532.88 512.912 1531.53 Q515.157 1529.01 516.037 1527.27 Q516.94 1525.51 516.94 1523.82 Q516.94 1521.07 514.995 1519.33 Q513.074 1517.6 509.972 1517.6 Q507.773 1517.6 505.319 1518.36 Q502.889 1519.13 500.111 1520.68 L500.111 1515.95 Q502.935 1514.82 505.389 1514.24 Q507.842 1513.66 509.879 1513.66 Q515.25 1513.66 518.444 1516.35 Q521.639 1519.03 521.639 1523.52 Q521.639 1525.65 520.828 1527.57 Q520.041 1529.47 517.935 1532.07 Q517.356 1532.74 514.254 1535.95 Q511.153 1539.15 505.504 1544.91 Z" fill="#000000" fill-rule="evenodd" fill-opacity="1" /><path clip-path="url(#clip350)" d="M850.081 1532.02 L879.757 1532.02 L879.757 1535.95 L850.081 1535.95 L850.081 1532.02 Z" fill="#000000" fill-rule="evenodd" fill-opacity="1" /><path clip-path="url(#clip350)" d="M890.66 1544.91 L898.299 1544.91 L898.299 1518.55 L889.989 1520.21 L889.989 1515.95 L898.252 1514.29 L902.928 1514.29 L902.928 1544.91 L910.567 1544.91 L910.567 1548.85 L890.66 1548.85 L890.66 1544.91 Z" fill="#000000" fill-rule="evenodd" fill-opacity="1" /><path clip-path="url(#clip350)" d="M1268.88 1517.37 Q1265.27 1517.37 1263.44 1520.93 Q1261.64 1524.47 1261.64 1531.6 Q1261.64 1538.71 1263.44 1542.27 Q1265.27 1545.82 1268.88 1545.82 Q1272.52 1545.82 1274.32 1542.27 Q1276.15 1538.71 1276.15 1531.6 Q1276.15 1524.47 1274.32 1520.93 Q1272.52 1517.37 1268.88 1517.37 M1268.88 1513.66 Q1274.69 1513.66 1277.75 1518.27 Q1280.83 1522.85 1280.83 1531.6 Q1280.83 1540.33 1277.75 1544.94 Q1274.69 1549.52 1268.88 1549.52 Q1263.07 1549.52 1259.99 1544.94 Q1256.94 1540.33 1256.94 1531.6 Q1256.94 1522.85 1259.99 1518.27 Q1263.07 1513.66 1268.88 1513.66 Z" fill="#000000" fill-rule="evenodd" fill-opacity="1" /><path clip-path="url(#clip350)" d="M1647.82 1544.91 L1655.46 1544.91 L1655.46 1518.55 L1647.15 1520.21 L1647.15 1515.95 L1655.42 1514.29 L1660.09 1514.29 L1660.09 1544.91 L1667.73 1544.91 L1667.73 1548.85 L1647.82 1548.85 L1647.82 1544.91 Z" fill="#000000" fill-rule="evenodd" fill-opacity="1" /><path clip-path="url(#clip350)" d="M2040.65 1544.91 L2056.97 1544.91 L2056.97 1548.85 L2035.03 1548.85 L2035.03 1544.91 Q2037.69 1542.16 2042.27 1537.53 Q2046.88 1532.88 2048.06 1531.53 Q2050.3 1529.01 2051.18 1527.27 Q2052.09 1525.51 2052.09 1523.82 Q2052.09 1521.07 2050.14 1519.33 Q2048.22 1517.6 2045.12 1517.6 Q2042.92 1517.6 2040.47 1518.36 Q2038.04 1519.13 2035.26 1520.68 L2035.26 1515.95 Q2038.08 1514.82 2040.54 1514.24 Q2042.99 1513.66 2045.03 1513.66 Q2050.4 1513.66 2053.59 1516.35 Q2056.79 1519.03 2056.79 1523.52 Q2056.79 1525.65 2055.98 1527.57 Q2055.19 1529.47 2053.08 1532.07 Q2052.5 1532.74 2049.4 1535.95 Q2046.3 1539.15 2040.65 1544.91 Z" fill="#000000" fill-rule="evenodd" fill-opacity="1" /><polyline clip-path="url(#clip352)" style="stroke:#000000; stroke-linecap:butt; stroke-linejoin:round; stroke-width:2; stroke-opacity:0.1; fill:none" points="
  147.478,1430.49 2352.76,1430.49 
  "/>
<polyline clip-path="url(#clip352)" style="stroke:#000000; stroke-linecap:butt; stroke-linejoin:round; stroke-width:2; stroke-opacity:0.1; fill:none" points="
  147.478,1186.29 2352.76,1186.29 
  "/>
<polyline clip-path="url(#clip352)" style="stroke:#000000; stroke-linecap:butt; stroke-linejoin:round; stroke-width:2; stroke-opacity:0.1; fill:none" points="
  147.478,942.086 2352.76,942.086 
  "/>
<polyline clip-path="url(#clip352)" style="stroke:#000000; stroke-linecap:butt; stroke-linejoin:round; stroke-width:2; stroke-opacity:0.1; fill:none" points="
  147.478,697.883 2352.76,697.883 
  "/>
<polyline clip-path="url(#clip352)" style="stroke:#000000; stroke-linecap:butt; stroke-linejoin:round; stroke-width:2; stroke-opacity:0.1; fill:none" points="
  147.478,453.679 2352.76,453.679 
  "/>
<polyline clip-path="url(#clip352)" style="stroke:#000000; stroke-linecap:butt; stroke-linejoin:round; stroke-width:2; stroke-opacity:0.1; fill:none" points="
  147.478,209.476 2352.76,209.476 
  "/>
<polyline clip-path="url(#clip350)" style="stroke:#000000; stroke-linecap:butt; stroke-linejoin:round; stroke-width:4; stroke-opacity:1; fill:none" points="
  147.478,1486.45 147.478,123.472 
  "/>
<polyline clip-path="url(#clip350)" style="stroke:#000000; stroke-linecap:butt; stroke-linejoin:round; stroke-width:4; stroke-opacity:1; fill:none" points="
  147.478,1430.49 166.376,1430.49 
  "/>
<polyline clip-path="url(#clip350)" style="stroke:#000000; stroke-linecap:butt; stroke-linejoin:round; stroke-width:4; stroke-opacity:1; fill:none" points="
  147.478,1186.29 166.376,1186.29 
  "/>
<polyline clip-path="url(#clip350)" style="stroke:#000000; stroke-linecap:butt; stroke-linejoin:round; stroke-width:4; stroke-opacity:1; fill:none" points="
  147.478,942.086 166.376,942.086 
  "/>
<polyline clip-path="url(#clip350)" style="stroke:#000000; stroke-linecap:butt; stroke-linejoin:round; stroke-width:4; stroke-opacity:1; fill:none" points="
  147.478,697.883 166.376,697.883 
  "/>
<polyline clip-path="url(#clip350)" style="stroke:#000000; stroke-linecap:butt; stroke-linejoin:round; stroke-width:4; stroke-opacity:1; fill:none" points="
  147.478,453.679 166.376,453.679 
  "/>
<polyline clip-path="url(#clip350)" style="stroke:#000000; stroke-linecap:butt; stroke-linejoin:round; stroke-width:4; stroke-opacity:1; fill:none" points="
  147.478,209.476 166.376,209.476 
  "/>
<path clip-path="url(#clip350)" d="M51.3625 1430.94 L81.0383 1430.94 L81.0383 1434.88 L51.3625 1434.88 L51.3625 1430.94 Z" fill="#000000" fill-rule="evenodd" fill-opacity="1" /><path clip-path="url(#clip350)" d="M95.1586 1443.84 L111.478 1443.84 L111.478 1447.77 L89.5336 1447.77 L89.5336 1443.84 Q92.1956 1441.08 96.7789 1436.45 Q101.385 1431.8 102.566 1430.46 Q104.811 1427.94 105.691 1426.2 Q106.594 1424.44 106.594 1422.75 Q106.594 1420 104.649 1418.26 Q102.728 1416.52 99.6261 1416.52 Q97.4271 1416.52 94.9734 1417.29 Q92.5428 1418.05 89.7651 1419.6 L89.7651 1414.88 Q92.5891 1413.75 95.0428 1413.17 Q97.4965 1412.59 99.5335 1412.59 Q104.904 1412.59 108.098 1415.27 Q111.293 1417.96 111.293 1422.45 Q111.293 1424.58 110.483 1426.5 Q109.696 1428.4 107.589 1430.99 Q107.01 1431.66 103.909 1434.88 Q100.807 1438.07 95.1586 1443.84 Z" fill="#000000" fill-rule="evenodd" fill-opacity="1" /><path clip-path="url(#clip350)" d="M50.9921 1186.74 L80.6679 1186.74 L80.6679 1190.68 L50.9921 1190.68 L50.9921 1186.74 Z" fill="#000000" fill-rule="evenodd" fill-opacity="1" /><path clip-path="url(#clip350)" d="M91.5706 1199.63 L99.2095 1199.63 L99.2095 1173.27 L90.8993 1174.94 L90.8993 1170.68 L99.1632 1169.01 L103.839 1169.01 L103.839 1199.63 L111.478 1199.63 L111.478 1203.57 L91.5706 1203.57 L91.5706 1199.63 Z" fill="#000000" fill-rule="evenodd" fill-opacity="1" /><path clip-path="url(#clip350)" d="M99.5335 927.885 Q95.9224 927.885 94.0937 931.45 Q92.2882 934.991 92.2882 942.121 Q92.2882 949.227 94.0937 952.792 Q95.9224 956.334 99.5335 956.334 Q103.168 956.334 104.973 952.792 Q106.802 949.227 106.802 942.121 Q106.802 934.991 104.973 931.45 Q103.168 927.885 99.5335 927.885 M99.5335 924.181 Q105.344 924.181 108.399 928.788 Q111.478 933.371 111.478 942.121 Q111.478 950.848 108.399 955.454 Q105.344 960.038 99.5335 960.038 Q93.7234 960.038 90.6447 955.454 Q87.5892 950.848 87.5892 942.121 Q87.5892 933.371 90.6447 928.788 Q93.7234 924.181 99.5335 924.181 Z" fill="#000000" fill-rule="evenodd" fill-opacity="1" /><path clip-path="url(#clip350)" d="M91.5706 711.228 L99.2095 711.228 L99.2095 684.862 L90.8993 686.529 L90.8993 682.27 L99.1632 680.603 L103.839 680.603 L103.839 711.228 L111.478 711.228 L111.478 715.163 L91.5706 715.163 L91.5706 711.228 Z" fill="#000000" fill-rule="evenodd" fill-opacity="1" /><path clip-path="url(#clip350)" d="M95.1586 467.024 L111.478 467.024 L111.478 470.959 L89.5336 470.959 L89.5336 467.024 Q92.1956 464.27 96.7789 459.64 Q101.385 454.987 102.566 453.645 Q104.811 451.122 105.691 449.386 Q106.594 447.626 106.594 445.936 Q106.594 443.182 104.649 441.446 Q102.728 439.71 99.6261 439.71 Q97.4271 439.71 94.9734 440.474 Q92.5428 441.237 89.7651 442.788 L89.7651 438.066 Q92.5891 436.932 95.0428 436.353 Q97.4965 435.774 99.5335 435.774 Q104.904 435.774 108.098 438.46 Q111.293 441.145 111.293 445.636 Q111.293 447.765 110.483 449.686 Q109.696 451.585 107.589 454.177 Q107.01 454.848 103.909 458.066 Q100.807 461.26 95.1586 467.024 Z" fill="#000000" fill-rule="evenodd" fill-opacity="1" /><path clip-path="url(#clip350)" d="M104.348 208.122 Q107.705 208.84 109.58 211.108 Q111.478 213.377 111.478 216.71 Q111.478 221.826 107.959 224.626 Q104.441 227.427 97.9595 227.427 Q95.7836 227.427 93.4688 226.988 Q91.1771 226.571 88.7234 225.714 L88.7234 221.201 Q90.6678 222.335 92.9826 222.914 Q95.2974 223.492 97.8206 223.492 Q102.219 223.492 104.51 221.756 Q106.825 220.02 106.825 216.71 Q106.825 213.654 104.672 211.941 Q102.543 210.205 98.7234 210.205 L94.6956 210.205 L94.6956 206.363 L98.9085 206.363 Q102.358 206.363 104.186 204.997 Q106.015 203.608 106.015 201.016 Q106.015 198.353 104.117 196.941 Q102.242 195.506 98.7234 195.506 Q96.8021 195.506 94.603 195.923 Q92.4039 196.34 89.7651 197.219 L89.7651 193.053 Q92.4271 192.312 94.7419 191.941 Q97.0798 191.571 99.14 191.571 Q104.464 191.571 107.566 194.002 Q110.668 196.409 110.668 200.529 Q110.668 203.4 109.024 205.39 Q107.381 207.358 104.348 208.122 Z" fill="#000000" fill-rule="evenodd" fill-opacity="1" /><path clip-path="url(#clip350)" d="M1270.57 54.8446 Q1269.5 60.1322 1268.07 63.1654 Q1265.77 67.7972 1261.84 67.7972 Q1259.05 67.7972 1256.92 66.1166 Q1254.83 64.4361 1254.29 61.6488 Q1253.23 62.9195 1252.45 63.6573 Q1251.71 64.3951 1250.24 65.5428 Q1248.8 66.6495 1247 67.2233 Q1245.19 67.7972 1243.15 67.7972 Q1238.14 67.7972 1234.99 65.1739 Q1230.73 82.3484 1230.36 83.2092 Q1229.17 84.9717 1227.45 84.9717 Q1226.38 84.9717 1225.73 84.3159 Q1225.07 83.701 1225.07 82.7173 Q1225.11 82.3894 1225.36 81.3646 L1237.41 32.7923 Q1237.73 31.4807 1238.55 30.7429 Q1239.42 29.9641 1239.91 29.8821 Q1240.4 29.7591 1240.77 29.7591 Q1241.87 29.7591 1242.53 30.374 Q1243.23 30.9478 1243.23 32.0136 Q1243.23 32.1775 1242.98 33.1203 Q1242.78 34.022 1242.45 35.4157 Q1242.12 36.7683 1241.96 37.3831 L1238.43 51.4835 Q1237.24 56.3202 1237.24 58.6156 Q1237.24 62.0997 1238.8 64.0262 Q1240.4 65.9117 1243.47 65.9117 Q1245.4 65.9117 1247.2 65.1329 Q1249.01 64.3131 1250.24 63.2064 Q1251.47 62.0997 1252.45 60.911 Q1253.43 59.6813 1253.88 58.9025 Q1254.34 58.0827 1254.38 57.8778 L1256.55 49.311 L1260.52 33.6121 Q1260.77 32.6284 1261.22 31.9726 Q1261.71 31.2757 1262.29 31.0298 Q1262.86 30.7839 1263.19 30.7429 Q1263.52 30.6609 1263.8 30.6609 Q1264.83 30.6609 1265.53 31.2757 Q1266.22 31.8906 1266.22 32.9563 Q1266.22 33.1613 1265.98 34.145 Q1265.77 35.0877 1265.44 36.4814 Q1265.12 37.834 1264.95 38.5718 Q1263.64 43.7365 1263.52 44.2693 L1261.18 53.328 Q1261.06 53.8608 1260.65 55.5824 Q1260.28 57.3039 1260.07 58.2057 Q1259.87 59.0665 1259.66 60.2552 Q1259.5 61.4029 1259.5 62.0587 Q1259.5 65.9117 1262.04 65.9117 Q1263.03 65.9117 1263.89 65.3378 Q1264.75 64.723 1265.32 63.8622 Q1265.94 63.0014 1266.51 61.5258 Q1267.12 60.0092 1267.49 58.7795 Q1267.86 57.5089 1268.39 55.5414 Q1268.6 54.5986 1268.8 54.3117 Q1269.01 54.0248 1269.58 54.0248 Q1270.57 54.0248 1270.57 54.8446 Z" fill="#000000" fill-rule="evenodd" fill-opacity="1" /><circle clip-path="url(#clip352)" cx="2267.8" cy="1192.95" r="14" fill="#009af9" fill-rule="evenodd" fill-opacity="0.25" stroke="#000000" stroke-opacity="0.25" stroke-width="3.2"/>
<circle clip-path="url(#clip352)" cx="393.861" cy="940.158" r="14" fill="#009af9" fill-rule="evenodd" fill-opacity="0.25" stroke="#000000" stroke-opacity="0.25" stroke-width="3.2"/>
<circle clip-path="url(#clip352)" cx="1005.3" cy="1104.15" r="14" fill="#009af9" fill-rule="evenodd" fill-opacity="0.25" stroke="#000000" stroke-opacity="0.25" stroke-width="3.2"/>
<circle clip-path="url(#clip352)" cx="1282.4" cy="389.602" r="14" fill="#009af9" fill-rule="evenodd" fill-opacity="0.25" stroke="#000000" stroke-opacity="0.25" stroke-width="3.2"/>
<circle clip-path="url(#clip352)" cx="1221.74" cy="241.302" r="14" fill="#009af9" fill-rule="evenodd" fill-opacity="0.25" stroke="#000000" stroke-opacity="0.25" stroke-width="3.2"/>
<circle clip-path="url(#clip352)" cx="845.935" cy="1182.08" r="14" fill="#009af9" fill-rule="evenodd" fill-opacity="0.25" stroke="#000000" stroke-opacity="0.25" stroke-width="3.2"/>
<circle clip-path="url(#clip352)" cx="1079.99" cy="702.464" r="14" fill="#009af9" fill-rule="evenodd" fill-opacity="0.25" stroke="#000000" stroke-opacity="0.25" stroke-width="3.2"/>
<circle clip-path="url(#clip352)" cx="1262.84" cy="452.456" r="14" fill="#009af9" fill-rule="evenodd" fill-opacity="0.25" stroke="#000000" stroke-opacity="0.25" stroke-width="3.2"/>
<circle clip-path="url(#clip352)" cx="1832.98" cy="1049.15" r="14" fill="#009af9" fill-rule="evenodd" fill-opacity="0.25" stroke="#000000" stroke-opacity="0.25" stroke-width="3.2"/>
<circle clip-path="url(#clip352)" cx="892.418" cy="1359.75" r="14" fill="#009af9" fill-rule="evenodd" fill-opacity="0.25" stroke="#000000" stroke-opacity="0.25" stroke-width="3.2"/>
<circle clip-path="url(#clip352)" cx="2037.75" cy="1061.71" r="14" fill="#009af9" fill-rule="evenodd" fill-opacity="0.25" stroke="#000000" stroke-opacity="0.25" stroke-width="3.2"/>
<circle clip-path="url(#clip352)" cx="2054.37" cy="1025.76" r="14" fill="#009af9" fill-rule="evenodd" fill-opacity="0.25" stroke="#000000" stroke-opacity="0.25" stroke-width="3.2"/>
<circle clip-path="url(#clip352)" cx="1335.23" cy="461.092" r="14" fill="#009af9" fill-rule="evenodd" fill-opacity="0.25" stroke="#000000" stroke-opacity="0.25" stroke-width="3.2"/>
<circle clip-path="url(#clip352)" cx="1966" cy="1167.84" r="14" fill="#009af9" fill-rule="evenodd" fill-opacity="0.25" stroke="#000000" stroke-opacity="0.25" stroke-width="3.2"/>
<circle clip-path="url(#clip352)" cx="930.999" cy="1128.45" r="14" fill="#009af9" fill-rule="evenodd" fill-opacity="0.25" stroke="#000000" stroke-opacity="0.25" stroke-width="3.2"/>
<circle clip-path="url(#clip352)" cx="551.231" cy="1272.41" r="14" fill="#009af9" fill-rule="evenodd" fill-opacity="0.25" stroke="#000000" stroke-opacity="0.25" stroke-width="3.2"/>
<circle clip-path="url(#clip352)" cx="2082.27" cy="1173.16" r="14" fill="#009af9" fill-rule="evenodd" fill-opacity="0.25" stroke="#000000" stroke-opacity="0.25" stroke-width="3.2"/>
<circle clip-path="url(#clip352)" cx="341.136" cy="1045.73" r="14" fill="#009af9" fill-rule="evenodd" fill-opacity="0.25" stroke="#000000" stroke-opacity="0.25" stroke-width="3.2"/>
<circle clip-path="url(#clip352)" cx="496.57" cy="1192.94" r="14" fill="#009af9" fill-rule="evenodd" fill-opacity="0.25" stroke="#000000" stroke-opacity="0.25" stroke-width="3.2"/>
<circle clip-path="url(#clip352)" cx="1189.67" cy="348.919" r="14" fill="#009af9" fill-rule="evenodd" fill-opacity="0.25" stroke="#000000" stroke-opacity="0.25" stroke-width="3.2"/>
<circle clip-path="url(#clip352)" cx="686.527" cy="1084.31" r="14" fill="#009af9" fill-rule="evenodd" fill-opacity="0.25" stroke="#000000" stroke-opacity="0.25" stroke-width="3.2"/>
<circle clip-path="url(#clip352)" cx="1583.89" cy="1120.53" r="14" fill="#009af9" fill-rule="evenodd" fill-opacity="0.25" stroke="#000000" stroke-opacity="0.25" stroke-width="3.2"/>
<circle clip-path="url(#clip352)" cx="1154.05" cy="670.896" r="14" fill="#009af9" fill-rule="evenodd" fill-opacity="0.25" stroke="#000000" stroke-opacity="0.25" stroke-width="3.2"/>
<circle clip-path="url(#clip352)" cx="667.319" cy="1163.65" r="14" fill="#009af9" fill-rule="evenodd" fill-opacity="0.25" stroke="#000000" stroke-opacity="0.25" stroke-width="3.2"/>
<circle clip-path="url(#clip352)" cx="1960.7" cy="1201.87" r="14" fill="#009af9" fill-rule="evenodd" fill-opacity="0.25" stroke="#000000" stroke-opacity="0.25" stroke-width="3.2"/>
<circle clip-path="url(#clip352)" cx="1870.07" cy="1049.72" r="14" fill="#009af9" fill-rule="evenodd" fill-opacity="0.25" stroke="#000000" stroke-opacity="0.25" stroke-width="3.2"/>
<circle clip-path="url(#clip352)" cx="1126.17" cy="413.69" r="14" fill="#009af9" fill-rule="evenodd" fill-opacity="0.25" stroke="#000000" stroke-opacity="0.25" stroke-width="3.2"/>
<circle clip-path="url(#clip352)" cx="1525.46" cy="387.538" r="14" fill="#009af9" fill-rule="evenodd" fill-opacity="0.25" stroke="#000000" stroke-opacity="0.25" stroke-width="3.2"/>
<circle clip-path="url(#clip352)" cx="541.214" cy="1447.87" r="14" fill="#009af9" fill-rule="evenodd" fill-opacity="0.25" stroke="#000000" stroke-opacity="0.25" stroke-width="3.2"/>
<circle clip-path="url(#clip352)" cx="1193.06" cy="291.91" r="14" fill="#009af9" fill-rule="evenodd" fill-opacity="0.25" stroke="#000000" stroke-opacity="0.25" stroke-width="3.2"/>
<circle clip-path="url(#clip352)" cx="1270.44" cy="507.699" r="14" fill="#009af9" fill-rule="evenodd" fill-opacity="0.25" stroke="#000000" stroke-opacity="0.25" stroke-width="3.2"/>
<circle clip-path="url(#clip352)" cx="2139.68" cy="1066.69" r="14" fill="#009af9" fill-rule="evenodd" fill-opacity="0.25" stroke="#000000" stroke-opacity="0.25" stroke-width="3.2"/>
<circle clip-path="url(#clip352)" cx="1878.97" cy="1006.82" r="14" fill="#009af9" fill-rule="evenodd" fill-opacity="0.25" stroke="#000000" stroke-opacity="0.25" stroke-width="3.2"/>
<circle clip-path="url(#clip352)" cx="699.223" cy="1109.32" r="14" fill="#009af9" fill-rule="evenodd" fill-opacity="0.25" stroke="#000000" stroke-opacity="0.25" stroke-width="3.2"/>
<circle clip-path="url(#clip352)" cx="633.939" cy="1051.94" r="14" fill="#009af9" fill-rule="evenodd" fill-opacity="0.25" stroke="#000000" stroke-opacity="0.25" stroke-width="3.2"/>
<circle clip-path="url(#clip352)" cx="1849.64" cy="1150.33" r="14" fill="#009af9" fill-rule="evenodd" fill-opacity="0.25" stroke="#000000" stroke-opacity="0.25" stroke-width="3.2"/>
<circle clip-path="url(#clip352)" cx="1902.63" cy="1332.51" r="14" fill="#009af9" fill-rule="evenodd" fill-opacity="0.25" stroke="#000000" stroke-opacity="0.25" stroke-width="3.2"/>
<circle clip-path="url(#clip352)" cx="798.9" cy="1157.71" r="14" fill="#009af9" fill-rule="evenodd" fill-opacity="0.25" stroke="#000000" stroke-opacity="0.25" stroke-width="3.2"/>
<circle clip-path="url(#clip352)" cx="1249.54" cy="1209.57" r="14" fill="#009af9" fill-rule="evenodd" fill-opacity="0.25" stroke="#000000" stroke-opacity="0.25" stroke-width="3.2"/>
<circle clip-path="url(#clip352)" cx="1930.46" cy="1297.11" r="14" fill="#009af9" fill-rule="evenodd" fill-opacity="0.25" stroke="#000000" stroke-opacity="0.25" stroke-width="3.2"/>
<circle clip-path="url(#clip352)" cx="1456.61" cy="599.763" r="14" fill="#009af9" fill-rule="evenodd" fill-opacity="0.25" stroke="#000000" stroke-opacity="0.25" stroke-width="3.2"/>
<circle clip-path="url(#clip352)" cx="1136.39" cy="395.104" r="14" fill="#009af9" fill-rule="evenodd" fill-opacity="0.25" stroke="#000000" stroke-opacity="0.25" stroke-width="3.2"/>
<circle clip-path="url(#clip352)" cx="1111.01" cy="439.919" r="14" fill="#009af9" fill-rule="evenodd" fill-opacity="0.25" stroke="#000000" stroke-opacity="0.25" stroke-width="3.2"/>
<circle clip-path="url(#clip352)" cx="2290.34" cy="1299.96" r="14" fill="#009af9" fill-rule="evenodd" fill-opacity="0.25" stroke="#000000" stroke-opacity="0.25" stroke-width="3.2"/>
<circle clip-path="url(#clip352)" cx="1130.77" cy="333.353" r="14" fill="#009af9" fill-rule="evenodd" fill-opacity="0.25" stroke="#000000" stroke-opacity="0.25" stroke-width="3.2"/>
<circle clip-path="url(#clip352)" cx="1294.55" cy="382.092" r="14" fill="#009af9" fill-rule="evenodd" fill-opacity="0.25" stroke="#000000" stroke-opacity="0.25" stroke-width="3.2"/>
<circle clip-path="url(#clip352)" cx="1309.27" cy="429.962" r="14" fill="#009af9" fill-rule="evenodd" fill-opacity="0.25" stroke="#000000" stroke-opacity="0.25" stroke-width="3.2"/>
<circle clip-path="url(#clip352)" cx="1777.83" cy="1187.07" r="14" fill="#009af9" fill-rule="evenodd" fill-opacity="0.25" stroke="#000000" stroke-opacity="0.25" stroke-width="3.2"/>
<circle clip-path="url(#clip352)" cx="2135" cy="977.2" r="14" fill="#009af9" fill-rule="evenodd" fill-opacity="0.25" stroke="#000000" stroke-opacity="0.25" stroke-width="3.2"/>
<circle clip-path="url(#clip352)" cx="360.584" cy="1125.82" r="14" fill="#009af9" fill-rule="evenodd" fill-opacity="0.25" stroke="#000000" stroke-opacity="0.25" stroke-width="3.2"/>
<circle clip-path="url(#clip352)" cx="1415.3" cy="658.863" r="14" fill="#009af9" fill-rule="evenodd" fill-opacity="0.25" stroke="#000000" stroke-opacity="0.25" stroke-width="3.2"/>
<circle clip-path="url(#clip352)" cx="544.701" cy="1292.93" r="14" fill="#009af9" fill-rule="evenodd" fill-opacity="0.25" stroke="#000000" stroke-opacity="0.25" stroke-width="3.2"/>
<circle clip-path="url(#clip352)" cx="681.03" cy="1275.48" r="14" fill="#009af9" fill-rule="evenodd" fill-opacity="0.25" stroke="#000000" stroke-opacity="0.25" stroke-width="3.2"/>
<circle clip-path="url(#clip352)" cx="1050.6" cy="521.023" r="14" fill="#009af9" fill-rule="evenodd" fill-opacity="0.25" stroke="#000000" stroke-opacity="0.25" stroke-width="3.2"/>
<circle clip-path="url(#clip352)" cx="1272.3" cy="403.654" r="14" fill="#009af9" fill-rule="evenodd" fill-opacity="0.25" stroke="#000000" stroke-opacity="0.25" stroke-width="3.2"/>
<circle clip-path="url(#clip352)" cx="1638.66" cy="1033.28" r="14" fill="#009af9" fill-rule="evenodd" fill-opacity="0.25" stroke="#000000" stroke-opacity="0.25" stroke-width="3.2"/>
<circle clip-path="url(#clip352)" cx="923.125" cy="1114.81" r="14" fill="#009af9" fill-rule="evenodd" fill-opacity="0.25" stroke="#000000" stroke-opacity="0.25" stroke-width="3.2"/>
<circle clip-path="url(#clip352)" cx="736.113" cy="1273" r="14" fill="#009af9" fill-rule="evenodd" fill-opacity="0.25" stroke="#000000" stroke-opacity="0.25" stroke-width="3.2"/>
<circle clip-path="url(#clip352)" cx="382.958" cy="1346.61" r="14" fill="#009af9" fill-rule="evenodd" fill-opacity="0.25" stroke="#000000" stroke-opacity="0.25" stroke-width="3.2"/>
<circle clip-path="url(#clip352)" cx="1573.89" cy="1216.36" r="14" fill="#009af9" fill-rule="evenodd" fill-opacity="0.25" stroke="#000000" stroke-opacity="0.25" stroke-width="3.2"/>
<circle clip-path="url(#clip352)" cx="1890.93" cy="854.176" r="14" fill="#009af9" fill-rule="evenodd" fill-opacity="0.25" stroke="#000000" stroke-opacity="0.25" stroke-width="3.2"/>
<circle clip-path="url(#clip352)" cx="520.428" cy="1287.55" r="14" fill="#009af9" fill-rule="evenodd" fill-opacity="0.25" stroke="#000000" stroke-opacity="0.25" stroke-width="3.2"/>
<circle clip-path="url(#clip352)" cx="209.891" cy="1271.06" r="14" fill="#009af9" fill-rule="evenodd" fill-opacity="0.25" stroke="#000000" stroke-opacity="0.25" stroke-width="3.2"/>
<circle clip-path="url(#clip352)" cx="456.315" cy="1185.87" r="14" fill="#009af9" fill-rule="evenodd" fill-opacity="0.25" stroke="#000000" stroke-opacity="0.25" stroke-width="3.2"/>
<circle clip-path="url(#clip352)" cx="1934.58" cy="1383.32" r="14" fill="#009af9" fill-rule="evenodd" fill-opacity="0.25" stroke="#000000" stroke-opacity="0.25" stroke-width="3.2"/>
<circle clip-path="url(#clip352)" cx="439.757" cy="1264.99" r="14" fill="#009af9" fill-rule="evenodd" fill-opacity="0.25" stroke="#000000" stroke-opacity="0.25" stroke-width="3.2"/>
<circle clip-path="url(#clip352)" cx="754.408" cy="1408.98" r="14" fill="#009af9" fill-rule="evenodd" fill-opacity="0.25" stroke="#000000" stroke-opacity="0.25" stroke-width="3.2"/>
<circle clip-path="url(#clip352)" cx="432.724" cy="964.16" r="14" fill="#009af9" fill-rule="evenodd" fill-opacity="0.25" stroke="#000000" stroke-opacity="0.25" stroke-width="3.2"/>
<circle clip-path="url(#clip352)" cx="918.086" cy="409.789" r="14" fill="#009af9" fill-rule="evenodd" fill-opacity="0.25" stroke="#000000" stroke-opacity="0.25" stroke-width="3.2"/>
<circle clip-path="url(#clip352)" cx="680.375" cy="1306.73" r="14" fill="#009af9" fill-rule="evenodd" fill-opacity="0.25" stroke="#000000" stroke-opacity="0.25" stroke-width="3.2"/>
<circle clip-path="url(#clip352)" cx="1966.77" cy="1116.79" r="14" fill="#009af9" fill-rule="evenodd" fill-opacity="0.25" stroke="#000000" stroke-opacity="0.25" stroke-width="3.2"/>
<circle clip-path="url(#clip352)" cx="1947.53" cy="1074.54" r="14" fill="#009af9" fill-rule="evenodd" fill-opacity="0.25" stroke="#000000" stroke-opacity="0.25" stroke-width="3.2"/>
<circle clip-path="url(#clip352)" cx="402.407" cy="874.558" r="14" fill="#009af9" fill-rule="evenodd" fill-opacity="0.25" stroke="#000000" stroke-opacity="0.25" stroke-width="3.2"/>
<circle clip-path="url(#clip352)" cx="1699.71" cy="352.081" r="14" fill="#009af9" fill-rule="evenodd" fill-opacity="0.25" stroke="#000000" stroke-opacity="0.25" stroke-width="3.2"/>
<circle clip-path="url(#clip352)" cx="1980.52" cy="1162.32" r="14" fill="#009af9" fill-rule="evenodd" fill-opacity="0.25" stroke="#000000" stroke-opacity="0.25" stroke-width="3.2"/>
<circle clip-path="url(#clip352)" cx="1315.03" cy="162.047" r="14" fill="#009af9" fill-rule="evenodd" fill-opacity="0.25" stroke="#000000" stroke-opacity="0.25" stroke-width="3.2"/>
<circle clip-path="url(#clip352)" cx="1135.9" cy="408.132" r="14" fill="#009af9" fill-rule="evenodd" fill-opacity="0.25" stroke="#000000" stroke-opacity="0.25" stroke-width="3.2"/>
<circle clip-path="url(#clip352)" cx="1222.56" cy="589.947" r="14" fill="#009af9" fill-rule="evenodd" fill-opacity="0.25" stroke="#000000" stroke-opacity="0.25" stroke-width="3.2"/>
<circle clip-path="url(#clip352)" cx="714.314" cy="1295.89" r="14" fill="#009af9" fill-rule="evenodd" fill-opacity="0.25" stroke="#000000" stroke-opacity="0.25" stroke-width="3.2"/>
<circle clip-path="url(#clip352)" cx="552.983" cy="1066.8" r="14" fill="#009af9" fill-rule="evenodd" fill-opacity="0.25" stroke="#000000" stroke-opacity="0.25" stroke-width="3.2"/>
<circle clip-path="url(#clip352)" cx="334.075" cy="1215.21" r="14" fill="#009af9" fill-rule="evenodd" fill-opacity="0.25" stroke="#000000" stroke-opacity="0.25" stroke-width="3.2"/>
<circle clip-path="url(#clip352)" cx="1661.21" cy="676.386" r="14" fill="#009af9" fill-rule="evenodd" fill-opacity="0.25" stroke="#000000" stroke-opacity="0.25" stroke-width="3.2"/>
<circle clip-path="url(#clip352)" cx="892.11" cy="1104" r="14" fill="#009af9" fill-rule="evenodd" fill-opacity="0.25" stroke="#000000" stroke-opacity="0.25" stroke-width="3.2"/>
<circle clip-path="url(#clip352)" cx="542.616" cy="1126.38" r="14" fill="#009af9" fill-rule="evenodd" fill-opacity="0.25" stroke="#000000" stroke-opacity="0.25" stroke-width="3.2"/>
<circle clip-path="url(#clip352)" cx="309.551" cy="962.389" r="14" fill="#009af9" fill-rule="evenodd" fill-opacity="0.25" stroke="#000000" stroke-opacity="0.25" stroke-width="3.2"/>
<circle clip-path="url(#clip352)" cx="2223.04" cy="1054.35" r="14" fill="#009af9" fill-rule="evenodd" fill-opacity="0.25" stroke="#000000" stroke-opacity="0.25" stroke-width="3.2"/>
<circle clip-path="url(#clip352)" cx="1198.24" cy="1010.39" r="14" fill="#009af9" fill-rule="evenodd" fill-opacity="0.25" stroke="#000000" stroke-opacity="0.25" stroke-width="3.2"/>
<circle clip-path="url(#clip352)" cx="914.534" cy="464.664" r="14" fill="#009af9" fill-rule="evenodd" fill-opacity="0.25" stroke="#000000" stroke-opacity="0.25" stroke-width="3.2"/>
<circle clip-path="url(#clip352)" cx="1152.82" cy="491.231" r="14" fill="#009af9" fill-rule="evenodd" fill-opacity="0.25" stroke="#000000" stroke-opacity="0.25" stroke-width="3.2"/>
<circle clip-path="url(#clip352)" cx="651.613" cy="1097.7" r="14" fill="#009af9" fill-rule="evenodd" fill-opacity="0.25" stroke="#000000" stroke-opacity="0.25" stroke-width="3.2"/>
<circle clip-path="url(#clip352)" cx="1949.6" cy="1023.85" r="14" fill="#009af9" fill-rule="evenodd" fill-opacity="0.25" stroke="#000000" stroke-opacity="0.25" stroke-width="3.2"/>
<circle clip-path="url(#clip352)" cx="1670.49" cy="540.351" r="14" fill="#009af9" fill-rule="evenodd" fill-opacity="0.25" stroke="#000000" stroke-opacity="0.25" stroke-width="3.2"/>
<circle clip-path="url(#clip352)" cx="2088.96" cy="1203.42" r="14" fill="#009af9" fill-rule="evenodd" fill-opacity="0.25" stroke="#000000" stroke-opacity="0.25" stroke-width="3.2"/>
<circle clip-path="url(#clip352)" cx="421.749" cy="1395.9" r="14" fill="#009af9" fill-rule="evenodd" fill-opacity="0.25" stroke="#000000" stroke-opacity="0.25" stroke-width="3.2"/>
<circle clip-path="url(#clip352)" cx="2169.01" cy="1133.65" r="14" fill="#009af9" fill-rule="evenodd" fill-opacity="0.25" stroke="#000000" stroke-opacity="0.25" stroke-width="3.2"/>
<circle clip-path="url(#clip352)" cx="1524.23" cy="214.75" r="14" fill="#009af9" fill-rule="evenodd" fill-opacity="0.25" stroke="#000000" stroke-opacity="0.25" stroke-width="3.2"/>
<circle clip-path="url(#clip352)" cx="1007.38" cy="538.959" r="14" fill="#009af9" fill-rule="evenodd" fill-opacity="0.25" stroke="#000000" stroke-opacity="0.25" stroke-width="3.2"/>
<circle clip-path="url(#clip352)" cx="693.703" cy="1301.41" r="14" fill="#009af9" fill-rule="evenodd" fill-opacity="0.25" stroke="#000000" stroke-opacity="0.25" stroke-width="3.2"/>
<circle clip-path="url(#clip352)" cx="765.949" cy="1204.74" r="14" fill="#009af9" fill-rule="evenodd" fill-opacity="0.25" stroke="#000000" stroke-opacity="0.25" stroke-width="3.2"/>
<circle clip-path="url(#clip352)" cx="1952.8" cy="1211.41" r="14" fill="#009af9" fill-rule="evenodd" fill-opacity="0.25" stroke="#000000" stroke-opacity="0.25" stroke-width="3.2"/>
<path clip-path="url(#clip350)" d="
M1986.82 272.585 L2279.25 272.585 L2279.25 168.905 L1986.82 168.905  Z
  " fill="#ffffff" fill-rule="evenodd" fill-opacity="1"/>
<polyline clip-path="url(#clip350)" style="stroke:#000000; stroke-linecap:butt; stroke-linejoin:round; stroke-width:4; stroke-opacity:1; fill:none" points="
  1986.82,272.585 2279.25,272.585 2279.25,168.905 1986.82,168.905 1986.82,272.585 
  "/>
<circle clip-path="url(#clip350)" cx="2082.82" cy="220.745" r="23" fill="#009af9" fill-rule="evenodd" fill-opacity="0.25" stroke="#000000" stroke-opacity="0.25" stroke-width="5.12"/>
<path clip-path="url(#clip350)" d="M2192.66 240.432 Q2190.85 245.062 2189.14 246.474 Q2187.43 247.886 2184.56 247.886 L2181.15 247.886 L2181.15 244.321 L2183.65 244.321 Q2185.41 244.321 2186.39 243.488 Q2187.36 242.654 2188.54 239.552 L2189.3 237.608 L2178.82 212.099 L2183.33 212.099 L2191.43 232.377 L2199.53 212.099 L2204.05 212.099 L2192.66 240.432 Z" fill="#000000" fill-rule="evenodd" fill-opacity="1" /><path clip-path="url(#clip350)" d="M2211.34 234.089 L2218.98 234.089 L2218.98 207.724 L2210.67 209.391 L2210.67 205.131 L2218.93 203.465 L2223.61 203.465 L2223.61 234.089 L2231.25 234.089 L2231.25 238.025 L2211.34 238.025 L2211.34 234.089 Z" fill="#000000" fill-rule="evenodd" fill-opacity="1" /></svg>
