<?xml version="1.0" encoding="utf-8"?>
<svg xmlns="http://www.w3.org/2000/svg" xmlns:xlink="http://www.w3.org/1999/xlink" width="600" height="400" viewBox="0 0 2400 1600">
<defs>
  <clipPath id="clip350">
    <rect x="0" y="0" width="2400" height="1600"/>
  </clipPath>
</defs>
<path clip-path="url(#clip350)" d="
M0 1600 L2400 1600 L2400 0 L0 0  Z
  " fill="#ffffff" fill-rule="evenodd" fill-opacity="1"/>
<defs>
  <clipPath id="clip351">
    <rect x="480" y="0" width="1681" height="1600"/>
  </clipPath>
</defs>
<path clip-path="url(#clip350)" d="
M156.112 1486.45 L2352.76 1486.45 L2352.76 123.472 L156.112 123.472  Z
  " fill="#ffffff" fill-rule="evenodd" fill-opacity="1"/>
<defs>
  <clipPath id="clip352">
    <rect x="156" y="123" width="2198" height="1364"/>
  </clipPath>
</defs>
<polyline clip-path="url(#clip352)" style="stroke:#000000; stroke-linecap:butt; stroke-linejoin:round; stroke-width:2; stroke-opacity:0.1; fill:none" points="
  390.973,1486.45 390.973,123.472 
  "/>
<polyline clip-path="url(#clip352)" style="stroke:#000000; stroke-linecap:butt; stroke-linejoin:round; stroke-width:2; stroke-opacity:0.1; fill:none" points="
  822.704,1486.45 822.704,123.472 
  "/>
<polyline clip-path="url(#clip352)" style="stroke:#000000; stroke-linecap:butt; stroke-linejoin:round; stroke-width:2; stroke-opacity:0.1; fill:none" points="
  1254.43,1486.45 1254.43,123.472 
  "/>
<polyline clip-path="url(#clip352)" style="stroke:#000000; stroke-linecap:butt; stroke-linejoin:round; stroke-width:2; stroke-opacity:0.1; fill:none" points="
  1686.16,1486.45 1686.16,123.472 
  "/>
<polyline clip-path="url(#clip352)" style="stroke:#000000; stroke-linecap:butt; stroke-linejoin:round; stroke-width:2; stroke-opacity:0.1; fill:none" points="
  2117.89,1486.45 2117.89,123.472 
  "/>
<polyline clip-path="url(#clip350)" style="stroke:#000000; stroke-linecap:butt; stroke-linejoin:round; stroke-width:4; stroke-opacity:1; fill:none" points="
  156.112,1486.45 2352.76,1486.45 
  "/>
<polyline clip-path="url(#clip350)" style="stroke:#000000; stroke-linecap:butt; stroke-linejoin:round; stroke-width:4; stroke-opacity:1; fill:none" points="
  390.973,1486.45 390.973,1467.55 
  "/>
<polyline clip-path="url(#clip350)" style="stroke:#000000; stroke-linecap:butt; stroke-linejoin:round; stroke-width:4; stroke-opacity:1; fill:none" points="
  822.704,1486.45 822.704,1467.55 
  "/>
<polyline clip-path="url(#clip350)" style="stroke:#000000; stroke-linecap:butt; stroke-linejoin:round; stroke-width:4; stroke-opacity:1; fill:none" points="
  1254.43,1486.45 1254.43,1467.55 
  "/>
<polyline clip-path="url(#clip350)" style="stroke:#000000; stroke-linecap:butt; stroke-linejoin:round; stroke-width:4; stroke-opacity:1; fill:none" points="
  1686.16,1486.45 1686.16,1467.55 
  "/>
<polyline clip-path="url(#clip350)" style="stroke:#000000; stroke-linecap:butt; stroke-linejoin:round; stroke-width:4; stroke-opacity:1; fill:none" points="
  2117.89,1486.45 2117.89,1467.55 
  "/>
<path clip-path="url(#clip350)" d="M345.036 1532.02 L374.712 1532.02 L374.712 1535.95 L345.036 1535.95 L345.036 1532.02 Z" fill="#000000" fill-rule="evenodd" fill-opacity="1" /><path clip-path="url(#clip350)" d="M385.615 1544.91 L393.253 1544.91 L393.253 1518.55 L384.943 1520.21 L384.943 1515.95 L393.207 1514.29 L397.883 1514.29 L397.883 1544.91 L405.522 1544.91 L405.522 1548.85 L385.615 1548.85 L385.615 1544.91 Z" fill="#000000" fill-rule="evenodd" fill-opacity="1" /><path clip-path="url(#clip350)" d="M424.966 1517.37 Q421.355 1517.37 419.526 1520.93 Q417.721 1524.47 417.721 1531.6 Q417.721 1538.71 419.526 1542.27 Q421.355 1545.82 424.966 1545.82 Q428.601 1545.82 430.406 1542.27 Q432.235 1538.71 432.235 1531.6 Q432.235 1524.47 430.406 1520.93 Q428.601 1517.37 424.966 1517.37 M424.966 1513.66 Q430.776 1513.66 433.832 1518.27 Q436.911 1522.85 436.911 1531.6 Q436.911 1540.33 433.832 1544.94 Q430.776 1549.52 424.966 1549.52 Q419.156 1549.52 416.077 1544.94 Q413.022 1540.33 413.022 1531.6 Q413.022 1522.85 416.077 1518.27 Q419.156 1513.66 424.966 1513.66 Z" fill="#000000" fill-rule="evenodd" fill-opacity="1" /><path clip-path="url(#clip350)" d="M792.345 1532.02 L822.021 1532.02 L822.021 1535.95 L792.345 1535.95 L792.345 1532.02 Z" fill="#000000" fill-rule="evenodd" fill-opacity="1" /><path clip-path="url(#clip350)" d="M832.16 1514.29 L850.516 1514.29 L850.516 1518.22 L836.442 1518.22 L836.442 1526.7 Q837.461 1526.35 838.479 1526.19 Q839.498 1526 840.516 1526 Q846.303 1526 849.683 1529.17 Q853.062 1532.34 853.062 1537.76 Q853.062 1543.34 849.59 1546.44 Q846.118 1549.52 839.799 1549.52 Q837.623 1549.52 835.354 1549.15 Q833.109 1548.78 830.701 1548.04 L830.701 1543.34 Q832.785 1544.47 835.007 1545.03 Q837.229 1545.58 839.706 1545.58 Q843.711 1545.58 846.048 1543.48 Q848.386 1541.37 848.386 1537.76 Q848.386 1534.15 846.048 1532.04 Q843.711 1529.94 839.706 1529.94 Q837.831 1529.94 835.956 1530.35 Q834.104 1530.77 832.16 1531.65 L832.16 1514.29 Z" fill="#000000" fill-rule="evenodd" fill-opacity="1" /><path clip-path="url(#clip350)" d="M1254.43 1517.37 Q1250.82 1517.37 1248.99 1520.93 Q1247.19 1524.47 1247.19 1531.6 Q1247.19 1538.71 1248.99 1542.27 Q1250.82 1545.82 1254.43 1545.82 Q1258.07 1545.82 1259.87 1542.27 Q1261.7 1538.71 1261.7 1531.6 Q1261.7 1524.47 1259.87 1520.93 Q1258.07 1517.37 1254.43 1517.37 M1254.43 1513.66 Q1260.24 1513.66 1263.3 1518.27 Q1266.38 1522.85 1266.38 1531.6 Q1266.38 1540.33 1263.3 1544.94 Q1260.24 1549.52 1254.43 1549.52 Q1248.62 1549.52 1245.55 1544.94 Q1242.49 1540.33 1242.49 1531.6 Q1242.49 1522.85 1245.55 1518.27 Q1248.62 1513.66 1254.43 1513.66 Z" fill="#000000" fill-rule="evenodd" fill-opacity="1" /><path clip-path="url(#clip350)" d="M1676.44 1514.29 L1694.8 1514.29 L1694.8 1518.22 L1680.72 1518.22 L1680.72 1526.7 Q1681.74 1526.35 1682.76 1526.19 Q1683.78 1526 1684.8 1526 Q1690.59 1526 1693.97 1529.17 Q1697.34 1532.34 1697.34 1537.76 Q1697.34 1543.34 1693.87 1546.44 Q1690.4 1549.52 1684.08 1549.52 Q1681.91 1549.52 1679.64 1549.15 Q1677.39 1548.78 1674.98 1548.04 L1674.98 1543.34 Q1677.07 1544.47 1679.29 1545.03 Q1681.51 1545.58 1683.99 1545.58 Q1687.99 1545.58 1690.33 1543.48 Q1692.67 1541.37 1692.67 1537.76 Q1692.67 1534.15 1690.33 1532.04 Q1687.99 1529.94 1683.99 1529.94 Q1682.11 1529.94 1680.24 1530.35 Q1678.39 1530.77 1676.44 1531.65 L1676.44 1514.29 Z" fill="#000000" fill-rule="evenodd" fill-opacity="1" /><path clip-path="url(#clip350)" d="M2092.58 1544.91 L2100.22 1544.91 L2100.22 1518.55 L2091.91 1520.21 L2091.91 1515.95 L2100.17 1514.29 L2104.85 1514.29 L2104.85 1544.91 L2112.49 1544.91 L2112.49 1548.85 L2092.58 1548.85 L2092.58 1544.91 Z" fill="#000000" fill-rule="evenodd" fill-opacity="1" /><path clip-path="url(#clip350)" d="M2131.93 1517.37 Q2128.32 1517.37 2126.49 1520.93 Q2124.69 1524.47 2124.69 1531.6 Q2124.69 1538.71 2126.49 1542.27 Q2128.32 1545.82 2131.93 1545.82 Q2135.57 1545.82 2137.37 1542.27 Q2139.2 1538.71 2139.2 1531.6 Q2139.2 1524.47 2137.37 1520.93 Q2135.57 1517.37 2131.93 1517.37 M2131.93 1513.66 Q2137.74 1513.66 2140.8 1518.27 Q2143.88 1522.85 2143.88 1531.6 Q2143.88 1540.33 2140.8 1544.94 Q2137.74 1549.52 2131.93 1549.52 Q2126.12 1549.52 2123.05 1544.94 Q2119.99 1540.33 2119.99 1531.6 Q2119.99 1522.85 2123.05 1518.27 Q2126.12 1513.66 2131.93 1513.66 Z" fill="#000000" fill-rule="evenodd" fill-opacity="1" /><polyline clip-path="url(#clip352)" style="stroke:#000000; stroke-linecap:butt; stroke-linejoin:round; stroke-width:2; stroke-opacity:0.1; fill:none" points="
  156.112,1447.87 2352.76,1447.87 
  "/>
<polyline clip-path="url(#clip352)" style="stroke:#000000; stroke-linecap:butt; stroke-linejoin:round; stroke-width:2; stroke-opacity:0.1; fill:none" points="
  156.112,1091.49 2352.76,1091.49 
  "/>
<polyline clip-path="url(#clip352)" style="stroke:#000000; stroke-linecap:butt; stroke-linejoin:round; stroke-width:2; stroke-opacity:0.1; fill:none" points="
  156.112,735.106 2352.76,735.106 
  "/>
<polyline clip-path="url(#clip352)" style="stroke:#000000; stroke-linecap:butt; stroke-linejoin:round; stroke-width:2; stroke-opacity:0.1; fill:none" points="
  156.112,378.723 2352.76,378.723 
  "/>
<polyline clip-path="url(#clip350)" style="stroke:#000000; stroke-linecap:butt; stroke-linejoin:round; stroke-width:4; stroke-opacity:1; fill:none" points="
  156.112,1486.45 156.112,123.472 
  "/>
<polyline clip-path="url(#clip350)" style="stroke:#000000; stroke-linecap:butt; stroke-linejoin:round; stroke-width:4; stroke-opacity:1; fill:none" points="
  156.112,1447.87 175.01,1447.87 
  "/>
<polyline clip-path="url(#clip350)" style="stroke:#000000; stroke-linecap:butt; stroke-linejoin:round; stroke-width:4; stroke-opacity:1; fill:none" points="
  156.112,1091.49 175.01,1091.49 
  "/>
<polyline clip-path="url(#clip350)" style="stroke:#000000; stroke-linecap:butt; stroke-linejoin:round; stroke-width:4; stroke-opacity:1; fill:none" points="
  156.112,735.106 175.01,735.106 
  "/>
<polyline clip-path="url(#clip350)" style="stroke:#000000; stroke-linecap:butt; stroke-linejoin:round; stroke-width:4; stroke-opacity:1; fill:none" points="
  156.112,378.723 175.01,378.723 
  "/>
<path clip-path="url(#clip350)" d="M62.9365 1433.67 Q59.3254 1433.67 57.4967 1437.24 Q55.6912 1440.78 55.6912 1447.91 Q55.6912 1455.01 57.4967 1458.58 Q59.3254 1462.12 62.9365 1462.12 Q66.5707 1462.12 68.3763 1458.58 Q70.205 1455.01 70.205 1447.91 Q70.205 1440.78 68.3763 1437.24 Q66.5707 1433.67 62.9365 1433.67 M62.9365 1429.97 Q68.7467 1429.97 71.8022 1434.57 Q74.8809 1439.16 74.8809 1447.91 Q74.8809 1456.63 71.8022 1461.24 Q68.7467 1465.82 62.9365 1465.82 Q57.1264 1465.82 54.0477 1461.24 Q50.9921 1456.63 50.9921 1447.91 Q50.9921 1439.16 54.0477 1434.57 Q57.1264 1429.97 62.9365 1429.97 Z" fill="#000000" fill-rule="evenodd" fill-opacity="1" /><path clip-path="url(#clip350)" d="M83.0984 1459.27 L87.9827 1459.27 L87.9827 1465.15 L83.0984 1465.15 L83.0984 1459.27 Z" fill="#000000" fill-rule="evenodd" fill-opacity="1" /><path clip-path="url(#clip350)" d="M108.168 1433.67 Q104.557 1433.67 102.728 1437.24 Q100.922 1440.78 100.922 1447.91 Q100.922 1455.01 102.728 1458.58 Q104.557 1462.12 108.168 1462.12 Q111.802 1462.12 113.608 1458.58 Q115.436 1455.01 115.436 1447.91 Q115.436 1440.78 113.608 1437.24 Q111.802 1433.67 108.168 1433.67 M108.168 1429.97 Q113.978 1429.97 117.033 1434.57 Q120.112 1439.16 120.112 1447.91 Q120.112 1456.63 117.033 1461.24 Q113.978 1465.82 108.168 1465.82 Q102.358 1465.82 99.2789 1461.24 Q96.2234 1456.63 96.2234 1447.91 Q96.2234 1439.16 99.2789 1434.57 Q102.358 1429.97 108.168 1429.97 Z" fill="#000000" fill-rule="evenodd" fill-opacity="1" /><path clip-path="url(#clip350)" d="M64.1634 1077.29 Q60.5523 1077.29 58.7236 1080.85 Q56.918 1084.39 56.918 1091.52 Q56.918 1098.63 58.7236 1102.2 Q60.5523 1105.74 64.1634 1105.74 Q67.7976 1105.74 69.6031 1102.2 Q71.4318 1098.63 71.4318 1091.52 Q71.4318 1084.39 69.6031 1080.85 Q67.7976 1077.29 64.1634 1077.29 M64.1634 1073.58 Q69.9735 1073.58 73.029 1078.19 Q76.1077 1082.77 76.1077 1091.52 Q76.1077 1100.25 73.029 1104.86 Q69.9735 1109.44 64.1634 1109.44 Q58.3532 1109.44 55.2745 1104.86 Q52.219 1100.25 52.219 1091.52 Q52.219 1082.77 55.2745 1078.19 Q58.3532 1073.58 64.1634 1073.58 Z" fill="#000000" fill-rule="evenodd" fill-opacity="1" /><path clip-path="url(#clip350)" d="M84.3253 1102.89 L89.2095 1102.89 L89.2095 1108.77 L84.3253 1108.77 L84.3253 1102.89 Z" fill="#000000" fill-rule="evenodd" fill-opacity="1" /><path clip-path="url(#clip350)" d="M100.205 1104.83 L107.844 1104.83 L107.844 1078.47 L99.5335 1080.14 L99.5335 1075.88 L107.797 1074.21 L112.473 1074.21 L112.473 1104.83 L120.112 1104.83 L120.112 1108.77 L100.205 1108.77 L100.205 1104.83 Z" fill="#000000" fill-rule="evenodd" fill-opacity="1" /><path clip-path="url(#clip350)" d="M64.5337 720.905 Q60.9226 720.905 59.0939 724.47 Q57.2884 728.011 57.2884 735.141 Q57.2884 742.247 59.0939 745.812 Q60.9226 749.354 64.5337 749.354 Q68.168 749.354 69.9735 745.812 Q71.8022 742.247 71.8022 735.141 Q71.8022 728.011 69.9735 724.47 Q68.168 720.905 64.5337 720.905 M64.5337 717.201 Q70.3439 717.201 73.3994 721.808 Q76.4781 726.391 76.4781 735.141 Q76.4781 743.868 73.3994 748.474 Q70.3439 753.058 64.5337 753.058 Q58.7236 753.058 55.6449 748.474 Q52.5893 743.868 52.5893 735.141 Q52.5893 726.391 55.6449 721.808 Q58.7236 717.201 64.5337 717.201 Z" fill="#000000" fill-rule="evenodd" fill-opacity="1" /><path clip-path="url(#clip350)" d="M84.6956 746.507 L89.5799 746.507 L89.5799 752.386 L84.6956 752.386 L84.6956 746.507 Z" fill="#000000" fill-rule="evenodd" fill-opacity="1" /><path clip-path="url(#clip350)" d="M103.793 748.451 L120.112 748.451 L120.112 752.386 L98.1678 752.386 L98.1678 748.451 Q100.83 745.696 105.413 741.067 Q110.02 736.414 111.2 735.071 Q113.445 732.548 114.325 730.812 Q115.228 729.053 115.228 727.363 Q115.228 724.609 113.283 722.872 Q111.362 721.136 108.26 721.136 Q106.061 721.136 103.608 721.9 Q101.177 722.664 98.3993 724.215 L98.3993 719.493 Q101.223 718.359 103.677 717.78 Q106.131 717.201 108.168 717.201 Q113.538 717.201 116.733 719.886 Q119.927 722.572 119.927 727.062 Q119.927 729.192 119.117 731.113 Q118.33 733.011 116.223 735.604 Q115.645 736.275 112.543 739.493 Q109.441 742.687 103.793 748.451 Z" fill="#000000" fill-rule="evenodd" fill-opacity="1" /><path clip-path="url(#clip350)" d="M63.5847 364.521 Q59.9736 364.521 58.1449 368.086 Q56.3393 371.628 56.3393 378.758 Q56.3393 385.864 58.1449 389.429 Q59.9736 392.97 63.5847 392.97 Q67.2189 392.97 69.0244 389.429 Q70.8531 385.864 70.8531 378.758 Q70.8531 371.628 69.0244 368.086 Q67.2189 364.521 63.5847 364.521 M63.5847 360.818 Q69.3948 360.818 72.4503 365.424 Q75.529 370.008 75.529 378.758 Q75.529 387.484 72.4503 392.091 Q69.3948 396.674 63.5847 396.674 Q57.7745 396.674 54.6958 392.091 Q51.6403 387.484 51.6403 378.758 Q51.6403 370.008 54.6958 365.424 Q57.7745 360.818 63.5847 360.818 Z" fill="#000000" fill-rule="evenodd" fill-opacity="1" /><path clip-path="url(#clip350)" d="M83.7466 390.123 L88.6308 390.123 L88.6308 396.003 L83.7466 396.003 L83.7466 390.123 Z" fill="#000000" fill-rule="evenodd" fill-opacity="1" /><path clip-path="url(#clip350)" d="M112.983 377.369 Q116.339 378.086 118.214 380.355 Q120.112 382.623 120.112 385.957 Q120.112 391.072 116.594 393.873 Q113.075 396.674 106.594 396.674 Q104.418 396.674 102.103 396.234 Q99.8113 395.818 97.3576 394.961 L97.3576 390.447 Q99.3021 391.582 101.617 392.16 Q103.932 392.739 106.455 392.739 Q110.853 392.739 113.145 391.003 Q115.459 389.267 115.459 385.957 Q115.459 382.901 113.307 381.188 Q111.177 379.452 107.358 379.452 L103.33 379.452 L103.33 375.609 L107.543 375.609 Q110.992 375.609 112.82 374.244 Q114.649 372.855 114.649 370.262 Q114.649 367.6 112.751 366.188 Q110.876 364.753 107.358 364.753 Q105.436 364.753 103.237 365.17 Q101.038 365.586 98.3993 366.466 L98.3993 362.299 Q101.061 361.559 103.376 361.188 Q105.714 360.818 107.774 360.818 Q113.098 360.818 116.2 363.248 Q119.302 365.656 119.302 369.776 Q119.302 372.646 117.658 374.637 Q116.015 376.605 112.983 377.369 Z" fill="#000000" fill-rule="evenodd" fill-opacity="1" /><path clip-path="url(#clip350)" d="M762.229 12.096 L773.247 12.096 L800.064 62.6918 L800.064 12.096 L808.004 12.096 L808.004 72.576 L796.986 72.576 L770.169 21.9802 L770.169 72.576 L762.229 72.576 L762.229 12.096 Z" fill="#000000" fill-rule="evenodd" fill-opacity="1" /><path clip-path="url(#clip350)" d="M824.289 12.096 L836.482 12.096 L851.916 53.2532 L867.431 12.096 L879.624 12.096 L879.624 72.576 L871.644 72.576 L871.644 19.4686 L856.048 60.9499 L847.825 60.9499 L832.229 19.4686 L832.229 72.576 L824.289 72.576 L824.289 12.096 Z" fill="#000000" fill-rule="evenodd" fill-opacity="1" /><path clip-path="url(#clip350)" d="M895.868 12.096 L930.625 12.096 L930.625 18.9825 L904.051 18.9825 L904.051 36.8065 L928.032 36.8065 L928.032 43.6931 L904.051 43.6931 L904.051 72.576 L895.868 72.576 L895.868 12.096 Z" fill="#000000" fill-rule="evenodd" fill-opacity="1" /><path clip-path="url(#clip350)" d="M965.301 27.2059 L972.754 27.2059 L982.071 62.6108 L991.348 27.2059 L1000.14 27.2059 L1009.46 62.6108 L1018.73 27.2059 L1026.19 27.2059 L1014.32 72.576 L1005.53 72.576 L995.764 35.3887 L985.96 72.576 L977.17 72.576 L965.301 27.2059 Z" fill="#000000" fill-rule="evenodd" fill-opacity="1" /><path clip-path="url(#clip350)" d="M1037.49 27.2059 L1044.94 27.2059 L1044.94 72.576 L1037.49 72.576 L1037.49 27.2059 M1037.49 9.54393 L1044.94 9.54393 L1044.94 18.9825 L1037.49 18.9825 L1037.49 9.54393 Z" fill="#000000" fill-rule="evenodd" fill-opacity="1" /><path clip-path="url(#clip350)" d="M1067.91 14.324 L1067.91 27.2059 L1083.26 27.2059 L1083.26 32.9987 L1067.91 32.9987 L1067.91 57.6282 Q1067.91 63.1779 1069.41 64.7578 Q1070.95 66.3376 1075.61 66.3376 L1083.26 66.3376 L1083.26 72.576 L1075.61 72.576 Q1066.98 72.576 1063.7 69.3758 Q1060.42 66.1351 1060.42 57.6282 L1060.42 32.9987 L1054.95 32.9987 L1054.95 27.2059 L1060.42 27.2059 L1060.42 14.324 L1067.91 14.324 Z" fill="#000000" fill-rule="evenodd" fill-opacity="1" /><path clip-path="url(#clip350)" d="M1130.78 45.1919 L1130.78 72.576 L1123.33 72.576 L1123.33 45.4349 Q1123.33 38.994 1120.81 35.7938 Q1118.3 32.5936 1113.28 32.5936 Q1107.24 32.5936 1103.76 36.4419 Q1100.28 40.2903 1100.28 46.9338 L1100.28 72.576 L1092.78 72.576 L1092.78 9.54393 L1100.28 9.54393 L1100.28 34.2544 Q1102.95 30.163 1106.56 28.1376 Q1110.2 26.1121 1114.94 26.1121 Q1122.76 26.1121 1126.77 30.9732 Q1130.78 35.7938 1130.78 45.1919 Z" fill="#000000" fill-rule="evenodd" fill-opacity="1" /><path clip-path="url(#clip350)" d="M1172.34 12.096 L1207.1 12.096 L1207.1 18.9825 L1180.53 18.9825 L1180.53 36.8065 L1204.51 36.8065 L1204.51 43.6931 L1180.53 43.6931 L1180.53 72.576 L1172.34 72.576 L1172.34 12.096 Z" fill="#000000" fill-rule="evenodd" fill-opacity="1" /><path clip-path="url(#clip350)" d="M1239.99 34.1734 Q1238.74 33.4443 1237.24 33.1202 Q1235.78 32.7556 1234 32.7556 Q1227.68 32.7556 1224.28 36.8875 Q1220.91 40.9789 1220.91 48.6757 L1220.91 72.576 L1213.42 72.576 L1213.42 27.2059 L1220.91 27.2059 L1220.91 34.2544 Q1223.26 30.1225 1227.03 28.1376 Q1230.8 26.1121 1236.18 26.1121 Q1236.95 26.1121 1237.89 26.2337 Q1238.82 26.3147 1239.95 26.5172 L1239.99 34.1734 Z" fill="#000000" fill-rule="evenodd" fill-opacity="1" /><path clip-path="url(#clip350)" d="M1263.57 32.4315 Q1257.57 32.4315 1254.09 37.1306 Q1250.61 41.7891 1250.61 49.9314 Q1250.61 58.0738 1254.05 62.7728 Q1257.53 67.4314 1263.57 67.4314 Q1269.52 67.4314 1273.01 62.7323 Q1276.49 58.0333 1276.49 49.9314 Q1276.49 41.8701 1273.01 37.1711 Q1269.52 32.4315 1263.57 32.4315 M1263.57 26.1121 Q1273.29 26.1121 1278.84 32.4315 Q1284.39 38.7509 1284.39 49.9314 Q1284.39 61.0714 1278.84 67.4314 Q1273.29 73.7508 1263.57 73.7508 Q1253.81 73.7508 1248.26 67.4314 Q1242.75 61.0714 1242.75 49.9314 Q1242.75 38.7509 1248.26 32.4315 Q1253.81 26.1121 1263.57 26.1121 Z" fill="#000000" fill-rule="evenodd" fill-opacity="1" /><path clip-path="url(#clip350)" d="M1329.31 49.9314 Q1329.31 41.7081 1325.91 37.0496 Q1322.55 32.3505 1316.64 32.3505 Q1310.72 32.3505 1307.32 37.0496 Q1303.96 41.7081 1303.96 49.9314 Q1303.96 58.1548 1307.32 62.8538 Q1310.72 67.5124 1316.64 67.5124 Q1322.55 67.5124 1325.91 62.8538 Q1329.31 58.1548 1329.31 49.9314 M1303.96 34.0924 Q1306.31 30.0415 1309.87 28.0971 Q1313.48 26.1121 1318.46 26.1121 Q1326.72 26.1121 1331.87 32.6746 Q1337.05 39.2371 1337.05 49.9314 Q1337.05 60.6258 1331.87 67.1883 Q1326.72 73.7508 1318.46 73.7508 Q1313.48 73.7508 1309.87 71.8063 Q1306.31 69.8214 1303.96 65.7705 L1303.96 72.576 L1296.46 72.576 L1296.46 9.54393 L1303.96 9.54393 L1303.96 34.0924 Z" fill="#000000" fill-rule="evenodd" fill-opacity="1" /><path clip-path="url(#clip350)" d="M1388.22 48.0275 L1388.22 51.6733 L1353.94 51.6733 Q1354.43 59.3701 1358.56 63.421 Q1362.73 67.4314 1370.15 67.4314 Q1374.44 67.4314 1378.45 66.3781 Q1382.5 65.3249 1386.47 63.2184 L1386.47 70.267 Q1382.46 71.9684 1378.25 72.8596 Q1374.04 73.7508 1369.7 73.7508 Q1358.85 73.7508 1352.49 67.4314 Q1346.17 61.1119 1346.17 50.3365 Q1346.17 39.1965 1352.16 32.6746 Q1358.2 26.1121 1368.41 26.1121 Q1377.56 26.1121 1382.87 32.0264 Q1388.22 37.9003 1388.22 48.0275 M1380.76 45.84 Q1380.68 39.7232 1377.32 36.0774 Q1374 32.4315 1368.49 32.4315 Q1362.25 32.4315 1358.48 35.9558 Q1354.75 39.4801 1354.19 45.8805 L1380.76 45.84 Z" fill="#000000" fill-rule="evenodd" fill-opacity="1" /><path clip-path="url(#clip350)" d="M1438.16 45.1919 L1438.16 72.576 L1430.71 72.576 L1430.71 45.4349 Q1430.71 38.994 1428.2 35.7938 Q1425.69 32.5936 1420.66 32.5936 Q1414.63 32.5936 1411.14 36.4419 Q1407.66 40.2903 1407.66 46.9338 L1407.66 72.576 L1400.17 72.576 L1400.17 27.2059 L1407.66 27.2059 L1407.66 34.2544 Q1410.33 30.163 1413.94 28.1376 Q1417.58 26.1121 1422.32 26.1121 Q1430.14 26.1121 1434.15 30.9732 Q1438.16 35.7938 1438.16 45.1919 Z" fill="#000000" fill-rule="evenodd" fill-opacity="1" /><path clip-path="url(#clip350)" d="M1453.03 27.2059 L1460.48 27.2059 L1460.48 72.576 L1453.03 72.576 L1453.03 27.2059 M1453.03 9.54393 L1460.48 9.54393 L1460.48 18.9825 L1453.03 18.9825 L1453.03 9.54393 Z" fill="#000000" fill-rule="evenodd" fill-opacity="1" /><path clip-path="url(#clip350)" d="M1475.31 54.671 L1475.31 27.2059 L1482.76 27.2059 L1482.76 54.3874 Q1482.76 60.8284 1485.27 64.0691 Q1487.79 67.2693 1492.81 67.2693 Q1498.85 67.2693 1502.33 63.421 Q1505.85 59.5726 1505.85 52.9291 L1505.85 27.2059 L1513.31 27.2059 L1513.31 72.576 L1505.85 72.576 L1505.85 65.6084 Q1503.14 69.7404 1499.53 71.7658 Q1495.97 73.7508 1491.23 73.7508 Q1483.41 73.7508 1479.36 68.8897 Q1475.31 64.0286 1475.31 54.671 M1494.07 26.1121 L1494.07 26.1121 Z" fill="#000000" fill-rule="evenodd" fill-opacity="1" /><path clip-path="url(#clip350)" d="M1557.58 28.5427 L1557.58 35.5912 Q1554.42 33.9709 1551.02 33.1607 Q1547.62 32.3505 1543.97 32.3505 Q1538.42 32.3505 1535.63 34.0519 Q1532.87 35.7533 1532.87 39.156 Q1532.87 41.7486 1534.86 43.2475 Q1536.84 44.7058 1542.84 46.0426 L1545.39 46.6097 Q1553.33 48.3111 1556.65 51.4303 Q1560.01 54.509 1560.01 60.0587 Q1560.01 66.3781 1554.99 70.0644 Q1550.01 73.7508 1541.26 73.7508 Q1537.61 73.7508 1533.64 73.0216 Q1529.71 72.3329 1525.34 70.9151 L1525.34 63.2184 Q1529.47 65.3654 1533.48 66.4591 Q1537.49 67.5124 1541.42 67.5124 Q1546.69 67.5124 1549.52 65.73 Q1552.36 63.9071 1552.36 60.6258 Q1552.36 57.5877 1550.29 55.9673 Q1548.27 54.3469 1541.34 52.8481 L1538.75 52.2405 Q1531.82 50.7821 1528.74 47.7845 Q1525.66 44.7463 1525.66 39.4801 Q1525.66 33.0797 1530.2 29.5959 Q1534.74 26.1121 1543.08 26.1121 Q1547.21 26.1121 1550.86 26.7198 Q1554.5 27.3274 1557.58 28.5427 Z" fill="#000000" fill-rule="evenodd" fill-opacity="1" /><path clip-path="url(#clip350)" d="M1598.25 9.54393 L1605.71 9.54393 L1605.71 72.576 L1598.25 72.576 L1598.25 9.54393 Z" fill="#000000" fill-rule="evenodd" fill-opacity="1" /><path clip-path="url(#clip350)" d="M1638.89 32.4315 Q1632.89 32.4315 1629.41 37.1306 Q1625.92 41.7891 1625.92 49.9314 Q1625.92 58.0738 1629.37 62.7728 Q1632.85 67.4314 1638.89 67.4314 Q1644.84 67.4314 1648.32 62.7323 Q1651.81 58.0333 1651.81 49.9314 Q1651.81 41.8701 1648.32 37.1711 Q1644.84 32.4315 1638.89 32.4315 M1638.89 26.1121 Q1648.61 26.1121 1654.16 32.4315 Q1659.71 38.7509 1659.71 49.9314 Q1659.71 61.0714 1654.16 67.4314 Q1648.61 73.7508 1638.89 73.7508 Q1629.12 73.7508 1623.57 67.4314 Q1618.06 61.0714 1618.06 49.9314 Q1618.06 38.7509 1623.57 32.4315 Q1629.12 26.1121 1638.89 26.1121 Z" fill="#000000" fill-rule="evenodd" fill-opacity="1" /><path clip-path="url(#clip350)" d="M1700.99 28.5427 L1700.99 35.5912 Q1697.83 33.9709 1694.42 33.1607 Q1691.02 32.3505 1687.37 32.3505 Q1681.82 32.3505 1679.03 34.0519 Q1676.27 35.7533 1676.27 39.156 Q1676.27 41.7486 1678.26 43.2475 Q1680.24 44.7058 1686.24 46.0426 L1688.79 46.6097 Q1696.73 48.3111 1700.05 51.4303 Q1703.42 54.509 1703.42 60.0587 Q1703.42 66.3781 1698.39 70.0644 Q1693.41 73.7508 1684.66 73.7508 Q1681.01 73.7508 1677.04 73.0216 Q1673.12 72.3329 1668.74 70.9151 L1668.74 63.2184 Q1672.87 65.3654 1676.88 66.4591 Q1680.89 67.5124 1684.82 67.5124 Q1690.09 67.5124 1692.92 65.73 Q1695.76 63.9071 1695.76 60.6258 Q1695.76 57.5877 1693.69 55.9673 Q1691.67 54.3469 1684.74 52.8481 L1682.15 52.2405 Q1675.22 50.7821 1672.14 47.7845 Q1669.06 44.7463 1669.06 39.4801 Q1669.06 33.0797 1673.6 29.5959 Q1678.14 26.1121 1686.48 26.1121 Q1690.62 26.1121 1694.26 26.7198 Q1697.91 27.3274 1700.99 28.5427 Z" fill="#000000" fill-rule="evenodd" fill-opacity="1" /><path clip-path="url(#clip350)" d="M1744.21 28.5427 L1744.21 35.5912 Q1741.05 33.9709 1737.65 33.1607 Q1734.24 32.3505 1730.6 32.3505 Q1725.05 32.3505 1722.25 34.0519 Q1719.5 35.7533 1719.5 39.156 Q1719.5 41.7486 1721.48 43.2475 Q1723.47 44.7058 1729.46 46.0426 L1732.02 46.6097 Q1739.96 48.3111 1743.28 51.4303 Q1746.64 54.509 1746.64 60.0587 Q1746.64 66.3781 1741.62 70.0644 Q1736.63 73.7508 1727.88 73.7508 Q1724.24 73.7508 1720.27 73.0216 Q1716.34 72.3329 1711.96 70.9151 L1711.96 63.2184 Q1716.1 65.3654 1720.11 66.4591 Q1724.12 67.5124 1728.05 67.5124 Q1733.31 67.5124 1736.15 65.73 Q1738.98 63.9071 1738.98 60.6258 Q1738.98 57.5877 1736.92 55.9673 Q1734.89 54.3469 1727.96 52.8481 L1725.37 52.2405 Q1718.44 50.7821 1715.37 47.7845 Q1712.29 44.7463 1712.29 39.4801 Q1712.29 33.0797 1716.82 29.5959 Q1721.36 26.1121 1729.71 26.1121 Q1733.84 26.1121 1737.48 26.7198 Q1741.13 27.3274 1744.21 28.5427 Z" fill="#000000" fill-rule="evenodd" fill-opacity="1" /><polyline clip-path="url(#clip352)" style="stroke:#e31a1c; stroke-linecap:butt; stroke-linejoin:round; stroke-width:4; stroke-opacity:1; fill:none" points="
  218.281,1447.87 239.214,1447.87 260.146,1447.87 281.078,1447.85 302.011,1447.81 322.943,1447.67 343.876,1447.33 364.808,1446.56 385.74,1445.03 406.673,1442.21 
  427.605,1437.23 448.537,1428.55 469.47,1413.26 490.402,1386.54 511.335,1341.74 532.267,1271.9 553.199,1172.59 574.132,1045.39 595.064,908.694 615.996,772.38 
  636.929,641.404 657.861,527.823 678.794,443.284 699.726,494.534 720.658,583.792 741.591,731.477 762.523,920.709 783.456,1124.46 804.388,1311.18 825.32,1439.35 
  846.253,1447.87 867.185,1447.87 888.117,1447.87 909.05,1447.87 929.982,1447.87 950.915,1447.87 971.847,1447.87 992.779,1447.87 1013.71,1447.87 1034.64,1438.78 
  1055.58,1414.81 1076.51,1384.46 1097.44,1341.81 1118.37,1284.28 1139.31,1212.35 1160.24,1174.86 1181.17,1163.6 1202.1,1177.96 1223.04,1214.12 1243.97,1260.26 
  1264.9,1288.23 1285.83,1326.42 1306.76,1345.44 1327.7,1344.27 1348.63,1330.26 1369.56,1313.33 1390.49,1301.96 1411.43,1299.88 1432.36,1306.39 1453.29,1318.15 
  1474.22,1330.32 1495.16,1336.88 1516.09,1331.16 1537.02,1306.65 1557.95,1256.14 1578.89,1192.71 1599.82,1108.63 1620.75,1006.5 1641.68,891.065 1662.62,770.822 
  1683.55,659.684 1704.48,606.91 1725.41,587.082 1746.34,622.666 1767.28,762.486 1788.21,896.719 1809.14,1047.84 1830.07,1192.69 1851.01,1313.15 1871.94,1399.31 
  1892.87,1447.85 1913.8,1447.87 1934.74,1447.87 1955.67,1447.87 1976.6,1447.87 1997.53,1447.87 2018.47,1447.87 2039.4,1447.87 2060.33,1447.87 2081.26,1447.87 
  2102.2,1447.87 2123.13,1447.87 2144.06,1447.87 2164.99,1447.87 2185.92,1447.87 2206.86,1447.87 2227.79,1447.87 2248.72,1447.87 2269.65,1447.87 2290.59,1447.87 
  
  "/>
<polyline clip-path="url(#clip352)" style="stroke:#377db8; stroke-linecap:butt; stroke-linejoin:round; stroke-width:4; stroke-opacity:1; fill:none" points="
  218.281,1447.87 239.214,1447.87 260.146,1447.87 281.078,1447.87 302.011,1447.87 322.943,1447.87 343.876,1447.87 364.808,1447.87 385.74,1447.87 406.673,1447.87 
  427.605,1447.87 448.537,1447.87 469.47,1447.87 490.402,1447.87 511.335,1447.87 532.267,1447.87 553.199,1447.87 574.132,1447.87 595.064,1447.87 615.996,1447.87 
  636.929,1447.87 657.861,1447.87 678.794,1447.86 699.726,1233.37 720.658,1046.44 741.591,850.929 762.523,674.756 783.456,545.296 804.388,482.353 825.32,500.436 
  846.253,596.389 867.185,725.086 888.117,861.923 909.05,989.135 929.982,1096.85 950.915,1182.21 971.847,1246.49 992.779,1291.67 1013.71,1318.46 1034.64,1328.95 
  1055.58,1324.52 1076.51,1303.13 1097.44,1269.06 1118.37,1226.66 1139.31,1179.84 1160.24,1159 1181.17,1159.59 1202.1,1182.89 1223.04,1229.63 1243.97,1295.47 
  1264.9,1424.45 1285.83,1447.87 1306.76,1447.87 1327.7,1447.87 1348.63,1447.87 1369.56,1447.87 1390.49,1447.87 1411.43,1447.87 1432.36,1447.87 1453.29,1447.87 
  1474.22,1447.87 1495.16,1447.87 1516.09,1447.87 1537.02,1447.87 1557.95,1447.87 1578.89,1447.87 1599.82,1447.87 1620.75,1447.87 1641.68,1447.87 1662.62,1447.87 
  1683.55,1446.54 1704.48,1372.31 1725.41,1319.13 1746.34,1259.87 1767.28,1231.63 1788.21,1185.77 1809.14,1155.69 1830.07,1145.33 1851.01,1154.86 1871.94,1181.5 
  1892.87,1220.89 1913.8,1269.98 1934.74,1316.87 1955.67,1357.89 1976.6,1390.63 1997.53,1414.35 2018.47,1429.89 2039.4,1439.22 2060.33,1446.68 2081.26,1447.87 
  2102.2,1447.87 2123.13,1447.87 2144.06,1447.87 2164.99,1447.87 2185.92,1447.87 2206.86,1447.87 2227.79,1447.87 2248.72,1447.87 2269.65,1447.87 2290.59,1447.87 
  
  "/>
<polyline clip-path="url(#clip352)" style="stroke:#4dae49; stroke-linecap:butt; stroke-linejoin:round; stroke-width:4; stroke-opacity:1; fill:none" points="
  218.281,1447.87 239.214,1447.87 260.146,1447.85 281.078,1447.81 302.011,1447.68 322.943,1447.34 343.876,1446.55 364.808,1444.89 385.74,1441.78 406.673,1436.54 
  427.605,1428.66 448.537,1418.25 469.47,1406.58 490.402,1396.33 511.335,1391.3 532.267,1395.3 553.199,1410.54 574.132,1435.54 595.064,1447.87 615.996,1447.87 
  636.929,1447.87 657.861,1447.87 678.794,1447.87 699.726,1447.87 720.658,1447.87 741.591,1447.87 762.523,1447.87 783.456,1447.87 804.388,1447.84 825.32,1439.15 
  846.253,1445.68 867.185,1447.75 888.117,1447.87 909.05,1447.87 929.982,1447.87 950.915,1447.87 971.847,1447.87 992.779,1447.87 1013.71,1447.87 1034.64,1447.87 
  1055.58,1447.87 1076.51,1447.87 1097.44,1447.87 1118.37,1447.87 1139.31,1447.86 1160.24,1344.59 1181.17,1170.64 1202.1,941.642 1223.04,681.533 1243.97,432.961 
  1264.9,226.998 1285.83,162.047 1306.76,220.096 1327.7,375.134 1348.63,588.684 1369.56,815.754 1390.49,1019.51 1411.43,1179.41 1432.36,1290.84 1453.29,1359.91 
  1474.22,1397.68 1495.16,1415.96 1516.09,1424.84 1537.02,1432.11 1557.95,1447.87 1578.89,1447.87 1599.82,1447.87 1620.75,1447.87 1641.68,1447.87 1662.62,1447.87 
  1683.55,1447.87 1704.48,1447.87 1725.41,1447.87 1746.34,1447.73 1767.28,1330.46 1788.21,1308.55 1809.14,1281.57 1830.07,1252.54 1851.01,1227.61 1871.94,1213.48 
  1892.87,1214.92 1913.8,1238.92 1934.74,1267.36 1955.67,1298.79 1976.6,1331.07 1997.53,1361.84 2018.47,1388.89 2039.4,1410.49 2060.33,1424.97 2081.26,1435.85 
  2102.2,1442.26 2123.13,1445.51 2144.06,1446.98 2164.99,1447.57 2185.92,1447.78 2206.86,1447.85 2227.79,1447.87 2248.72,1447.87 2269.65,1447.87 2290.59,1447.87 
  
  "/>
<path clip-path="url(#clip350)" d="
M1986.53 376.265 L2279.53 376.265 L2279.53 168.905 L1986.53 168.905  Z
  " fill="#ffffff" fill-rule="evenodd" fill-opacity="1"/>
<polyline clip-path="url(#clip350)" style="stroke:#000000; stroke-linecap:butt; stroke-linejoin:round; stroke-width:4; stroke-opacity:1; fill:none" points="
  1986.53,376.265 2279.53,376.265 2279.53,168.905 1986.53,168.905 1986.53,376.265 
  "/>
<polyline clip-path="url(#clip350)" style="stroke:#e31a1c; stroke-linecap:butt; stroke-linejoin:round; stroke-width:4; stroke-opacity:1; fill:none" points="
  2010.53,220.745 2154.53,220.745 
  "/>
<path clip-path="url(#clip350)" d="M2192.37 240.432 Q2190.56 245.062 2188.85 246.474 Q2187.14 247.886 2184.27 247.886 L2180.86 247.886 L2180.86 244.321 L2183.36 244.321 Q2185.12 244.321 2186.09 243.488 Q2187.07 242.654 2188.25 239.552 L2189.01 237.608 L2178.53 212.099 L2183.04 212.099 L2191.14 232.377 L2199.24 212.099 L2203.76 212.099 L2192.37 240.432 Z" fill="#000000" fill-rule="evenodd" fill-opacity="1" /><path clip-path="url(#clip350)" d="M2211.05 234.089 L2218.69 234.089 L2218.69 207.724 L2210.38 209.391 L2210.38 205.131 L2218.64 203.465 L2223.32 203.465 L2223.32 234.089 L2230.96 234.089 L2230.96 238.025 L2211.05 238.025 L2211.05 234.089 Z" fill="#000000" fill-rule="evenodd" fill-opacity="1" /><polyline clip-path="url(#clip350)" style="stroke:#377db8; stroke-linecap:butt; stroke-linejoin:round; stroke-width:4; stroke-opacity:1; fill:none" points="
  2010.53,272.585 2154.53,272.585 
  "/>
<path clip-path="url(#clip350)" d="M2192.37 292.272 Q2190.56 296.902 2188.85 298.314 Q2187.14 299.726 2184.27 299.726 L2180.86 299.726 L2180.86 296.161 L2183.36 296.161 Q2185.12 296.161 2186.09 295.328 Q2187.07 294.494 2188.25 291.392 L2189.01 289.448 L2178.53 263.939 L2183.04 263.939 L2191.14 284.217 L2199.24 263.939 L2203.76 263.939 L2192.37 292.272 Z" fill="#000000" fill-rule="evenodd" fill-opacity="1" /><path clip-path="url(#clip350)" d="M2214.27 285.929 L2230.59 285.929 L2230.59 289.865 L2208.64 289.865 L2208.64 285.929 Q2211.3 283.175 2215.89 278.545 Q2220.49 273.893 2221.67 272.55 Q2223.92 270.027 2224.8 268.291 Q2225.7 266.531 2225.7 264.842 Q2225.7 262.087 2223.76 260.351 Q2221.84 258.615 2218.73 258.615 Q2216.53 258.615 2214.08 259.379 Q2211.65 260.143 2208.87 261.694 L2208.87 256.971 Q2211.7 255.837 2214.15 255.258 Q2216.6 254.68 2218.64 254.68 Q2224.01 254.68 2227.21 257.365 Q2230.4 260.05 2230.4 264.541 Q2230.4 266.67 2229.59 268.592 Q2228.8 270.49 2226.7 273.082 Q2226.12 273.754 2223.02 276.971 Q2219.91 280.166 2214.27 285.929 Z" fill="#000000" fill-rule="evenodd" fill-opacity="1" /><polyline clip-path="url(#clip350)" style="stroke:#4dae49; stroke-linecap:butt; stroke-linejoin:round; stroke-width:4; stroke-opacity:1; fill:none" points="
  2010.53,324.425 2154.53,324.425 
  "/>
<path clip-path="url(#clip350)" d="M2192.37 344.112 Q2190.56 348.742 2188.85 350.154 Q2187.14 351.566 2184.27 351.566 L2180.86 351.566 L2180.86 348.001 L2183.36 348.001 Q2185.12 348.001 2186.09 347.168 Q2187.07 346.334 2188.25 343.232 L2189.01 341.288 L2178.53 315.779 L2183.04 315.779 L2191.14 336.057 L2199.24 315.779 L2203.76 315.779 L2192.37 344.112 Z" fill="#000000" fill-rule="evenodd" fill-opacity="1" /><path clip-path="url(#clip350)" d="M2224.4 323.07 Q2227.76 323.788 2229.64 326.057 Q2231.53 328.325 2231.53 331.658 Q2231.53 336.774 2228.02 339.575 Q2224.5 342.376 2218.02 342.376 Q2215.84 342.376 2213.53 341.936 Q2211.23 341.519 2208.78 340.663 L2208.78 336.149 Q2210.72 337.283 2213.04 337.862 Q2215.35 338.441 2217.88 338.441 Q2222.28 338.441 2224.57 336.705 Q2226.88 334.969 2226.88 331.658 Q2226.88 328.603 2224.73 326.89 Q2222.6 325.154 2218.78 325.154 L2214.75 325.154 L2214.75 321.311 L2218.97 321.311 Q2222.41 321.311 2224.24 319.946 Q2226.07 318.557 2226.07 315.964 Q2226.07 313.302 2224.17 311.89 Q2222.3 310.455 2218.78 310.455 Q2216.86 310.455 2214.66 310.871 Q2212.46 311.288 2209.82 312.168 L2209.82 308.001 Q2212.48 307.26 2214.8 306.89 Q2217.14 306.52 2219.2 306.52 Q2224.52 306.52 2227.62 308.95 Q2230.72 311.358 2230.72 315.478 Q2230.72 318.348 2229.08 320.339 Q2227.44 322.307 2224.4 323.07 Z" fill="#000000" fill-rule="evenodd" fill-opacity="1" /></svg>
