<?xml version="1.0" encoding="utf-8"?>
<svg xmlns="http://www.w3.org/2000/svg" xmlns:xlink="http://www.w3.org/1999/xlink" width="600" height="400" viewBox="0 0 2400 1600">
<defs>
  <clipPath id="clip080">
    <rect x="0" y="0" width="2400" height="1600"/>
  </clipPath>
</defs>
<path clip-path="url(#clip080)" d="
M0 1600 L2400 1600 L2400 0 L0 0  Z
  " fill="#ffffff" fill-rule="evenodd" fill-opacity="1"/>
<defs>
  <clipPath id="clip081">
    <rect x="480" y="0" width="1681" height="1600"/>
  </clipPath>
</defs>
<path clip-path="url(#clip080)" d="
M147.478 1486.45 L2352.76 1486.45 L2352.76 123.472 L147.478 123.472  Z
  " fill="#ffffff" fill-rule="evenodd" fill-opacity="1"/>
<defs>
  <clipPath id="clip082">
    <rect x="147" y="123" width="2206" height="1364"/>
  </clipPath>
</defs>
<polyline clip-path="url(#clip082)" style="stroke:#000000; stroke-linecap:butt; stroke-linejoin:round; stroke-width:2; stroke-opacity:0.1; fill:none" points="
  166.423,1486.45 166.423,123.472 
  "/>
<polyline clip-path="url(#clip082)" style="stroke:#000000; stroke-linecap:butt; stroke-linejoin:round; stroke-width:2; stroke-opacity:0.1; fill:none" points="
  513.603,1486.45 513.603,123.472 
  "/>
<polyline clip-path="url(#clip082)" style="stroke:#000000; stroke-linecap:butt; stroke-linejoin:round; stroke-width:2; stroke-opacity:0.1; fill:none" points="
  860.783,1486.45 860.783,123.472 
  "/>
<polyline clip-path="url(#clip082)" style="stroke:#000000; stroke-linecap:butt; stroke-linejoin:round; stroke-width:2; stroke-opacity:0.1; fill:none" points="
  1207.96,1486.45 1207.96,123.472 
  "/>
<polyline clip-path="url(#clip082)" style="stroke:#000000; stroke-linecap:butt; stroke-linejoin:round; stroke-width:2; stroke-opacity:0.1; fill:none" points="
  1555.14,1486.45 1555.14,123.472 
  "/>
<polyline clip-path="url(#clip082)" style="stroke:#000000; stroke-linecap:butt; stroke-linejoin:round; stroke-width:2; stroke-opacity:0.1; fill:none" points="
  1902.32,1486.45 1902.32,123.472 
  "/>
<polyline clip-path="url(#clip082)" style="stroke:#000000; stroke-linecap:butt; stroke-linejoin:round; stroke-width:2; stroke-opacity:0.1; fill:none" points="
  2249.5,1486.45 2249.5,123.472 
  "/>
<polyline clip-path="url(#clip080)" style="stroke:#000000; stroke-linecap:butt; stroke-linejoin:round; stroke-width:4; stroke-opacity:1; fill:none" points="
  147.478,1486.45 2352.76,1486.45 
  "/>
<polyline clip-path="url(#clip080)" style="stroke:#000000; stroke-linecap:butt; stroke-linejoin:round; stroke-width:4; stroke-opacity:1; fill:none" points="
  166.423,1486.45 166.423,1467.55 
  "/>
<polyline clip-path="url(#clip080)" style="stroke:#000000; stroke-linecap:butt; stroke-linejoin:round; stroke-width:4; stroke-opacity:1; fill:none" points="
  513.603,1486.45 513.603,1467.55 
  "/>
<polyline clip-path="url(#clip080)" style="stroke:#000000; stroke-linecap:butt; stroke-linejoin:round; stroke-width:4; stroke-opacity:1; fill:none" points="
  860.783,1486.45 860.783,1467.55 
  "/>
<polyline clip-path="url(#clip080)" style="stroke:#000000; stroke-linecap:butt; stroke-linejoin:round; stroke-width:4; stroke-opacity:1; fill:none" points="
  1207.96,1486.45 1207.96,1467.55 
  "/>
<polyline clip-path="url(#clip080)" style="stroke:#000000; stroke-linecap:butt; stroke-linejoin:round; stroke-width:4; stroke-opacity:1; fill:none" points="
  1555.14,1486.45 1555.14,1467.55 
  "/>
<polyline clip-path="url(#clip080)" style="stroke:#000000; stroke-linecap:butt; stroke-linejoin:round; stroke-width:4; stroke-opacity:1; fill:none" points="
  1902.32,1486.45 1902.32,1467.55 
  "/>
<polyline clip-path="url(#clip080)" style="stroke:#000000; stroke-linecap:butt; stroke-linejoin:round; stroke-width:4; stroke-opacity:1; fill:none" points="
  2249.5,1486.45 2249.5,1467.55 
  "/>
<path clip-path="url(#clip080)" d="M135.89 1532.02 L165.566 1532.02 L165.566 1535.95 L135.89 1535.95 L135.89 1532.02 Z" fill="#000000" fill-rule="evenodd" fill-opacity="1" /><path clip-path="url(#clip080)" d="M189.825 1530.21 Q193.182 1530.93 195.057 1533.2 Q196.955 1535.47 196.955 1538.8 Q196.955 1543.92 193.436 1546.72 Q189.918 1549.52 183.436 1549.52 Q181.26 1549.52 178.946 1549.08 Q176.654 1548.66 174.2 1547.81 L174.2 1543.29 Q176.145 1544.43 178.459 1545.01 Q180.774 1545.58 183.297 1545.58 Q187.696 1545.58 189.987 1543.85 Q192.302 1542.11 192.302 1538.8 Q192.302 1535.75 190.149 1534.03 Q188.02 1532.3 184.2 1532.3 L180.172 1532.3 L180.172 1528.45 L184.385 1528.45 Q187.834 1528.45 189.663 1527.09 Q191.492 1525.7 191.492 1523.11 Q191.492 1520.45 189.594 1519.03 Q187.719 1517.6 184.2 1517.6 Q182.279 1517.6 180.08 1518.01 Q177.881 1518.43 175.242 1519.31 L175.242 1515.14 Q177.904 1514.4 180.219 1514.03 Q182.557 1513.66 184.617 1513.66 Q189.941 1513.66 193.043 1516.09 Q196.145 1518.5 196.145 1522.62 Q196.145 1525.49 194.501 1527.48 Q192.858 1529.45 189.825 1530.21 Z" fill="#000000" fill-rule="evenodd" fill-opacity="1" /><path clip-path="url(#clip080)" d="M483.545 1532.02 L513.221 1532.02 L513.221 1535.95 L483.545 1535.95 L483.545 1532.02 Z" fill="#000000" fill-rule="evenodd" fill-opacity="1" /><path clip-path="url(#clip080)" d="M527.341 1544.91 L543.66 1544.91 L543.66 1548.85 L521.716 1548.85 L521.716 1544.91 Q524.378 1542.16 528.961 1537.53 Q533.568 1532.88 534.748 1531.53 Q536.994 1529.01 537.873 1527.27 Q538.776 1525.51 538.776 1523.82 Q538.776 1521.07 536.832 1519.33 Q534.91 1517.6 531.809 1517.6 Q529.61 1517.6 527.156 1518.36 Q524.725 1519.13 521.948 1520.68 L521.948 1515.95 Q524.772 1514.82 527.225 1514.24 Q529.679 1513.66 531.716 1513.66 Q537.086 1513.66 540.281 1516.35 Q543.475 1519.03 543.475 1523.52 Q543.475 1525.65 542.665 1527.57 Q541.878 1529.47 539.772 1532.07 Q539.193 1532.74 536.091 1535.95 Q532.989 1539.15 527.341 1544.91 Z" fill="#000000" fill-rule="evenodd" fill-opacity="1" /><path clip-path="url(#clip080)" d="M830.54 1532.02 L860.216 1532.02 L860.216 1535.95 L830.54 1535.95 L830.54 1532.02 Z" fill="#000000" fill-rule="evenodd" fill-opacity="1" /><path clip-path="url(#clip080)" d="M871.119 1544.91 L878.757 1544.91 L878.757 1518.55 L870.447 1520.21 L870.447 1515.95 L878.711 1514.29 L883.387 1514.29 L883.387 1544.91 L891.026 1544.91 L891.026 1548.85 L871.119 1548.85 L871.119 1544.91 Z" fill="#000000" fill-rule="evenodd" fill-opacity="1" /><path clip-path="url(#clip080)" d="M1207.96 1517.37 Q1204.35 1517.37 1202.52 1520.93 Q1200.72 1524.47 1200.72 1531.6 Q1200.72 1538.71 1202.52 1542.27 Q1204.35 1545.82 1207.96 1545.82 Q1211.6 1545.82 1213.4 1542.27 Q1215.23 1538.71 1215.23 1531.6 Q1215.23 1524.47 1213.4 1520.93 Q1211.6 1517.37 1207.96 1517.37 M1207.96 1513.66 Q1213.77 1513.66 1216.83 1518.27 Q1219.91 1522.85 1219.91 1531.6 Q1219.91 1540.33 1216.83 1544.94 Q1213.77 1549.52 1207.96 1549.52 Q1202.15 1549.52 1199.07 1544.94 Q1196.02 1540.33 1196.02 1531.6 Q1196.02 1522.85 1199.07 1518.27 Q1202.15 1513.66 1207.96 1513.66 Z" fill="#000000" fill-rule="evenodd" fill-opacity="1" /><path clip-path="url(#clip080)" d="M1545.53 1544.91 L1553.16 1544.91 L1553.16 1518.55 L1544.85 1520.21 L1544.85 1515.95 L1553.12 1514.29 L1557.79 1514.29 L1557.79 1544.91 L1565.43 1544.91 L1565.43 1548.85 L1545.53 1548.85 L1545.53 1544.91 Z" fill="#000000" fill-rule="evenodd" fill-opacity="1" /><path clip-path="url(#clip080)" d="M1896.98 1544.91 L1913.3 1544.91 L1913.3 1548.85 L1891.35 1548.85 L1891.35 1544.91 Q1894.01 1542.16 1898.6 1537.53 Q1903.2 1532.88 1904.38 1531.53 Q1906.63 1529.01 1907.51 1527.27 Q1908.41 1525.51 1908.41 1523.82 Q1908.41 1521.07 1906.47 1519.33 Q1904.55 1517.6 1901.44 1517.6 Q1899.24 1517.6 1896.79 1518.36 Q1894.36 1519.13 1891.58 1520.68 L1891.58 1515.95 Q1894.41 1514.82 1896.86 1514.24 Q1899.31 1513.66 1901.35 1513.66 Q1906.72 1513.66 1909.92 1516.35 Q1913.11 1519.03 1913.11 1523.52 Q1913.11 1525.65 1912.3 1527.57 Q1911.51 1529.47 1909.41 1532.07 Q1908.83 1532.74 1905.73 1535.95 Q1902.62 1539.15 1896.98 1544.91 Z" fill="#000000" fill-rule="evenodd" fill-opacity="1" /><path clip-path="url(#clip080)" d="M2253.75 1530.21 Q2257.11 1530.93 2258.98 1533.2 Q2260.88 1535.47 2260.88 1538.8 Q2260.88 1543.92 2257.36 1546.72 Q2253.84 1549.52 2247.36 1549.52 Q2245.19 1549.52 2242.87 1549.08 Q2240.58 1548.66 2238.13 1547.81 L2238.13 1543.29 Q2240.07 1544.43 2242.39 1545.01 Q2244.7 1545.58 2247.22 1545.58 Q2251.62 1545.58 2253.91 1543.85 Q2256.23 1542.11 2256.23 1538.8 Q2256.23 1535.75 2254.08 1534.03 Q2251.95 1532.3 2248.13 1532.3 L2244.1 1532.3 L2244.1 1528.45 L2248.31 1528.45 Q2251.76 1528.45 2253.59 1527.09 Q2255.42 1525.7 2255.42 1523.11 Q2255.42 1520.45 2253.52 1519.03 Q2251.65 1517.6 2248.13 1517.6 Q2246.21 1517.6 2244.01 1518.01 Q2241.81 1518.43 2239.17 1519.31 L2239.17 1515.14 Q2241.83 1514.4 2244.15 1514.03 Q2246.48 1513.66 2248.54 1513.66 Q2253.87 1513.66 2256.97 1516.09 Q2260.07 1518.5 2260.07 1522.62 Q2260.07 1525.49 2258.43 1527.48 Q2256.78 1529.45 2253.75 1530.21 Z" fill="#000000" fill-rule="evenodd" fill-opacity="1" /><polyline clip-path="url(#clip082)" style="stroke:#000000; stroke-linecap:butt; stroke-linejoin:round; stroke-width:2; stroke-opacity:0.1; fill:none" points="
  147.478,1364.7 2352.76,1364.7 
  "/>
<polyline clip-path="url(#clip082)" style="stroke:#000000; stroke-linecap:butt; stroke-linejoin:round; stroke-width:2; stroke-opacity:0.1; fill:none" points="
  147.478,1115.22 2352.76,1115.22 
  "/>
<polyline clip-path="url(#clip082)" style="stroke:#000000; stroke-linecap:butt; stroke-linejoin:round; stroke-width:2; stroke-opacity:0.1; fill:none" points="
  147.478,865.734 2352.76,865.734 
  "/>
<polyline clip-path="url(#clip082)" style="stroke:#000000; stroke-linecap:butt; stroke-linejoin:round; stroke-width:2; stroke-opacity:0.1; fill:none" points="
  147.478,616.249 2352.76,616.249 
  "/>
<polyline clip-path="url(#clip082)" style="stroke:#000000; stroke-linecap:butt; stroke-linejoin:round; stroke-width:2; stroke-opacity:0.1; fill:none" points="
  147.478,366.765 2352.76,366.765 
  "/>
<polyline clip-path="url(#clip080)" style="stroke:#000000; stroke-linecap:butt; stroke-linejoin:round; stroke-width:4; stroke-opacity:1; fill:none" points="
  147.478,1486.45 147.478,123.472 
  "/>
<polyline clip-path="url(#clip080)" style="stroke:#000000; stroke-linecap:butt; stroke-linejoin:round; stroke-width:4; stroke-opacity:1; fill:none" points="
  147.478,1364.7 166.376,1364.7 
  "/>
<polyline clip-path="url(#clip080)" style="stroke:#000000; stroke-linecap:butt; stroke-linejoin:round; stroke-width:4; stroke-opacity:1; fill:none" points="
  147.478,1115.22 166.376,1115.22 
  "/>
<polyline clip-path="url(#clip080)" style="stroke:#000000; stroke-linecap:butt; stroke-linejoin:round; stroke-width:4; stroke-opacity:1; fill:none" points="
  147.478,865.734 166.376,865.734 
  "/>
<polyline clip-path="url(#clip080)" style="stroke:#000000; stroke-linecap:butt; stroke-linejoin:round; stroke-width:4; stroke-opacity:1; fill:none" points="
  147.478,616.249 166.376,616.249 
  "/>
<polyline clip-path="url(#clip080)" style="stroke:#000000; stroke-linecap:butt; stroke-linejoin:round; stroke-width:4; stroke-opacity:1; fill:none" points="
  147.478,366.765 166.376,366.765 
  "/>
<path clip-path="url(#clip080)" d="M51.3625 1365.15 L81.0383 1365.15 L81.0383 1369.09 L51.3625 1369.09 L51.3625 1365.15 Z" fill="#000000" fill-rule="evenodd" fill-opacity="1" /><path clip-path="url(#clip080)" d="M95.1586 1378.05 L111.478 1378.05 L111.478 1381.98 L89.5336 1381.98 L89.5336 1378.05 Q92.1956 1375.29 96.7789 1370.66 Q101.385 1366.01 102.566 1364.67 Q104.811 1362.15 105.691 1360.41 Q106.594 1358.65 106.594 1356.96 Q106.594 1354.21 104.649 1352.47 Q102.728 1350.73 99.6261 1350.73 Q97.4271 1350.73 94.9734 1351.5 Q92.5428 1352.26 89.7651 1353.81 L89.7651 1349.09 Q92.5891 1347.96 95.0428 1347.38 Q97.4965 1346.8 99.5335 1346.8 Q104.904 1346.8 108.098 1349.48 Q111.293 1352.17 111.293 1356.66 Q111.293 1358.79 110.483 1360.71 Q109.696 1362.61 107.589 1365.2 Q107.01 1365.87 103.909 1369.09 Q100.807 1372.28 95.1586 1378.05 Z" fill="#000000" fill-rule="evenodd" fill-opacity="1" /><path clip-path="url(#clip080)" d="M50.9921 1115.67 L80.6679 1115.67 L80.6679 1119.6 L50.9921 1119.6 L50.9921 1115.67 Z" fill="#000000" fill-rule="evenodd" fill-opacity="1" /><path clip-path="url(#clip080)" d="M91.5706 1128.56 L99.2095 1128.56 L99.2095 1102.2 L90.8993 1103.86 L90.8993 1099.61 L99.1632 1097.94 L103.839 1097.94 L103.839 1128.56 L111.478 1128.56 L111.478 1132.5 L91.5706 1132.5 L91.5706 1128.56 Z" fill="#000000" fill-rule="evenodd" fill-opacity="1" /><path clip-path="url(#clip080)" d="M99.5335 851.533 Q95.9224 851.533 94.0937 855.097 Q92.2882 858.639 92.2882 865.769 Q92.2882 872.875 94.0937 876.44 Q95.9224 879.981 99.5335 879.981 Q103.168 879.981 104.973 876.44 Q106.802 872.875 106.802 865.769 Q106.802 858.639 104.973 855.097 Q103.168 851.533 99.5335 851.533 M99.5335 847.829 Q105.344 847.829 108.399 852.435 Q111.478 857.019 111.478 865.769 Q111.478 874.495 108.399 879.102 Q105.344 883.685 99.5335 883.685 Q93.7234 883.685 90.6447 879.102 Q87.5892 874.495 87.5892 865.769 Q87.5892 857.019 90.6447 852.435 Q93.7234 847.829 99.5335 847.829 Z" fill="#000000" fill-rule="evenodd" fill-opacity="1" /><path clip-path="url(#clip080)" d="M91.5706 629.594 L99.2095 629.594 L99.2095 603.229 L90.8993 604.895 L90.8993 600.636 L99.1632 598.969 L103.839 598.969 L103.839 629.594 L111.478 629.594 L111.478 633.529 L91.5706 633.529 L91.5706 629.594 Z" fill="#000000" fill-rule="evenodd" fill-opacity="1" /><path clip-path="url(#clip080)" d="M95.1586 380.11 L111.478 380.11 L111.478 384.045 L89.5336 384.045 L89.5336 380.11 Q92.1956 377.355 96.7789 372.725 Q101.385 368.073 102.566 366.73 Q104.811 364.207 105.691 362.471 Q106.594 360.712 106.594 359.022 Q106.594 356.267 104.649 354.531 Q102.728 352.795 99.6261 352.795 Q97.4271 352.795 94.9734 353.559 Q92.5428 354.323 89.7651 355.874 L89.7651 351.151 Q92.5891 350.017 95.0428 349.439 Q97.4965 348.86 99.5335 348.86 Q104.904 348.86 108.098 351.545 Q111.293 354.23 111.293 358.721 Q111.293 360.851 110.483 362.772 Q109.696 364.67 107.589 367.263 Q107.01 367.934 103.909 371.151 Q100.807 374.346 95.1586 380.11 Z" fill="#000000" fill-rule="evenodd" fill-opacity="1" /><path clip-path="url(#clip080)" d="M1270.57 54.8446 Q1269.5 60.1322 1268.07 63.1654 Q1265.77 67.7972 1261.84 67.7972 Q1259.05 67.7972 1256.92 66.1166 Q1254.83 64.4361 1254.29 61.6488 Q1253.23 62.9195 1252.45 63.6573 Q1251.71 64.3951 1250.24 65.5428 Q1248.8 66.6495 1247 67.2233 Q1245.19 67.7972 1243.15 67.7972 Q1238.14 67.7972 1234.99 65.1739 Q1230.73 82.3484 1230.36 83.2092 Q1229.17 84.9717 1227.45 84.9717 Q1226.38 84.9717 1225.73 84.3159 Q1225.07 83.701 1225.07 82.7173 Q1225.11 82.3894 1225.36 81.3646 L1237.41 32.7923 Q1237.73 31.4807 1238.55 30.7429 Q1239.42 29.9641 1239.91 29.8821 Q1240.4 29.7591 1240.77 29.7591 Q1241.87 29.7591 1242.53 30.374 Q1243.23 30.9478 1243.23 32.0136 Q1243.23 32.1775 1242.98 33.1203 Q1242.78 34.022 1242.45 35.4157 Q1242.12 36.7683 1241.96 37.3831 L1238.43 51.4835 Q1237.24 56.3202 1237.24 58.6156 Q1237.24 62.0997 1238.8 64.0262 Q1240.4 65.9117 1243.47 65.9117 Q1245.4 65.9117 1247.2 65.1329 Q1249.01 64.3131 1250.24 63.2064 Q1251.47 62.0997 1252.45 60.911 Q1253.43 59.6813 1253.88 58.9025 Q1254.34 58.0827 1254.38 57.8778 L1256.55 49.311 L1260.52 33.6121 Q1260.77 32.6284 1261.22 31.9726 Q1261.71 31.2757 1262.29 31.0298 Q1262.86 30.7839 1263.19 30.7429 Q1263.52 30.6609 1263.8 30.6609 Q1264.83 30.6609 1265.53 31.2757 Q1266.22 31.8906 1266.22 32.9563 Q1266.22 33.1613 1265.98 34.145 Q1265.77 35.0877 1265.44 36.4814 Q1265.12 37.834 1264.95 38.5718 Q1263.64 43.7365 1263.52 44.2693 L1261.18 53.328 Q1261.06 53.8608 1260.65 55.5824 Q1260.28 57.3039 1260.07 58.2057 Q1259.87 59.0665 1259.66 60.2552 Q1259.5 61.4029 1259.5 62.0587 Q1259.5 65.9117 1262.04 65.9117 Q1263.03 65.9117 1263.89 65.3378 Q1264.75 64.723 1265.32 63.8622 Q1265.94 63.0014 1266.51 61.5258 Q1267.12 60.0092 1267.49 58.7795 Q1267.86 57.5089 1268.39 55.5414 Q1268.6 54.5986 1268.8 54.3117 Q1269.01 54.0248 1269.58 54.0248 Q1270.57 54.0248 1270.57 54.8446 Z" fill="#000000" fill-rule="evenodd" fill-opacity="1" /><circle clip-path="url(#clip082)" cx="907.756" cy="999.52" r="14" fill="#009af9" fill-rule="evenodd" fill-opacity="0.25" stroke="#000000" stroke-opacity="0.25" stroke-width="3.2"/>
<circle clip-path="url(#clip082)" cx="1325.62" cy="489.549" r="14" fill="#009af9" fill-rule="evenodd" fill-opacity="0.25" stroke="#000000" stroke-opacity="0.25" stroke-width="3.2"/>
<circle clip-path="url(#clip082)" cx="484.19" cy="965.195" r="14" fill="#009af9" fill-rule="evenodd" fill-opacity="0.25" stroke="#000000" stroke-opacity="0.25" stroke-width="3.2"/>
<circle clip-path="url(#clip082)" cx="1754.73" cy="1202.73" r="14" fill="#009af9" fill-rule="evenodd" fill-opacity="0.25" stroke="#000000" stroke-opacity="0.25" stroke-width="3.2"/>
<circle clip-path="url(#clip082)" cx="501.778" cy="1000.85" r="14" fill="#009af9" fill-rule="evenodd" fill-opacity="0.25" stroke="#000000" stroke-opacity="0.25" stroke-width="3.2"/>
<circle clip-path="url(#clip082)" cx="1765.15" cy="1125.32" r="14" fill="#009af9" fill-rule="evenodd" fill-opacity="0.25" stroke="#000000" stroke-opacity="0.25" stroke-width="3.2"/>
<circle clip-path="url(#clip082)" cx="1902.14" cy="1137.03" r="14" fill="#009af9" fill-rule="evenodd" fill-opacity="0.25" stroke="#000000" stroke-opacity="0.25" stroke-width="3.2"/>
<circle clip-path="url(#clip082)" cx="532.25" cy="829.882" r="14" fill="#009af9" fill-rule="evenodd" fill-opacity="0.25" stroke="#000000" stroke-opacity="0.25" stroke-width="3.2"/>
<circle clip-path="url(#clip082)" cx="427.141" cy="1219.7" r="14" fill="#009af9" fill-rule="evenodd" fill-opacity="0.25" stroke="#000000" stroke-opacity="0.25" stroke-width="3.2"/>
<circle clip-path="url(#clip082)" cx="882.393" cy="969.202" r="14" fill="#009af9" fill-rule="evenodd" fill-opacity="0.25" stroke="#000000" stroke-opacity="0.25" stroke-width="3.2"/>
<circle clip-path="url(#clip082)" cx="500.928" cy="1215.83" r="14" fill="#009af9" fill-rule="evenodd" fill-opacity="0.25" stroke="#000000" stroke-opacity="0.25" stroke-width="3.2"/>
<circle clip-path="url(#clip082)" cx="512.004" cy="1267.05" r="14" fill="#009af9" fill-rule="evenodd" fill-opacity="0.25" stroke="#000000" stroke-opacity="0.25" stroke-width="3.2"/>
<circle clip-path="url(#clip082)" cx="1456.15" cy="419.032" r="14" fill="#009af9" fill-rule="evenodd" fill-opacity="0.25" stroke="#000000" stroke-opacity="0.25" stroke-width="3.2"/>
<circle clip-path="url(#clip082)" cx="1455.86" cy="1084.47" r="14" fill="#009af9" fill-rule="evenodd" fill-opacity="0.25" stroke="#000000" stroke-opacity="0.25" stroke-width="3.2"/>
<circle clip-path="url(#clip082)" cx="864.275" cy="534.051" r="14" fill="#009af9" fill-rule="evenodd" fill-opacity="0.25" stroke="#000000" stroke-opacity="0.25" stroke-width="3.2"/>
<circle clip-path="url(#clip082)" cx="534.069" cy="1265.71" r="14" fill="#009af9" fill-rule="evenodd" fill-opacity="0.25" stroke="#000000" stroke-opacity="0.25" stroke-width="3.2"/>
<circle clip-path="url(#clip082)" cx="1098.77" cy="162.047" r="14" fill="#009af9" fill-rule="evenodd" fill-opacity="0.25" stroke="#000000" stroke-opacity="0.25" stroke-width="3.2"/>
<circle clip-path="url(#clip082)" cx="1797.38" cy="1164.44" r="14" fill="#009af9" fill-rule="evenodd" fill-opacity="0.25" stroke="#000000" stroke-opacity="0.25" stroke-width="3.2"/>
<circle clip-path="url(#clip082)" cx="489.598" cy="1207.68" r="14" fill="#009af9" fill-rule="evenodd" fill-opacity="0.25" stroke="#000000" stroke-opacity="0.25" stroke-width="3.2"/>
<circle clip-path="url(#clip082)" cx="638.153" cy="1060.98" r="14" fill="#009af9" fill-rule="evenodd" fill-opacity="0.25" stroke="#000000" stroke-opacity="0.25" stroke-width="3.2"/>
<circle clip-path="url(#clip082)" cx="1785.58" cy="913.947" r="14" fill="#009af9" fill-rule="evenodd" fill-opacity="0.25" stroke="#000000" stroke-opacity="0.25" stroke-width="3.2"/>
<circle clip-path="url(#clip082)" cx="850.814" cy="1036.22" r="14" fill="#009af9" fill-rule="evenodd" fill-opacity="0.25" stroke="#000000" stroke-opacity="0.25" stroke-width="3.2"/>
<circle clip-path="url(#clip082)" cx="953.873" cy="1208.09" r="14" fill="#009af9" fill-rule="evenodd" fill-opacity="0.25" stroke="#000000" stroke-opacity="0.25" stroke-width="3.2"/>
<circle clip-path="url(#clip082)" cx="778.293" cy="1233.56" r="14" fill="#009af9" fill-rule="evenodd" fill-opacity="0.25" stroke="#000000" stroke-opacity="0.25" stroke-width="3.2"/>
<circle clip-path="url(#clip082)" cx="1205.51" cy="497.671" r="14" fill="#009af9" fill-rule="evenodd" fill-opacity="0.25" stroke="#000000" stroke-opacity="0.25" stroke-width="3.2"/>
<circle clip-path="url(#clip082)" cx="1097.37" cy="322.274" r="14" fill="#009af9" fill-rule="evenodd" fill-opacity="0.25" stroke="#000000" stroke-opacity="0.25" stroke-width="3.2"/>
<circle clip-path="url(#clip082)" cx="375.034" cy="1115.85" r="14" fill="#009af9" fill-rule="evenodd" fill-opacity="0.25" stroke="#000000" stroke-opacity="0.25" stroke-width="3.2"/>
<circle clip-path="url(#clip082)" cx="439.442" cy="986.327" r="14" fill="#009af9" fill-rule="evenodd" fill-opacity="0.25" stroke="#000000" stroke-opacity="0.25" stroke-width="3.2"/>
<circle clip-path="url(#clip082)" cx="2011.8" cy="1196.32" r="14" fill="#009af9" fill-rule="evenodd" fill-opacity="0.25" stroke="#000000" stroke-opacity="0.25" stroke-width="3.2"/>
<circle clip-path="url(#clip082)" cx="2029.8" cy="1011.97" r="14" fill="#009af9" fill-rule="evenodd" fill-opacity="0.25" stroke="#000000" stroke-opacity="0.25" stroke-width="3.2"/>
<circle clip-path="url(#clip082)" cx="400.084" cy="820.763" r="14" fill="#009af9" fill-rule="evenodd" fill-opacity="0.25" stroke="#000000" stroke-opacity="0.25" stroke-width="3.2"/>
<circle clip-path="url(#clip082)" cx="1716.7" cy="1038.05" r="14" fill="#009af9" fill-rule="evenodd" fill-opacity="0.25" stroke="#000000" stroke-opacity="0.25" stroke-width="3.2"/>
<circle clip-path="url(#clip082)" cx="528.684" cy="1169.21" r="14" fill="#009af9" fill-rule="evenodd" fill-opacity="0.25" stroke="#000000" stroke-opacity="0.25" stroke-width="3.2"/>
<circle clip-path="url(#clip082)" cx="647.895" cy="1096.24" r="14" fill="#009af9" fill-rule="evenodd" fill-opacity="0.25" stroke="#000000" stroke-opacity="0.25" stroke-width="3.2"/>
<circle clip-path="url(#clip082)" cx="1037.96" cy="380.787" r="14" fill="#009af9" fill-rule="evenodd" fill-opacity="0.25" stroke="#000000" stroke-opacity="0.25" stroke-width="3.2"/>
<circle clip-path="url(#clip082)" cx="1008.15" cy="415.777" r="14" fill="#009af9" fill-rule="evenodd" fill-opacity="0.25" stroke="#000000" stroke-opacity="0.25" stroke-width="3.2"/>
<circle clip-path="url(#clip082)" cx="1954.52" cy="1181.21" r="14" fill="#009af9" fill-rule="evenodd" fill-opacity="0.25" stroke="#000000" stroke-opacity="0.25" stroke-width="3.2"/>
<circle clip-path="url(#clip082)" cx="1762.17" cy="1000.99" r="14" fill="#009af9" fill-rule="evenodd" fill-opacity="0.25" stroke="#000000" stroke-opacity="0.25" stroke-width="3.2"/>
<circle clip-path="url(#clip082)" cx="441.254" cy="1089.26" r="14" fill="#009af9" fill-rule="evenodd" fill-opacity="0.25" stroke="#000000" stroke-opacity="0.25" stroke-width="3.2"/>
<circle clip-path="url(#clip082)" cx="1169.06" cy="404.616" r="14" fill="#009af9" fill-rule="evenodd" fill-opacity="0.25" stroke="#000000" stroke-opacity="0.25" stroke-width="3.2"/>
<circle clip-path="url(#clip082)" cx="577.282" cy="1275.45" r="14" fill="#009af9" fill-rule="evenodd" fill-opacity="0.25" stroke="#000000" stroke-opacity="0.25" stroke-width="3.2"/>
<circle clip-path="url(#clip082)" cx="1926.85" cy="1003.83" r="14" fill="#009af9" fill-rule="evenodd" fill-opacity="0.25" stroke="#000000" stroke-opacity="0.25" stroke-width="3.2"/>
<circle clip-path="url(#clip082)" cx="1711.18" cy="1185.85" r="14" fill="#009af9" fill-rule="evenodd" fill-opacity="0.25" stroke="#000000" stroke-opacity="0.25" stroke-width="3.2"/>
<circle clip-path="url(#clip082)" cx="657.197" cy="1046.57" r="14" fill="#009af9" fill-rule="evenodd" fill-opacity="0.25" stroke="#000000" stroke-opacity="0.25" stroke-width="3.2"/>
<circle clip-path="url(#clip082)" cx="848.991" cy="1161.57" r="14" fill="#009af9" fill-rule="evenodd" fill-opacity="0.25" stroke="#000000" stroke-opacity="0.25" stroke-width="3.2"/>
<circle clip-path="url(#clip082)" cx="949.797" cy="1006.91" r="14" fill="#009af9" fill-rule="evenodd" fill-opacity="0.25" stroke="#000000" stroke-opacity="0.25" stroke-width="3.2"/>
<circle clip-path="url(#clip082)" cx="1693.94" cy="1290.56" r="14" fill="#009af9" fill-rule="evenodd" fill-opacity="0.25" stroke="#000000" stroke-opacity="0.25" stroke-width="3.2"/>
<circle clip-path="url(#clip082)" cx="1600.24" cy="1221.46" r="14" fill="#009af9" fill-rule="evenodd" fill-opacity="0.25" stroke="#000000" stroke-opacity="0.25" stroke-width="3.2"/>
<circle clip-path="url(#clip082)" cx="700.719" cy="1447.87" r="14" fill="#009af9" fill-rule="evenodd" fill-opacity="0.25" stroke="#000000" stroke-opacity="0.25" stroke-width="3.2"/>
<circle clip-path="url(#clip082)" cx="1798.96" cy="1217.99" r="14" fill="#009af9" fill-rule="evenodd" fill-opacity="0.25" stroke="#000000" stroke-opacity="0.25" stroke-width="3.2"/>
<circle clip-path="url(#clip082)" cx="993.151" cy="345.994" r="14" fill="#009af9" fill-rule="evenodd" fill-opacity="0.25" stroke="#000000" stroke-opacity="0.25" stroke-width="3.2"/>
<circle clip-path="url(#clip082)" cx="593.52" cy="1176.6" r="14" fill="#009af9" fill-rule="evenodd" fill-opacity="0.25" stroke="#000000" stroke-opacity="0.25" stroke-width="3.2"/>
<circle clip-path="url(#clip082)" cx="1619.15" cy="1205.8" r="14" fill="#009af9" fill-rule="evenodd" fill-opacity="0.25" stroke="#000000" stroke-opacity="0.25" stroke-width="3.2"/>
<circle clip-path="url(#clip082)" cx="1612.42" cy="1229.2" r="14" fill="#009af9" fill-rule="evenodd" fill-opacity="0.25" stroke="#000000" stroke-opacity="0.25" stroke-width="3.2"/>
<circle clip-path="url(#clip082)" cx="699.739" cy="969.214" r="14" fill="#009af9" fill-rule="evenodd" fill-opacity="0.25" stroke="#000000" stroke-opacity="0.25" stroke-width="3.2"/>
<circle clip-path="url(#clip082)" cx="2207.05" cy="989.897" r="14" fill="#009af9" fill-rule="evenodd" fill-opacity="0.25" stroke="#000000" stroke-opacity="0.25" stroke-width="3.2"/>
<circle clip-path="url(#clip082)" cx="2011.67" cy="1146.88" r="14" fill="#009af9" fill-rule="evenodd" fill-opacity="0.25" stroke="#000000" stroke-opacity="0.25" stroke-width="3.2"/>
<circle clip-path="url(#clip082)" cx="1348.79" cy="492.713" r="14" fill="#009af9" fill-rule="evenodd" fill-opacity="0.25" stroke="#000000" stroke-opacity="0.25" stroke-width="3.2"/>
<circle clip-path="url(#clip082)" cx="1049.05" cy="463.179" r="14" fill="#009af9" fill-rule="evenodd" fill-opacity="0.25" stroke="#000000" stroke-opacity="0.25" stroke-width="3.2"/>
<circle clip-path="url(#clip082)" cx="1674.75" cy="1105.28" r="14" fill="#009af9" fill-rule="evenodd" fill-opacity="0.25" stroke="#000000" stroke-opacity="0.25" stroke-width="3.2"/>
<circle clip-path="url(#clip082)" cx="2290.34" cy="965.817" r="14" fill="#009af9" fill-rule="evenodd" fill-opacity="0.25" stroke="#000000" stroke-opacity="0.25" stroke-width="3.2"/>
<circle clip-path="url(#clip082)" cx="619.565" cy="1113.03" r="14" fill="#009af9" fill-rule="evenodd" fill-opacity="0.25" stroke="#000000" stroke-opacity="0.25" stroke-width="3.2"/>
<circle clip-path="url(#clip082)" cx="765.278" cy="1371.02" r="14" fill="#009af9" fill-rule="evenodd" fill-opacity="0.25" stroke="#000000" stroke-opacity="0.25" stroke-width="3.2"/>
<circle clip-path="url(#clip082)" cx="663.554" cy="1392.37" r="14" fill="#009af9" fill-rule="evenodd" fill-opacity="0.25" stroke="#000000" stroke-opacity="0.25" stroke-width="3.2"/>
<circle clip-path="url(#clip082)" cx="544.341" cy="1097.71" r="14" fill="#009af9" fill-rule="evenodd" fill-opacity="0.25" stroke="#000000" stroke-opacity="0.25" stroke-width="3.2"/>
<circle clip-path="url(#clip082)" cx="209.891" cy="1223.38" r="14" fill="#009af9" fill-rule="evenodd" fill-opacity="0.25" stroke="#000000" stroke-opacity="0.25" stroke-width="3.2"/>
<circle clip-path="url(#clip082)" cx="1292.25" cy="304.482" r="14" fill="#009af9" fill-rule="evenodd" fill-opacity="0.25" stroke="#000000" stroke-opacity="0.25" stroke-width="3.2"/>
<circle clip-path="url(#clip082)" cx="1215.03" cy="294.646" r="14" fill="#009af9" fill-rule="evenodd" fill-opacity="0.25" stroke="#000000" stroke-opacity="0.25" stroke-width="3.2"/>
<circle clip-path="url(#clip082)" cx="1049.26" cy="441.986" r="14" fill="#009af9" fill-rule="evenodd" fill-opacity="0.25" stroke="#000000" stroke-opacity="0.25" stroke-width="3.2"/>
<circle clip-path="url(#clip082)" cx="1038.42" cy="442.828" r="14" fill="#009af9" fill-rule="evenodd" fill-opacity="0.25" stroke="#000000" stroke-opacity="0.25" stroke-width="3.2"/>
<circle clip-path="url(#clip082)" cx="1577.46" cy="1068.11" r="14" fill="#009af9" fill-rule="evenodd" fill-opacity="0.25" stroke="#000000" stroke-opacity="0.25" stroke-width="3.2"/>
<circle clip-path="url(#clip082)" cx="991.83" cy="1181.58" r="14" fill="#009af9" fill-rule="evenodd" fill-opacity="0.25" stroke="#000000" stroke-opacity="0.25" stroke-width="3.2"/>
<circle clip-path="url(#clip082)" cx="1687.27" cy="1315.46" r="14" fill="#009af9" fill-rule="evenodd" fill-opacity="0.25" stroke="#000000" stroke-opacity="0.25" stroke-width="3.2"/>
<circle clip-path="url(#clip082)" cx="1489.29" cy="461.877" r="14" fill="#009af9" fill-rule="evenodd" fill-opacity="0.25" stroke="#000000" stroke-opacity="0.25" stroke-width="3.2"/>
<circle clip-path="url(#clip082)" cx="1352.81" cy="422.105" r="14" fill="#009af9" fill-rule="evenodd" fill-opacity="0.25" stroke="#000000" stroke-opacity="0.25" stroke-width="3.2"/>
<circle clip-path="url(#clip082)" cx="336.812" cy="1175.74" r="14" fill="#009af9" fill-rule="evenodd" fill-opacity="0.25" stroke="#000000" stroke-opacity="0.25" stroke-width="3.2"/>
<circle clip-path="url(#clip082)" cx="1687.17" cy="847.1" r="14" fill="#009af9" fill-rule="evenodd" fill-opacity="0.25" stroke="#000000" stroke-opacity="0.25" stroke-width="3.2"/>
<circle clip-path="url(#clip082)" cx="1289.85" cy="417.746" r="14" fill="#009af9" fill-rule="evenodd" fill-opacity="0.25" stroke="#000000" stroke-opacity="0.25" stroke-width="3.2"/>
<circle clip-path="url(#clip082)" cx="894.578" cy="1090.62" r="14" fill="#009af9" fill-rule="evenodd" fill-opacity="0.25" stroke="#000000" stroke-opacity="0.25" stroke-width="3.2"/>
<circle clip-path="url(#clip082)" cx="1007.2" cy="1039.94" r="14" fill="#009af9" fill-rule="evenodd" fill-opacity="0.25" stroke="#000000" stroke-opacity="0.25" stroke-width="3.2"/>
<circle clip-path="url(#clip082)" cx="1241.98" cy="419.719" r="14" fill="#009af9" fill-rule="evenodd" fill-opacity="0.25" stroke="#000000" stroke-opacity="0.25" stroke-width="3.2"/>
<circle clip-path="url(#clip082)" cx="1471.2" cy="1187.94" r="14" fill="#009af9" fill-rule="evenodd" fill-opacity="0.25" stroke="#000000" stroke-opacity="0.25" stroke-width="3.2"/>
<circle clip-path="url(#clip082)" cx="705.629" cy="1133.9" r="14" fill="#009af9" fill-rule="evenodd" fill-opacity="0.25" stroke="#000000" stroke-opacity="0.25" stroke-width="3.2"/>
<circle clip-path="url(#clip082)" cx="1140.96" cy="464.586" r="14" fill="#009af9" fill-rule="evenodd" fill-opacity="0.25" stroke="#000000" stroke-opacity="0.25" stroke-width="3.2"/>
<circle clip-path="url(#clip082)" cx="671.738" cy="1166.05" r="14" fill="#009af9" fill-rule="evenodd" fill-opacity="0.25" stroke="#000000" stroke-opacity="0.25" stroke-width="3.2"/>
<circle clip-path="url(#clip082)" cx="661.759" cy="1107.81" r="14" fill="#009af9" fill-rule="evenodd" fill-opacity="0.25" stroke="#000000" stroke-opacity="0.25" stroke-width="3.2"/>
<circle clip-path="url(#clip082)" cx="1057.01" cy="205.937" r="14" fill="#009af9" fill-rule="evenodd" fill-opacity="0.25" stroke="#000000" stroke-opacity="0.25" stroke-width="3.2"/>
<circle clip-path="url(#clip082)" cx="1206.77" cy="388.002" r="14" fill="#009af9" fill-rule="evenodd" fill-opacity="0.25" stroke="#000000" stroke-opacity="0.25" stroke-width="3.2"/>
<circle clip-path="url(#clip082)" cx="1639.51" cy="516.456" r="14" fill="#009af9" fill-rule="evenodd" fill-opacity="0.25" stroke="#000000" stroke-opacity="0.25" stroke-width="3.2"/>
<circle clip-path="url(#clip082)" cx="742.65" cy="1274.84" r="14" fill="#009af9" fill-rule="evenodd" fill-opacity="0.25" stroke="#000000" stroke-opacity="0.25" stroke-width="3.2"/>
<circle clip-path="url(#clip082)" cx="369.038" cy="1137.79" r="14" fill="#009af9" fill-rule="evenodd" fill-opacity="0.25" stroke="#000000" stroke-opacity="0.25" stroke-width="3.2"/>
<circle clip-path="url(#clip082)" cx="741.261" cy="1356.72" r="14" fill="#009af9" fill-rule="evenodd" fill-opacity="0.25" stroke="#000000" stroke-opacity="0.25" stroke-width="3.2"/>
<circle clip-path="url(#clip082)" cx="735.575" cy="1057.13" r="14" fill="#009af9" fill-rule="evenodd" fill-opacity="0.25" stroke="#000000" stroke-opacity="0.25" stroke-width="3.2"/>
<circle clip-path="url(#clip082)" cx="356.359" cy="1068.77" r="14" fill="#009af9" fill-rule="evenodd" fill-opacity="0.25" stroke="#000000" stroke-opacity="0.25" stroke-width="3.2"/>
<circle clip-path="url(#clip082)" cx="744.481" cy="1246.77" r="14" fill="#009af9" fill-rule="evenodd" fill-opacity="0.25" stroke="#000000" stroke-opacity="0.25" stroke-width="3.2"/>
<circle clip-path="url(#clip082)" cx="1635.75" cy="992.131" r="14" fill="#009af9" fill-rule="evenodd" fill-opacity="0.25" stroke="#000000" stroke-opacity="0.25" stroke-width="3.2"/>
<circle clip-path="url(#clip082)" cx="2231.89" cy="1183.01" r="14" fill="#009af9" fill-rule="evenodd" fill-opacity="0.25" stroke="#000000" stroke-opacity="0.25" stroke-width="3.2"/>
<circle clip-path="url(#clip082)" cx="1615.03" cy="768.77" r="14" fill="#009af9" fill-rule="evenodd" fill-opacity="0.25" stroke="#000000" stroke-opacity="0.25" stroke-width="3.2"/>
<circle clip-path="url(#clip082)" cx="1755.58" cy="1300.79" r="14" fill="#009af9" fill-rule="evenodd" fill-opacity="0.25" stroke="#000000" stroke-opacity="0.25" stroke-width="3.2"/>
<circle clip-path="url(#clip082)" cx="1798.1" cy="944.849" r="14" fill="#009af9" fill-rule="evenodd" fill-opacity="0.25" stroke="#000000" stroke-opacity="0.25" stroke-width="3.2"/>
<path clip-path="url(#clip080)" d="
M1986.82 272.585 L2279.25 272.585 L2279.25 168.905 L1986.82 168.905  Z
  " fill="#ffffff" fill-rule="evenodd" fill-opacity="1"/>
<polyline clip-path="url(#clip080)" style="stroke:#000000; stroke-linecap:butt; stroke-linejoin:round; stroke-width:4; stroke-opacity:1; fill:none" points="
  1986.82,272.585 2279.25,272.585 2279.25,168.905 1986.82,168.905 1986.82,272.585 
  "/>
<circle clip-path="url(#clip080)" cx="2082.82" cy="220.745" r="23" fill="#009af9" fill-rule="evenodd" fill-opacity="0.25" stroke="#000000" stroke-opacity="0.25" stroke-width="5.12"/>
<path clip-path="url(#clip080)" d="M2192.66 240.432 Q2190.85 245.062 2189.14 246.474 Q2187.43 247.886 2184.56 247.886 L2181.15 247.886 L2181.15 244.321 L2183.65 244.321 Q2185.41 244.321 2186.39 243.488 Q2187.36 242.654 2188.54 239.552 L2189.3 237.608 L2178.82 212.099 L2183.33 212.099 L2191.43 232.377 L2199.53 212.099 L2204.05 212.099 L2192.66 240.432 Z" fill="#000000" fill-rule="evenodd" fill-opacity="1" /><path clip-path="url(#clip080)" d="M2211.34 234.089 L2218.98 234.089 L2218.98 207.724 L2210.67 209.391 L2210.67 205.131 L2218.93 203.465 L2223.61 203.465 L2223.61 234.089 L2231.25 234.089 L2231.25 238.025 L2211.34 238.025 L2211.34 234.089 Z" fill="#000000" fill-rule="evenodd" fill-opacity="1" /></svg>
