<?xml version="1.0" encoding="utf-8"?>
<svg xmlns="http://www.w3.org/2000/svg" xmlns:xlink="http://www.w3.org/1999/xlink" width="600" height="400" viewBox="0 0 2400 1600">
<defs>
  <clipPath id="clip750">
    <rect x="0" y="0" width="2400" height="1600"/>
  </clipPath>
</defs>
<path clip-path="url(#clip750)" d="
M0 1600 L2400 1600 L2400 0 L0 0  Z
  " fill="#ffffff" fill-rule="evenodd" fill-opacity="1"/>
<defs>
  <clipPath id="clip751">
    <rect x="480" y="0" width="1681" height="1600"/>
  </clipPath>
</defs>
<path clip-path="url(#clip750)" d="
M156.112 1486.45 L2352.76 1486.45 L2352.76 123.472 L156.112 123.472  Z
  " fill="#ffffff" fill-rule="evenodd" fill-opacity="1"/>
<defs>
  <clipPath id="clip752">
    <rect x="156" y="123" width="2198" height="1364"/>
  </clipPath>
</defs>
<polyline clip-path="url(#clip752)" style="stroke:#000000; stroke-linecap:butt; stroke-linejoin:round; stroke-width:2; stroke-opacity:0.1; fill:none" points="
  390.973,1486.45 390.973,123.472 
  "/>
<polyline clip-path="url(#clip752)" style="stroke:#000000; stroke-linecap:butt; stroke-linejoin:round; stroke-width:2; stroke-opacity:0.1; fill:none" points="
  822.704,1486.45 822.704,123.472 
  "/>
<polyline clip-path="url(#clip752)" style="stroke:#000000; stroke-linecap:butt; stroke-linejoin:round; stroke-width:2; stroke-opacity:0.1; fill:none" points="
  1254.43,1486.45 1254.43,123.472 
  "/>
<polyline clip-path="url(#clip752)" style="stroke:#000000; stroke-linecap:butt; stroke-linejoin:round; stroke-width:2; stroke-opacity:0.1; fill:none" points="
  1686.16,1486.45 1686.16,123.472 
  "/>
<polyline clip-path="url(#clip752)" style="stroke:#000000; stroke-linecap:butt; stroke-linejoin:round; stroke-width:2; stroke-opacity:0.1; fill:none" points="
  2117.89,1486.45 2117.89,123.472 
  "/>
<polyline clip-path="url(#clip750)" style="stroke:#000000; stroke-linecap:butt; stroke-linejoin:round; stroke-width:4; stroke-opacity:1; fill:none" points="
  156.112,1486.45 2352.76,1486.45 
  "/>
<polyline clip-path="url(#clip750)" style="stroke:#000000; stroke-linecap:butt; stroke-linejoin:round; stroke-width:4; stroke-opacity:1; fill:none" points="
  390.973,1486.45 390.973,1467.55 
  "/>
<polyline clip-path="url(#clip750)" style="stroke:#000000; stroke-linecap:butt; stroke-linejoin:round; stroke-width:4; stroke-opacity:1; fill:none" points="
  822.704,1486.45 822.704,1467.55 
  "/>
<polyline clip-path="url(#clip750)" style="stroke:#000000; stroke-linecap:butt; stroke-linejoin:round; stroke-width:4; stroke-opacity:1; fill:none" points="
  1254.43,1486.45 1254.43,1467.55 
  "/>
<polyline clip-path="url(#clip750)" style="stroke:#000000; stroke-linecap:butt; stroke-linejoin:round; stroke-width:4; stroke-opacity:1; fill:none" points="
  1686.16,1486.45 1686.16,1467.55 
  "/>
<polyline clip-path="url(#clip750)" style="stroke:#000000; stroke-linecap:butt; stroke-linejoin:round; stroke-width:4; stroke-opacity:1; fill:none" points="
  2117.89,1486.45 2117.89,1467.55 
  "/>
<path clip-path="url(#clip750)" d="M345.036 1532.02 L374.712 1532.02 L374.712 1535.95 L345.036 1535.95 L345.036 1532.02 Z" fill="#000000" fill-rule="evenodd" fill-opacity="1" /><path clip-path="url(#clip750)" d="M385.615 1544.91 L393.253 1544.91 L393.253 1518.55 L384.943 1520.21 L384.943 1515.95 L393.207 1514.29 L397.883 1514.29 L397.883 1544.91 L405.522 1544.91 L405.522 1548.85 L385.615 1548.85 L385.615 1544.91 Z" fill="#000000" fill-rule="evenodd" fill-opacity="1" /><path clip-path="url(#clip750)" d="M424.966 1517.37 Q421.355 1517.37 419.526 1520.93 Q417.721 1524.47 417.721 1531.6 Q417.721 1538.71 419.526 1542.27 Q421.355 1545.82 424.966 1545.82 Q428.601 1545.82 430.406 1542.27 Q432.235 1538.71 432.235 1531.6 Q432.235 1524.47 430.406 1520.93 Q428.601 1517.37 424.966 1517.37 M424.966 1513.66 Q430.776 1513.66 433.832 1518.27 Q436.911 1522.85 436.911 1531.6 Q436.911 1540.33 433.832 1544.94 Q430.776 1549.52 424.966 1549.52 Q419.156 1549.52 416.077 1544.94 Q413.022 1540.33 413.022 1531.6 Q413.022 1522.85 416.077 1518.27 Q419.156 1513.66 424.966 1513.66 Z" fill="#000000" fill-rule="evenodd" fill-opacity="1" /><path clip-path="url(#clip750)" d="M792.345 1532.02 L822.021 1532.02 L822.021 1535.95 L792.345 1535.95 L792.345 1532.02 Z" fill="#000000" fill-rule="evenodd" fill-opacity="1" /><path clip-path="url(#clip750)" d="M832.16 1514.29 L850.516 1514.29 L850.516 1518.22 L836.442 1518.22 L836.442 1526.7 Q837.461 1526.35 838.479 1526.19 Q839.498 1526 840.516 1526 Q846.303 1526 849.683 1529.17 Q853.062 1532.34 853.062 1537.76 Q853.062 1543.34 849.59 1546.44 Q846.118 1549.52 839.799 1549.52 Q837.623 1549.52 835.354 1549.15 Q833.109 1548.78 830.701 1548.04 L830.701 1543.34 Q832.785 1544.47 835.007 1545.03 Q837.229 1545.58 839.706 1545.58 Q843.711 1545.58 846.048 1543.48 Q848.386 1541.37 848.386 1537.76 Q848.386 1534.15 846.048 1532.04 Q843.711 1529.94 839.706 1529.94 Q837.831 1529.94 835.956 1530.35 Q834.104 1530.77 832.16 1531.65 L832.16 1514.29 Z" fill="#000000" fill-rule="evenodd" fill-opacity="1" /><path clip-path="url(#clip750)" d="M1254.43 1517.37 Q1250.82 1517.37 1248.99 1520.93 Q1247.19 1524.47 1247.19 1531.6 Q1247.19 1538.71 1248.99 1542.27 Q1250.82 1545.82 1254.43 1545.82 Q1258.07 1545.82 1259.87 1542.27 Q1261.7 1538.71 1261.7 1531.6 Q1261.7 1524.47 1259.87 1520.93 Q1258.07 1517.37 1254.43 1517.37 M1254.43 1513.66 Q1260.24 1513.66 1263.3 1518.27 Q1266.38 1522.85 1266.38 1531.6 Q1266.38 1540.33 1263.3 1544.94 Q1260.24 1549.52 1254.43 1549.52 Q1248.62 1549.52 1245.55 1544.94 Q1242.49 1540.33 1242.49 1531.6 Q1242.49 1522.85 1245.55 1518.27 Q1248.62 1513.66 1254.43 1513.66 Z" fill="#000000" fill-rule="evenodd" fill-opacity="1" /><path clip-path="url(#clip750)" d="M1676.44 1514.29 L1694.8 1514.29 L1694.8 1518.22 L1680.72 1518.22 L1680.72 1526.7 Q1681.74 1526.35 1682.76 1526.19 Q1683.78 1526 1684.8 1526 Q1690.59 1526 1693.97 1529.17 Q1697.34 1532.34 1697.34 1537.76 Q1697.34 1543.34 1693.87 1546.44 Q1690.4 1549.52 1684.08 1549.52 Q1681.91 1549.52 1679.64 1549.15 Q1677.39 1548.78 1674.98 1548.04 L1674.98 1543.34 Q1677.07 1544.47 1679.29 1545.03 Q1681.51 1545.58 1683.99 1545.58 Q1687.99 1545.58 1690.33 1543.48 Q1692.67 1541.37 1692.67 1537.76 Q1692.67 1534.15 1690.33 1532.04 Q1687.99 1529.94 1683.99 1529.94 Q1682.11 1529.94 1680.24 1530.35 Q1678.39 1530.77 1676.44 1531.65 L1676.44 1514.29 Z" fill="#000000" fill-rule="evenodd" fill-opacity="1" /><path clip-path="url(#clip750)" d="M2092.58 1544.91 L2100.22 1544.91 L2100.22 1518.55 L2091.91 1520.21 L2091.91 1515.95 L2100.17 1514.29 L2104.85 1514.29 L2104.85 1544.91 L2112.49 1544.91 L2112.49 1548.85 L2092.58 1548.85 L2092.58 1544.91 Z" fill="#000000" fill-rule="evenodd" fill-opacity="1" /><path clip-path="url(#clip750)" d="M2131.93 1517.37 Q2128.32 1517.37 2126.49 1520.93 Q2124.69 1524.47 2124.69 1531.6 Q2124.69 1538.71 2126.49 1542.27 Q2128.32 1545.82 2131.93 1545.82 Q2135.57 1545.82 2137.37 1542.27 Q2139.2 1538.71 2139.2 1531.6 Q2139.2 1524.47 2137.37 1520.93 Q2135.57 1517.37 2131.93 1517.37 M2131.93 1513.66 Q2137.74 1513.66 2140.8 1518.27 Q2143.88 1522.85 2143.88 1531.6 Q2143.88 1540.33 2140.8 1544.94 Q2137.74 1549.52 2131.93 1549.52 Q2126.12 1549.52 2123.05 1544.94 Q2119.99 1540.33 2119.99 1531.6 Q2119.99 1522.85 2123.05 1518.27 Q2126.12 1513.66 2131.93 1513.66 Z" fill="#000000" fill-rule="evenodd" fill-opacity="1" /><polyline clip-path="url(#clip752)" style="stroke:#000000; stroke-linecap:butt; stroke-linejoin:round; stroke-width:2; stroke-opacity:0.1; fill:none" points="
  156.112,1447.87 2352.76,1447.87 
  "/>
<polyline clip-path="url(#clip752)" style="stroke:#000000; stroke-linecap:butt; stroke-linejoin:round; stroke-width:2; stroke-opacity:0.1; fill:none" points="
  156.112,1073.33 2352.76,1073.33 
  "/>
<polyline clip-path="url(#clip752)" style="stroke:#000000; stroke-linecap:butt; stroke-linejoin:round; stroke-width:2; stroke-opacity:0.1; fill:none" points="
  156.112,698.779 2352.76,698.779 
  "/>
<polyline clip-path="url(#clip752)" style="stroke:#000000; stroke-linecap:butt; stroke-linejoin:round; stroke-width:2; stroke-opacity:0.1; fill:none" points="
  156.112,324.231 2352.76,324.231 
  "/>
<polyline clip-path="url(#clip750)" style="stroke:#000000; stroke-linecap:butt; stroke-linejoin:round; stroke-width:4; stroke-opacity:1; fill:none" points="
  156.112,1486.45 156.112,123.472 
  "/>
<polyline clip-path="url(#clip750)" style="stroke:#000000; stroke-linecap:butt; stroke-linejoin:round; stroke-width:4; stroke-opacity:1; fill:none" points="
  156.112,1447.87 175.01,1447.87 
  "/>
<polyline clip-path="url(#clip750)" style="stroke:#000000; stroke-linecap:butt; stroke-linejoin:round; stroke-width:4; stroke-opacity:1; fill:none" points="
  156.112,1073.33 175.01,1073.33 
  "/>
<polyline clip-path="url(#clip750)" style="stroke:#000000; stroke-linecap:butt; stroke-linejoin:round; stroke-width:4; stroke-opacity:1; fill:none" points="
  156.112,698.779 175.01,698.779 
  "/>
<polyline clip-path="url(#clip750)" style="stroke:#000000; stroke-linecap:butt; stroke-linejoin:round; stroke-width:4; stroke-opacity:1; fill:none" points="
  156.112,324.231 175.01,324.231 
  "/>
<path clip-path="url(#clip750)" d="M62.9365 1433.67 Q59.3254 1433.67 57.4967 1437.24 Q55.6912 1440.78 55.6912 1447.91 Q55.6912 1455.01 57.4967 1458.58 Q59.3254 1462.12 62.9365 1462.12 Q66.5707 1462.12 68.3763 1458.58 Q70.205 1455.01 70.205 1447.91 Q70.205 1440.78 68.3763 1437.24 Q66.5707 1433.67 62.9365 1433.67 M62.9365 1429.97 Q68.7467 1429.97 71.8022 1434.57 Q74.8809 1439.16 74.8809 1447.91 Q74.8809 1456.63 71.8022 1461.24 Q68.7467 1465.82 62.9365 1465.82 Q57.1264 1465.82 54.0477 1461.24 Q50.9921 1456.63 50.9921 1447.91 Q50.9921 1439.16 54.0477 1434.57 Q57.1264 1429.97 62.9365 1429.97 Z" fill="#000000" fill-rule="evenodd" fill-opacity="1" /><path clip-path="url(#clip750)" d="M83.0984 1459.27 L87.9827 1459.27 L87.9827 1465.15 L83.0984 1465.15 L83.0984 1459.27 Z" fill="#000000" fill-rule="evenodd" fill-opacity="1" /><path clip-path="url(#clip750)" d="M108.168 1433.67 Q104.557 1433.67 102.728 1437.24 Q100.922 1440.78 100.922 1447.91 Q100.922 1455.01 102.728 1458.58 Q104.557 1462.12 108.168 1462.12 Q111.802 1462.12 113.608 1458.58 Q115.436 1455.01 115.436 1447.91 Q115.436 1440.78 113.608 1437.24 Q111.802 1433.67 108.168 1433.67 M108.168 1429.97 Q113.978 1429.97 117.033 1434.57 Q120.112 1439.16 120.112 1447.91 Q120.112 1456.63 117.033 1461.24 Q113.978 1465.82 108.168 1465.82 Q102.358 1465.82 99.2789 1461.24 Q96.2234 1456.63 96.2234 1447.91 Q96.2234 1439.16 99.2789 1434.57 Q102.358 1429.97 108.168 1429.97 Z" fill="#000000" fill-rule="evenodd" fill-opacity="1" /><path clip-path="url(#clip750)" d="M64.1634 1059.12 Q60.5523 1059.12 58.7236 1062.69 Q56.918 1066.23 56.918 1073.36 Q56.918 1080.47 58.7236 1084.03 Q60.5523 1087.57 64.1634 1087.57 Q67.7976 1087.57 69.6031 1084.03 Q71.4318 1080.47 71.4318 1073.36 Q71.4318 1066.23 69.6031 1062.69 Q67.7976 1059.12 64.1634 1059.12 M64.1634 1055.42 Q69.9735 1055.42 73.029 1060.03 Q76.1077 1064.61 76.1077 1073.36 Q76.1077 1082.09 73.029 1086.69 Q69.9735 1091.28 64.1634 1091.28 Q58.3532 1091.28 55.2745 1086.69 Q52.219 1082.09 52.219 1073.36 Q52.219 1064.61 55.2745 1060.03 Q58.3532 1055.42 64.1634 1055.42 Z" fill="#000000" fill-rule="evenodd" fill-opacity="1" /><path clip-path="url(#clip750)" d="M84.3253 1084.73 L89.2095 1084.73 L89.2095 1090.61 L84.3253 1090.61 L84.3253 1084.73 Z" fill="#000000" fill-rule="evenodd" fill-opacity="1" /><path clip-path="url(#clip750)" d="M100.205 1086.67 L107.844 1086.67 L107.844 1060.31 L99.5335 1061.97 L99.5335 1057.71 L107.797 1056.05 L112.473 1056.05 L112.473 1086.67 L120.112 1086.67 L120.112 1090.61 L100.205 1090.61 L100.205 1086.67 Z" fill="#000000" fill-rule="evenodd" fill-opacity="1" /><path clip-path="url(#clip750)" d="M64.5337 684.577 Q60.9226 684.577 59.0939 688.142 Q57.2884 691.684 57.2884 698.813 Q57.2884 705.92 59.0939 709.484 Q60.9226 713.026 64.5337 713.026 Q68.168 713.026 69.9735 709.484 Q71.8022 705.92 71.8022 698.813 Q71.8022 691.684 69.9735 688.142 Q68.168 684.577 64.5337 684.577 M64.5337 680.874 Q70.3439 680.874 73.3994 685.48 Q76.4781 690.063 76.4781 698.813 Q76.4781 707.54 73.3994 712.147 Q70.3439 716.73 64.5337 716.73 Q58.7236 716.73 55.6449 712.147 Q52.5893 707.54 52.5893 698.813 Q52.5893 690.063 55.6449 685.48 Q58.7236 680.874 64.5337 680.874 Z" fill="#000000" fill-rule="evenodd" fill-opacity="1" /><path clip-path="url(#clip750)" d="M84.6956 710.179 L89.5799 710.179 L89.5799 716.059 L84.6956 716.059 L84.6956 710.179 Z" fill="#000000" fill-rule="evenodd" fill-opacity="1" /><path clip-path="url(#clip750)" d="M103.793 712.123 L120.112 712.123 L120.112 716.059 L98.1678 716.059 L98.1678 712.123 Q100.83 709.369 105.413 704.739 Q110.02 700.086 111.2 698.744 Q113.445 696.221 114.325 694.485 Q115.228 692.725 115.228 691.036 Q115.228 688.281 113.283 686.545 Q111.362 684.809 108.26 684.809 Q106.061 684.809 103.608 685.573 Q101.177 686.336 98.3993 687.887 L98.3993 683.165 Q101.223 682.031 103.677 681.452 Q106.131 680.874 108.168 680.874 Q113.538 680.874 116.733 683.559 Q119.927 686.244 119.927 690.735 Q119.927 692.864 119.117 694.785 Q118.33 696.684 116.223 699.276 Q115.645 699.947 112.543 703.165 Q109.441 706.36 103.793 712.123 Z" fill="#000000" fill-rule="evenodd" fill-opacity="1" /><path clip-path="url(#clip750)" d="M63.5847 310.03 Q59.9736 310.03 58.1449 313.595 Q56.3393 317.136 56.3393 324.266 Q56.3393 331.372 58.1449 334.937 Q59.9736 338.479 63.5847 338.479 Q67.2189 338.479 69.0244 334.937 Q70.8531 331.372 70.8531 324.266 Q70.8531 317.136 69.0244 313.595 Q67.2189 310.03 63.5847 310.03 M63.5847 306.326 Q69.3948 306.326 72.4503 310.933 Q75.529 315.516 75.529 324.266 Q75.529 332.993 72.4503 337.599 Q69.3948 342.183 63.5847 342.183 Q57.7745 342.183 54.6958 337.599 Q51.6403 332.993 51.6403 324.266 Q51.6403 315.516 54.6958 310.933 Q57.7745 306.326 63.5847 306.326 Z" fill="#000000" fill-rule="evenodd" fill-opacity="1" /><path clip-path="url(#clip750)" d="M83.7466 335.632 L88.6308 335.632 L88.6308 341.511 L83.7466 341.511 L83.7466 335.632 Z" fill="#000000" fill-rule="evenodd" fill-opacity="1" /><path clip-path="url(#clip750)" d="M112.983 322.877 Q116.339 323.595 118.214 325.863 Q120.112 328.132 120.112 331.465 Q120.112 336.581 116.594 339.382 Q113.075 342.183 106.594 342.183 Q104.418 342.183 102.103 341.743 Q99.8113 341.326 97.3576 340.47 L97.3576 335.956 Q99.3021 337.09 101.617 337.669 Q103.932 338.247 106.455 338.247 Q110.853 338.247 113.145 336.511 Q115.459 334.775 115.459 331.465 Q115.459 328.409 113.307 326.697 Q111.177 324.96 107.358 324.96 L103.33 324.96 L103.33 321.118 L107.543 321.118 Q110.992 321.118 112.82 319.752 Q114.649 318.363 114.649 315.771 Q114.649 313.109 112.751 311.697 Q110.876 310.261 107.358 310.261 Q105.436 310.261 103.237 310.678 Q101.038 311.095 98.3993 311.974 L98.3993 307.808 Q101.061 307.067 103.376 306.697 Q105.714 306.326 107.774 306.326 Q113.098 306.326 116.2 308.757 Q119.302 311.164 119.302 315.285 Q119.302 318.155 117.658 320.146 Q116.015 322.113 112.983 322.877 Z" fill="#000000" fill-rule="evenodd" fill-opacity="1" /><path clip-path="url(#clip750)" d="M762.229 12.096 L773.247 12.096 L800.064 62.6918 L800.064 12.096 L808.004 12.096 L808.004 72.576 L796.986 72.576 L770.169 21.9802 L770.169 72.576 L762.229 72.576 L762.229 12.096 Z" fill="#000000" fill-rule="evenodd" fill-opacity="1" /><path clip-path="url(#clip750)" d="M824.289 12.096 L836.482 12.096 L851.916 53.2532 L867.431 12.096 L879.624 12.096 L879.624 72.576 L871.644 72.576 L871.644 19.4686 L856.048 60.9499 L847.825 60.9499 L832.229 19.4686 L832.229 72.576 L824.289 72.576 L824.289 12.096 Z" fill="#000000" fill-rule="evenodd" fill-opacity="1" /><path clip-path="url(#clip750)" d="M895.868 12.096 L930.625 12.096 L930.625 18.9825 L904.051 18.9825 L904.051 36.8065 L928.032 36.8065 L928.032 43.6931 L904.051 43.6931 L904.051 72.576 L895.868 72.576 L895.868 12.096 Z" fill="#000000" fill-rule="evenodd" fill-opacity="1" /><path clip-path="url(#clip750)" d="M965.301 27.2059 L972.754 27.2059 L982.071 62.6108 L991.348 27.2059 L1000.14 27.2059 L1009.46 62.6108 L1018.73 27.2059 L1026.19 27.2059 L1014.32 72.576 L1005.53 72.576 L995.764 35.3887 L985.96 72.576 L977.17 72.576 L965.301 27.2059 Z" fill="#000000" fill-rule="evenodd" fill-opacity="1" /><path clip-path="url(#clip750)" d="M1037.49 27.2059 L1044.94 27.2059 L1044.94 72.576 L1037.49 72.576 L1037.49 27.2059 M1037.49 9.54393 L1044.94 9.54393 L1044.94 18.9825 L1037.49 18.9825 L1037.49 9.54393 Z" fill="#000000" fill-rule="evenodd" fill-opacity="1" /><path clip-path="url(#clip750)" d="M1067.91 14.324 L1067.91 27.2059 L1083.26 27.2059 L1083.26 32.9987 L1067.91 32.9987 L1067.91 57.6282 Q1067.91 63.1779 1069.41 64.7578 Q1070.95 66.3376 1075.61 66.3376 L1083.26 66.3376 L1083.26 72.576 L1075.61 72.576 Q1066.98 72.576 1063.7 69.3758 Q1060.42 66.1351 1060.42 57.6282 L1060.42 32.9987 L1054.95 32.9987 L1054.95 27.2059 L1060.42 27.2059 L1060.42 14.324 L1067.91 14.324 Z" fill="#000000" fill-rule="evenodd" fill-opacity="1" /><path clip-path="url(#clip750)" d="M1130.78 45.1919 L1130.78 72.576 L1123.33 72.576 L1123.33 45.4349 Q1123.33 38.994 1120.81 35.7938 Q1118.3 32.5936 1113.28 32.5936 Q1107.24 32.5936 1103.76 36.4419 Q1100.28 40.2903 1100.28 46.9338 L1100.28 72.576 L1092.78 72.576 L1092.78 9.54393 L1100.28 9.54393 L1100.28 34.2544 Q1102.95 30.163 1106.56 28.1376 Q1110.2 26.1121 1114.94 26.1121 Q1122.76 26.1121 1126.77 30.9732 Q1130.78 35.7938 1130.78 45.1919 Z" fill="#000000" fill-rule="evenodd" fill-opacity="1" /><path clip-path="url(#clip750)" d="M1172.34 12.096 L1207.1 12.096 L1207.1 18.9825 L1180.53 18.9825 L1180.53 36.8065 L1204.51 36.8065 L1204.51 43.6931 L1180.53 43.6931 L1180.53 72.576 L1172.34 72.576 L1172.34 12.096 Z" fill="#000000" fill-rule="evenodd" fill-opacity="1" /><path clip-path="url(#clip750)" d="M1239.99 34.1734 Q1238.74 33.4443 1237.24 33.1202 Q1235.78 32.7556 1234 32.7556 Q1227.68 32.7556 1224.28 36.8875 Q1220.91 40.9789 1220.91 48.6757 L1220.91 72.576 L1213.42 72.576 L1213.42 27.2059 L1220.91 27.2059 L1220.91 34.2544 Q1223.26 30.1225 1227.03 28.1376 Q1230.8 26.1121 1236.18 26.1121 Q1236.95 26.1121 1237.89 26.2337 Q1238.82 26.3147 1239.95 26.5172 L1239.99 34.1734 Z" fill="#000000" fill-rule="evenodd" fill-opacity="1" /><path clip-path="url(#clip750)" d="M1263.57 32.4315 Q1257.57 32.4315 1254.09 37.1306 Q1250.61 41.7891 1250.61 49.9314 Q1250.61 58.0738 1254.05 62.7728 Q1257.53 67.4314 1263.57 67.4314 Q1269.52 67.4314 1273.01 62.7323 Q1276.49 58.0333 1276.49 49.9314 Q1276.49 41.8701 1273.01 37.1711 Q1269.52 32.4315 1263.57 32.4315 M1263.57 26.1121 Q1273.29 26.1121 1278.84 32.4315 Q1284.39 38.7509 1284.39 49.9314 Q1284.39 61.0714 1278.84 67.4314 Q1273.29 73.7508 1263.57 73.7508 Q1253.81 73.7508 1248.26 67.4314 Q1242.75 61.0714 1242.75 49.9314 Q1242.75 38.7509 1248.26 32.4315 Q1253.81 26.1121 1263.57 26.1121 Z" fill="#000000" fill-rule="evenodd" fill-opacity="1" /><path clip-path="url(#clip750)" d="M1329.31 49.9314 Q1329.31 41.7081 1325.91 37.0496 Q1322.55 32.3505 1316.64 32.3505 Q1310.72 32.3505 1307.32 37.0496 Q1303.96 41.7081 1303.96 49.9314 Q1303.96 58.1548 1307.32 62.8538 Q1310.72 67.5124 1316.64 67.5124 Q1322.55 67.5124 1325.91 62.8538 Q1329.31 58.1548 1329.31 49.9314 M1303.96 34.0924 Q1306.31 30.0415 1309.87 28.0971 Q1313.48 26.1121 1318.46 26.1121 Q1326.72 26.1121 1331.87 32.6746 Q1337.05 39.2371 1337.05 49.9314 Q1337.05 60.6258 1331.87 67.1883 Q1326.72 73.7508 1318.46 73.7508 Q1313.48 73.7508 1309.87 71.8063 Q1306.31 69.8214 1303.96 65.7705 L1303.96 72.576 L1296.46 72.576 L1296.46 9.54393 L1303.96 9.54393 L1303.96 34.0924 Z" fill="#000000" fill-rule="evenodd" fill-opacity="1" /><path clip-path="url(#clip750)" d="M1388.22 48.0275 L1388.22 51.6733 L1353.94 51.6733 Q1354.43 59.3701 1358.56 63.421 Q1362.73 67.4314 1370.15 67.4314 Q1374.44 67.4314 1378.45 66.3781 Q1382.5 65.3249 1386.47 63.2184 L1386.47 70.267 Q1382.46 71.9684 1378.25 72.8596 Q1374.04 73.7508 1369.7 73.7508 Q1358.85 73.7508 1352.49 67.4314 Q1346.17 61.1119 1346.17 50.3365 Q1346.17 39.1965 1352.16 32.6746 Q1358.2 26.1121 1368.41 26.1121 Q1377.56 26.1121 1382.87 32.0264 Q1388.22 37.9003 1388.22 48.0275 M1380.76 45.84 Q1380.68 39.7232 1377.32 36.0774 Q1374 32.4315 1368.49 32.4315 Q1362.25 32.4315 1358.48 35.9558 Q1354.75 39.4801 1354.19 45.8805 L1380.76 45.84 Z" fill="#000000" fill-rule="evenodd" fill-opacity="1" /><path clip-path="url(#clip750)" d="M1438.16 45.1919 L1438.16 72.576 L1430.71 72.576 L1430.71 45.4349 Q1430.71 38.994 1428.2 35.7938 Q1425.69 32.5936 1420.66 32.5936 Q1414.63 32.5936 1411.14 36.4419 Q1407.66 40.2903 1407.66 46.9338 L1407.66 72.576 L1400.17 72.576 L1400.17 27.2059 L1407.66 27.2059 L1407.66 34.2544 Q1410.33 30.163 1413.94 28.1376 Q1417.58 26.1121 1422.32 26.1121 Q1430.14 26.1121 1434.15 30.9732 Q1438.16 35.7938 1438.16 45.1919 Z" fill="#000000" fill-rule="evenodd" fill-opacity="1" /><path clip-path="url(#clip750)" d="M1453.03 27.2059 L1460.48 27.2059 L1460.48 72.576 L1453.03 72.576 L1453.03 27.2059 M1453.03 9.54393 L1460.48 9.54393 L1460.48 18.9825 L1453.03 18.9825 L1453.03 9.54393 Z" fill="#000000" fill-rule="evenodd" fill-opacity="1" /><path clip-path="url(#clip750)" d="M1475.31 54.671 L1475.31 27.2059 L1482.76 27.2059 L1482.76 54.3874 Q1482.76 60.8284 1485.27 64.0691 Q1487.79 67.2693 1492.81 67.2693 Q1498.85 67.2693 1502.33 63.421 Q1505.85 59.5726 1505.85 52.9291 L1505.85 27.2059 L1513.31 27.2059 L1513.31 72.576 L1505.85 72.576 L1505.85 65.6084 Q1503.14 69.7404 1499.53 71.7658 Q1495.97 73.7508 1491.23 73.7508 Q1483.41 73.7508 1479.36 68.8897 Q1475.31 64.0286 1475.31 54.671 M1494.07 26.1121 L1494.07 26.1121 Z" fill="#000000" fill-rule="evenodd" fill-opacity="1" /><path clip-path="url(#clip750)" d="M1557.58 28.5427 L1557.58 35.5912 Q1554.42 33.9709 1551.02 33.1607 Q1547.62 32.3505 1543.97 32.3505 Q1538.42 32.3505 1535.63 34.0519 Q1532.87 35.7533 1532.87 39.156 Q1532.87 41.7486 1534.86 43.2475 Q1536.84 44.7058 1542.84 46.0426 L1545.39 46.6097 Q1553.33 48.3111 1556.65 51.4303 Q1560.01 54.509 1560.01 60.0587 Q1560.01 66.3781 1554.99 70.0644 Q1550.01 73.7508 1541.26 73.7508 Q1537.61 73.7508 1533.64 73.0216 Q1529.71 72.3329 1525.34 70.9151 L1525.34 63.2184 Q1529.47 65.3654 1533.48 66.4591 Q1537.49 67.5124 1541.42 67.5124 Q1546.69 67.5124 1549.52 65.73 Q1552.36 63.9071 1552.36 60.6258 Q1552.36 57.5877 1550.29 55.9673 Q1548.27 54.3469 1541.34 52.8481 L1538.75 52.2405 Q1531.82 50.7821 1528.74 47.7845 Q1525.66 44.7463 1525.66 39.4801 Q1525.66 33.0797 1530.2 29.5959 Q1534.74 26.1121 1543.08 26.1121 Q1547.21 26.1121 1550.86 26.7198 Q1554.5 27.3274 1557.58 28.5427 Z" fill="#000000" fill-rule="evenodd" fill-opacity="1" /><path clip-path="url(#clip750)" d="M1598.25 9.54393 L1605.71 9.54393 L1605.71 72.576 L1598.25 72.576 L1598.25 9.54393 Z" fill="#000000" fill-rule="evenodd" fill-opacity="1" /><path clip-path="url(#clip750)" d="M1638.89 32.4315 Q1632.89 32.4315 1629.41 37.1306 Q1625.92 41.7891 1625.92 49.9314 Q1625.92 58.0738 1629.37 62.7728 Q1632.85 67.4314 1638.89 67.4314 Q1644.84 67.4314 1648.32 62.7323 Q1651.81 58.0333 1651.81 49.9314 Q1651.81 41.8701 1648.32 37.1711 Q1644.84 32.4315 1638.89 32.4315 M1638.89 26.1121 Q1648.61 26.1121 1654.16 32.4315 Q1659.71 38.7509 1659.71 49.9314 Q1659.71 61.0714 1654.16 67.4314 Q1648.61 73.7508 1638.89 73.7508 Q1629.12 73.7508 1623.57 67.4314 Q1618.06 61.0714 1618.06 49.9314 Q1618.06 38.7509 1623.57 32.4315 Q1629.12 26.1121 1638.89 26.1121 Z" fill="#000000" fill-rule="evenodd" fill-opacity="1" /><path clip-path="url(#clip750)" d="M1700.99 28.5427 L1700.99 35.5912 Q1697.83 33.9709 1694.42 33.1607 Q1691.02 32.3505 1687.37 32.3505 Q1681.82 32.3505 1679.03 34.0519 Q1676.27 35.7533 1676.27 39.156 Q1676.27 41.7486 1678.26 43.2475 Q1680.24 44.7058 1686.24 46.0426 L1688.79 46.6097 Q1696.73 48.3111 1700.05 51.4303 Q1703.42 54.509 1703.42 60.0587 Q1703.42 66.3781 1698.39 70.0644 Q1693.41 73.7508 1684.66 73.7508 Q1681.01 73.7508 1677.04 73.0216 Q1673.12 72.3329 1668.74 70.9151 L1668.74 63.2184 Q1672.87 65.3654 1676.88 66.4591 Q1680.89 67.5124 1684.82 67.5124 Q1690.09 67.5124 1692.92 65.73 Q1695.76 63.9071 1695.76 60.6258 Q1695.76 57.5877 1693.69 55.9673 Q1691.67 54.3469 1684.74 52.8481 L1682.15 52.2405 Q1675.22 50.7821 1672.14 47.7845 Q1669.06 44.7463 1669.06 39.4801 Q1669.06 33.0797 1673.6 29.5959 Q1678.14 26.1121 1686.48 26.1121 Q1690.62 26.1121 1694.26 26.7198 Q1697.91 27.3274 1700.99 28.5427 Z" fill="#000000" fill-rule="evenodd" fill-opacity="1" /><path clip-path="url(#clip750)" d="M1744.21 28.5427 L1744.21 35.5912 Q1741.05 33.9709 1737.65 33.1607 Q1734.24 32.3505 1730.6 32.3505 Q1725.05 32.3505 1722.25 34.0519 Q1719.5 35.7533 1719.5 39.156 Q1719.5 41.7486 1721.48 43.2475 Q1723.47 44.7058 1729.46 46.0426 L1732.02 46.6097 Q1739.96 48.3111 1743.28 51.4303 Q1746.64 54.509 1746.64 60.0587 Q1746.64 66.3781 1741.62 70.0644 Q1736.63 73.7508 1727.88 73.7508 Q1724.24 73.7508 1720.27 73.0216 Q1716.34 72.3329 1711.96 70.9151 L1711.96 63.2184 Q1716.1 65.3654 1720.11 66.4591 Q1724.12 67.5124 1728.05 67.5124 Q1733.31 67.5124 1736.15 65.73 Q1738.98 63.9071 1738.98 60.6258 Q1738.98 57.5877 1736.92 55.9673 Q1734.89 54.3469 1727.96 52.8481 L1725.37 52.2405 Q1718.44 50.7821 1715.37 47.7845 Q1712.29 44.7463 1712.29 39.4801 Q1712.29 33.0797 1716.82 29.5959 Q1721.36 26.1121 1729.71 26.1121 Q1733.84 26.1121 1737.48 26.7198 Q1741.13 27.3274 1744.21 28.5427 Z" fill="#000000" fill-rule="evenodd" fill-opacity="1" /><polyline clip-path="url(#clip752)" style="stroke:#e31a1c; stroke-linecap:butt; stroke-linejoin:round; stroke-width:4; stroke-opacity:1; fill:none" points="
  218.281,1447.87 239.214,1447.87 260.146,1447.87 281.078,1447.87 302.011,1447.87 322.943,1447.87 343.876,1447.87 364.808,1447.86 385.74,1447.21 406.673,1443.97 
  427.605,1441.41 448.537,1437.92 469.47,1432.91 490.402,1425.42 511.335,1413.41 532.267,1393.26 553.199,1359.66 574.132,1306.6 595.064,1229.36 615.996,1127.06 
  636.929,1004.24 657.861,870.63 678.794,739.526 699.726,626.173 720.658,546.55 741.591,514.929 762.523,541.344 783.456,626.097 804.388,745.366 825.32,905.338 
  846.253,1063.29 867.185,1194.86 888.117,1293.07 909.05,1356.21 929.982,1393.27 950.915,1417.62 971.847,1437.78 992.779,1447.87 1013.71,1447.87 1034.64,1447.87 
  1055.58,1447.87 1076.51,1447.87 1097.44,1447.87 1118.37,1447.87 1139.31,1447.87 1160.24,1418.9 1181.17,1275.93 1202.1,1091.62 1223.04,884.945 1243.97,682.994 
  1264.9,515.725 1285.83,409.223 1306.76,389.581 1327.7,473.17 1348.63,605.422 1369.56,767.332 1390.49,938.514 1411.43,1090.41 1432.36,1210.18 1453.29,1296.44 
  1474.22,1353.9 1495.16,1389.91 1516.09,1411.9 1537.02,1426.76 1557.95,1441.13 1578.89,1447.87 1599.82,1447.87 1620.75,1447.87 1641.68,1447.87 1662.62,1447.87 
  1683.55,1447.66 1704.48,1401.7 1725.41,1252.94 1746.34,1063.59 1767.28,888.907 1788.21,734.731 1809.14,635.867 1830.07,564.214 1851.01,653.669 1871.94,777.374 
  1892.87,914.763 1913.8,1047.13 1934.74,1161.88 1955.67,1253.54 1976.6,1322.13 1997.53,1370.63 2018.47,1403.1 2039.4,1423.52 2060.33,1435.75 2081.26,1442.31 
  2102.2,1445.52 2123.13,1446.97 2144.06,1447.55 2164.99,1447.77 2185.92,1447.84 2206.86,1447.87 2227.79,1447.87 2248.72,1447.87 2269.65,1447.87 2290.59,1447.87 
  
  "/>
<polyline clip-path="url(#clip752)" style="stroke:#377db8; stroke-linecap:butt; stroke-linejoin:round; stroke-width:4; stroke-opacity:1; fill:none" points="
  218.281,1447.86 239.214,1447.84 260.146,1447.76 281.078,1447.55 302.011,1447.08 322.943,1446.14 343.876,1444.48 364.808,1441.92 385.74,1438.66 406.673,1435.65 
  427.605,1432.5 448.537,1430.29 469.47,1429.32 490.402,1429.14 511.335,1428.32 532.267,1424.43 553.199,1414.25 574.132,1394.52 595.064,1363.36 615.996,1321.92 
  636.929,1275.33 657.861,1232.24 678.794,1202.51 699.726,1193.8 720.658,1208.51 741.591,1242.05 762.523,1285.47 783.456,1333.57 804.388,1429.39 825.32,1446.58 
  846.253,1447.26 867.185,1445.73 888.117,1431.12 909.05,1423.38 929.982,1418.25 950.915,1400.27 971.847,1362.42 992.779,1300.98 1013.71,1211.73 1034.64,1096.5 
  1055.58,953.621 1076.51,787.154 1097.44,611.62 1118.37,448.612 1139.31,322.77 1160.24,265.713 1181.17,317.676 1202.1,450.43 1223.04,644.148 1243.97,871.753 
  1264.9,1104.08 1285.83,1313.96 1306.76,1447.87 1327.7,1447.87 1348.63,1447.87 1369.56,1447.87 1390.49,1447.87 1411.43,1447.87 1432.36,1447.87 1453.29,1447.87 
  1474.22,1447.87 1495.16,1447.87 1516.09,1447.87 1537.02,1447.87 1557.95,1447.87 1578.89,1447.87 1599.82,1447.87 1620.75,1447.87 1641.68,1447.87 1662.62,1447.87 
  1683.55,1447.87 1704.48,1447.84 1725.41,1447.62 1746.34,1433.96 1767.28,1333.08 1788.21,1280.22 1809.14,1247.17 1830.07,1198.08 1851.01,1236.06 1871.94,1273.97 
  1892.87,1310.93 1913.8,1346.31 1934.74,1378.56 1955.67,1405.46 1976.6,1425.28 1997.53,1437.87 2018.47,1444.61 2039.4,1447.62 2060.33,1447.87 2081.26,1447.87 
  2102.2,1447.87 2123.13,1447.87 2144.06,1447.87 2164.99,1447.87 2185.92,1447.87 2206.86,1447.87 2227.79,1447.87 2248.72,1447.87 2269.65,1447.87 2290.59,1447.87 
  
  "/>
<polyline clip-path="url(#clip752)" style="stroke:#4dae49; stroke-linecap:butt; stroke-linejoin:round; stroke-width:4; stroke-opacity:1; fill:none" points="
  218.281,1447.87 239.214,1447.86 260.146,1447.84 281.078,1447.79 302.011,1447.66 322.943,1447.4 343.876,1446.95 364.808,1446.24 385.74,1445.33 406.673,1444.93 
  427.605,1443.9 448.537,1442.26 469.47,1439.76 490.402,1436.1 511.335,1431.41 532.267,1426.44 553.199,1422.41 574.132,1420.41 595.064,1420.74 615.996,1422.58 
  636.929,1424.31 657.861,1424.03 678.794,1419.64 699.726,1408.3 720.658,1387.41 741.591,1359.14 762.523,1328.61 783.456,1300.24 804.388,1271.75 825.32,1270.77 
  846.253,1283.43 867.185,1304.42 888.117,1330.55 909.05,1353.37 929.982,1370.06 950.915,1383.73 971.847,1396.96 992.779,1415.36 1013.71,1439.71 1034.64,1447.87 
  1055.58,1447.87 1076.51,1447.87 1097.44,1447.87 1118.37,1447.87 1139.31,1447.45 1160.24,1445.66 1181.17,1447.62 1202.1,1447.87 1223.04,1447.87 1243.97,1447.87 
  1264.9,1447.87 1285.83,1447.87 1306.76,1447.87 1327.7,1447.87 1348.63,1447.8 1369.56,1441.43 1390.49,1419.77 1411.43,1405.58 1432.36,1401.9 1453.29,1405.23 
  1474.22,1411.17 1495.16,1413.75 1516.09,1405.65 1537.02,1377.7 1557.95,1318.67 1578.89,1221.92 1599.82,1080.37 1620.75,892.66 1641.68,673.164 1662.62,450.464 
  1683.55,262.16 1704.48,162.047 1725.41,193.991 1746.34,338.808 1767.28,579.343 1788.21,844.739 1809.14,1098.17 1830.07,1447.87 1851.01,1447.87 1871.94,1447.87 
  1892.87,1447.87 1913.8,1447.87 1934.74,1447.87 1955.67,1447.87 1976.6,1447.87 1997.53,1447.87 2018.47,1447.87 2039.4,1447.87 2060.33,1447.87 2081.26,1447.87 
  2102.2,1447.87 2123.13,1447.87 2144.06,1447.87 2164.99,1447.87 2185.92,1447.87 2206.86,1447.87 2227.79,1447.87 2248.72,1447.87 2269.65,1447.87 2290.59,1447.87 
  
  "/>
<path clip-path="url(#clip750)" d="
M1986.53 376.265 L2279.53 376.265 L2279.53 168.905 L1986.53 168.905  Z
  " fill="#ffffff" fill-rule="evenodd" fill-opacity="1"/>
<polyline clip-path="url(#clip750)" style="stroke:#000000; stroke-linecap:butt; stroke-linejoin:round; stroke-width:4; stroke-opacity:1; fill:none" points="
  1986.53,376.265 2279.53,376.265 2279.53,168.905 1986.53,168.905 1986.53,376.265 
  "/>
<polyline clip-path="url(#clip750)" style="stroke:#e31a1c; stroke-linecap:butt; stroke-linejoin:round; stroke-width:4; stroke-opacity:1; fill:none" points="
  2010.53,220.745 2154.53,220.745 
  "/>
<path clip-path="url(#clip750)" d="M2192.37 240.432 Q2190.56 245.062 2188.85 246.474 Q2187.14 247.886 2184.27 247.886 L2180.86 247.886 L2180.86 244.321 L2183.36 244.321 Q2185.12 244.321 2186.09 243.488 Q2187.07 242.654 2188.25 239.552 L2189.01 237.608 L2178.53 212.099 L2183.04 212.099 L2191.14 232.377 L2199.24 212.099 L2203.76 212.099 L2192.37 240.432 Z" fill="#000000" fill-rule="evenodd" fill-opacity="1" /><path clip-path="url(#clip750)" d="M2211.05 234.089 L2218.69 234.089 L2218.69 207.724 L2210.38 209.391 L2210.38 205.131 L2218.64 203.465 L2223.32 203.465 L2223.32 234.089 L2230.96 234.089 L2230.96 238.025 L2211.05 238.025 L2211.05 234.089 Z" fill="#000000" fill-rule="evenodd" fill-opacity="1" /><polyline clip-path="url(#clip750)" style="stroke:#377db8; stroke-linecap:butt; stroke-linejoin:round; stroke-width:4; stroke-opacity:1; fill:none" points="
  2010.53,272.585 2154.53,272.585 
  "/>
<path clip-path="url(#clip750)" d="M2192.37 292.272 Q2190.56 296.902 2188.85 298.314 Q2187.14 299.726 2184.27 299.726 L2180.86 299.726 L2180.86 296.161 L2183.36 296.161 Q2185.12 296.161 2186.09 295.328 Q2187.07 294.494 2188.25 291.392 L2189.01 289.448 L2178.53 263.939 L2183.04 263.939 L2191.14 284.217 L2199.24 263.939 L2203.76 263.939 L2192.37 292.272 Z" fill="#000000" fill-rule="evenodd" fill-opacity="1" /><path clip-path="url(#clip750)" d="M2214.27 285.929 L2230.59 285.929 L2230.59 289.865 L2208.64 289.865 L2208.64 285.929 Q2211.3 283.175 2215.89 278.545 Q2220.49 273.893 2221.67 272.55 Q2223.92 270.027 2224.8 268.291 Q2225.7 266.531 2225.7 264.842 Q2225.7 262.087 2223.76 260.351 Q2221.84 258.615 2218.73 258.615 Q2216.53 258.615 2214.08 259.379 Q2211.65 260.143 2208.87 261.694 L2208.87 256.971 Q2211.7 255.837 2214.15 255.258 Q2216.6 254.68 2218.64 254.68 Q2224.01 254.68 2227.21 257.365 Q2230.4 260.05 2230.4 264.541 Q2230.4 266.67 2229.59 268.592 Q2228.8 270.49 2226.7 273.082 Q2226.12 273.754 2223.02 276.971 Q2219.91 280.166 2214.27 285.929 Z" fill="#000000" fill-rule="evenodd" fill-opacity="1" /><polyline clip-path="url(#clip750)" style="stroke:#4dae49; stroke-linecap:butt; stroke-linejoin:round; stroke-width:4; stroke-opacity:1; fill:none" points="
  2010.53,324.425 2154.53,324.425 
  "/>
<path clip-path="url(#clip750)" d="M2192.37 344.112 Q2190.56 348.742 2188.85 350.154 Q2187.14 351.566 2184.27 351.566 L2180.86 351.566 L2180.86 348.001 L2183.36 348.001 Q2185.12 348.001 2186.09 347.168 Q2187.07 346.334 2188.25 343.232 L2189.01 341.288 L2178.53 315.779 L2183.04 315.779 L2191.14 336.057 L2199.24 315.779 L2203.76 315.779 L2192.37 344.112 Z" fill="#000000" fill-rule="evenodd" fill-opacity="1" /><path clip-path="url(#clip750)" d="M2224.4 323.07 Q2227.76 323.788 2229.64 326.057 Q2231.53 328.325 2231.53 331.658 Q2231.53 336.774 2228.02 339.575 Q2224.5 342.376 2218.02 342.376 Q2215.84 342.376 2213.53 341.936 Q2211.23 341.519 2208.78 340.663 L2208.78 336.149 Q2210.72 337.283 2213.04 337.862 Q2215.35 338.441 2217.88 338.441 Q2222.28 338.441 2224.57 336.705 Q2226.88 334.969 2226.88 331.658 Q2226.88 328.603 2224.73 326.89 Q2222.6 325.154 2218.78 325.154 L2214.75 325.154 L2214.75 321.311 L2218.97 321.311 Q2222.41 321.311 2224.24 319.946 Q2226.07 318.557 2226.07 315.964 Q2226.07 313.302 2224.17 311.89 Q2222.3 310.455 2218.78 310.455 Q2216.86 310.455 2214.66 310.871 Q2212.46 311.288 2209.82 312.168 L2209.82 308.001 Q2212.48 307.26 2214.8 306.89 Q2217.14 306.52 2219.2 306.52 Q2224.52 306.52 2227.62 308.95 Q2230.72 311.358 2230.72 315.478 Q2230.72 318.348 2229.08 320.339 Q2227.44 322.307 2224.4 323.07 Z" fill="#000000" fill-rule="evenodd" fill-opacity="1" /></svg>
