<?xml version="1.0" encoding="utf-8"?>
<svg xmlns="http://www.w3.org/2000/svg" xmlns:xlink="http://www.w3.org/1999/xlink" width="800" height="400" viewBox="0 0 3200 1600">
<defs>
  <clipPath id="clip480">
    <rect x="0" y="0" width="3200" height="1600"/>
  </clipPath>
</defs>
<path clip-path="url(#clip480)" d="M0 1600 L3200 1600 L3200 0 L0 0  Z" fill="#ffffff" fill-rule="evenodd" fill-opacity="1"/>
<defs>
  <clipPath id="clip481">
    <rect x="640" y="0" width="2241" height="1600"/>
  </clipPath>
</defs>
<path clip-path="url(#clip480)" d="M194.76 1495.09 L2461.03 1495.09 L2461.03 47.2441 L194.76 47.2441  Z" fill="#ffffff" fill-rule="evenodd" fill-opacity="1"/>
<defs>
  <clipPath id="clip482">
    <rect x="194" y="47" width="2267" height="1449"/>
  </clipPath>
</defs>
<polyline clip-path="url(#clip482)" style="stroke:#000000; stroke-linecap:round; stroke-linejoin:round; stroke-width:2; stroke-opacity:0.1; fill:none" points="258.9,1495.09 258.9,47.2441 "/>
<polyline clip-path="url(#clip482)" style="stroke:#000000; stroke-linecap:round; stroke-linejoin:round; stroke-width:2; stroke-opacity:0.1; fill:none" points="793.398,1495.09 793.398,47.2441 "/>
<polyline clip-path="url(#clip482)" style="stroke:#000000; stroke-linecap:round; stroke-linejoin:round; stroke-width:2; stroke-opacity:0.1; fill:none" points="1327.9,1495.09 1327.9,47.2441 "/>
<polyline clip-path="url(#clip482)" style="stroke:#000000; stroke-linecap:round; stroke-linejoin:round; stroke-width:2; stroke-opacity:0.1; fill:none" points="1862.39,1495.09 1862.39,47.2441 "/>
<polyline clip-path="url(#clip482)" style="stroke:#000000; stroke-linecap:round; stroke-linejoin:round; stroke-width:2; stroke-opacity:0.1; fill:none" points="2396.89,1495.09 2396.89,47.2441 "/>
<polyline clip-path="url(#clip482)" style="stroke:#000000; stroke-linecap:round; stroke-linejoin:round; stroke-width:2; stroke-opacity:0.1; fill:none" points="194.76,1454.11 2461.03,1454.11 "/>
<polyline clip-path="url(#clip482)" style="stroke:#000000; stroke-linecap:round; stroke-linejoin:round; stroke-width:2; stroke-opacity:0.1; fill:none" points="194.76,1152.58 2461.03,1152.58 "/>
<polyline clip-path="url(#clip482)" style="stroke:#000000; stroke-linecap:round; stroke-linejoin:round; stroke-width:2; stroke-opacity:0.1; fill:none" points="194.76,851.045 2461.03,851.045 "/>
<polyline clip-path="url(#clip482)" style="stroke:#000000; stroke-linecap:round; stroke-linejoin:round; stroke-width:2; stroke-opacity:0.1; fill:none" points="194.76,549.511 2461.03,549.511 "/>
<polyline clip-path="url(#clip482)" style="stroke:#000000; stroke-linecap:round; stroke-linejoin:round; stroke-width:2; stroke-opacity:0.1; fill:none" points="194.76,247.978 2461.03,247.978 "/>
<polyline clip-path="url(#clip480)" style="stroke:#000000; stroke-linecap:round; stroke-linejoin:round; stroke-width:4; stroke-opacity:1; fill:none" points="194.76,1495.09 2461.03,1495.09 "/>
<polyline clip-path="url(#clip480)" style="stroke:#000000; stroke-linecap:round; stroke-linejoin:round; stroke-width:4; stroke-opacity:1; fill:none" points="258.9,1495.09 258.9,1476.19 "/>
<polyline clip-path="url(#clip480)" style="stroke:#000000; stroke-linecap:round; stroke-linejoin:round; stroke-width:4; stroke-opacity:1; fill:none" points="793.398,1495.09 793.398,1476.19 "/>
<polyline clip-path="url(#clip480)" style="stroke:#000000; stroke-linecap:round; stroke-linejoin:round; stroke-width:4; stroke-opacity:1; fill:none" points="1327.9,1495.09 1327.9,1476.19 "/>
<polyline clip-path="url(#clip480)" style="stroke:#000000; stroke-linecap:round; stroke-linejoin:round; stroke-width:4; stroke-opacity:1; fill:none" points="1862.39,1495.09 1862.39,1476.19 "/>
<polyline clip-path="url(#clip480)" style="stroke:#000000; stroke-linecap:round; stroke-linejoin:round; stroke-width:4; stroke-opacity:1; fill:none" points="2396.89,1495.09 2396.89,1476.19 "/>
<path clip-path="url(#clip480)" d="M205.428 1547.06 L235.104 1547.06 L235.104 1550.99 L205.428 1550.99 L205.428 1547.06 Z" fill="#000000" fill-rule="nonzero" fill-opacity="1" /><path clip-path="url(#clip480)" d="M246.006 1559.95 L253.645 1559.95 L253.645 1533.59 L245.335 1535.25 L245.335 1530.99 L253.599 1529.33 L258.275 1529.33 L258.275 1559.95 L265.914 1559.95 L265.914 1563.89 L246.006 1563.89 L246.006 1559.95 Z" fill="#000000" fill-rule="nonzero" fill-opacity="1" /><path clip-path="url(#clip480)" d="M275.358 1558.01 L280.242 1558.01 L280.242 1563.89 L275.358 1563.89 L275.358 1558.01 Z" fill="#000000" fill-rule="nonzero" fill-opacity="1" /><path clip-path="url(#clip480)" d="M300.427 1532.41 Q296.816 1532.41 294.988 1535.97 Q293.182 1539.51 293.182 1546.64 Q293.182 1553.75 294.988 1557.31 Q296.816 1560.86 300.427 1560.86 Q304.062 1560.86 305.867 1557.31 Q307.696 1553.75 307.696 1546.64 Q307.696 1539.51 305.867 1535.97 Q304.062 1532.41 300.427 1532.41 M300.427 1528.7 Q306.238 1528.7 309.293 1533.31 Q312.372 1537.89 312.372 1546.64 Q312.372 1555.37 309.293 1559.98 Q306.238 1564.56 300.427 1564.56 Q294.617 1564.56 291.539 1559.98 Q288.483 1555.37 288.483 1546.64 Q288.483 1537.89 291.539 1533.31 Q294.617 1528.7 300.427 1528.7 Z" fill="#000000" fill-rule="nonzero" fill-opacity="1" /><path clip-path="url(#clip480)" d="M740.424 1547.06 L770.1 1547.06 L770.1 1550.99 L740.424 1550.99 L740.424 1547.06 Z" fill="#000000" fill-rule="nonzero" fill-opacity="1" /><path clip-path="url(#clip480)" d="M790.192 1532.41 Q786.581 1532.41 784.752 1535.97 Q782.947 1539.51 782.947 1546.64 Q782.947 1553.75 784.752 1557.31 Q786.581 1560.86 790.192 1560.86 Q793.826 1560.86 795.632 1557.31 Q797.461 1553.75 797.461 1546.64 Q797.461 1539.51 795.632 1535.97 Q793.826 1532.41 790.192 1532.41 M790.192 1528.7 Q796.002 1528.7 799.058 1533.31 Q802.136 1537.89 802.136 1546.64 Q802.136 1555.37 799.058 1559.98 Q796.002 1564.56 790.192 1564.56 Q784.382 1564.56 781.303 1559.98 Q778.248 1555.37 778.248 1546.64 Q778.248 1537.89 781.303 1533.31 Q784.382 1528.7 790.192 1528.7 Z" fill="#000000" fill-rule="nonzero" fill-opacity="1" /><path clip-path="url(#clip480)" d="M810.354 1558.01 L815.238 1558.01 L815.238 1563.89 L810.354 1563.89 L810.354 1558.01 Z" fill="#000000" fill-rule="nonzero" fill-opacity="1" /><path clip-path="url(#clip480)" d="M825.47 1529.33 L843.826 1529.33 L843.826 1533.26 L829.752 1533.26 L829.752 1541.74 Q830.771 1541.39 831.789 1541.23 Q832.808 1541.04 833.826 1541.04 Q839.613 1541.04 842.993 1544.21 Q846.372 1547.38 846.372 1552.8 Q846.372 1558.38 842.9 1561.48 Q839.428 1564.56 833.109 1564.56 Q830.933 1564.56 828.664 1564.19 Q826.419 1563.82 824.011 1563.08 L824.011 1558.38 Q826.095 1559.51 828.317 1560.07 Q830.539 1560.62 833.016 1560.62 Q837.021 1560.62 839.358 1558.52 Q841.696 1556.41 841.696 1552.8 Q841.696 1549.19 839.358 1547.08 Q837.021 1544.98 833.016 1544.98 Q831.141 1544.98 829.266 1545.39 Q827.414 1545.81 825.47 1546.69 L825.47 1529.33 Z" fill="#000000" fill-rule="nonzero" fill-opacity="1" /><path clip-path="url(#clip480)" d="M1305.28 1532.41 Q1301.67 1532.41 1299.84 1535.97 Q1298.04 1539.51 1298.04 1546.64 Q1298.04 1553.75 1299.84 1557.31 Q1301.67 1560.86 1305.28 1560.86 Q1308.91 1560.86 1310.72 1557.31 Q1312.55 1553.75 1312.55 1546.64 Q1312.55 1539.51 1310.72 1535.97 Q1308.91 1532.41 1305.28 1532.41 M1305.28 1528.7 Q1311.09 1528.7 1314.15 1533.31 Q1317.23 1537.89 1317.23 1546.64 Q1317.23 1555.37 1314.15 1559.98 Q1311.09 1564.56 1305.28 1564.56 Q1299.47 1564.56 1296.39 1559.98 Q1293.34 1555.37 1293.34 1546.64 Q1293.34 1537.89 1296.39 1533.31 Q1299.47 1528.7 1305.28 1528.7 Z" fill="#000000" fill-rule="nonzero" fill-opacity="1" /><path clip-path="url(#clip480)" d="M1325.44 1558.01 L1330.33 1558.01 L1330.33 1563.89 L1325.44 1563.89 L1325.44 1558.01 Z" fill="#000000" fill-rule="nonzero" fill-opacity="1" /><path clip-path="url(#clip480)" d="M1350.51 1532.41 Q1346.9 1532.41 1345.07 1535.97 Q1343.27 1539.51 1343.27 1546.64 Q1343.27 1553.75 1345.07 1557.31 Q1346.9 1560.86 1350.51 1560.86 Q1354.15 1560.86 1355.95 1557.31 Q1357.78 1553.75 1357.78 1546.64 Q1357.78 1539.51 1355.95 1535.97 Q1354.15 1532.41 1350.51 1532.41 M1350.51 1528.7 Q1356.32 1528.7 1359.38 1533.31 Q1362.46 1537.89 1362.46 1546.64 Q1362.46 1555.37 1359.38 1559.98 Q1356.32 1564.56 1350.51 1564.56 Q1344.7 1564.56 1341.62 1559.98 Q1338.57 1555.37 1338.57 1546.64 Q1338.57 1537.89 1341.62 1533.31 Q1344.7 1528.7 1350.51 1528.7 Z" fill="#000000" fill-rule="nonzero" fill-opacity="1" /><path clip-path="url(#clip480)" d="M1840.28 1532.41 Q1836.67 1532.41 1834.84 1535.97 Q1833.03 1539.51 1833.03 1546.64 Q1833.03 1553.75 1834.84 1557.31 Q1836.67 1560.86 1840.28 1560.86 Q1843.91 1560.86 1845.72 1557.31 Q1847.54 1553.75 1847.54 1546.64 Q1847.54 1539.51 1845.72 1535.97 Q1843.91 1532.41 1840.28 1532.41 M1840.28 1528.7 Q1846.09 1528.7 1849.14 1533.31 Q1852.22 1537.89 1852.22 1546.64 Q1852.22 1555.37 1849.14 1559.98 Q1846.09 1564.56 1840.28 1564.56 Q1834.47 1564.56 1831.39 1559.98 Q1828.33 1555.37 1828.33 1546.64 Q1828.33 1537.89 1831.39 1533.31 Q1834.47 1528.7 1840.28 1528.7 Z" fill="#000000" fill-rule="nonzero" fill-opacity="1" /><path clip-path="url(#clip480)" d="M1860.44 1558.01 L1865.32 1558.01 L1865.32 1563.89 L1860.44 1563.89 L1860.44 1558.01 Z" fill="#000000" fill-rule="nonzero" fill-opacity="1" /><path clip-path="url(#clip480)" d="M1875.55 1529.33 L1893.91 1529.33 L1893.91 1533.26 L1879.84 1533.26 L1879.84 1541.74 Q1880.85 1541.39 1881.87 1541.23 Q1882.89 1541.04 1883.91 1541.04 Q1889.7 1541.04 1893.08 1544.21 Q1896.46 1547.38 1896.46 1552.8 Q1896.46 1558.38 1892.98 1561.48 Q1889.51 1564.56 1883.19 1564.56 Q1881.02 1564.56 1878.75 1564.19 Q1876.5 1563.82 1874.1 1563.08 L1874.1 1558.38 Q1876.18 1559.51 1878.4 1560.07 Q1880.62 1560.62 1883.1 1560.62 Q1887.1 1560.62 1889.44 1558.52 Q1891.78 1556.41 1891.78 1552.8 Q1891.78 1549.19 1889.44 1547.08 Q1887.1 1544.98 1883.1 1544.98 Q1881.23 1544.98 1879.35 1545.39 Q1877.5 1545.81 1875.55 1546.69 L1875.55 1529.33 Z" fill="#000000" fill-rule="nonzero" fill-opacity="1" /><path clip-path="url(#clip480)" d="M2364.05 1559.95 L2371.68 1559.95 L2371.68 1533.59 L2363.37 1535.25 L2363.37 1530.99 L2371.64 1529.33 L2376.31 1529.33 L2376.31 1559.95 L2383.95 1559.95 L2383.95 1563.89 L2364.05 1563.89 L2364.05 1559.95 Z" fill="#000000" fill-rule="nonzero" fill-opacity="1" /><path clip-path="url(#clip480)" d="M2393.4 1558.01 L2398.28 1558.01 L2398.28 1563.89 L2393.4 1563.89 L2393.4 1558.01 Z" fill="#000000" fill-rule="nonzero" fill-opacity="1" /><path clip-path="url(#clip480)" d="M2418.47 1532.41 Q2414.86 1532.41 2413.03 1535.97 Q2411.22 1539.51 2411.22 1546.64 Q2411.22 1553.75 2413.03 1557.31 Q2414.86 1560.86 2418.47 1560.86 Q2422.1 1560.86 2423.91 1557.31 Q2425.74 1553.75 2425.74 1546.64 Q2425.74 1539.51 2423.91 1535.97 Q2422.1 1532.41 2418.47 1532.41 M2418.47 1528.7 Q2424.28 1528.7 2427.33 1533.31 Q2430.41 1537.89 2430.41 1546.64 Q2430.41 1555.37 2427.33 1559.98 Q2424.28 1564.56 2418.47 1564.56 Q2412.66 1564.56 2409.58 1559.98 Q2406.52 1555.37 2406.52 1546.64 Q2406.52 1537.89 2409.58 1533.31 Q2412.66 1528.7 2418.47 1528.7 Z" fill="#000000" fill-rule="nonzero" fill-opacity="1" /><polyline clip-path="url(#clip480)" style="stroke:#000000; stroke-linecap:round; stroke-linejoin:round; stroke-width:4; stroke-opacity:1; fill:none" points="194.76,1495.09 194.76,47.2441 "/>
<polyline clip-path="url(#clip480)" style="stroke:#000000; stroke-linecap:round; stroke-linejoin:round; stroke-width:4; stroke-opacity:1; fill:none" points="194.76,1454.11 209.239,1454.11 "/>
<polyline clip-path="url(#clip480)" style="stroke:#000000; stroke-linecap:round; stroke-linejoin:round; stroke-width:4; stroke-opacity:1; fill:none" points="194.76,1152.58 209.239,1152.58 "/>
<polyline clip-path="url(#clip480)" style="stroke:#000000; stroke-linecap:round; stroke-linejoin:round; stroke-width:4; stroke-opacity:1; fill:none" points="194.76,851.045 209.239,851.045 "/>
<polyline clip-path="url(#clip480)" style="stroke:#000000; stroke-linecap:round; stroke-linejoin:round; stroke-width:4; stroke-opacity:1; fill:none" points="194.76,549.511 209.239,549.511 "/>
<polyline clip-path="url(#clip480)" style="stroke:#000000; stroke-linecap:round; stroke-linejoin:round; stroke-width:4; stroke-opacity:1; fill:none" points="194.76,247.978 209.239,247.978 "/>
<path clip-path="url(#clip480)" d="M59.4226 1439.91 Q55.8115 1439.91 53.9828 1443.47 Q52.1773 1447.02 52.1773 1454.15 Q52.1773 1461.25 53.9828 1464.82 Q55.8115 1468.36 59.4226 1468.36 Q63.0569 1468.36 64.8624 1464.82 Q66.6911 1461.25 66.6911 1454.15 Q66.6911 1447.02 64.8624 1443.47 Q63.0569 1439.91 59.4226 1439.91 M59.4226 1436.21 Q65.2328 1436.21 68.2883 1440.81 Q71.367 1445.4 71.367 1454.15 Q71.367 1462.87 68.2883 1467.48 Q65.2328 1472.06 59.4226 1472.06 Q53.6125 1472.06 50.5338 1467.48 Q47.4782 1462.87 47.4782 1454.15 Q47.4782 1445.4 50.5338 1440.81 Q53.6125 1436.21 59.4226 1436.21 Z" fill="#000000" fill-rule="nonzero" fill-opacity="1" /><path clip-path="url(#clip480)" d="M79.5845 1465.51 L84.4688 1465.51 L84.4688 1471.39 L79.5845 1471.39 L79.5845 1465.51 Z" fill="#000000" fill-rule="nonzero" fill-opacity="1" /><path clip-path="url(#clip480)" d="M104.654 1439.91 Q101.043 1439.91 99.2141 1443.47 Q97.4085 1447.02 97.4085 1454.15 Q97.4085 1461.25 99.2141 1464.82 Q101.043 1468.36 104.654 1468.36 Q108.288 1468.36 110.094 1464.82 Q111.922 1461.25 111.922 1454.15 Q111.922 1447.02 110.094 1443.47 Q108.288 1439.91 104.654 1439.91 M104.654 1436.21 Q110.464 1436.21 113.52 1440.81 Q116.598 1445.4 116.598 1454.15 Q116.598 1462.87 113.52 1467.48 Q110.464 1472.06 104.654 1472.06 Q98.8437 1472.06 95.765 1467.48 Q92.7095 1462.87 92.7095 1454.15 Q92.7095 1445.4 95.765 1440.81 Q98.8437 1436.21 104.654 1436.21 Z" fill="#000000" fill-rule="nonzero" fill-opacity="1" /><path clip-path="url(#clip480)" d="M134.816 1439.91 Q131.205 1439.91 129.376 1443.47 Q127.57 1447.02 127.57 1454.15 Q127.57 1461.25 129.376 1464.82 Q131.205 1468.36 134.816 1468.36 Q138.45 1468.36 140.256 1464.82 Q142.084 1461.25 142.084 1454.15 Q142.084 1447.02 140.256 1443.47 Q138.45 1439.91 134.816 1439.91 M134.816 1436.21 Q140.626 1436.21 143.681 1440.81 Q146.76 1445.4 146.76 1454.15 Q146.76 1462.87 143.681 1467.48 Q140.626 1472.06 134.816 1472.06 Q129.006 1472.06 125.927 1467.48 Q122.871 1462.87 122.871 1454.15 Q122.871 1445.4 125.927 1440.81 Q129.006 1436.21 134.816 1436.21 Z" fill="#000000" fill-rule="nonzero" fill-opacity="1" /><path clip-path="url(#clip480)" d="M60.6495 1138.38 Q57.0384 1138.38 55.2097 1141.94 Q53.4041 1145.48 53.4041 1152.61 Q53.4041 1159.72 55.2097 1163.28 Q57.0384 1166.83 60.6495 1166.83 Q64.2837 1166.83 66.0892 1163.28 Q67.9179 1159.72 67.9179 1152.61 Q67.9179 1145.48 66.0892 1141.94 Q64.2837 1138.38 60.6495 1138.38 M60.6495 1134.67 Q66.4596 1134.67 69.5152 1139.28 Q72.5938 1143.86 72.5938 1152.61 Q72.5938 1161.34 69.5152 1165.95 Q66.4596 1170.53 60.6495 1170.53 Q54.8393 1170.53 51.7606 1165.95 Q48.7051 1161.34 48.7051 1152.61 Q48.7051 1143.86 51.7606 1139.28 Q54.8393 1134.67 60.6495 1134.67 Z" fill="#000000" fill-rule="nonzero" fill-opacity="1" /><path clip-path="url(#clip480)" d="M80.8114 1163.98 L85.6956 1163.98 L85.6956 1169.86 L80.8114 1169.86 L80.8114 1163.98 Z" fill="#000000" fill-rule="nonzero" fill-opacity="1" /><path clip-path="url(#clip480)" d="M105.881 1138.38 Q102.27 1138.38 100.441 1141.94 Q98.6354 1145.48 98.6354 1152.61 Q98.6354 1159.72 100.441 1163.28 Q102.27 1166.83 105.881 1166.83 Q109.515 1166.83 111.32 1163.28 Q113.149 1159.72 113.149 1152.61 Q113.149 1145.48 111.32 1141.94 Q109.515 1138.38 105.881 1138.38 M105.881 1134.67 Q111.691 1134.67 114.746 1139.28 Q117.825 1143.86 117.825 1152.61 Q117.825 1161.34 114.746 1165.95 Q111.691 1170.53 105.881 1170.53 Q100.071 1170.53 96.9919 1165.95 Q93.9363 1161.34 93.9363 1152.61 Q93.9363 1143.86 96.9919 1139.28 Q100.071 1134.67 105.881 1134.67 Z" fill="#000000" fill-rule="nonzero" fill-opacity="1" /><path clip-path="url(#clip480)" d="M126.853 1165.92 L134.492 1165.92 L134.492 1139.56 L126.182 1141.22 L126.182 1136.96 L134.445 1135.3 L139.121 1135.3 L139.121 1165.92 L146.76 1165.92 L146.76 1169.86 L126.853 1169.86 L126.853 1165.92 Z" fill="#000000" fill-rule="nonzero" fill-opacity="1" /><path clip-path="url(#clip480)" d="M61.0198 836.843 Q57.4087 836.843 55.58 840.408 Q53.7745 843.95 53.7745 851.079 Q53.7745 858.186 55.58 861.751 Q57.4087 865.292 61.0198 865.292 Q64.6541 865.292 66.4596 861.751 Q68.2883 858.186 68.2883 851.079 Q68.2883 843.95 66.4596 840.408 Q64.6541 836.843 61.0198 836.843 M61.0198 833.14 Q66.83 833.14 69.8855 837.746 Q72.9642 842.329 72.9642 851.079 Q72.9642 859.806 69.8855 864.413 Q66.83 868.996 61.0198 868.996 Q55.2097 868.996 52.131 864.413 Q49.0754 859.806 49.0754 851.079 Q49.0754 842.329 52.131 837.746 Q55.2097 833.14 61.0198 833.14 Z" fill="#000000" fill-rule="nonzero" fill-opacity="1" /><path clip-path="url(#clip480)" d="M81.1818 862.445 L86.066 862.445 L86.066 868.325 L81.1818 868.325 L81.1818 862.445 Z" fill="#000000" fill-rule="nonzero" fill-opacity="1" /><path clip-path="url(#clip480)" d="M106.251 836.843 Q102.64 836.843 100.811 840.408 Q99.0057 843.95 99.0057 851.079 Q99.0057 858.186 100.811 861.751 Q102.64 865.292 106.251 865.292 Q109.885 865.292 111.691 861.751 Q113.52 858.186 113.52 851.079 Q113.52 843.95 111.691 840.408 Q109.885 836.843 106.251 836.843 M106.251 833.14 Q112.061 833.14 115.117 837.746 Q118.195 842.329 118.195 851.079 Q118.195 859.806 115.117 864.413 Q112.061 868.996 106.251 868.996 Q100.441 868.996 97.3622 864.413 Q94.3067 859.806 94.3067 851.079 Q94.3067 842.329 97.3622 837.746 Q100.441 833.14 106.251 833.14 Z" fill="#000000" fill-rule="nonzero" fill-opacity="1" /><path clip-path="url(#clip480)" d="M130.441 864.389 L146.76 864.389 L146.76 868.325 L124.816 868.325 L124.816 864.389 Q127.478 861.635 132.061 857.005 Q136.668 852.352 137.848 851.01 Q140.093 848.487 140.973 846.751 Q141.876 844.991 141.876 843.302 Q141.876 840.547 139.931 838.811 Q138.01 837.075 134.908 837.075 Q132.709 837.075 130.256 837.839 Q127.825 838.603 125.047 840.153 L125.047 835.431 Q127.871 834.297 130.325 833.718 Q132.779 833.14 134.816 833.14 Q140.186 833.14 143.38 835.825 Q146.575 838.51 146.575 843.001 Q146.575 845.13 145.765 847.052 Q144.978 848.95 142.871 851.542 Q142.293 852.214 139.191 855.431 Q136.089 858.626 130.441 864.389 Z" fill="#000000" fill-rule="nonzero" fill-opacity="1" /><path clip-path="url(#clip480)" d="M60.0708 535.31 Q56.4597 535.31 54.631 538.875 Q52.8254 542.416 52.8254 549.546 Q52.8254 556.653 54.631 560.217 Q56.4597 563.759 60.0708 563.759 Q63.705 563.759 65.5105 560.217 Q67.3392 556.653 67.3392 549.546 Q67.3392 542.416 65.5105 538.875 Q63.705 535.31 60.0708 535.31 M60.0708 531.606 Q65.8809 531.606 68.9365 536.213 Q72.0151 540.796 72.0151 549.546 Q72.0151 558.273 68.9365 562.879 Q65.8809 567.463 60.0708 567.463 Q54.2606 567.463 51.1819 562.879 Q48.1264 558.273 48.1264 549.546 Q48.1264 540.796 51.1819 536.213 Q54.2606 531.606 60.0708 531.606 Z" fill="#000000" fill-rule="nonzero" fill-opacity="1" /><path clip-path="url(#clip480)" d="M80.2327 560.912 L85.1169 560.912 L85.1169 566.791 L80.2327 566.791 L80.2327 560.912 Z" fill="#000000" fill-rule="nonzero" fill-opacity="1" /><path clip-path="url(#clip480)" d="M105.302 535.31 Q101.691 535.31 99.8622 538.875 Q98.0567 542.416 98.0567 549.546 Q98.0567 556.653 99.8622 560.217 Q101.691 563.759 105.302 563.759 Q108.936 563.759 110.742 560.217 Q112.57 556.653 112.57 549.546 Q112.57 542.416 110.742 538.875 Q108.936 535.31 105.302 535.31 M105.302 531.606 Q111.112 531.606 114.168 536.213 Q117.246 540.796 117.246 549.546 Q117.246 558.273 114.168 562.879 Q111.112 567.463 105.302 567.463 Q99.4918 567.463 96.4132 562.879 Q93.3576 558.273 93.3576 549.546 Q93.3576 540.796 96.4132 536.213 Q99.4918 531.606 105.302 531.606 Z" fill="#000000" fill-rule="nonzero" fill-opacity="1" /><path clip-path="url(#clip480)" d="M139.631 548.157 Q142.987 548.875 144.862 551.143 Q146.76 553.412 146.76 556.745 Q146.76 561.861 143.242 564.662 Q139.723 567.463 133.242 567.463 Q131.066 567.463 128.751 567.023 Q126.459 566.606 124.006 565.75 L124.006 561.236 Q125.95 562.37 128.265 562.949 Q130.58 563.527 133.103 563.527 Q137.501 563.527 139.793 561.791 Q142.107 560.055 142.107 556.745 Q142.107 553.69 139.955 551.977 Q137.825 550.241 134.006 550.241 L129.978 550.241 L129.978 546.398 L134.191 546.398 Q137.64 546.398 139.468 545.032 Q141.297 543.643 141.297 541.051 Q141.297 538.389 139.399 536.977 Q137.524 535.542 134.006 535.542 Q132.084 535.542 129.885 535.958 Q127.686 536.375 125.047 537.254 L125.047 533.088 Q127.709 532.347 130.024 531.977 Q132.362 531.606 134.422 531.606 Q139.746 531.606 142.848 534.037 Q145.95 536.444 145.95 540.565 Q145.95 543.435 144.306 545.426 Q142.663 547.393 139.631 548.157 Z" fill="#000000" fill-rule="nonzero" fill-opacity="1" /><path clip-path="url(#clip480)" d="M58.9365 233.777 Q55.3254 233.777 53.4967 237.342 Q51.6912 240.883 51.6912 248.013 Q51.6912 255.119 53.4967 258.684 Q55.3254 262.226 58.9365 262.226 Q62.5707 262.226 64.3763 258.684 Q66.205 255.119 66.205 248.013 Q66.205 240.883 64.3763 237.342 Q62.5707 233.777 58.9365 233.777 M58.9365 230.073 Q64.7467 230.073 67.8022 234.68 Q70.8809 239.263 70.8809 248.013 Q70.8809 256.74 67.8022 261.346 Q64.7467 265.929 58.9365 265.929 Q53.1264 265.929 50.0477 261.346 Q46.9921 256.74 46.9921 248.013 Q46.9921 239.263 50.0477 234.68 Q53.1264 230.073 58.9365 230.073 Z" fill="#000000" fill-rule="nonzero" fill-opacity="1" /><path clip-path="url(#clip480)" d="M79.0984 259.378 L83.9827 259.378 L83.9827 265.258 L79.0984 265.258 L79.0984 259.378 Z" fill="#000000" fill-rule="nonzero" fill-opacity="1" /><path clip-path="url(#clip480)" d="M104.168 233.777 Q100.557 233.777 98.728 237.342 Q96.9224 240.883 96.9224 248.013 Q96.9224 255.119 98.728 258.684 Q100.557 262.226 104.168 262.226 Q107.802 262.226 109.608 258.684 Q111.436 255.119 111.436 248.013 Q111.436 240.883 109.608 237.342 Q107.802 233.777 104.168 233.777 M104.168 230.073 Q109.978 230.073 113.033 234.68 Q116.112 239.263 116.112 248.013 Q116.112 256.74 113.033 261.346 Q109.978 265.929 104.168 265.929 Q98.3576 265.929 95.2789 261.346 Q92.2234 256.74 92.2234 248.013 Q92.2234 239.263 95.2789 234.68 Q98.3576 230.073 104.168 230.073 Z" fill="#000000" fill-rule="nonzero" fill-opacity="1" /><path clip-path="url(#clip480)" d="M137.177 234.772 L125.371 253.221 L137.177 253.221 L137.177 234.772 M135.95 230.698 L141.83 230.698 L141.83 253.221 L146.76 253.221 L146.76 257.11 L141.83 257.11 L141.83 265.258 L137.177 265.258 L137.177 257.11 L121.575 257.11 L121.575 252.596 L135.95 230.698 Z" fill="#000000" fill-rule="nonzero" fill-opacity="1" /><polyline clip-path="url(#clip482)" style="stroke:#009af9; stroke-linecap:round; stroke-linejoin:round; stroke-width:4; stroke-opacity:1; fill:none" points="258.9,1454.11 267.486,1454.11 276.073,1454.11 284.659,1454.11 293.245,1454.11 301.831,1454.11 310.418,1454.11 319.004,1454.11 327.59,1454.11 336.177,1454.11 344.763,1454.11 353.349,1454.11 361.936,1454.11 370.522,1454.11 379.108,1454.11 387.695,1454.11 396.281,1454.11 404.867,1454.11 413.454,1454.11 422.04,1454.1 430.626,1454.1 439.213,1454.09 447.799,1454.07 456.385,1454.05 464.971,1454 473.558,1453.93 482.144,1453.83 490.73,1453.66 499.317,1453.41 507.903,1453.02 516.489,1452.45 525.076,1451.6 533.662,1450.38 542.248,1448.64 550.835,1446.18 559.421,1442.76 568.007,1438.08 576.594,1431.76 585.18,1423.36 593.766,1412.33 602.353,1398.07 610.939,1379.92 619.525,1357.14 628.111,1328.99 636.698,1294.74 645.284,1253.73 653.87,1205.38 662.457,1149.33 671.043,1085.44 679.629,1013.87 688.216,935.147 696.802,850.189 705.388,760.332 713.975,667.324 722.561,573.286 731.147,480.65 739.734,392.065 748.32,310.272 756.906,237.974 765.493,177.683 774.079,131.578 782.665,101.375 791.251,88.2208 799.838,92.6197 808.424,114.403 817.01,152.738 825.597,206.182 834.183,272.773 842.769,350.148 851.356,435.681 859.942,526.631 868.528,620.288 877.115,714.098 885.701,805.773 894.287,893.373 902.874,975.355 911.46,1050.59 920.046,1118.36 928.633,1178.34 937.219,1230.5 945.805,1275.12 954.391,1312.67 962.978,1343.78 971.564,1369.15 980.15,1389.53 988.737,1405.64 997.323,1418.2 1005.91,1427.85 1014.5,1435.15 1023.08,1440.6 1031.67,1444.61 1040.25,1447.51 1048.84,1449.58 1057.43,1451.05 1066.01,1452.06 1074.6,1452.76 1083.19,1453.23 1091.77,1453.55 1100.36,1453.75 1108.95,1453.89 1117.53,1453.97 1126.12,1454.03 1134.7,1454.06 1143.29,1454.08 1151.88,1454.09 1160.46,1454.1 1169.05,1454.11 1177.64,1454.11 1186.22,1454.11 1194.81,1454.11 1203.39,1454.11 1211.98,1454.11 1220.57,1454.11 1229.15,1454.11 1237.74,1454.11 1246.33,1454.11 1254.91,1454.11 1263.5,1454.11 1272.09,1454.11 1280.67,1454.11 1289.26,1454.11 1297.84,1454.11 1306.43,1454.11 1315.02,1454.11 1323.6,1454.11 1332.19,1454.11 1340.78,1454.11 1349.36,1454.11 1357.95,1454.11 1366.53,1454.11 1375.12,1454.11 1383.71,1454.11 1392.29,1454.11 1400.88,1454.11 1409.47,1454.11 1418.05,1454.11 1426.64,1454.11 1435.23,1454.11 1443.81,1454.11 1452.4,1454.11 1460.98,1454.11 1469.57,1454.11 1478.16,1454.11 1486.74,1454.11 1495.33,1454.11 1503.92,1454.11 1512.5,1454.11 1521.09,1454.11 1529.67,1454.11 1538.26,1454.11 1546.85,1454.11 1555.43,1454.11 1564.02,1454.11 1572.61,1454.11 1581.19,1454.11 1589.78,1454.11 1598.37,1454.11 1606.95,1454.11 1615.54,1454.11 1624.12,1454.11 1632.71,1454.11 1641.3,1454.11 1649.88,1454.11 1658.47,1454.11 1667.06,1454.11 1675.64,1454.11 1684.23,1454.11 1692.81,1454.11 1701.4,1454.11 1709.99,1454.11 1718.57,1454.11 1727.16,1454.11 1735.75,1454.11 1744.33,1454.11 1752.92,1454.11 1761.51,1454.11 1770.09,1454.11 1778.68,1454.11 1787.26,1454.11 1795.85,1454.11 1804.44,1454.11 1813.02,1454.11 1821.61,1454.11 1830.2,1454.11 1838.78,1454.11 1847.37,1454.11 1855.95,1454.11 1864.54,1454.11 1873.13,1454.11 1881.71,1454.11 1890.3,1454.11 1898.89,1454.11 1907.47,1454.11 1916.06,1454.11 1924.65,1454.11 1933.23,1454.11 1941.82,1454.11 1950.4,1454.11 1958.99,1454.11 1967.58,1454.11 1976.16,1454.11 1984.75,1454.11 1993.34,1454.11 2001.92,1454.11 2010.51,1454.11 2019.09,1454.11 2027.68,1454.11 2036.27,1454.11 2044.85,1454.11 2053.44,1454.11 2062.03,1454.11 2070.61,1454.11 2079.2,1454.11 2087.79,1454.11 2096.37,1454.11 2104.96,1454.11 2113.54,1454.11 2122.13,1454.11 2130.72,1454.11 2139.3,1454.11 2147.89,1454.11 2156.48,1454.11 2165.06,1454.11 2173.65,1454.11 2182.23,1454.11 2190.82,1454.11 2199.41,1454.11 2207.99,1454.11 2216.58,1454.11 2225.17,1454.11 2233.75,1454.11 2242.34,1454.11 2250.93,1454.11 2259.51,1454.11 2268.1,1454.11 2276.68,1454.11 2285.27,1454.11 2293.86,1454.11 2302.44,1454.11 2311.03,1454.11 2319.62,1454.11 2328.2,1454.11 2336.79,1454.11 2345.37,1454.11 2353.96,1454.11 2362.55,1454.11 2371.13,1454.11 2379.72,1454.11 2388.31,1454.11 2396.89,1454.11 "/>
<polyline clip-path="url(#clip482)" style="stroke:#e26f46; stroke-linecap:round; stroke-linejoin:round; stroke-width:4; stroke-opacity:1; fill:none" points="258.9,1454.11 267.486,1454.11 276.073,1454.11 284.659,1454.11 293.245,1454.11 301.831,1454.11 310.418,1454.11 319.004,1454.11 327.59,1454.11 336.177,1454.11 344.763,1454.11 353.349,1454.11 361.936,1454.11 370.522,1454.11 379.108,1454.11 387.695,1454.11 396.281,1454.11 404.867,1454.11 413.454,1454.11 422.04,1454.11 430.626,1454.11 439.213,1454.11 447.799,1454.11 456.385,1454.11 464.971,1454.11 473.558,1454.11 482.144,1454.11 490.73,1454.11 499.317,1454.11 507.903,1454.11 516.489,1454.11 525.076,1454.11 533.662,1454.11 542.248,1454.11 550.835,1454.11 559.421,1454.11 568.007,1454.11 576.594,1454.11 585.18,1454.11 593.766,1454.11 602.353,1454.11 610.939,1454.11 619.525,1454.11 628.111,1454.11 636.698,1454.11 645.284,1454.11 653.87,1454.11 662.457,1454.11 671.043,1454.11 679.629,1454.11 688.216,1454.11 696.802,1454.11 705.388,1454.11 713.975,1454.11 722.561,1454.11 731.147,1454.11 739.734,1454.11 748.32,1454.11 756.906,1454.11 765.493,1454.11 774.079,1454.11 782.665,1454.11 791.251,1454.11 799.838,1454.11 808.424,1454.11 817.01,1454.11 825.597,1454.11 834.183,1454.11 842.769,1454.11 851.356,1454.11 859.942,1454.11 868.528,1454.11 877.115,1454.11 885.701,1454.11 894.287,1454.11 902.874,1454.11 911.46,1454.11 920.046,1454.11 928.633,1454.11 937.219,1454.11 945.805,1454.11 954.391,1454.11 962.978,1454.11 971.564,1454.11 980.15,1454.11 988.737,1454.11 997.323,1454.11 1005.91,1454.11 1014.5,1454.11 1023.08,1454.11 1031.67,1454.11 1040.25,1454.11 1048.84,1454.11 1057.43,1454.11 1066.01,1454.11 1074.6,1454.11 1083.19,1454.11 1091.77,1454.11 1100.36,1454.11 1108.95,1454.11 1117.53,1454.11 1126.12,1454.11 1134.7,1454.11 1143.29,1454.11 1151.88,1454.11 1160.46,1454.11 1169.05,1454.11 1177.64,1454.11 1186.22,1454.11 1194.81,1454.11 1203.39,1454.11 1211.98,1454.11 1220.57,1454.11 1229.15,1454.11 1237.74,1454.11 1246.33,1454.11 1254.91,1454.11 1263.5,1454.11 1272.09,1454.11 1280.67,1454.11 1289.26,1454.11 1297.84,1454.11 1306.43,1454.11 1315.02,1454.11 1323.6,1454.11 1332.19,1454.11 1340.78,1454.11 1349.36,1454.11 1357.95,1454.11 1366.53,1454.11 1375.12,1454.11 1383.71,1454.11 1392.29,1454.11 1400.88,1454.11 1409.47,1454.11 1418.05,1454.11 1426.64,1454.11 1435.23,1454.11 1443.81,1454.11 1452.4,1454.11 1460.98,1454.11 1469.57,1454.11 1478.16,1454.11 1486.74,1454.11 1495.33,1454.1 1503.92,1454.09 1512.5,1454.08 1521.09,1454.06 1529.67,1454.03 1538.26,1453.97 1546.85,1453.89 1555.43,1453.75 1564.02,1453.55 1572.61,1453.23 1581.19,1452.76 1589.78,1452.06 1598.37,1451.05 1606.95,1449.58 1615.54,1447.51 1624.12,1444.61 1632.71,1440.6 1641.3,1435.15 1649.88,1427.85 1658.47,1418.2 1667.06,1405.64 1675.64,1389.53 1684.23,1369.15 1692.81,1343.78 1701.4,1312.67 1709.99,1275.12 1718.57,1230.5 1727.16,1178.34 1735.75,1118.36 1744.33,1050.59 1752.92,975.355 1761.51,893.373 1770.09,805.773 1778.68,714.098 1787.26,620.288 1795.85,526.631 1804.44,435.681 1813.02,350.148 1821.61,272.773 1830.2,206.182 1838.78,152.738 1847.37,114.403 1855.95,92.6197 1864.54,88.2208 1873.13,101.375 1881.71,131.578 1890.3,177.683 1898.89,237.974 1907.47,310.272 1916.06,392.065 1924.65,480.65 1933.23,573.286 1941.82,667.324 1950.4,760.332 1958.99,850.189 1967.58,935.147 1976.16,1013.87 1984.75,1085.44 1993.34,1149.33 2001.92,1205.38 2010.51,1253.73 2019.09,1294.74 2027.68,1328.99 2036.27,1357.14 2044.85,1379.92 2053.44,1398.07 2062.03,1412.33 2070.61,1423.36 2079.2,1431.76 2087.79,1438.08 2096.37,1442.76 2104.96,1446.18 2113.54,1448.64 2122.13,1450.38 2130.72,1451.6 2139.3,1452.45 2147.89,1453.02 2156.48,1453.41 2165.06,1453.66 2173.65,1453.83 2182.23,1453.93 2190.82,1454 2199.41,1454.05 2207.99,1454.07 2216.58,1454.09 2225.17,1454.1 2233.75,1454.1 2242.34,1454.11 2250.93,1454.11 2259.51,1454.11 2268.1,1454.11 2276.68,1454.11 2285.27,1454.11 2293.86,1454.11 2302.44,1454.11 2311.03,1454.11 2319.62,1454.11 2328.2,1454.11 2336.79,1454.11 2345.37,1454.11 2353.96,1454.11 2362.55,1454.11 2371.13,1454.11 2379.72,1454.11 2388.31,1454.11 2396.89,1454.11 "/>
<polyline clip-path="url(#clip482)" style="stroke:#3da44d; stroke-linecap:round; stroke-linejoin:round; stroke-width:4; stroke-opacity:1; fill:none" points="258.9,1454.11 267.486,1454.11 276.073,1454.11 284.659,1454.11 293.245,1454.11 301.831,1454.11 310.418,1454.11 319.004,1454.11 327.59,1454.11 336.177,1454.11 344.763,1454.11 353.349,1454.11 361.936,1454.11 370.522,1454.11 379.108,1454.11 387.695,1454.11 396.281,1454.11 404.867,1454.11 413.454,1454.11 422.04,1454.11 430.626,1454.11 439.213,1454.11 447.799,1454.11 456.385,1454.11 464.971,1454.11 473.558,1454.11 482.144,1454.11 490.73,1454.11 499.317,1454.11 507.903,1454.11 516.489,1454.11 525.076,1454.11 533.662,1454.11 542.248,1454.11 550.835,1454.11 559.421,1454.11 568.007,1454.11 576.594,1454.11 585.18,1454.11 593.766,1454.11 602.353,1454.11 610.939,1454.11 619.525,1454.11 628.111,1454.11 636.698,1454.11 645.284,1454.11 653.87,1454.11 662.457,1454.11 671.043,1454.11 679.629,1454.11 688.216,1454.11 696.802,1454.11 705.388,1454.11 713.975,1454.11 722.561,1454.11 731.147,1454.11 739.734,1454.11 748.32,1454.11 756.906,1454.11 765.493,1454.11 774.079,1454.11 782.665,1454.11 791.251,1454.11 799.838,1454.11 808.424,1454.11 817.01,1454.11 825.597,1454.11 834.183,1454.11 842.769,1454.11 851.356,1454.11 859.942,1454.11 868.528,1454.11 877.115,1454.11 885.701,1454.11 894.287,1454.11 902.874,1454.11 911.46,1454.11 920.046,1454.11 928.633,1454.11 937.219,1454.11 945.805,1454.11 954.391,1454.11 962.978,1454.11 971.564,1454.11 980.15,1454.11 988.737,1454.11 997.323,1454.11 1005.91,1454.11 1014.5,1454.11 1023.08,1454.11 1031.67,1454.11 1040.25,1454.11 1048.84,1454.11 1057.43,1454.11 1066.01,1454.11 1074.6,1454.1 1083.19,1454.1 1091.77,1454.1 1100.36,1454.09 1108.95,1454.08 1117.53,1454.07 1126.12,1454.05 1134.7,1454.02 1143.29,1453.98 1151.88,1453.93 1160.46,1453.86 1169.05,1453.77 1177.64,1453.64 1186.22,1453.47 1194.81,1453.24 1203.39,1452.94 1211.98,1452.54 1220.57,1452.03 1229.15,1451.36 1237.74,1450.5 1246.33,1449.4 1254.91,1448.01 1263.5,1446.26 1272.09,1444.07 1280.67,1441.35 1289.26,1438 1297.84,1433.9 1306.43,1428.93 1315.02,1422.93 1323.6,1415.74 1332.19,1407.21 1340.78,1397.15 1349.36,1385.38 1357.95,1371.7 1366.53,1355.94 1375.12,1337.92 1383.71,1317.47 1392.29,1294.46 1400.88,1268.78 1409.47,1240.34 1418.05,1209.13 1426.64,1175.16 1435.23,1138.53 1443.81,1099.39 1452.4,1057.95 1460.98,1014.52 1469.57,969.458 1478.16,923.218 1486.74,876.306 1495.33,829.293 1503.92,782.799 1512.5,737.484 1521.09,694.03 1529.67,653.125 1538.26,615.446 1546.85,581.643 1555.43,552.313 1564.02,527.992 1572.61,509.131 1581.19,496.087 1589.78,489.108 1598.37,488.33 1606.95,493.766 1615.54,505.313 1624.12,522.749 1632.71,545.744 1641.3,573.869 1649.88,606.608 1658.47,643.377 1667.06,683.538 1675.64,726.419 1684.23,771.334 1692.81,817.596 1701.4,864.539 1709.99,911.532 1718.57,957.99 1727.16,1003.39 1735.75,1047.26 1744.33,1089.23 1752.92,1128.97 1761.51,1166.25 1770.09,1200.89 1778.68,1232.8 1787.26,1261.93 1795.85,1288.3 1804.44,1311.97 1813.02,1333.04 1821.61,1351.66 1830.2,1367.97 1838.78,1382.14 1847.37,1394.38 1855.95,1404.85 1864.54,1413.75 1873.13,1421.25 1881.71,1427.53 1890.3,1432.75 1898.89,1437.05 1907.47,1440.58 1916.06,1443.44 1924.65,1445.75 1933.23,1447.61 1941.82,1449.08 1950.4,1450.25 1958.99,1451.16 1967.58,1451.88 1976.16,1452.43 1984.75,1452.85 1993.34,1453.17 2001.92,1453.42 2010.51,1453.6 2019.09,1453.74 2027.68,1453.84 2036.27,1453.92 2044.85,1453.97 2053.44,1454.01 2062.03,1454.04 2070.61,1454.06 2079.2,1454.08 2087.79,1454.09 2096.37,1454.09 2104.96,1454.1 2113.54,1454.1 2122.13,1454.11 2130.72,1454.11 2139.3,1454.11 2147.89,1454.11 2156.48,1454.11 2165.06,1454.11 2173.65,1454.11 2182.23,1454.11 2190.82,1454.11 2199.41,1454.11 2207.99,1454.11 2216.58,1454.11 2225.17,1454.11 2233.75,1454.11 2242.34,1454.11 2250.93,1454.11 2259.51,1454.11 2268.1,1454.11 2276.68,1454.11 2285.27,1454.11 2293.86,1454.11 2302.44,1454.11 2311.03,1454.11 2319.62,1454.11 2328.2,1454.11 2336.79,1454.11 2345.37,1454.11 2353.96,1454.11 2362.55,1454.11 2371.13,1454.11 2379.72,1454.11 2388.31,1454.11 2396.89,1454.11 "/>
<polyline clip-path="url(#clip482)" style="stroke:#c271d2; stroke-linecap:round; stroke-linejoin:round; stroke-width:4; stroke-opacity:1; fill:none" points="258.9,1454.11 267.486,1454.11 276.073,1454.11 284.659,1454.11 293.245,1454.11 301.831,1454.11 310.418,1454.11 319.004,1454.11 327.59,1454.11 336.177,1454.11 344.763,1454.11 353.349,1454.11 361.936,1454.11 370.522,1454.11 379.108,1454.11 387.695,1454.11 396.281,1454.11 404.867,1454.11 413.454,1454.11 422.04,1454.11 430.626,1454.11 439.213,1454.11 447.799,1454.11 456.385,1454.11 464.971,1454.11 473.558,1454.11 482.144,1454.11 490.73,1454.11 499.317,1454.11 507.903,1454.11 516.489,1454.11 525.076,1454.11 533.662,1454.11 542.248,1454.11 550.835,1454.11 559.421,1454.11 568.007,1454.11 576.594,1454.11 585.18,1454.11 593.766,1454.11 602.353,1454.11 610.939,1454.11 619.525,1454.11 628.111,1454.11 636.698,1454.11 645.284,1454.11 653.87,1454.11 662.457,1454.11 671.043,1454.11 679.629,1454.11 688.216,1454.11 696.802,1454.11 705.388,1454.11 713.975,1454.11 722.561,1454.11 731.147,1454.11 739.734,1454.11 748.32,1454.11 756.906,1454.11 765.493,1454.11 774.079,1454.11 782.665,1454.11 791.251,1454.11 799.838,1454.11 808.424,1454.1 817.01,1454.1 825.597,1454.1 834.183,1454.09 842.769,1454.08 851.356,1454.06 859.942,1454.04 868.528,1454.02 877.115,1453.98 885.701,1453.93 894.287,1453.85 902.874,1453.75 911.46,1453.62 920.046,1453.44 928.633,1453.21 937.219,1452.9 945.805,1452.49 954.391,1451.95 962.978,1451.26 971.564,1450.38 980.15,1449.24 988.737,1447.81 997.323,1446.01 1005.91,1443.76 1014.5,1440.97 1023.08,1437.53 1031.67,1433.33 1040.25,1428.24 1048.84,1422.1 1057.43,1414.76 1066.01,1406.04 1074.6,1395.78 1083.19,1383.78 1091.77,1369.85 1100.36,1353.82 1108.95,1335.5 1117.53,1314.74 1126.12,1291.4 1134.7,1265.37 1143.29,1236.59 1151.88,1205.03 1160.46,1170.73 1169.05,1133.77 1177.64,1094.33 1186.22,1052.62 1194.81,1008.96 1203.39,963.733 1211.98,917.38 1220.57,870.423 1229.15,823.439 1237.74,777.057 1246.33,731.936 1254.91,688.763 1263.5,648.225 1272.09,610.996 1280.67,577.72 1289.26,548.989 1297.84,525.327 1306.43,507.176 1315.02,494.879 1323.6,488.67 1332.19,488.67 1340.78,494.879 1349.36,507.176 1357.95,525.327 1366.53,548.989 1375.12,577.72 1383.71,610.996 1392.29,648.225 1400.88,688.763 1409.47,731.936 1418.05,777.057 1426.64,823.44 1435.23,870.423 1443.81,917.38 1452.4,963.733 1460.98,1008.96 1469.57,1052.62 1478.16,1094.33 1486.74,1133.77 1495.33,1170.73 1503.92,1205.03 1512.5,1236.59 1521.09,1265.37 1529.67,1291.4 1538.26,1314.74 1546.85,1335.5 1555.43,1353.82 1564.02,1369.85 1572.61,1383.78 1581.19,1395.78 1589.78,1406.04 1598.37,1414.76 1606.95,1422.1 1615.54,1428.24 1624.12,1433.33 1632.71,1437.53 1641.3,1440.97 1649.88,1443.76 1658.47,1446.01 1667.06,1447.81 1675.64,1449.24 1684.23,1450.38 1692.81,1451.26 1701.4,1451.95 1709.99,1452.49 1718.57,1452.9 1727.16,1453.21 1735.75,1453.44 1744.33,1453.62 1752.92,1453.75 1761.51,1453.85 1770.09,1453.93 1778.68,1453.98 1787.26,1454.02 1795.85,1454.04 1804.44,1454.06 1813.02,1454.08 1821.61,1454.09 1830.2,1454.1 1838.78,1454.1 1847.37,1454.1 1855.95,1454.11 1864.54,1454.11 1873.13,1454.11 1881.71,1454.11 1890.3,1454.11 1898.89,1454.11 1907.47,1454.11 1916.06,1454.11 1924.65,1454.11 1933.23,1454.11 1941.82,1454.11 1950.4,1454.11 1958.99,1454.11 1967.58,1454.11 1976.16,1454.11 1984.75,1454.11 1993.34,1454.11 2001.92,1454.11 2010.51,1454.11 2019.09,1454.11 2027.68,1454.11 2036.27,1454.11 2044.85,1454.11 2053.44,1454.11 2062.03,1454.11 2070.61,1454.11 2079.2,1454.11 2087.79,1454.11 2096.37,1454.11 2104.96,1454.11 2113.54,1454.11 2122.13,1454.11 2130.72,1454.11 2139.3,1454.11 2147.89,1454.11 2156.48,1454.11 2165.06,1454.11 2173.65,1454.11 2182.23,1454.11 2190.82,1454.11 2199.41,1454.11 2207.99,1454.11 2216.58,1454.11 2225.17,1454.11 2233.75,1454.11 2242.34,1454.11 2250.93,1454.11 2259.51,1454.11 2268.1,1454.11 2276.68,1454.11 2285.27,1454.11 2293.86,1454.11 2302.44,1454.11 2311.03,1454.11 2319.62,1454.11 2328.2,1454.11 2336.79,1454.11 2345.37,1454.11 2353.96,1454.11 2362.55,1454.11 2371.13,1454.11 2379.72,1454.11 2388.31,1454.11 2396.89,1454.11 "/>
<polyline clip-path="url(#clip482)" style="stroke:#ac8d18; stroke-linecap:round; stroke-linejoin:round; stroke-width:4; stroke-opacity:1; fill:none" points="258.9,1454.11 267.486,1454.11 276.073,1454.11 284.659,1454.11 293.245,1454.11 301.831,1454.11 310.418,1454.11 319.004,1454.11 327.59,1454.11 336.177,1454.11 344.763,1454.11 353.349,1454.11 361.936,1454.11 370.522,1454.11 379.108,1454.11 387.695,1454.11 396.281,1454.11 404.867,1454.11 413.454,1454.11 422.04,1454.11 430.626,1454.11 439.213,1454.11 447.799,1454.11 456.385,1454.11 464.971,1454.11 473.558,1454.11 482.144,1454.11 490.73,1454.11 499.317,1454.11 507.903,1454.11 516.489,1454.11 525.076,1454.11 533.662,1454.11 542.248,1454.1 550.835,1454.1 559.421,1454.09 568.007,1454.09 576.594,1454.08 585.18,1454.06 593.766,1454.04 602.353,1454.01 610.939,1453.97 619.525,1453.92 628.111,1453.84 636.698,1453.74 645.284,1453.6 653.87,1453.42 662.457,1453.17 671.043,1452.85 679.629,1452.43 688.216,1451.88 696.802,1451.16 705.388,1450.25 713.975,1449.08 722.561,1447.61 731.147,1445.75 739.734,1443.44 748.32,1440.58 756.906,1437.05 765.493,1432.75 774.079,1427.53 782.665,1421.25 791.251,1413.75 799.838,1404.85 808.424,1394.38 817.01,1382.14 825.597,1367.97 834.183,1351.66 842.769,1333.04 851.356,1311.97 859.942,1288.3 868.528,1261.93 877.115,1232.8 885.701,1200.89 894.287,1166.25 902.874,1128.97 911.46,1089.23 920.046,1047.26 928.633,1003.39 937.219,957.99 945.805,911.532 954.391,864.539 962.978,817.596 971.564,771.334 980.15,726.419 988.737,683.538 997.323,643.377 1005.91,606.608 1014.5,573.869 1023.08,545.744 1031.67,522.749 1040.25,505.313 1048.84,493.766 1057.43,488.33 1066.01,489.108 1074.6,496.087 1083.19,509.131 1091.77,527.992 1100.36,552.313 1108.95,581.643 1117.53,615.446 1126.12,653.125 1134.7,694.03 1143.29,737.484 1151.88,782.799 1160.46,829.293 1169.05,876.306 1177.64,923.218 1186.22,969.458 1194.81,1014.52 1203.39,1057.95 1211.98,1099.39 1220.57,1138.53 1229.15,1175.16 1237.74,1209.13 1246.33,1240.34 1254.91,1268.78 1263.5,1294.46 1272.09,1317.47 1280.67,1337.92 1289.26,1355.94 1297.84,1371.7 1306.43,1385.38 1315.02,1397.15 1323.6,1407.21 1332.19,1415.74 1340.78,1422.93 1349.36,1428.93 1357.95,1433.9 1366.53,1438 1375.12,1441.35 1383.71,1444.07 1392.29,1446.26 1400.88,1448.01 1409.47,1449.4 1418.05,1450.5 1426.64,1451.36 1435.23,1452.03 1443.81,1452.54 1452.4,1452.94 1460.98,1453.24 1469.57,1453.47 1478.16,1453.64 1486.74,1453.77 1495.33,1453.86 1503.92,1453.93 1512.5,1453.98 1521.09,1454.02 1529.67,1454.05 1538.26,1454.07 1546.85,1454.08 1555.43,1454.09 1564.02,1454.1 1572.61,1454.1 1581.19,1454.1 1589.78,1454.11 1598.37,1454.11 1606.95,1454.11 1615.54,1454.11 1624.12,1454.11 1632.71,1454.11 1641.3,1454.11 1649.88,1454.11 1658.47,1454.11 1667.06,1454.11 1675.64,1454.11 1684.23,1454.11 1692.81,1454.11 1701.4,1454.11 1709.99,1454.11 1718.57,1454.11 1727.16,1454.11 1735.75,1454.11 1744.33,1454.11 1752.92,1454.11 1761.51,1454.11 1770.09,1454.11 1778.68,1454.11 1787.26,1454.11 1795.85,1454.11 1804.44,1454.11 1813.02,1454.11 1821.61,1454.11 1830.2,1454.11 1838.78,1454.11 1847.37,1454.11 1855.95,1454.11 1864.54,1454.11 1873.13,1454.11 1881.71,1454.11 1890.3,1454.11 1898.89,1454.11 1907.47,1454.11 1916.06,1454.11 1924.65,1454.11 1933.23,1454.11 1941.82,1454.11 1950.4,1454.11 1958.99,1454.11 1967.58,1454.11 1976.16,1454.11 1984.75,1454.11 1993.34,1454.11 2001.92,1454.11 2010.51,1454.11 2019.09,1454.11 2027.68,1454.11 2036.27,1454.11 2044.85,1454.11 2053.44,1454.11 2062.03,1454.11 2070.61,1454.11 2079.2,1454.11 2087.79,1454.11 2096.37,1454.11 2104.96,1454.11 2113.54,1454.11 2122.13,1454.11 2130.72,1454.11 2139.3,1454.11 2147.89,1454.11 2156.48,1454.11 2165.06,1454.11 2173.65,1454.11 2182.23,1454.11 2190.82,1454.11 2199.41,1454.11 2207.99,1454.11 2216.58,1454.11 2225.17,1454.11 2233.75,1454.11 2242.34,1454.11 2250.93,1454.11 2259.51,1454.11 2268.1,1454.11 2276.68,1454.11 2285.27,1454.11 2293.86,1454.11 2302.44,1454.11 2311.03,1454.11 2319.62,1454.11 2328.2,1454.11 2336.79,1454.11 2345.37,1454.11 2353.96,1454.11 2362.55,1454.11 2371.13,1454.11 2379.72,1454.11 2388.31,1454.11 2396.89,1454.11 "/>
<path clip-path="url(#clip480)" d="M2559.63 406.546 L3152.76 406.546 L3152.76 95.5056 L2559.63 95.5056  Z" fill="#ffffff" fill-rule="evenodd" fill-opacity="1"/>
<polyline clip-path="url(#clip480)" style="stroke:#000000; stroke-linecap:round; stroke-linejoin:round; stroke-width:4; stroke-opacity:1; fill:none" points="2559.63,406.546 3152.76,406.546 3152.76,95.5056 2559.63,95.5056 2559.63,406.546 "/>
<polyline clip-path="url(#clip480)" style="stroke:#009af9; stroke-linecap:round; stroke-linejoin:round; stroke-width:4; stroke-opacity:1; fill:none" points="2592.5,147.346 2789.7,147.346 "/>
<path clip-path="url(#clip480)" d="M2848.56 139.212 Q2847.96 142.234 2847.14 143.967 Q2845.82 146.614 2843.58 146.614 Q2841.98 146.614 2840.76 145.653 Q2839.57 144.693 2839.27 143.1 Q2838.66 143.826 2838.21 144.248 Q2837.79 144.67 2836.95 145.325 Q2836.13 145.958 2835.1 146.286 Q2834.07 146.614 2832.89 146.614 Q2830.04 146.614 2828.23 145.115 Q2825.8 154.929 2825.59 155.42 Q2824.91 156.428 2823.92 156.428 Q2823.31 156.428 2822.94 156.053 Q2822.57 155.702 2822.57 155.139 Q2822.59 154.952 2822.73 154.366 L2829.62 126.611 Q2829.8 125.861 2830.27 125.44 Q2830.76 124.995 2831.04 124.948 Q2831.33 124.878 2831.54 124.878 Q2832.17 124.878 2832.54 125.229 Q2832.94 125.557 2832.94 126.166 Q2832.94 126.26 2832.8 126.798 Q2832.68 127.314 2832.5 128.11 Q2832.31 128.883 2832.22 129.234 L2830.2 137.292 Q2829.52 140.055 2829.52 141.367 Q2829.52 143.358 2830.41 144.459 Q2831.33 145.536 2833.08 145.536 Q2834.18 145.536 2835.21 145.091 Q2836.24 144.623 2836.95 143.99 Q2837.65 143.358 2838.21 142.679 Q2838.77 141.976 2839.03 141.531 Q2839.29 141.063 2839.31 140.945 L2840.55 136.05 L2842.83 127.079 Q2842.97 126.517 2843.22 126.142 Q2843.5 125.744 2843.83 125.604 Q2844.16 125.463 2844.35 125.44 Q2844.54 125.393 2844.7 125.393 Q2845.28 125.393 2845.68 125.744 Q2846.08 126.096 2846.08 126.705 Q2846.08 126.822 2845.94 127.384 Q2845.82 127.923 2845.64 128.719 Q2845.45 129.492 2845.36 129.913 Q2844.61 132.865 2844.54 133.169 L2843.2 138.346 Q2843.13 138.65 2842.9 139.634 Q2842.69 140.617 2842.57 141.133 Q2842.45 141.625 2842.33 142.304 Q2842.24 142.96 2842.24 143.335 Q2842.24 145.536 2843.69 145.536 Q2844.25 145.536 2844.75 145.208 Q2845.24 144.857 2845.57 144.365 Q2845.92 143.873 2846.25 143.03 Q2846.6 142.163 2846.81 141.461 Q2847.02 140.735 2847.32 139.61 Q2847.44 139.072 2847.56 138.908 Q2847.67 138.744 2848 138.744 Q2848.56 138.744 2848.56 139.212 Z" fill="#000000" fill-rule="nonzero" fill-opacity="1" /><path clip-path="url(#clip480)" d="M2853.41 150.45 L2853.41 149.4 Q2857.45 149.4 2859.53 147.252 Q2860.1 147.252 2860.2 147.384 Q2860.3 147.515 2860.3 148.121 L2860.3 166.96 Q2860.3 167.96 2860.79 168.272 Q2861.28 168.583 2863.43 168.583 L2864.5 168.583 L2864.5 169.616 Q2863.32 169.518 2859.05 169.518 Q2854.79 169.518 2853.63 169.616 L2853.63 168.583 L2854.69 168.583 Q2856.81 168.583 2857.32 168.288 Q2857.82 167.977 2857.82 166.96 L2857.82 149.564 Q2856.07 150.45 2853.41 150.45 Z" fill="#000000" fill-rule="nonzero" fill-opacity="1" /><polyline clip-path="url(#clip480)" style="stroke:#e26f46; stroke-linecap:round; stroke-linejoin:round; stroke-width:4; stroke-opacity:1; fill:none" points="2592.5,199.186 2789.7,199.186 "/>
<path clip-path="url(#clip480)" d="M2848.56 191.052 Q2847.96 194.074 2847.14 195.807 Q2845.82 198.454 2843.58 198.454 Q2841.98 198.454 2840.76 197.493 Q2839.57 196.533 2839.27 194.94 Q2838.66 195.666 2838.21 196.088 Q2837.79 196.51 2836.95 197.165 Q2836.13 197.798 2835.1 198.126 Q2834.07 198.454 2832.89 198.454 Q2830.04 198.454 2828.23 196.955 Q2825.8 206.769 2825.59 207.26 Q2824.91 208.268 2823.92 208.268 Q2823.31 208.268 2822.94 207.893 Q2822.57 207.542 2822.57 206.979 Q2822.59 206.792 2822.73 206.206 L2829.62 178.451 Q2829.8 177.701 2830.27 177.28 Q2830.76 176.835 2831.04 176.788 Q2831.33 176.718 2831.54 176.718 Q2832.17 176.718 2832.54 177.069 Q2832.94 177.397 2832.94 178.006 Q2832.94 178.1 2832.8 178.638 Q2832.68 179.154 2832.5 179.95 Q2832.31 180.723 2832.22 181.074 L2830.2 189.132 Q2829.52 191.895 2829.52 193.207 Q2829.52 195.198 2830.41 196.299 Q2831.33 197.376 2833.08 197.376 Q2834.18 197.376 2835.21 196.931 Q2836.24 196.463 2836.95 195.83 Q2837.65 195.198 2838.21 194.519 Q2838.77 193.816 2839.03 193.371 Q2839.29 192.903 2839.31 192.785 L2840.55 187.89 L2842.83 178.919 Q2842.97 178.357 2843.22 177.982 Q2843.5 177.584 2843.83 177.444 Q2844.16 177.303 2844.35 177.28 Q2844.54 177.233 2844.7 177.233 Q2845.28 177.233 2845.68 177.584 Q2846.08 177.936 2846.08 178.545 Q2846.08 178.662 2845.94 179.224 Q2845.82 179.763 2845.64 180.559 Q2845.45 181.332 2845.36 181.753 Q2844.61 184.705 2844.54 185.009 L2843.2 190.186 Q2843.13 190.49 2842.9 191.474 Q2842.69 192.457 2842.57 192.973 Q2842.45 193.465 2842.33 194.144 Q2842.24 194.8 2842.24 195.175 Q2842.24 197.376 2843.69 197.376 Q2844.25 197.376 2844.75 197.048 Q2845.24 196.697 2845.57 196.205 Q2845.92 195.713 2846.25 194.87 Q2846.6 194.003 2846.81 193.301 Q2847.02 192.575 2847.32 191.45 Q2847.44 190.912 2847.56 190.748 Q2847.67 190.584 2848 190.584 Q2848.56 190.584 2848.56 191.052 Z" fill="#000000" fill-rule="nonzero" fill-opacity="1" /><path clip-path="url(#clip480)" d="M2853.41 221.456 Q2853.41 220.85 2853.46 220.669 Q2853.53 220.489 2853.79 220.21 L2860.23 213.029 Q2863.76 209.061 2863.76 205.602 Q2863.76 203.355 2862.58 201.749 Q2861.42 200.142 2859.27 200.142 Q2857.79 200.142 2856.55 201.044 Q2855.3 201.945 2854.73 203.552 Q2854.82 203.519 2855.17 203.519 Q2856 203.519 2856.46 204.044 Q2856.94 204.569 2856.94 205.274 Q2856.94 206.175 2856.35 206.618 Q2855.78 207.044 2855.2 207.044 Q2854.97 207.044 2854.66 206.995 Q2854.37 206.946 2853.89 206.487 Q2853.41 206.011 2853.41 205.175 Q2853.41 202.831 2855.19 200.962 Q2856.97 199.092 2859.69 199.092 Q2862.78 199.092 2864.79 200.929 Q2866.83 202.749 2866.83 205.602 Q2866.83 206.602 2866.51 207.52 Q2866.22 208.422 2865.81 209.127 Q2865.42 209.832 2864.33 210.963 Q2863.25 212.094 2862.38 212.898 Q2861.51 213.701 2859.56 215.406 L2856 218.866 L2862.05 218.866 Q2865.01 218.866 2865.24 218.603 Q2865.56 218.128 2865.97 215.619 L2866.83 215.619 L2865.88 221.456 L2853.41 221.456 Z" fill="#000000" fill-rule="nonzero" fill-opacity="1" /><polyline clip-path="url(#clip480)" style="stroke:#3da44d; stroke-linecap:round; stroke-linejoin:round; stroke-width:4; stroke-opacity:1; fill:none" points="2592.5,251.026 2789.7,251.026 "/>
<path clip-path="url(#clip480)" d="M2848.56 255.017 Q2847.96 258.039 2847.14 259.772 Q2845.82 262.419 2843.58 262.419 Q2841.98 262.419 2840.76 261.458 Q2839.57 260.498 2839.27 258.905 Q2838.66 259.631 2838.21 260.053 Q2837.79 260.475 2836.95 261.13 Q2836.13 261.763 2835.1 262.091 Q2834.07 262.419 2832.89 262.419 Q2830.04 262.419 2828.23 260.92 Q2825.8 270.734 2825.59 271.225 Q2824.91 272.233 2823.92 272.233 Q2823.31 272.233 2822.94 271.858 Q2822.57 271.507 2822.57 270.944 Q2822.59 270.757 2822.73 270.171 L2829.62 242.416 Q2829.8 241.666 2830.27 241.245 Q2830.76 240.8 2831.04 240.753 Q2831.33 240.683 2831.54 240.683 Q2832.17 240.683 2832.54 241.034 Q2832.94 241.362 2832.94 241.971 Q2832.94 242.065 2832.8 242.603 Q2832.68 243.119 2832.5 243.915 Q2832.31 244.688 2832.22 245.039 L2830.2 253.097 Q2829.52 255.86 2829.52 257.172 Q2829.52 259.163 2830.41 260.264 Q2831.33 261.341 2833.08 261.341 Q2834.18 261.341 2835.21 260.896 Q2836.24 260.428 2836.95 259.795 Q2837.65 259.163 2838.21 258.484 Q2838.77 257.781 2839.03 257.336 Q2839.29 256.868 2839.31 256.75 L2840.55 251.855 L2842.83 242.884 Q2842.97 242.322 2843.22 241.947 Q2843.5 241.549 2843.83 241.409 Q2844.16 241.268 2844.35 241.245 Q2844.54 241.198 2844.7 241.198 Q2845.28 241.198 2845.68 241.549 Q2846.08 241.901 2846.08 242.51 Q2846.08 242.627 2845.94 243.189 Q2845.82 243.728 2845.64 244.524 Q2845.45 245.297 2845.36 245.718 Q2844.61 248.67 2844.54 248.974 L2843.2 254.151 Q2843.13 254.455 2842.9 255.439 Q2842.69 256.422 2842.57 256.938 Q2842.45 257.43 2842.33 258.109 Q2842.24 258.765 2842.24 259.14 Q2842.24 261.341 2843.69 261.341 Q2844.25 261.341 2844.75 261.013 Q2845.24 260.662 2845.57 260.17 Q2845.92 259.678 2846.25 258.835 Q2846.6 257.968 2846.81 257.266 Q2847.02 256.54 2847.32 255.415 Q2847.44 254.877 2847.56 254.713 Q2847.67 254.549 2848 254.549 Q2848.56 254.549 2848.56 255.017 Z" fill="#000000" fill-rule="nonzero" fill-opacity="1" /><path clip-path="url(#clip480)" d="M2889.21 249.888 Q2889.21 241.783 2892.23 235.249 Q2893.52 232.508 2895.32 230.213 Q2897.13 227.917 2898.32 226.91 Q2899.52 225.903 2899.84 225.903 Q2900.31 225.903 2900.34 226.372 Q2900.34 226.606 2899.7 227.191 Q2891.97 235.061 2892 249.888 Q2892 264.761 2899.52 272.326 Q2900.34 273.146 2900.34 273.404 Q2900.34 273.872 2899.84 273.872 Q2899.52 273.872 2898.37 272.912 Q2897.22 271.952 2895.44 269.75 Q2893.66 267.548 2892.37 264.855 Q2889.21 258.32 2889.21 249.888 Z" fill="#000000" fill-rule="nonzero" fill-opacity="1" /><path clip-path="url(#clip480)" d="M2931.35 261.927 Q2931.35 262.372 2930.84 262.419 L2929.78 262.419 Q2928.71 262.419 2928.24 262.255 Q2927.77 262.091 2927.23 261.341 Q2926.9 260.873 2926.08 258.694 Q2925.29 256.493 2924.11 253.167 Q2922.97 249.841 2922.19 247.873 L2910.65 261.505 Q2909.85 262.512 2909.05 262.512 Q2908.47 262.512 2908.05 262.114 Q2907.63 261.716 2907.63 261.107 Q2907.63 260.662 2907.79 260.404 Q2907.98 260.147 2908.47 259.631 L2921.73 246.491 L2917.06 233.445 Q2916.17 231.033 2915.66 230.424 Q2915.17 229.815 2913.95 229.604 Q2913.5 229.487 2913.5 229.112 Q2913.5 228.597 2914.37 228.597 Q2919.01 228.597 2920.23 231.993 L2930.02 259.28 Q2930.56 260.849 2931.12 261.505 Q2931.35 261.81 2931.35 261.927 Z" fill="#000000" fill-rule="nonzero" fill-opacity="1" /><path clip-path="url(#clip480)" d="M2936.22 256.63 L2936.22 255.58 Q2940.26 255.58 2942.34 253.432 Q2942.91 253.432 2943.01 253.564 Q2943.11 253.695 2943.11 254.301 L2943.11 273.14 Q2943.11 274.14 2943.6 274.452 Q2944.09 274.763 2946.24 274.763 L2947.31 274.763 L2947.31 275.796 Q2946.13 275.698 2941.86 275.698 Q2937.6 275.698 2936.44 275.796 L2936.44 274.763 L2937.5 274.763 Q2939.62 274.763 2940.13 274.468 Q2940.63 274.157 2940.63 273.14 L2940.63 255.744 Q2938.88 256.63 2936.22 256.63 Z" fill="#000000" fill-rule="nonzero" fill-opacity="1" /><path clip-path="url(#clip480)" d="M2965.62 254.596 Q2965.67 254.01 2966.58 254.01 L2995.97 254.01 Q2997.36 254.01 2997.38 254.549 Q2997.38 255.134 2996.07 255.111 L2966.91 255.111 Q2965.62 255.134 2965.62 254.596 M2965.62 245.227 Q2965.62 244.641 2966.63 244.664 L2995.93 244.664 Q2997.36 244.664 2997.38 245.227 Q2997.38 245.765 2996.16 245.765 L2966.58 245.765 Q2965.62 245.765 2965.62 245.227 Z" fill="#000000" fill-rule="nonzero" fill-opacity="1" /><path clip-path="url(#clip480)" d="M3015.87 246.538 Q3015.87 239.488 3017.65 235.647 Q3020.14 229.932 3025.99 229.932 Q3027.23 229.932 3028.52 230.283 Q3029.83 230.611 3031.47 231.899 Q3033.14 233.187 3034.14 235.295 Q3036.06 239.371 3036.06 246.538 Q3036.06 253.542 3034.28 257.359 Q3031.68 262.934 3025.95 262.934 Q3023.79 262.934 3021.59 261.833 Q3019.41 260.732 3018.03 258.085 Q3015.87 254.127 3015.87 246.538 M3019.86 245.953 Q3019.86 253.19 3020.37 256.071 Q3020.96 259.186 3022.55 260.545 Q3024.17 261.88 3025.95 261.88 Q3027.87 261.88 3029.46 260.451 Q3031.08 258.999 3031.57 255.884 Q3032.11 252.815 3032.08 245.953 Q3032.08 239.277 3031.61 236.607 Q3030.98 233.492 3029.3 232.251 Q3027.63 230.986 3025.95 230.986 Q3025.31 230.986 3024.63 231.173 Q3023.98 231.36 3023.02 231.899 Q3022.06 232.438 3021.31 233.773 Q3020.58 235.108 3020.23 237.122 Q3019.86 239.722 3019.86 245.953 Z" fill="#000000" fill-rule="nonzero" fill-opacity="1" /><path clip-path="url(#clip480)" d="M3040.35 261.107 Q3039.62 260.334 3039.62 259.327 Q3039.62 258.32 3040.35 257.594 Q3041.08 256.844 3042.18 256.844 Q3043.23 256.844 3043.93 257.547 Q3044.66 258.226 3044.66 259.35 Q3044.66 260.451 3043.89 261.177 Q3043.14 261.88 3042.18 261.88 Q3041.08 261.88 3040.35 261.107 Z" fill="#000000" fill-rule="nonzero" fill-opacity="1" /><path clip-path="url(#clip480)" d="M3052.82 261.88 Q3052.82 261.013 3052.89 260.756 Q3052.99 260.498 3053.36 260.1 L3062.57 249.841 Q3067.6 244.173 3067.6 239.23 Q3067.6 236.022 3065.91 233.726 Q3064.25 231.431 3061.18 231.431 Q3059.08 231.431 3057.3 232.719 Q3055.52 234.007 3054.7 236.303 Q3054.84 236.256 3055.33 236.256 Q3056.52 236.256 3057.18 237.005 Q3057.86 237.755 3057.86 238.762 Q3057.86 240.05 3057.01 240.683 Q3056.19 241.292 3055.37 241.292 Q3055.05 241.292 3054.6 241.221 Q3054.18 241.151 3053.5 240.495 Q3052.82 239.816 3052.82 238.621 Q3052.82 235.272 3055.35 232.602 Q3057.9 229.932 3061.79 229.932 Q3066.2 229.932 3069.08 232.555 Q3071.98 235.155 3071.98 239.23 Q3071.98 240.659 3071.54 241.971 Q3071.11 243.259 3070.53 244.266 Q3069.97 245.273 3068.42 246.89 Q3066.88 248.506 3065.63 249.653 Q3064.39 250.801 3061.61 253.237 L3056.52 258.179 L3065.17 258.179 Q3069.38 258.179 3069.71 257.804 Q3070.18 257.125 3070.76 253.542 L3071.98 253.542 L3070.62 261.88 L3052.82 261.88 Z" fill="#000000" fill-rule="nonzero" fill-opacity="1" /><path clip-path="url(#clip480)" d="M3076.76 254.151 Q3076.76 252.722 3077.54 252.183 Q3078.31 251.621 3079.13 251.621 Q3080.23 251.621 3080.86 252.324 Q3081.52 253.003 3081.52 253.963 Q3081.52 254.923 3080.86 255.626 Q3080.23 256.305 3079.13 256.305 Q3078.59 256.305 3078.31 256.212 Q3078.94 258.413 3080.86 260.006 Q3082.81 261.599 3085.36 261.599 Q3088.57 261.599 3090.49 258.484 Q3091.64 256.469 3091.64 251.902 Q3091.64 247.873 3090.77 245.859 Q3089.44 242.791 3086.69 242.791 Q3082.81 242.791 3080.51 246.14 Q3080.23 246.562 3079.9 246.585 Q3079.43 246.585 3079.32 246.327 Q3079.22 246.046 3079.22 245.32 L3079.22 231.126 Q3079.22 229.979 3079.69 229.979 Q3079.88 229.979 3080.28 230.119 Q3083.3 231.454 3086.65 231.478 Q3090.09 231.478 3093.18 230.072 Q3093.42 229.932 3093.56 229.932 Q3094.03 229.932 3094.05 230.47 Q3094.05 230.658 3093.65 231.22 Q3093.28 231.759 3092.46 232.485 Q3091.64 233.187 3090.58 233.867 Q3089.53 234.546 3087.98 235.014 Q3086.46 235.459 3084.77 235.459 Q3082.76 235.459 3080.7 234.827 L3080.7 244.173 Q3083.18 241.737 3086.79 241.737 Q3090.63 241.737 3093.28 244.828 Q3095.92 247.92 3095.92 252.23 Q3095.92 256.75 3092.78 259.842 Q3089.67 262.934 3085.45 262.934 Q3081.61 262.934 3079.18 260.194 Q3076.76 257.453 3076.76 254.151 Z" fill="#000000" fill-rule="nonzero" fill-opacity="1" /><path clip-path="url(#clip480)" d="M3101.47 273.404 Q3101.47 273.17 3102.08 272.584 Q3109.81 264.714 3109.81 249.888 Q3109.81 235.014 3102.39 227.496 Q3101.47 226.629 3101.47 226.372 Q3101.47 225.903 3101.94 225.903 Q3102.27 225.903 3103.42 226.863 Q3104.59 227.824 3106.35 230.025 Q3108.13 232.227 3109.44 234.921 Q3112.6 241.456 3112.6 249.888 Q3112.6 257.992 3109.58 264.527 Q3108.29 267.267 3106.49 269.562 Q3104.68 271.858 3103.49 272.865 Q3102.29 273.872 3101.94 273.872 Q3101.47 273.872 3101.47 273.404 Z" fill="#000000" fill-rule="nonzero" fill-opacity="1" /><polyline clip-path="url(#clip480)" style="stroke:#c271d2; stroke-linecap:round; stroke-linejoin:round; stroke-width:4; stroke-opacity:1; fill:none" points="2592.5,302.866 2789.7,302.866 "/>
<path clip-path="url(#clip480)" d="M2848.56 306.857 Q2847.96 309.879 2847.14 311.612 Q2845.82 314.259 2843.58 314.259 Q2841.98 314.259 2840.76 313.298 Q2839.57 312.338 2839.27 310.745 Q2838.66 311.471 2838.21 311.893 Q2837.79 312.315 2836.95 312.97 Q2836.13 313.603 2835.1 313.931 Q2834.07 314.259 2832.89 314.259 Q2830.04 314.259 2828.23 312.76 Q2825.8 322.574 2825.59 323.065 Q2824.91 324.073 2823.92 324.073 Q2823.31 324.073 2822.94 323.698 Q2822.57 323.347 2822.57 322.784 Q2822.59 322.597 2822.73 322.011 L2829.62 294.256 Q2829.8 293.506 2830.27 293.085 Q2830.76 292.64 2831.04 292.593 Q2831.33 292.523 2831.54 292.523 Q2832.17 292.523 2832.54 292.874 Q2832.94 293.202 2832.94 293.811 Q2832.94 293.905 2832.8 294.443 Q2832.68 294.959 2832.5 295.755 Q2832.31 296.528 2832.22 296.879 L2830.2 304.937 Q2829.52 307.7 2829.52 309.012 Q2829.52 311.003 2830.41 312.104 Q2831.33 313.181 2833.08 313.181 Q2834.18 313.181 2835.21 312.736 Q2836.24 312.268 2836.95 311.635 Q2837.65 311.003 2838.21 310.324 Q2838.77 309.621 2839.03 309.176 Q2839.29 308.708 2839.31 308.59 L2840.55 303.695 L2842.83 294.724 Q2842.97 294.162 2843.22 293.787 Q2843.5 293.389 2843.83 293.249 Q2844.16 293.108 2844.35 293.085 Q2844.54 293.038 2844.7 293.038 Q2845.28 293.038 2845.68 293.389 Q2846.08 293.741 2846.08 294.35 Q2846.08 294.467 2845.94 295.029 Q2845.82 295.568 2845.64 296.364 Q2845.45 297.137 2845.36 297.558 Q2844.61 300.51 2844.54 300.814 L2843.2 305.991 Q2843.13 306.295 2842.9 307.279 Q2842.69 308.262 2842.57 308.778 Q2842.45 309.27 2842.33 309.949 Q2842.24 310.605 2842.24 310.98 Q2842.24 313.181 2843.69 313.181 Q2844.25 313.181 2844.75 312.853 Q2845.24 312.502 2845.57 312.01 Q2845.92 311.518 2846.25 310.675 Q2846.6 309.808 2846.81 309.106 Q2847.02 308.38 2847.32 307.255 Q2847.44 306.717 2847.56 306.553 Q2847.67 306.389 2848 306.389 Q2848.56 306.389 2848.56 306.857 Z" fill="#000000" fill-rule="nonzero" fill-opacity="1" /><path clip-path="url(#clip480)" d="M2889.21 301.728 Q2889.21 293.623 2892.23 287.089 Q2893.52 284.348 2895.32 282.053 Q2897.13 279.757 2898.32 278.75 Q2899.52 277.743 2899.84 277.743 Q2900.31 277.743 2900.34 278.212 Q2900.34 278.446 2899.7 279.031 Q2891.97 286.901 2892 301.728 Q2892 316.601 2899.52 324.166 Q2900.34 324.986 2900.34 325.244 Q2900.34 325.712 2899.84 325.712 Q2899.52 325.712 2898.37 324.752 Q2897.22 323.792 2895.44 321.59 Q2893.66 319.388 2892.37 316.695 Q2889.21 310.16 2889.21 301.728 Z" fill="#000000" fill-rule="nonzero" fill-opacity="1" /><path clip-path="url(#clip480)" d="M2931.35 313.767 Q2931.35 314.212 2930.84 314.259 L2929.78 314.259 Q2928.71 314.259 2928.24 314.095 Q2927.77 313.931 2927.23 313.181 Q2926.9 312.713 2926.08 310.534 Q2925.29 308.333 2924.11 305.007 Q2922.97 301.681 2922.19 299.713 L2910.65 313.345 Q2909.85 314.352 2909.05 314.352 Q2908.47 314.352 2908.05 313.954 Q2907.63 313.556 2907.63 312.947 Q2907.63 312.502 2907.79 312.244 Q2907.98 311.987 2908.47 311.471 L2921.73 298.331 L2917.06 285.285 Q2916.17 282.873 2915.66 282.264 Q2915.17 281.655 2913.95 281.444 Q2913.5 281.327 2913.5 280.952 Q2913.5 280.437 2914.37 280.437 Q2919.01 280.437 2920.23 283.833 L2930.02 311.12 Q2930.56 312.689 2931.12 313.345 Q2931.35 313.65 2931.35 313.767 Z" fill="#000000" fill-rule="nonzero" fill-opacity="1" /><path clip-path="url(#clip480)" d="M2936.22 308.47 L2936.22 307.42 Q2940.26 307.42 2942.34 305.272 Q2942.91 305.272 2943.01 305.404 Q2943.11 305.535 2943.11 306.141 L2943.11 324.98 Q2943.11 325.98 2943.6 326.292 Q2944.09 326.603 2946.24 326.603 L2947.31 326.603 L2947.31 327.636 Q2946.13 327.538 2941.86 327.538 Q2937.6 327.538 2936.44 327.636 L2936.44 326.603 L2937.5 326.603 Q2939.62 326.603 2940.13 326.308 Q2940.63 325.997 2940.63 324.98 L2940.63 307.584 Q2938.88 308.47 2936.22 308.47 Z" fill="#000000" fill-rule="nonzero" fill-opacity="1" /><path clip-path="url(#clip480)" d="M2965.62 306.436 Q2965.67 305.85 2966.58 305.85 L2995.97 305.85 Q2997.36 305.85 2997.38 306.389 Q2997.38 306.974 2996.07 306.951 L2966.91 306.951 Q2965.62 306.974 2965.62 306.436 M2965.62 297.067 Q2965.62 296.481 2966.63 296.504 L2995.93 296.504 Q2997.36 296.504 2997.38 297.067 Q2997.38 297.605 2996.16 297.605 L2966.58 297.605 Q2965.62 297.605 2965.62 297.067 Z" fill="#000000" fill-rule="nonzero" fill-opacity="1" /><path clip-path="url(#clip480)" d="M3015.87 298.378 Q3015.87 291.328 3017.65 287.487 Q3020.14 281.772 3025.99 281.772 Q3027.23 281.772 3028.52 282.123 Q3029.83 282.451 3031.47 283.739 Q3033.14 285.027 3034.14 287.135 Q3036.06 291.211 3036.06 298.378 Q3036.06 305.382 3034.28 309.199 Q3031.68 314.774 3025.95 314.774 Q3023.79 314.774 3021.59 313.673 Q3019.41 312.572 3018.03 309.925 Q3015.87 305.967 3015.87 298.378 M3019.86 297.793 Q3019.86 305.03 3020.37 307.911 Q3020.96 311.026 3022.55 312.385 Q3024.17 313.72 3025.95 313.72 Q3027.87 313.72 3029.46 312.291 Q3031.08 310.839 3031.57 307.724 Q3032.11 304.655 3032.08 297.793 Q3032.08 291.117 3031.61 288.447 Q3030.98 285.332 3029.3 284.091 Q3027.63 282.826 3025.95 282.826 Q3025.31 282.826 3024.63 283.013 Q3023.98 283.2 3023.02 283.739 Q3022.06 284.278 3021.31 285.613 Q3020.58 286.948 3020.23 288.962 Q3019.86 291.562 3019.86 297.793 Z" fill="#000000" fill-rule="nonzero" fill-opacity="1" /><path clip-path="url(#clip480)" d="M3040.35 312.947 Q3039.62 312.174 3039.62 311.167 Q3039.62 310.16 3040.35 309.434 Q3041.08 308.684 3042.18 308.684 Q3043.23 308.684 3043.93 309.387 Q3044.66 310.066 3044.66 311.19 Q3044.66 312.291 3043.89 313.017 Q3043.14 313.72 3042.18 313.72 Q3041.08 313.72 3040.35 312.947 Z" fill="#000000" fill-rule="nonzero" fill-opacity="1" /><path clip-path="url(#clip480)" d="M3052.82 305.991 Q3052.82 304.562 3053.59 304.023 Q3054.37 303.461 3055.19 303.461 Q3056.29 303.461 3056.92 304.164 Q3057.58 304.843 3057.58 305.803 Q3057.58 306.763 3056.92 307.466 Q3056.29 308.145 3055.19 308.145 Q3054.65 308.145 3054.37 308.052 Q3055 310.253 3056.92 311.846 Q3058.86 313.439 3061.42 313.439 Q3064.63 313.439 3066.55 310.324 Q3067.7 308.309 3067.7 303.742 Q3067.7 299.713 3066.83 297.699 Q3065.49 294.631 3062.75 294.631 Q3058.86 294.631 3056.57 297.98 Q3056.29 298.402 3055.96 298.425 Q3055.49 298.425 3055.37 298.167 Q3055.28 297.886 3055.28 297.16 L3055.28 282.966 Q3055.28 281.819 3055.75 281.819 Q3055.94 281.819 3056.34 281.959 Q3059.36 283.294 3062.71 283.318 Q3066.15 283.318 3069.24 281.912 Q3069.48 281.772 3069.62 281.772 Q3070.08 281.772 3070.11 282.31 Q3070.11 282.498 3069.71 283.06 Q3069.33 283.599 3068.51 284.325 Q3067.7 285.027 3066.64 285.707 Q3065.59 286.386 3064.04 286.854 Q3062.52 287.299 3060.83 287.299 Q3058.82 287.299 3056.76 286.667 L3056.76 296.013 Q3059.24 293.577 3062.85 293.577 Q3066.69 293.577 3069.33 296.668 Q3071.98 299.76 3071.98 304.07 Q3071.98 308.59 3068.84 311.682 Q3065.73 314.774 3061.51 314.774 Q3057.67 314.774 3055.23 312.034 Q3052.82 309.293 3052.82 305.991 Z" fill="#000000" fill-rule="nonzero" fill-opacity="1" /><path clip-path="url(#clip480)" d="M3077.53 325.244 Q3077.53 325.01 3078.14 324.424 Q3085.87 316.554 3085.87 301.728 Q3085.87 286.854 3078.45 279.336 Q3077.53 278.469 3077.53 278.212 Q3077.53 277.743 3078 277.743 Q3078.33 277.743 3079.48 278.703 Q3080.65 279.664 3082.4 281.865 Q3084.18 284.067 3085.5 286.761 Q3088.66 293.296 3088.66 301.728 Q3088.66 309.832 3085.64 316.367 Q3084.35 319.107 3082.54 321.402 Q3080.74 323.698 3079.55 324.705 Q3078.35 325.712 3078 325.712 Q3077.53 325.712 3077.53 325.244 Z" fill="#000000" fill-rule="nonzero" fill-opacity="1" /><polyline clip-path="url(#clip480)" style="stroke:#ac8d18; stroke-linecap:round; stroke-linejoin:round; stroke-width:4; stroke-opacity:1; fill:none" points="2592.5,354.706 2789.7,354.706 "/>
<path clip-path="url(#clip480)" d="M2848.56 358.697 Q2847.96 361.719 2847.14 363.452 Q2845.82 366.099 2843.58 366.099 Q2841.98 366.099 2840.76 365.138 Q2839.57 364.178 2839.27 362.585 Q2838.66 363.311 2838.21 363.733 Q2837.79 364.155 2836.95 364.81 Q2836.13 365.443 2835.1 365.771 Q2834.07 366.099 2832.89 366.099 Q2830.04 366.099 2828.23 364.6 Q2825.8 374.414 2825.59 374.905 Q2824.91 375.913 2823.92 375.913 Q2823.31 375.913 2822.94 375.538 Q2822.57 375.187 2822.57 374.624 Q2822.59 374.437 2822.73 373.851 L2829.62 346.096 Q2829.8 345.346 2830.27 344.925 Q2830.76 344.48 2831.04 344.433 Q2831.33 344.363 2831.54 344.363 Q2832.17 344.363 2832.54 344.714 Q2832.94 345.042 2832.94 345.651 Q2832.94 345.745 2832.8 346.283 Q2832.68 346.799 2832.5 347.595 Q2832.31 348.368 2832.22 348.719 L2830.2 356.777 Q2829.52 359.54 2829.52 360.852 Q2829.52 362.843 2830.41 363.944 Q2831.33 365.021 2833.08 365.021 Q2834.18 365.021 2835.21 364.576 Q2836.24 364.108 2836.95 363.475 Q2837.65 362.843 2838.21 362.164 Q2838.77 361.461 2839.03 361.016 Q2839.29 360.548 2839.31 360.43 L2840.55 355.535 L2842.83 346.564 Q2842.97 346.002 2843.22 345.627 Q2843.5 345.229 2843.83 345.089 Q2844.16 344.948 2844.35 344.925 Q2844.54 344.878 2844.7 344.878 Q2845.28 344.878 2845.68 345.229 Q2846.08 345.581 2846.08 346.19 Q2846.08 346.307 2845.94 346.869 Q2845.82 347.408 2845.64 348.204 Q2845.45 348.977 2845.36 349.398 Q2844.61 352.35 2844.54 352.654 L2843.2 357.831 Q2843.13 358.135 2842.9 359.119 Q2842.69 360.102 2842.57 360.618 Q2842.45 361.11 2842.33 361.789 Q2842.24 362.445 2842.24 362.82 Q2842.24 365.021 2843.69 365.021 Q2844.25 365.021 2844.75 364.693 Q2845.24 364.342 2845.57 363.85 Q2845.92 363.358 2846.25 362.515 Q2846.6 361.648 2846.81 360.946 Q2847.02 360.22 2847.32 359.095 Q2847.44 358.557 2847.56 358.393 Q2847.67 358.229 2848 358.229 Q2848.56 358.229 2848.56 358.697 Z" fill="#000000" fill-rule="nonzero" fill-opacity="1" /><path clip-path="url(#clip480)" d="M2889.21 353.568 Q2889.21 345.463 2892.23 338.929 Q2893.52 336.188 2895.32 333.893 Q2897.13 331.597 2898.32 330.59 Q2899.52 329.583 2899.84 329.583 Q2900.31 329.583 2900.34 330.052 Q2900.34 330.286 2899.7 330.871 Q2891.97 338.741 2892 353.568 Q2892 368.441 2899.52 376.006 Q2900.34 376.826 2900.34 377.084 Q2900.34 377.552 2899.84 377.552 Q2899.52 377.552 2898.37 376.592 Q2897.22 375.632 2895.44 373.43 Q2893.66 371.228 2892.37 368.535 Q2889.21 362 2889.21 353.568 Z" fill="#000000" fill-rule="nonzero" fill-opacity="1" /><path clip-path="url(#clip480)" d="M2931.35 365.607 Q2931.35 366.052 2930.84 366.099 L2929.78 366.099 Q2928.71 366.099 2928.24 365.935 Q2927.77 365.771 2927.23 365.021 Q2926.9 364.553 2926.08 362.374 Q2925.29 360.173 2924.11 356.847 Q2922.97 353.521 2922.19 351.553 L2910.65 365.185 Q2909.85 366.192 2909.05 366.192 Q2908.47 366.192 2908.05 365.794 Q2907.63 365.396 2907.63 364.787 Q2907.63 364.342 2907.79 364.084 Q2907.98 363.827 2908.47 363.311 L2921.73 350.171 L2917.06 337.125 Q2916.17 334.713 2915.66 334.104 Q2915.17 333.495 2913.95 333.284 Q2913.5 333.167 2913.5 332.792 Q2913.5 332.277 2914.37 332.277 Q2919.01 332.277 2920.23 335.673 L2930.02 362.96 Q2930.56 364.529 2931.12 365.185 Q2931.35 365.49 2931.35 365.607 Z" fill="#000000" fill-rule="nonzero" fill-opacity="1" /><path clip-path="url(#clip480)" d="M2936.22 360.31 L2936.22 359.26 Q2940.26 359.26 2942.34 357.112 Q2942.91 357.112 2943.01 357.244 Q2943.11 357.375 2943.11 357.981 L2943.11 376.82 Q2943.11 377.82 2943.6 378.132 Q2944.09 378.443 2946.24 378.443 L2947.31 378.443 L2947.31 379.476 Q2946.13 379.378 2941.86 379.378 Q2937.6 379.378 2936.44 379.476 L2936.44 378.443 L2937.5 378.443 Q2939.62 378.443 2940.13 378.148 Q2940.63 377.837 2940.63 376.82 L2940.63 359.424 Q2938.88 360.31 2936.22 360.31 Z" fill="#000000" fill-rule="nonzero" fill-opacity="1" /><path clip-path="url(#clip480)" d="M2965.62 358.276 Q2965.67 357.69 2966.58 357.69 L2995.97 357.69 Q2997.36 357.69 2997.38 358.229 Q2997.38 358.814 2996.07 358.791 L2966.91 358.791 Q2965.62 358.814 2965.62 358.276 M2965.62 348.907 Q2965.62 348.321 2966.63 348.344 L2995.93 348.344 Q2997.36 348.344 2997.38 348.907 Q2997.38 349.445 2996.16 349.445 L2966.58 349.445 Q2965.62 349.445 2965.62 348.907 Z" fill="#000000" fill-rule="nonzero" fill-opacity="1" /><path clip-path="url(#clip480)" d="M3015.87 350.218 Q3015.87 343.168 3017.65 339.327 Q3020.14 333.612 3025.99 333.612 Q3027.23 333.612 3028.52 333.963 Q3029.83 334.291 3031.47 335.579 Q3033.14 336.867 3034.14 338.975 Q3036.06 343.051 3036.06 350.218 Q3036.06 357.222 3034.28 361.039 Q3031.68 366.614 3025.95 366.614 Q3023.79 366.614 3021.59 365.513 Q3019.41 364.412 3018.03 361.765 Q3015.87 357.807 3015.87 350.218 M3019.86 349.633 Q3019.86 356.87 3020.37 359.751 Q3020.96 362.866 3022.55 364.225 Q3024.17 365.56 3025.95 365.56 Q3027.87 365.56 3029.46 364.131 Q3031.08 362.679 3031.57 359.564 Q3032.11 356.495 3032.08 349.633 Q3032.08 342.957 3031.61 340.287 Q3030.98 337.172 3029.3 335.931 Q3027.63 334.666 3025.95 334.666 Q3025.31 334.666 3024.63 334.853 Q3023.98 335.04 3023.02 335.579 Q3022.06 336.118 3021.31 337.453 Q3020.58 338.788 3020.23 340.802 Q3019.86 343.402 3019.86 349.633 Z" fill="#000000" fill-rule="nonzero" fill-opacity="1" /><path clip-path="url(#clip480)" d="M3040.35 364.787 Q3039.62 364.014 3039.62 363.007 Q3039.62 362 3040.35 361.274 Q3041.08 360.524 3042.18 360.524 Q3043.23 360.524 3043.93 361.227 Q3044.66 361.906 3044.66 363.03 Q3044.66 364.131 3043.89 364.857 Q3043.14 365.56 3042.18 365.56 Q3041.08 365.56 3040.35 364.787 Z" fill="#000000" fill-rule="nonzero" fill-opacity="1" /><path clip-path="url(#clip480)" d="M3052.82 343.004 L3054.39 333.143 L3055.59 333.143 Q3055.73 333.729 3055.96 333.986 Q3056.22 334.244 3057.58 334.455 Q3058.96 334.666 3061.75 334.666 L3073.39 334.666 Q3073.39 335.767 3072.97 336.352 L3066.48 345.463 Q3064.42 348.344 3063.5 353.661 Q3062.96 357.222 3062.99 361.531 L3062.99 363.967 Q3062.99 366.614 3060.76 366.614 Q3058.56 366.614 3058.56 363.967 Q3058.56 354.809 3064.46 345.932 Q3065.1 345.018 3067.41 341.763 Q3069.76 338.507 3069.85 338.366 L3059.92 338.366 Q3055.56 338.366 3055.21 338.648 Q3054.74 339.069 3054.02 343.004 L3052.82 343.004 Z" fill="#000000" fill-rule="nonzero" fill-opacity="1" /><path clip-path="url(#clip480)" d="M3072.5 357.831 Q3072.5 356.402 3073.27 355.863 Q3074.04 355.301 3074.86 355.301 Q3075.96 355.301 3076.59 356.004 Q3077.25 356.683 3077.25 357.643 Q3077.25 358.603 3076.59 359.306 Q3075.96 359.985 3074.86 359.985 Q3074.32 359.985 3074.04 359.892 Q3074.67 362.093 3076.59 363.686 Q3078.54 365.279 3081.09 365.279 Q3084.3 365.279 3086.22 362.164 Q3087.37 360.149 3087.37 355.582 Q3087.37 351.553 3086.5 349.539 Q3085.17 346.471 3082.43 346.471 Q3078.54 346.471 3076.24 349.82 Q3075.96 350.242 3075.63 350.265 Q3075.17 350.265 3075.05 350.007 Q3074.96 349.726 3074.96 349 L3074.96 334.806 Q3074.96 333.659 3075.42 333.659 Q3075.61 333.659 3076.01 333.799 Q3079.03 335.134 3082.38 335.158 Q3085.82 335.158 3088.91 333.752 Q3089.15 333.612 3089.29 333.612 Q3089.76 333.612 3089.78 334.15 Q3089.78 334.338 3089.38 334.9 Q3089.01 335.439 3088.19 336.165 Q3087.37 336.867 3086.32 337.547 Q3085.26 338.226 3083.72 338.694 Q3082.19 339.139 3080.51 339.139 Q3078.49 339.139 3076.43 338.507 L3076.43 347.853 Q3078.91 345.417 3082.52 345.417 Q3086.36 345.417 3089.01 348.508 Q3091.66 351.6 3091.66 355.91 Q3091.66 360.43 3088.52 363.522 Q3085.4 366.614 3081.19 366.614 Q3077.34 366.614 3074.91 363.874 Q3072.5 361.133 3072.5 357.831 Z" fill="#000000" fill-rule="nonzero" fill-opacity="1" /><path clip-path="url(#clip480)" d="M3097.21 377.084 Q3097.21 376.85 3097.81 376.264 Q3105.54 368.394 3105.54 353.568 Q3105.54 338.694 3098.12 331.176 Q3097.21 330.309 3097.21 330.052 Q3097.21 329.583 3097.67 329.583 Q3098 329.583 3099.15 330.543 Q3100.32 331.504 3102.08 333.705 Q3103.86 335.907 3105.17 338.601 Q3108.33 345.136 3108.33 353.568 Q3108.33 361.672 3105.31 368.207 Q3104.02 370.947 3102.22 373.242 Q3100.41 375.538 3099.22 376.545 Q3098.03 377.552 3097.67 377.552 Q3097.21 377.552 3097.21 377.084 Z" fill="#000000" fill-rule="nonzero" fill-opacity="1" /></svg>
