<?xml version="1.0" encoding="utf-8"?>
<svg xmlns="http://www.w3.org/2000/svg" xmlns:xlink="http://www.w3.org/1999/xlink" width="600" height="400" viewBox="0 0 2400 1600">
<defs>
  <clipPath id="clip530">
    <rect x="0" y="0" width="2400" height="1600"/>
  </clipPath>
</defs>
<path clip-path="url(#clip530)" d="M0 1600 L2400 1600 L2400 0 L0 0  Z" fill="#ffffff" fill-rule="evenodd" fill-opacity="1"/>
<defs>
  <clipPath id="clip531">
    <rect x="480" y="0" width="1681" height="1600"/>
  </clipPath>
</defs>
<path clip-path="url(#clip530)" d="M147.478 1486.45 L2352.76 1486.45 L2352.76 123.472 L147.478 123.472  Z" fill="#ffffff" fill-rule="evenodd" fill-opacity="1"/>
<defs>
  <clipPath id="clip532">
    <rect x="147" y="123" width="2206" height="1364"/>
  </clipPath>
</defs>
<polyline clip-path="url(#clip532)" style="stroke:#000000; stroke-linecap:round; stroke-linejoin:round; stroke-width:2; stroke-opacity:0.1; fill:none" points="496.853,1486.45 496.853,123.472 "/>
<polyline clip-path="url(#clip532)" style="stroke:#000000; stroke-linecap:round; stroke-linejoin:round; stroke-width:2; stroke-opacity:0.1; fill:none" points="863.359,1486.45 863.359,123.472 "/>
<polyline clip-path="url(#clip532)" style="stroke:#000000; stroke-linecap:round; stroke-linejoin:round; stroke-width:2; stroke-opacity:0.1; fill:none" points="1229.86,1486.45 1229.86,123.472 "/>
<polyline clip-path="url(#clip532)" style="stroke:#000000; stroke-linecap:round; stroke-linejoin:round; stroke-width:2; stroke-opacity:0.1; fill:none" points="1596.37,1486.45 1596.37,123.472 "/>
<polyline clip-path="url(#clip532)" style="stroke:#000000; stroke-linecap:round; stroke-linejoin:round; stroke-width:2; stroke-opacity:0.1; fill:none" points="1962.88,1486.45 1962.88,123.472 "/>
<polyline clip-path="url(#clip532)" style="stroke:#000000; stroke-linecap:round; stroke-linejoin:round; stroke-width:2; stroke-opacity:0.1; fill:none" points="2329.38,1486.45 2329.38,123.472 "/>
<polyline clip-path="url(#clip532)" style="stroke:#000000; stroke-linecap:round; stroke-linejoin:round; stroke-width:2; stroke-opacity:0.1; fill:none" points="147.478,1390.73 2352.76,1390.73 "/>
<polyline clip-path="url(#clip532)" style="stroke:#000000; stroke-linecap:round; stroke-linejoin:round; stroke-width:2; stroke-opacity:0.1; fill:none" points="147.478,1141.77 2352.76,1141.77 "/>
<polyline clip-path="url(#clip532)" style="stroke:#000000; stroke-linecap:round; stroke-linejoin:round; stroke-width:2; stroke-opacity:0.1; fill:none" points="147.478,892.819 2352.76,892.819 "/>
<polyline clip-path="url(#clip532)" style="stroke:#000000; stroke-linecap:round; stroke-linejoin:round; stroke-width:2; stroke-opacity:0.1; fill:none" points="147.478,643.864 2352.76,643.864 "/>
<polyline clip-path="url(#clip532)" style="stroke:#000000; stroke-linecap:round; stroke-linejoin:round; stroke-width:2; stroke-opacity:0.1; fill:none" points="147.478,394.908 2352.76,394.908 "/>
<polyline clip-path="url(#clip532)" style="stroke:#000000; stroke-linecap:round; stroke-linejoin:round; stroke-width:2; stroke-opacity:0.1; fill:none" points="147.478,145.953 2352.76,145.953 "/>
<polyline clip-path="url(#clip530)" style="stroke:#000000; stroke-linecap:round; stroke-linejoin:round; stroke-width:4; stroke-opacity:1; fill:none" points="147.478,1486.45 2352.76,1486.45 "/>
<polyline clip-path="url(#clip530)" style="stroke:#000000; stroke-linecap:round; stroke-linejoin:round; stroke-width:4; stroke-opacity:1; fill:none" points="496.853,1486.45 496.853,1467.55 "/>
<polyline clip-path="url(#clip530)" style="stroke:#000000; stroke-linecap:round; stroke-linejoin:round; stroke-width:4; stroke-opacity:1; fill:none" points="863.359,1486.45 863.359,1467.55 "/>
<polyline clip-path="url(#clip530)" style="stroke:#000000; stroke-linecap:round; stroke-linejoin:round; stroke-width:4; stroke-opacity:1; fill:none" points="1229.86,1486.45 1229.86,1467.55 "/>
<polyline clip-path="url(#clip530)" style="stroke:#000000; stroke-linecap:round; stroke-linejoin:round; stroke-width:4; stroke-opacity:1; fill:none" points="1596.37,1486.45 1596.37,1467.55 "/>
<polyline clip-path="url(#clip530)" style="stroke:#000000; stroke-linecap:round; stroke-linejoin:round; stroke-width:4; stroke-opacity:1; fill:none" points="1962.88,1486.45 1962.88,1467.55 "/>
<polyline clip-path="url(#clip530)" style="stroke:#000000; stroke-linecap:round; stroke-linejoin:round; stroke-width:4; stroke-opacity:1; fill:none" points="2329.38,1486.45 2329.38,1467.55 "/>
<path clip-path="url(#clip530)" d="M466.795 1532.02 L496.471 1532.02 L496.471 1535.95 L466.795 1535.95 L466.795 1532.02 Z" fill="#000000" fill-rule="nonzero" fill-opacity="1" /><path clip-path="url(#clip530)" d="M510.591 1544.91 L526.91 1544.91 L526.91 1548.85 L504.966 1548.85 L504.966 1544.91 Q507.628 1542.16 512.211 1537.53 Q516.818 1532.88 517.998 1531.53 Q520.244 1529.01 521.123 1527.27 Q522.026 1525.51 522.026 1523.82 Q522.026 1521.07 520.082 1519.33 Q518.16 1517.6 515.059 1517.6 Q512.86 1517.6 510.406 1518.36 Q507.975 1519.13 505.198 1520.68 L505.198 1515.95 Q508.022 1514.82 510.475 1514.24 Q512.929 1513.66 514.966 1513.66 Q520.336 1513.66 523.531 1516.35 Q526.725 1519.03 526.725 1523.52 Q526.725 1525.65 525.915 1527.57 Q525.128 1529.47 523.021 1532.07 Q522.443 1532.74 519.341 1535.95 Q516.239 1539.15 510.591 1544.91 Z" fill="#000000" fill-rule="nonzero" fill-opacity="1" /><path clip-path="url(#clip530)" d="M833.116 1532.02 L862.791 1532.02 L862.791 1535.95 L833.116 1535.95 L833.116 1532.02 Z" fill="#000000" fill-rule="nonzero" fill-opacity="1" /><path clip-path="url(#clip530)" d="M873.694 1544.91 L881.333 1544.91 L881.333 1518.55 L873.023 1520.21 L873.023 1515.95 L881.287 1514.29 L885.963 1514.29 L885.963 1544.91 L893.601 1544.91 L893.601 1548.85 L873.694 1548.85 L873.694 1544.91 Z" fill="#000000" fill-rule="nonzero" fill-opacity="1" /><path clip-path="url(#clip530)" d="M1229.86 1517.37 Q1226.25 1517.37 1224.42 1520.93 Q1222.62 1524.47 1222.62 1531.6 Q1222.62 1538.71 1224.42 1542.27 Q1226.25 1545.82 1229.86 1545.82 Q1233.5 1545.82 1235.3 1542.27 Q1237.13 1538.71 1237.13 1531.6 Q1237.13 1524.47 1235.3 1520.93 Q1233.5 1517.37 1229.86 1517.37 M1229.86 1513.66 Q1235.67 1513.66 1238.73 1518.27 Q1241.81 1522.85 1241.81 1531.6 Q1241.81 1540.33 1238.73 1544.94 Q1235.67 1549.52 1229.86 1549.52 Q1224.05 1549.52 1220.98 1544.94 Q1217.92 1540.33 1217.92 1531.6 Q1217.92 1522.85 1220.98 1518.27 Q1224.05 1513.66 1229.86 1513.66 Z" fill="#000000" fill-rule="nonzero" fill-opacity="1" /><path clip-path="url(#clip530)" d="M1586.75 1544.91 L1594.39 1544.91 L1594.39 1518.55 L1586.08 1520.21 L1586.08 1515.95 L1594.34 1514.29 L1599.02 1514.29 L1599.02 1544.91 L1606.66 1544.91 L1606.66 1548.85 L1586.75 1548.85 L1586.75 1544.91 Z" fill="#000000" fill-rule="nonzero" fill-opacity="1" /><path clip-path="url(#clip530)" d="M1957.53 1544.91 L1973.85 1544.91 L1973.85 1548.85 L1951.9 1548.85 L1951.9 1544.91 Q1954.57 1542.16 1959.15 1537.53 Q1963.76 1532.88 1964.94 1531.53 Q1967.18 1529.01 1968.06 1527.27 Q1968.96 1525.51 1968.96 1523.82 Q1968.96 1521.07 1967.02 1519.33 Q1965.1 1517.6 1962 1517.6 Q1959.8 1517.6 1957.34 1518.36 Q1954.91 1519.13 1952.14 1520.68 L1952.14 1515.95 Q1954.96 1514.82 1957.41 1514.24 Q1959.87 1513.66 1961.9 1513.66 Q1967.27 1513.66 1970.47 1516.35 Q1973.66 1519.03 1973.66 1523.52 Q1973.66 1525.65 1972.85 1527.57 Q1972.07 1529.47 1969.96 1532.07 Q1969.38 1532.74 1966.28 1535.95 Q1963.18 1539.15 1957.53 1544.91 Z" fill="#000000" fill-rule="nonzero" fill-opacity="1" /><path clip-path="url(#clip530)" d="M2333.63 1530.21 Q2336.99 1530.93 2338.86 1533.2 Q2340.76 1535.47 2340.76 1538.8 Q2340.76 1543.92 2337.24 1546.72 Q2333.72 1549.52 2327.24 1549.52 Q2325.06 1549.52 2322.75 1549.08 Q2320.46 1548.66 2318 1547.81 L2318 1543.29 Q2319.95 1544.43 2322.26 1545.01 Q2324.58 1545.58 2327.1 1545.58 Q2331.5 1545.58 2333.79 1543.85 Q2336.11 1542.11 2336.11 1538.8 Q2336.11 1535.75 2333.95 1534.03 Q2331.82 1532.3 2328 1532.3 L2323.98 1532.3 L2323.98 1528.45 L2328.19 1528.45 Q2331.64 1528.45 2333.47 1527.09 Q2335.3 1525.7 2335.3 1523.11 Q2335.3 1520.45 2333.4 1519.03 Q2331.52 1517.6 2328 1517.6 Q2326.08 1517.6 2323.88 1518.01 Q2321.69 1518.43 2319.05 1519.31 L2319.05 1515.14 Q2321.71 1514.4 2324.02 1514.03 Q2326.36 1513.66 2328.42 1513.66 Q2333.75 1513.66 2336.85 1516.09 Q2339.95 1518.5 2339.95 1522.62 Q2339.95 1525.49 2338.31 1527.48 Q2336.66 1529.45 2333.63 1530.21 Z" fill="#000000" fill-rule="nonzero" fill-opacity="1" /><polyline clip-path="url(#clip530)" style="stroke:#000000; stroke-linecap:round; stroke-linejoin:round; stroke-width:4; stroke-opacity:1; fill:none" points="147.478,1486.45 147.478,123.472 "/>
<polyline clip-path="url(#clip530)" style="stroke:#000000; stroke-linecap:round; stroke-linejoin:round; stroke-width:4; stroke-opacity:1; fill:none" points="147.478,1390.73 166.376,1390.73 "/>
<polyline clip-path="url(#clip530)" style="stroke:#000000; stroke-linecap:round; stroke-linejoin:round; stroke-width:4; stroke-opacity:1; fill:none" points="147.478,1141.77 166.376,1141.77 "/>
<polyline clip-path="url(#clip530)" style="stroke:#000000; stroke-linecap:round; stroke-linejoin:round; stroke-width:4; stroke-opacity:1; fill:none" points="147.478,892.819 166.376,892.819 "/>
<polyline clip-path="url(#clip530)" style="stroke:#000000; stroke-linecap:round; stroke-linejoin:round; stroke-width:4; stroke-opacity:1; fill:none" points="147.478,643.864 166.376,643.864 "/>
<polyline clip-path="url(#clip530)" style="stroke:#000000; stroke-linecap:round; stroke-linejoin:round; stroke-width:4; stroke-opacity:1; fill:none" points="147.478,394.908 166.376,394.908 "/>
<polyline clip-path="url(#clip530)" style="stroke:#000000; stroke-linecap:round; stroke-linejoin:round; stroke-width:4; stroke-opacity:1; fill:none" points="147.478,145.953 166.376,145.953 "/>
<path clip-path="url(#clip530)" d="M51.3625 1391.18 L81.0383 1391.18 L81.0383 1395.12 L51.3625 1395.12 L51.3625 1391.18 Z" fill="#000000" fill-rule="nonzero" fill-opacity="1" /><path clip-path="url(#clip530)" d="M95.1586 1404.07 L111.478 1404.07 L111.478 1408.01 L89.5336 1408.01 L89.5336 1404.07 Q92.1956 1401.32 96.7789 1396.69 Q101.385 1392.04 102.566 1390.69 Q104.811 1388.17 105.691 1386.44 Q106.594 1384.68 106.594 1382.99 Q106.594 1380.23 104.649 1378.5 Q102.728 1376.76 99.6261 1376.76 Q97.4271 1376.76 94.9734 1377.52 Q92.5428 1378.29 89.7651 1379.84 L89.7651 1375.12 Q92.5891 1373.98 95.0428 1373.4 Q97.4965 1372.82 99.5335 1372.82 Q104.904 1372.82 108.098 1375.51 Q111.293 1378.19 111.293 1382.69 Q111.293 1384.82 110.483 1386.74 Q109.696 1388.63 107.589 1391.23 Q107.01 1391.9 103.909 1395.12 Q100.807 1398.31 95.1586 1404.07 Z" fill="#000000" fill-rule="nonzero" fill-opacity="1" /><path clip-path="url(#clip530)" d="M50.9921 1142.23 L80.6679 1142.23 L80.6679 1146.16 L50.9921 1146.16 L50.9921 1142.23 Z" fill="#000000" fill-rule="nonzero" fill-opacity="1" /><path clip-path="url(#clip530)" d="M91.5706 1155.12 L99.2095 1155.12 L99.2095 1128.75 L90.8993 1130.42 L90.8993 1126.16 L99.1632 1124.49 L103.839 1124.49 L103.839 1155.12 L111.478 1155.12 L111.478 1159.05 L91.5706 1159.05 L91.5706 1155.12 Z" fill="#000000" fill-rule="nonzero" fill-opacity="1" /><path clip-path="url(#clip530)" d="M99.5335 878.618 Q95.9224 878.618 94.0937 882.182 Q92.2882 885.724 92.2882 892.854 Q92.2882 899.96 94.0937 903.525 Q95.9224 907.067 99.5335 907.067 Q103.168 907.067 104.973 903.525 Q106.802 899.96 106.802 892.854 Q106.802 885.724 104.973 882.182 Q103.168 878.618 99.5335 878.618 M99.5335 874.914 Q105.344 874.914 108.399 879.52 Q111.478 884.104 111.478 892.854 Q111.478 901.58 108.399 906.187 Q105.344 910.77 99.5335 910.77 Q93.7234 910.77 90.6447 906.187 Q87.5892 901.58 87.5892 892.854 Q87.5892 884.104 90.6447 879.52 Q93.7234 874.914 99.5335 874.914 Z" fill="#000000" fill-rule="nonzero" fill-opacity="1" /><path clip-path="url(#clip530)" d="M91.5706 657.208 L99.2095 657.208 L99.2095 630.843 L90.8993 632.509 L90.8993 628.25 L99.1632 626.584 L103.839 626.584 L103.839 657.208 L111.478 657.208 L111.478 661.144 L91.5706 661.144 L91.5706 657.208 Z" fill="#000000" fill-rule="nonzero" fill-opacity="1" /><path clip-path="url(#clip530)" d="M95.1586 408.253 L111.478 408.253 L111.478 412.188 L89.5336 412.188 L89.5336 408.253 Q92.1956 405.498 96.7789 400.869 Q101.385 396.216 102.566 394.874 Q104.811 392.35 105.691 390.614 Q106.594 388.855 106.594 387.165 Q106.594 384.411 104.649 382.675 Q102.728 380.938 99.6261 380.938 Q97.4271 380.938 94.9734 381.702 Q92.5428 382.466 89.7651 384.017 L89.7651 379.295 Q92.5891 378.161 95.0428 377.582 Q97.4965 377.003 99.5335 377.003 Q104.904 377.003 108.098 379.688 Q111.293 382.374 111.293 386.864 Q111.293 388.994 110.483 390.915 Q109.696 392.813 107.589 395.406 Q107.01 396.077 103.909 399.295 Q100.807 402.489 95.1586 408.253 Z" fill="#000000" fill-rule="nonzero" fill-opacity="1" /><path clip-path="url(#clip530)" d="M104.348 144.599 Q107.705 145.316 109.58 147.585 Q111.478 149.853 111.478 153.187 Q111.478 158.302 107.959 161.103 Q104.441 163.904 97.9595 163.904 Q95.7836 163.904 93.4688 163.464 Q91.1771 163.048 88.7234 162.191 L88.7234 157.677 Q90.6678 158.812 92.9826 159.39 Q95.2974 159.969 97.8206 159.969 Q102.219 159.969 104.51 158.233 Q106.825 156.497 106.825 153.187 Q106.825 150.131 104.672 148.418 Q102.543 146.682 98.7234 146.682 L94.6956 146.682 L94.6956 142.839 L98.9085 142.839 Q102.358 142.839 104.186 141.474 Q106.015 140.085 106.015 137.492 Q106.015 134.83 104.117 133.418 Q102.242 131.983 98.7234 131.983 Q96.8021 131.983 94.603 132.4 Q92.4039 132.816 89.7651 133.696 L89.7651 129.529 Q92.4271 128.789 94.7419 128.418 Q97.0798 128.048 99.14 128.048 Q104.464 128.048 107.566 130.478 Q110.668 132.886 110.668 137.006 Q110.668 139.877 109.024 141.867 Q107.381 143.835 104.348 144.599 Z" fill="#000000" fill-rule="nonzero" fill-opacity="1" /><path clip-path="url(#clip530)" d="M1270.57 51.8206 Q1269.5 57.1082 1268.07 60.1414 Q1265.77 64.7732 1261.84 64.7732 Q1259.05 64.7732 1256.92 63.0926 Q1254.83 61.4121 1254.29 58.6248 Q1253.23 59.8955 1252.45 60.6333 Q1251.71 61.3711 1250.24 62.5188 Q1248.8 63.6255 1247 64.1993 Q1245.19 64.7732 1243.15 64.7732 Q1238.14 64.7732 1234.99 62.1499 Q1230.73 79.3244 1230.36 80.1852 Q1229.17 81.9477 1227.45 81.9477 Q1226.38 81.9477 1225.73 81.2919 Q1225.07 80.677 1225.07 79.6933 Q1225.11 79.3654 1225.36 78.3406 L1237.41 29.7683 Q1237.73 28.4567 1238.55 27.7189 Q1239.42 26.9401 1239.91 26.8581 Q1240.4 26.7351 1240.77 26.7351 Q1241.87 26.7351 1242.53 27.35 Q1243.23 27.9238 1243.23 28.9896 Q1243.23 29.1535 1242.98 30.0963 Q1242.78 30.998 1242.45 32.3917 Q1242.12 33.7443 1241.96 34.3591 L1238.43 48.4595 Q1237.24 53.2962 1237.24 55.5916 Q1237.24 59.0757 1238.8 61.0022 Q1240.4 62.8877 1243.47 62.8877 Q1245.4 62.8877 1247.2 62.1089 Q1249.01 61.2891 1250.24 60.1824 Q1251.47 59.0757 1252.45 57.887 Q1253.43 56.6573 1253.88 55.8785 Q1254.34 55.0587 1254.38 54.8538 L1256.55 46.287 L1260.52 30.5881 Q1260.77 29.6044 1261.22 28.9486 Q1261.71 28.2517 1262.29 28.0058 Q1262.86 27.7599 1263.19 27.7189 Q1263.52 27.6369 1263.8 27.6369 Q1264.83 27.6369 1265.53 28.2517 Q1266.22 28.8666 1266.22 29.9323 Q1266.22 30.1373 1265.98 31.121 Q1265.77 32.0637 1265.44 33.4574 Q1265.12 34.81 1264.95 35.5478 Q1263.64 40.7125 1263.52 41.2453 L1261.18 50.304 Q1261.06 50.8368 1260.65 52.5584 Q1260.28 54.2799 1260.07 55.1817 Q1259.87 56.0425 1259.66 57.2312 Q1259.5 58.3789 1259.5 59.0347 Q1259.5 62.8877 1262.04 62.8877 Q1263.03 62.8877 1263.89 62.3138 Q1264.75 61.699 1265.32 60.8382 Q1265.94 59.9774 1266.51 58.5018 Q1267.12 56.9852 1267.49 55.7555 Q1267.86 54.4849 1268.39 52.5174 Q1268.6 51.5746 1268.8 51.2877 Q1269.01 51.0008 1269.58 51.0008 Q1270.57 51.0008 1270.57 51.8206 Z" fill="#000000" fill-rule="nonzero" fill-opacity="1" /><circle clip-path="url(#clip532)" cx="1261.05" cy="385.457" r="14.4" fill="#009af9" fill-rule="evenodd" fill-opacity="0.25" stroke="#000000" stroke-opacity="0.25" stroke-width="3.2"/>
<circle clip-path="url(#clip532)" cx="632.891" cy="1179.74" r="14.4" fill="#009af9" fill-rule="evenodd" fill-opacity="0.25" stroke="#000000" stroke-opacity="0.25" stroke-width="3.2"/>
<circle clip-path="url(#clip532)" cx="1279.35" cy="418.74" r="14.4" fill="#009af9" fill-rule="evenodd" fill-opacity="0.25" stroke="#000000" stroke-opacity="0.25" stroke-width="3.2"/>
<circle clip-path="url(#clip532)" cx="1529.72" cy="1221.57" r="14.4" fill="#009af9" fill-rule="evenodd" fill-opacity="0.25" stroke="#000000" stroke-opacity="0.25" stroke-width="3.2"/>
<circle clip-path="url(#clip532)" cx="713.087" cy="1107.83" r="14.4" fill="#009af9" fill-rule="evenodd" fill-opacity="0.25" stroke="#000000" stroke-opacity="0.25" stroke-width="3.2"/>
<circle clip-path="url(#clip532)" cx="2012.64" cy="1186.04" r="14.4" fill="#009af9" fill-rule="evenodd" fill-opacity="0.25" stroke="#000000" stroke-opacity="0.25" stroke-width="3.2"/>
<circle clip-path="url(#clip532)" cx="387.898" cy="1248.49" r="14.4" fill="#009af9" fill-rule="evenodd" fill-opacity="0.25" stroke="#000000" stroke-opacity="0.25" stroke-width="3.2"/>
<circle clip-path="url(#clip532)" cx="1674.81" cy="1244.14" r="14.4" fill="#009af9" fill-rule="evenodd" fill-opacity="0.25" stroke="#000000" stroke-opacity="0.25" stroke-width="3.2"/>
<circle clip-path="url(#clip532)" cx="1276.69" cy="357.888" r="14.4" fill="#009af9" fill-rule="evenodd" fill-opacity="0.25" stroke="#000000" stroke-opacity="0.25" stroke-width="3.2"/>
<circle clip-path="url(#clip532)" cx="1509.16" cy="385.46" r="14.4" fill="#009af9" fill-rule="evenodd" fill-opacity="0.25" stroke="#000000" stroke-opacity="0.25" stroke-width="3.2"/>
<circle clip-path="url(#clip532)" cx="1360.15" cy="247.285" r="14.4" fill="#009af9" fill-rule="evenodd" fill-opacity="0.25" stroke="#000000" stroke-opacity="0.25" stroke-width="3.2"/>
<circle clip-path="url(#clip532)" cx="1293.97" cy="480.243" r="14.4" fill="#009af9" fill-rule="evenodd" fill-opacity="0.25" stroke="#000000" stroke-opacity="0.25" stroke-width="3.2"/>
<circle clip-path="url(#clip532)" cx="1728.08" cy="1197.85" r="14.4" fill="#009af9" fill-rule="evenodd" fill-opacity="0.25" stroke="#000000" stroke-opacity="0.25" stroke-width="3.2"/>
<circle clip-path="url(#clip532)" cx="1419.6" cy="386.214" r="14.4" fill="#009af9" fill-rule="evenodd" fill-opacity="0.25" stroke="#000000" stroke-opacity="0.25" stroke-width="3.2"/>
<circle clip-path="url(#clip532)" cx="1896.78" cy="1238.32" r="14.4" fill="#009af9" fill-rule="evenodd" fill-opacity="0.25" stroke="#000000" stroke-opacity="0.25" stroke-width="3.2"/>
<circle clip-path="url(#clip532)" cx="1776.38" cy="1204.36" r="14.4" fill="#009af9" fill-rule="evenodd" fill-opacity="0.25" stroke="#000000" stroke-opacity="0.25" stroke-width="3.2"/>
<circle clip-path="url(#clip532)" cx="1171.18" cy="541.331" r="14.4" fill="#009af9" fill-rule="evenodd" fill-opacity="0.25" stroke="#000000" stroke-opacity="0.25" stroke-width="3.2"/>
<circle clip-path="url(#clip532)" cx="497.925" cy="1137.56" r="14.4" fill="#009af9" fill-rule="evenodd" fill-opacity="0.25" stroke="#000000" stroke-opacity="0.25" stroke-width="3.2"/>
<circle clip-path="url(#clip532)" cx="388.614" cy="1198.67" r="14.4" fill="#009af9" fill-rule="evenodd" fill-opacity="0.25" stroke="#000000" stroke-opacity="0.25" stroke-width="3.2"/>
<circle clip-path="url(#clip532)" cx="1125.57" cy="470.356" r="14.4" fill="#009af9" fill-rule="evenodd" fill-opacity="0.25" stroke="#000000" stroke-opacity="0.25" stroke-width="3.2"/>
<circle clip-path="url(#clip532)" cx="911.386" cy="1023.03" r="14.4" fill="#009af9" fill-rule="evenodd" fill-opacity="0.25" stroke="#000000" stroke-opacity="0.25" stroke-width="3.2"/>
<circle clip-path="url(#clip532)" cx="1474.54" cy="369.354" r="14.4" fill="#009af9" fill-rule="evenodd" fill-opacity="0.25" stroke="#000000" stroke-opacity="0.25" stroke-width="3.2"/>
<circle clip-path="url(#clip532)" cx="2290.34" cy="1090.75" r="14.4" fill="#009af9" fill-rule="evenodd" fill-opacity="0.25" stroke="#000000" stroke-opacity="0.25" stroke-width="3.2"/>
<circle clip-path="url(#clip532)" cx="919.861" cy="1150.1" r="14.4" fill="#009af9" fill-rule="evenodd" fill-opacity="0.25" stroke="#000000" stroke-opacity="0.25" stroke-width="3.2"/>
<circle clip-path="url(#clip532)" cx="1267.05" cy="420.626" r="14.4" fill="#009af9" fill-rule="evenodd" fill-opacity="0.25" stroke="#000000" stroke-opacity="0.25" stroke-width="3.2"/>
<circle clip-path="url(#clip532)" cx="492.614" cy="912.052" r="14.4" fill="#009af9" fill-rule="evenodd" fill-opacity="0.25" stroke="#000000" stroke-opacity="0.25" stroke-width="3.2"/>
<circle clip-path="url(#clip532)" cx="770.979" cy="1208.04" r="14.4" fill="#009af9" fill-rule="evenodd" fill-opacity="0.25" stroke="#000000" stroke-opacity="0.25" stroke-width="3.2"/>
<circle clip-path="url(#clip532)" cx="655.222" cy="1147.47" r="14.4" fill="#009af9" fill-rule="evenodd" fill-opacity="0.25" stroke="#000000" stroke-opacity="0.25" stroke-width="3.2"/>
<circle clip-path="url(#clip532)" cx="1708.16" cy="427.397" r="14.4" fill="#009af9" fill-rule="evenodd" fill-opacity="0.25" stroke="#000000" stroke-opacity="0.25" stroke-width="3.2"/>
<circle clip-path="url(#clip532)" cx="1289.26" cy="537.07" r="14.4" fill="#009af9" fill-rule="evenodd" fill-opacity="0.25" stroke="#000000" stroke-opacity="0.25" stroke-width="3.2"/>
<circle clip-path="url(#clip532)" cx="765.996" cy="1267.48" r="14.4" fill="#009af9" fill-rule="evenodd" fill-opacity="0.25" stroke="#000000" stroke-opacity="0.25" stroke-width="3.2"/>
<circle clip-path="url(#clip532)" cx="986.925" cy="939.184" r="14.4" fill="#009af9" fill-rule="evenodd" fill-opacity="0.25" stroke="#000000" stroke-opacity="0.25" stroke-width="3.2"/>
<circle clip-path="url(#clip532)" cx="1228.07" cy="305.898" r="14.4" fill="#009af9" fill-rule="evenodd" fill-opacity="0.25" stroke="#000000" stroke-opacity="0.25" stroke-width="3.2"/>
<circle clip-path="url(#clip532)" cx="1376.61" cy="249.416" r="14.4" fill="#009af9" fill-rule="evenodd" fill-opacity="0.25" stroke="#000000" stroke-opacity="0.25" stroke-width="3.2"/>
<circle clip-path="url(#clip532)" cx="705.545" cy="992.668" r="14.4" fill="#009af9" fill-rule="evenodd" fill-opacity="0.25" stroke="#000000" stroke-opacity="0.25" stroke-width="3.2"/>
<circle clip-path="url(#clip532)" cx="1131.88" cy="507.755" r="14.4" fill="#009af9" fill-rule="evenodd" fill-opacity="0.25" stroke="#000000" stroke-opacity="0.25" stroke-width="3.2"/>
<circle clip-path="url(#clip532)" cx="505.718" cy="1352.14" r="14.4" fill="#009af9" fill-rule="evenodd" fill-opacity="0.25" stroke="#000000" stroke-opacity="0.25" stroke-width="3.2"/>
<circle clip-path="url(#clip532)" cx="668.931" cy="1155.78" r="14.4" fill="#009af9" fill-rule="evenodd" fill-opacity="0.25" stroke="#000000" stroke-opacity="0.25" stroke-width="3.2"/>
<circle clip-path="url(#clip532)" cx="1607.15" cy="1154.73" r="14.4" fill="#009af9" fill-rule="evenodd" fill-opacity="0.25" stroke="#000000" stroke-opacity="0.25" stroke-width="3.2"/>
<circle clip-path="url(#clip532)" cx="536.402" cy="905.044" r="14.4" fill="#009af9" fill-rule="evenodd" fill-opacity="0.25" stroke="#000000" stroke-opacity="0.25" stroke-width="3.2"/>
<circle clip-path="url(#clip532)" cx="611.201" cy="1223.19" r="14.4" fill="#009af9" fill-rule="evenodd" fill-opacity="0.25" stroke="#000000" stroke-opacity="0.25" stroke-width="3.2"/>
<circle clip-path="url(#clip532)" cx="1578.89" cy="1050.35" r="14.4" fill="#009af9" fill-rule="evenodd" fill-opacity="0.25" stroke="#000000" stroke-opacity="0.25" stroke-width="3.2"/>
<circle clip-path="url(#clip532)" cx="1944.84" cy="1153.39" r="14.4" fill="#009af9" fill-rule="evenodd" fill-opacity="0.25" stroke="#000000" stroke-opacity="0.25" stroke-width="3.2"/>
<circle clip-path="url(#clip532)" cx="1128.93" cy="312.142" r="14.4" fill="#009af9" fill-rule="evenodd" fill-opacity="0.25" stroke="#000000" stroke-opacity="0.25" stroke-width="3.2"/>
<circle clip-path="url(#clip532)" cx="592.363" cy="1105.37" r="14.4" fill="#009af9" fill-rule="evenodd" fill-opacity="0.25" stroke="#000000" stroke-opacity="0.25" stroke-width="3.2"/>
<circle clip-path="url(#clip532)" cx="1627.31" cy="1151.86" r="14.4" fill="#009af9" fill-rule="evenodd" fill-opacity="0.25" stroke="#000000" stroke-opacity="0.25" stroke-width="3.2"/>
<circle clip-path="url(#clip532)" cx="1250.47" cy="310.006" r="14.4" fill="#009af9" fill-rule="evenodd" fill-opacity="0.25" stroke="#000000" stroke-opacity="0.25" stroke-width="3.2"/>
<circle clip-path="url(#clip532)" cx="842.667" cy="969.02" r="14.4" fill="#009af9" fill-rule="evenodd" fill-opacity="0.25" stroke="#000000" stroke-opacity="0.25" stroke-width="3.2"/>
<circle clip-path="url(#clip532)" cx="2051.19" cy="1044.48" r="14.4" fill="#009af9" fill-rule="evenodd" fill-opacity="0.25" stroke="#000000" stroke-opacity="0.25" stroke-width="3.2"/>
<circle clip-path="url(#clip532)" cx="1888.77" cy="1132.69" r="14.4" fill="#009af9" fill-rule="evenodd" fill-opacity="0.25" stroke="#000000" stroke-opacity="0.25" stroke-width="3.2"/>
<circle clip-path="url(#clip532)" cx="1769.91" cy="1248.23" r="14.4" fill="#009af9" fill-rule="evenodd" fill-opacity="0.25" stroke="#000000" stroke-opacity="0.25" stroke-width="3.2"/>
<circle clip-path="url(#clip532)" cx="2056.13" cy="1067.35" r="14.4" fill="#009af9" fill-rule="evenodd" fill-opacity="0.25" stroke="#000000" stroke-opacity="0.25" stroke-width="3.2"/>
<circle clip-path="url(#clip532)" cx="1977.39" cy="1179.5" r="14.4" fill="#009af9" fill-rule="evenodd" fill-opacity="0.25" stroke="#000000" stroke-opacity="0.25" stroke-width="3.2"/>
<circle clip-path="url(#clip532)" cx="1003.11" cy="397.566" r="14.4" fill="#009af9" fill-rule="evenodd" fill-opacity="0.25" stroke="#000000" stroke-opacity="0.25" stroke-width="3.2"/>
<circle clip-path="url(#clip532)" cx="1214.46" cy="383.562" r="14.4" fill="#009af9" fill-rule="evenodd" fill-opacity="0.25" stroke="#000000" stroke-opacity="0.25" stroke-width="3.2"/>
<circle clip-path="url(#clip532)" cx="1828.24" cy="1253.72" r="14.4" fill="#009af9" fill-rule="evenodd" fill-opacity="0.25" stroke="#000000" stroke-opacity="0.25" stroke-width="3.2"/>
<circle clip-path="url(#clip532)" cx="411.441" cy="1209.54" r="14.4" fill="#009af9" fill-rule="evenodd" fill-opacity="0.25" stroke="#000000" stroke-opacity="0.25" stroke-width="3.2"/>
<circle clip-path="url(#clip532)" cx="1312.68" cy="583.189" r="14.4" fill="#009af9" fill-rule="evenodd" fill-opacity="0.25" stroke="#000000" stroke-opacity="0.25" stroke-width="3.2"/>
<circle clip-path="url(#clip532)" cx="1834.79" cy="1263.07" r="14.4" fill="#009af9" fill-rule="evenodd" fill-opacity="0.25" stroke="#000000" stroke-opacity="0.25" stroke-width="3.2"/>
<circle clip-path="url(#clip532)" cx="1286" cy="162.047" r="14.4" fill="#009af9" fill-rule="evenodd" fill-opacity="0.25" stroke="#000000" stroke-opacity="0.25" stroke-width="3.2"/>
<circle clip-path="url(#clip532)" cx="376.433" cy="1150.32" r="14.4" fill="#009af9" fill-rule="evenodd" fill-opacity="0.25" stroke="#000000" stroke-opacity="0.25" stroke-width="3.2"/>
<circle clip-path="url(#clip532)" cx="910.141" cy="1447.87" r="14.4" fill="#009af9" fill-rule="evenodd" fill-opacity="0.25" stroke="#000000" stroke-opacity="0.25" stroke-width="3.2"/>
<circle clip-path="url(#clip532)" cx="461.038" cy="1360.03" r="14.4" fill="#009af9" fill-rule="evenodd" fill-opacity="0.25" stroke="#000000" stroke-opacity="0.25" stroke-width="3.2"/>
<circle clip-path="url(#clip532)" cx="282.646" cy="1324.08" r="14.4" fill="#009af9" fill-rule="evenodd" fill-opacity="0.25" stroke="#000000" stroke-opacity="0.25" stroke-width="3.2"/>
<circle clip-path="url(#clip532)" cx="1044.24" cy="564.255" r="14.4" fill="#009af9" fill-rule="evenodd" fill-opacity="0.25" stroke="#000000" stroke-opacity="0.25" stroke-width="3.2"/>
<circle clip-path="url(#clip532)" cx="888.694" cy="721.219" r="14.4" fill="#009af9" fill-rule="evenodd" fill-opacity="0.25" stroke="#000000" stroke-opacity="0.25" stroke-width="3.2"/>
<circle clip-path="url(#clip532)" cx="209.891" cy="1107.16" r="14.4" fill="#009af9" fill-rule="evenodd" fill-opacity="0.25" stroke="#000000" stroke-opacity="0.25" stroke-width="3.2"/>
<circle clip-path="url(#clip532)" cx="947.262" cy="245.228" r="14.4" fill="#009af9" fill-rule="evenodd" fill-opacity="0.25" stroke="#000000" stroke-opacity="0.25" stroke-width="3.2"/>
<circle clip-path="url(#clip532)" cx="1480.25" cy="351.86" r="14.4" fill="#009af9" fill-rule="evenodd" fill-opacity="0.25" stroke="#000000" stroke-opacity="0.25" stroke-width="3.2"/>
<circle clip-path="url(#clip532)" cx="1897.26" cy="1051.97" r="14.4" fill="#009af9" fill-rule="evenodd" fill-opacity="0.25" stroke="#000000" stroke-opacity="0.25" stroke-width="3.2"/>
<circle clip-path="url(#clip532)" cx="578.091" cy="1210.55" r="14.4" fill="#009af9" fill-rule="evenodd" fill-opacity="0.25" stroke="#000000" stroke-opacity="0.25" stroke-width="3.2"/>
<circle clip-path="url(#clip532)" cx="1203.67" cy="337.076" r="14.4" fill="#009af9" fill-rule="evenodd" fill-opacity="0.25" stroke="#000000" stroke-opacity="0.25" stroke-width="3.2"/>
<circle clip-path="url(#clip532)" cx="501.848" cy="893.041" r="14.4" fill="#009af9" fill-rule="evenodd" fill-opacity="0.25" stroke="#000000" stroke-opacity="0.25" stroke-width="3.2"/>
<circle clip-path="url(#clip532)" cx="1287.77" cy="396.876" r="14.4" fill="#009af9" fill-rule="evenodd" fill-opacity="0.25" stroke="#000000" stroke-opacity="0.25" stroke-width="3.2"/>
<circle clip-path="url(#clip532)" cx="532.984" cy="916.043" r="14.4" fill="#009af9" fill-rule="evenodd" fill-opacity="0.25" stroke="#000000" stroke-opacity="0.25" stroke-width="3.2"/>
<circle clip-path="url(#clip532)" cx="564.247" cy="1240.52" r="14.4" fill="#009af9" fill-rule="evenodd" fill-opacity="0.25" stroke="#000000" stroke-opacity="0.25" stroke-width="3.2"/>
<circle clip-path="url(#clip532)" cx="1787.28" cy="1273.35" r="14.4" fill="#009af9" fill-rule="evenodd" fill-opacity="0.25" stroke="#000000" stroke-opacity="0.25" stroke-width="3.2"/>
<circle clip-path="url(#clip532)" cx="914.831" cy="942.93" r="14.4" fill="#009af9" fill-rule="evenodd" fill-opacity="0.25" stroke="#000000" stroke-opacity="0.25" stroke-width="3.2"/>
<circle clip-path="url(#clip532)" cx="1758.87" cy="1297.6" r="14.4" fill="#009af9" fill-rule="evenodd" fill-opacity="0.25" stroke="#000000" stroke-opacity="0.25" stroke-width="3.2"/>
<circle clip-path="url(#clip532)" cx="588.717" cy="978.379" r="14.4" fill="#009af9" fill-rule="evenodd" fill-opacity="0.25" stroke="#000000" stroke-opacity="0.25" stroke-width="3.2"/>
<circle clip-path="url(#clip532)" cx="2026.63" cy="990.727" r="14.4" fill="#009af9" fill-rule="evenodd" fill-opacity="0.25" stroke="#000000" stroke-opacity="0.25" stroke-width="3.2"/>
<circle clip-path="url(#clip532)" cx="1805.88" cy="1197.03" r="14.4" fill="#009af9" fill-rule="evenodd" fill-opacity="0.25" stroke="#000000" stroke-opacity="0.25" stroke-width="3.2"/>
<circle clip-path="url(#clip532)" cx="669.176" cy="944.474" r="14.4" fill="#009af9" fill-rule="evenodd" fill-opacity="0.25" stroke="#000000" stroke-opacity="0.25" stroke-width="3.2"/>
<circle clip-path="url(#clip532)" cx="437.171" cy="1159.56" r="14.4" fill="#009af9" fill-rule="evenodd" fill-opacity="0.25" stroke="#000000" stroke-opacity="0.25" stroke-width="3.2"/>
<circle clip-path="url(#clip532)" cx="477.228" cy="980.003" r="14.4" fill="#009af9" fill-rule="evenodd" fill-opacity="0.25" stroke="#000000" stroke-opacity="0.25" stroke-width="3.2"/>
<circle clip-path="url(#clip532)" cx="1644.75" cy="1096" r="14.4" fill="#009af9" fill-rule="evenodd" fill-opacity="0.25" stroke="#000000" stroke-opacity="0.25" stroke-width="3.2"/>
<circle clip-path="url(#clip532)" cx="1777.9" cy="1189.06" r="14.4" fill="#009af9" fill-rule="evenodd" fill-opacity="0.25" stroke="#000000" stroke-opacity="0.25" stroke-width="3.2"/>
<circle clip-path="url(#clip532)" cx="2062.96" cy="1152.49" r="14.4" fill="#009af9" fill-rule="evenodd" fill-opacity="0.25" stroke="#000000" stroke-opacity="0.25" stroke-width="3.2"/>
<circle clip-path="url(#clip532)" cx="1829.85" cy="1181.73" r="14.4" fill="#009af9" fill-rule="evenodd" fill-opacity="0.25" stroke="#000000" stroke-opacity="0.25" stroke-width="3.2"/>
<circle clip-path="url(#clip532)" cx="1895.43" cy="1232.17" r="14.4" fill="#009af9" fill-rule="evenodd" fill-opacity="0.25" stroke="#000000" stroke-opacity="0.25" stroke-width="3.2"/>
<circle clip-path="url(#clip532)" cx="939.029" cy="1089.92" r="14.4" fill="#009af9" fill-rule="evenodd" fill-opacity="0.25" stroke="#000000" stroke-opacity="0.25" stroke-width="3.2"/>
<circle clip-path="url(#clip532)" cx="648.871" cy="1172.46" r="14.4" fill="#009af9" fill-rule="evenodd" fill-opacity="0.25" stroke="#000000" stroke-opacity="0.25" stroke-width="3.2"/>
<circle clip-path="url(#clip532)" cx="2011.48" cy="1236.64" r="14.4" fill="#009af9" fill-rule="evenodd" fill-opacity="0.25" stroke="#000000" stroke-opacity="0.25" stroke-width="3.2"/>
<circle clip-path="url(#clip532)" cx="1247.65" cy="448.238" r="14.4" fill="#009af9" fill-rule="evenodd" fill-opacity="0.25" stroke="#000000" stroke-opacity="0.25" stroke-width="3.2"/>
<circle clip-path="url(#clip532)" cx="1108.62" cy="366.147" r="14.4" fill="#009af9" fill-rule="evenodd" fill-opacity="0.25" stroke="#000000" stroke-opacity="0.25" stroke-width="3.2"/>
<circle clip-path="url(#clip532)" cx="853.474" cy="1023.28" r="14.4" fill="#009af9" fill-rule="evenodd" fill-opacity="0.25" stroke="#000000" stroke-opacity="0.25" stroke-width="3.2"/>
<circle clip-path="url(#clip532)" cx="1002.63" cy="413.2" r="14.4" fill="#009af9" fill-rule="evenodd" fill-opacity="0.25" stroke="#000000" stroke-opacity="0.25" stroke-width="3.2"/>
<circle clip-path="url(#clip532)" cx="555.446" cy="1111.06" r="14.4" fill="#009af9" fill-rule="evenodd" fill-opacity="0.25" stroke="#000000" stroke-opacity="0.25" stroke-width="3.2"/>
<circle clip-path="url(#clip532)" cx="1398.59" cy="513.751" r="14.4" fill="#009af9" fill-rule="evenodd" fill-opacity="0.25" stroke="#000000" stroke-opacity="0.25" stroke-width="3.2"/>
<circle clip-path="url(#clip532)" cx="862.518" cy="475.585" r="14.4" fill="#009af9" fill-rule="evenodd" fill-opacity="0.25" stroke="#000000" stroke-opacity="0.25" stroke-width="3.2"/>
<path clip-path="url(#clip530)" d="M2006.29 272.585 L2279.25 272.585 L2279.25 168.905 L2006.29 168.905  Z" fill="#ffffff" fill-rule="evenodd" fill-opacity="1"/>
<polyline clip-path="url(#clip530)" style="stroke:#000000; stroke-linecap:round; stroke-linejoin:round; stroke-width:4; stroke-opacity:1; fill:none" points="2006.29,272.585 2279.25,272.585 2279.25,168.905 2006.29,168.905 2006.29,272.585 "/>
<circle clip-path="url(#clip530)" cx="2104.3" cy="220.745" r="20.48" fill="#009af9" fill-rule="evenodd" fill-opacity="0.25" stroke="#000000" stroke-opacity="0.25" stroke-width="4.55111"/>
<path clip-path="url(#clip530)" d="M2216.16 240.432 Q2214.35 245.062 2212.64 246.474 Q2210.92 247.886 2208.05 247.886 L2204.65 247.886 L2204.65 244.321 L2207.15 244.321 Q2208.91 244.321 2209.88 243.488 Q2210.85 242.654 2212.04 239.552 L2212.8 237.608 L2202.31 212.099 L2206.83 212.099 L2214.93 232.377 L2223.03 212.099 L2227.54 212.099 L2216.16 240.432 Z" fill="#000000" fill-rule="nonzero" fill-opacity="1" /><path clip-path="url(#clip530)" d="M2234.84 234.089 L2242.48 234.089 L2242.48 207.724 L2234.16 209.391 L2234.16 205.131 L2242.43 203.465 L2247.1 203.465 L2247.1 234.089 L2254.74 234.089 L2254.74 238.025 L2234.84 238.025 L2234.84 234.089 Z" fill="#000000" fill-rule="nonzero" fill-opacity="1" /></svg>
