<?xml version="1.0" encoding="utf-8"?>
<svg xmlns="http://www.w3.org/2000/svg" xmlns:xlink="http://www.w3.org/1999/xlink" width="600" height="400" viewBox="0 0 2400 1600">
<defs>
  <clipPath id="clip380">
    <rect x="0" y="0" width="2400" height="1600"/>
  </clipPath>
</defs>
<path clip-path="url(#clip380)" d="M0 1600 L2400 1600 L2400 0 L0 0  Z" fill="#ffffff" fill-rule="evenodd" fill-opacity="1"/>
<defs>
  <clipPath id="clip381">
    <rect x="480" y="0" width="1681" height="1600"/>
  </clipPath>
</defs>
<path clip-path="url(#clip380)" d="M186.76 1486.45 L2352.76 1486.45 L2352.76 123.472 L186.76 123.472  Z" fill="#ffffff" fill-rule="evenodd" fill-opacity="1"/>
<defs>
  <clipPath id="clip382">
    <rect x="186" y="123" width="2167" height="1364"/>
  </clipPath>
</defs>
<polyline clip-path="url(#clip382)" style="stroke:#000000; stroke-linecap:round; stroke-linejoin:round; stroke-width:2; stroke-opacity:0.1; fill:none" points="418.345,1486.45 418.345,123.472 "/>
<polyline clip-path="url(#clip382)" style="stroke:#000000; stroke-linecap:round; stroke-linejoin:round; stroke-width:2; stroke-opacity:0.1; fill:none" points="844.051,1486.45 844.051,123.472 "/>
<polyline clip-path="url(#clip382)" style="stroke:#000000; stroke-linecap:round; stroke-linejoin:round; stroke-width:2; stroke-opacity:0.1; fill:none" points="1269.76,1486.45 1269.76,123.472 "/>
<polyline clip-path="url(#clip382)" style="stroke:#000000; stroke-linecap:round; stroke-linejoin:round; stroke-width:2; stroke-opacity:0.1; fill:none" points="1695.46,1486.45 1695.46,123.472 "/>
<polyline clip-path="url(#clip382)" style="stroke:#000000; stroke-linecap:round; stroke-linejoin:round; stroke-width:2; stroke-opacity:0.1; fill:none" points="2121.17,1486.45 2121.17,123.472 "/>
<polyline clip-path="url(#clip382)" style="stroke:#000000; stroke-linecap:round; stroke-linejoin:round; stroke-width:2; stroke-opacity:0.1; fill:none" points="186.76,1447.87 2352.76,1447.87 "/>
<polyline clip-path="url(#clip382)" style="stroke:#000000; stroke-linecap:round; stroke-linejoin:round; stroke-width:2; stroke-opacity:0.1; fill:none" points="186.76,1070.84 2352.76,1070.84 "/>
<polyline clip-path="url(#clip382)" style="stroke:#000000; stroke-linecap:round; stroke-linejoin:round; stroke-width:2; stroke-opacity:0.1; fill:none" points="186.76,693.81 2352.76,693.81 "/>
<polyline clip-path="url(#clip382)" style="stroke:#000000; stroke-linecap:round; stroke-linejoin:round; stroke-width:2; stroke-opacity:0.1; fill:none" points="186.76,316.778 2352.76,316.778 "/>
<polyline clip-path="url(#clip380)" style="stroke:#000000; stroke-linecap:round; stroke-linejoin:round; stroke-width:4; stroke-opacity:1; fill:none" points="186.76,1486.45 2352.76,1486.45 "/>
<polyline clip-path="url(#clip380)" style="stroke:#000000; stroke-linecap:round; stroke-linejoin:round; stroke-width:4; stroke-opacity:1; fill:none" points="418.345,1486.45 418.345,1467.55 "/>
<polyline clip-path="url(#clip380)" style="stroke:#000000; stroke-linecap:round; stroke-linejoin:round; stroke-width:4; stroke-opacity:1; fill:none" points="844.051,1486.45 844.051,1467.55 "/>
<polyline clip-path="url(#clip380)" style="stroke:#000000; stroke-linecap:round; stroke-linejoin:round; stroke-width:4; stroke-opacity:1; fill:none" points="1269.76,1486.45 1269.76,1467.55 "/>
<polyline clip-path="url(#clip380)" style="stroke:#000000; stroke-linecap:round; stroke-linejoin:round; stroke-width:4; stroke-opacity:1; fill:none" points="1695.46,1486.45 1695.46,1467.55 "/>
<polyline clip-path="url(#clip380)" style="stroke:#000000; stroke-linecap:round; stroke-linejoin:round; stroke-width:4; stroke-opacity:1; fill:none" points="2121.17,1486.45 2121.17,1467.55 "/>
<path clip-path="url(#clip380)" d="M372.407 1532.02 L402.083 1532.02 L402.083 1535.95 L372.407 1535.95 L372.407 1532.02 Z" fill="#000000" fill-rule="nonzero" fill-opacity="1" /><path clip-path="url(#clip380)" d="M412.986 1544.91 L420.625 1544.91 L420.625 1518.55 L412.315 1520.21 L412.315 1515.95 L420.578 1514.29 L425.254 1514.29 L425.254 1544.91 L432.893 1544.91 L432.893 1548.85 L412.986 1548.85 L412.986 1544.91 Z" fill="#000000" fill-rule="nonzero" fill-opacity="1" /><path clip-path="url(#clip380)" d="M452.337 1517.37 Q448.726 1517.37 446.898 1520.93 Q445.092 1524.47 445.092 1531.6 Q445.092 1538.71 446.898 1542.27 Q448.726 1545.82 452.337 1545.82 Q455.972 1545.82 457.777 1542.27 Q459.606 1538.71 459.606 1531.6 Q459.606 1524.47 457.777 1520.93 Q455.972 1517.37 452.337 1517.37 M452.337 1513.66 Q458.148 1513.66 461.203 1518.27 Q464.282 1522.85 464.282 1531.6 Q464.282 1540.33 461.203 1544.94 Q458.148 1549.52 452.337 1549.52 Q446.527 1549.52 443.449 1544.94 Q440.393 1540.33 440.393 1531.6 Q440.393 1522.85 443.449 1518.27 Q446.527 1513.66 452.337 1513.66 Z" fill="#000000" fill-rule="nonzero" fill-opacity="1" /><path clip-path="url(#clip380)" d="M813.693 1532.02 L843.368 1532.02 L843.368 1535.95 L813.693 1535.95 L813.693 1532.02 Z" fill="#000000" fill-rule="nonzero" fill-opacity="1" /><path clip-path="url(#clip380)" d="M853.507 1514.29 L871.864 1514.29 L871.864 1518.22 L857.79 1518.22 L857.79 1526.7 Q858.808 1526.35 859.827 1526.19 Q860.845 1526 861.864 1526 Q867.651 1526 871.03 1529.17 Q874.41 1532.34 874.41 1537.76 Q874.41 1543.34 870.938 1546.44 Q867.466 1549.52 861.146 1549.52 Q858.97 1549.52 856.702 1549.15 Q854.456 1548.78 852.049 1548.04 L852.049 1543.34 Q854.132 1544.47 856.354 1545.03 Q858.577 1545.58 861.054 1545.58 Q865.058 1545.58 867.396 1543.48 Q869.734 1541.37 869.734 1537.76 Q869.734 1534.15 867.396 1532.04 Q865.058 1529.94 861.054 1529.94 Q859.179 1529.94 857.304 1530.35 Q855.452 1530.77 853.507 1531.65 L853.507 1514.29 Z" fill="#000000" fill-rule="nonzero" fill-opacity="1" /><path clip-path="url(#clip380)" d="M1269.76 1517.37 Q1266.15 1517.37 1264.32 1520.93 Q1262.51 1524.47 1262.51 1531.6 Q1262.51 1538.71 1264.32 1542.27 Q1266.15 1545.82 1269.76 1545.82 Q1273.39 1545.82 1275.2 1542.27 Q1277.03 1538.71 1277.03 1531.6 Q1277.03 1524.47 1275.2 1520.93 Q1273.39 1517.37 1269.76 1517.37 M1269.76 1513.66 Q1275.57 1513.66 1278.62 1518.27 Q1281.7 1522.85 1281.7 1531.6 Q1281.7 1540.33 1278.62 1544.94 Q1275.57 1549.52 1269.76 1549.52 Q1263.95 1549.52 1260.87 1544.94 Q1257.81 1540.33 1257.81 1531.6 Q1257.81 1522.85 1260.87 1518.27 Q1263.95 1513.66 1269.76 1513.66 Z" fill="#000000" fill-rule="nonzero" fill-opacity="1" /><path clip-path="url(#clip380)" d="M1685.74 1514.29 L1704.1 1514.29 L1704.1 1518.22 L1690.02 1518.22 L1690.02 1526.7 Q1691.04 1526.35 1692.06 1526.19 Q1693.08 1526 1694.1 1526 Q1699.89 1526 1703.27 1529.17 Q1706.65 1532.34 1706.65 1537.76 Q1706.65 1543.34 1703.17 1546.44 Q1699.7 1549.52 1693.38 1549.52 Q1691.21 1549.52 1688.94 1549.15 Q1686.69 1548.78 1684.28 1548.04 L1684.28 1543.34 Q1686.37 1544.47 1688.59 1545.03 Q1690.81 1545.58 1693.29 1545.58 Q1697.29 1545.58 1699.63 1543.48 Q1701.97 1541.37 1701.97 1537.76 Q1701.97 1534.15 1699.63 1532.04 Q1697.29 1529.94 1693.29 1529.94 Q1691.41 1529.94 1689.54 1530.35 Q1687.69 1530.77 1685.74 1531.65 L1685.74 1514.29 Z" fill="#000000" fill-rule="nonzero" fill-opacity="1" /><path clip-path="url(#clip380)" d="M2095.86 1544.91 L2103.5 1544.91 L2103.5 1518.55 L2095.19 1520.21 L2095.19 1515.95 L2103.45 1514.29 L2108.13 1514.29 L2108.13 1544.91 L2115.77 1544.91 L2115.77 1548.85 L2095.86 1548.85 L2095.86 1544.91 Z" fill="#000000" fill-rule="nonzero" fill-opacity="1" /><path clip-path="url(#clip380)" d="M2135.21 1517.37 Q2131.6 1517.37 2129.77 1520.93 Q2127.97 1524.47 2127.97 1531.6 Q2127.97 1538.71 2129.77 1542.27 Q2131.6 1545.82 2135.21 1545.82 Q2138.84 1545.82 2140.65 1542.27 Q2142.48 1538.71 2142.48 1531.6 Q2142.48 1524.47 2140.65 1520.93 Q2138.84 1517.37 2135.21 1517.37 M2135.21 1513.66 Q2141.02 1513.66 2144.08 1518.27 Q2147.16 1522.85 2147.16 1531.6 Q2147.16 1540.33 2144.08 1544.94 Q2141.02 1549.52 2135.21 1549.52 Q2129.4 1549.52 2126.32 1544.94 Q2123.27 1540.33 2123.27 1531.6 Q2123.27 1522.85 2126.32 1518.27 Q2129.4 1513.66 2135.21 1513.66 Z" fill="#000000" fill-rule="nonzero" fill-opacity="1" /><polyline clip-path="url(#clip380)" style="stroke:#000000; stroke-linecap:round; stroke-linejoin:round; stroke-width:4; stroke-opacity:1; fill:none" points="186.76,1486.45 186.76,123.472 "/>
<polyline clip-path="url(#clip380)" style="stroke:#000000; stroke-linecap:round; stroke-linejoin:round; stroke-width:4; stroke-opacity:1; fill:none" points="186.76,1447.87 205.658,1447.87 "/>
<polyline clip-path="url(#clip380)" style="stroke:#000000; stroke-linecap:round; stroke-linejoin:round; stroke-width:4; stroke-opacity:1; fill:none" points="186.76,1070.84 205.658,1070.84 "/>
<polyline clip-path="url(#clip380)" style="stroke:#000000; stroke-linecap:round; stroke-linejoin:round; stroke-width:4; stroke-opacity:1; fill:none" points="186.76,693.81 205.658,693.81 "/>
<polyline clip-path="url(#clip380)" style="stroke:#000000; stroke-linecap:round; stroke-linejoin:round; stroke-width:4; stroke-opacity:1; fill:none" points="186.76,316.778 205.658,316.778 "/>
<path clip-path="url(#clip380)" d="M63.4226 1433.67 Q59.8115 1433.67 57.9828 1437.24 Q56.1773 1440.78 56.1773 1447.91 Q56.1773 1455.01 57.9828 1458.58 Q59.8115 1462.12 63.4226 1462.12 Q67.0569 1462.12 68.8624 1458.58 Q70.6911 1455.01 70.6911 1447.91 Q70.6911 1440.78 68.8624 1437.24 Q67.0569 1433.67 63.4226 1433.67 M63.4226 1429.97 Q69.2328 1429.97 72.2883 1434.57 Q75.367 1439.16 75.367 1447.91 Q75.367 1456.63 72.2883 1461.24 Q69.2328 1465.82 63.4226 1465.82 Q57.6125 1465.82 54.5338 1461.24 Q51.4782 1456.63 51.4782 1447.91 Q51.4782 1439.16 54.5338 1434.57 Q57.6125 1429.97 63.4226 1429.97 Z" fill="#000000" fill-rule="nonzero" fill-opacity="1" /><path clip-path="url(#clip380)" d="M83.5845 1459.27 L88.4688 1459.27 L88.4688 1465.15 L83.5845 1465.15 L83.5845 1459.27 Z" fill="#000000" fill-rule="nonzero" fill-opacity="1" /><path clip-path="url(#clip380)" d="M108.654 1433.67 Q105.043 1433.67 103.214 1437.24 Q101.409 1440.78 101.409 1447.91 Q101.409 1455.01 103.214 1458.58 Q105.043 1462.12 108.654 1462.12 Q112.288 1462.12 114.094 1458.58 Q115.922 1455.01 115.922 1447.91 Q115.922 1440.78 114.094 1437.24 Q112.288 1433.67 108.654 1433.67 M108.654 1429.97 Q114.464 1429.97 117.52 1434.57 Q120.598 1439.16 120.598 1447.91 Q120.598 1456.63 117.52 1461.24 Q114.464 1465.82 108.654 1465.82 Q102.844 1465.82 99.765 1461.24 Q96.7095 1456.63 96.7095 1447.91 Q96.7095 1439.16 99.765 1434.57 Q102.844 1429.97 108.654 1429.97 Z" fill="#000000" fill-rule="nonzero" fill-opacity="1" /><path clip-path="url(#clip380)" d="M138.816 1433.67 Q135.205 1433.67 133.376 1437.24 Q131.57 1440.78 131.57 1447.91 Q131.57 1455.01 133.376 1458.58 Q135.205 1462.12 138.816 1462.12 Q142.45 1462.12 144.256 1458.58 Q146.084 1455.01 146.084 1447.91 Q146.084 1440.78 144.256 1437.24 Q142.45 1433.67 138.816 1433.67 M138.816 1429.97 Q144.626 1429.97 147.681 1434.57 Q150.76 1439.16 150.76 1447.91 Q150.76 1456.63 147.681 1461.24 Q144.626 1465.82 138.816 1465.82 Q133.006 1465.82 129.927 1461.24 Q126.871 1456.63 126.871 1447.91 Q126.871 1439.16 129.927 1434.57 Q133.006 1429.97 138.816 1429.97 Z" fill="#000000" fill-rule="nonzero" fill-opacity="1" /><path clip-path="url(#clip380)" d="M65.0198 1056.64 Q61.4087 1056.64 59.58 1060.2 Q57.7745 1063.75 57.7745 1070.88 Q57.7745 1077.98 59.58 1081.55 Q61.4087 1085.09 65.0198 1085.09 Q68.6541 1085.09 70.4596 1081.55 Q72.2883 1077.98 72.2883 1070.88 Q72.2883 1063.75 70.4596 1060.2 Q68.6541 1056.64 65.0198 1056.64 M65.0198 1052.94 Q70.83 1052.94 73.8855 1057.54 Q76.9642 1062.13 76.9642 1070.88 Q76.9642 1079.6 73.8855 1084.21 Q70.83 1088.79 65.0198 1088.79 Q59.2097 1088.79 56.131 1084.21 Q53.0754 1079.6 53.0754 1070.88 Q53.0754 1062.13 56.131 1057.54 Q59.2097 1052.94 65.0198 1052.94 Z" fill="#000000" fill-rule="nonzero" fill-opacity="1" /><path clip-path="url(#clip380)" d="M85.1818 1082.24 L90.066 1082.24 L90.066 1088.12 L85.1818 1088.12 L85.1818 1082.24 Z" fill="#000000" fill-rule="nonzero" fill-opacity="1" /><path clip-path="url(#clip380)" d="M110.251 1056.64 Q106.64 1056.64 104.811 1060.2 Q103.006 1063.75 103.006 1070.88 Q103.006 1077.98 104.811 1081.55 Q106.64 1085.09 110.251 1085.09 Q113.885 1085.09 115.691 1081.55 Q117.52 1077.98 117.52 1070.88 Q117.52 1063.75 115.691 1060.2 Q113.885 1056.64 110.251 1056.64 M110.251 1052.94 Q116.061 1052.94 119.117 1057.54 Q122.195 1062.13 122.195 1070.88 Q122.195 1079.6 119.117 1084.21 Q116.061 1088.79 110.251 1088.79 Q104.441 1088.79 101.362 1084.21 Q98.3067 1079.6 98.3067 1070.88 Q98.3067 1062.13 101.362 1057.54 Q104.441 1052.94 110.251 1052.94 Z" fill="#000000" fill-rule="nonzero" fill-opacity="1" /><path clip-path="url(#clip380)" d="M134.441 1084.19 L150.76 1084.19 L150.76 1088.12 L128.816 1088.12 L128.816 1084.19 Q131.478 1081.43 136.061 1076.8 Q140.668 1072.15 141.848 1070.81 Q144.093 1068.28 144.973 1066.55 Q145.876 1064.79 145.876 1063.1 Q145.876 1060.34 143.931 1058.61 Q142.01 1056.87 138.908 1056.87 Q136.709 1056.87 134.256 1057.64 Q131.825 1058.4 129.047 1059.95 L129.047 1055.23 Q131.871 1054.09 134.325 1053.52 Q136.779 1052.94 138.816 1052.94 Q144.186 1052.94 147.38 1055.62 Q150.575 1058.31 150.575 1062.8 Q150.575 1064.93 149.765 1066.85 Q148.978 1068.75 146.871 1071.34 Q146.293 1072.01 143.191 1075.23 Q140.089 1078.42 134.441 1084.19 Z" fill="#000000" fill-rule="nonzero" fill-opacity="1" /><path clip-path="url(#clip380)" d="M62.9365 679.608 Q59.3254 679.608 57.4967 683.173 Q55.6912 686.715 55.6912 693.844 Q55.6912 700.951 57.4967 704.516 Q59.3254 708.057 62.9365 708.057 Q66.5707 708.057 68.3763 704.516 Q70.205 700.951 70.205 693.844 Q70.205 686.715 68.3763 683.173 Q66.5707 679.608 62.9365 679.608 M62.9365 675.905 Q68.7467 675.905 71.8022 680.511 Q74.8809 685.094 74.8809 693.844 Q74.8809 702.571 71.8022 707.178 Q68.7467 711.761 62.9365 711.761 Q57.1264 711.761 54.0477 707.178 Q50.9921 702.571 50.9921 693.844 Q50.9921 685.094 54.0477 680.511 Q57.1264 675.905 62.9365 675.905 Z" fill="#000000" fill-rule="nonzero" fill-opacity="1" /><path clip-path="url(#clip380)" d="M83.0984 705.21 L87.9827 705.21 L87.9827 711.09 L83.0984 711.09 L83.0984 705.21 Z" fill="#000000" fill-rule="nonzero" fill-opacity="1" /><path clip-path="url(#clip380)" d="M108.168 679.608 Q104.557 679.608 102.728 683.173 Q100.922 686.715 100.922 693.844 Q100.922 700.951 102.728 704.516 Q104.557 708.057 108.168 708.057 Q111.802 708.057 113.608 704.516 Q115.436 700.951 115.436 693.844 Q115.436 686.715 113.608 683.173 Q111.802 679.608 108.168 679.608 M108.168 675.905 Q113.978 675.905 117.033 680.511 Q120.112 685.094 120.112 693.844 Q120.112 702.571 117.033 707.178 Q113.978 711.761 108.168 711.761 Q102.358 711.761 99.2789 707.178 Q96.2234 702.571 96.2234 693.844 Q96.2234 685.094 99.2789 680.511 Q102.358 675.905 108.168 675.905 Z" fill="#000000" fill-rule="nonzero" fill-opacity="1" /><path clip-path="url(#clip380)" d="M141.177 680.604 L129.371 699.053 L141.177 699.053 L141.177 680.604 M139.95 676.53 L145.83 676.53 L145.83 699.053 L150.76 699.053 L150.76 702.942 L145.83 702.942 L145.83 711.09 L141.177 711.09 L141.177 702.942 L125.575 702.942 L125.575 698.428 L139.95 676.53 Z" fill="#000000" fill-rule="nonzero" fill-opacity="1" /><path clip-path="url(#clip380)" d="M63.2606 302.577 Q59.6495 302.577 57.8208 306.141 Q56.0152 309.683 56.0152 316.813 Q56.0152 323.919 57.8208 327.484 Q59.6495 331.025 63.2606 331.025 Q66.8948 331.025 68.7004 327.484 Q70.5291 323.919 70.5291 316.813 Q70.5291 309.683 68.7004 306.141 Q66.8948 302.577 63.2606 302.577 M63.2606 298.873 Q69.0707 298.873 72.1263 303.479 Q75.205 308.063 75.205 316.813 Q75.205 325.539 72.1263 330.146 Q69.0707 334.729 63.2606 334.729 Q57.4504 334.729 54.3717 330.146 Q51.3162 325.539 51.3162 316.813 Q51.3162 308.063 54.3717 303.479 Q57.4504 298.873 63.2606 298.873 Z" fill="#000000" fill-rule="nonzero" fill-opacity="1" /><path clip-path="url(#clip380)" d="M83.4225 328.178 L88.3067 328.178 L88.3067 334.058 L83.4225 334.058 L83.4225 328.178 Z" fill="#000000" fill-rule="nonzero" fill-opacity="1" /><path clip-path="url(#clip380)" d="M108.492 302.577 Q104.881 302.577 103.052 306.141 Q101.246 309.683 101.246 316.813 Q101.246 323.919 103.052 327.484 Q104.881 331.025 108.492 331.025 Q112.126 331.025 113.932 327.484 Q115.76 323.919 115.76 316.813 Q115.76 309.683 113.932 306.141 Q112.126 302.577 108.492 302.577 M108.492 298.873 Q114.302 298.873 117.358 303.479 Q120.436 308.063 120.436 316.813 Q120.436 325.539 117.358 330.146 Q114.302 334.729 108.492 334.729 Q102.682 334.729 99.603 330.146 Q96.5474 325.539 96.5474 316.813 Q96.5474 308.063 99.603 303.479 Q102.682 298.873 108.492 298.873 Z" fill="#000000" fill-rule="nonzero" fill-opacity="1" /><path clip-path="url(#clip380)" d="M139.232 314.914 Q136.084 314.914 134.232 317.067 Q132.404 319.22 132.404 322.97 Q132.404 326.697 134.232 328.873 Q136.084 331.025 139.232 331.025 Q142.381 331.025 144.209 328.873 Q146.061 326.697 146.061 322.97 Q146.061 319.22 144.209 317.067 Q142.381 314.914 139.232 314.914 M148.515 300.262 L148.515 304.521 Q146.756 303.688 144.95 303.248 Q143.168 302.808 141.408 302.808 Q136.779 302.808 134.325 305.933 Q131.894 309.058 131.547 315.377 Q132.913 313.364 134.973 312.299 Q137.033 311.211 139.51 311.211 Q144.718 311.211 147.728 314.382 Q150.76 317.53 150.76 322.97 Q150.76 328.294 147.612 331.512 Q144.464 334.729 139.232 334.729 Q133.237 334.729 130.066 330.146 Q126.894 325.539 126.894 316.813 Q126.894 308.618 130.783 303.757 Q134.672 298.873 141.223 298.873 Q142.982 298.873 144.765 299.22 Q146.57 299.567 148.515 300.262 Z" fill="#000000" fill-rule="nonzero" fill-opacity="1" /><path clip-path="url(#clip380)" d="M726.694 12.096 L737.712 12.096 L764.529 62.6918 L764.529 12.096 L772.469 12.096 L772.469 72.576 L761.451 72.576 L734.634 21.9802 L734.634 72.576 L726.694 72.576 L726.694 12.096 Z" fill="#000000" fill-rule="nonzero" fill-opacity="1" /><path clip-path="url(#clip380)" d="M788.754 12.096 L800.947 12.096 L816.381 53.2532 L831.896 12.096 L844.089 12.096 L844.089 72.576 L836.109 72.576 L836.109 19.4686 L820.513 60.9499 L812.289 60.9499 L796.693 19.4686 L796.693 72.576 L788.754 72.576 L788.754 12.096 Z" fill="#000000" fill-rule="nonzero" fill-opacity="1" /><path clip-path="url(#clip380)" d="M860.333 12.096 L895.09 12.096 L895.09 18.9825 L868.516 18.9825 L868.516 36.8065 L892.497 36.8065 L892.497 43.6931 L868.516 43.6931 L868.516 72.576 L860.333 72.576 L860.333 12.096 Z" fill="#000000" fill-rule="nonzero" fill-opacity="1" /><path clip-path="url(#clip380)" d="M929.766 27.2059 L937.219 27.2059 L946.536 62.6108 L955.813 27.2059 L964.603 27.2059 L973.92 62.6108 L983.197 27.2059 L990.651 27.2059 L978.782 72.576 L969.991 72.576 L960.228 35.3887 L950.425 72.576 L941.635 72.576 L929.766 27.2059 Z" fill="#000000" fill-rule="nonzero" fill-opacity="1" /><path clip-path="url(#clip380)" d="M1001.95 27.2059 L1009.41 27.2059 L1009.41 72.576 L1001.95 72.576 L1001.95 27.2059 M1001.95 9.54393 L1009.41 9.54393 L1009.41 18.9825 L1001.95 18.9825 L1001.95 9.54393 Z" fill="#000000" fill-rule="nonzero" fill-opacity="1" /><path clip-path="url(#clip380)" d="M1032.38 14.324 L1032.38 27.2059 L1047.73 27.2059 L1047.73 32.9987 L1032.38 32.9987 L1032.38 57.6282 Q1032.38 63.1779 1033.87 64.7578 Q1035.41 66.3376 1040.07 66.3376 L1047.73 66.3376 L1047.73 72.576 L1040.07 72.576 Q1031.44 72.576 1028.16 69.3758 Q1024.88 66.1351 1024.88 57.6282 L1024.88 32.9987 L1019.41 32.9987 L1019.41 27.2059 L1024.88 27.2059 L1024.88 14.324 L1032.38 14.324 Z" fill="#000000" fill-rule="nonzero" fill-opacity="1" /><path clip-path="url(#clip380)" d="M1095.25 45.1919 L1095.25 72.576 L1087.79 72.576 L1087.79 45.4349 Q1087.79 38.994 1085.28 35.7938 Q1082.77 32.5936 1077.75 32.5936 Q1071.71 32.5936 1068.23 36.4419 Q1064.74 40.2903 1064.74 46.9338 L1064.74 72.576 L1057.25 72.576 L1057.25 9.54393 L1064.74 9.54393 L1064.74 34.2544 Q1067.42 30.163 1071.02 28.1376 Q1074.67 26.1121 1079.41 26.1121 Q1087.22 26.1121 1091.23 30.9732 Q1095.25 35.7938 1095.25 45.1919 Z" fill="#000000" fill-rule="nonzero" fill-opacity="1" /><path clip-path="url(#clip380)" d="M1131.42 12.096 L1139.68 12.096 L1152.4 63.2184 L1165.08 12.096 L1174.28 12.096 L1187 63.2184 L1199.68 12.096 L1207.98 12.096 L1192.79 72.576 L1182.5 72.576 L1169.74 20.0763 L1156.86 72.576 L1146.57 72.576 L1131.42 12.096 Z" fill="#000000" fill-rule="nonzero" fill-opacity="1" /><path clip-path="url(#clip380)" d="M1233.83 49.7694 Q1224.79 49.7694 1221.31 51.8354 Q1217.83 53.9013 1217.83 58.8839 Q1217.83 62.8538 1220.42 65.2034 Q1223.05 67.5124 1227.55 67.5124 Q1233.75 67.5124 1237.47 63.1374 Q1241.24 58.7219 1241.24 51.4303 L1241.24 49.7694 L1233.83 49.7694 M1248.69 46.6907 L1248.69 72.576 L1241.24 72.576 L1241.24 65.6895 Q1238.69 69.8214 1234.88 71.8063 Q1231.07 73.7508 1225.56 73.7508 Q1218.6 73.7508 1214.46 69.8619 Q1210.37 65.9325 1210.37 59.3701 Q1210.37 51.7138 1215.48 47.825 Q1220.62 43.9361 1230.79 43.9361 L1241.24 43.9361 L1241.24 43.2069 Q1241.24 38.0623 1237.84 35.2672 Q1234.47 32.4315 1228.36 32.4315 Q1224.47 32.4315 1220.78 33.3632 Q1217.1 34.295 1213.69 36.1584 L1213.69 29.2718 Q1217.78 27.692 1221.63 26.9223 Q1225.48 26.1121 1229.13 26.1121 Q1238.97 26.1121 1243.83 31.2163 Q1248.69 36.3204 1248.69 46.6907 Z" fill="#000000" fill-rule="nonzero" fill-opacity="1" /><path clip-path="url(#clip380)" d="M1292.97 28.5427 L1292.97 35.5912 Q1289.81 33.9709 1286.41 33.1607 Q1283 32.3505 1279.36 32.3505 Q1273.81 32.3505 1271.01 34.0519 Q1268.26 35.7533 1268.26 39.156 Q1268.26 41.7486 1270.24 43.2475 Q1272.23 44.7058 1278.22 46.0426 L1280.78 46.6097 Q1288.72 48.3111 1292.04 51.4303 Q1295.4 54.509 1295.4 60.0587 Q1295.4 66.3781 1290.38 70.0644 Q1285.39 73.7508 1276.64 73.7508 Q1273 73.7508 1269.03 73.0216 Q1265.1 72.3329 1260.72 70.9151 L1260.72 63.2184 Q1264.86 65.3654 1268.87 66.4591 Q1272.88 67.5124 1276.81 67.5124 Q1282.07 67.5124 1284.91 65.73 Q1287.74 63.9071 1287.74 60.6258 Q1287.74 57.5877 1285.68 55.9673 Q1283.65 54.3469 1276.73 52.8481 L1274.13 52.2405 Q1267.21 50.7821 1264.13 47.7845 Q1261.05 44.7463 1261.05 39.4801 Q1261.05 33.0797 1265.59 29.5959 Q1270.12 26.1121 1278.47 26.1121 Q1282.6 26.1121 1286.25 26.7198 Q1289.89 27.3274 1292.97 28.5427 Z" fill="#000000" fill-rule="nonzero" fill-opacity="1" /><path clip-path="url(#clip380)" d="M1336.19 28.5427 L1336.19 35.5912 Q1333.03 33.9709 1329.63 33.1607 Q1326.23 32.3505 1322.58 32.3505 Q1317.03 32.3505 1314.24 34.0519 Q1311.48 35.7533 1311.48 39.156 Q1311.48 41.7486 1313.47 43.2475 Q1315.45 44.7058 1321.45 46.0426 L1324 46.6097 Q1331.94 48.3111 1335.26 51.4303 Q1338.62 54.509 1338.62 60.0587 Q1338.62 66.3781 1333.6 70.0644 Q1328.62 73.7508 1319.87 73.7508 Q1316.22 73.7508 1312.25 73.0216 Q1308.32 72.3329 1303.95 70.9151 L1303.95 63.2184 Q1308.08 65.3654 1312.09 66.4591 Q1316.1 67.5124 1320.03 67.5124 Q1325.3 67.5124 1328.13 65.73 Q1330.97 63.9071 1330.97 60.6258 Q1330.97 57.5877 1328.9 55.9673 Q1326.88 54.3469 1319.95 52.8481 L1317.36 52.2405 Q1310.43 50.7821 1307.35 47.7845 Q1304.27 44.7463 1304.27 39.4801 Q1304.27 33.0797 1308.81 29.5959 Q1313.35 26.1121 1321.69 26.1121 Q1325.82 26.1121 1329.47 26.7198 Q1333.11 27.3274 1336.19 28.5427 Z" fill="#000000" fill-rule="nonzero" fill-opacity="1" /><path clip-path="url(#clip380)" d="M1389.3 48.0275 L1389.3 51.6733 L1355.03 51.6733 Q1355.52 59.3701 1359.65 63.421 Q1363.82 67.4314 1371.23 67.4314 Q1375.53 67.4314 1379.54 66.3781 Q1383.59 65.3249 1387.56 63.2184 L1387.56 70.267 Q1383.55 71.9684 1379.33 72.8596 Q1375.12 73.7508 1370.79 73.7508 Q1359.93 73.7508 1353.57 67.4314 Q1347.25 61.1119 1347.25 50.3365 Q1347.25 39.1965 1353.25 32.6746 Q1359.28 26.1121 1369.49 26.1121 Q1378.65 26.1121 1383.95 32.0264 Q1389.3 37.9003 1389.3 48.0275 M1381.85 45.84 Q1381.77 39.7232 1378.4 36.0774 Q1375.08 32.4315 1369.57 32.4315 Q1363.33 32.4315 1359.57 35.9558 Q1355.84 39.4801 1355.27 45.8805 L1381.85 45.84 Z" fill="#000000" fill-rule="nonzero" fill-opacity="1" /><path clip-path="url(#clip380)" d="M1427.82 34.1734 Q1426.57 33.4443 1425.07 33.1202 Q1423.61 32.7556 1421.83 32.7556 Q1415.51 32.7556 1412.11 36.8875 Q1408.74 40.9789 1408.74 48.6757 L1408.74 72.576 L1401.25 72.576 L1401.25 27.2059 L1408.74 27.2059 L1408.74 34.2544 Q1411.09 30.1225 1414.86 28.1376 Q1418.63 26.1121 1424.02 26.1121 Q1424.79 26.1121 1425.72 26.2337 Q1426.65 26.3147 1427.78 26.5172 L1427.82 34.1734 Z" fill="#000000" fill-rule="nonzero" fill-opacity="1" /><path clip-path="url(#clip380)" d="M1464.57 28.5427 L1464.57 35.5912 Q1461.41 33.9709 1458 33.1607 Q1454.6 32.3505 1450.95 32.3505 Q1445.41 32.3505 1442.61 34.0519 Q1439.86 35.7533 1439.86 39.156 Q1439.86 41.7486 1441.84 43.2475 Q1443.83 44.7058 1449.82 46.0426 L1452.37 46.6097 Q1460.31 48.3111 1463.63 51.4303 Q1467 54.509 1467 60.0587 Q1467 66.3781 1461.97 70.0644 Q1456.99 73.7508 1448.24 73.7508 Q1444.6 73.7508 1440.63 73.0216 Q1436.7 72.3329 1432.32 70.9151 L1432.32 63.2184 Q1436.45 65.3654 1440.46 66.4591 Q1444.47 67.5124 1448.4 67.5124 Q1453.67 67.5124 1456.5 65.73 Q1459.34 63.9071 1459.34 60.6258 Q1459.34 57.5877 1457.27 55.9673 Q1455.25 54.3469 1448.32 52.8481 L1445.73 52.2405 Q1438.8 50.7821 1435.72 47.7845 Q1432.64 44.7463 1432.64 39.4801 Q1432.64 33.0797 1437.18 29.5959 Q1441.72 26.1121 1450.06 26.1121 Q1454.2 26.1121 1457.84 26.7198 Q1461.49 27.3274 1464.57 28.5427 Z" fill="#000000" fill-rule="nonzero" fill-opacity="1" /><path clip-path="url(#clip380)" d="M1486.24 14.324 L1486.24 27.2059 L1501.59 27.2059 L1501.59 32.9987 L1486.24 32.9987 L1486.24 57.6282 Q1486.24 63.1779 1487.74 64.7578 Q1489.28 66.3376 1493.94 66.3376 L1501.59 66.3376 L1501.59 72.576 L1493.94 72.576 Q1485.31 72.576 1482.03 69.3758 Q1478.74 66.1351 1478.74 57.6282 L1478.74 32.9987 L1473.28 32.9987 L1473.28 27.2059 L1478.74 27.2059 L1478.74 14.324 L1486.24 14.324 Z" fill="#000000" fill-rule="nonzero" fill-opacity="1" /><path clip-path="url(#clip380)" d="M1550.2 48.0275 L1550.2 51.6733 L1515.93 51.6733 Q1516.42 59.3701 1520.55 63.421 Q1524.72 67.4314 1532.14 67.4314 Q1536.43 67.4314 1540.44 66.3781 Q1544.49 65.3249 1548.46 63.2184 L1548.46 70.267 Q1544.45 71.9684 1540.24 72.8596 Q1536.02 73.7508 1531.69 73.7508 Q1520.83 73.7508 1514.47 67.4314 Q1508.15 61.1119 1508.15 50.3365 Q1508.15 39.1965 1514.15 32.6746 Q1520.18 26.1121 1530.39 26.1121 Q1539.55 26.1121 1544.85 32.0264 Q1550.2 37.9003 1550.2 48.0275 M1542.75 45.84 Q1542.67 39.7232 1539.31 36.0774 Q1535.98 32.4315 1530.47 32.4315 Q1524.24 32.4315 1520.47 35.9558 Q1516.74 39.4801 1516.17 45.8805 L1542.75 45.84 Z" fill="#000000" fill-rule="nonzero" fill-opacity="1" /><path clip-path="url(#clip380)" d="M1562.44 27.2059 L1569.89 27.2059 L1569.89 72.576 L1562.44 72.576 L1562.44 27.2059 M1562.44 9.54393 L1569.89 9.54393 L1569.89 18.9825 L1562.44 18.9825 L1562.44 9.54393 Z" fill="#000000" fill-rule="nonzero" fill-opacity="1" /><path clip-path="url(#clip380)" d="M1623.2 45.1919 L1623.2 72.576 L1615.75 72.576 L1615.75 45.4349 Q1615.75 38.994 1613.23 35.7938 Q1610.72 32.5936 1605.7 32.5936 Q1599.66 32.5936 1596.18 36.4419 Q1592.7 40.2903 1592.7 46.9338 L1592.7 72.576 L1585.2 72.576 L1585.2 27.2059 L1592.7 27.2059 L1592.7 34.2544 Q1595.37 30.163 1598.97 28.1376 Q1602.62 26.1121 1607.36 26.1121 Q1615.18 26.1121 1619.19 30.9732 Q1623.2 35.7938 1623.2 45.1919 Z" fill="#000000" fill-rule="nonzero" fill-opacity="1" /><path clip-path="url(#clip380)" d="M1664.44 9.54393 L1671.89 9.54393 L1671.89 72.576 L1664.44 72.576 L1664.44 9.54393 Z" fill="#000000" fill-rule="nonzero" fill-opacity="1" /><path clip-path="url(#clip380)" d="M1705.07 32.4315 Q1699.07 32.4315 1695.59 37.1306 Q1692.11 41.7891 1692.11 49.9314 Q1692.11 58.0738 1695.55 62.7728 Q1699.03 67.4314 1705.07 67.4314 Q1711.02 67.4314 1714.51 62.7323 Q1717.99 58.0333 1717.99 49.9314 Q1717.99 41.8701 1714.51 37.1711 Q1711.02 32.4315 1705.07 32.4315 M1705.07 26.1121 Q1714.79 26.1121 1720.34 32.4315 Q1725.89 38.7509 1725.89 49.9314 Q1725.89 61.0714 1720.34 67.4314 Q1714.79 73.7508 1705.07 73.7508 Q1695.31 73.7508 1689.76 67.4314 Q1684.25 61.0714 1684.25 49.9314 Q1684.25 38.7509 1689.76 32.4315 Q1695.31 26.1121 1705.07 26.1121 Z" fill="#000000" fill-rule="nonzero" fill-opacity="1" /><path clip-path="url(#clip380)" d="M1767.17 28.5427 L1767.17 35.5912 Q1764.01 33.9709 1760.61 33.1607 Q1757.2 32.3505 1753.56 32.3505 Q1748.01 32.3505 1745.21 34.0519 Q1742.46 35.7533 1742.46 39.156 Q1742.46 41.7486 1744.44 43.2475 Q1746.43 44.7058 1752.42 46.0426 L1754.98 46.6097 Q1762.92 48.3111 1766.24 51.4303 Q1769.6 54.509 1769.6 60.0587 Q1769.6 66.3781 1764.58 70.0644 Q1759.59 73.7508 1750.84 73.7508 Q1747.2 73.7508 1743.23 73.0216 Q1739.3 72.3329 1734.92 70.9151 L1734.92 63.2184 Q1739.06 65.3654 1743.07 66.4591 Q1747.08 67.5124 1751.01 67.5124 Q1756.27 67.5124 1759.11 65.73 Q1761.94 63.9071 1761.94 60.6258 Q1761.94 57.5877 1759.88 55.9673 Q1757.85 54.3469 1750.92 52.8481 L1748.33 52.2405 Q1741.4 50.7821 1738.33 47.7845 Q1735.25 44.7463 1735.25 39.4801 Q1735.25 33.0797 1739.78 29.5959 Q1744.32 26.1121 1752.67 26.1121 Q1756.8 26.1121 1760.44 26.7198 Q1764.09 27.3274 1767.17 28.5427 Z" fill="#000000" fill-rule="nonzero" fill-opacity="1" /><path clip-path="url(#clip380)" d="M1810.39 28.5427 L1810.39 35.5912 Q1807.23 33.9709 1803.83 33.1607 Q1800.43 32.3505 1796.78 32.3505 Q1791.23 32.3505 1788.44 34.0519 Q1785.68 35.7533 1785.68 39.156 Q1785.68 41.7486 1787.67 43.2475 Q1789.65 44.7058 1795.65 46.0426 L1798.2 46.6097 Q1806.14 48.3111 1809.46 51.4303 Q1812.82 54.509 1812.82 60.0587 Q1812.82 66.3781 1807.8 70.0644 Q1802.82 73.7508 1794.07 73.7508 Q1790.42 73.7508 1786.45 73.0216 Q1782.52 72.3329 1778.15 70.9151 L1778.15 63.2184 Q1782.28 65.3654 1786.29 66.4591 Q1790.3 67.5124 1794.23 67.5124 Q1799.49 67.5124 1802.33 65.73 Q1805.17 63.9071 1805.17 60.6258 Q1805.17 57.5877 1803.1 55.9673 Q1801.07 54.3469 1794.15 52.8481 L1791.55 52.2405 Q1784.63 50.7821 1781.55 47.7845 Q1778.47 44.7463 1778.47 39.4801 Q1778.47 33.0797 1783.01 29.5959 Q1787.54 26.1121 1795.89 26.1121 Q1800.02 26.1121 1803.67 26.7198 Q1807.31 27.3274 1810.39 28.5427 Z" fill="#000000" fill-rule="nonzero" fill-opacity="1" /><polyline clip-path="url(#clip382)" style="stroke:#e31a1c; stroke-linecap:round; stroke-linejoin:round; stroke-width:4; stroke-opacity:1; fill:none" points="248.062,1447.87 268.702,1447.87 289.343,1447.87 309.983,1447.87 330.623,1447.87 351.264,1447.87 371.904,1447.87 392.544,1447.87 413.184,1447.87 433.825,1447.87 454.465,1447.87 475.105,1447.87 495.746,1447.87 516.386,1447.87 537.026,1447.87 557.667,1447.87 578.307,1447.87 598.947,1447.87 619.588,1447.87 640.228,1447.87 660.868,1447.87 681.509,1447.87 702.149,1447.87 722.789,1447.87 743.43,1447.87 764.07,1447.87 784.71,1447.87 805.351,1447.87 825.991,1447.87 846.631,1447.87 867.272,1447.86 887.912,1447.82 908.552,1447.56 929.193,1445.75 949.833,1437.03 970.473,1414.66 991.114,1377.18 1011.75,1324.29 1032.39,1258.06 1053.03,1186.46 1073.67,1098 1094.32,998.26 1114.96,897.725 1135.6,796.647 1156.24,687.318 1176.88,571.455 1197.52,456.073 1218.16,362.332 1238.8,285.624 1259.44,234.432 1280.08,208.688 1300.72,223.483 1321.36,269.155 1342,347.587 1362.64,440.446 1383.28,555.524 1403.92,675.171 1424.56,779.567 1445.2,898.795 1465.84,1007.85 1486.48,1118.34 1507.12,1203.78 1527.76,1275.87 1548.4,1333.75 1569.04,1375.66 1589.68,1408.49 1610.32,1430.94 1630.96,1442.3 1651.6,1446.26 1672.24,1447.4 1692.88,1447.72 1713.53,1447.82 1734.17,1447.85 1754.81,1447.86 1775.45,1447.87 1796.09,1447.87 1816.73,1447.87 1837.37,1447.87 1858.01,1447.87 1878.65,1447.87 1899.29,1447.87 1919.93,1447.87 1940.57,1447.87 1961.21,1447.87 1981.85,1447.87 2002.49,1447.87 2023.13,1447.87 2043.77,1447.87 2064.41,1447.87 2085.05,1447.87 2105.69,1447.87 2126.33,1447.87 2146.97,1447.87 2167.61,1447.87 2188.25,1447.87 2208.89,1447.87 2229.53,1447.87 2250.17,1447.87 2270.81,1447.87 2291.45,1447.87 "/>
<polyline clip-path="url(#clip382)" style="stroke:#377db8; stroke-linecap:round; stroke-linejoin:round; stroke-width:4; stroke-opacity:1; fill:none" points="248.062,1447.61 268.702,1447.15 289.343,1447.2 309.983,1446.49 330.623,1445.38 351.264,1444.24 371.904,1441.96 392.544,1436.39 413.184,1429.51 433.825,1416.71 454.465,1398.88 475.105,1372.18 495.746,1332.77 516.386,1277.99 537.026,1212.32 557.667,1121.72 578.307,1023.07 598.947,899.69 619.588,763.614 640.228,627.949 660.868,485.025 681.509,364.883 702.149,276.576 722.789,198.961 743.43,162.047 764.07,182.703 784.71,220.666 805.351,309.077 825.991,410.669 846.631,533.991 867.272,662.107 887.912,776.626 908.552,876.34 929.193,967.808 949.833,1049.31 970.473,1118.2 991.114,1191.78 1011.75,1250.16 1032.39,1308.69 1053.03,1360.94 1073.67,1398.71 1094.32,1427.3 1114.96,1442.66 1135.6,1447.03 1156.24,1447.73 1176.88,1447.85 1197.52,1447.87 1218.16,1447.87 1238.8,1447.87 1259.44,1447.87 1280.08,1447.87 1300.72,1447.87 1321.36,1447.87 1342,1447.87 1362.64,1447.87 1383.28,1447.87 1403.92,1447.87 1424.56,1447.87 1445.2,1447.87 1465.84,1447.87 1486.48,1447.87 1507.12,1447.87 1527.76,1447.87 1548.4,1447.87 1569.04,1447.87 1589.68,1447.87 1610.32,1447.87 1630.96,1447.87 1651.6,1447.87 1672.24,1447.87 1692.88,1447.87 1713.53,1447.87 1734.17,1447.87 1754.81,1447.87 1775.45,1447.87 1796.09,1447.87 1816.73,1447.87 1837.37,1447.87 1858.01,1447.87 1878.65,1447.87 1899.29,1447.87 1919.93,1447.87 1940.57,1447.87 1961.21,1447.87 1981.85,1447.87 2002.49,1447.87 2023.13,1447.87 2043.77,1447.87 2064.41,1447.87 2085.05,1447.87 2105.69,1447.87 2126.33,1447.87 2146.97,1447.87 2167.61,1447.87 2188.25,1447.87 2208.89,1447.87 2229.53,1447.87 2250.17,1447.87 2270.81,1447.87 2291.45,1447.87 "/>
<polyline clip-path="url(#clip382)" style="stroke:#4dae49; stroke-linecap:round; stroke-linejoin:round; stroke-width:4; stroke-opacity:1; fill:none" points="248.062,1447.87 268.702,1447.87 289.343,1447.87 309.983,1447.87 330.623,1447.87 351.264,1447.87 371.904,1447.87 392.544,1447.87 413.184,1447.87 433.825,1447.87 454.465,1447.87 475.105,1447.87 495.746,1447.87 516.386,1447.87 537.026,1447.87 557.667,1447.87 578.307,1447.87 598.947,1447.87 619.588,1447.87 640.228,1447.87 660.868,1447.87 681.509,1447.87 702.149,1447.87 722.789,1447.87 743.43,1447.87 764.07,1447.87 784.71,1447.87 805.351,1447.87 825.991,1447.87 846.631,1447.87 867.272,1447.87 887.912,1447.87 908.552,1447.87 929.193,1447.86 949.833,1447.84 970.473,1447.84 991.114,1447.85 1011.75,1447.86 1032.39,1447.87 1053.03,1447.87 1073.67,1447.87 1094.32,1447.87 1114.96,1447.87 1135.6,1447.87 1156.24,1447.87 1176.88,1447.87 1197.52,1447.87 1218.16,1447.87 1238.8,1447.87 1259.44,1447.87 1280.08,1447.87 1300.72,1447.87 1321.36,1447.86 1342,1447.85 1362.64,1447.79 1383.28,1447.6 1403.92,1446.76 1424.56,1442.95 1445.2,1430.11 1465.84,1402.44 1486.48,1362.48 1507.12,1313.21 1527.76,1259.56 1548.4,1199.82 1569.04,1128.09 1589.68,1050.6 1610.32,958.034 1630.96,864.08 1651.6,747.67 1672.24,637.548 1692.88,521.15 1713.53,409.234 1734.17,310.153 1754.81,230.09 1775.45,182.719 1796.09,174.652 1816.73,203.723 1837.37,271.023 1858.01,369.733 1878.65,487.589 1899.29,627.258 1919.93,771.666 1940.57,900.952 1961.21,1020.15 1981.85,1125.33 2002.49,1207.44 2023.13,1288.21 2043.77,1333.94 2064.41,1371.91 2085.05,1400.18 2105.69,1418.61 2126.33,1429.82 2146.97,1437.34 2167.61,1441.44 2188.25,1444.06 2208.89,1445.41 2229.53,1446.33 2250.17,1447.22 2270.81,1447.03 2291.45,1447.66 "/>
<path clip-path="url(#clip380)" d="M2010.95 376.265 L2280.56 376.265 L2280.56 168.905 L2010.95 168.905  Z" fill="#ffffff" fill-rule="evenodd" fill-opacity="1"/>
<polyline clip-path="url(#clip380)" style="stroke:#000000; stroke-linecap:round; stroke-linejoin:round; stroke-width:4; stroke-opacity:1; fill:none" points="2010.95,376.265 2280.56,376.265 2280.56,168.905 2010.95,168.905 2010.95,376.265 "/>
<polyline clip-path="url(#clip380)" style="stroke:#e31a1c; stroke-linecap:round; stroke-linejoin:round; stroke-width:4; stroke-opacity:1; fill:none" points="2035.01,220.745 2179.41,220.745 "/>
<path clip-path="url(#clip380)" d="M2217.32 240.432 Q2215.52 245.062 2213.8 246.474 Q2212.09 247.886 2209.22 247.886 L2205.82 247.886 L2205.82 244.321 L2208.32 244.321 Q2210.08 244.321 2211.05 243.488 Q2212.02 242.654 2213.2 239.552 L2213.97 237.608 L2203.48 212.099 L2207.99 212.099 L2216.1 232.377 L2224.2 212.099 L2228.71 212.099 L2217.32 240.432 Z" fill="#000000" fill-rule="nonzero" fill-opacity="1" /><path clip-path="url(#clip380)" d="M2236 234.089 L2243.64 234.089 L2243.64 207.724 L2235.33 209.391 L2235.33 205.131 L2243.6 203.465 L2248.27 203.465 L2248.27 234.089 L2255.91 234.089 L2255.91 238.025 L2236 238.025 L2236 234.089 Z" fill="#000000" fill-rule="nonzero" fill-opacity="1" /><polyline clip-path="url(#clip380)" style="stroke:#377db8; stroke-linecap:round; stroke-linejoin:round; stroke-width:4; stroke-opacity:1; fill:none" points="2035.01,272.585 2179.41,272.585 "/>
<path clip-path="url(#clip380)" d="M2217.32 292.272 Q2215.52 296.902 2213.8 298.314 Q2212.09 299.726 2209.22 299.726 L2205.82 299.726 L2205.82 296.161 L2208.32 296.161 Q2210.08 296.161 2211.05 295.328 Q2212.02 294.494 2213.2 291.392 L2213.97 289.448 L2203.48 263.939 L2207.99 263.939 L2216.1 284.217 L2224.2 263.939 L2228.71 263.939 L2217.32 292.272 Z" fill="#000000" fill-rule="nonzero" fill-opacity="1" /><path clip-path="url(#clip380)" d="M2239.22 285.929 L2255.54 285.929 L2255.54 289.865 L2233.6 289.865 L2233.6 285.929 Q2236.26 283.175 2240.84 278.545 Q2245.45 273.893 2246.63 272.55 Q2248.87 270.027 2249.75 268.291 Q2250.66 266.531 2250.66 264.842 Q2250.66 262.087 2248.71 260.351 Q2246.79 258.615 2243.69 258.615 Q2241.49 258.615 2239.04 259.379 Q2236.61 260.143 2233.83 261.694 L2233.83 256.971 Q2236.65 255.837 2239.11 255.258 Q2241.56 254.68 2243.6 254.68 Q2248.97 254.68 2252.16 257.365 Q2255.36 260.05 2255.36 264.541 Q2255.36 266.67 2254.54 268.592 Q2253.76 270.49 2251.65 273.082 Q2251.07 273.754 2247.97 276.971 Q2244.87 280.166 2239.22 285.929 Z" fill="#000000" fill-rule="nonzero" fill-opacity="1" /><polyline clip-path="url(#clip380)" style="stroke:#4dae49; stroke-linecap:round; stroke-linejoin:round; stroke-width:4; stroke-opacity:1; fill:none" points="2035.01,324.425 2179.41,324.425 "/>
<path clip-path="url(#clip380)" d="M2217.32 344.112 Q2215.52 348.742 2213.8 350.154 Q2212.09 351.566 2209.22 351.566 L2205.82 351.566 L2205.82 348.001 L2208.32 348.001 Q2210.08 348.001 2211.05 347.168 Q2212.02 346.334 2213.2 343.232 L2213.97 341.288 L2203.48 315.779 L2207.99 315.779 L2216.1 336.057 L2224.2 315.779 L2228.71 315.779 L2217.32 344.112 Z" fill="#000000" fill-rule="nonzero" fill-opacity="1" /><path clip-path="url(#clip380)" d="M2249.36 323.07 Q2252.72 323.788 2254.59 326.057 Q2256.49 328.325 2256.49 331.658 Q2256.49 336.774 2252.97 339.575 Q2249.45 342.376 2242.97 342.376 Q2240.8 342.376 2238.48 341.936 Q2236.19 341.519 2233.73 340.663 L2233.73 336.149 Q2235.68 337.283 2237.99 337.862 Q2240.31 338.441 2242.83 338.441 Q2247.23 338.441 2249.52 336.705 Q2251.84 334.969 2251.84 331.658 Q2251.84 328.603 2249.68 326.89 Q2247.55 325.154 2243.73 325.154 L2239.71 325.154 L2239.71 321.311 L2243.92 321.311 Q2247.37 321.311 2249.2 319.946 Q2251.03 318.557 2251.03 315.964 Q2251.03 313.302 2249.13 311.89 Q2247.25 310.455 2243.73 310.455 Q2241.81 310.455 2239.61 310.871 Q2237.42 311.288 2234.78 312.168 L2234.78 308.001 Q2237.44 307.26 2239.75 306.89 Q2242.09 306.52 2244.15 306.52 Q2249.48 306.52 2252.58 308.95 Q2255.68 311.358 2255.68 315.478 Q2255.68 318.348 2254.04 320.339 Q2252.39 322.307 2249.36 323.07 Z" fill="#000000" fill-rule="nonzero" fill-opacity="1" /></svg>
