<?xml version="1.0" encoding="utf-8"?>
<svg xmlns="http://www.w3.org/2000/svg" xmlns:xlink="http://www.w3.org/1999/xlink" width="600" height="400" viewBox="0 0 2400 1600">
<defs>
  <clipPath id="clip940">
    <rect x="0" y="0" width="2400" height="1600"/>
  </clipPath>
</defs>
<path clip-path="url(#clip940)" d="M0 1600 L2400 1600 L2400 0 L0 0  Z" fill="#ffffff" fill-rule="evenodd" fill-opacity="1"/>
<defs>
  <clipPath id="clip941">
    <rect x="480" y="0" width="1681" height="1600"/>
  </clipPath>
</defs>
<path clip-path="url(#clip940)" d="M186.274 1486.45 L2352.76 1486.45 L2352.76 47.2441 L186.274 47.2441  Z" fill="#ffffff" fill-rule="evenodd" fill-opacity="1"/>
<defs>
  <clipPath id="clip942">
    <rect x="186" y="47" width="2167" height="1440"/>
  </clipPath>
</defs>
<polyline clip-path="url(#clip942)" style="stroke:#000000; stroke-linecap:round; stroke-linejoin:round; stroke-width:2; stroke-opacity:0.1; fill:none" points="233.897,1486.45 233.897,47.2441 "/>
<polyline clip-path="url(#clip942)" style="stroke:#000000; stroke-linecap:round; stroke-linejoin:round; stroke-width:2; stroke-opacity:0.1; fill:none" points="846.186,1486.45 846.186,47.2441 "/>
<polyline clip-path="url(#clip942)" style="stroke:#000000; stroke-linecap:round; stroke-linejoin:round; stroke-width:2; stroke-opacity:0.1; fill:none" points="1458.48,1486.45 1458.48,47.2441 "/>
<polyline clip-path="url(#clip942)" style="stroke:#000000; stroke-linecap:round; stroke-linejoin:round; stroke-width:2; stroke-opacity:0.1; fill:none" points="2070.77,1486.45 2070.77,47.2441 "/>
<polyline clip-path="url(#clip942)" style="stroke:#000000; stroke-linecap:round; stroke-linejoin:round; stroke-width:2; stroke-opacity:0.1; fill:none" points="186.274,1486.45 2352.76,1486.45 "/>
<polyline clip-path="url(#clip942)" style="stroke:#000000; stroke-linecap:round; stroke-linejoin:round; stroke-width:2; stroke-opacity:0.1; fill:none" points="186.274,1126.65 2352.76,1126.65 "/>
<polyline clip-path="url(#clip942)" style="stroke:#000000; stroke-linecap:round; stroke-linejoin:round; stroke-width:2; stroke-opacity:0.1; fill:none" points="186.274,766.846 2352.76,766.846 "/>
<polyline clip-path="url(#clip942)" style="stroke:#000000; stroke-linecap:round; stroke-linejoin:round; stroke-width:2; stroke-opacity:0.1; fill:none" points="186.274,407.045 2352.76,407.045 "/>
<polyline clip-path="url(#clip940)" style="stroke:#000000; stroke-linecap:round; stroke-linejoin:round; stroke-width:4; stroke-opacity:1; fill:none" points="186.274,1486.45 2352.76,1486.45 "/>
<polyline clip-path="url(#clip940)" style="stroke:#000000; stroke-linecap:round; stroke-linejoin:round; stroke-width:4; stroke-opacity:1; fill:none" points="233.897,1486.45 233.897,1467.55 "/>
<polyline clip-path="url(#clip940)" style="stroke:#000000; stroke-linecap:round; stroke-linejoin:round; stroke-width:4; stroke-opacity:1; fill:none" points="846.186,1486.45 846.186,1467.55 "/>
<polyline clip-path="url(#clip940)" style="stroke:#000000; stroke-linecap:round; stroke-linejoin:round; stroke-width:4; stroke-opacity:1; fill:none" points="1458.48,1486.45 1458.48,1467.55 "/>
<polyline clip-path="url(#clip940)" style="stroke:#000000; stroke-linecap:round; stroke-linejoin:round; stroke-width:4; stroke-opacity:1; fill:none" points="2070.77,1486.45 2070.77,1467.55 "/>
<path clip-path="url(#clip940)" d="M233.897 1517.37 Q230.286 1517.37 228.457 1520.93 Q226.651 1524.47 226.651 1531.6 Q226.651 1538.71 228.457 1542.27 Q230.286 1545.82 233.897 1545.82 Q237.531 1545.82 239.337 1542.27 Q241.165 1538.71 241.165 1531.6 Q241.165 1524.47 239.337 1520.93 Q237.531 1517.37 233.897 1517.37 M233.897 1513.66 Q239.707 1513.66 242.762 1518.27 Q245.841 1522.85 245.841 1531.6 Q245.841 1540.33 242.762 1544.94 Q239.707 1549.52 233.897 1549.52 Q228.087 1549.52 225.008 1544.94 Q221.952 1540.33 221.952 1531.6 Q221.952 1522.85 225.008 1518.27 Q228.087 1513.66 233.897 1513.66 Z" fill="#000000" fill-rule="nonzero" fill-opacity="1" /><path clip-path="url(#clip940)" d="M836.568 1544.91 L844.207 1544.91 L844.207 1518.55 L835.897 1520.21 L835.897 1515.95 L844.161 1514.29 L848.837 1514.29 L848.837 1544.91 L856.476 1544.91 L856.476 1548.85 L836.568 1548.85 L836.568 1544.91 Z" fill="#000000" fill-rule="nonzero" fill-opacity="1" /><path clip-path="url(#clip940)" d="M1453.13 1544.91 L1469.45 1544.91 L1469.45 1548.85 L1447.5 1548.85 L1447.5 1544.91 Q1450.17 1542.16 1454.75 1537.53 Q1459.36 1532.88 1460.54 1531.53 Q1462.78 1529.01 1463.66 1527.27 Q1464.56 1525.51 1464.56 1523.82 Q1464.56 1521.07 1462.62 1519.33 Q1460.7 1517.6 1457.6 1517.6 Q1455.4 1517.6 1452.94 1518.36 Q1450.51 1519.13 1447.74 1520.68 L1447.74 1515.95 Q1450.56 1514.82 1453.01 1514.24 Q1455.47 1513.66 1457.5 1513.66 Q1462.87 1513.66 1466.07 1516.35 Q1469.26 1519.03 1469.26 1523.52 Q1469.26 1525.65 1468.45 1527.57 Q1467.67 1529.47 1465.56 1532.07 Q1464.98 1532.74 1461.88 1535.95 Q1458.78 1539.15 1453.13 1544.91 Z" fill="#000000" fill-rule="nonzero" fill-opacity="1" /><path clip-path="url(#clip940)" d="M2075.01 1530.21 Q2078.37 1530.93 2080.24 1533.2 Q2082.14 1535.47 2082.14 1538.8 Q2082.14 1543.92 2078.62 1546.72 Q2075.11 1549.52 2068.62 1549.52 Q2066.45 1549.52 2064.13 1549.08 Q2061.84 1548.66 2059.39 1547.81 L2059.39 1543.29 Q2061.33 1544.43 2063.65 1545.01 Q2065.96 1545.58 2068.49 1545.58 Q2072.88 1545.58 2075.18 1543.85 Q2077.49 1542.11 2077.49 1538.8 Q2077.49 1535.75 2075.34 1534.03 Q2073.21 1532.3 2069.39 1532.3 L2065.36 1532.3 L2065.36 1528.45 L2069.57 1528.45 Q2073.02 1528.45 2074.85 1527.09 Q2076.68 1525.7 2076.68 1523.11 Q2076.68 1520.45 2074.78 1519.03 Q2072.91 1517.6 2069.39 1517.6 Q2067.47 1517.6 2065.27 1518.01 Q2063.07 1518.43 2060.43 1519.31 L2060.43 1515.14 Q2063.09 1514.4 2065.41 1514.03 Q2067.74 1513.66 2069.8 1513.66 Q2075.13 1513.66 2078.23 1516.09 Q2081.33 1518.5 2081.33 1522.62 Q2081.33 1525.49 2079.69 1527.48 Q2078.05 1529.45 2075.01 1530.21 Z" fill="#000000" fill-rule="nonzero" fill-opacity="1" /><polyline clip-path="url(#clip940)" style="stroke:#000000; stroke-linecap:round; stroke-linejoin:round; stroke-width:4; stroke-opacity:1; fill:none" points="186.274,1486.45 186.274,47.2441 "/>
<polyline clip-path="url(#clip940)" style="stroke:#000000; stroke-linecap:round; stroke-linejoin:round; stroke-width:4; stroke-opacity:1; fill:none" points="186.274,1486.45 205.172,1486.45 "/>
<polyline clip-path="url(#clip940)" style="stroke:#000000; stroke-linecap:round; stroke-linejoin:round; stroke-width:4; stroke-opacity:1; fill:none" points="186.274,1126.65 205.172,1126.65 "/>
<polyline clip-path="url(#clip940)" style="stroke:#000000; stroke-linecap:round; stroke-linejoin:round; stroke-width:4; stroke-opacity:1; fill:none" points="186.274,766.846 205.172,766.846 "/>
<polyline clip-path="url(#clip940)" style="stroke:#000000; stroke-linecap:round; stroke-linejoin:round; stroke-width:4; stroke-opacity:1; fill:none" points="186.274,407.045 205.172,407.045 "/>
<path clip-path="url(#clip940)" d="M62.9365 1472.25 Q59.3254 1472.25 57.4967 1475.81 Q55.6912 1479.35 55.6912 1486.48 Q55.6912 1493.59 57.4967 1497.15 Q59.3254 1500.7 62.9365 1500.7 Q66.5707 1500.7 68.3763 1497.15 Q70.205 1493.59 70.205 1486.48 Q70.205 1479.35 68.3763 1475.81 Q66.5707 1472.25 62.9365 1472.25 M62.9365 1468.54 Q68.7467 1468.54 71.8022 1473.15 Q74.8809 1477.73 74.8809 1486.48 Q74.8809 1495.21 71.8022 1499.82 Q68.7467 1504.4 62.9365 1504.4 Q57.1264 1504.4 54.0477 1499.82 Q50.9921 1495.21 50.9921 1486.48 Q50.9921 1477.73 54.0477 1473.15 Q57.1264 1468.54 62.9365 1468.54 Z" fill="#000000" fill-rule="nonzero" fill-opacity="1" /><path clip-path="url(#clip940)" d="M83.0984 1497.85 L87.9827 1497.85 L87.9827 1503.73 L83.0984 1503.73 L83.0984 1497.85 Z" fill="#000000" fill-rule="nonzero" fill-opacity="1" /><path clip-path="url(#clip940)" d="M108.168 1472.25 Q104.557 1472.25 102.728 1475.81 Q100.922 1479.35 100.922 1486.48 Q100.922 1493.59 102.728 1497.15 Q104.557 1500.7 108.168 1500.7 Q111.802 1500.7 113.608 1497.15 Q115.436 1493.59 115.436 1486.48 Q115.436 1479.35 113.608 1475.81 Q111.802 1472.25 108.168 1472.25 M108.168 1468.54 Q113.978 1468.54 117.033 1473.15 Q120.112 1477.73 120.112 1486.48 Q120.112 1495.21 117.033 1499.82 Q113.978 1504.4 108.168 1504.4 Q102.358 1504.4 99.2789 1499.82 Q96.2234 1495.21 96.2234 1486.48 Q96.2234 1477.73 99.2789 1473.15 Q102.358 1468.54 108.168 1468.54 Z" fill="#000000" fill-rule="nonzero" fill-opacity="1" /><path clip-path="url(#clip940)" d="M138.33 1472.25 Q134.719 1472.25 132.89 1475.81 Q131.084 1479.35 131.084 1486.48 Q131.084 1493.59 132.89 1497.15 Q134.719 1500.7 138.33 1500.7 Q141.964 1500.7 143.769 1497.15 Q145.598 1493.59 145.598 1486.48 Q145.598 1479.35 143.769 1475.81 Q141.964 1472.25 138.33 1472.25 M138.33 1468.54 Q144.14 1468.54 147.195 1473.15 Q150.274 1477.73 150.274 1486.48 Q150.274 1495.21 147.195 1499.82 Q144.14 1504.4 138.33 1504.4 Q132.519 1504.4 129.441 1499.82 Q126.385 1495.21 126.385 1486.48 Q126.385 1477.73 129.441 1473.15 Q132.519 1468.54 138.33 1468.54 Z" fill="#000000" fill-rule="nonzero" fill-opacity="1" /><path clip-path="url(#clip940)" d="M63.9319 1112.45 Q60.3208 1112.45 58.4921 1116.01 Q56.6865 1119.55 56.6865 1126.68 Q56.6865 1133.79 58.4921 1137.35 Q60.3208 1140.89 63.9319 1140.89 Q67.5661 1140.89 69.3717 1137.35 Q71.2004 1133.79 71.2004 1126.68 Q71.2004 1119.55 69.3717 1116.01 Q67.5661 1112.45 63.9319 1112.45 M63.9319 1108.74 Q69.742 1108.74 72.7976 1113.35 Q75.8763 1117.93 75.8763 1126.68 Q75.8763 1135.41 72.7976 1140.01 Q69.742 1144.6 63.9319 1144.6 Q58.1217 1144.6 55.043 1140.01 Q51.9875 1135.41 51.9875 1126.68 Q51.9875 1117.93 55.043 1113.35 Q58.1217 1108.74 63.9319 1108.74 Z" fill="#000000" fill-rule="nonzero" fill-opacity="1" /><path clip-path="url(#clip940)" d="M84.0938 1138.05 L88.978 1138.05 L88.978 1143.93 L84.0938 1143.93 L84.0938 1138.05 Z" fill="#000000" fill-rule="nonzero" fill-opacity="1" /><path clip-path="url(#clip940)" d="M109.163 1112.45 Q105.552 1112.45 103.723 1116.01 Q101.918 1119.55 101.918 1126.68 Q101.918 1133.79 103.723 1137.35 Q105.552 1140.89 109.163 1140.89 Q112.797 1140.89 114.603 1137.35 Q116.432 1133.79 116.432 1126.68 Q116.432 1119.55 114.603 1116.01 Q112.797 1112.45 109.163 1112.45 M109.163 1108.74 Q114.973 1108.74 118.029 1113.35 Q121.107 1117.93 121.107 1126.68 Q121.107 1135.41 118.029 1140.01 Q114.973 1144.6 109.163 1144.6 Q103.353 1144.6 100.274 1140.01 Q97.2187 1135.41 97.2187 1126.68 Q97.2187 1117.93 100.274 1113.35 Q103.353 1108.74 109.163 1108.74 Z" fill="#000000" fill-rule="nonzero" fill-opacity="1" /><path clip-path="url(#clip940)" d="M129.371 1109.37 L147.728 1109.37 L147.728 1113.3 L133.654 1113.3 L133.654 1121.77 Q134.672 1121.43 135.691 1121.27 Q136.709 1121.08 137.728 1121.08 Q143.515 1121.08 146.894 1124.25 Q150.274 1127.42 150.274 1132.84 Q150.274 1138.42 146.802 1141.52 Q143.33 1144.6 137.01 1144.6 Q134.834 1144.6 132.566 1144.23 Q130.32 1143.86 127.913 1143.12 L127.913 1138.42 Q129.996 1139.55 132.219 1140.11 Q134.441 1140.66 136.918 1140.66 Q140.922 1140.66 143.26 1138.56 Q145.598 1136.45 145.598 1132.84 Q145.598 1129.23 143.26 1127.12 Q140.922 1125.01 136.918 1125.01 Q135.043 1125.01 133.168 1125.43 Q131.316 1125.85 129.371 1126.73 L129.371 1109.37 Z" fill="#000000" fill-rule="nonzero" fill-opacity="1" /><path clip-path="url(#clip940)" d="M62.9365 752.645 Q59.3254 752.645 57.4967 756.209 Q55.6912 759.751 55.6912 766.881 Q55.6912 773.987 57.4967 777.552 Q59.3254 781.094 62.9365 781.094 Q66.5707 781.094 68.3763 777.552 Q70.205 773.987 70.205 766.881 Q70.205 759.751 68.3763 756.209 Q66.5707 752.645 62.9365 752.645 M62.9365 748.941 Q68.7467 748.941 71.8022 753.547 Q74.8809 758.131 74.8809 766.881 Q74.8809 775.608 71.8022 780.214 Q68.7467 784.797 62.9365 784.797 Q57.1264 784.797 54.0477 780.214 Q50.9921 775.608 50.9921 766.881 Q50.9921 758.131 54.0477 753.547 Q57.1264 748.941 62.9365 748.941 Z" fill="#000000" fill-rule="nonzero" fill-opacity="1" /><path clip-path="url(#clip940)" d="M83.0984 778.246 L87.9827 778.246 L87.9827 784.126 L83.0984 784.126 L83.0984 778.246 Z" fill="#000000" fill-rule="nonzero" fill-opacity="1" /><path clip-path="url(#clip940)" d="M98.978 780.191 L106.617 780.191 L106.617 753.825 L98.3067 755.492 L98.3067 751.233 L106.571 749.566 L111.246 749.566 L111.246 780.191 L118.885 780.191 L118.885 784.126 L98.978 784.126 L98.978 780.191 Z" fill="#000000" fill-rule="nonzero" fill-opacity="1" /><path clip-path="url(#clip940)" d="M138.33 752.645 Q134.719 752.645 132.89 756.209 Q131.084 759.751 131.084 766.881 Q131.084 773.987 132.89 777.552 Q134.719 781.094 138.33 781.094 Q141.964 781.094 143.769 777.552 Q145.598 773.987 145.598 766.881 Q145.598 759.751 143.769 756.209 Q141.964 752.645 138.33 752.645 M138.33 748.941 Q144.14 748.941 147.195 753.547 Q150.274 758.131 150.274 766.881 Q150.274 775.608 147.195 780.214 Q144.14 784.797 138.33 784.797 Q132.519 784.797 129.441 780.214 Q126.385 775.608 126.385 766.881 Q126.385 758.131 129.441 753.547 Q132.519 748.941 138.33 748.941 Z" fill="#000000" fill-rule="nonzero" fill-opacity="1" /><path clip-path="url(#clip940)" d="M63.9319 392.844 Q60.3208 392.844 58.4921 396.409 Q56.6865 399.95 56.6865 407.08 Q56.6865 414.186 58.4921 417.751 Q60.3208 421.293 63.9319 421.293 Q67.5661 421.293 69.3717 417.751 Q71.2004 414.186 71.2004 407.08 Q71.2004 399.95 69.3717 396.409 Q67.5661 392.844 63.9319 392.844 M63.9319 389.14 Q69.742 389.14 72.7976 393.746 Q75.8763 398.33 75.8763 407.08 Q75.8763 415.807 72.7976 420.413 Q69.742 424.996 63.9319 424.996 Q58.1217 424.996 55.043 420.413 Q51.9875 415.807 51.9875 407.08 Q51.9875 398.33 55.043 393.746 Q58.1217 389.14 63.9319 389.14 Z" fill="#000000" fill-rule="nonzero" fill-opacity="1" /><path clip-path="url(#clip940)" d="M84.0938 418.445 L88.978 418.445 L88.978 424.325 L84.0938 424.325 L84.0938 418.445 Z" fill="#000000" fill-rule="nonzero" fill-opacity="1" /><path clip-path="url(#clip940)" d="M99.9733 420.39 L107.612 420.39 L107.612 394.024 L99.3021 395.691 L99.3021 391.432 L107.566 389.765 L112.242 389.765 L112.242 420.39 L119.881 420.39 L119.881 424.325 L99.9733 424.325 L99.9733 420.39 Z" fill="#000000" fill-rule="nonzero" fill-opacity="1" /><path clip-path="url(#clip940)" d="M129.371 389.765 L147.728 389.765 L147.728 393.7 L133.654 393.7 L133.654 402.172 Q134.672 401.825 135.691 401.663 Q136.709 401.478 137.728 401.478 Q143.515 401.478 146.894 404.649 Q150.274 407.82 150.274 413.237 Q150.274 418.816 146.802 421.918 Q143.33 424.996 137.01 424.996 Q134.834 424.996 132.566 424.626 Q130.32 424.256 127.913 423.515 L127.913 418.816 Q129.996 419.95 132.219 420.506 Q134.441 421.061 136.918 421.061 Q140.922 421.061 143.26 418.955 Q145.598 416.848 145.598 413.237 Q145.598 409.626 143.26 407.52 Q140.922 405.413 136.918 405.413 Q135.043 405.413 133.168 405.83 Q131.316 406.246 129.371 407.126 L129.371 389.765 Z" fill="#000000" fill-rule="nonzero" fill-opacity="1" /><circle clip-path="url(#clip942)" cx="247.59" cy="1006.71" r="14.4" fill="#009af9" fill-rule="evenodd" fill-opacity="1" stroke="#000000" stroke-opacity="1" stroke-width="3.2"/>
<circle clip-path="url(#clip942)" cx="300.682" cy="1006.71" r="14.4" fill="#009af9" fill-rule="evenodd" fill-opacity="1" stroke="#000000" stroke-opacity="1" stroke-width="3.2"/>
<circle clip-path="url(#clip942)" cx="354.235" cy="1006.71" r="14.4" fill="#009af9" fill-rule="evenodd" fill-opacity="1" stroke="#000000" stroke-opacity="1" stroke-width="3.2"/>
<circle clip-path="url(#clip942)" cx="611.643" cy="1006.71" r="14.4" fill="#009af9" fill-rule="evenodd" fill-opacity="1" stroke="#000000" stroke-opacity="1" stroke-width="3.2"/>
<circle clip-path="url(#clip942)" cx="711.809" cy="1006.71" r="14.4" fill="#009af9" fill-rule="evenodd" fill-opacity="1" stroke="#000000" stroke-opacity="1" stroke-width="3.2"/>
<circle clip-path="url(#clip942)" cx="758.861" cy="1006.71" r="14.4" fill="#009af9" fill-rule="evenodd" fill-opacity="1" stroke="#000000" stroke-opacity="1" stroke-width="3.2"/>
<circle clip-path="url(#clip942)" cx="761.375" cy="1006.71" r="14.4" fill="#009af9" fill-rule="evenodd" fill-opacity="1" stroke="#000000" stroke-opacity="1" stroke-width="3.2"/>
<circle clip-path="url(#clip942)" cx="766.462" cy="1006.71" r="14.4" fill="#009af9" fill-rule="evenodd" fill-opacity="1" stroke="#000000" stroke-opacity="1" stroke-width="3.2"/>
<circle clip-path="url(#clip942)" cx="821.292" cy="1006.71" r="14.4" fill="#009af9" fill-rule="evenodd" fill-opacity="1" stroke="#000000" stroke-opacity="1" stroke-width="3.2"/>
<circle clip-path="url(#clip942)" cx="856.274" cy="1006.71" r="14.4" fill="#009af9" fill-rule="evenodd" fill-opacity="1" stroke="#000000" stroke-opacity="1" stroke-width="3.2"/>
<circle clip-path="url(#clip942)" cx="877.826" cy="1006.71" r="14.4" fill="#009af9" fill-rule="evenodd" fill-opacity="1" stroke="#000000" stroke-opacity="1" stroke-width="3.2"/>
<circle clip-path="url(#clip942)" cx="1005.03" cy="1006.71" r="14.4" fill="#009af9" fill-rule="evenodd" fill-opacity="1" stroke="#000000" stroke-opacity="1" stroke-width="3.2"/>
<circle clip-path="url(#clip942)" cx="1103.15" cy="1006.71" r="14.4" fill="#009af9" fill-rule="evenodd" fill-opacity="1" stroke="#000000" stroke-opacity="1" stroke-width="3.2"/>
<circle clip-path="url(#clip942)" cx="1122.15" cy="1006.71" r="14.4" fill="#009af9" fill-rule="evenodd" fill-opacity="1" stroke="#000000" stroke-opacity="1" stroke-width="3.2"/>
<circle clip-path="url(#clip942)" cx="1126.74" cy="1006.71" r="14.4" fill="#009af9" fill-rule="evenodd" fill-opacity="1" stroke="#000000" stroke-opacity="1" stroke-width="3.2"/>
<polyline clip-path="url(#clip942)" style="stroke:#009af9; stroke-linecap:round; stroke-linejoin:round; stroke-width:4; stroke-opacity:1; fill:none" points="247.59,1486.45 247.59,1006.71 "/>
<polyline clip-path="url(#clip942)" style="stroke:#009af9; stroke-linecap:round; stroke-linejoin:round; stroke-width:4; stroke-opacity:1; fill:none" points="300.682,1486.45 300.682,1006.71 "/>
<polyline clip-path="url(#clip942)" style="stroke:#009af9; stroke-linecap:round; stroke-linejoin:round; stroke-width:4; stroke-opacity:1; fill:none" points="354.235,1486.45 354.235,1006.71 "/>
<polyline clip-path="url(#clip942)" style="stroke:#009af9; stroke-linecap:round; stroke-linejoin:round; stroke-width:4; stroke-opacity:1; fill:none" points="611.643,1486.45 611.643,1006.71 "/>
<polyline clip-path="url(#clip942)" style="stroke:#009af9; stroke-linecap:round; stroke-linejoin:round; stroke-width:4; stroke-opacity:1; fill:none" points="711.809,1486.45 711.809,1006.71 "/>
<polyline clip-path="url(#clip942)" style="stroke:#009af9; stroke-linecap:round; stroke-linejoin:round; stroke-width:4; stroke-opacity:1; fill:none" points="758.861,1486.45 758.861,1006.71 "/>
<polyline clip-path="url(#clip942)" style="stroke:#009af9; stroke-linecap:round; stroke-linejoin:round; stroke-width:4; stroke-opacity:1; fill:none" points="761.375,1486.45 761.375,1006.71 "/>
<polyline clip-path="url(#clip942)" style="stroke:#009af9; stroke-linecap:round; stroke-linejoin:round; stroke-width:4; stroke-opacity:1; fill:none" points="766.462,1486.45 766.462,1006.71 "/>
<polyline clip-path="url(#clip942)" style="stroke:#009af9; stroke-linecap:round; stroke-linejoin:round; stroke-width:4; stroke-opacity:1; fill:none" points="821.292,1486.45 821.292,1006.71 "/>
<polyline clip-path="url(#clip942)" style="stroke:#009af9; stroke-linecap:round; stroke-linejoin:round; stroke-width:4; stroke-opacity:1; fill:none" points="856.274,1486.45 856.274,1006.71 "/>
<polyline clip-path="url(#clip942)" style="stroke:#009af9; stroke-linecap:round; stroke-linejoin:round; stroke-width:4; stroke-opacity:1; fill:none" points="877.826,1486.45 877.826,1006.71 "/>
<polyline clip-path="url(#clip942)" style="stroke:#009af9; stroke-linecap:round; stroke-linejoin:round; stroke-width:4; stroke-opacity:1; fill:none" points="1005.03,1486.45 1005.03,1006.71 "/>
<polyline clip-path="url(#clip942)" style="stroke:#009af9; stroke-linecap:round; stroke-linejoin:round; stroke-width:4; stroke-opacity:1; fill:none" points="1103.15,1486.45 1103.15,1006.71 "/>
<polyline clip-path="url(#clip942)" style="stroke:#009af9; stroke-linecap:round; stroke-linejoin:round; stroke-width:4; stroke-opacity:1; fill:none" points="1122.15,1486.45 1122.15,1006.71 "/>
<polyline clip-path="url(#clip942)" style="stroke:#009af9; stroke-linecap:round; stroke-linejoin:round; stroke-width:4; stroke-opacity:1; fill:none" points="1126.74,1486.45 1126.74,1006.71 "/>
<circle clip-path="url(#clip942)" cx="1470.27" cy="766.846" r="14.4" fill="#e26f46" fill-rule="evenodd" fill-opacity="1" stroke="#000000" stroke-opacity="1" stroke-width="3.2"/>
<circle clip-path="url(#clip942)" cx="1572.43" cy="766.846" r="14.4" fill="#e26f46" fill-rule="evenodd" fill-opacity="1" stroke="#000000" stroke-opacity="1" stroke-width="3.2"/>
<circle clip-path="url(#clip942)" cx="1794.43" cy="766.846" r="14.4" fill="#e26f46" fill-rule="evenodd" fill-opacity="1" stroke="#000000" stroke-opacity="1" stroke-width="3.2"/>
<circle clip-path="url(#clip942)" cx="1831.11" cy="766.846" r="14.4" fill="#e26f46" fill-rule="evenodd" fill-opacity="1" stroke="#000000" stroke-opacity="1" stroke-width="3.2"/>
<circle clip-path="url(#clip942)" cx="1833.69" cy="766.846" r="14.4" fill="#e26f46" fill-rule="evenodd" fill-opacity="1" stroke="#000000" stroke-opacity="1" stroke-width="3.2"/>
<circle clip-path="url(#clip942)" cx="1919.31" cy="766.846" r="14.4" fill="#e26f46" fill-rule="evenodd" fill-opacity="1" stroke="#000000" stroke-opacity="1" stroke-width="3.2"/>
<circle clip-path="url(#clip942)" cx="1939.69" cy="766.846" r="14.4" fill="#e26f46" fill-rule="evenodd" fill-opacity="1" stroke="#000000" stroke-opacity="1" stroke-width="3.2"/>
<circle clip-path="url(#clip942)" cx="1985.93" cy="766.846" r="14.4" fill="#e26f46" fill-rule="evenodd" fill-opacity="1" stroke="#000000" stroke-opacity="1" stroke-width="3.2"/>
<circle clip-path="url(#clip942)" cx="2054.42" cy="766.846" r="14.4" fill="#e26f46" fill-rule="evenodd" fill-opacity="1" stroke="#000000" stroke-opacity="1" stroke-width="3.2"/>
<circle clip-path="url(#clip942)" cx="2291.44" cy="766.846" r="14.4" fill="#e26f46" fill-rule="evenodd" fill-opacity="1" stroke="#000000" stroke-opacity="1" stroke-width="3.2"/>
<polyline clip-path="url(#clip942)" style="stroke:#e26f46; stroke-linecap:round; stroke-linejoin:round; stroke-width:4; stroke-opacity:1; fill:none" points="1470.27,1486.45 1470.27,766.846 "/>
<polyline clip-path="url(#clip942)" style="stroke:#e26f46; stroke-linecap:round; stroke-linejoin:round; stroke-width:4; stroke-opacity:1; fill:none" points="1572.43,1486.45 1572.43,766.846 "/>
<polyline clip-path="url(#clip942)" style="stroke:#e26f46; stroke-linecap:round; stroke-linejoin:round; stroke-width:4; stroke-opacity:1; fill:none" points="1794.43,1486.45 1794.43,766.846 "/>
<polyline clip-path="url(#clip942)" style="stroke:#e26f46; stroke-linecap:round; stroke-linejoin:round; stroke-width:4; stroke-opacity:1; fill:none" points="1831.11,1486.45 1831.11,766.846 "/>
<polyline clip-path="url(#clip942)" style="stroke:#e26f46; stroke-linecap:round; stroke-linejoin:round; stroke-width:4; stroke-opacity:1; fill:none" points="1833.69,1486.45 1833.69,766.846 "/>
<polyline clip-path="url(#clip942)" style="stroke:#e26f46; stroke-linecap:round; stroke-linejoin:round; stroke-width:4; stroke-opacity:1; fill:none" points="1919.31,1486.45 1919.31,766.846 "/>
<polyline clip-path="url(#clip942)" style="stroke:#e26f46; stroke-linecap:round; stroke-linejoin:round; stroke-width:4; stroke-opacity:1; fill:none" points="1939.69,1486.45 1939.69,766.846 "/>
<polyline clip-path="url(#clip942)" style="stroke:#e26f46; stroke-linecap:round; stroke-linejoin:round; stroke-width:4; stroke-opacity:1; fill:none" points="1985.93,1486.45 1985.93,766.846 "/>
<polyline clip-path="url(#clip942)" style="stroke:#e26f46; stroke-linecap:round; stroke-linejoin:round; stroke-width:4; stroke-opacity:1; fill:none" points="2054.42,1486.45 2054.42,766.846 "/>
<polyline clip-path="url(#clip942)" style="stroke:#e26f46; stroke-linecap:round; stroke-linejoin:round; stroke-width:4; stroke-opacity:1; fill:none" points="2291.44,1486.45 2291.44,766.846 "/>
<polyline clip-path="url(#clip942)" style="stroke:#008000; stroke-linecap:round; stroke-linejoin:round; stroke-width:4; stroke-opacity:0.5; fill:none" points="247.59,1006.71 259.94,985.162 272.29,964.002 284.641,943.231 296.991,922.851 309.341,902.862 321.692,883.263 334.042,864.054 346.392,845.236 358.743,826.808 371.093,808.77 383.443,791.123 395.794,773.866 408.144,756.999 420.494,740.523 432.845,724.437 445.195,708.742 457.545,693.436 469.896,678.522 482.246,663.997 494.597,649.863 506.947,636.12 519.297,622.767 531.648,609.804 543.998,597.231 556.348,585.049 568.699,573.257 581.049,561.856 593.399,550.845 605.75,540.224 618.1,529.994 630.45,520.154 642.801,510.704 655.151,501.645 667.501,492.976 679.852,484.698 692.202,476.81 704.553,469.312 716.903,462.205 729.253,455.488 741.604,449.161 753.954,443.225 766.304,437.679 778.655,432.524 791.005,427.759 803.355,423.384 815.706,419.399 828.056,415.805 840.406,412.602 852.757,409.789 865.107,407.366 877.457,405.333 889.808,403.691 902.158,402.439 914.508,401.578 926.859,401.107 939.209,401.026 951.56,401.336 963.91,402.036 976.26,403.126 988.611,404.607 1000.96,406.478 1013.31,408.74 1025.66,411.392 1038.01,414.434 1050.36,417.866 1062.71,421.689 1075.06,425.903 1087.41,430.507 1099.76,435.501 1112.11,440.885 1124.46,446.66 1136.81,452.825 1149.17,459.381 1161.52,466.327 1173.87,473.663 1186.22,481.39 1198.57,489.507 1210.92,498.014 1223.27,506.912 1235.62,516.2 1247.97,525.879 1260.32,535.948 1272.67,546.407 1285.02,557.257 1297.37,568.497 1309.72,580.127 1322.07,592.148 1334.42,604.559 1346.77,617.361 1359.12,630.552 1371.47,644.135 1383.82,658.107 1396.17,672.47 1408.52,687.224 1420.87,702.367 1433.22,717.901 1445.57,733.826 1457.92,750.141 1470.27,766.846 "/>
<polyline clip-path="url(#clip942)" style="stroke:#008000; stroke-linecap:round; stroke-linejoin:round; stroke-width:4; stroke-opacity:0.5; fill:none" points="300.682,1006.71 312.496,986.787 324.31,967.219 336.124,948.007 347.938,929.153 359.752,910.656 371.566,892.516 383.38,874.733 395.194,857.308 407.008,840.24 418.822,823.529 430.636,807.175 442.451,791.178 454.265,775.539 466.079,760.256 477.893,745.331 489.707,730.764 501.521,716.553 513.335,702.7 525.149,689.203 536.963,676.064 548.777,663.282 560.591,650.858 572.405,638.79 584.219,627.08 596.033,615.727 607.847,604.731 619.662,594.093 631.476,583.812 643.29,573.887 655.104,564.32 666.918,555.111 678.732,546.258 690.546,537.763 702.36,529.624 714.174,521.844 725.988,514.42 737.802,507.353 749.616,500.644 761.43,494.292 773.244,488.297 785.058,482.659 796.873,477.379 808.687,472.455 820.501,467.889 832.315,463.68 844.129,459.828 855.943,456.334 867.757,453.197 879.571,450.417 891.385,447.994 903.199,445.928 915.013,444.219 926.827,442.868 938.641,441.874 950.455,441.237 962.269,440.957 974.083,441.035 985.898,441.47 997.712,442.262 1009.53,443.411 1021.34,444.917 1033.15,446.781 1044.97,449.001 1056.78,451.579 1068.6,454.515 1080.41,457.807 1092.22,461.456 1104.04,465.463 1115.85,469.827 1127.67,474.548 1139.48,479.627 1151.29,485.062 1163.11,490.855 1174.92,497.005 1186.74,503.512 1198.55,510.377 1210.36,517.598 1222.18,525.177 1233.99,533.113 1245.81,541.406 1257.62,550.057 1269.44,559.064 1281.25,568.429 1293.06,578.151 1304.88,588.23 1316.69,598.667 1328.51,609.46 1340.32,620.611 1352.13,632.119 1363.95,643.985 1375.76,656.207 1387.58,668.787 1399.39,681.724 1411.2,695.018 1423.02,708.669 1434.83,722.677 1446.65,737.043 1458.46,751.766 1470.27,766.846 "/>
<polyline clip-path="url(#clip942)" style="stroke:#008000; stroke-linecap:round; stroke-linejoin:round; stroke-width:4; stroke-opacity:0.5; fill:none" points="300.682,1006.71 313.528,983.596 326.374,960.902 339.22,938.629 352.066,916.779 364.911,895.352 377.757,874.347 390.603,853.764 403.449,833.603 416.295,813.865 429.141,794.549 441.987,775.655 454.833,757.184 467.679,739.134 480.525,721.508 493.371,704.303 506.217,687.521 519.063,671.162 531.909,655.224 544.755,639.709 557.601,624.617 570.447,609.946 583.293,595.698 596.138,581.872 608.984,568.469 621.83,555.488 634.676,542.929 647.522,530.793 660.368,519.079 673.214,507.787 686.06,496.917 698.906,486.47 711.752,476.445 724.598,466.843 737.444,457.663 750.29,448.905 763.136,440.569 775.982,432.656 788.828,425.165 801.674,418.097 814.52,411.451 827.365,405.227 840.211,399.425 853.057,394.046 865.903,389.089 878.749,384.555 891.595,380.443 904.441,376.753 917.287,373.485 930.133,370.64 942.979,368.217 955.825,366.216 968.671,364.638 981.517,363.482 994.363,362.749 1007.21,362.437 1020.05,362.548 1032.9,363.082 1045.75,364.038 1058.59,365.416 1071.44,367.216 1084.28,369.439 1097.13,372.084 1109.98,375.151 1122.82,378.641 1135.67,382.553 1148.51,386.887 1161.36,391.644 1174.21,396.823 1187.05,402.424 1199.9,408.448 1212.74,414.894 1225.59,421.762 1238.44,429.053 1251.28,436.766 1264.13,444.901 1276.97,453.459 1289.82,462.438 1302.67,471.841 1315.51,481.665 1328.36,491.912 1341.2,502.581 1354.05,513.673 1366.9,525.187 1379.74,537.123 1392.59,549.482 1405.43,562.263 1418.28,575.466 1431.12,589.091 1443.97,603.139 1456.82,617.609 1469.66,632.502 1482.51,647.817 1495.35,663.554 1508.2,679.714 1521.05,696.295 1533.89,713.3 1546.74,730.726 1559.58,748.575 1572.43,766.846 "/>
<polyline clip-path="url(#clip942)" style="stroke:#008000; stroke-linecap:round; stroke-linejoin:round; stroke-width:4; stroke-opacity:0.5; fill:none" points="354.235,1006.71 366.54,985.302 378.845,964.279 391.15,943.643 403.455,923.395 415.76,903.534 428.065,884.061 440.37,864.975 452.675,846.277 464.98,827.966 477.285,810.043 489.59,792.508 501.895,775.359 514.2,758.599 526.505,742.225 538.81,726.24 551.115,710.642 563.42,695.431 575.725,680.608 588.03,666.172 600.335,652.124 612.64,638.463 624.945,625.19 637.25,612.305 649.555,599.807 661.86,587.696 674.165,575.973 686.47,564.637 698.775,553.689 711.08,543.129 723.385,532.956 735.69,523.17 747.995,513.772 760.3,504.761 772.605,496.138 784.91,487.903 797.215,480.055 809.52,472.594 821.825,465.521 834.13,458.836 846.435,452.538 858.74,446.627 871.045,441.104 883.35,435.969 895.655,431.221 907.96,426.861 920.265,422.888 932.57,419.302 944.875,416.104 957.18,413.294 969.485,410.871 981.79,408.836 994.095,407.188 1006.4,405.927 1018.71,405.055 1031.01,404.569 1043.32,404.471 1055.62,404.761 1067.93,405.438 1080.23,406.503 1092.54,407.955 1104.84,409.795 1117.15,412.022 1129.45,414.637 1141.76,417.639 1154.06,421.028 1166.37,424.806 1178.67,428.97 1190.98,433.523 1203.28,438.462 1215.59,443.79 1227.89,449.504 1240.2,455.607 1252.5,462.096 1264.81,468.974 1277.11,476.239 1289.42,483.891 1301.72,491.931 1314.03,500.358 1326.33,509.173 1338.64,518.375 1350.94,527.965 1363.25,537.942 1375.55,548.307 1387.86,559.06 1400.16,570.199 1412.47,581.727 1424.77,593.642 1437.08,605.944 1449.38,618.634 1461.69,631.711 1473.99,645.176 1486.3,659.029 1498.6,673.269 1510.91,687.896 1523.21,702.911 1535.52,718.314 1547.82,734.104 1560.13,750.281 1572.43,766.846 "/>
<polyline clip-path="url(#clip942)" style="stroke:#008000; stroke-linecap:round; stroke-linejoin:round; stroke-width:4; stroke-opacity:0.5; fill:none" points="611.643,1006.71 621.348,992.479 631.053,978.486 640.758,964.734 650.463,951.223 660.168,937.953 669.873,924.924 679.578,912.136 689.283,899.589 698.988,887.283 708.693,875.219 718.398,863.395 728.102,851.812 737.807,840.471 747.512,829.37 757.217,818.51 766.922,807.892 776.627,797.514 786.332,787.378 796.037,777.483 805.742,767.828 815.447,758.415 825.152,749.243 834.857,740.312 844.561,731.622 854.266,723.173 863.971,714.965 873.676,706.998 883.381,699.272 893.086,691.787 902.791,684.543 912.496,677.54 922.201,670.778 931.906,664.258 941.611,657.978 951.316,651.94 961.02,646.142 970.725,640.585 980.43,635.27 990.135,630.196 999.84,625.362 1009.55,620.77 1019.25,616.419 1028.95,612.308 1038.66,608.439 1048.36,604.811 1058.07,601.424 1067.77,598.278 1077.48,595.373 1087.18,592.709 1096.89,590.286 1106.59,588.104 1116.3,586.163 1126,584.464 1135.71,583.005 1145.41,581.787 1155.12,580.811 1164.82,580.075 1174.53,579.581 1184.23,579.327 1193.94,579.315 1203.64,579.543 1213.35,580.013 1223.05,580.724 1232.76,581.675 1242.46,582.868 1252.17,584.302 1261.87,585.977 1271.58,587.893 1281.28,590.05 1290.99,592.448 1300.69,595.087 1310.4,597.967 1320.1,601.088 1329.81,604.45 1339.51,608.054 1349.22,611.898 1358.92,615.983 1368.63,620.31 1378.33,624.877 1388.04,629.686 1397.74,634.735 1407.45,640.026 1417.15,645.557 1426.86,651.33 1436.56,657.344 1446.27,663.599 1455.97,670.094 1465.68,676.831 1475.38,683.809 1485.09,691.028 1494.79,698.488 1504.5,706.189 1514.2,714.131 1523.91,722.315 1533.61,730.739 1543.32,739.404 1553.02,748.31 1562.73,757.458 1572.43,766.846 "/>
<polyline clip-path="url(#clip942)" style="stroke:#008000; stroke-linecap:round; stroke-linejoin:round; stroke-width:4; stroke-opacity:0.5; fill:none" points="611.643,1006.71 623.591,986.39 635.538,966.433 647.485,946.841 659.433,927.614 671.38,908.752 683.327,890.255 695.275,872.124 707.222,854.359 719.169,836.958 731.116,819.923 743.064,803.253 755.011,786.949 766.958,771.01 778.906,755.436 790.853,740.227 802.8,725.384 814.748,710.906 826.695,696.793 838.642,683.046 850.589,669.664 862.537,656.647 874.484,643.995 886.431,631.709 898.379,619.788 910.326,608.233 922.273,597.042 934.221,586.217 946.168,575.758 958.115,565.664 970.062,555.935 982.01,546.571 993.957,537.572 1005.9,528.939 1017.85,520.671 1029.8,512.769 1041.75,505.232 1053.69,498.06 1065.64,491.253 1077.59,484.812 1089.54,478.736 1101.48,473.025 1113.43,467.68 1125.38,462.7 1137.32,458.085 1149.27,453.836 1161.22,449.952 1173.17,446.433 1185.11,443.279 1197.06,440.491 1209.01,438.068 1220.96,436.011 1232.9,434.318 1244.85,432.991 1256.8,432.03 1268.74,431.433 1280.69,431.202 1292.64,431.337 1304.59,431.836 1316.53,432.701 1328.48,433.931 1340.43,435.527 1352.38,437.487 1364.32,439.813 1376.27,442.505 1388.22,445.562 1400.17,448.984 1412.11,452.771 1424.06,456.923 1436.01,461.441 1447.95,466.325 1459.9,471.573 1471.85,477.187 1483.8,483.166 1495.74,489.51 1507.69,496.22 1519.64,503.295 1531.59,510.736 1543.53,518.541 1555.48,526.712 1567.43,535.249 1579.37,544.15 1591.32,553.417 1603.27,563.049 1615.22,573.047 1627.16,583.41 1639.11,594.138 1651.06,605.231 1663.01,616.69 1674.95,628.514 1686.9,640.703 1698.85,653.258 1710.8,666.178 1722.74,679.463 1734.69,693.114 1746.64,707.129 1758.58,721.511 1770.53,736.257 1782.48,751.369 1794.43,766.846 "/>
<polyline clip-path="url(#clip942)" style="stroke:#008000; stroke-linecap:round; stroke-linejoin:round; stroke-width:4; stroke-opacity:0.5; fill:none" points="711.809,1006.71 722.744,989.294 733.68,972.18 744.615,955.373 755.551,938.872 766.486,922.676 777.422,906.787 788.357,891.204 799.293,875.927 810.228,860.956 821.164,846.291 832.1,831.932 843.035,817.879 853.971,804.132 864.906,790.691 875.842,777.556 886.777,764.728 897.713,752.205 908.648,739.988 919.584,728.078 930.519,716.473 941.455,705.175 952.39,694.182 963.326,683.496 974.261,673.116 985.197,663.042 996.132,653.273 1007.07,643.811 1018,634.655 1028.94,625.805 1039.87,617.261 1050.81,609.023 1061.75,601.091 1072.68,593.466 1083.62,586.146 1094.55,579.132 1105.49,572.424 1116.42,566.023 1127.36,559.927 1138.29,554.138 1149.23,548.654 1160.17,543.477 1171.1,538.606 1182.04,534.04 1192.97,529.781 1203.91,525.828 1214.84,522.181 1225.78,518.84 1236.71,515.805 1247.65,513.076 1258.59,510.653 1269.52,508.536 1280.46,506.725 1291.39,505.221 1302.33,504.022 1313.26,503.129 1324.2,502.543 1335.13,502.262 1346.07,502.288 1357,502.619 1367.94,503.257 1378.88,504.201 1389.81,505.45 1400.75,507.006 1411.68,508.868 1422.62,511.036 1433.55,513.51 1444.49,516.29 1455.42,519.376 1466.36,522.768 1477.3,526.466 1488.23,530.47 1499.17,534.781 1510.1,539.397 1521.04,544.319 1531.97,549.548 1542.91,555.082 1553.84,560.923 1564.78,567.069 1575.72,573.522 1586.65,580.281 1597.59,587.345 1608.52,594.716 1619.46,602.393 1630.39,610.376 1641.33,618.665 1652.26,627.26 1663.2,636.161 1674.14,645.368 1685.07,654.881 1696.01,664.701 1706.94,674.826 1717.88,685.257 1728.81,695.995 1739.75,707.038 1750.68,718.387 1761.62,730.043 1772.56,742.005 1783.49,754.272 1794.43,766.846 "/>
<polyline clip-path="url(#clip942)" style="stroke:#008000; stroke-linecap:round; stroke-linejoin:round; stroke-width:4; stroke-opacity:0.5; fill:none" points="711.809,1006.71 723.115,988.26 734.421,970.134 745.727,952.335 757.033,934.864 768.339,917.719 779.645,900.902 790.951,884.412 802.257,868.249 813.564,852.413 824.87,836.904 836.176,821.722 847.482,806.868 858.788,792.34 870.094,778.14 881.4,764.267 892.706,750.721 904.012,737.502 915.319,724.611 926.625,712.046 937.931,699.809 949.237,687.899 960.543,676.316 971.849,665.06 983.155,654.131 994.461,643.53 1005.77,633.255 1017.07,623.308 1028.38,613.688 1039.69,604.395 1050.99,595.429 1062.3,586.79 1073.6,578.479 1084.91,570.494 1096.22,562.837 1107.52,555.507 1118.83,548.504 1130.13,541.828 1141.44,535.48 1152.75,529.458 1164.05,523.764 1175.36,518.397 1186.66,513.356 1197.97,508.644 1209.28,504.258 1220.58,500.199 1231.89,496.468 1243.2,493.063 1254.5,489.986 1265.81,487.236 1277.11,484.813 1288.42,482.717 1299.73,480.949 1311.03,479.507 1322.34,478.393 1333.64,477.606 1344.95,477.146 1356.26,477.013 1367.56,477.207 1378.87,477.729 1390.17,478.577 1401.48,479.753 1412.79,481.256 1424.09,483.086 1435.4,485.243 1446.71,487.727 1458.01,490.539 1469.32,493.677 1480.62,497.143 1491.93,500.936 1503.24,505.056 1514.54,509.503 1525.85,514.277 1537.15,519.379 1548.46,524.808 1559.77,530.563 1571.07,536.646 1582.38,543.056 1593.68,549.794 1604.99,556.858 1616.3,564.249 1627.6,571.968 1638.91,580.014 1650.22,588.387 1661.52,597.087 1672.83,606.114 1684.13,615.469 1695.44,625.15 1706.75,635.159 1718.05,645.495 1729.36,656.158 1740.66,667.148 1751.97,678.465 1763.28,690.109 1774.58,702.081 1785.89,714.38 1797.19,727.006 1808.5,739.959 1819.81,753.239 1831.11,766.846 "/>
<polyline clip-path="url(#clip942)" style="stroke:#008000; stroke-linecap:round; stroke-linejoin:round; stroke-width:4; stroke-opacity:0.5; fill:none" points="758.861,1006.71 769.692,989.58 780.523,972.746 791.354,956.213 802.185,939.98 813.015,924.047 823.846,908.414 834.677,893.082 845.508,878.05 856.339,863.318 867.17,848.886 878,834.755 888.831,820.923 899.662,807.392 910.493,794.162 921.324,781.231 932.154,768.601 942.985,756.27 953.816,744.24 964.647,732.511 975.478,721.081 986.309,709.952 997.139,699.123 1007.97,688.594 1018.8,678.365 1029.63,668.437 1040.46,658.809 1051.29,649.481 1062.12,640.453 1072.96,631.726 1083.79,623.298 1094.62,615.171 1105.45,607.344 1116.28,599.818 1127.11,592.591 1137.94,585.665 1148.77,579.039 1159.6,572.713 1170.43,566.688 1181.26,560.962 1192.09,555.537 1202.93,550.412 1213.76,545.588 1224.59,541.063 1235.42,536.839 1246.25,532.915 1257.08,529.291 1267.91,525.968 1278.74,522.944 1289.57,520.221 1300.4,517.798 1311.23,515.676 1322.06,513.853 1332.89,512.331 1343.73,511.109 1354.56,510.187 1365.39,509.566 1376.22,509.244 1387.05,509.223 1397.88,509.502 1408.71,510.081 1419.54,510.961 1430.37,512.141 1441.2,513.621 1452.03,515.401 1462.86,517.481 1473.7,519.862 1484.53,522.543 1495.36,525.524 1506.19,528.805 1517.02,532.387 1527.85,536.268 1538.68,540.45 1549.51,544.932 1560.34,549.715 1571.17,554.797 1582,560.18 1592.83,565.863 1603.67,571.847 1614.5,578.13 1625.33,584.714 1636.16,591.598 1646.99,598.782 1657.82,606.266 1668.65,614.051 1679.48,622.136 1690.31,630.521 1701.14,639.206 1711.97,648.191 1722.8,657.477 1733.64,667.063 1744.47,676.949 1755.3,687.135 1766.13,697.622 1776.96,708.409 1787.79,719.496 1798.62,730.883 1809.45,742.57 1820.28,754.558 1831.11,766.846 "/>
<polyline clip-path="url(#clip942)" style="stroke:#008000; stroke-linecap:round; stroke-linejoin:round; stroke-width:4; stroke-opacity:0.5; fill:none" points="761.375,1006.71 772.181,989.648 782.986,972.882 793.791,956.415 804.597,940.247 815.402,924.377 826.208,908.807 837.013,893.535 847.819,878.562 858.624,863.887 869.429,849.512 880.235,835.435 891.04,821.657 901.846,808.178 912.651,794.998 923.457,782.117 934.262,769.534 945.067,757.25 955.873,745.265 966.678,733.579 977.484,722.192 988.289,711.103 999.095,700.314 1009.9,689.823 1020.71,679.631 1031.51,669.738 1042.32,660.143 1053.12,650.848 1063.93,641.851 1074.73,633.153 1085.54,624.754 1096.34,616.653 1107.15,608.852 1117.95,601.349 1128.76,594.145 1139.57,587.24 1150.37,580.633 1161.18,574.326 1171.98,568.317 1182.79,562.607 1193.59,557.196 1204.4,552.084 1215.2,547.271 1226.01,542.756 1236.81,538.54 1247.62,534.623 1258.42,531.005 1269.23,527.686 1280.04,524.665 1290.84,521.944 1301.65,519.521 1312.45,517.397 1323.26,515.571 1334.06,514.045 1344.87,512.817 1355.67,511.888 1366.48,511.258 1377.28,510.927 1388.09,510.895 1398.9,511.161 1409.7,511.727 1420.51,512.591 1431.31,513.753 1442.12,515.215 1452.92,516.976 1463.73,519.035 1474.53,521.393 1485.34,524.05 1496.14,527.006 1506.95,530.26 1517.76,533.814 1528.56,537.666 1539.37,541.817 1550.17,546.267 1560.98,551.015 1571.78,556.063 1582.59,561.409 1593.39,567.054 1604.2,572.998 1615,579.241 1625.81,585.782 1636.61,592.623 1647.42,599.762 1658.23,607.2 1669.03,614.937 1679.84,622.972 1690.64,631.307 1701.45,639.94 1712.25,648.872 1723.06,658.103 1733.86,667.632 1744.67,677.461 1755.47,687.588 1766.28,698.014 1777.09,708.739 1787.89,719.763 1798.7,731.085 1809.5,742.707 1820.31,754.627 1831.11,766.846 "/>
<polyline clip-path="url(#clip942)" style="stroke:#008000; stroke-linecap:round; stroke-linejoin:round; stroke-width:4; stroke-opacity:0.5; fill:none" points="761.375,1006.71 772.207,989.578 783.038,972.743 793.87,956.208 804.701,939.973 815.533,924.039 826.364,908.404 837.195,893.071 848.027,878.037 858.858,863.304 869.69,848.87 880.521,834.738 891.353,820.905 902.184,807.373 913.016,794.14 923.847,781.209 934.679,768.577 945.51,756.246 956.342,744.215 967.173,732.484 978.004,721.053 988.836,709.923 999.667,699.093 1010.5,688.563 1021.33,678.333 1032.16,668.404 1042.99,658.775 1053.82,649.446 1064.66,640.418 1075.49,631.689 1086.32,623.261 1097.15,615.134 1107.98,607.306 1118.81,599.779 1129.64,592.552 1140.48,585.625 1151.31,578.999 1162.14,572.672 1172.97,566.646 1183.8,560.921 1194.63,555.495 1205.47,550.37 1216.3,545.545 1227.13,541.02 1237.96,536.796 1248.79,532.872 1259.62,529.248 1270.45,525.924 1281.29,522.901 1292.12,520.178 1302.95,517.755 1313.78,515.632 1324.61,513.81 1335.44,512.288 1346.27,511.066 1357.11,510.144 1367.94,509.523 1378.77,509.202 1389.6,509.181 1400.43,509.46 1411.26,510.04 1422.09,510.92 1432.93,512.1 1443.76,513.58 1454.59,515.361 1465.42,517.442 1476.25,519.823 1487.08,522.505 1497.91,525.486 1508.75,528.768 1519.58,532.35 1530.41,536.233 1541.24,540.416 1552.07,544.899 1562.9,549.682 1573.74,554.765 1584.57,560.149 1595.4,565.833 1606.23,571.817 1617.06,578.102 1627.89,584.687 1638.72,591.572 1649.56,598.757 1660.39,606.243 1671.22,614.028 1682.05,622.114 1692.88,630.501 1703.71,639.187 1714.54,648.174 1725.38,657.461 1736.21,667.048 1747.04,676.936 1757.87,687.124 1768.7,697.612 1779.53,708.4 1790.36,719.489 1801.2,730.878 1812.03,742.567 1822.86,754.556 1833.69,766.846 "/>
<polyline clip-path="url(#clip942)" style="stroke:#008000; stroke-linecap:round; stroke-linejoin:round; stroke-width:4; stroke-opacity:0.5; fill:none" points="766.462,1006.71 777.242,989.717 788.022,973.018 798.802,956.617 809.582,940.513 820.362,924.706 831.143,909.197 841.923,893.986 852.703,879.071 863.483,864.455 874.263,850.135 885.043,836.113 895.823,822.388 906.603,808.961 917.383,795.831 928.163,782.999 938.943,770.464 949.723,758.226 960.504,746.286 971.284,734.644 982.064,723.298 992.844,712.25 1003.62,701.5 1014.4,691.047 1025.18,680.891 1035.96,671.033 1046.74,661.472 1057.52,652.209 1068.3,643.243 1079.08,634.574 1089.86,626.203 1100.64,618.129 1111.42,610.353 1122.2,602.874 1132.98,595.692 1143.76,588.808 1154.55,582.221 1165.33,575.932 1176.11,569.94 1186.89,564.246 1197.67,558.849 1208.45,553.749 1219.23,548.947 1230.01,544.442 1240.79,540.235 1251.57,536.325 1262.35,532.712 1273.13,529.397 1283.91,526.379 1294.69,523.659 1305.47,521.236 1316.25,519.111 1327.03,517.283 1337.81,515.752 1348.59,514.519 1359.37,513.583 1370.15,512.944 1380.93,512.603 1391.71,512.56 1402.49,512.814 1413.27,513.365 1424.05,514.214 1434.83,515.36 1445.61,516.803 1456.39,518.544 1467.17,520.582 1477.95,522.918 1488.73,525.551 1499.51,528.482 1510.29,531.71 1521.07,535.235 1531.85,539.058 1542.63,543.178 1553.41,547.596 1564.19,552.311 1574.97,557.323 1585.75,562.633 1596.53,568.24 1607.31,574.145 1618.09,580.347 1628.87,586.847 1639.65,593.643 1650.43,600.738 1661.21,608.13 1671.99,615.819 1682.77,623.805 1693.55,632.089 1704.33,640.671 1715.11,649.55 1725.89,658.726 1736.67,668.199 1747.45,677.971 1758.23,688.039 1769.01,698.405 1779.79,709.068 1790.57,720.029 1801.35,731.287 1812.13,742.843 1822.91,754.696 1833.69,766.846 "/>
<polyline clip-path="url(#clip942)" style="stroke:#008000; stroke-linecap:round; stroke-linejoin:round; stroke-width:4; stroke-opacity:0.5; fill:none" points="766.462,1006.71 778.107,987.285 789.752,968.204 801.397,949.47 813.042,931.083 824.687,913.043 836.331,895.35 847.976,878.004 859.621,861.005 871.266,844.353 882.911,828.049 894.556,812.091 906.201,796.48 917.846,781.216 929.491,766.3 941.135,751.73 952.78,737.508 964.425,723.632 976.07,710.104 987.715,696.923 999.36,684.088 1011,671.601 1022.65,659.461 1034.29,647.668 1045.94,636.222 1057.58,625.123 1069.23,614.371 1080.87,603.966 1092.52,593.908 1104.16,584.197 1115.81,574.833 1127.45,565.816 1139.1,557.146 1150.74,548.824 1162.39,540.848 1174.03,533.219 1185.68,525.938 1197.32,519.003 1208.97,512.416 1220.61,506.176 1232.26,500.282 1243.9,494.736 1255.55,489.537 1267.19,484.684 1278.84,480.179 1290.48,476.021 1302.13,472.21 1313.77,468.746 1325.42,465.629 1337.06,462.859 1348.71,460.436 1360.35,458.36 1372,456.631 1383.64,455.25 1395.29,454.215 1406.93,453.527 1418.58,453.187 1430.22,453.193 1441.87,453.547 1453.51,454.247 1465.16,455.295 1476.8,456.689 1488.45,458.431 1500.09,460.52 1511.73,462.955 1523.38,465.738 1535.02,468.868 1546.67,472.345 1558.31,476.169 1569.96,480.34 1581.6,484.858 1593.25,489.723 1604.89,494.935 1616.54,500.494 1628.18,506.4 1639.83,512.654 1651.47,519.254 1663.12,526.201 1674.76,533.496 1686.41,541.137 1698.05,549.126 1709.7,557.461 1721.34,566.144 1732.99,575.173 1744.63,584.55 1756.28,594.274 1767.92,604.345 1779.57,614.762 1791.21,625.527 1802.86,636.639 1814.5,648.098 1826.15,659.904 1837.79,672.057 1849.44,684.557 1861.08,697.405 1872.73,710.599 1884.37,724.14 1896.02,738.028 1907.66,752.264 1919.31,766.846 "/>
<polyline clip-path="url(#clip942)" style="stroke:#008000; stroke-linecap:round; stroke-linejoin:round; stroke-width:4; stroke-opacity:0.5; fill:none" points="821.292,1006.71 832.383,988.864 843.474,971.33 854.565,954.11 865.656,937.206 876.747,920.616 887.838,904.341 898.929,888.381 910.021,872.736 921.112,857.405 932.203,842.389 943.294,827.688 954.385,813.302 965.476,799.231 976.567,785.475 987.658,772.033 998.749,758.906 1009.84,746.094 1020.93,733.597 1032.02,721.415 1043.11,709.547 1054.2,697.995 1065.3,686.757 1076.39,675.834 1087.48,665.226 1098.57,654.932 1109.66,644.954 1120.75,635.29 1131.84,625.941 1142.93,616.907 1154.02,608.187 1165.11,599.783 1176.21,591.693 1187.3,583.918 1198.39,576.458 1209.48,569.313 1220.57,562.483 1231.66,555.967 1242.75,549.767 1253.84,543.881 1264.93,538.309 1276.03,533.053 1287.12,528.112 1298.21,523.485 1309.3,519.173 1320.39,515.176 1331.48,511.494 1342.57,508.127 1353.66,505.074 1364.75,502.336 1375.84,499.914 1386.94,497.805 1398.03,496.012 1409.12,494.534 1420.21,493.37 1431.3,492.521 1442.39,491.987 1453.48,491.768 1464.57,491.864 1475.66,492.274 1486.76,493 1497.85,494.04 1508.94,495.395 1520.03,497.064 1531.12,499.049 1542.21,501.348 1553.3,503.963 1564.39,506.892 1575.48,510.136 1586.57,513.694 1597.67,517.568 1608.76,521.756 1619.85,526.259 1630.94,531.077 1642.03,536.21 1653.12,541.658 1664.21,547.42 1675.3,553.497 1686.39,559.889 1697.48,566.596 1708.58,573.618 1719.67,580.954 1730.76,588.606 1741.85,596.572 1752.94,604.853 1764.03,613.449 1775.12,622.359 1786.21,631.585 1797.3,641.125 1808.4,650.98 1819.49,661.15 1830.58,671.635 1841.67,682.434 1852.76,693.549 1863.85,704.978 1874.94,716.722 1886.03,728.781 1897.12,741.154 1908.21,753.843 1919.31,766.846 "/>
<polyline clip-path="url(#clip942)" style="stroke:#008000; stroke-linecap:round; stroke-linejoin:round; stroke-width:4; stroke-opacity:0.5; fill:none" points="856.274,1006.71 867.011,989.831 877.749,973.245 888.487,956.953 899.225,940.956 909.962,925.255 920.7,909.849 931.438,894.737 942.175,879.921 952.913,865.4 963.651,851.174 974.388,837.243 985.126,823.607 995.864,810.266 1006.6,797.22 1017.34,784.469 1028.08,772.014 1038.81,759.853 1049.55,747.988 1060.29,736.417 1071.03,725.142 1081.77,714.162 1092.5,703.477 1103.24,693.087 1113.98,682.992 1124.72,673.192 1135.45,663.687 1146.19,654.477 1156.93,645.563 1167.67,636.943 1178.4,628.618 1189.14,620.589 1199.88,612.855 1210.62,605.415 1221.36,598.271 1232.09,591.422 1242.83,584.868 1253.57,578.609 1264.31,572.645 1275.04,566.977 1285.78,561.603 1296.52,556.524 1307.26,551.741 1317.99,547.252 1328.73,543.059 1339.47,539.161 1350.21,535.557 1360.95,532.249 1371.68,529.236 1382.42,526.518 1393.16,524.095 1403.9,521.967 1414.63,520.135 1425.37,518.597 1436.11,517.354 1446.85,516.407 1457.58,515.755 1468.32,515.397 1479.06,515.335 1489.8,515.568 1500.54,516.096 1511.27,516.919 1522.01,518.037 1532.75,519.45 1543.49,521.158 1554.22,523.161 1564.96,525.46 1575.7,528.053 1586.44,530.942 1597.17,534.125 1607.91,537.604 1618.65,541.378 1629.39,545.447 1640.13,549.811 1650.86,554.47 1661.6,559.424 1672.34,564.673 1683.08,570.217 1693.81,576.056 1704.55,582.191 1715.29,588.62 1726.03,595.345 1736.77,602.365 1747.5,609.679 1758.24,617.289 1768.98,625.194 1779.72,633.394 1790.45,641.889 1801.19,650.679 1811.93,659.764 1822.67,669.145 1833.4,678.82 1844.14,688.791 1854.88,699.056 1865.62,709.617 1876.36,720.472 1887.09,731.623 1897.83,743.069 1908.57,754.81 1919.31,766.846 "/>
<polyline clip-path="url(#clip942)" style="stroke:#008000; stroke-linecap:round; stroke-linejoin:round; stroke-width:4; stroke-opacity:0.5; fill:none" points="856.274,1006.71 867.217,989.272 878.161,972.137 889.104,955.308 900.048,938.786 910.992,922.57 921.935,906.661 932.879,891.059 943.822,875.763 954.766,860.773 965.71,846.09 976.653,831.714 987.597,817.644 998.54,803.88 1009.48,790.423 1020.43,777.272 1031.37,764.428 1042.31,751.891 1053.26,739.66 1064.2,727.735 1075.15,716.117 1086.09,704.806 1097.03,693.801 1107.98,683.102 1118.92,672.71 1129.86,662.625 1140.81,652.846 1151.75,643.373 1162.69,634.207 1173.64,625.348 1184.58,616.795 1195.52,608.548 1206.47,600.608 1217.41,592.975 1228.36,585.648 1239.3,578.628 1250.24,571.914 1261.19,565.506 1272.13,559.405 1283.07,553.611 1294.02,548.123 1304.96,542.941 1315.9,538.066 1326.85,533.498 1337.79,529.236 1348.73,525.281 1359.68,521.632 1370.62,518.289 1381.57,515.253 1392.51,512.524 1403.45,510.101 1414.4,507.985 1425.34,506.175 1436.28,504.671 1447.23,503.475 1458.17,502.584 1469.11,502 1480.06,501.723 1491,501.752 1501.94,502.088 1512.89,502.73 1523.83,503.678 1534.78,504.934 1545.72,506.495 1556.66,508.363 1567.61,510.538 1578.55,513.019 1589.49,515.807 1600.44,518.901 1611.38,522.302 1622.32,526.009 1633.27,530.023 1644.21,534.343 1655.15,538.969 1666.1,543.903 1677.04,549.142 1687.99,554.689 1698.93,560.541 1709.87,566.7 1720.82,573.166 1731.76,579.938 1742.7,587.017 1753.65,594.402 1764.59,602.094 1775.53,610.092 1786.48,618.397 1797.42,627.008 1808.36,635.926 1819.31,645.15 1830.25,654.681 1841.2,664.518 1852.14,674.662 1863.08,685.112 1874.03,695.869 1884.97,706.932 1895.91,718.302 1906.86,729.978 1917.8,741.961 1928.74,754.25 1939.69,766.846 "/>
<polyline clip-path="url(#clip942)" style="stroke:#008000; stroke-linecap:round; stroke-linejoin:round; stroke-width:4; stroke-opacity:0.5; fill:none" points="877.826,1006.71 888.552,989.863 899.277,973.308 910.003,957.047 920.729,941.08 931.455,925.408 942.181,910.03 952.907,894.946 963.633,880.157 974.359,865.663 985.084,851.463 995.81,837.557 1006.54,823.946 1017.26,810.629 1027.99,797.606 1038.71,784.878 1049.44,772.445 1060.17,760.306 1070.89,748.461 1081.62,736.911 1092.34,725.655 1103.07,714.694 1113.8,704.027 1124.52,693.654 1135.25,683.576 1145.97,673.792 1156.7,664.303 1167.42,655.108 1178.15,646.208 1188.88,637.602 1199.6,629.29 1210.33,621.273 1221.05,613.551 1231.78,606.123 1242.51,598.989 1253.23,592.149 1263.96,585.604 1274.68,579.354 1285.41,573.398 1296.13,567.736 1306.86,562.369 1317.59,557.296 1328.31,552.518 1339.04,548.034 1349.76,543.844 1360.49,539.949 1371.22,536.349 1381.94,533.043 1392.67,530.031 1403.39,527.314 1414.12,524.891 1424.85,522.762 1435.57,520.928 1446.3,519.388 1457.02,518.143 1467.75,517.193 1478.47,516.536 1489.2,516.174 1499.93,516.107 1510.65,516.334 1521.38,516.855 1532.1,517.671 1542.83,518.781 1553.56,520.186 1564.28,521.885 1575.01,523.879 1585.73,526.167 1596.46,528.749 1607.19,531.626 1617.91,534.797 1628.64,538.263 1639.36,542.023 1650.09,546.078 1660.81,550.427 1671.54,555.07 1682.27,560.008 1692.99,565.24 1703.72,570.767 1714.44,576.588 1725.17,582.704 1735.9,589.114 1746.62,595.818 1757.35,602.817 1768.07,610.11 1778.8,617.698 1789.53,625.58 1800.25,633.757 1810.98,642.228 1821.7,650.993 1832.43,660.053 1843.15,669.408 1853.88,679.056 1864.61,689 1875.33,699.237 1886.06,709.769 1896.78,720.596 1907.51,731.717 1918.24,743.132 1928.96,754.842 1939.69,766.846 "/>
<polyline clip-path="url(#clip942)" style="stroke:#008000; stroke-linecap:round; stroke-linejoin:round; stroke-width:4; stroke-opacity:0.5; fill:none" points="877.826,1006.71 889.019,988.579 900.212,970.766 911.405,953.273 922.598,936.101 933.791,919.25 944.983,902.719 956.176,886.509 967.369,870.62 978.562,855.051 989.755,839.803 1000.95,824.875 1012.14,810.268 1023.33,795.982 1034.53,782.016 1045.72,768.371 1056.91,755.047 1068.11,742.043 1079.3,729.36 1090.49,716.997 1101.69,704.955 1112.88,693.234 1124.07,681.834 1135.26,670.754 1146.46,659.994 1157.65,649.556 1168.84,639.437 1180.04,629.64 1191.23,620.163 1202.42,611.007 1213.61,602.171 1224.81,593.656 1236,585.462 1247.19,577.589 1258.39,570.036 1269.58,562.803 1280.77,555.891 1291.97,549.3 1303.16,543.03 1314.35,537.08 1325.54,531.451 1336.74,526.142 1347.93,521.154 1359.12,516.487 1370.32,512.14 1381.51,508.114 1392.7,504.409 1403.9,501.024 1415.09,497.96 1426.28,495.216 1437.47,492.793 1448.67,490.691 1459.86,488.909 1471.05,487.448 1482.25,486.308 1493.44,485.488 1504.63,484.989 1515.82,484.811 1527.02,484.953 1538.21,485.415 1549.4,486.199 1560.6,487.303 1571.79,488.728 1582.98,490.473 1594.18,492.539 1605.37,494.926 1616.56,497.633 1627.75,500.661 1638.95,504.009 1650.14,507.678 1661.33,511.668 1672.53,515.978 1683.72,520.609 1694.91,525.561 1706.11,530.833 1717.3,536.426 1728.49,542.34 1739.68,548.574 1750.88,555.129 1762.07,562.004 1773.26,569.2 1784.46,576.717 1795.65,584.554 1806.84,592.712 1818.04,601.191 1829.23,609.99 1840.42,619.11 1851.61,628.551 1862.81,638.312 1874,648.393 1885.19,658.796 1896.39,669.519 1907.58,680.563 1918.77,691.927 1929.96,703.612 1941.16,715.617 1952.35,727.944 1963.54,740.59 1974.74,753.558 1985.93,766.846 "/>
<polyline clip-path="url(#clip942)" style="stroke:#008000; stroke-linecap:round; stroke-linejoin:round; stroke-width:4; stroke-opacity:0.5; fill:none" points="1005.03,1006.71 1014.94,991.98 1024.85,977.497 1034.76,963.266 1044.67,949.286 1054.57,935.557 1064.48,922.079 1074.39,908.853 1084.3,895.878 1094.21,883.154 1104.11,870.682 1114.02,858.46 1123.93,846.49 1133.84,834.771 1143.75,823.304 1153.65,812.087 1163.56,801.122 1173.47,790.408 1183.38,779.946 1193.29,769.734 1203.2,759.774 1213.1,750.065 1223.01,740.608 1232.92,731.401 1242.83,722.446 1252.74,713.742 1262.64,705.289 1272.55,697.088 1282.46,689.138 1292.37,681.439 1302.28,673.991 1312.18,666.794 1322.09,659.849 1332,653.155 1341.91,646.712 1351.82,640.521 1361.72,634.581 1371.63,628.892 1381.54,623.454 1391.45,618.267 1401.36,613.332 1411.26,608.648 1421.17,604.215 1431.08,600.033 1440.99,596.103 1450.9,592.424 1460.8,588.996 1470.71,585.819 1480.62,582.894 1490.53,580.22 1500.44,577.797 1510.34,575.625 1520.25,573.705 1530.16,572.036 1540.07,570.618 1549.98,569.451 1559.88,568.536 1569.79,567.871 1579.7,567.458 1589.61,567.297 1599.52,567.386 1609.42,567.727 1619.33,568.319 1629.24,569.162 1639.15,570.257 1649.06,571.602 1658.96,573.199 1668.87,575.048 1678.78,577.147 1688.69,579.498 1698.6,582.1 1708.5,584.953 1718.41,588.057 1728.32,591.413 1738.23,595.02 1748.14,598.878 1758.04,602.987 1767.95,607.348 1777.86,611.96 1787.77,616.823 1797.68,621.937 1807.58,627.303 1817.49,632.92 1827.4,638.788 1837.31,644.907 1847.22,651.278 1857.13,657.9 1867.03,664.773 1876.94,671.897 1886.85,679.272 1896.76,686.899 1906.67,694.777 1916.57,702.906 1926.48,711.287 1936.39,719.919 1946.3,728.802 1956.21,737.936 1966.11,747.321 1976.02,756.958 1985.93,766.846 "/>
<polyline clip-path="url(#clip942)" style="stroke:#008000; stroke-linecap:round; stroke-linejoin:round; stroke-width:4; stroke-opacity:0.5; fill:none" points="1103.15,1006.71 1112.07,994.319 1120.99,982.129 1129.9,970.142 1138.82,958.358 1147.74,946.778 1156.65,935.401 1165.57,924.228 1174.49,913.259 1183.4,902.493 1192.32,891.93 1201.24,881.571 1210.16,871.415 1219.07,861.463 1227.99,851.714 1236.91,842.169 1245.82,832.828 1254.74,823.689 1263.66,814.755 1272.57,806.023 1281.49,797.496 1290.41,789.172 1299.32,781.051 1308.24,773.134 1317.16,765.42 1326.08,757.91 1334.99,750.603 1343.91,743.5 1352.83,736.6 1361.74,729.904 1370.66,723.411 1379.58,717.122 1388.49,711.036 1397.41,705.154 1406.33,699.475 1415.25,694 1424.16,688.728 1433.08,683.659 1442,678.795 1450.91,674.133 1459.83,669.675 1468.75,665.421 1477.66,661.37 1486.58,657.523 1495.5,653.879 1504.41,650.439 1513.33,647.202 1522.25,644.168 1531.17,641.339 1540.08,638.712 1549,636.289 1557.92,634.07 1566.83,632.054 1575.75,630.242 1584.67,628.633 1593.58,627.227 1602.5,626.025 1611.42,625.027 1620.33,624.232 1629.25,623.64 1638.17,623.252 1647.09,623.068 1656,623.087 1664.92,623.309 1673.84,623.735 1682.75,624.365 1691.67,625.198 1700.59,626.234 1709.5,627.474 1718.42,628.918 1727.34,630.565 1736.26,632.415 1745.17,634.469 1754.09,636.727 1763.01,639.188 1771.92,641.852 1780.84,644.72 1789.76,647.791 1798.67,651.066 1807.59,654.545 1816.51,658.226 1825.42,662.112 1834.34,666.201 1843.26,670.493 1852.18,674.989 1861.09,679.688 1870.01,684.591 1878.93,689.697 1887.84,695.007 1896.76,700.521 1905.68,706.237 1914.59,712.158 1923.51,718.282 1932.43,724.609 1941.34,731.14 1950.26,737.874 1959.18,744.812 1968.1,751.953 1977.01,759.298 1985.93,766.846 "/>
<polyline clip-path="url(#clip942)" style="stroke:#008000; stroke-linecap:round; stroke-linejoin:round; stroke-width:4; stroke-opacity:0.5; fill:none" points="1103.15,1006.71 1112.76,992.712 1122.37,978.947 1131.98,965.418 1141.59,952.125 1151.2,939.069 1160.8,926.249 1170.41,913.666 1180.02,901.318 1189.63,889.207 1199.24,877.333 1208.85,865.694 1218.46,854.292 1228.07,843.126 1237.68,832.197 1247.28,821.503 1256.89,811.046 1266.5,800.826 1276.11,790.841 1285.72,781.093 1295.33,771.581 1304.94,762.306 1314.55,753.267 1324.15,744.464 1333.76,735.897 1343.37,727.567 1352.98,719.473 1362.59,711.615 1372.2,703.994 1381.81,696.609 1391.42,689.46 1401.03,682.547 1410.63,675.871 1420.24,669.431 1429.85,663.228 1439.46,657.26 1449.07,651.529 1458.68,646.034 1468.29,640.776 1477.9,635.754 1487.5,630.968 1497.11,626.418 1506.72,622.105 1516.33,618.028 1525.94,614.187 1535.55,610.583 1545.16,607.215 1554.77,604.083 1564.37,601.188 1573.98,598.529 1583.59,596.106 1593.2,593.919 1602.81,591.969 1612.42,590.255 1622.03,588.777 1631.64,587.536 1641.25,586.53 1650.85,585.762 1660.46,585.229 1670.07,584.933 1679.68,584.873 1689.29,585.049 1698.9,585.462 1708.51,586.111 1718.12,586.996 1727.72,588.118 1737.33,589.475 1746.94,591.07 1756.55,592.9 1766.16,594.967 1775.77,597.27 1785.38,599.809 1794.99,602.585 1804.6,605.597 1814.2,608.845 1823.81,612.329 1833.42,616.05 1843.03,620.007 1852.64,624.201 1862.25,628.63 1871.86,633.296 1881.47,638.198 1891.07,643.337 1900.68,648.712 1910.29,654.323 1919.9,660.171 1929.51,666.254 1939.12,672.574 1948.73,679.131 1958.34,685.923 1967.94,692.952 1977.55,700.217 1987.16,707.719 1996.77,715.457 2006.38,723.431 2015.99,731.641 2025.6,740.088 2035.21,748.771 2044.82,757.69 2054.42,766.846 "/>
<polyline clip-path="url(#clip942)" style="stroke:#008000; stroke-linecap:round; stroke-linejoin:round; stroke-width:4; stroke-opacity:0.5; fill:none" points="1122.15,1006.71 1131.57,993.17 1140.99,979.853 1150.4,966.764 1159.82,953.901 1169.24,941.266 1178.66,928.857 1188.07,916.675 1197.49,904.72 1206.91,892.992 1216.32,881.491 1225.74,870.218 1235.16,859.171 1244.57,848.35 1253.99,837.757 1263.41,827.391 1272.82,817.252 1282.24,807.34 1291.66,797.654 1301.07,788.196 1310.49,778.965 1319.91,769.96 1329.33,761.183 1338.74,752.632 1348.16,744.309 1357.58,736.212 1366.99,728.342 1376.41,720.699 1385.83,713.284 1395.24,706.095 1404.66,699.133 1414.08,692.398 1423.49,685.89 1432.91,679.609 1442.33,673.555 1451.74,667.728 1461.16,662.127 1470.58,656.754 1480,651.608 1489.41,646.689 1498.83,641.996 1508.25,637.531 1517.66,633.292 1527.08,629.281 1536.5,625.496 1545.91,621.938 1555.33,618.608 1564.75,615.504 1574.16,612.627 1583.58,609.977 1593,607.554 1602.41,605.358 1611.83,603.389 1621.25,601.647 1630.66,600.132 1640.08,598.844 1649.5,597.783 1658.92,596.949 1668.33,596.341 1677.75,595.961 1687.17,595.808 1696.58,595.881 1706,596.182 1715.42,596.709 1724.83,597.463 1734.25,598.445 1743.67,599.653 1753.08,601.088 1762.5,602.751 1771.92,604.64 1781.33,606.756 1790.75,609.099 1800.17,611.669 1809.59,614.466 1819,617.49 1828.42,620.741 1837.84,624.218 1847.25,627.923 1856.67,631.855 1866.09,636.013 1875.5,640.399 1884.92,645.012 1894.34,649.851 1903.75,654.918 1913.17,660.211 1922.59,665.731 1932,671.479 1941.42,677.453 1950.84,683.654 1960.26,690.082 1969.67,696.737 1979.09,703.619 1988.51,710.728 1997.92,718.064 2007.34,725.627 2016.76,733.417 2026.17,741.434 2035.59,749.678 2045.01,758.148 2054.42,766.846 "/>
<polyline clip-path="url(#clip942)" style="stroke:#008000; stroke-linecap:round; stroke-linejoin:round; stroke-width:4; stroke-opacity:0.5; fill:none" points="1122.15,1006.71 1133.96,986.797 1145.78,967.237 1157.59,948.034 1169.4,929.188 1181.21,910.7 1193.02,892.568 1204.83,874.794 1216.64,857.376 1228.45,840.315 1240.26,823.612 1252.07,807.265 1263.89,791.276 1275.7,775.643 1287.51,760.368 1299.32,745.449 1311.13,730.888 1322.94,716.683 1334.75,702.836 1346.56,689.345 1358.37,676.212 1370.18,663.436 1382,651.016 1393.81,638.954 1405.62,627.249 1417.43,615.9 1429.24,604.909 1441.05,594.275 1452.86,583.997 1464.67,574.077 1476.48,564.514 1488.29,555.308 1500.11,546.458 1511.92,537.966 1523.73,529.831 1535.54,522.053 1547.35,514.632 1559.16,507.568 1570.97,500.861 1582.78,494.51 1594.59,488.517 1606.4,482.881 1618.21,477.602 1630.03,472.68 1641.84,468.115 1653.65,463.907 1665.46,460.056 1677.27,456.562 1689.08,453.425 1700.89,450.646 1712.7,448.223 1724.51,446.157 1736.32,444.448 1748.14,443.096 1759.95,442.101 1771.76,441.463 1783.57,441.183 1795.38,441.259 1807.19,441.692 1819,442.482 1830.81,443.63 1842.62,445.134 1854.43,446.995 1866.25,449.213 1878.06,451.789 1889.87,454.721 1901.68,458.01 1913.49,461.657 1925.3,465.66 1937.11,470.021 1948.92,474.738 1960.73,479.813 1972.54,485.244 1984.36,491.033 1996.17,497.178 2007.98,503.681 2019.79,510.54 2031.6,517.757 2043.41,525.33 2055.22,533.261 2067.03,541.548 2078.84,550.193 2090.65,559.195 2102.46,568.553 2114.28,578.269 2126.09,588.342 2137.9,598.771 2149.71,609.558 2161.52,620.702 2173.33,632.203 2185.14,644.06 2196.95,656.275 2208.76,668.847 2220.57,681.776 2232.39,695.062 2244.2,708.704 2256.01,722.704 2267.82,737.061 2279.63,751.775 2291.44,766.846 "/>
<polyline clip-path="url(#clip942)" style="stroke:#008000; stroke-linecap:round; stroke-linejoin:round; stroke-width:4; stroke-opacity:0.5; fill:none" points="1126.74,1006.71 1138.5,986.934 1150.27,967.508 1162.03,948.437 1173.8,929.72 1185.56,911.357 1197.33,893.348 1209.09,875.694 1220.86,858.393 1232.62,841.447 1244.39,824.856 1256.15,808.618 1267.92,792.735 1279.68,777.206 1291.45,762.031 1303.21,747.21 1314.97,732.744 1326.74,718.631 1338.5,704.873 1350.27,691.47 1362.03,678.42 1373.8,665.725 1385.56,653.384 1397.33,641.397 1409.09,629.764 1420.86,618.486 1432.62,607.561 1444.39,596.991 1456.15,586.776 1467.91,576.914 1479.68,567.407 1491.44,558.254 1503.21,549.455 1514.97,541.01 1526.74,532.92 1538.5,525.183 1550.27,517.801 1562.03,510.774 1573.8,504.1 1585.56,497.781 1597.33,491.816 1609.09,486.205 1620.86,480.948 1632.62,476.045 1644.38,471.497 1656.15,467.303 1667.91,463.463 1679.68,459.978 1691.44,456.847 1703.21,454.069 1714.97,451.647 1726.74,449.578 1738.5,447.863 1750.27,446.503 1762.03,445.497 1773.8,444.845 1785.56,444.548 1797.33,444.604 1809.09,445.015 1820.85,445.78 1832.62,446.9 1844.38,448.373 1856.15,450.201 1867.91,452.383 1879.68,454.919 1891.44,457.81 1903.21,461.054 1914.97,464.653 1926.74,468.606 1938.5,472.914 1950.27,477.575 1962.03,482.591 1973.79,487.961 1985.56,493.685 1997.32,499.763 2009.09,506.196 2020.85,512.983 2032.62,520.124 2044.38,527.619 2056.15,535.469 2067.91,543.673 2079.68,552.231 2091.44,561.143 2103.21,570.409 2114.97,580.03 2126.74,590.005 2138.5,600.334 2150.26,611.017 2162.03,622.055 2173.79,633.446 2185.56,645.192 2197.32,657.292 2209.09,669.747 2220.85,682.556 2232.62,695.718 2244.38,709.235 2256.15,723.107 2267.91,737.332 2279.68,751.912 2291.44,766.846 "/>
<path clip-path="url(#clip940)" d="M2038.91 250.738 L2280.54 250.738 L2280.54 95.2176 L2038.91 95.2176  Z" fill="#ffffff" fill-rule="evenodd" fill-opacity="1"/>
<polyline clip-path="url(#clip940)" style="stroke:#000000; stroke-linecap:round; stroke-linejoin:round; stroke-width:4; stroke-opacity:1; fill:none" points="2038.91,250.738 2280.54,250.738 2280.54,95.2176 2038.91,95.2176 2038.91,250.738 "/>
<circle clip-path="url(#clip940)" cx="2135.2" cy="147.058" r="20.48" fill="#009af9" fill-rule="evenodd" fill-opacity="1" stroke="#000000" stroke-opacity="1" stroke-width="4.55111"/>
<path clip-path="url(#clip940)" d="M2231.49 174.199 L2231.49 138.412 L2235.75 138.412 L2235.75 154.523 Q2235.75 157.879 2237.35 159.592 Q2238.94 161.305 2242.07 161.305 Q2245.5 161.305 2247.21 159.361 Q2248.94 157.416 2248.94 153.527 L2248.94 138.412 L2253.2 138.412 L2253.2 158.365 Q2253.2 159.754 2253.6 160.426 Q2254.01 161.074 2254.87 161.074 Q2255.08 161.074 2255.45 160.958 Q2255.82 160.819 2256.47 160.541 L2256.47 163.967 Q2255.52 164.5 2254.66 164.754 Q2253.83 165.009 2253.02 165.009 Q2251.42 165.009 2250.47 164.106 Q2249.52 163.203 2249.18 161.351 Q2248.02 163.18 2246.33 164.106 Q2244.66 165.009 2242.39 165.009 Q2240.03 165.009 2238.37 164.106 Q2236.72 163.203 2235.75 161.398 L2235.75 174.199 L2231.49 174.199 Z" fill="#000000" fill-rule="nonzero" fill-opacity="1" /><circle clip-path="url(#clip940)" cx="2135.2" cy="198.898" r="20.48" fill="#e26f46" fill-rule="evenodd" fill-opacity="1" stroke="#000000" stroke-opacity="1" stroke-width="4.55111"/>
<path clip-path="url(#clip940)" d="M2239.41 216.178 L2231.49 190.252 L2236.07 190.252 L2242.76 212.011 Q2245.54 209.141 2247.86 205.159 Q2249.62 202.173 2249.71 199.58 Q2249.75 198.354 2249.2 196.039 Q2248.55 193.284 2246.1 190.252 L2250.4 190.252 L2250.4 190.252 Q2252 192.312 2253.07 195.182 Q2254.04 197.821 2254.04 199.627 Q2254.04 204.164 2250.89 208.215 Q2246.79 213.492 2243.94 216.178 L2239.41 216.178 Z" fill="#000000" fill-rule="nonzero" fill-opacity="1" /></svg>
