<?xml version="1.0" encoding="utf-8"?>
<svg xmlns="http://www.w3.org/2000/svg" xmlns:xlink="http://www.w3.org/1999/xlink" width="600" height="400" viewBox="0 0 2400 1600">
<defs>
  <clipPath id="clip460">
    <rect x="0" y="0" width="2400" height="1600"/>
  </clipPath>
</defs>
<path clip-path="url(#clip460)" d="M0 1600 L2400 1600 L2400 0 L0 0  Z" fill="#ffffff" fill-rule="evenodd" fill-opacity="1"/>
<defs>
  <clipPath id="clip461">
    <rect x="480" y="0" width="1681" height="1600"/>
  </clipPath>
</defs>
<path clip-path="url(#clip460)" d="M112.177 1486.45 L2352.76 1486.45 L2352.76 47.2441 L112.177 47.2441  Z" fill="#ffffff" fill-rule="evenodd" fill-opacity="1"/>
<defs>
  <clipPath id="clip462">
    <rect x="112" y="47" width="2242" height="1440"/>
  </clipPath>
</defs>
<polyline clip-path="url(#clip462)" style="stroke:#000000; stroke-linecap:round; stroke-linejoin:round; stroke-width:2; stroke-opacity:0.1; fill:none" points="175.59,1486.45 175.59,47.2441 "/>
<polyline clip-path="url(#clip462)" style="stroke:#000000; stroke-linecap:round; stroke-linejoin:round; stroke-width:2; stroke-opacity:0.1; fill:none" points="704.028,1486.45 704.028,47.2441 "/>
<polyline clip-path="url(#clip462)" style="stroke:#000000; stroke-linecap:round; stroke-linejoin:round; stroke-width:2; stroke-opacity:0.1; fill:none" points="1232.47,1486.45 1232.47,47.2441 "/>
<polyline clip-path="url(#clip462)" style="stroke:#000000; stroke-linecap:round; stroke-linejoin:round; stroke-width:2; stroke-opacity:0.1; fill:none" points="1760.9,1486.45 1760.9,47.2441 "/>
<polyline clip-path="url(#clip462)" style="stroke:#000000; stroke-linecap:round; stroke-linejoin:round; stroke-width:2; stroke-opacity:0.1; fill:none" points="2289.34,1486.45 2289.34,47.2441 "/>
<polyline clip-path="url(#clip462)" style="stroke:#000000; stroke-linecap:round; stroke-linejoin:round; stroke-width:2; stroke-opacity:0.1; fill:none" points="112.177,1445.87 2352.76,1445.87 "/>
<polyline clip-path="url(#clip462)" style="stroke:#000000; stroke-linecap:round; stroke-linejoin:round; stroke-width:2; stroke-opacity:0.1; fill:none" points="112.177,1204.46 2352.76,1204.46 "/>
<polyline clip-path="url(#clip462)" style="stroke:#000000; stroke-linecap:round; stroke-linejoin:round; stroke-width:2; stroke-opacity:0.1; fill:none" points="112.177,963.06 2352.76,963.06 "/>
<polyline clip-path="url(#clip462)" style="stroke:#000000; stroke-linecap:round; stroke-linejoin:round; stroke-width:2; stroke-opacity:0.1; fill:none" points="112.177,721.658 2352.76,721.658 "/>
<polyline clip-path="url(#clip462)" style="stroke:#000000; stroke-linecap:round; stroke-linejoin:round; stroke-width:2; stroke-opacity:0.1; fill:none" points="112.177,480.255 2352.76,480.255 "/>
<polyline clip-path="url(#clip462)" style="stroke:#000000; stroke-linecap:round; stroke-linejoin:round; stroke-width:2; stroke-opacity:0.1; fill:none" points="112.177,238.853 2352.76,238.853 "/>
<polyline clip-path="url(#clip460)" style="stroke:#000000; stroke-linecap:round; stroke-linejoin:round; stroke-width:4; stroke-opacity:1; fill:none" points="112.177,1486.45 2352.76,1486.45 "/>
<polyline clip-path="url(#clip460)" style="stroke:#000000; stroke-linecap:round; stroke-linejoin:round; stroke-width:4; stroke-opacity:1; fill:none" points="175.59,1486.45 175.59,1467.55 "/>
<polyline clip-path="url(#clip460)" style="stroke:#000000; stroke-linecap:round; stroke-linejoin:round; stroke-width:4; stroke-opacity:1; fill:none" points="704.028,1486.45 704.028,1467.55 "/>
<polyline clip-path="url(#clip460)" style="stroke:#000000; stroke-linecap:round; stroke-linejoin:round; stroke-width:4; stroke-opacity:1; fill:none" points="1232.47,1486.45 1232.47,1467.55 "/>
<polyline clip-path="url(#clip460)" style="stroke:#000000; stroke-linecap:round; stroke-linejoin:round; stroke-width:4; stroke-opacity:1; fill:none" points="1760.9,1486.45 1760.9,1467.55 "/>
<polyline clip-path="url(#clip460)" style="stroke:#000000; stroke-linecap:round; stroke-linejoin:round; stroke-width:4; stroke-opacity:1; fill:none" points="2289.34,1486.45 2289.34,1467.55 "/>
<path clip-path="url(#clip460)" d="M122.118 1532.02 L151.794 1532.02 L151.794 1535.95 L122.118 1535.95 L122.118 1532.02 Z" fill="#000000" fill-rule="nonzero" fill-opacity="1" /><path clip-path="url(#clip460)" d="M162.696 1544.91 L170.335 1544.91 L170.335 1518.55 L162.025 1520.21 L162.025 1515.95 L170.289 1514.29 L174.965 1514.29 L174.965 1544.91 L182.604 1544.91 L182.604 1548.85 L162.696 1548.85 L162.696 1544.91 Z" fill="#000000" fill-rule="nonzero" fill-opacity="1" /><path clip-path="url(#clip460)" d="M192.048 1542.97 L196.932 1542.97 L196.932 1548.85 L192.048 1548.85 L192.048 1542.97 Z" fill="#000000" fill-rule="nonzero" fill-opacity="1" /><path clip-path="url(#clip460)" d="M217.117 1517.37 Q213.506 1517.37 211.678 1520.93 Q209.872 1524.47 209.872 1531.6 Q209.872 1538.71 211.678 1542.27 Q213.506 1545.82 217.117 1545.82 Q220.752 1545.82 222.557 1542.27 Q224.386 1538.71 224.386 1531.6 Q224.386 1524.47 222.557 1520.93 Q220.752 1517.37 217.117 1517.37 M217.117 1513.66 Q222.927 1513.66 225.983 1518.27 Q229.062 1522.85 229.062 1531.6 Q229.062 1540.33 225.983 1544.94 Q222.927 1549.52 217.117 1549.52 Q211.307 1549.52 208.228 1544.94 Q205.173 1540.33 205.173 1531.6 Q205.173 1522.85 208.228 1518.27 Q211.307 1513.66 217.117 1513.66 Z" fill="#000000" fill-rule="nonzero" fill-opacity="1" /><path clip-path="url(#clip460)" d="M651.054 1532.02 L680.73 1532.02 L680.73 1535.95 L651.054 1535.95 L651.054 1532.02 Z" fill="#000000" fill-rule="nonzero" fill-opacity="1" /><path clip-path="url(#clip460)" d="M700.822 1517.37 Q697.211 1517.37 695.382 1520.93 Q693.577 1524.47 693.577 1531.6 Q693.577 1538.71 695.382 1542.27 Q697.211 1545.82 700.822 1545.82 Q704.456 1545.82 706.262 1542.27 Q708.091 1538.71 708.091 1531.6 Q708.091 1524.47 706.262 1520.93 Q704.456 1517.37 700.822 1517.37 M700.822 1513.66 Q706.632 1513.66 709.688 1518.27 Q712.767 1522.85 712.767 1531.6 Q712.767 1540.33 709.688 1544.94 Q706.632 1549.52 700.822 1549.52 Q695.012 1549.52 691.933 1544.94 Q688.878 1540.33 688.878 1531.6 Q688.878 1522.85 691.933 1518.27 Q695.012 1513.66 700.822 1513.66 Z" fill="#000000" fill-rule="nonzero" fill-opacity="1" /><path clip-path="url(#clip460)" d="M720.984 1542.97 L725.868 1542.97 L725.868 1548.85 L720.984 1548.85 L720.984 1542.97 Z" fill="#000000" fill-rule="nonzero" fill-opacity="1" /><path clip-path="url(#clip460)" d="M736.1 1514.29 L754.456 1514.29 L754.456 1518.22 L740.382 1518.22 L740.382 1526.7 Q741.401 1526.35 742.419 1526.19 Q743.438 1526 744.456 1526 Q750.243 1526 753.623 1529.17 Q757.002 1532.34 757.002 1537.76 Q757.002 1543.34 753.53 1546.44 Q750.058 1549.52 743.739 1549.52 Q741.563 1549.52 739.294 1549.15 Q737.049 1548.78 734.641 1548.04 L734.641 1543.34 Q736.725 1544.47 738.947 1545.03 Q741.169 1545.58 743.646 1545.58 Q747.651 1545.58 749.989 1543.48 Q752.327 1541.37 752.327 1537.76 Q752.327 1534.15 749.989 1532.04 Q747.651 1529.94 743.646 1529.94 Q741.771 1529.94 739.896 1530.35 Q738.044 1530.77 736.1 1531.65 L736.1 1514.29 Z" fill="#000000" fill-rule="nonzero" fill-opacity="1" /><path clip-path="url(#clip460)" d="M1209.85 1517.37 Q1206.24 1517.37 1204.41 1520.93 Q1202.61 1524.47 1202.61 1531.6 Q1202.61 1538.71 1204.41 1542.27 Q1206.24 1545.82 1209.85 1545.82 Q1213.49 1545.82 1215.29 1542.27 Q1217.12 1538.71 1217.12 1531.6 Q1217.12 1524.47 1215.29 1520.93 Q1213.49 1517.37 1209.85 1517.37 M1209.85 1513.66 Q1215.66 1513.66 1218.72 1518.27 Q1221.8 1522.85 1221.8 1531.6 Q1221.8 1540.33 1218.72 1544.94 Q1215.66 1549.52 1209.85 1549.52 Q1204.04 1549.52 1200.96 1544.94 Q1197.91 1540.33 1197.91 1531.6 Q1197.91 1522.85 1200.96 1518.27 Q1204.04 1513.66 1209.85 1513.66 Z" fill="#000000" fill-rule="nonzero" fill-opacity="1" /><path clip-path="url(#clip460)" d="M1230.01 1542.97 L1234.9 1542.97 L1234.9 1548.85 L1230.01 1548.85 L1230.01 1542.97 Z" fill="#000000" fill-rule="nonzero" fill-opacity="1" /><path clip-path="url(#clip460)" d="M1255.08 1517.37 Q1251.47 1517.37 1249.64 1520.93 Q1247.84 1524.47 1247.84 1531.6 Q1247.84 1538.71 1249.64 1542.27 Q1251.47 1545.82 1255.08 1545.82 Q1258.72 1545.82 1260.52 1542.27 Q1262.35 1538.71 1262.35 1531.6 Q1262.35 1524.47 1260.52 1520.93 Q1258.72 1517.37 1255.08 1517.37 M1255.08 1513.66 Q1260.89 1513.66 1263.95 1518.27 Q1267.03 1522.85 1267.03 1531.6 Q1267.03 1540.33 1263.95 1544.94 Q1260.89 1549.52 1255.08 1549.52 Q1249.27 1549.52 1246.19 1544.94 Q1243.14 1540.33 1243.14 1531.6 Q1243.14 1522.85 1246.19 1518.27 Q1249.27 1513.66 1255.08 1513.66 Z" fill="#000000" fill-rule="nonzero" fill-opacity="1" /><path clip-path="url(#clip460)" d="M1738.79 1517.37 Q1735.18 1517.37 1733.35 1520.93 Q1731.54 1524.47 1731.54 1531.6 Q1731.54 1538.71 1733.35 1542.27 Q1735.18 1545.82 1738.79 1545.82 Q1742.42 1545.82 1744.23 1542.27 Q1746.06 1538.71 1746.06 1531.6 Q1746.06 1524.47 1744.23 1520.93 Q1742.42 1517.37 1738.79 1517.37 M1738.79 1513.66 Q1744.6 1513.66 1747.65 1518.27 Q1750.73 1522.85 1750.73 1531.6 Q1750.73 1540.33 1747.65 1544.94 Q1744.6 1549.52 1738.79 1549.52 Q1732.98 1549.52 1729.9 1544.94 Q1726.84 1540.33 1726.84 1531.6 Q1726.84 1522.85 1729.9 1518.27 Q1732.98 1513.66 1738.79 1513.66 Z" fill="#000000" fill-rule="nonzero" fill-opacity="1" /><path clip-path="url(#clip460)" d="M1758.95 1542.97 L1763.83 1542.97 L1763.83 1548.85 L1758.95 1548.85 L1758.95 1542.97 Z" fill="#000000" fill-rule="nonzero" fill-opacity="1" /><path clip-path="url(#clip460)" d="M1774.06 1514.29 L1792.42 1514.29 L1792.42 1518.22 L1778.35 1518.22 L1778.35 1526.7 Q1779.37 1526.35 1780.38 1526.19 Q1781.4 1526 1782.42 1526 Q1788.21 1526 1791.59 1529.17 Q1794.97 1532.34 1794.97 1537.76 Q1794.97 1543.34 1791.5 1546.44 Q1788.02 1549.52 1781.7 1549.52 Q1779.53 1549.52 1777.26 1549.15 Q1775.01 1548.78 1772.61 1548.04 L1772.61 1543.34 Q1774.69 1544.47 1776.91 1545.03 Q1779.13 1545.58 1781.61 1545.58 Q1785.62 1545.58 1787.95 1543.48 Q1790.29 1541.37 1790.29 1537.76 Q1790.29 1534.15 1787.95 1532.04 Q1785.62 1529.94 1781.61 1529.94 Q1779.74 1529.94 1777.86 1530.35 Q1776.01 1530.77 1774.06 1531.65 L1774.06 1514.29 Z" fill="#000000" fill-rule="nonzero" fill-opacity="1" /><path clip-path="url(#clip460)" d="M2256.5 1544.91 L2264.14 1544.91 L2264.14 1518.55 L2255.82 1520.21 L2255.82 1515.95 L2264.09 1514.29 L2268.76 1514.29 L2268.76 1544.91 L2276.4 1544.91 L2276.4 1548.85 L2256.5 1548.85 L2256.5 1544.91 Z" fill="#000000" fill-rule="nonzero" fill-opacity="1" /><path clip-path="url(#clip460)" d="M2285.85 1542.97 L2290.73 1542.97 L2290.73 1548.85 L2285.85 1548.85 L2285.85 1542.97 Z" fill="#000000" fill-rule="nonzero" fill-opacity="1" /><path clip-path="url(#clip460)" d="M2310.92 1517.37 Q2307.31 1517.37 2305.48 1520.93 Q2303.67 1524.47 2303.67 1531.6 Q2303.67 1538.71 2305.48 1542.27 Q2307.31 1545.82 2310.92 1545.82 Q2314.55 1545.82 2316.36 1542.27 Q2318.19 1538.71 2318.19 1531.6 Q2318.19 1524.47 2316.36 1520.93 Q2314.55 1517.37 2310.92 1517.37 M2310.92 1513.66 Q2316.73 1513.66 2319.78 1518.27 Q2322.86 1522.85 2322.86 1531.6 Q2322.86 1540.33 2319.78 1544.94 Q2316.73 1549.52 2310.92 1549.52 Q2305.11 1549.52 2302.03 1544.94 Q2298.97 1540.33 2298.97 1531.6 Q2298.97 1522.85 2302.03 1518.27 Q2305.11 1513.66 2310.92 1513.66 Z" fill="#000000" fill-rule="nonzero" fill-opacity="1" /><polyline clip-path="url(#clip460)" style="stroke:#000000; stroke-linecap:round; stroke-linejoin:round; stroke-width:4; stroke-opacity:1; fill:none" points="112.177,1486.45 112.177,47.2441 "/>
<polyline clip-path="url(#clip460)" style="stroke:#000000; stroke-linecap:round; stroke-linejoin:round; stroke-width:4; stroke-opacity:1; fill:none" points="112.177,1445.87 131.075,1445.87 "/>
<polyline clip-path="url(#clip460)" style="stroke:#000000; stroke-linecap:round; stroke-linejoin:round; stroke-width:4; stroke-opacity:1; fill:none" points="112.177,1204.46 131.075,1204.46 "/>
<polyline clip-path="url(#clip460)" style="stroke:#000000; stroke-linecap:round; stroke-linejoin:round; stroke-width:4; stroke-opacity:1; fill:none" points="112.177,963.06 131.075,963.06 "/>
<polyline clip-path="url(#clip460)" style="stroke:#000000; stroke-linecap:round; stroke-linejoin:round; stroke-width:4; stroke-opacity:1; fill:none" points="112.177,721.658 131.075,721.658 "/>
<polyline clip-path="url(#clip460)" style="stroke:#000000; stroke-linecap:round; stroke-linejoin:round; stroke-width:4; stroke-opacity:1; fill:none" points="112.177,480.255 131.075,480.255 "/>
<polyline clip-path="url(#clip460)" style="stroke:#000000; stroke-linecap:round; stroke-linejoin:round; stroke-width:4; stroke-opacity:1; fill:none" points="112.177,238.853 131.075,238.853 "/>
<path clip-path="url(#clip460)" d="M64.2328 1431.66 Q60.6217 1431.66 58.793 1435.23 Q56.9875 1438.77 56.9875 1445.9 Q56.9875 1453.01 58.793 1456.57 Q60.6217 1460.11 64.2328 1460.11 Q67.867 1460.11 69.6726 1456.57 Q71.5013 1453.01 71.5013 1445.9 Q71.5013 1438.77 69.6726 1435.23 Q67.867 1431.66 64.2328 1431.66 M64.2328 1427.96 Q70.0429 1427.96 73.0985 1432.57 Q76.1772 1437.15 76.1772 1445.9 Q76.1772 1454.63 73.0985 1459.23 Q70.0429 1463.82 64.2328 1463.82 Q58.4226 1463.82 55.344 1459.23 Q52.2884 1454.63 52.2884 1445.9 Q52.2884 1437.15 55.344 1432.57 Q58.4226 1427.96 64.2328 1427.96 Z" fill="#000000" fill-rule="nonzero" fill-opacity="1" /><path clip-path="url(#clip460)" d="M56.2699 1217.81 L63.9087 1217.81 L63.9087 1191.44 L55.5986 1193.11 L55.5986 1188.85 L63.8624 1187.18 L68.5383 1187.18 L68.5383 1217.81 L76.1772 1217.81 L76.1772 1221.74 L56.2699 1221.74 L56.2699 1217.81 Z" fill="#000000" fill-rule="nonzero" fill-opacity="1" /><path clip-path="url(#clip460)" d="M59.8578 976.405 L76.1772 976.405 L76.1772 980.34 L54.2328 980.34 L54.2328 976.405 Q56.8949 973.651 61.4782 969.021 Q66.0846 964.368 67.2652 963.026 Q69.5105 960.502 70.3902 958.766 Q71.2929 957.007 71.2929 955.317 Q71.2929 952.563 69.3485 950.827 Q67.4272 949.091 64.3254 949.091 Q62.1263 949.091 59.6726 949.854 Q57.2421 950.618 54.4643 952.169 L54.4643 947.447 Q57.2884 946.313 59.7421 945.734 Q62.1958 945.155 64.2328 945.155 Q69.6031 945.155 72.7976 947.841 Q75.992 950.526 75.992 955.016 Q75.992 957.146 75.1818 959.067 Q74.3948 960.965 72.2883 963.558 Q71.7096 964.229 68.6078 967.447 Q65.5059 970.641 59.8578 976.405 Z" fill="#000000" fill-rule="nonzero" fill-opacity="1" /><path clip-path="url(#clip460)" d="M69.0476 720.304 Q72.404 721.021 74.279 723.29 Q76.1772 725.558 76.1772 728.892 Q76.1772 734.007 72.6587 736.808 Q69.1402 739.609 62.6587 739.609 Q60.4828 739.609 58.168 739.169 Q55.8764 738.753 53.4227 737.896 L53.4227 733.382 Q55.3671 734.517 57.6819 735.095 Q59.9967 735.674 62.5198 735.674 Q66.918 735.674 69.2096 733.938 Q71.5244 732.202 71.5244 728.892 Q71.5244 725.836 69.3717 724.123 Q67.242 722.387 63.4226 722.387 L59.3949 722.387 L59.3949 718.544 L63.6078 718.544 Q67.0569 718.544 68.8855 717.179 Q70.7142 715.79 70.7142 713.197 Q70.7142 710.535 68.8161 709.123 Q66.9411 707.688 63.4226 707.688 Q61.5013 707.688 59.3023 708.105 Q57.1032 708.521 54.4643 709.401 L54.4643 705.234 Q57.1264 704.494 59.4412 704.123 Q61.7791 703.753 63.8393 703.753 Q69.1633 703.753 72.2652 706.183 Q75.367 708.591 75.367 712.711 Q75.367 715.581 73.7235 717.572 Q72.08 719.54 69.0476 720.304 Z" fill="#000000" fill-rule="nonzero" fill-opacity="1" /><path clip-path="url(#clip460)" d="M66.5939 467.049 L54.7884 485.498 L66.5939 485.498 L66.5939 467.049 M65.367 462.975 L71.2466 462.975 L71.2466 485.498 L76.1772 485.498 L76.1772 489.387 L71.2466 489.387 L71.2466 497.535 L66.5939 497.535 L66.5939 489.387 L50.9921 489.387 L50.9921 484.873 L65.367 462.975 Z" fill="#000000" fill-rule="nonzero" fill-opacity="1" /><path clip-path="url(#clip460)" d="M55.2745 221.573 L73.6309 221.573 L73.6309 225.508 L59.5569 225.508 L59.5569 233.98 Q60.5754 233.633 61.5939 233.471 Q62.6124 233.286 63.6309 233.286 Q69.418 233.286 72.7976 236.457 Q76.1772 239.628 76.1772 245.045 Q76.1772 250.624 72.705 253.725 Q69.2328 256.804 62.9134 256.804 Q60.7374 256.804 58.4689 256.434 Q56.2236 256.063 53.8162 255.323 L53.8162 250.624 Q55.8995 251.758 58.1217 252.313 Q60.3439 252.869 62.8208 252.869 Q66.8254 252.869 69.1633 250.762 Q71.5013 248.656 71.5013 245.045 Q71.5013 241.434 69.1633 239.327 Q66.8254 237.221 62.8208 237.221 Q60.9458 237.221 59.0708 237.638 Q57.2189 238.054 55.2745 238.934 L55.2745 221.573 Z" fill="#000000" fill-rule="nonzero" fill-opacity="1" /><polyline clip-path="url(#clip462)" style="stroke:#000000; stroke-linecap:round; stroke-linejoin:round; stroke-width:4; stroke-opacity:1; fill:none" points="175.59,87.9763 209.141,304.809 242.693,496.699 276.245,665.413 309.796,812.656 343.348,940.076 376.9,1049.26 410.451,1141.74 444.003,1218.99 477.555,1282.42 511.106,1333.38 544.658,1373.17 578.209,1403.02 611.761,1424.11 645.313,1437.56 678.864,1444.43 712.416,1445.72 745.968,1442.36 779.519,1435.25 813.071,1425.2 846.623,1412.98 880.174,1399.3 913.726,1384.8 947.278,1370.08 980.829,1355.66 1014.38,1342.01 1047.93,1329.54 1081.48,1318.62 1115.04,1309.52 1148.59,1302.5 1182.14,1297.71 1215.69,1295.29 1249.24,1295.29 1282.79,1297.71 1316.35,1302.5 1349.9,1309.52 1383.45,1318.62 1417,1329.54 1450.55,1342.01 1484.1,1355.66 1517.66,1370.08 1551.21,1384.8 1584.76,1399.3 1618.31,1412.98 1651.86,1425.2 1685.41,1435.25 1718.97,1442.36 1752.52,1445.72 1786.07,1444.43 1819.62,1437.56 1853.17,1424.11 1886.72,1403.02 1920.28,1373.17 1953.83,1333.38 1987.38,1282.42 2020.93,1218.99 2054.48,1141.74 2088.03,1049.26 2121.59,940.076 2155.14,812.656 2188.69,665.413 2222.24,496.699 2255.79,304.809 2289.34,87.9763 "/>
<path clip-path="url(#clip460)" d="M1688.71 198.898 L2278.07 198.898 L2278.07 95.2176 L1688.71 95.2176  Z" fill="#ffffff" fill-rule="evenodd" fill-opacity="1"/>
<polyline clip-path="url(#clip460)" style="stroke:#000000; stroke-linecap:round; stroke-linejoin:round; stroke-width:4; stroke-opacity:1; fill:none" points="1688.71,198.898 2278.07,198.898 2278.07,95.2176 1688.71,95.2176 1688.71,198.898 "/>
<polyline clip-path="url(#clip460)" style="stroke:#000000; stroke-linecap:round; stroke-linejoin:round; stroke-width:4; stroke-opacity:1; fill:none" points="1713.61,147.058 1862.98,147.058 "/>
<path clip-path="url(#clip460)" d="M1910.12 130.912 L1910.12 135.472 Q1907.46 134.199 1905.1 133.574 Q1902.74 132.949 1900.54 132.949 Q1896.72 132.949 1894.63 134.43 Q1892.57 135.912 1892.57 138.643 Q1892.57 140.935 1893.94 142.115 Q1895.33 143.273 1899.17 143.99 L1902 144.569 Q1907.23 145.565 1909.7 148.088 Q1912.2 150.588 1912.2 154.801 Q1912.2 159.824 1908.82 162.416 Q1905.47 165.009 1898.96 165.009 Q1896.51 165.009 1893.73 164.453 Q1890.98 163.898 1888.01 162.81 L1888.01 157.995 Q1890.86 159.592 1893.59 160.402 Q1896.32 161.213 1898.96 161.213 Q1902.97 161.213 1905.14 159.639 Q1907.32 158.064 1907.32 155.148 Q1907.32 152.602 1905.75 151.166 Q1904.2 149.731 1900.63 149.014 L1897.78 148.458 Q1892.55 147.416 1890.21 145.194 Q1887.88 142.972 1887.88 139.014 Q1887.88 134.43 1891.09 131.791 Q1894.33 129.153 1900.01 129.153 Q1902.44 129.153 1904.96 129.592 Q1907.48 130.032 1910.12 130.912 Z" fill="#000000" fill-rule="nonzero" fill-opacity="1" /><path clip-path="url(#clip460)" d="M1937.97 139.407 L1937.97 143.389 Q1936.16 142.393 1934.33 141.907 Q1932.53 141.398 1930.68 141.398 Q1926.53 141.398 1924.24 144.037 Q1921.95 146.652 1921.95 151.398 Q1921.95 156.143 1924.24 158.782 Q1926.53 161.398 1930.68 161.398 Q1932.53 161.398 1934.33 160.912 Q1936.16 160.402 1937.97 159.407 L1937.97 163.342 Q1936.19 164.176 1934.26 164.592 Q1932.37 165.009 1930.21 165.009 Q1924.36 165.009 1920.91 161.328 Q1917.46 157.648 1917.46 151.398 Q1917.46 145.055 1920.93 141.421 Q1924.43 137.787 1930.49 137.787 Q1932.46 137.787 1934.33 138.203 Q1936.21 138.597 1937.97 139.407 Z" fill="#000000" fill-rule="nonzero" fill-opacity="1" /><path clip-path="url(#clip460)" d="M1957.16 151.305 Q1952 151.305 1950 152.486 Q1948.01 153.666 1948.01 156.514 Q1948.01 158.782 1949.5 160.125 Q1951 161.444 1953.57 161.444 Q1957.11 161.444 1959.24 158.944 Q1961.39 156.421 1961.39 152.254 L1961.39 151.305 L1957.16 151.305 M1965.65 149.546 L1965.65 164.338 L1961.39 164.338 L1961.39 160.402 Q1959.94 162.763 1957.76 163.898 Q1955.58 165.009 1952.44 165.009 Q1948.45 165.009 1946.09 162.787 Q1943.75 160.541 1943.75 156.791 Q1943.75 152.416 1946.67 150.194 Q1949.61 147.972 1955.42 147.972 L1961.39 147.972 L1961.39 147.555 Q1961.39 144.615 1959.45 143.018 Q1957.53 141.398 1954.03 141.398 Q1951.81 141.398 1949.7 141.93 Q1947.6 142.463 1945.65 143.527 L1945.65 139.592 Q1947.99 138.69 1950.19 138.25 Q1952.39 137.787 1954.47 137.787 Q1960.1 137.787 1962.88 140.703 Q1965.65 143.62 1965.65 149.546 Z" fill="#000000" fill-rule="nonzero" fill-opacity="1" /><path clip-path="url(#clip460)" d="M1974.43 128.319 L1978.69 128.319 L1978.69 164.338 L1974.43 164.338 L1974.43 128.319 Z" fill="#000000" fill-rule="nonzero" fill-opacity="1" /><path clip-path="url(#clip460)" d="M1999.38 151.305 Q1994.22 151.305 1992.23 152.486 Q1990.24 153.666 1990.24 156.514 Q1990.24 158.782 1991.72 160.125 Q1993.22 161.444 1995.79 161.444 Q1999.33 161.444 2001.46 158.944 Q2003.62 156.421 2003.62 152.254 L2003.62 151.305 L1999.38 151.305 M2007.88 149.546 L2007.88 164.338 L2003.62 164.338 L2003.62 160.402 Q2002.16 162.763 1999.98 163.898 Q1997.81 165.009 1994.66 165.009 Q1990.68 165.009 1988.31 162.787 Q1985.98 160.541 1985.98 156.791 Q1985.98 152.416 1988.89 150.194 Q1991.83 147.972 1997.64 147.972 L2003.62 147.972 L2003.62 147.555 Q2003.62 144.615 2001.67 143.018 Q1999.75 141.398 1996.25 141.398 Q1994.03 141.398 1991.93 141.93 Q1989.82 142.463 1987.88 143.527 L1987.88 139.592 Q1990.21 138.69 1992.41 138.25 Q1994.61 137.787 1996.69 137.787 Q2002.32 137.787 2005.1 140.703 Q2007.88 143.62 2007.88 149.546 Z" fill="#000000" fill-rule="nonzero" fill-opacity="1" /><path clip-path="url(#clip460)" d="M2031.67 142.393 Q2030.95 141.977 2030.1 141.791 Q2029.26 141.583 2028.25 141.583 Q2024.63 141.583 2022.69 143.944 Q2020.77 146.282 2020.77 150.68 L2020.77 164.338 L2016.49 164.338 L2016.49 138.412 L2020.77 138.412 L2020.77 142.44 Q2022.11 140.078 2024.26 138.944 Q2026.42 137.787 2029.5 137.787 Q2029.94 137.787 2030.47 137.856 Q2031 137.903 2031.65 138.018 L2031.67 142.393 Z" fill="#000000" fill-rule="nonzero" fill-opacity="1" /><path clip-path="url(#clip460)" d="M2055.33 160.449 L2055.33 174.199 L2051.05 174.199 L2051.05 138.412 L2055.33 138.412 L2055.33 142.347 Q2056.67 140.032 2058.71 138.921 Q2060.77 137.787 2063.62 137.787 Q2068.34 137.787 2071.28 141.537 Q2074.24 145.287 2074.24 151.398 Q2074.24 157.509 2071.28 161.259 Q2068.34 165.009 2063.62 165.009 Q2060.77 165.009 2058.71 163.898 Q2056.67 162.763 2055.33 160.449 M2069.82 151.398 Q2069.82 146.699 2067.87 144.037 Q2065.95 141.352 2062.57 141.352 Q2059.19 141.352 2057.25 144.037 Q2055.33 146.699 2055.33 151.398 Q2055.33 156.097 2057.25 158.782 Q2059.19 161.444 2062.57 161.444 Q2065.95 161.444 2067.87 158.782 Q2069.82 156.097 2069.82 151.398 Z" fill="#000000" fill-rule="nonzero" fill-opacity="1" /><path clip-path="url(#clip460)" d="M2091.35 141.398 Q2087.92 141.398 2085.93 144.083 Q2083.94 146.745 2083.94 151.398 Q2083.94 156.051 2085.91 158.736 Q2087.9 161.398 2091.35 161.398 Q2094.75 161.398 2096.74 158.713 Q2098.73 156.027 2098.73 151.398 Q2098.73 146.791 2096.74 144.106 Q2094.75 141.398 2091.35 141.398 M2091.35 137.787 Q2096.9 137.787 2100.07 141.398 Q2103.24 145.009 2103.24 151.398 Q2103.24 157.764 2100.07 161.398 Q2096.9 165.009 2091.35 165.009 Q2085.77 165.009 2082.6 161.398 Q2079.45 157.764 2079.45 151.398 Q2079.45 145.009 2082.6 141.398 Q2085.77 137.787 2091.35 137.787 Z" fill="#000000" fill-rule="nonzero" fill-opacity="1" /><path clip-path="url(#clip460)" d="M2114.52 131.051 L2114.52 138.412 L2123.29 138.412 L2123.29 141.722 L2114.52 141.722 L2114.52 155.796 Q2114.52 158.967 2115.37 159.87 Q2116.25 160.773 2118.92 160.773 L2123.29 160.773 L2123.29 164.338 L2118.92 164.338 Q2113.99 164.338 2112.11 162.509 Q2110.24 160.657 2110.24 155.796 L2110.24 141.722 L2107.11 141.722 L2107.11 138.412 L2110.24 138.412 L2110.24 131.051 L2114.52 131.051 Z" fill="#000000" fill-rule="nonzero" fill-opacity="1" /><path clip-path="url(#clip460)" d="M2151.07 150.31 L2151.07 152.393 L2131.49 152.393 Q2131.76 156.791 2134.12 159.106 Q2136.51 161.398 2140.74 161.398 Q2143.2 161.398 2145.49 160.796 Q2147.8 160.194 2150.07 158.99 L2150.07 163.018 Q2147.78 163.99 2145.37 164.5 Q2142.97 165.009 2140.49 165.009 Q2134.29 165.009 2130.65 161.398 Q2127.04 157.787 2127.04 151.629 Q2127.04 145.264 2130.47 141.537 Q2133.92 137.787 2139.75 137.787 Q2144.98 137.787 2148.01 141.166 Q2151.07 144.523 2151.07 150.31 M2146.81 149.06 Q2146.76 145.565 2144.84 143.481 Q2142.94 141.398 2139.8 141.398 Q2136.23 141.398 2134.08 143.412 Q2131.95 145.426 2131.62 149.083 L2146.81 149.06 Z" fill="#000000" fill-rule="nonzero" fill-opacity="1" /><path clip-path="url(#clip460)" d="M2179.61 148.689 L2179.61 164.338 L2175.35 164.338 L2175.35 148.828 Q2175.35 145.148 2173.92 143.319 Q2172.48 141.49 2169.61 141.49 Q2166.16 141.49 2164.17 143.69 Q2162.18 145.889 2162.18 149.685 L2162.18 164.338 L2157.9 164.338 L2157.9 138.412 L2162.18 138.412 L2162.18 142.44 Q2163.71 140.102 2165.77 138.944 Q2167.85 137.787 2170.56 137.787 Q2175.03 137.787 2177.32 140.565 Q2179.61 143.319 2179.61 148.689 Z" fill="#000000" fill-rule="nonzero" fill-opacity="1" /><path clip-path="url(#clip460)" d="M2192.32 131.051 L2192.32 138.412 L2201.09 138.412 L2201.09 141.722 L2192.32 141.722 L2192.32 155.796 Q2192.32 158.967 2193.17 159.87 Q2194.05 160.773 2196.72 160.773 L2201.09 160.773 L2201.09 164.338 L2196.72 164.338 Q2191.79 164.338 2189.91 162.509 Q2188.04 160.657 2188.04 155.796 L2188.04 141.722 L2184.91 141.722 L2184.91 138.412 L2188.04 138.412 L2188.04 131.051 L2192.32 131.051 Z" fill="#000000" fill-rule="nonzero" fill-opacity="1" /><path clip-path="url(#clip460)" d="M2206.69 138.412 L2210.95 138.412 L2210.95 164.338 L2206.69 164.338 L2206.69 138.412 M2206.69 128.319 L2210.95 128.319 L2210.95 133.713 L2206.69 133.713 L2206.69 128.319 Z" fill="#000000" fill-rule="nonzero" fill-opacity="1" /><path clip-path="url(#clip460)" d="M2231.65 151.305 Q2226.48 151.305 2224.49 152.486 Q2222.5 153.666 2222.5 156.514 Q2222.5 158.782 2223.98 160.125 Q2225.49 161.444 2228.06 161.444 Q2231.6 161.444 2233.73 158.944 Q2235.88 156.421 2235.88 152.254 L2235.88 151.305 L2231.65 151.305 M2240.14 149.546 L2240.14 164.338 L2235.88 164.338 L2235.88 160.402 Q2234.42 162.763 2232.25 163.898 Q2230.07 165.009 2226.92 165.009 Q2222.94 165.009 2220.58 162.787 Q2218.24 160.541 2218.24 156.791 Q2218.24 152.416 2221.16 150.194 Q2224.1 147.972 2229.91 147.972 L2235.88 147.972 L2235.88 147.555 Q2235.88 144.615 2233.94 143.018 Q2232.02 141.398 2228.52 141.398 Q2226.3 141.398 2224.19 141.93 Q2222.09 142.463 2220.14 143.527 L2220.14 139.592 Q2222.48 138.69 2224.68 138.25 Q2226.88 137.787 2228.96 137.787 Q2234.59 137.787 2237.36 140.703 Q2240.14 143.62 2240.14 149.546 Z" fill="#000000" fill-rule="nonzero" fill-opacity="1" /><path clip-path="url(#clip460)" d="M2248.92 128.319 L2253.17 128.319 L2253.17 164.338 L2248.92 164.338 L2248.92 128.319 Z" fill="#000000" fill-rule="nonzero" fill-opacity="1" /></svg>
