<?xml version="1.0" encoding="utf-8"?>
<svg xmlns="http://www.w3.org/2000/svg" xmlns:xlink="http://www.w3.org/1999/xlink" width="600" height="400" viewBox="0 0 2400 1600">
<defs>
  <clipPath id="clip580">
    <rect x="0" y="0" width="2400" height="1600"/>
  </clipPath>
</defs>
<path clip-path="url(#clip580)" d="M0 1600 L2400 1600 L2400 0 L0 0  Z" fill="#ffffff" fill-rule="evenodd" fill-opacity="1"/>
<defs>
  <clipPath id="clip581">
    <rect x="480" y="0" width="1681" height="1600"/>
  </clipPath>
</defs>
<path clip-path="url(#clip580)" d="M186.76 1486.45 L2352.76 1486.45 L2352.76 123.472 L186.76 123.472  Z" fill="#ffffff" fill-rule="evenodd" fill-opacity="1"/>
<defs>
  <clipPath id="clip582">
    <rect x="186" y="123" width="2167" height="1364"/>
  </clipPath>
</defs>
<polyline clip-path="url(#clip582)" style="stroke:#000000; stroke-linecap:round; stroke-linejoin:round; stroke-width:2; stroke-opacity:0.1; fill:none" points="248.062,1486.45 248.062,123.472 "/>
<polyline clip-path="url(#clip582)" style="stroke:#000000; stroke-linecap:round; stroke-linejoin:round; stroke-width:2; stroke-opacity:0.1; fill:none" points="758.91,1486.45 758.91,123.472 "/>
<polyline clip-path="url(#clip582)" style="stroke:#000000; stroke-linecap:round; stroke-linejoin:round; stroke-width:2; stroke-opacity:0.1; fill:none" points="1269.76,1486.45 1269.76,123.472 "/>
<polyline clip-path="url(#clip582)" style="stroke:#000000; stroke-linecap:round; stroke-linejoin:round; stroke-width:2; stroke-opacity:0.1; fill:none" points="1780.61,1486.45 1780.61,123.472 "/>
<polyline clip-path="url(#clip582)" style="stroke:#000000; stroke-linecap:round; stroke-linejoin:round; stroke-width:2; stroke-opacity:0.1; fill:none" points="2291.45,1486.45 2291.45,123.472 "/>
<polyline clip-path="url(#clip582)" style="stroke:#000000; stroke-linecap:round; stroke-linejoin:round; stroke-width:2; stroke-opacity:0.1; fill:none" points="186.76,1447.87 2352.76,1447.87 "/>
<polyline clip-path="url(#clip582)" style="stroke:#000000; stroke-linecap:round; stroke-linejoin:round; stroke-width:2; stroke-opacity:0.1; fill:none" points="186.76,1242.14 2352.76,1242.14 "/>
<polyline clip-path="url(#clip582)" style="stroke:#000000; stroke-linecap:round; stroke-linejoin:round; stroke-width:2; stroke-opacity:0.1; fill:none" points="186.76,1036.41 2352.76,1036.41 "/>
<polyline clip-path="url(#clip582)" style="stroke:#000000; stroke-linecap:round; stroke-linejoin:round; stroke-width:2; stroke-opacity:0.1; fill:none" points="186.76,830.677 2352.76,830.677 "/>
<polyline clip-path="url(#clip582)" style="stroke:#000000; stroke-linecap:round; stroke-linejoin:round; stroke-width:2; stroke-opacity:0.1; fill:none" points="186.76,624.944 2352.76,624.944 "/>
<polyline clip-path="url(#clip582)" style="stroke:#000000; stroke-linecap:round; stroke-linejoin:round; stroke-width:2; stroke-opacity:0.1; fill:none" points="186.76,419.212 2352.76,419.212 "/>
<polyline clip-path="url(#clip582)" style="stroke:#000000; stroke-linecap:round; stroke-linejoin:round; stroke-width:2; stroke-opacity:0.1; fill:none" points="186.76,213.48 2352.76,213.48 "/>
<polyline clip-path="url(#clip580)" style="stroke:#000000; stroke-linecap:round; stroke-linejoin:round; stroke-width:4; stroke-opacity:1; fill:none" points="186.76,1486.45 2352.76,1486.45 "/>
<polyline clip-path="url(#clip580)" style="stroke:#000000; stroke-linecap:round; stroke-linejoin:round; stroke-width:4; stroke-opacity:1; fill:none" points="248.062,1486.45 248.062,1467.55 "/>
<polyline clip-path="url(#clip580)" style="stroke:#000000; stroke-linecap:round; stroke-linejoin:round; stroke-width:4; stroke-opacity:1; fill:none" points="758.91,1486.45 758.91,1467.55 "/>
<polyline clip-path="url(#clip580)" style="stroke:#000000; stroke-linecap:round; stroke-linejoin:round; stroke-width:4; stroke-opacity:1; fill:none" points="1269.76,1486.45 1269.76,1467.55 "/>
<polyline clip-path="url(#clip580)" style="stroke:#000000; stroke-linecap:round; stroke-linejoin:round; stroke-width:4; stroke-opacity:1; fill:none" points="1780.61,1486.45 1780.61,1467.55 "/>
<polyline clip-path="url(#clip580)" style="stroke:#000000; stroke-linecap:round; stroke-linejoin:round; stroke-width:4; stroke-opacity:1; fill:none" points="2291.45,1486.45 2291.45,1467.55 "/>
<path clip-path="url(#clip580)" d="M194.59 1532.02 L224.266 1532.02 L224.266 1535.95 L194.59 1535.95 L194.59 1532.02 Z" fill="#000000" fill-rule="nonzero" fill-opacity="1" /><path clip-path="url(#clip580)" d="M235.168 1544.91 L242.807 1544.91 L242.807 1518.55 L234.497 1520.21 L234.497 1515.95 L242.761 1514.29 L247.437 1514.29 L247.437 1544.91 L255.076 1544.91 L255.076 1548.85 L235.168 1548.85 L235.168 1544.91 Z" fill="#000000" fill-rule="nonzero" fill-opacity="1" /><path clip-path="url(#clip580)" d="M264.52 1542.97 L269.404 1542.97 L269.404 1548.85 L264.52 1548.85 L264.52 1542.97 Z" fill="#000000" fill-rule="nonzero" fill-opacity="1" /><path clip-path="url(#clip580)" d="M289.589 1517.37 Q285.978 1517.37 284.15 1520.93 Q282.344 1524.47 282.344 1531.6 Q282.344 1538.71 284.15 1542.27 Q285.978 1545.82 289.589 1545.82 Q293.224 1545.82 295.029 1542.27 Q296.858 1538.71 296.858 1531.6 Q296.858 1524.47 295.029 1520.93 Q293.224 1517.37 289.589 1517.37 M289.589 1513.66 Q295.4 1513.66 298.455 1518.27 Q301.534 1522.85 301.534 1531.6 Q301.534 1540.33 298.455 1544.94 Q295.4 1549.52 289.589 1549.52 Q283.779 1549.52 280.701 1544.94 Q277.645 1540.33 277.645 1531.6 Q277.645 1522.85 280.701 1518.27 Q283.779 1513.66 289.589 1513.66 Z" fill="#000000" fill-rule="nonzero" fill-opacity="1" /><path clip-path="url(#clip580)" d="M705.936 1532.02 L735.611 1532.02 L735.611 1535.95 L705.936 1535.95 L705.936 1532.02 Z" fill="#000000" fill-rule="nonzero" fill-opacity="1" /><path clip-path="url(#clip580)" d="M755.704 1517.37 Q752.093 1517.37 750.264 1520.93 Q748.459 1524.47 748.459 1531.6 Q748.459 1538.71 750.264 1542.27 Q752.093 1545.82 755.704 1545.82 Q759.338 1545.82 761.144 1542.27 Q762.972 1538.71 762.972 1531.6 Q762.972 1524.47 761.144 1520.93 Q759.338 1517.37 755.704 1517.37 M755.704 1513.66 Q761.514 1513.66 764.57 1518.27 Q767.648 1522.85 767.648 1531.6 Q767.648 1540.33 764.57 1544.94 Q761.514 1549.52 755.704 1549.52 Q749.894 1549.52 746.815 1544.94 Q743.76 1540.33 743.76 1531.6 Q743.76 1522.85 746.815 1518.27 Q749.894 1513.66 755.704 1513.66 Z" fill="#000000" fill-rule="nonzero" fill-opacity="1" /><path clip-path="url(#clip580)" d="M775.866 1542.97 L780.75 1542.97 L780.75 1548.85 L775.866 1548.85 L775.866 1542.97 Z" fill="#000000" fill-rule="nonzero" fill-opacity="1" /><path clip-path="url(#clip580)" d="M790.982 1514.29 L809.338 1514.29 L809.338 1518.22 L795.264 1518.22 L795.264 1526.7 Q796.282 1526.35 797.301 1526.19 Q798.319 1526 799.338 1526 Q805.125 1526 808.505 1529.17 Q811.884 1532.34 811.884 1537.76 Q811.884 1543.34 808.412 1546.44 Q804.94 1549.52 798.62 1549.52 Q796.444 1549.52 794.176 1549.15 Q791.931 1548.78 789.523 1548.04 L789.523 1543.34 Q791.607 1544.47 793.829 1545.03 Q796.051 1545.58 798.528 1545.58 Q802.532 1545.58 804.87 1543.48 Q807.208 1541.37 807.208 1537.76 Q807.208 1534.15 804.87 1532.04 Q802.532 1529.94 798.528 1529.94 Q796.653 1529.94 794.778 1530.35 Q792.926 1530.77 790.982 1531.65 L790.982 1514.29 Z" fill="#000000" fill-rule="nonzero" fill-opacity="1" /><path clip-path="url(#clip580)" d="M1247.14 1517.37 Q1243.53 1517.37 1241.7 1520.93 Q1239.9 1524.47 1239.9 1531.6 Q1239.9 1538.71 1241.7 1542.27 Q1243.53 1545.82 1247.14 1545.82 Q1250.78 1545.82 1252.58 1542.27 Q1254.41 1538.71 1254.41 1531.6 Q1254.41 1524.47 1252.58 1520.93 Q1250.78 1517.37 1247.14 1517.37 M1247.14 1513.66 Q1252.95 1513.66 1256.01 1518.27 Q1259.09 1522.85 1259.09 1531.6 Q1259.09 1540.33 1256.01 1544.94 Q1252.95 1549.52 1247.14 1549.52 Q1241.33 1549.52 1238.25 1544.94 Q1235.2 1540.33 1235.2 1531.6 Q1235.2 1522.85 1238.25 1518.27 Q1241.33 1513.66 1247.14 1513.66 Z" fill="#000000" fill-rule="nonzero" fill-opacity="1" /><path clip-path="url(#clip580)" d="M1267.3 1542.97 L1272.19 1542.97 L1272.19 1548.85 L1267.3 1548.85 L1267.3 1542.97 Z" fill="#000000" fill-rule="nonzero" fill-opacity="1" /><path clip-path="url(#clip580)" d="M1292.37 1517.37 Q1288.76 1517.37 1286.93 1520.93 Q1285.13 1524.47 1285.13 1531.6 Q1285.13 1538.71 1286.93 1542.27 Q1288.76 1545.82 1292.37 1545.82 Q1296.01 1545.82 1297.81 1542.27 Q1299.64 1538.71 1299.64 1531.6 Q1299.64 1524.47 1297.81 1520.93 Q1296.01 1517.37 1292.37 1517.37 M1292.37 1513.66 Q1298.18 1513.66 1301.24 1518.27 Q1304.32 1522.85 1304.32 1531.6 Q1304.32 1540.33 1301.24 1544.94 Q1298.18 1549.52 1292.37 1549.52 Q1286.56 1549.52 1283.48 1544.94 Q1280.43 1540.33 1280.43 1531.6 Q1280.43 1522.85 1283.48 1518.27 Q1286.56 1513.66 1292.37 1513.66 Z" fill="#000000" fill-rule="nonzero" fill-opacity="1" /><path clip-path="url(#clip580)" d="M1758.49 1517.37 Q1754.88 1517.37 1753.05 1520.93 Q1751.24 1524.47 1751.24 1531.6 Q1751.24 1538.71 1753.05 1542.27 Q1754.88 1545.82 1758.49 1545.82 Q1762.12 1545.82 1763.93 1542.27 Q1765.76 1538.71 1765.76 1531.6 Q1765.76 1524.47 1763.93 1520.93 Q1762.12 1517.37 1758.49 1517.37 M1758.49 1513.66 Q1764.3 1513.66 1767.35 1518.27 Q1770.43 1522.85 1770.43 1531.6 Q1770.43 1540.33 1767.35 1544.94 Q1764.3 1549.52 1758.49 1549.52 Q1752.68 1549.52 1749.6 1544.94 Q1746.54 1540.33 1746.54 1531.6 Q1746.54 1522.85 1749.6 1518.27 Q1752.68 1513.66 1758.49 1513.66 Z" fill="#000000" fill-rule="nonzero" fill-opacity="1" /><path clip-path="url(#clip580)" d="M1778.65 1542.97 L1783.53 1542.97 L1783.53 1548.85 L1778.65 1548.85 L1778.65 1542.97 Z" fill="#000000" fill-rule="nonzero" fill-opacity="1" /><path clip-path="url(#clip580)" d="M1793.77 1514.29 L1812.12 1514.29 L1812.12 1518.22 L1798.05 1518.22 L1798.05 1526.7 Q1799.07 1526.35 1800.09 1526.19 Q1801.1 1526 1802.12 1526 Q1807.91 1526 1811.29 1529.17 Q1814.67 1532.34 1814.67 1537.76 Q1814.67 1543.34 1811.2 1546.44 Q1807.72 1549.52 1801.4 1549.52 Q1799.23 1549.52 1796.96 1549.15 Q1794.71 1548.78 1792.31 1548.04 L1792.31 1543.34 Q1794.39 1544.47 1796.61 1545.03 Q1798.84 1545.58 1801.31 1545.58 Q1805.32 1545.58 1807.65 1543.48 Q1809.99 1541.37 1809.99 1537.76 Q1809.99 1534.15 1807.65 1532.04 Q1805.32 1529.94 1801.31 1529.94 Q1799.44 1529.94 1797.56 1530.35 Q1795.71 1530.77 1793.77 1531.65 L1793.77 1514.29 Z" fill="#000000" fill-rule="nonzero" fill-opacity="1" /><path clip-path="url(#clip580)" d="M2258.61 1544.91 L2266.25 1544.91 L2266.25 1518.55 L2257.94 1520.21 L2257.94 1515.95 L2266.2 1514.29 L2270.88 1514.29 L2270.88 1544.91 L2278.51 1544.91 L2278.51 1548.85 L2258.61 1548.85 L2258.61 1544.91 Z" fill="#000000" fill-rule="nonzero" fill-opacity="1" /><path clip-path="url(#clip580)" d="M2287.96 1542.97 L2292.84 1542.97 L2292.84 1548.85 L2287.96 1548.85 L2287.96 1542.97 Z" fill="#000000" fill-rule="nonzero" fill-opacity="1" /><path clip-path="url(#clip580)" d="M2313.03 1517.37 Q2309.42 1517.37 2307.59 1520.93 Q2305.78 1524.47 2305.78 1531.6 Q2305.78 1538.71 2307.59 1542.27 Q2309.42 1545.82 2313.03 1545.82 Q2316.66 1545.82 2318.47 1542.27 Q2320.3 1538.71 2320.3 1531.6 Q2320.3 1524.47 2318.47 1520.93 Q2316.66 1517.37 2313.03 1517.37 M2313.03 1513.66 Q2318.84 1513.66 2321.89 1518.27 Q2324.97 1522.85 2324.97 1531.6 Q2324.97 1540.33 2321.89 1544.94 Q2318.84 1549.52 2313.03 1549.52 Q2307.22 1549.52 2304.14 1544.94 Q2301.08 1540.33 2301.08 1531.6 Q2301.08 1522.85 2304.14 1518.27 Q2307.22 1513.66 2313.03 1513.66 Z" fill="#000000" fill-rule="nonzero" fill-opacity="1" /><polyline clip-path="url(#clip580)" style="stroke:#000000; stroke-linecap:round; stroke-linejoin:round; stroke-width:4; stroke-opacity:1; fill:none" points="186.76,1486.45 186.76,123.472 "/>
<polyline clip-path="url(#clip580)" style="stroke:#000000; stroke-linecap:round; stroke-linejoin:round; stroke-width:4; stroke-opacity:1; fill:none" points="186.76,1447.87 205.658,1447.87 "/>
<polyline clip-path="url(#clip580)" style="stroke:#000000; stroke-linecap:round; stroke-linejoin:round; stroke-width:4; stroke-opacity:1; fill:none" points="186.76,1242.14 205.658,1242.14 "/>
<polyline clip-path="url(#clip580)" style="stroke:#000000; stroke-linecap:round; stroke-linejoin:round; stroke-width:4; stroke-opacity:1; fill:none" points="186.76,1036.41 205.658,1036.41 "/>
<polyline clip-path="url(#clip580)" style="stroke:#000000; stroke-linecap:round; stroke-linejoin:round; stroke-width:4; stroke-opacity:1; fill:none" points="186.76,830.677 205.658,830.677 "/>
<polyline clip-path="url(#clip580)" style="stroke:#000000; stroke-linecap:round; stroke-linejoin:round; stroke-width:4; stroke-opacity:1; fill:none" points="186.76,624.944 205.658,624.944 "/>
<polyline clip-path="url(#clip580)" style="stroke:#000000; stroke-linecap:round; stroke-linejoin:round; stroke-width:4; stroke-opacity:1; fill:none" points="186.76,419.212 205.658,419.212 "/>
<polyline clip-path="url(#clip580)" style="stroke:#000000; stroke-linecap:round; stroke-linejoin:round; stroke-width:4; stroke-opacity:1; fill:none" points="186.76,213.48 205.658,213.48 "/>
<path clip-path="url(#clip580)" d="M63.4226 1433.67 Q59.8115 1433.67 57.9828 1437.24 Q56.1773 1440.78 56.1773 1447.91 Q56.1773 1455.01 57.9828 1458.58 Q59.8115 1462.12 63.4226 1462.12 Q67.0569 1462.12 68.8624 1458.58 Q70.6911 1455.01 70.6911 1447.91 Q70.6911 1440.78 68.8624 1437.24 Q67.0569 1433.67 63.4226 1433.67 M63.4226 1429.97 Q69.2328 1429.97 72.2883 1434.57 Q75.367 1439.16 75.367 1447.91 Q75.367 1456.63 72.2883 1461.24 Q69.2328 1465.82 63.4226 1465.82 Q57.6125 1465.82 54.5338 1461.24 Q51.4782 1456.63 51.4782 1447.91 Q51.4782 1439.16 54.5338 1434.57 Q57.6125 1429.97 63.4226 1429.97 Z" fill="#000000" fill-rule="nonzero" fill-opacity="1" /><path clip-path="url(#clip580)" d="M83.5845 1459.27 L88.4688 1459.27 L88.4688 1465.15 L83.5845 1465.15 L83.5845 1459.27 Z" fill="#000000" fill-rule="nonzero" fill-opacity="1" /><path clip-path="url(#clip580)" d="M108.654 1433.67 Q105.043 1433.67 103.214 1437.24 Q101.409 1440.78 101.409 1447.91 Q101.409 1455.01 103.214 1458.58 Q105.043 1462.12 108.654 1462.12 Q112.288 1462.12 114.094 1458.58 Q115.922 1455.01 115.922 1447.91 Q115.922 1440.78 114.094 1437.24 Q112.288 1433.67 108.654 1433.67 M108.654 1429.97 Q114.464 1429.97 117.52 1434.57 Q120.598 1439.16 120.598 1447.91 Q120.598 1456.63 117.52 1461.24 Q114.464 1465.82 108.654 1465.82 Q102.844 1465.82 99.765 1461.24 Q96.7095 1456.63 96.7095 1447.91 Q96.7095 1439.16 99.765 1434.57 Q102.844 1429.97 108.654 1429.97 Z" fill="#000000" fill-rule="nonzero" fill-opacity="1" /><path clip-path="url(#clip580)" d="M138.816 1433.67 Q135.205 1433.67 133.376 1437.24 Q131.57 1440.78 131.57 1447.91 Q131.57 1455.01 133.376 1458.58 Q135.205 1462.12 138.816 1462.12 Q142.45 1462.12 144.256 1458.58 Q146.084 1455.01 146.084 1447.91 Q146.084 1440.78 144.256 1437.24 Q142.45 1433.67 138.816 1433.67 M138.816 1429.97 Q144.626 1429.97 147.681 1434.57 Q150.76 1439.16 150.76 1447.91 Q150.76 1456.63 147.681 1461.24 Q144.626 1465.82 138.816 1465.82 Q133.006 1465.82 129.927 1461.24 Q126.871 1456.63 126.871 1447.91 Q126.871 1439.16 129.927 1434.57 Q133.006 1429.97 138.816 1429.97 Z" fill="#000000" fill-rule="nonzero" fill-opacity="1" /><path clip-path="url(#clip580)" d="M64.6495 1227.94 Q61.0384 1227.94 59.2097 1231.5 Q57.4041 1235.05 57.4041 1242.18 Q57.4041 1249.28 59.2097 1252.85 Q61.0384 1256.39 64.6495 1256.39 Q68.2837 1256.39 70.0892 1252.85 Q71.9179 1249.28 71.9179 1242.18 Q71.9179 1235.05 70.0892 1231.5 Q68.2837 1227.94 64.6495 1227.94 M64.6495 1224.24 Q70.4596 1224.24 73.5152 1228.84 Q76.5938 1233.43 76.5938 1242.18 Q76.5938 1250.9 73.5152 1255.51 Q70.4596 1260.09 64.6495 1260.09 Q58.8393 1260.09 55.7606 1255.51 Q52.7051 1250.9 52.7051 1242.18 Q52.7051 1233.43 55.7606 1228.84 Q58.8393 1224.24 64.6495 1224.24 Z" fill="#000000" fill-rule="nonzero" fill-opacity="1" /><path clip-path="url(#clip580)" d="M84.8114 1253.54 L89.6956 1253.54 L89.6956 1259.42 L84.8114 1259.42 L84.8114 1253.54 Z" fill="#000000" fill-rule="nonzero" fill-opacity="1" /><path clip-path="url(#clip580)" d="M109.881 1227.94 Q106.27 1227.94 104.441 1231.5 Q102.635 1235.05 102.635 1242.18 Q102.635 1249.28 104.441 1252.85 Q106.27 1256.39 109.881 1256.39 Q113.515 1256.39 115.32 1252.85 Q117.149 1249.28 117.149 1242.18 Q117.149 1235.05 115.32 1231.5 Q113.515 1227.94 109.881 1227.94 M109.881 1224.24 Q115.691 1224.24 118.746 1228.84 Q121.825 1233.43 121.825 1242.18 Q121.825 1250.9 118.746 1255.51 Q115.691 1260.09 109.881 1260.09 Q104.071 1260.09 100.992 1255.51 Q97.9363 1250.9 97.9363 1242.18 Q97.9363 1233.43 100.992 1228.84 Q104.071 1224.24 109.881 1224.24 Z" fill="#000000" fill-rule="nonzero" fill-opacity="1" /><path clip-path="url(#clip580)" d="M130.853 1255.49 L138.492 1255.49 L138.492 1229.12 L130.182 1230.79 L130.182 1226.53 L138.445 1224.86 L143.121 1224.86 L143.121 1255.49 L150.76 1255.49 L150.76 1259.42 L130.853 1259.42 L130.853 1255.49 Z" fill="#000000" fill-rule="nonzero" fill-opacity="1" /><path clip-path="url(#clip580)" d="M65.0198 1022.21 Q61.4087 1022.21 59.58 1025.77 Q57.7745 1029.31 57.7745 1036.44 Q57.7745 1043.55 59.58 1047.11 Q61.4087 1050.66 65.0198 1050.66 Q68.6541 1050.66 70.4596 1047.11 Q72.2883 1043.55 72.2883 1036.44 Q72.2883 1029.31 70.4596 1025.77 Q68.6541 1022.21 65.0198 1022.21 M65.0198 1018.5 Q70.83 1018.5 73.8855 1023.11 Q76.9642 1027.69 76.9642 1036.44 Q76.9642 1045.17 73.8855 1049.78 Q70.83 1054.36 65.0198 1054.36 Q59.2097 1054.36 56.131 1049.78 Q53.0754 1045.17 53.0754 1036.44 Q53.0754 1027.69 56.131 1023.11 Q59.2097 1018.5 65.0198 1018.5 Z" fill="#000000" fill-rule="nonzero" fill-opacity="1" /><path clip-path="url(#clip580)" d="M85.1818 1047.81 L90.066 1047.81 L90.066 1053.69 L85.1818 1053.69 L85.1818 1047.81 Z" fill="#000000" fill-rule="nonzero" fill-opacity="1" /><path clip-path="url(#clip580)" d="M110.251 1022.21 Q106.64 1022.21 104.811 1025.77 Q103.006 1029.31 103.006 1036.44 Q103.006 1043.55 104.811 1047.11 Q106.64 1050.66 110.251 1050.66 Q113.885 1050.66 115.691 1047.11 Q117.52 1043.55 117.52 1036.44 Q117.52 1029.31 115.691 1025.77 Q113.885 1022.21 110.251 1022.21 M110.251 1018.5 Q116.061 1018.5 119.117 1023.11 Q122.195 1027.69 122.195 1036.44 Q122.195 1045.17 119.117 1049.78 Q116.061 1054.36 110.251 1054.36 Q104.441 1054.36 101.362 1049.78 Q98.3067 1045.17 98.3067 1036.44 Q98.3067 1027.69 101.362 1023.11 Q104.441 1018.5 110.251 1018.5 Z" fill="#000000" fill-rule="nonzero" fill-opacity="1" /><path clip-path="url(#clip580)" d="M134.441 1049.75 L150.76 1049.75 L150.76 1053.69 L128.816 1053.69 L128.816 1049.75 Q131.478 1047 136.061 1042.37 Q140.668 1037.72 141.848 1036.37 Q144.093 1033.85 144.973 1032.11 Q145.876 1030.36 145.876 1028.67 Q145.876 1025.91 143.931 1024.17 Q142.01 1022.44 138.908 1022.44 Q136.709 1022.44 134.256 1023.2 Q131.825 1023.97 129.047 1025.52 L129.047 1020.8 Q131.871 1019.66 134.325 1019.08 Q136.779 1018.5 138.816 1018.5 Q144.186 1018.5 147.38 1021.19 Q150.575 1023.87 150.575 1028.36 Q150.575 1030.49 149.765 1032.42 Q148.978 1034.31 146.871 1036.91 Q146.293 1037.58 143.191 1040.8 Q140.089 1043.99 134.441 1049.75 Z" fill="#000000" fill-rule="nonzero" fill-opacity="1" /><path clip-path="url(#clip580)" d="M64.0708 816.475 Q60.4597 816.475 58.631 820.04 Q56.8254 823.582 56.8254 830.711 Q56.8254 837.818 58.631 841.382 Q60.4597 844.924 64.0708 844.924 Q67.705 844.924 69.5105 841.382 Q71.3392 837.818 71.3392 830.711 Q71.3392 823.582 69.5105 820.04 Q67.705 816.475 64.0708 816.475 M64.0708 812.772 Q69.8809 812.772 72.9365 817.378 Q76.0151 821.961 76.0151 830.711 Q76.0151 839.438 72.9365 844.045 Q69.8809 848.628 64.0708 848.628 Q58.2606 848.628 55.1819 844.045 Q52.1264 839.438 52.1264 830.711 Q52.1264 821.961 55.1819 817.378 Q58.2606 812.772 64.0708 812.772 Z" fill="#000000" fill-rule="nonzero" fill-opacity="1" /><path clip-path="url(#clip580)" d="M84.2327 842.077 L89.1169 842.077 L89.1169 847.957 L84.2327 847.957 L84.2327 842.077 Z" fill="#000000" fill-rule="nonzero" fill-opacity="1" /><path clip-path="url(#clip580)" d="M109.302 816.475 Q105.691 816.475 103.862 820.04 Q102.057 823.582 102.057 830.711 Q102.057 837.818 103.862 841.382 Q105.691 844.924 109.302 844.924 Q112.936 844.924 114.742 841.382 Q116.57 837.818 116.57 830.711 Q116.57 823.582 114.742 820.04 Q112.936 816.475 109.302 816.475 M109.302 812.772 Q115.112 812.772 118.168 817.378 Q121.246 821.961 121.246 830.711 Q121.246 839.438 118.168 844.045 Q115.112 848.628 109.302 848.628 Q103.492 848.628 100.413 844.045 Q97.3576 839.438 97.3576 830.711 Q97.3576 821.961 100.413 817.378 Q103.492 812.772 109.302 812.772 Z" fill="#000000" fill-rule="nonzero" fill-opacity="1" /><path clip-path="url(#clip580)" d="M143.631 829.322 Q146.987 830.04 148.862 832.308 Q150.76 834.577 150.76 837.91 Q150.76 843.026 147.242 845.827 Q143.723 848.628 137.242 848.628 Q135.066 848.628 132.751 848.188 Q130.459 847.771 128.006 846.915 L128.006 842.401 Q129.95 843.535 132.265 844.114 Q134.58 844.693 137.103 844.693 Q141.501 844.693 143.793 842.957 Q146.107 841.22 146.107 837.91 Q146.107 834.855 143.955 833.142 Q141.825 831.406 138.006 831.406 L133.978 831.406 L133.978 827.563 L138.191 827.563 Q141.64 827.563 143.468 826.197 Q145.297 824.808 145.297 822.216 Q145.297 819.554 143.399 818.142 Q141.524 816.707 138.006 816.707 Q136.084 816.707 133.885 817.123 Q131.686 817.54 129.047 818.42 L129.047 814.253 Q131.709 813.512 134.024 813.142 Q136.362 812.772 138.422 812.772 Q143.746 812.772 146.848 815.202 Q149.95 817.609 149.95 821.73 Q149.95 824.6 148.306 826.591 Q146.663 828.558 143.631 829.322 Z" fill="#000000" fill-rule="nonzero" fill-opacity="1" /><path clip-path="url(#clip580)" d="M62.9365 610.743 Q59.3254 610.743 57.4967 614.308 Q55.6912 617.849 55.6912 624.979 Q55.6912 632.086 57.4967 635.65 Q59.3254 639.192 62.9365 639.192 Q66.5707 639.192 68.3763 635.65 Q70.205 632.086 70.205 624.979 Q70.205 617.849 68.3763 614.308 Q66.5707 610.743 62.9365 610.743 M62.9365 607.039 Q68.7467 607.039 71.8022 611.646 Q74.8809 616.229 74.8809 624.979 Q74.8809 633.706 71.8022 638.312 Q68.7467 642.896 62.9365 642.896 Q57.1264 642.896 54.0477 638.312 Q50.9921 633.706 50.9921 624.979 Q50.9921 616.229 54.0477 611.646 Q57.1264 607.039 62.9365 607.039 Z" fill="#000000" fill-rule="nonzero" fill-opacity="1" /><path clip-path="url(#clip580)" d="M83.0984 636.345 L87.9827 636.345 L87.9827 642.224 L83.0984 642.224 L83.0984 636.345 Z" fill="#000000" fill-rule="nonzero" fill-opacity="1" /><path clip-path="url(#clip580)" d="M108.168 610.743 Q104.557 610.743 102.728 614.308 Q100.922 617.849 100.922 624.979 Q100.922 632.086 102.728 635.65 Q104.557 639.192 108.168 639.192 Q111.802 639.192 113.608 635.65 Q115.436 632.086 115.436 624.979 Q115.436 617.849 113.608 614.308 Q111.802 610.743 108.168 610.743 M108.168 607.039 Q113.978 607.039 117.033 611.646 Q120.112 616.229 120.112 624.979 Q120.112 633.706 117.033 638.312 Q113.978 642.896 108.168 642.896 Q102.358 642.896 99.2789 638.312 Q96.2234 633.706 96.2234 624.979 Q96.2234 616.229 99.2789 611.646 Q102.358 607.039 108.168 607.039 Z" fill="#000000" fill-rule="nonzero" fill-opacity="1" /><path clip-path="url(#clip580)" d="M141.177 611.738 L129.371 630.187 L141.177 630.187 L141.177 611.738 M139.95 607.664 L145.83 607.664 L145.83 630.187 L150.76 630.187 L150.76 634.076 L145.83 634.076 L145.83 642.224 L141.177 642.224 L141.177 634.076 L125.575 634.076 L125.575 629.562 L139.95 607.664 Z" fill="#000000" fill-rule="nonzero" fill-opacity="1" /><path clip-path="url(#clip580)" d="M64.418 405.011 Q60.8069 405.011 58.9782 408.576 Q57.1726 412.117 57.1726 419.247 Q57.1726 426.353 58.9782 429.918 Q60.8069 433.46 64.418 433.46 Q68.0522 433.46 69.8578 429.918 Q71.6865 426.353 71.6865 419.247 Q71.6865 412.117 69.8578 408.576 Q68.0522 405.011 64.418 405.011 M64.418 401.307 Q70.2281 401.307 73.2837 405.914 Q76.3624 410.497 76.3624 419.247 Q76.3624 427.974 73.2837 432.58 Q70.2281 437.163 64.418 437.163 Q58.6078 437.163 55.5291 432.58 Q52.4736 427.974 52.4736 419.247 Q52.4736 410.497 55.5291 405.914 Q58.6078 401.307 64.418 401.307 Z" fill="#000000" fill-rule="nonzero" fill-opacity="1" /><path clip-path="url(#clip580)" d="M84.5799 430.613 L89.4641 430.613 L89.4641 436.492 L84.5799 436.492 L84.5799 430.613 Z" fill="#000000" fill-rule="nonzero" fill-opacity="1" /><path clip-path="url(#clip580)" d="M109.649 405.011 Q106.038 405.011 104.209 408.576 Q102.404 412.117 102.404 419.247 Q102.404 426.353 104.209 429.918 Q106.038 433.46 109.649 433.46 Q113.283 433.46 115.089 429.918 Q116.918 426.353 116.918 419.247 Q116.918 412.117 115.089 408.576 Q113.283 405.011 109.649 405.011 M109.649 401.307 Q115.459 401.307 118.515 405.914 Q121.594 410.497 121.594 419.247 Q121.594 427.974 118.515 432.58 Q115.459 437.163 109.649 437.163 Q103.839 437.163 100.76 432.58 Q97.7048 427.974 97.7048 419.247 Q97.7048 410.497 100.76 405.914 Q103.839 401.307 109.649 401.307 Z" fill="#000000" fill-rule="nonzero" fill-opacity="1" /><path clip-path="url(#clip580)" d="M129.857 401.932 L148.214 401.932 L148.214 405.867 L134.14 405.867 L134.14 414.339 Q135.158 413.992 136.177 413.83 Q137.195 413.645 138.214 413.645 Q144.001 413.645 147.38 416.816 Q150.76 419.988 150.76 425.404 Q150.76 430.983 147.288 434.085 Q143.816 437.163 137.496 437.163 Q135.32 437.163 133.052 436.793 Q130.807 436.423 128.399 435.682 L128.399 430.983 Q130.482 432.117 132.705 432.673 Q134.927 433.228 137.404 433.228 Q141.408 433.228 143.746 431.122 Q146.084 429.015 146.084 425.404 Q146.084 421.793 143.746 419.687 Q141.408 417.58 137.404 417.58 Q135.529 417.58 133.654 417.997 Q131.802 418.414 129.857 419.293 L129.857 401.932 Z" fill="#000000" fill-rule="nonzero" fill-opacity="1" /><path clip-path="url(#clip580)" d="M63.2606 199.279 Q59.6495 199.279 57.8208 202.843 Q56.0152 206.385 56.0152 213.515 Q56.0152 220.621 57.8208 224.186 Q59.6495 227.728 63.2606 227.728 Q66.8948 227.728 68.7004 224.186 Q70.5291 220.621 70.5291 213.515 Q70.5291 206.385 68.7004 202.843 Q66.8948 199.279 63.2606 199.279 M63.2606 195.575 Q69.0707 195.575 72.1263 200.181 Q75.205 204.765 75.205 213.515 Q75.205 222.241 72.1263 226.848 Q69.0707 231.431 63.2606 231.431 Q57.4504 231.431 54.3717 226.848 Q51.3162 222.241 51.3162 213.515 Q51.3162 204.765 54.3717 200.181 Q57.4504 195.575 63.2606 195.575 Z" fill="#000000" fill-rule="nonzero" fill-opacity="1" /><path clip-path="url(#clip580)" d="M83.4225 224.88 L88.3067 224.88 L88.3067 230.76 L83.4225 230.76 L83.4225 224.88 Z" fill="#000000" fill-rule="nonzero" fill-opacity="1" /><path clip-path="url(#clip580)" d="M108.492 199.279 Q104.881 199.279 103.052 202.843 Q101.246 206.385 101.246 213.515 Q101.246 220.621 103.052 224.186 Q104.881 227.728 108.492 227.728 Q112.126 227.728 113.932 224.186 Q115.76 220.621 115.76 213.515 Q115.76 206.385 113.932 202.843 Q112.126 199.279 108.492 199.279 M108.492 195.575 Q114.302 195.575 117.358 200.181 Q120.436 204.765 120.436 213.515 Q120.436 222.241 117.358 226.848 Q114.302 231.431 108.492 231.431 Q102.682 231.431 99.603 226.848 Q96.5474 222.241 96.5474 213.515 Q96.5474 204.765 99.603 200.181 Q102.682 195.575 108.492 195.575 Z" fill="#000000" fill-rule="nonzero" fill-opacity="1" /><path clip-path="url(#clip580)" d="M139.232 211.617 Q136.084 211.617 134.232 213.769 Q132.404 215.922 132.404 219.672 Q132.404 223.399 134.232 225.575 Q136.084 227.728 139.232 227.728 Q142.381 227.728 144.209 225.575 Q146.061 223.399 146.061 219.672 Q146.061 215.922 144.209 213.769 Q142.381 211.617 139.232 211.617 M148.515 196.964 L148.515 201.223 Q146.756 200.39 144.95 199.95 Q143.168 199.51 141.408 199.51 Q136.779 199.51 134.325 202.635 Q131.894 205.76 131.547 212.08 Q132.913 210.066 134.973 209.001 Q137.033 207.913 139.51 207.913 Q144.718 207.913 147.728 211.084 Q150.76 214.232 150.76 219.672 Q150.76 224.996 147.612 228.214 Q144.464 231.431 139.232 231.431 Q133.237 231.431 130.066 226.848 Q126.894 222.241 126.894 213.515 Q126.894 205.32 130.783 200.459 Q134.672 195.575 141.223 195.575 Q142.982 195.575 144.765 195.922 Q146.57 196.269 148.515 196.964 Z" fill="#000000" fill-rule="nonzero" fill-opacity="1" /><path clip-path="url(#clip580)" d="M846.592 20.4184 L844.912 34.9286 Q844.789 36.2403 844.584 36.6502 Q844.379 37.0191 843.723 37.0191 Q842.739 37.0191 842.739 36.0353 Q842.739 35.6254 842.903 34.5187 Q843.149 32.2643 843.149 29.9689 Q843.149 27.3866 842.657 25.788 Q842.207 24.1484 840.895 22.9597 Q839.583 21.771 837.165 21.2792 Q834.746 20.7463 830.893 20.7463 L819.826 20.7463 Q817.121 20.7463 816.465 21.2382 Q815.85 21.7301 815.277 24.0255 L809.907 45.3399 L817.531 45.3399 Q822.86 45.3399 824.95 43.7823 Q827.04 42.2247 828.352 37.265 Q828.557 36.4862 828.639 36.1993 Q828.762 35.8714 828.967 35.7074 Q829.213 35.5025 829.623 35.5025 Q829.992 35.5025 830.238 35.7484 Q830.484 35.9533 830.566 36.1993 L830.648 36.4452 Q830.648 36.8551 830.402 37.7979 L825.77 55.9971 Q825.442 57.2268 825.237 57.5137 Q825.073 57.7596 824.499 57.7596 Q824.089 57.7596 823.802 57.4727 Q823.515 57.1858 823.515 56.7349 Q823.597 56.243 823.761 55.8331 Q824.335 53.3328 824.335 51.7342 Q824.335 50.7095 824.13 50.0946 Q823.925 49.4798 823.228 48.9469 Q822.532 48.4141 821.097 48.1681 Q819.662 47.9222 817.367 47.9222 L809.251 47.9222 L804.046 68.8267 L803.677 70.7532 Q803.677 71.614 804.127 71.9419 Q804.619 72.2698 806.382 72.4338 Q809.005 72.6387 810.727 72.6387 Q812.858 72.6387 813.104 72.7207 Q813.596 72.9667 813.596 73.6225 Q813.596 74.3603 813.268 74.7702 Q812.94 75.1391 812.653 75.1801 Q812.366 75.2211 811.833 75.2211 L799.332 74.9751 L788.265 75.2211 Q786.994 75.2211 786.994 74.1963 Q786.994 73.4175 787.322 73.0896 Q787.65 72.7207 788.019 72.6797 Q788.388 72.6387 789.33 72.6387 Q791.38 72.6387 792.61 72.5158 Q793.839 72.3928 794.618 72.2288 Q795.438 72.0239 795.848 71.45 Q796.299 70.8762 796.503 70.3843 Q796.708 69.8515 796.995 68.6628 L808.062 24.2714 Q808.472 22.7548 808.472 22.2629 Q808.472 21.7301 808.103 21.4021 Q807.776 21.0742 806.874 20.9513 Q805.972 20.7873 805.234 20.7873 Q804.537 20.7463 803.021 20.7463 Q802.037 20.7463 801.627 20.7053 Q801.258 20.6643 800.971 20.4594 Q800.684 20.2544 800.684 19.8036 Q800.684 18.6559 801.176 18.4099 Q801.709 18.123 803.185 18.123 L844.338 18.123 Q845.978 18.123 846.346 18.4919 Q846.756 18.8198 846.592 20.4184 Z" fill="#000000" fill-rule="nonzero" fill-opacity="1" /><path clip-path="url(#clip580)" d="M856.21 54.2346 Q856.21 40.0523 861.498 28.6163 Q863.752 23.8205 866.909 19.8036 Q870.065 15.7866 872.155 14.0241 Q874.246 12.2615 874.819 12.2615 Q875.639 12.2615 875.68 13.0813 Q875.68 13.4912 874.574 14.5159 Q861.047 28.2883 861.088 54.2346 Q861.088 80.2627 874.246 93.5023 Q875.68 94.9369 875.68 95.3878 Q875.68 96.2076 874.819 96.2076 Q874.246 96.2076 872.237 94.527 Q870.229 92.8465 867.113 88.9935 Q863.998 85.1405 861.744 80.4267 Q856.21 68.9907 856.21 54.2346 Z" fill="#000000" fill-rule="nonzero" fill-opacity="1" /><path clip-path="url(#clip580)" d="M921.696 51.8162 Q921.696 57.8826 918.581 63.5801 Q915.507 69.2776 910.67 72.7207 Q905.874 76.1638 901.038 76.1638 Q895.586 76.1638 892.758 70.5073 Q887.634 91.0429 887.347 91.5758 Q886.158 93.3383 884.437 93.3383 Q883.371 93.3383 882.715 92.6825 Q882.06 92.0677 882.06 91.0839 Q882.101 90.756 882.346 89.7313 L890.544 56.7349 Q892.43 49.0699 898.127 43.6183 Q903.866 38.1258 910.014 38.1258 Q914.892 38.1258 918.294 41.7738 Q921.696 45.4219 921.696 51.8162 M915.671 48.2091 Q915.671 44.1102 914.031 42.0607 Q912.392 39.9703 909.85 39.9703 Q907.514 39.9703 904.686 41.8558 Q901.898 43.7413 899.439 47.9222 Q898.127 50.3406 897.185 53.3328 Q896.242 56.325 894.397 63.7031 Q893.741 66.6543 893.741 66.8183 Q893.741 67.1462 893.905 67.884 Q894.11 68.6218 894.602 69.7695 Q895.135 70.8762 895.873 71.8599 Q896.611 72.8437 897.963 73.5815 Q899.316 74.2783 900.956 74.2783 Q903.497 74.2783 906.202 72.2288 Q908.949 70.1384 910.957 66.3264 Q912.638 63.2522 914.154 57.4727 Q915.671 51.6522 915.671 48.2091 Z" fill="#000000" fill-rule="nonzero" fill-opacity="1" /><path clip-path="url(#clip580)" d="M927.026 95.3878 Q927.026 94.9779 928.092 93.9532 Q941.618 80.1808 941.618 54.2346 Q941.618 28.2064 928.625 15.0488 Q927.026 13.5322 927.026 13.0813 Q927.026 12.2615 927.846 12.2615 Q928.42 12.2615 930.428 13.9421 Q932.478 15.6227 935.552 19.4756 Q938.667 23.3286 940.962 28.0424 Q946.496 39.4784 946.496 54.2346 Q946.496 68.4168 941.208 79.8529 Q938.954 84.6486 935.798 88.6655 Q932.642 92.6825 930.551 94.445 Q928.461 96.2076 927.846 96.2076 Q927.026 96.2076 927.026 95.3878 Z" fill="#000000" fill-rule="nonzero" fill-opacity="1" /><path clip-path="url(#clip580)" d="M982.55 62.4734 Q982.632 61.4487 984.23 61.4487 L1035.67 61.4487 Q1038.09 61.4487 1038.13 62.3914 Q1038.13 63.4162 1035.84 63.3752 L984.804 63.3752 Q982.55 63.4162 982.55 62.4734 M982.55 46.0777 Q982.55 45.053 984.312 45.0939 L1035.59 45.0939 Q1038.09 45.0939 1038.13 46.0777 Q1038.13 47.0204 1036 47.0204 L984.23 47.0204 Q982.55 47.0204 982.55 46.0777 Z" fill="#000000" fill-rule="nonzero" fill-opacity="1" /><path clip-path="url(#clip580)" d="M1089.49 94.527 Q1089.49 95.2238 1089 95.7157 Q1088.5 96.2076 1087.81 96.2076 Q1086.62 96.2076 1086.21 95.1009 L1070.59 54.8084 Q1070.51 54.6444 1070.51 54.2346 Q1070.51 53.8247 1070.59 53.6607 L1086.21 13.3682 Q1086.62 12.2615 1087.81 12.2615 Q1088.5 12.2615 1089 12.7534 Q1089.49 13.2453 1089.49 13.9421 Q1089.49 14.352 1089.41 14.5159 L1073.95 54.2346 L1089.41 93.9532 Q1089.49 94.1171 1089.49 94.527 Z" fill="#000000" fill-rule="nonzero" fill-opacity="1" /><path clip-path="url(#clip580)" d="M1153.69 43.9872 Q1153.69 46.4466 1152.75 50.7505 Q1151.85 55.0543 1151.11 57.1038 Q1149.06 62.5554 1144.96 67.1462 Q1142.71 69.6875 1140.25 71.532 Q1137.83 73.3356 1136.03 74.2373 Q1134.22 75.0981 1132.09 75.549 Q1129.96 76.0408 1128.98 76.0818 Q1127.99 76.1638 1126.6 76.1638 L1123.4 88.6655 Q1122.75 91.9037 1122.42 92.1086 Q1122.34 92.2726 1122.13 92.3546 Q1121.97 92.4366 1121.8 92.4366 L1121.64 92.4366 Q1121.19 92.4366 1120.94 92.2316 Q1120.7 92.0267 1120.65 91.7807 L1120.65 91.5758 Q1120.65 91.0019 1122.58 83.6239 Q1123.56 79.8529 1124.43 75.9589 Q1117.87 75.549 1113.81 72.6387 Q1109.79 69.7285 1109.79 64.072 Q1109.79 60.5879 1113.85 49.8897 Q1115.78 44.766 1115.78 42.6346 Q1115.78 41.6918 1115.57 41.118 Q1115.37 40.5031 1114.96 40.2982 Q1114.55 40.0523 1114.3 40.0113 Q1114.1 39.9703 1113.69 39.9703 Q1111.27 39.9703 1109.01 42.3887 Q1106.76 44.807 1105.2 50.3816 Q1104.87 51.4063 1104.67 51.6522 Q1104.46 51.8982 1103.85 51.8982 Q1102.82 51.8572 1102.82 51.0374 Q1102.82 50.7095 1103.19 49.4388 Q1103.56 48.1271 1104.42 46.2007 Q1105.32 44.2332 1106.55 42.4706 Q1107.78 40.6671 1109.71 39.3964 Q1111.68 38.1258 1113.93 38.1258 Q1117.01 38.1258 1118.89 40.1342 Q1120.82 42.1017 1120.82 45.012 Q1120.82 45.5858 1120.7 46.2416 Q1120.57 46.8975 1120.45 47.2664 Q1120.37 47.6353 1120.12 48.3321 Q1119.92 48.9879 1119.88 49.1109 Q1117.79 54.5215 1116.72 58.0466 Q1115.65 61.5306 1115.49 62.5554 Q1115.37 63.5391 1115.37 64.7278 Q1115.37 73.0076 1124.92 74.1144 L1138.85 18.6559 Q1139.1 17.5082 1139.3 17.2622 Q1139.51 16.9753 1140.12 16.9753 Q1141.11 16.9753 1141.11 17.8771 Q1141.11 18.164 1140.86 19.1477 L1127.01 74.2783 Q1128.32 74.2783 1129.14 74.2373 Q1129.96 74.1963 1131.68 73.8274 Q1133.44 73.4175 1134.92 72.6797 Q1136.44 71.9419 1138.57 70.4663 Q1140.7 68.9497 1142.79 66.8183 Q1145.41 64.154 1147.75 59.6861 Q1150.08 55.2183 1150.08 51.5293 Q1150.08 47.3893 1147.09 44.3971 Q1146.64 43.9872 1146.4 43.7413 Q1146.19 43.4954 1145.99 43.0855 Q1145.82 42.6756 1145.82 42.1427 Q1145.82 40.7491 1147.13 39.4374 Q1148.45 38.1258 1150 38.1258 Q1151.4 38.1258 1152.54 39.4784 Q1153.69 40.8311 1153.69 43.9872 Z" fill="#000000" fill-rule="nonzero" fill-opacity="1" /><path clip-path="url(#clip580)" d="M1158.13 73.8684 Q1156.94 72.5158 1156.94 70.7532 Q1156.94 68.9907 1158.09 67.679 Q1159.28 66.3264 1161.41 66.3264 Q1163.91 66.3264 1165.34 68.7448 Q1166.78 71.1221 1166.78 75.1391 Q1166.78 79.4839 1165.01 83.5009 Q1163.25 87.5588 1161.53 89.4853 Q1159.81 91.4118 1159.11 91.4118 Q1158.29 91.4118 1158.29 90.5101 Q1158.29 90.1821 1158.87 89.5673 Q1164.89 83.091 1164.93 75.1391 Q1164.93 73.8684 1164.77 73.8684 L1164.56 74.0324 Q1163.13 75.2211 1161.41 75.2211 Q1159.32 75.2211 1158.13 73.8684 Z" fill="#000000" fill-rule="nonzero" fill-opacity="1" /><path clip-path="url(#clip580)" d="M1232.9 51.8162 Q1232.9 57.8826 1229.79 63.5801 Q1226.71 69.2776 1221.88 72.7207 Q1217.08 76.1638 1212.24 76.1638 Q1206.79 76.1638 1203.96 70.5073 Q1198.84 91.0429 1198.55 91.5758 Q1197.36 93.3383 1195.64 93.3383 Q1194.58 93.3383 1193.92 92.6825 Q1193.27 92.0677 1193.27 91.0839 Q1193.31 90.756 1193.55 89.7313 L1201.75 56.7349 Q1203.64 49.0699 1209.33 43.6183 Q1215.07 38.1258 1221.22 38.1258 Q1226.1 38.1258 1229.5 41.7738 Q1232.9 45.4219 1232.9 51.8162 M1226.88 48.2091 Q1226.88 44.1102 1225.24 42.0607 Q1223.6 39.9703 1221.06 39.9703 Q1218.72 39.9703 1215.89 41.8558 Q1213.1 43.7413 1210.64 47.9222 Q1209.33 50.3406 1208.39 53.3328 Q1207.45 56.325 1205.6 63.7031 Q1204.95 66.6543 1204.95 66.8183 Q1204.95 67.1462 1205.11 67.884 Q1205.32 68.6218 1205.81 69.7695 Q1206.34 70.8762 1207.08 71.8599 Q1207.82 72.8437 1209.17 73.5815 Q1210.52 74.2783 1212.16 74.2783 Q1214.7 74.2783 1217.41 72.2288 Q1220.15 70.1384 1222.16 66.3264 Q1223.84 63.2522 1225.36 57.4727 Q1226.88 51.6522 1226.88 48.2091 Z" fill="#000000" fill-rule="nonzero" fill-opacity="1" /><path clip-path="url(#clip580)" d="M1255.07 53.6607 Q1255.15 53.8247 1255.15 54.2346 Q1255.15 54.6444 1255.07 54.8084 L1239.45 95.1009 Q1239.04 96.2076 1237.9 96.2076 Q1237.2 96.2076 1236.71 95.7157 Q1236.22 95.2238 1236.22 94.527 Q1236.22 94.1171 1236.3 93.9532 L1251.71 54.2346 L1236.3 14.5159 Q1236.22 14.352 1236.22 13.9421 Q1236.22 13.2453 1236.71 12.7534 Q1237.2 12.2615 1237.9 12.2615 Q1239.04 12.2615 1239.45 13.3682 L1255.07 53.6607 Z" fill="#000000" fill-rule="nonzero" fill-opacity="1" /><path clip-path="url(#clip580)" d="M1293.75 55.2593 Q1291.82 55.2593 1291.82 54.2346 Q1291.82 53.2098 1293.83 53.2098 Q1294.08 53.2098 1294.49 53.2508 Q1294.94 53.2918 1295.02 53.2918 L1318.67 53.2918 L1318.67 29.559 Q1318.67 29.477 1318.63 29.1081 Q1318.59 28.6982 1318.59 28.4523 Q1318.59 26.4438 1319.57 26.4438 Q1320.6 26.4438 1320.6 28.4523 L1320.6 53.2918 L1344.29 53.2918 Q1344.37 53.2918 1344.78 53.2508 Q1345.19 53.2098 1345.43 53.2098 Q1347.36 53.2098 1347.36 54.2346 Q1347.4 55.2593 1345.35 55.2593 Q1345.11 55.2593 1344.74 55.2183 Q1344.37 55.1773 1344.29 55.1773 L1320.6 55.1773 L1320.6 80.0988 Q1320.6 82.0253 1319.57 82.0253 Q1318.59 82.0253 1318.59 80.0168 Q1318.59 79.7709 1318.63 79.361 Q1318.67 78.9921 1318.67 78.9101 L1318.67 55.1773 L1295.02 55.1773 Q1294.94 55.1773 1294.44 55.2183 Q1293.99 55.2593 1293.75 55.2593 Z" fill="#000000" fill-rule="nonzero" fill-opacity="1" /><path clip-path="url(#clip580)" d="M1398.76 94.527 Q1398.76 95.2238 1398.27 95.7157 Q1397.78 96.2076 1397.08 96.2076 Q1395.89 96.2076 1395.48 95.1009 L1379.86 54.8084 Q1379.78 54.6444 1379.78 54.2346 Q1379.78 53.8247 1379.86 53.6607 L1395.48 13.3682 Q1395.89 12.2615 1397.08 12.2615 Q1397.78 12.2615 1398.27 12.7534 Q1398.76 13.2453 1398.76 13.9421 Q1398.76 14.352 1398.68 14.5159 L1383.22 54.2346 L1398.68 93.9532 Q1398.76 94.1171 1398.76 94.527 Z" fill="#000000" fill-rule="nonzero" fill-opacity="1" /><path clip-path="url(#clip580)" d="M1451.73 51.8162 Q1451.73 57.8826 1448.62 63.5801 Q1445.54 69.2776 1440.71 72.7207 Q1435.91 76.1638 1431.07 76.1638 Q1425.62 76.1638 1422.79 70.5073 Q1417.67 91.0429 1417.38 91.5758 Q1416.19 93.3383 1414.47 93.3383 Q1413.41 93.3383 1412.75 92.6825 Q1412.1 92.0677 1412.1 91.0839 Q1412.14 90.756 1412.38 89.7313 L1420.58 56.7349 Q1422.47 49.0699 1428.16 43.6183 Q1433.9 38.1258 1440.05 38.1258 Q1444.93 38.1258 1448.33 41.7738 Q1451.73 45.4219 1451.73 51.8162 M1445.71 48.2091 Q1445.71 44.1102 1444.07 42.0607 Q1442.43 39.9703 1439.89 39.9703 Q1437.55 39.9703 1434.72 41.8558 Q1431.93 43.7413 1429.47 47.9222 Q1428.16 50.3406 1427.22 53.3328 Q1426.28 56.325 1424.43 63.7031 Q1423.78 66.6543 1423.78 66.8183 Q1423.78 67.1462 1423.94 67.884 Q1424.15 68.6218 1424.64 69.7695 Q1425.17 70.8762 1425.91 71.8599 Q1426.65 72.8437 1428 73.5815 Q1429.35 74.2783 1430.99 74.2783 Q1433.53 74.2783 1436.24 72.2288 Q1438.98 70.1384 1440.99 66.3264 Q1442.67 63.2522 1444.19 57.4727 Q1445.71 51.6522 1445.71 48.2091 Z" fill="#000000" fill-rule="nonzero" fill-opacity="1" /><path clip-path="url(#clip580)" d="M1456.23 73.8684 Q1455.05 72.5158 1455.05 70.7532 Q1455.05 68.9907 1456.19 67.679 Q1457.38 66.3264 1459.51 66.3264 Q1462.01 66.3264 1463.45 68.7448 Q1464.88 71.1221 1464.88 75.1391 Q1464.88 79.4839 1463.12 83.5009 Q1461.36 87.5588 1459.64 89.4853 Q1457.92 91.4118 1457.22 91.4118 Q1456.4 91.4118 1456.4 90.5101 Q1456.4 90.1821 1456.97 89.5673 Q1463 83.091 1463.04 75.1391 Q1463.04 73.8684 1462.87 73.8684 L1462.67 74.0324 Q1461.24 75.2211 1459.51 75.2211 Q1457.42 75.2211 1456.23 73.8684 Z" fill="#000000" fill-rule="nonzero" fill-opacity="1" /><path clip-path="url(#clip580)" d="M1501.35 75.2211 L1501.35 72.6387 Q1505.82 72.6387 1506.85 72.1059 Q1507.87 71.532 1507.87 68.8267 L1507.87 25.1732 Q1507.87 22.058 1506.76 21.2792 Q1505.7 20.5004 1501.35 20.5004 L1501.35 17.8771 L1513.41 16.9753 L1513.41 68.8267 Q1513.41 71.532 1514.47 72.1059 Q1515.54 72.6387 1519.96 72.6387 L1519.96 75.2211 Q1518.94 75.2211 1516.81 75.1391 Q1514.68 75.0571 1513.12 75.0161 Q1511.56 74.9751 1510.66 74.9751 Q1509.68 74.9751 1501.35 75.2211 Z" fill="#000000" fill-rule="nonzero" fill-opacity="1" /><path clip-path="url(#clip580)" d="M1532.59 70.7122 Q1527.06 65.2197 1527.06 57.2678 Q1527.06 49.2748 1532.47 43.4544 Q1537.92 37.5929 1545.71 37.5929 Q1553.33 37.5929 1558.79 43.4134 Q1564.28 49.1929 1564.28 57.2678 Q1564.28 65.1787 1558.75 70.6713 Q1553.25 76.1638 1545.63 76.1638 Q1538.17 76.1638 1532.59 70.7122 M1534.03 56.5709 Q1534.03 64.7278 1536.16 68.4168 Q1539.44 74.0324 1545.71 74.0324 Q1548.83 74.0324 1551.41 72.3518 Q1554.03 70.6713 1555.47 67.843 Q1557.31 64.154 1557.31 56.5709 Q1557.31 48.4961 1555.1 44.93 Q1551.82 39.4784 1545.63 39.4784 Q1542.92 39.4784 1540.26 40.913 Q1537.64 42.3067 1536.04 45.0939 Q1534.03 48.783 1534.03 56.5709 Z" fill="#000000" fill-rule="nonzero" fill-opacity="1" /><path clip-path="url(#clip580)" d="M1565.61 81.8613 Q1565.61 79.156 1567.66 76.8196 Q1569.75 74.4833 1573.35 73.4585 Q1569.66 71.1221 1569.66 65.9985 Q1569.66 62.0635 1572.25 59.0303 Q1568.31 55.7512 1568.31 50.3816 Q1568.31 45.4219 1572.25 41.7738 Q1576.18 38.1258 1581.92 38.1258 Q1586.96 38.1258 1590.82 41.159 Q1594.83 37.224 1599.71 37.183 Q1601.88 37.183 1602.91 38.5357 Q1603.97 39.8883 1603.97 41.3229 Q1603.97 42.5936 1603.15 43.2084 Q1602.37 43.8233 1601.55 43.8233 Q1600.53 43.8233 1599.79 43.1674 Q1599.09 42.4706 1599.09 41.4049 Q1599.09 39.6424 1600.45 39.1095 Q1600.2 39.0275 1599.63 39.0275 Q1595.53 39.0275 1592.04 42.3067 Q1595.49 45.5038 1595.49 50.4635 Q1595.49 55.4232 1591.55 59.0713 Q1587.62 62.7193 1581.92 62.7193 Q1577.21 62.7193 1573.6 60.096 Q1572.16 61.7766 1572.16 64.072 Q1572.16 66.1624 1573.44 67.802 Q1574.71 69.4416 1576.63 69.6875 Q1577.21 69.7695 1582.9 69.7695 Q1586.27 69.7695 1588.11 69.8515 Q1589.95 69.9334 1592.58 70.5073 Q1595.24 71.0402 1597.33 72.1059 Q1602.78 75.1391 1602.82 81.6974 Q1602.82 86.4931 1597.29 89.4853 Q1591.8 92.5185 1584.17 92.5185 Q1576.47 92.5185 1571.02 89.4443 Q1565.61 86.4111 1565.61 81.8613 M1569.99 81.8613 Q1569.99 85.3044 1574.05 87.9277 Q1578.11 90.592 1584.26 90.592 Q1590.28 90.592 1594.34 87.9687 Q1598.44 85.3864 1598.44 81.8613 Q1598.44 79.361 1597 77.7624 Q1595.57 76.1638 1592.62 75.508 Q1589.71 74.8931 1587.66 74.7702 Q1585.61 74.6472 1581.84 74.6472 L1576.88 74.6472 Q1574.01 74.8112 1572 76.9016 Q1569.99 78.9921 1569.99 81.8613 M1574.58 50.4635 Q1574.58 60.7928 1581.92 60.7928 Q1585.61 60.7928 1587.86 57.4317 Q1589.22 55.1773 1589.22 50.3816 Q1589.22 40.0523 1581.92 40.0523 Q1578.23 40.0523 1575.94 43.4134 Q1574.58 45.6678 1574.58 50.4635 Z" fill="#000000" fill-rule="nonzero" fill-opacity="1" /><path clip-path="url(#clip580)" d="M1617.16 54.2346 Q1617.16 40.0523 1622.45 28.6163 Q1624.7 23.8205 1627.86 19.8036 Q1631.01 15.7866 1633.1 14.0241 Q1635.19 12.2615 1635.77 12.2615 Q1636.59 12.2615 1636.63 13.0813 Q1636.63 13.4912 1635.52 14.5159 Q1622 28.2883 1622.04 54.2346 Q1622.04 80.2627 1635.19 93.5023 Q1636.63 94.9369 1636.63 95.3878 Q1636.63 96.2076 1635.77 96.2076 Q1635.19 96.2076 1633.19 94.527 Q1631.18 92.8465 1628.06 88.9935 Q1624.95 85.1405 1622.69 80.4267 Q1617.16 68.9907 1617.16 54.2346 Z" fill="#000000" fill-rule="nonzero" fill-opacity="1" /><path clip-path="url(#clip580)" d="M1682.64 51.8162 Q1682.64 57.8826 1679.53 63.5801 Q1676.46 69.2776 1671.62 72.7207 Q1666.82 76.1638 1661.99 76.1638 Q1656.53 76.1638 1653.71 70.5073 Q1648.58 91.0429 1648.3 91.5758 Q1647.11 93.3383 1645.39 93.3383 Q1644.32 93.3383 1643.66 92.6825 Q1643.01 92.0677 1643.01 91.0839 Q1643.05 90.756 1643.29 89.7313 L1651.49 56.7349 Q1653.38 49.0699 1659.08 43.6183 Q1664.81 38.1258 1670.96 38.1258 Q1675.84 38.1258 1679.24 41.7738 Q1682.64 45.4219 1682.64 51.8162 M1676.62 48.2091 Q1676.62 44.1102 1674.98 42.0607 Q1673.34 39.9703 1670.8 39.9703 Q1668.46 39.9703 1665.63 41.8558 Q1662.85 43.7413 1660.39 47.9222 Q1659.08 50.3406 1658.13 53.3328 Q1657.19 56.325 1655.35 63.7031 Q1654.69 66.6543 1654.69 66.8183 Q1654.69 67.1462 1654.85 67.884 Q1655.06 68.6218 1655.55 69.7695 Q1656.08 70.8762 1656.82 71.8599 Q1657.56 72.8437 1658.91 73.5815 Q1660.26 74.2783 1661.9 74.2783 Q1664.45 74.2783 1667.15 72.2288 Q1669.9 70.1384 1671.91 66.3264 Q1673.59 63.2522 1675.1 57.4727 Q1676.62 51.6522 1676.62 48.2091 Z" fill="#000000" fill-rule="nonzero" fill-opacity="1" /><path clip-path="url(#clip580)" d="M1687.97 95.3878 Q1687.97 94.9779 1689.04 93.9532 Q1702.57 80.1808 1702.57 54.2346 Q1702.57 28.2064 1689.57 15.0488 Q1687.97 13.5322 1687.97 13.0813 Q1687.97 12.2615 1688.79 12.2615 Q1689.37 12.2615 1691.38 13.9421 Q1693.43 15.6227 1696.5 19.4756 Q1699.62 23.3286 1701.91 28.0424 Q1707.44 39.4784 1707.44 54.2346 Q1707.44 68.4168 1702.16 79.8529 Q1699.9 84.6486 1696.75 88.6655 Q1693.59 92.6825 1691.5 94.445 Q1689.41 96.2076 1688.79 96.2076 Q1687.97 96.2076 1687.97 95.3878 Z" fill="#000000" fill-rule="nonzero" fill-opacity="1" /><path clip-path="url(#clip580)" d="M1739.06 53.6607 Q1739.14 53.8247 1739.14 54.2346 Q1739.14 54.6444 1739.06 54.8084 L1723.45 95.1009 Q1723.04 96.2076 1721.89 96.2076 Q1721.19 96.2076 1720.7 95.7157 Q1720.21 95.2238 1720.21 94.527 Q1720.21 94.1171 1720.29 93.9532 L1735.7 54.2346 L1720.29 14.5159 Q1720.21 14.352 1720.21 13.9421 Q1720.21 13.2453 1720.7 12.7534 Q1721.19 12.2615 1721.89 12.2615 Q1723.04 12.2615 1723.45 13.3682 L1739.06 53.6607 Z" fill="#000000" fill-rule="nonzero" fill-opacity="1" /><polyline clip-path="url(#clip582)" style="stroke:#ff0000; stroke-linecap:round; stroke-linejoin:round; stroke-width:4; stroke-opacity:1; fill:none" points="248.062,1447.87 280.497,1447.87 312.931,1447.87 345.366,1447.87 377.801,1447.87 410.236,1447.87 442.671,1447.87 475.105,1447.87 507.54,1447.87 539.975,1447.87 572.41,1447.87 604.845,1447.87 637.279,1447.87 669.714,1447.87 702.149,1447.87 734.584,1447.87 767.019,1447.87 799.453,1447.87 831.888,1447.87 864.323,1447.87 896.758,1447.87 929.193,1447.87 961.627,1447.87 994.062,1447.87 1026.5,162.047 1058.93,162.047 1091.37,162.047 1123.8,162.047 1156.24,162.047 1188.67,162.047 1221.11,162.047 1253.54,162.047 1285.98,162.047 1318.41,162.047 1350.85,162.047 1383.28,162.047 1415.71,162.047 1448.15,162.047 1480.58,162.047 1513.02,162.047 1545.45,1447.87 1577.89,1447.87 1610.32,1447.87 1642.76,1447.87 1675.19,1447.87 1707.63,1447.87 1740.06,1447.87 1772.5,1447.87 1804.93,1447.87 1837.37,1447.87 1869.8,1447.87 1902.24,1447.87 1934.67,1447.87 1967.11,1447.87 1999.54,1447.87 2031.98,1447.87 2064.41,1447.87 2096.85,1447.87 2129.28,1447.87 2161.71,1447.87 2194.15,1447.87 2226.58,1447.87 2259.02,1447.87 2291.45,1447.87 "/>
<polyline clip-path="url(#clip582)" style="stroke:#e3001c; stroke-linecap:round; stroke-linejoin:round; stroke-width:4; stroke-opacity:1; fill:none" points="248.062,1447.87 280.497,1447.87 312.931,1447.87 345.366,1447.87 377.801,1447.75 410.236,1447.64 442.671,1447.35 475.105,1446.22 507.54,1444.15 539.975,1440.41 572.41,1432.99 604.845,1420.7 637.279,1401.94 669.714,1374.66 702.149,1336.95 734.584,1289.53 767.019,1232.53 799.453,1167.7 831.888,1097.8 864.323,1026.58 896.758,957.454 929.193,893.22 961.627,835.373 994.062,785.527 1026.5,743.658 1058.93,709.125 1091.37,681.978 1123.8,661.01 1156.24,645.422 1188.67,634.473 1221.11,627.642 1253.54,624.075 1285.98,624.075 1318.41,627.642 1350.85,634.473 1383.28,645.422 1415.71,661.01 1448.15,681.978 1480.58,709.125 1513.02,743.658 1545.45,785.527 1577.89,835.374 1610.32,893.217 1642.76,957.454 1675.19,1026.58 1707.63,1097.8 1740.06,1167.7 1772.5,1232.53 1804.93,1289.53 1837.37,1336.95 1869.8,1374.66 1902.24,1401.94 1934.67,1420.7 1967.11,1432.99 1999.54,1440.41 2031.98,1444.15 2064.41,1446.22 2096.85,1447.35 2129.28,1447.64 2161.71,1447.75 2194.15,1447.87 2226.58,1447.87 2259.02,1447.87 2291.45,1447.87 "/>
<polyline clip-path="url(#clip582)" style="stroke:#c60039; stroke-linecap:round; stroke-linejoin:round; stroke-width:4; stroke-opacity:1; fill:none" points="248.062,1447.69 280.497,1447.36 312.931,1446.61 345.366,1445.08 377.801,1442.13 410.236,1436.93 442.671,1428.44 475.105,1415.48 507.54,1397.01 539.975,1372.28 572.41,1340.99 604.845,1303.49 637.279,1260.73 669.714,1214.19 702.149,1165.66 734.584,1117.09 767.019,1070.27 799.453,1026.73 831.888,987.595 864.323,953.509 896.758,924.769 929.193,901.269 961.627,882.649 994.062,868.372 1026.5,857.807 1058.93,850.271 1091.37,845.129 1123.8,841.791 1156.24,839.745 1188.67,838.576 1221.11,837.977 1253.54,837.718 1285.98,837.718 1318.41,837.977 1350.85,838.577 1383.28,839.746 1415.71,841.793 1448.15,845.132 1480.58,850.275 1513.02,857.812 1545.45,868.375 1577.89,882.653 1610.32,901.271 1642.76,924.769 1675.19,953.51 1707.63,987.592 1740.06,1026.73 1772.5,1070.27 1804.93,1117.09 1837.37,1165.66 1869.8,1214.19 1902.24,1260.73 1934.67,1303.49 1967.11,1340.99 1999.54,1372.28 2031.98,1397.01 2064.41,1415.48 2096.85,1428.44 2129.28,1436.93 2161.71,1442.13 2194.15,1445.08 2226.58,1446.61 2259.02,1447.36 2291.45,1447.69 "/>
<polyline clip-path="url(#clip582)" style="stroke:#aa0055; stroke-linecap:round; stroke-linejoin:round; stroke-width:4; stroke-opacity:1; fill:none" points="248.062,1446.94 280.497,1445.64 312.931,1443.04 345.366,1438.21 377.801,1430.06 410.236,1417.25 442.671,1398.64 475.105,1373.38 507.54,1341.25 539.975,1302.79 572.41,1259.25 604.845,1212.54 637.279,1164.84 669.714,1118.39 702.149,1075.19 734.584,1036.77 767.019,1004.1 799.453,977.659 831.888,957.426 864.323,942.946 896.758,933.57 929.193,928.469 961.627,926.771 994.062,927.602 1026.5,930.233 1058.93,933.895 1091.37,938.049 1123.8,942.187 1156.24,945.93 1188.67,948.978 1221.11,951.119 1253.54,952.22 1285.98,952.22 1318.41,951.118 1350.85,948.977 1383.28,945.93 1415.71,942.186 1448.15,938.049 1480.58,933.896 1513.02,930.234 1545.45,927.603 1577.89,926.773 1610.32,928.471 1642.76,933.571 1675.19,942.946 1707.63,957.426 1740.06,977.658 1772.5,1004.1 1804.93,1036.77 1837.37,1075.19 1869.8,1118.39 1902.24,1164.84 1934.67,1212.54 1967.11,1259.25 1999.54,1302.79 2031.98,1341.25 2064.41,1373.38 2096.85,1398.64 2129.28,1417.25 2161.71,1430.06 2194.15,1438.21 2226.58,1443.04 2259.02,1445.64 2291.45,1446.94 "/>
<polyline clip-path="url(#clip582)" style="stroke:#8e0071; stroke-linecap:round; stroke-linejoin:round; stroke-width:4; stroke-opacity:1; fill:none" points="248.062,1446.16 280.497,1443.92 312.931,1439.56 345.366,1431.85 377.801,1419.3 410.236,1400.47 442.671,1374.33 475.105,1340.44 507.54,1299.41 539.975,1252.76 572.41,1202.77 604.845,1152.17 637.279,1103.74 669.714,1059.86 702.149,1022.33 734.584,992.198 767.019,969.781 799.453,954.805 831.888,946.524 864.323,943.919 896.758,945.823 929.193,951.114 961.627,958.713 994.062,967.661 1026.5,977.173 1058.93,986.597 1091.37,995.422 1123.8,1003.27 1156.24,1009.84 1188.67,1014.92 1221.11,1018.38 1253.54,1020.13 1285.98,1020.13 1318.41,1018.38 1350.85,1014.92 1383.28,1009.84 1415.71,1003.27 1448.15,995.422 1480.58,986.597 1513.02,977.173 1545.45,967.661 1577.89,958.713 1610.32,951.115 1642.76,945.824 1675.19,943.92 1707.63,946.525 1740.06,954.805 1772.5,969.781 1804.93,992.198 1837.37,1022.33 1869.8,1059.86 1902.24,1103.74 1934.67,1152.17 1967.11,1202.77 1999.54,1252.76 2031.98,1299.41 2064.41,1340.44 2096.85,1374.33 2129.28,1400.47 2161.71,1419.3 2194.15,1431.85 2226.58,1439.56 2259.02,1443.92 2291.45,1446.16 "/>
<polyline clip-path="url(#clip582)" style="stroke:#71008e; stroke-linecap:round; stroke-linejoin:round; stroke-width:4; stroke-opacity:1; fill:none" points="248.062,1445.6 280.497,1442.67 312.931,1437.08 345.366,1427.31 377.801,1411.73 410.236,1388.79 442.671,1357.54 475.105,1317.93 507.54,1271.12 539.975,1219.28 572.41,1165.38 604.845,1112.66 637.279,1064.25 669.714,1022.56 702.149,989.175 734.584,964.817 767.019,949.317 799.453,941.899 831.888,941.354 864.323,946.299 896.758,955.303 929.193,967.008 961.627,980.263 994.062,994.069 1026.5,1007.68 1058.93,1020.48 1091.37,1032.01 1123.8,1041.98 1156.24,1050.15 1188.67,1056.38 1221.11,1060.57 1253.54,1062.68 1285.98,1062.68 1318.41,1060.57 1350.85,1056.38 1383.28,1050.15 1415.71,1041.98 1448.15,1032.01 1480.58,1020.48 1513.02,1007.68 1545.45,994.069 1577.89,980.263 1610.32,967.009 1642.76,955.303 1675.19,946.299 1707.63,941.355 1740.06,941.899 1772.5,949.318 1804.93,964.817 1837.37,989.175 1869.8,1022.56 1902.24,1064.25 1934.67,1112.66 1967.11,1165.38 1999.54,1219.28 2031.98,1271.12 2064.41,1317.93 2096.85,1357.54 2129.28,1388.79 2161.71,1411.73 2194.15,1427.31 2226.58,1437.08 2259.02,1442.67 2291.45,1445.6 "/>
<polyline clip-path="url(#clip582)" style="stroke:#5500aa; stroke-linecap:round; stroke-linejoin:round; stroke-width:4; stroke-opacity:1; fill:none" points="248.062,1445.24 280.497,1441.87 312.931,1435.45 345.366,1424.34 377.801,1406.76 410.236,1381.15 442.671,1346.57 475.105,1303.24 507.54,1252.64 539.975,1197.43 572.41,1141.01 604.845,1086.97 637.279,1038.6 669.714,998.376 702.149,967.749 734.584,947.18 767.019,936.195 799.453,933.703 831.888,938.208 864.323,948.05 896.758,961.643 929.193,977.495 961.627,994.37 994.062,1011.32 1026.5,1027.51 1058.93,1042.45 1091.37,1055.7 1123.8,1066.99 1156.24,1076.15 1188.67,1083.1 1221.11,1087.76 1253.54,1090.1 1285.98,1090.1 1318.41,1087.76 1350.85,1083.1 1383.28,1076.15 1415.71,1066.99 1448.15,1055.7 1480.58,1042.45 1513.02,1027.52 1545.45,1011.32 1577.89,994.37 1610.32,977.496 1642.76,961.643 1675.19,948.05 1707.63,938.208 1740.06,933.703 1772.5,936.196 1804.93,947.18 1837.37,967.749 1869.8,998.376 1902.24,1038.6 1934.67,1086.97 1967.11,1141.01 1999.54,1197.43 2031.98,1252.64 2064.41,1303.24 2096.85,1346.57 2129.28,1381.15 2161.71,1406.76 2194.15,1424.34 2226.58,1435.45 2259.02,1441.87 2291.45,1445.24 "/>
<polyline clip-path="url(#clip582)" style="stroke:#3900c6; stroke-linecap:round; stroke-linejoin:round; stroke-width:4; stroke-opacity:1; fill:none" points="248.062,1445 280.497,1441.35 312.931,1434.42 345.366,1422.47 377.801,1403.61 410.236,1376.22 442.671,1339.5 475.105,1293.76 507.54,1240.73 539.975,1183.34 572.41,1125.24 604.845,1070.31 637.279,1021.94 669.714,982.61 702.149,953.735 734.584,935.614 767.019,927.549 799.453,928.258 831.888,936.032 864.323,949.078 896.758,965.642 929.193,984.211 961.627,1003.5 994.062,1022.48 1026.5,1040.41 1058.93,1056.74 1091.37,1071.11 1123.8,1083.29 1156.24,1093.13 1188.67,1100.55 1221.11,1105.51 1253.54,1107.99 1285.98,1107.99 1318.41,1105.51 1350.85,1100.55 1383.28,1093.13 1415.71,1083.29 1448.15,1071.11 1480.58,1056.74 1513.02,1040.41 1545.45,1022.48 1577.89,1003.5 1610.32,984.211 1642.76,965.642 1675.19,949.078 1707.63,936.032 1740.06,928.258 1772.5,927.549 1804.93,935.614 1837.37,953.735 1869.8,982.611 1902.24,1021.94 1934.67,1070.31 1967.11,1125.24 1999.54,1183.34 2031.98,1240.73 2064.41,1293.76 2096.85,1339.5 2129.28,1376.22 2161.71,1403.61 2194.15,1422.47 2226.58,1434.42 2259.02,1441.35 2291.45,1445 "/>
<polyline clip-path="url(#clip582)" style="stroke:#1c00e3; stroke-linecap:round; stroke-linejoin:round; stroke-width:4; stroke-opacity:1; fill:none" points="248.062,1444.85 280.497,1441.02 312.931,1433.76 345.366,1421.26 377.801,1401.59 410.236,1373.09 442.671,1334.99 475.105,1287.69 507.54,1233.08 539.975,1174.24 572.41,1115.07 604.845,1059.54 637.279,1011.11 669.714,972.347 702.149,944.578 734.584,927.979 767.019,921.805 799.453,924.571 831.888,934.477 864.323,949.606 896.758,968.121 929.193,988.48 961.627,1009.33 994.062,1029.69 1026.5,1048.77 1058.93,1066.04 1091.37,1081.18 1123.8,1093.95 1156.24,1104.24 1188.67,1111.99 1221.11,1117.16 1253.54,1119.73 1285.98,1119.73 1318.41,1117.16 1350.85,1111.99 1383.28,1104.24 1415.71,1093.95 1448.15,1081.18 1480.58,1066.04 1513.02,1048.77 1545.45,1029.69 1577.89,1009.33 1610.32,988.48 1642.76,968.121 1675.19,949.606 1707.63,934.478 1740.06,924.571 1772.5,921.805 1804.93,927.98 1837.37,944.578 1869.8,972.347 1902.24,1011.11 1934.67,1059.54 1967.11,1115.07 1999.54,1174.24 2031.98,1233.08 2064.41,1287.69 2096.85,1334.99 2129.28,1373.09 2161.71,1401.59 2194.15,1421.26 2226.58,1433.76 2259.02,1441.02 2291.45,1444.85 "/>
<polyline clip-path="url(#clip582)" style="stroke:#0000ff; stroke-linecap:round; stroke-linejoin:round; stroke-width:4; stroke-opacity:1; fill:none" points="248.062,1444.76 280.497,1440.8 312.931,1433.34 345.366,1420.49 377.801,1400.28 410.236,1371.08 442.671,1332.09 475.105,1283.8 507.54,1228.15 539.975,1168.38 572.41,1108.49 604.845,1052.54 637.279,1004.07 669.714,965.645 702.149,938.573 734.584,922.979 767.019,917.991 799.453,922.082 831.888,933.377 864.323,949.856 896.758,969.663 929.193,991.2 961.627,1013.09 994.062,1034.35 1026.5,1054.19 1058.93,1072.11 1091.37,1087.76 1123.8,1100.93 1156.24,1111.54 1188.67,1119.48 1221.11,1124.79 1253.54,1127.44 1285.98,1127.44 1318.41,1124.79 1350.85,1119.48 1383.28,1111.54 1415.71,1100.93 1448.15,1087.76 1480.58,1072.11 1513.02,1054.19 1545.45,1034.35 1577.89,1013.09 1610.32,991.2 1642.76,969.663 1675.19,949.856 1707.63,933.377 1740.06,922.082 1772.5,917.991 1804.93,922.98 1837.37,938.573 1869.8,965.645 1902.24,1004.07 1934.67,1052.54 1967.11,1108.49 1999.54,1168.38 2031.98,1228.15 2064.41,1283.8 2096.85,1332.09 2129.28,1371.08 2161.71,1400.28 2194.15,1420.49 2226.58,1433.34 2259.02,1440.8 2291.45,1444.76 "/>
</svg>
