<?xml version="1.0" encoding="utf-8"?>
<svg xmlns="http://www.w3.org/2000/svg" xmlns:xlink="http://www.w3.org/1999/xlink" width="600" height="400" viewBox="0 0 2400 1600">
<defs>
  <clipPath id="clip200">
    <rect x="0" y="0" width="2400" height="1600"/>
  </clipPath>
</defs>
<path clip-path="url(#clip200)" d="
M0 1600 L2400 1600 L2400 0 L0 0  Z
  " fill="#ffffff" fill-rule="evenodd" fill-opacity="1"/>
<defs>
  <clipPath id="clip201">
    <rect x="480" y="0" width="1681" height="1600"/>
  </clipPath>
</defs>
<path clip-path="url(#clip200)" d="
M156.112 1486.45 L2352.76 1486.45 L2352.76 123.472 L156.112 123.472  Z
  " fill="#ffffff" fill-rule="evenodd" fill-opacity="1"/>
<defs>
  <clipPath id="clip202">
    <rect x="156" y="123" width="2198" height="1364"/>
  </clipPath>
</defs>
<polyline clip-path="url(#clip202)" style="stroke:#000000; stroke-linecap:butt; stroke-linejoin:round; stroke-width:2; stroke-opacity:0.1; fill:none" points="
  390.973,1486.45 390.973,123.472 
  "/>
<polyline clip-path="url(#clip202)" style="stroke:#000000; stroke-linecap:butt; stroke-linejoin:round; stroke-width:2; stroke-opacity:0.1; fill:none" points="
  822.704,1486.45 822.704,123.472 
  "/>
<polyline clip-path="url(#clip202)" style="stroke:#000000; stroke-linecap:butt; stroke-linejoin:round; stroke-width:2; stroke-opacity:0.1; fill:none" points="
  1254.43,1486.45 1254.43,123.472 
  "/>
<polyline clip-path="url(#clip202)" style="stroke:#000000; stroke-linecap:butt; stroke-linejoin:round; stroke-width:2; stroke-opacity:0.1; fill:none" points="
  1686.16,1486.45 1686.16,123.472 
  "/>
<polyline clip-path="url(#clip202)" style="stroke:#000000; stroke-linecap:butt; stroke-linejoin:round; stroke-width:2; stroke-opacity:0.1; fill:none" points="
  2117.89,1486.45 2117.89,123.472 
  "/>
<polyline clip-path="url(#clip200)" style="stroke:#000000; stroke-linecap:butt; stroke-linejoin:round; stroke-width:4; stroke-opacity:1; fill:none" points="
  156.112,1486.45 2352.76,1486.45 
  "/>
<polyline clip-path="url(#clip200)" style="stroke:#000000; stroke-linecap:butt; stroke-linejoin:round; stroke-width:4; stroke-opacity:1; fill:none" points="
  390.973,1486.45 390.973,1467.55 
  "/>
<polyline clip-path="url(#clip200)" style="stroke:#000000; stroke-linecap:butt; stroke-linejoin:round; stroke-width:4; stroke-opacity:1; fill:none" points="
  822.704,1486.45 822.704,1467.55 
  "/>
<polyline clip-path="url(#clip200)" style="stroke:#000000; stroke-linecap:butt; stroke-linejoin:round; stroke-width:4; stroke-opacity:1; fill:none" points="
  1254.43,1486.45 1254.43,1467.55 
  "/>
<polyline clip-path="url(#clip200)" style="stroke:#000000; stroke-linecap:butt; stroke-linejoin:round; stroke-width:4; stroke-opacity:1; fill:none" points="
  1686.16,1486.45 1686.16,1467.55 
  "/>
<polyline clip-path="url(#clip200)" style="stroke:#000000; stroke-linecap:butt; stroke-linejoin:round; stroke-width:4; stroke-opacity:1; fill:none" points="
  2117.89,1486.45 2117.89,1467.55 
  "/>
<path clip-path="url(#clip200)" d="M345.036 1532.02 L374.712 1532.02 L374.712 1535.95 L345.036 1535.95 L345.036 1532.02 Z" fill="#000000" fill-rule="evenodd" fill-opacity="1" /><path clip-path="url(#clip200)" d="M385.615 1544.91 L393.253 1544.91 L393.253 1518.55 L384.943 1520.21 L384.943 1515.95 L393.207 1514.29 L397.883 1514.29 L397.883 1544.91 L405.522 1544.91 L405.522 1548.85 L385.615 1548.85 L385.615 1544.91 Z" fill="#000000" fill-rule="evenodd" fill-opacity="1" /><path clip-path="url(#clip200)" d="M424.966 1517.37 Q421.355 1517.37 419.526 1520.93 Q417.721 1524.47 417.721 1531.6 Q417.721 1538.71 419.526 1542.27 Q421.355 1545.82 424.966 1545.82 Q428.601 1545.82 430.406 1542.27 Q432.235 1538.71 432.235 1531.6 Q432.235 1524.47 430.406 1520.93 Q428.601 1517.37 424.966 1517.37 M424.966 1513.66 Q430.776 1513.66 433.832 1518.27 Q436.911 1522.85 436.911 1531.6 Q436.911 1540.33 433.832 1544.94 Q430.776 1549.52 424.966 1549.52 Q419.156 1549.52 416.077 1544.94 Q413.022 1540.33 413.022 1531.6 Q413.022 1522.85 416.077 1518.27 Q419.156 1513.66 424.966 1513.66 Z" fill="#000000" fill-rule="evenodd" fill-opacity="1" /><path clip-path="url(#clip200)" d="M792.345 1532.02 L822.021 1532.02 L822.021 1535.95 L792.345 1535.95 L792.345 1532.02 Z" fill="#000000" fill-rule="evenodd" fill-opacity="1" /><path clip-path="url(#clip200)" d="M832.16 1514.29 L850.516 1514.29 L850.516 1518.22 L836.442 1518.22 L836.442 1526.7 Q837.461 1526.35 838.479 1526.19 Q839.498 1526 840.516 1526 Q846.303 1526 849.683 1529.17 Q853.062 1532.34 853.062 1537.76 Q853.062 1543.34 849.59 1546.44 Q846.118 1549.52 839.799 1549.52 Q837.623 1549.52 835.354 1549.15 Q833.109 1548.78 830.701 1548.04 L830.701 1543.34 Q832.785 1544.47 835.007 1545.03 Q837.229 1545.58 839.706 1545.58 Q843.711 1545.58 846.048 1543.48 Q848.386 1541.37 848.386 1537.76 Q848.386 1534.15 846.048 1532.04 Q843.711 1529.94 839.706 1529.94 Q837.831 1529.94 835.956 1530.35 Q834.104 1530.77 832.16 1531.65 L832.16 1514.29 Z" fill="#000000" fill-rule="evenodd" fill-opacity="1" /><path clip-path="url(#clip200)" d="M1254.43 1517.37 Q1250.82 1517.37 1248.99 1520.93 Q1247.19 1524.47 1247.19 1531.6 Q1247.19 1538.71 1248.99 1542.27 Q1250.82 1545.82 1254.43 1545.82 Q1258.07 1545.82 1259.87 1542.27 Q1261.7 1538.71 1261.7 1531.6 Q1261.7 1524.47 1259.87 1520.93 Q1258.07 1517.37 1254.43 1517.37 M1254.43 1513.66 Q1260.24 1513.66 1263.3 1518.27 Q1266.38 1522.85 1266.38 1531.6 Q1266.38 1540.33 1263.3 1544.94 Q1260.24 1549.52 1254.43 1549.52 Q1248.62 1549.52 1245.55 1544.94 Q1242.49 1540.33 1242.49 1531.6 Q1242.49 1522.85 1245.55 1518.27 Q1248.62 1513.66 1254.43 1513.66 Z" fill="#000000" fill-rule="evenodd" fill-opacity="1" /><path clip-path="url(#clip200)" d="M1676.44 1514.29 L1694.8 1514.29 L1694.8 1518.22 L1680.72 1518.22 L1680.72 1526.7 Q1681.74 1526.35 1682.76 1526.19 Q1683.78 1526 1684.8 1526 Q1690.59 1526 1693.97 1529.17 Q1697.34 1532.34 1697.34 1537.76 Q1697.34 1543.34 1693.87 1546.44 Q1690.4 1549.52 1684.08 1549.52 Q1681.91 1549.52 1679.64 1549.15 Q1677.39 1548.78 1674.98 1548.04 L1674.98 1543.34 Q1677.07 1544.47 1679.29 1545.03 Q1681.51 1545.58 1683.99 1545.58 Q1687.99 1545.58 1690.33 1543.48 Q1692.67 1541.37 1692.67 1537.76 Q1692.67 1534.15 1690.33 1532.04 Q1687.99 1529.94 1683.99 1529.94 Q1682.11 1529.94 1680.24 1530.35 Q1678.39 1530.77 1676.44 1531.65 L1676.44 1514.29 Z" fill="#000000" fill-rule="evenodd" fill-opacity="1" /><path clip-path="url(#clip200)" d="M2092.58 1544.91 L2100.22 1544.91 L2100.22 1518.55 L2091.91 1520.21 L2091.91 1515.95 L2100.17 1514.29 L2104.85 1514.29 L2104.85 1544.91 L2112.49 1544.91 L2112.49 1548.85 L2092.58 1548.85 L2092.58 1544.91 Z" fill="#000000" fill-rule="evenodd" fill-opacity="1" /><path clip-path="url(#clip200)" d="M2131.93 1517.37 Q2128.32 1517.37 2126.49 1520.93 Q2124.69 1524.47 2124.69 1531.6 Q2124.69 1538.71 2126.49 1542.27 Q2128.32 1545.82 2131.93 1545.82 Q2135.57 1545.82 2137.37 1542.27 Q2139.2 1538.71 2139.2 1531.6 Q2139.2 1524.47 2137.37 1520.93 Q2135.57 1517.37 2131.93 1517.37 M2131.93 1513.66 Q2137.74 1513.66 2140.8 1518.27 Q2143.88 1522.85 2143.88 1531.6 Q2143.88 1540.33 2140.8 1544.94 Q2137.74 1549.52 2131.93 1549.52 Q2126.12 1549.52 2123.05 1544.94 Q2119.99 1540.33 2119.99 1531.6 Q2119.99 1522.85 2123.05 1518.27 Q2126.12 1513.66 2131.93 1513.66 Z" fill="#000000" fill-rule="evenodd" fill-opacity="1" /><polyline clip-path="url(#clip202)" style="stroke:#000000; stroke-linecap:butt; stroke-linejoin:round; stroke-width:2; stroke-opacity:0.1; fill:none" points="
  156.112,1447.87 2352.76,1447.87 
  "/>
<polyline clip-path="url(#clip202)" style="stroke:#000000; stroke-linecap:butt; stroke-linejoin:round; stroke-width:2; stroke-opacity:0.1; fill:none" points="
  156.112,1089.65 2352.76,1089.65 
  "/>
<polyline clip-path="url(#clip202)" style="stroke:#000000; stroke-linecap:butt; stroke-linejoin:round; stroke-width:2; stroke-opacity:0.1; fill:none" points="
  156.112,731.43 2352.76,731.43 
  "/>
<polyline clip-path="url(#clip202)" style="stroke:#000000; stroke-linecap:butt; stroke-linejoin:round; stroke-width:2; stroke-opacity:0.1; fill:none" points="
  156.112,373.208 2352.76,373.208 
  "/>
<polyline clip-path="url(#clip200)" style="stroke:#000000; stroke-linecap:butt; stroke-linejoin:round; stroke-width:4; stroke-opacity:1; fill:none" points="
  156.112,1486.45 156.112,123.472 
  "/>
<polyline clip-path="url(#clip200)" style="stroke:#000000; stroke-linecap:butt; stroke-linejoin:round; stroke-width:4; stroke-opacity:1; fill:none" points="
  156.112,1447.87 175.01,1447.87 
  "/>
<polyline clip-path="url(#clip200)" style="stroke:#000000; stroke-linecap:butt; stroke-linejoin:round; stroke-width:4; stroke-opacity:1; fill:none" points="
  156.112,1089.65 175.01,1089.65 
  "/>
<polyline clip-path="url(#clip200)" style="stroke:#000000; stroke-linecap:butt; stroke-linejoin:round; stroke-width:4; stroke-opacity:1; fill:none" points="
  156.112,731.43 175.01,731.43 
  "/>
<polyline clip-path="url(#clip200)" style="stroke:#000000; stroke-linecap:butt; stroke-linejoin:round; stroke-width:4; stroke-opacity:1; fill:none" points="
  156.112,373.208 175.01,373.208 
  "/>
<path clip-path="url(#clip200)" d="M62.9365 1433.67 Q59.3254 1433.67 57.4967 1437.24 Q55.6912 1440.78 55.6912 1447.91 Q55.6912 1455.01 57.4967 1458.58 Q59.3254 1462.12 62.9365 1462.12 Q66.5707 1462.12 68.3763 1458.58 Q70.205 1455.01 70.205 1447.91 Q70.205 1440.78 68.3763 1437.24 Q66.5707 1433.67 62.9365 1433.67 M62.9365 1429.97 Q68.7467 1429.97 71.8022 1434.57 Q74.8809 1439.16 74.8809 1447.91 Q74.8809 1456.63 71.8022 1461.24 Q68.7467 1465.82 62.9365 1465.82 Q57.1264 1465.82 54.0477 1461.24 Q50.9921 1456.63 50.9921 1447.91 Q50.9921 1439.16 54.0477 1434.57 Q57.1264 1429.97 62.9365 1429.97 Z" fill="#000000" fill-rule="evenodd" fill-opacity="1" /><path clip-path="url(#clip200)" d="M83.0984 1459.27 L87.9827 1459.27 L87.9827 1465.15 L83.0984 1465.15 L83.0984 1459.27 Z" fill="#000000" fill-rule="evenodd" fill-opacity="1" /><path clip-path="url(#clip200)" d="M108.168 1433.67 Q104.557 1433.67 102.728 1437.24 Q100.922 1440.78 100.922 1447.91 Q100.922 1455.01 102.728 1458.58 Q104.557 1462.12 108.168 1462.12 Q111.802 1462.12 113.608 1458.58 Q115.436 1455.01 115.436 1447.91 Q115.436 1440.78 113.608 1437.24 Q111.802 1433.67 108.168 1433.67 M108.168 1429.97 Q113.978 1429.97 117.033 1434.57 Q120.112 1439.16 120.112 1447.91 Q120.112 1456.63 117.033 1461.24 Q113.978 1465.82 108.168 1465.82 Q102.358 1465.82 99.2789 1461.24 Q96.2234 1456.63 96.2234 1447.91 Q96.2234 1439.16 99.2789 1434.57 Q102.358 1429.97 108.168 1429.97 Z" fill="#000000" fill-rule="evenodd" fill-opacity="1" /><path clip-path="url(#clip200)" d="M64.1634 1075.45 Q60.5523 1075.45 58.7236 1079.01 Q56.918 1082.56 56.918 1089.69 Q56.918 1096.79 58.7236 1100.36 Q60.5523 1103.9 64.1634 1103.9 Q67.7976 1103.9 69.6031 1100.36 Q71.4318 1096.79 71.4318 1089.69 Q71.4318 1082.56 69.6031 1079.01 Q67.7976 1075.45 64.1634 1075.45 M64.1634 1071.75 Q69.9735 1071.75 73.029 1076.35 Q76.1077 1080.94 76.1077 1089.69 Q76.1077 1098.41 73.029 1103.02 Q69.9735 1107.6 64.1634 1107.6 Q58.3532 1107.6 55.2745 1103.02 Q52.219 1098.41 52.219 1089.69 Q52.219 1080.94 55.2745 1076.35 Q58.3532 1071.75 64.1634 1071.75 Z" fill="#000000" fill-rule="evenodd" fill-opacity="1" /><path clip-path="url(#clip200)" d="M84.3253 1101.05 L89.2095 1101.05 L89.2095 1106.93 L84.3253 1106.93 L84.3253 1101.05 Z" fill="#000000" fill-rule="evenodd" fill-opacity="1" /><path clip-path="url(#clip200)" d="M100.205 1103 L107.844 1103 L107.844 1076.63 L99.5335 1078.3 L99.5335 1074.04 L107.797 1072.37 L112.473 1072.37 L112.473 1103 L120.112 1103 L120.112 1106.93 L100.205 1106.93 L100.205 1103 Z" fill="#000000" fill-rule="evenodd" fill-opacity="1" /><path clip-path="url(#clip200)" d="M64.5337 717.228 Q60.9226 717.228 59.0939 720.793 Q57.2884 724.335 57.2884 731.464 Q57.2884 738.571 59.0939 742.136 Q60.9226 745.677 64.5337 745.677 Q68.168 745.677 69.9735 742.136 Q71.8022 738.571 71.8022 731.464 Q71.8022 724.335 69.9735 720.793 Q68.168 717.228 64.5337 717.228 M64.5337 713.525 Q70.3439 713.525 73.3994 718.131 Q76.4781 722.714 76.4781 731.464 Q76.4781 740.191 73.3994 744.798 Q70.3439 749.381 64.5337 749.381 Q58.7236 749.381 55.6449 744.798 Q52.5893 740.191 52.5893 731.464 Q52.5893 722.714 55.6449 718.131 Q58.7236 713.525 64.5337 713.525 Z" fill="#000000" fill-rule="evenodd" fill-opacity="1" /><path clip-path="url(#clip200)" d="M84.6956 742.83 L89.5799 742.83 L89.5799 748.71 L84.6956 748.71 L84.6956 742.83 Z" fill="#000000" fill-rule="evenodd" fill-opacity="1" /><path clip-path="url(#clip200)" d="M103.793 744.774 L120.112 744.774 L120.112 748.71 L98.1678 748.71 L98.1678 744.774 Q100.83 742.02 105.413 737.39 Q110.02 732.737 111.2 731.395 Q113.445 728.872 114.325 727.136 Q115.228 725.376 115.228 723.687 Q115.228 720.932 113.283 719.196 Q111.362 717.46 108.26 717.46 Q106.061 717.46 103.608 718.224 Q101.177 718.988 98.3993 720.538 L98.3993 715.816 Q101.223 714.682 103.677 714.103 Q106.131 713.525 108.168 713.525 Q113.538 713.525 116.733 716.21 Q119.927 718.895 119.927 723.386 Q119.927 725.515 119.117 727.437 Q118.33 729.335 116.223 731.927 Q115.645 732.599 112.543 735.816 Q109.441 739.011 103.793 744.774 Z" fill="#000000" fill-rule="evenodd" fill-opacity="1" /><path clip-path="url(#clip200)" d="M63.5847 359.006 Q59.9736 359.006 58.1449 362.571 Q56.3393 366.113 56.3393 373.243 Q56.3393 380.349 58.1449 383.914 Q59.9736 387.455 63.5847 387.455 Q67.2189 387.455 69.0244 383.914 Q70.8531 380.349 70.8531 373.243 Q70.8531 366.113 69.0244 362.571 Q67.2189 359.006 63.5847 359.006 M63.5847 355.303 Q69.3948 355.303 72.4503 359.909 Q75.529 364.493 75.529 373.243 Q75.529 381.969 72.4503 386.576 Q69.3948 391.159 63.5847 391.159 Q57.7745 391.159 54.6958 386.576 Q51.6403 381.969 51.6403 373.243 Q51.6403 364.493 54.6958 359.909 Q57.7745 355.303 63.5847 355.303 Z" fill="#000000" fill-rule="evenodd" fill-opacity="1" /><path clip-path="url(#clip200)" d="M83.7466 384.608 L88.6308 384.608 L88.6308 390.488 L83.7466 390.488 L83.7466 384.608 Z" fill="#000000" fill-rule="evenodd" fill-opacity="1" /><path clip-path="url(#clip200)" d="M112.983 371.854 Q116.339 372.571 118.214 374.84 Q120.112 377.108 120.112 380.442 Q120.112 385.557 116.594 388.358 Q113.075 391.159 106.594 391.159 Q104.418 391.159 102.103 390.719 Q99.8113 390.303 97.3576 389.446 L97.3576 384.932 Q99.3021 386.067 101.617 386.645 Q103.932 387.224 106.455 387.224 Q110.853 387.224 113.145 385.488 Q115.459 383.752 115.459 380.442 Q115.459 377.386 113.307 375.673 Q111.177 373.937 107.358 373.937 L103.33 373.937 L103.33 370.094 L107.543 370.094 Q110.992 370.094 112.82 368.729 Q114.649 367.34 114.649 364.747 Q114.649 362.085 112.751 360.673 Q110.876 359.238 107.358 359.238 Q105.436 359.238 103.237 359.655 Q101.038 360.071 98.3993 360.951 L98.3993 356.784 Q101.061 356.044 103.376 355.673 Q105.714 355.303 107.774 355.303 Q113.098 355.303 116.2 357.733 Q119.302 360.141 119.302 364.261 Q119.302 367.131 117.658 369.122 Q116.015 371.09 112.983 371.854 Z" fill="#000000" fill-rule="evenodd" fill-opacity="1" /><path clip-path="url(#clip200)" d="M762.229 12.096 L773.247 12.096 L800.064 62.6918 L800.064 12.096 L808.004 12.096 L808.004 72.576 L796.986 72.576 L770.169 21.9802 L770.169 72.576 L762.229 72.576 L762.229 12.096 Z" fill="#000000" fill-rule="evenodd" fill-opacity="1" /><path clip-path="url(#clip200)" d="M824.289 12.096 L836.482 12.096 L851.916 53.2532 L867.431 12.096 L879.624 12.096 L879.624 72.576 L871.644 72.576 L871.644 19.4686 L856.048 60.9499 L847.825 60.9499 L832.229 19.4686 L832.229 72.576 L824.289 72.576 L824.289 12.096 Z" fill="#000000" fill-rule="evenodd" fill-opacity="1" /><path clip-path="url(#clip200)" d="M895.868 12.096 L930.625 12.096 L930.625 18.9825 L904.051 18.9825 L904.051 36.8065 L928.032 36.8065 L928.032 43.6931 L904.051 43.6931 L904.051 72.576 L895.868 72.576 L895.868 12.096 Z" fill="#000000" fill-rule="evenodd" fill-opacity="1" /><path clip-path="url(#clip200)" d="M965.301 27.2059 L972.754 27.2059 L982.071 62.6108 L991.348 27.2059 L1000.14 27.2059 L1009.46 62.6108 L1018.73 27.2059 L1026.19 27.2059 L1014.32 72.576 L1005.53 72.576 L995.764 35.3887 L985.96 72.576 L977.17 72.576 L965.301 27.2059 Z" fill="#000000" fill-rule="evenodd" fill-opacity="1" /><path clip-path="url(#clip200)" d="M1037.49 27.2059 L1044.94 27.2059 L1044.94 72.576 L1037.49 72.576 L1037.49 27.2059 M1037.49 9.54393 L1044.94 9.54393 L1044.94 18.9825 L1037.49 18.9825 L1037.49 9.54393 Z" fill="#000000" fill-rule="evenodd" fill-opacity="1" /><path clip-path="url(#clip200)" d="M1067.91 14.324 L1067.91 27.2059 L1083.26 27.2059 L1083.26 32.9987 L1067.91 32.9987 L1067.91 57.6282 Q1067.91 63.1779 1069.41 64.7578 Q1070.95 66.3376 1075.61 66.3376 L1083.26 66.3376 L1083.26 72.576 L1075.61 72.576 Q1066.98 72.576 1063.7 69.3758 Q1060.42 66.1351 1060.42 57.6282 L1060.42 32.9987 L1054.95 32.9987 L1054.95 27.2059 L1060.42 27.2059 L1060.42 14.324 L1067.91 14.324 Z" fill="#000000" fill-rule="evenodd" fill-opacity="1" /><path clip-path="url(#clip200)" d="M1130.78 45.1919 L1130.78 72.576 L1123.33 72.576 L1123.33 45.4349 Q1123.33 38.994 1120.81 35.7938 Q1118.3 32.5936 1113.28 32.5936 Q1107.24 32.5936 1103.76 36.4419 Q1100.28 40.2903 1100.28 46.9338 L1100.28 72.576 L1092.78 72.576 L1092.78 9.54393 L1100.28 9.54393 L1100.28 34.2544 Q1102.95 30.163 1106.56 28.1376 Q1110.2 26.1121 1114.94 26.1121 Q1122.76 26.1121 1126.77 30.9732 Q1130.78 35.7938 1130.78 45.1919 Z" fill="#000000" fill-rule="evenodd" fill-opacity="1" /><path clip-path="url(#clip200)" d="M1172.34 12.096 L1207.1 12.096 L1207.1 18.9825 L1180.53 18.9825 L1180.53 36.8065 L1204.51 36.8065 L1204.51 43.6931 L1180.53 43.6931 L1180.53 72.576 L1172.34 72.576 L1172.34 12.096 Z" fill="#000000" fill-rule="evenodd" fill-opacity="1" /><path clip-path="url(#clip200)" d="M1239.99 34.1734 Q1238.74 33.4443 1237.24 33.1202 Q1235.78 32.7556 1234 32.7556 Q1227.68 32.7556 1224.28 36.8875 Q1220.91 40.9789 1220.91 48.6757 L1220.91 72.576 L1213.42 72.576 L1213.42 27.2059 L1220.91 27.2059 L1220.91 34.2544 Q1223.26 30.1225 1227.03 28.1376 Q1230.8 26.1121 1236.18 26.1121 Q1236.95 26.1121 1237.89 26.2337 Q1238.82 26.3147 1239.95 26.5172 L1239.99 34.1734 Z" fill="#000000" fill-rule="evenodd" fill-opacity="1" /><path clip-path="url(#clip200)" d="M1263.57 32.4315 Q1257.57 32.4315 1254.09 37.1306 Q1250.61 41.7891 1250.61 49.9314 Q1250.61 58.0738 1254.05 62.7728 Q1257.53 67.4314 1263.57 67.4314 Q1269.52 67.4314 1273.01 62.7323 Q1276.49 58.0333 1276.49 49.9314 Q1276.49 41.8701 1273.01 37.1711 Q1269.52 32.4315 1263.57 32.4315 M1263.57 26.1121 Q1273.29 26.1121 1278.84 32.4315 Q1284.39 38.7509 1284.39 49.9314 Q1284.39 61.0714 1278.84 67.4314 Q1273.29 73.7508 1263.57 73.7508 Q1253.81 73.7508 1248.26 67.4314 Q1242.75 61.0714 1242.75 49.9314 Q1242.75 38.7509 1248.26 32.4315 Q1253.81 26.1121 1263.57 26.1121 Z" fill="#000000" fill-rule="evenodd" fill-opacity="1" /><path clip-path="url(#clip200)" d="M1329.31 49.9314 Q1329.31 41.7081 1325.91 37.0496 Q1322.55 32.3505 1316.64 32.3505 Q1310.72 32.3505 1307.32 37.0496 Q1303.96 41.7081 1303.96 49.9314 Q1303.96 58.1548 1307.32 62.8538 Q1310.72 67.5124 1316.64 67.5124 Q1322.55 67.5124 1325.91 62.8538 Q1329.31 58.1548 1329.31 49.9314 M1303.96 34.0924 Q1306.31 30.0415 1309.87 28.0971 Q1313.48 26.1121 1318.46 26.1121 Q1326.72 26.1121 1331.87 32.6746 Q1337.05 39.2371 1337.05 49.9314 Q1337.05 60.6258 1331.87 67.1883 Q1326.72 73.7508 1318.46 73.7508 Q1313.48 73.7508 1309.87 71.8063 Q1306.31 69.8214 1303.96 65.7705 L1303.96 72.576 L1296.46 72.576 L1296.46 9.54393 L1303.96 9.54393 L1303.96 34.0924 Z" fill="#000000" fill-rule="evenodd" fill-opacity="1" /><path clip-path="url(#clip200)" d="M1388.22 48.0275 L1388.22 51.6733 L1353.94 51.6733 Q1354.43 59.3701 1358.56 63.421 Q1362.73 67.4314 1370.15 67.4314 Q1374.44 67.4314 1378.45 66.3781 Q1382.5 65.3249 1386.47 63.2184 L1386.47 70.267 Q1382.46 71.9684 1378.25 72.8596 Q1374.04 73.7508 1369.7 73.7508 Q1358.85 73.7508 1352.49 67.4314 Q1346.17 61.1119 1346.17 50.3365 Q1346.17 39.1965 1352.16 32.6746 Q1358.2 26.1121 1368.41 26.1121 Q1377.56 26.1121 1382.87 32.0264 Q1388.22 37.9003 1388.22 48.0275 M1380.76 45.84 Q1380.68 39.7232 1377.32 36.0774 Q1374 32.4315 1368.49 32.4315 Q1362.25 32.4315 1358.48 35.9558 Q1354.75 39.4801 1354.19 45.8805 L1380.76 45.84 Z" fill="#000000" fill-rule="evenodd" fill-opacity="1" /><path clip-path="url(#clip200)" d="M1438.16 45.1919 L1438.16 72.576 L1430.71 72.576 L1430.71 45.4349 Q1430.71 38.994 1428.2 35.7938 Q1425.69 32.5936 1420.66 32.5936 Q1414.63 32.5936 1411.14 36.4419 Q1407.66 40.2903 1407.66 46.9338 L1407.66 72.576 L1400.17 72.576 L1400.17 27.2059 L1407.66 27.2059 L1407.66 34.2544 Q1410.33 30.163 1413.94 28.1376 Q1417.58 26.1121 1422.32 26.1121 Q1430.14 26.1121 1434.15 30.9732 Q1438.16 35.7938 1438.16 45.1919 Z" fill="#000000" fill-rule="evenodd" fill-opacity="1" /><path clip-path="url(#clip200)" d="M1453.03 27.2059 L1460.48 27.2059 L1460.48 72.576 L1453.03 72.576 L1453.03 27.2059 M1453.03 9.54393 L1460.48 9.54393 L1460.48 18.9825 L1453.03 18.9825 L1453.03 9.54393 Z" fill="#000000" fill-rule="evenodd" fill-opacity="1" /><path clip-path="url(#clip200)" d="M1475.31 54.671 L1475.31 27.2059 L1482.76 27.2059 L1482.76 54.3874 Q1482.76 60.8284 1485.27 64.0691 Q1487.79 67.2693 1492.81 67.2693 Q1498.85 67.2693 1502.33 63.421 Q1505.85 59.5726 1505.85 52.9291 L1505.85 27.2059 L1513.31 27.2059 L1513.31 72.576 L1505.85 72.576 L1505.85 65.6084 Q1503.14 69.7404 1499.53 71.7658 Q1495.97 73.7508 1491.23 73.7508 Q1483.41 73.7508 1479.36 68.8897 Q1475.31 64.0286 1475.31 54.671 M1494.07 26.1121 L1494.07 26.1121 Z" fill="#000000" fill-rule="evenodd" fill-opacity="1" /><path clip-path="url(#clip200)" d="M1557.58 28.5427 L1557.58 35.5912 Q1554.42 33.9709 1551.02 33.1607 Q1547.62 32.3505 1543.97 32.3505 Q1538.42 32.3505 1535.63 34.0519 Q1532.87 35.7533 1532.87 39.156 Q1532.87 41.7486 1534.86 43.2475 Q1536.84 44.7058 1542.84 46.0426 L1545.39 46.6097 Q1553.33 48.3111 1556.65 51.4303 Q1560.01 54.509 1560.01 60.0587 Q1560.01 66.3781 1554.99 70.0644 Q1550.01 73.7508 1541.26 73.7508 Q1537.61 73.7508 1533.64 73.0216 Q1529.71 72.3329 1525.34 70.9151 L1525.34 63.2184 Q1529.47 65.3654 1533.48 66.4591 Q1537.49 67.5124 1541.42 67.5124 Q1546.69 67.5124 1549.52 65.73 Q1552.36 63.9071 1552.36 60.6258 Q1552.36 57.5877 1550.29 55.9673 Q1548.27 54.3469 1541.34 52.8481 L1538.75 52.2405 Q1531.82 50.7821 1528.74 47.7845 Q1525.66 44.7463 1525.66 39.4801 Q1525.66 33.0797 1530.2 29.5959 Q1534.74 26.1121 1543.08 26.1121 Q1547.21 26.1121 1550.86 26.7198 Q1554.5 27.3274 1557.58 28.5427 Z" fill="#000000" fill-rule="evenodd" fill-opacity="1" /><path clip-path="url(#clip200)" d="M1598.25 9.54393 L1605.71 9.54393 L1605.71 72.576 L1598.25 72.576 L1598.25 9.54393 Z" fill="#000000" fill-rule="evenodd" fill-opacity="1" /><path clip-path="url(#clip200)" d="M1638.89 32.4315 Q1632.89 32.4315 1629.41 37.1306 Q1625.92 41.7891 1625.92 49.9314 Q1625.92 58.0738 1629.37 62.7728 Q1632.85 67.4314 1638.89 67.4314 Q1644.84 67.4314 1648.32 62.7323 Q1651.81 58.0333 1651.81 49.9314 Q1651.81 41.8701 1648.32 37.1711 Q1644.84 32.4315 1638.89 32.4315 M1638.89 26.1121 Q1648.61 26.1121 1654.16 32.4315 Q1659.71 38.7509 1659.71 49.9314 Q1659.71 61.0714 1654.16 67.4314 Q1648.61 73.7508 1638.89 73.7508 Q1629.12 73.7508 1623.57 67.4314 Q1618.06 61.0714 1618.06 49.9314 Q1618.06 38.7509 1623.57 32.4315 Q1629.12 26.1121 1638.89 26.1121 Z" fill="#000000" fill-rule="evenodd" fill-opacity="1" /><path clip-path="url(#clip200)" d="M1700.99 28.5427 L1700.99 35.5912 Q1697.83 33.9709 1694.42 33.1607 Q1691.02 32.3505 1687.37 32.3505 Q1681.82 32.3505 1679.03 34.0519 Q1676.27 35.7533 1676.27 39.156 Q1676.27 41.7486 1678.26 43.2475 Q1680.24 44.7058 1686.24 46.0426 L1688.79 46.6097 Q1696.73 48.3111 1700.05 51.4303 Q1703.42 54.509 1703.42 60.0587 Q1703.42 66.3781 1698.39 70.0644 Q1693.41 73.7508 1684.66 73.7508 Q1681.01 73.7508 1677.04 73.0216 Q1673.12 72.3329 1668.74 70.9151 L1668.74 63.2184 Q1672.87 65.3654 1676.88 66.4591 Q1680.89 67.5124 1684.82 67.5124 Q1690.09 67.5124 1692.92 65.73 Q1695.76 63.9071 1695.76 60.6258 Q1695.76 57.5877 1693.69 55.9673 Q1691.67 54.3469 1684.74 52.8481 L1682.15 52.2405 Q1675.22 50.7821 1672.14 47.7845 Q1669.06 44.7463 1669.06 39.4801 Q1669.06 33.0797 1673.6 29.5959 Q1678.14 26.1121 1686.48 26.1121 Q1690.62 26.1121 1694.26 26.7198 Q1697.91 27.3274 1700.99 28.5427 Z" fill="#000000" fill-rule="evenodd" fill-opacity="1" /><path clip-path="url(#clip200)" d="M1744.21 28.5427 L1744.21 35.5912 Q1741.05 33.9709 1737.65 33.1607 Q1734.24 32.3505 1730.6 32.3505 Q1725.05 32.3505 1722.25 34.0519 Q1719.5 35.7533 1719.5 39.156 Q1719.5 41.7486 1721.48 43.2475 Q1723.47 44.7058 1729.46 46.0426 L1732.02 46.6097 Q1739.96 48.3111 1743.28 51.4303 Q1746.64 54.509 1746.64 60.0587 Q1746.64 66.3781 1741.62 70.0644 Q1736.63 73.7508 1727.88 73.7508 Q1724.24 73.7508 1720.27 73.0216 Q1716.34 72.3329 1711.96 70.9151 L1711.96 63.2184 Q1716.1 65.3654 1720.11 66.4591 Q1724.12 67.5124 1728.05 67.5124 Q1733.31 67.5124 1736.15 65.73 Q1738.98 63.9071 1738.98 60.6258 Q1738.98 57.5877 1736.92 55.9673 Q1734.89 54.3469 1727.96 52.8481 L1725.37 52.2405 Q1718.44 50.7821 1715.37 47.7845 Q1712.29 44.7463 1712.29 39.4801 Q1712.29 33.0797 1716.82 29.5959 Q1721.36 26.1121 1729.71 26.1121 Q1733.84 26.1121 1737.48 26.7198 Q1741.13 27.3274 1744.21 28.5427 Z" fill="#000000" fill-rule="evenodd" fill-opacity="1" /><polyline clip-path="url(#clip202)" style="stroke:#e31a1c; stroke-linecap:butt; stroke-linejoin:round; stroke-width:4; stroke-opacity:1; fill:none" points="
  218.281,1447.87 239.214,1447.87 260.146,1447.87 281.078,1447.87 302.011,1447.87 322.943,1447.86 343.876,1447.81 364.808,1447.64 385.74,1447.16 406.673,1445.9 
  427.605,1442.93 448.537,1436.65 469.47,1424.71 490.402,1404.26 511.335,1372.6 532.267,1328.16 553.199,1271.29 574.132,1204.36 595.064,1131.07 615.996,1055.52 
  636.929,982.853 657.861,945.475 678.794,950.069 699.726,985.824 720.658,1050.05 741.591,1127.81 762.523,1224.06 783.456,1324.55 804.388,1403.55 825.32,1440.8 
  846.253,1447.24 867.185,1447.81 888.117,1447.86 909.05,1447.87 929.982,1447.87 950.915,1447.87 971.847,1447.85 992.779,1438.71 1013.71,1407.55 1034.64,1359.52 
  1055.58,1288.14 1076.51,1188.2 1097.44,1058.92 1118.37,907.712 1139.31,751.632 1160.24,606.482 1181.17,566.461 1202.1,590.799 1223.04,671.75 1243.97,789.204 
  1264.9,918.692 1285.83,1039.52 1306.76,1162.69 1327.7,1266.47 1348.63,1346.5 1369.56,1404.29 1390.49,1445.43 1411.43,1447.86 1432.36,1447.87 1453.29,1447.87 
  1474.22,1447.87 1495.16,1447.87 1516.09,1447.87 1537.02,1447.87 1557.95,1447.87 1578.89,1447.87 1599.82,1447.87 1620.75,1447.87 1641.68,1447.87 1662.62,1447.87 
  1683.55,1447.87 1704.48,1437.29 1725.41,1309.42 1746.34,1106.42 1767.28,871.492 1788.21,638.558 1809.14,441.707 1830.07,293.564 1851.01,281.705 1871.94,361.477 
  1892.87,501.797 1913.8,681.507 1934.74,872.492 1955.67,1048.14 1976.6,1191.93 1997.53,1297.45 2018.47,1364.4 2039.4,1401.93 2060.33,1421.27 2081.26,1431.47 
  2102.2,1437.65 2123.13,1441.6 2144.06,1444.19 2164.99,1445.87 2185.92,1446.88 2206.86,1447.43 2227.79,1447.7 2248.72,1447.81 2269.65,1447.85 2290.59,1447.87 
  
  "/>
<polyline clip-path="url(#clip202)" style="stroke:#377db8; stroke-linecap:butt; stroke-linejoin:round; stroke-width:4; stroke-opacity:1; fill:none" points="
  218.281,1447.87 239.214,1447.87 260.146,1447.87 281.078,1447.87 302.011,1447.87 322.943,1447.86 343.876,1447.81 364.808,1447.65 385.74,1447.18 406.673,1445.95 
  427.605,1443.04 448.537,1436.92 469.47,1425.44 490.402,1406.27 511.335,1377.79 532.267,1340.14 553.199,1295.87 574.132,1249.47 595.064,1205.85 615.996,1168.57 
  636.929,1139.76 657.861,1142.42 678.794,1176 699.726,1225.34 720.658,1284.51 741.591,1386.16 762.523,1447.36 783.456,1447.86 804.388,1447.87 825.32,1447.87 
  846.253,1447.87 867.185,1447.86 888.117,1447.85 909.05,1447.86 929.982,1447.87 950.915,1447.87 971.847,1447.87 992.779,1447.87 1013.71,1447.87 1034.64,1447.87 
  1055.58,1447.87 1076.51,1447.87 1097.44,1447.87 1118.37,1447.87 1139.31,1447.87 1160.24,1313.5 1181.17,1190.98 1202.1,1039.41 1223.04,879.179 1243.97,739.378 
  1264.9,648.587 1285.83,624.522 1306.76,687.746 1327.7,807.371 1348.63,953.366 1369.56,1098.09 1390.49,1221.31 1411.43,1317.48 1432.36,1380.98 1453.29,1416.27 
  1474.22,1429.11 1495.16,1423.46 1516.09,1400.97 1537.02,1358.64 1557.95,1289.71 1578.89,1185.1 1599.82,1037.32 1620.75,846.842 1641.68,629.622 1662.62,419.395 
  1683.55,252.941 1704.48,162.047 1725.41,201.386 1746.34,355.16 1767.28,588.46 1788.21,857.136 1809.14,1116.84 1830.07,1447.85 1851.01,1447.87 1871.94,1447.87 
  1892.87,1447.87 1913.8,1447.87 1934.74,1447.87 1955.67,1447.87 1976.6,1447.87 1997.53,1447.87 2018.47,1447.87 2039.4,1447.87 2060.33,1447.74 2081.26,1446.27 
  2102.2,1446.21 2123.13,1446.73 2144.06,1447.2 2164.99,1447.52 2185.92,1447.7 2206.86,1447.8 2227.79,1447.85 2248.72,1447.86 2269.65,1447.87 2290.59,1447.87 
  
  "/>
<polyline clip-path="url(#clip202)" style="stroke:#4dae49; stroke-linecap:butt; stroke-linejoin:round; stroke-width:4; stroke-opacity:1; fill:none" points="
  218.281,1447.87 239.214,1447.87 260.146,1447.87 281.078,1447.87 302.011,1447.87 322.943,1447.87 343.876,1447.87 364.808,1447.87 385.74,1447.87 406.673,1447.87 
  427.605,1447.87 448.537,1447.87 469.47,1447.87 490.402,1447.87 511.335,1447.87 532.267,1447.87 553.199,1447.87 574.132,1447.87 595.064,1447.87 615.996,1447.87 
  636.929,1445.17 657.861,1349.02 678.794,1157.53 699.726,930.889 720.658,694.957 741.591,457.969 762.523,282.551 783.456,191.481 804.388,174.389 825.32,240.732 
  846.253,377.113 867.185,554.793 888.117,748.03 909.05,931.938 929.982,1086.3 950.915,1199.64 971.847,1269.74 992.779,1305.15 1013.71,1318.43 1034.64,1312.44 
  1055.58,1295.17 1076.51,1275.23 1097.44,1261.75 1118.37,1261.98 1139.31,1278.11 1160.24,1447.75 1181.17,1447.87 1202.1,1447.87 1223.04,1447.87 1243.97,1447.87 
  1264.9,1447.87 1285.83,1447.87 1306.76,1370.21 1327.7,1275.21 1348.63,1185.98 1369.56,1117.55 1390.49,1080.48 1411.43,1090.05 1432.36,1128.3 1453.29,1184.04 
  1474.22,1243.16 1495.16,1292.49 1516.09,1323.57 1537.02,1336 1557.95,1336.85 1578.89,1337.86 1599.82,1350.45 1620.75,1379.45 1641.68,1416 1662.62,1437.86 
  1683.55,1442.11 1704.48,1446.91 1725.41,1447.02 1746.34,1446.79 1767.28,1445.85 1788.21,1444.38 1809.14,1444.59 1830.07,1387.81 1851.01,1447.73 1871.94,1447.87 
  1892.87,1447.87 1913.8,1447.87 1934.74,1447.87 1955.67,1447.58 1976.6,1443.32 1997.53,1435.16 2018.47,1433.2 2039.4,1436.77 2060.33,1442.09 2081.26,1446.81 
  2102.2,1447.87 2123.13,1447.87 2144.06,1447.87 2164.99,1447.87 2185.92,1447.87 2206.86,1447.87 2227.79,1447.87 2248.72,1447.87 2269.65,1447.87 2290.59,1447.87 
  
  "/>
<path clip-path="url(#clip200)" d="
M1986.53 376.265 L2279.53 376.265 L2279.53 168.905 L1986.53 168.905  Z
  " fill="#ffffff" fill-rule="evenodd" fill-opacity="1"/>
<polyline clip-path="url(#clip200)" style="stroke:#000000; stroke-linecap:butt; stroke-linejoin:round; stroke-width:4; stroke-opacity:1; fill:none" points="
  1986.53,376.265 2279.53,376.265 2279.53,168.905 1986.53,168.905 1986.53,376.265 
  "/>
<polyline clip-path="url(#clip200)" style="stroke:#e31a1c; stroke-linecap:butt; stroke-linejoin:round; stroke-width:4; stroke-opacity:1; fill:none" points="
  2010.53,220.745 2154.53,220.745 
  "/>
<path clip-path="url(#clip200)" d="M2192.37 240.432 Q2190.56 245.062 2188.85 246.474 Q2187.14 247.886 2184.27 247.886 L2180.86 247.886 L2180.86 244.321 L2183.36 244.321 Q2185.12 244.321 2186.09 243.488 Q2187.07 242.654 2188.25 239.552 L2189.01 237.608 L2178.53 212.099 L2183.04 212.099 L2191.14 232.377 L2199.24 212.099 L2203.76 212.099 L2192.37 240.432 Z" fill="#000000" fill-rule="evenodd" fill-opacity="1" /><path clip-path="url(#clip200)" d="M2211.05 234.089 L2218.69 234.089 L2218.69 207.724 L2210.38 209.391 L2210.38 205.131 L2218.64 203.465 L2223.32 203.465 L2223.32 234.089 L2230.96 234.089 L2230.96 238.025 L2211.05 238.025 L2211.05 234.089 Z" fill="#000000" fill-rule="evenodd" fill-opacity="1" /><polyline clip-path="url(#clip200)" style="stroke:#377db8; stroke-linecap:butt; stroke-linejoin:round; stroke-width:4; stroke-opacity:1; fill:none" points="
  2010.53,272.585 2154.53,272.585 
  "/>
<path clip-path="url(#clip200)" d="M2192.37 292.272 Q2190.56 296.902 2188.85 298.314 Q2187.14 299.726 2184.27 299.726 L2180.86 299.726 L2180.86 296.161 L2183.36 296.161 Q2185.12 296.161 2186.09 295.328 Q2187.07 294.494 2188.25 291.392 L2189.01 289.448 L2178.53 263.939 L2183.04 263.939 L2191.14 284.217 L2199.24 263.939 L2203.76 263.939 L2192.37 292.272 Z" fill="#000000" fill-rule="evenodd" fill-opacity="1" /><path clip-path="url(#clip200)" d="M2214.27 285.929 L2230.59 285.929 L2230.59 289.865 L2208.64 289.865 L2208.64 285.929 Q2211.3 283.175 2215.89 278.545 Q2220.49 273.893 2221.67 272.55 Q2223.92 270.027 2224.8 268.291 Q2225.7 266.531 2225.7 264.842 Q2225.7 262.087 2223.76 260.351 Q2221.84 258.615 2218.73 258.615 Q2216.53 258.615 2214.08 259.379 Q2211.65 260.143 2208.87 261.694 L2208.87 256.971 Q2211.7 255.837 2214.15 255.258 Q2216.6 254.68 2218.64 254.68 Q2224.01 254.68 2227.21 257.365 Q2230.4 260.05 2230.4 264.541 Q2230.4 266.67 2229.59 268.592 Q2228.8 270.49 2226.7 273.082 Q2226.12 273.754 2223.02 276.971 Q2219.91 280.166 2214.27 285.929 Z" fill="#000000" fill-rule="evenodd" fill-opacity="1" /><polyline clip-path="url(#clip200)" style="stroke:#4dae49; stroke-linecap:butt; stroke-linejoin:round; stroke-width:4; stroke-opacity:1; fill:none" points="
  2010.53,324.425 2154.53,324.425 
  "/>
<path clip-path="url(#clip200)" d="M2192.37 344.112 Q2190.56 348.742 2188.85 350.154 Q2187.14 351.566 2184.27 351.566 L2180.86 351.566 L2180.86 348.001 L2183.36 348.001 Q2185.12 348.001 2186.09 347.168 Q2187.07 346.334 2188.25 343.232 L2189.01 341.288 L2178.53 315.779 L2183.04 315.779 L2191.14 336.057 L2199.24 315.779 L2203.76 315.779 L2192.37 344.112 Z" fill="#000000" fill-rule="evenodd" fill-opacity="1" /><path clip-path="url(#clip200)" d="M2224.4 323.07 Q2227.76 323.788 2229.64 326.057 Q2231.53 328.325 2231.53 331.658 Q2231.53 336.774 2228.02 339.575 Q2224.5 342.376 2218.02 342.376 Q2215.84 342.376 2213.53 341.936 Q2211.23 341.519 2208.78 340.663 L2208.78 336.149 Q2210.72 337.283 2213.04 337.862 Q2215.35 338.441 2217.88 338.441 Q2222.28 338.441 2224.57 336.705 Q2226.88 334.969 2226.88 331.658 Q2226.88 328.603 2224.73 326.89 Q2222.6 325.154 2218.78 325.154 L2214.75 325.154 L2214.75 321.311 L2218.97 321.311 Q2222.41 321.311 2224.24 319.946 Q2226.07 318.557 2226.07 315.964 Q2226.07 313.302 2224.17 311.89 Q2222.3 310.455 2218.78 310.455 Q2216.86 310.455 2214.66 310.871 Q2212.46 311.288 2209.82 312.168 L2209.82 308.001 Q2212.48 307.26 2214.8 306.89 Q2217.14 306.52 2219.2 306.52 Q2224.52 306.52 2227.62 308.95 Q2230.72 311.358 2230.72 315.478 Q2230.72 318.348 2229.08 320.339 Q2227.44 322.307 2224.4 323.07 Z" fill="#000000" fill-rule="evenodd" fill-opacity="1" /></svg>
