<?xml version="1.0" encoding="utf-8"?>
<svg xmlns="http://www.w3.org/2000/svg" xmlns:xlink="http://www.w3.org/1999/xlink" width="600" height="400" viewBox="0 0 2400 1600">
<defs>
  <clipPath id="clip890">
    <rect x="0" y="0" width="2400" height="1600"/>
  </clipPath>
</defs>
<path clip-path="url(#clip890)" d="
M0 1600 L2400 1600 L2400 0 L0 0  Z
  " fill="#ffffff" fill-rule="evenodd" fill-opacity="1"/>
<defs>
  <clipPath id="clip891">
    <rect x="480" y="0" width="1681" height="1600"/>
  </clipPath>
</defs>
<path clip-path="url(#clip890)" d="
M186.76 1486.45 L2352.76 1486.45 L2352.76 47.2441 L186.76 47.2441  Z
  " fill="#ffffff" fill-rule="evenodd" fill-opacity="1"/>
<defs>
  <clipPath id="clip892">
    <rect x="186" y="47" width="2167" height="1440"/>
  </clipPath>
</defs>
<polyline clip-path="url(#clip892)" style="stroke:#000000; stroke-linecap:butt; stroke-linejoin:round; stroke-width:2; stroke-opacity:0.1; fill:none" points="
  248.062,1486.45 248.062,47.2441 
  "/>
<polyline clip-path="url(#clip892)" style="stroke:#000000; stroke-linecap:butt; stroke-linejoin:round; stroke-width:2; stroke-opacity:0.1; fill:none" points="
  758.91,1486.45 758.91,47.2441 
  "/>
<polyline clip-path="url(#clip892)" style="stroke:#000000; stroke-linecap:butt; stroke-linejoin:round; stroke-width:2; stroke-opacity:0.1; fill:none" points="
  1269.76,1486.45 1269.76,47.2441 
  "/>
<polyline clip-path="url(#clip892)" style="stroke:#000000; stroke-linecap:butt; stroke-linejoin:round; stroke-width:2; stroke-opacity:0.1; fill:none" points="
  1780.61,1486.45 1780.61,47.2441 
  "/>
<polyline clip-path="url(#clip892)" style="stroke:#000000; stroke-linecap:butt; stroke-linejoin:round; stroke-width:2; stroke-opacity:0.1; fill:none" points="
  2291.45,1486.45 2291.45,47.2441 
  "/>
<polyline clip-path="url(#clip890)" style="stroke:#000000; stroke-linecap:butt; stroke-linejoin:round; stroke-width:4; stroke-opacity:1; fill:none" points="
  186.76,1486.45 2352.76,1486.45 
  "/>
<polyline clip-path="url(#clip890)" style="stroke:#000000; stroke-linecap:butt; stroke-linejoin:round; stroke-width:4; stroke-opacity:1; fill:none" points="
  248.062,1486.45 248.062,1467.55 
  "/>
<polyline clip-path="url(#clip890)" style="stroke:#000000; stroke-linecap:butt; stroke-linejoin:round; stroke-width:4; stroke-opacity:1; fill:none" points="
  758.91,1486.45 758.91,1467.55 
  "/>
<polyline clip-path="url(#clip890)" style="stroke:#000000; stroke-linecap:butt; stroke-linejoin:round; stroke-width:4; stroke-opacity:1; fill:none" points="
  1269.76,1486.45 1269.76,1467.55 
  "/>
<polyline clip-path="url(#clip890)" style="stroke:#000000; stroke-linecap:butt; stroke-linejoin:round; stroke-width:4; stroke-opacity:1; fill:none" points="
  1780.61,1486.45 1780.61,1467.55 
  "/>
<polyline clip-path="url(#clip890)" style="stroke:#000000; stroke-linecap:butt; stroke-linejoin:round; stroke-width:4; stroke-opacity:1; fill:none" points="
  2291.45,1486.45 2291.45,1467.55 
  "/>
<path clip-path="url(#clip890)" d="M218.004 1532.02 L247.68 1532.02 L247.68 1535.95 L218.004 1535.95 L218.004 1532.02 Z" fill="#000000" fill-rule="evenodd" fill-opacity="1" /><path clip-path="url(#clip890)" d="M261.8 1544.91 L278.12 1544.91 L278.12 1548.85 L256.175 1548.85 L256.175 1544.91 Q258.837 1542.16 263.421 1537.53 Q268.027 1532.88 269.208 1531.53 Q271.453 1529.01 272.333 1527.27 Q273.235 1525.51 273.235 1523.82 Q273.235 1521.07 271.291 1519.33 Q269.37 1517.6 266.268 1517.6 Q264.069 1517.6 261.615 1518.36 Q259.185 1519.13 256.407 1520.68 L256.407 1515.95 Q259.231 1514.82 261.684 1514.24 Q264.138 1513.66 266.175 1513.66 Q271.546 1513.66 274.74 1516.35 Q277.934 1519.03 277.934 1523.52 Q277.934 1525.65 277.124 1527.57 Q276.337 1529.47 274.231 1532.07 Q273.652 1532.74 270.55 1535.95 Q267.448 1539.15 261.8 1544.91 Z" fill="#000000" fill-rule="evenodd" fill-opacity="1" /><path clip-path="url(#clip890)" d="M728.667 1532.02 L758.343 1532.02 L758.343 1535.95 L728.667 1535.95 L728.667 1532.02 Z" fill="#000000" fill-rule="evenodd" fill-opacity="1" /><path clip-path="url(#clip890)" d="M769.246 1544.91 L776.884 1544.91 L776.884 1518.55 L768.574 1520.21 L768.574 1515.95 L776.838 1514.29 L781.514 1514.29 L781.514 1544.91 L789.153 1544.91 L789.153 1548.85 L769.246 1548.85 L769.246 1544.91 Z" fill="#000000" fill-rule="evenodd" fill-opacity="1" /><path clip-path="url(#clip890)" d="M1269.76 1517.37 Q1266.15 1517.37 1264.32 1520.93 Q1262.51 1524.47 1262.51 1531.6 Q1262.51 1538.71 1264.32 1542.27 Q1266.15 1545.82 1269.76 1545.82 Q1273.39 1545.82 1275.2 1542.27 Q1277.03 1538.71 1277.03 1531.6 Q1277.03 1524.47 1275.2 1520.93 Q1273.39 1517.37 1269.76 1517.37 M1269.76 1513.66 Q1275.57 1513.66 1278.62 1518.27 Q1281.7 1522.85 1281.7 1531.6 Q1281.7 1540.33 1278.62 1544.94 Q1275.57 1549.52 1269.76 1549.52 Q1263.95 1549.52 1260.87 1544.94 Q1257.81 1540.33 1257.81 1531.6 Q1257.81 1522.85 1260.87 1518.27 Q1263.95 1513.66 1269.76 1513.66 Z" fill="#000000" fill-rule="evenodd" fill-opacity="1" /><path clip-path="url(#clip890)" d="M1770.99 1544.91 L1778.63 1544.91 L1778.63 1518.55 L1770.32 1520.21 L1770.32 1515.95 L1778.58 1514.29 L1783.26 1514.29 L1783.26 1544.91 L1790.9 1544.91 L1790.9 1548.85 L1770.99 1548.85 L1770.99 1544.91 Z" fill="#000000" fill-rule="evenodd" fill-opacity="1" /><path clip-path="url(#clip890)" d="M2286.11 1544.91 L2302.43 1544.91 L2302.43 1548.85 L2280.48 1548.85 L2280.48 1544.91 Q2283.14 1542.16 2287.73 1537.53 Q2292.33 1532.88 2293.51 1531.53 Q2295.76 1529.01 2296.64 1527.27 Q2297.54 1525.51 2297.54 1523.82 Q2297.54 1521.07 2295.6 1519.33 Q2293.68 1517.6 2290.57 1517.6 Q2288.38 1517.6 2285.92 1518.36 Q2283.49 1519.13 2280.71 1520.68 L2280.71 1515.95 Q2283.54 1514.82 2285.99 1514.24 Q2288.44 1513.66 2290.48 1513.66 Q2295.85 1513.66 2299.05 1516.35 Q2302.24 1519.03 2302.24 1523.52 Q2302.24 1525.65 2301.43 1527.57 Q2300.64 1529.47 2298.54 1532.07 Q2297.96 1532.74 2294.86 1535.95 Q2291.76 1539.15 2286.11 1544.91 Z" fill="#000000" fill-rule="evenodd" fill-opacity="1" /><polyline clip-path="url(#clip892)" style="stroke:#000000; stroke-linecap:butt; stroke-linejoin:round; stroke-width:2; stroke-opacity:0.1; fill:none" points="
  186.76,1445.72 2352.76,1445.72 
  "/>
<polyline clip-path="url(#clip892)" style="stroke:#000000; stroke-linecap:butt; stroke-linejoin:round; stroke-width:2; stroke-opacity:0.1; fill:none" points="
  186.76,1147.42 2352.76,1147.42 
  "/>
<polyline clip-path="url(#clip892)" style="stroke:#000000; stroke-linecap:butt; stroke-linejoin:round; stroke-width:2; stroke-opacity:0.1; fill:none" points="
  186.76,849.126 2352.76,849.126 
  "/>
<polyline clip-path="url(#clip892)" style="stroke:#000000; stroke-linecap:butt; stroke-linejoin:round; stroke-width:2; stroke-opacity:0.1; fill:none" points="
  186.76,550.832 2352.76,550.832 
  "/>
<polyline clip-path="url(#clip892)" style="stroke:#000000; stroke-linecap:butt; stroke-linejoin:round; stroke-width:2; stroke-opacity:0.1; fill:none" points="
  186.76,252.537 2352.76,252.537 
  "/>
<polyline clip-path="url(#clip890)" style="stroke:#000000; stroke-linecap:butt; stroke-linejoin:round; stroke-width:4; stroke-opacity:1; fill:none" points="
  186.76,1486.45 186.76,47.2441 
  "/>
<polyline clip-path="url(#clip890)" style="stroke:#000000; stroke-linecap:butt; stroke-linejoin:round; stroke-width:4; stroke-opacity:1; fill:none" points="
  186.76,1445.72 205.658,1445.72 
  "/>
<polyline clip-path="url(#clip890)" style="stroke:#000000; stroke-linecap:butt; stroke-linejoin:round; stroke-width:4; stroke-opacity:1; fill:none" points="
  186.76,1147.42 205.658,1147.42 
  "/>
<polyline clip-path="url(#clip890)" style="stroke:#000000; stroke-linecap:butt; stroke-linejoin:round; stroke-width:4; stroke-opacity:1; fill:none" points="
  186.76,849.126 205.658,849.126 
  "/>
<polyline clip-path="url(#clip890)" style="stroke:#000000; stroke-linecap:butt; stroke-linejoin:round; stroke-width:4; stroke-opacity:1; fill:none" points="
  186.76,550.832 205.658,550.832 
  "/>
<polyline clip-path="url(#clip890)" style="stroke:#000000; stroke-linecap:butt; stroke-linejoin:round; stroke-width:4; stroke-opacity:1; fill:none" points="
  186.76,252.537 205.658,252.537 
  "/>
<path clip-path="url(#clip890)" d="M63.4226 1431.51 Q59.8115 1431.51 57.9828 1435.08 Q56.1773 1438.62 56.1773 1445.75 Q56.1773 1452.86 57.9828 1456.42 Q59.8115 1459.96 63.4226 1459.96 Q67.0569 1459.96 68.8624 1456.42 Q70.6911 1452.86 70.6911 1445.75 Q70.6911 1438.62 68.8624 1435.08 Q67.0569 1431.51 63.4226 1431.51 M63.4226 1427.81 Q69.2328 1427.81 72.2883 1432.42 Q75.367 1437 75.367 1445.75 Q75.367 1454.48 72.2883 1459.08 Q69.2328 1463.67 63.4226 1463.67 Q57.6125 1463.67 54.5338 1459.08 Q51.4782 1454.48 51.4782 1445.75 Q51.4782 1437 54.5338 1432.42 Q57.6125 1427.81 63.4226 1427.81 Z" fill="#000000" fill-rule="evenodd" fill-opacity="1" /><path clip-path="url(#clip890)" d="M83.5845 1457.12 L88.4688 1457.12 L88.4688 1463 L83.5845 1463 L83.5845 1457.12 Z" fill="#000000" fill-rule="evenodd" fill-opacity="1" /><path clip-path="url(#clip890)" d="M108.654 1431.51 Q105.043 1431.51 103.214 1435.08 Q101.409 1438.62 101.409 1445.75 Q101.409 1452.86 103.214 1456.42 Q105.043 1459.96 108.654 1459.96 Q112.288 1459.96 114.094 1456.42 Q115.922 1452.86 115.922 1445.75 Q115.922 1438.62 114.094 1435.08 Q112.288 1431.51 108.654 1431.51 M108.654 1427.81 Q114.464 1427.81 117.52 1432.42 Q120.598 1437 120.598 1445.75 Q120.598 1454.48 117.52 1459.08 Q114.464 1463.67 108.654 1463.67 Q102.844 1463.67 99.765 1459.08 Q96.7095 1454.48 96.7095 1445.75 Q96.7095 1437 99.765 1432.42 Q102.844 1427.81 108.654 1427.81 Z" fill="#000000" fill-rule="evenodd" fill-opacity="1" /><path clip-path="url(#clip890)" d="M138.816 1431.51 Q135.205 1431.51 133.376 1435.08 Q131.57 1438.62 131.57 1445.75 Q131.57 1452.86 133.376 1456.42 Q135.205 1459.96 138.816 1459.96 Q142.45 1459.96 144.256 1456.42 Q146.084 1452.86 146.084 1445.75 Q146.084 1438.62 144.256 1435.08 Q142.45 1431.51 138.816 1431.51 M138.816 1427.81 Q144.626 1427.81 147.681 1432.42 Q150.76 1437 150.76 1445.75 Q150.76 1454.48 147.681 1459.08 Q144.626 1463.67 138.816 1463.67 Q133.006 1463.67 129.927 1459.08 Q126.871 1454.48 126.871 1445.75 Q126.871 1437 129.927 1432.42 Q133.006 1427.81 138.816 1427.81 Z" fill="#000000" fill-rule="evenodd" fill-opacity="1" /><path clip-path="url(#clip890)" d="M64.6495 1133.22 Q61.0384 1133.22 59.2097 1136.78 Q57.4041 1140.33 57.4041 1147.46 Q57.4041 1154.56 59.2097 1158.13 Q61.0384 1161.67 64.6495 1161.67 Q68.2837 1161.67 70.0892 1158.13 Q71.9179 1154.56 71.9179 1147.46 Q71.9179 1140.33 70.0892 1136.78 Q68.2837 1133.22 64.6495 1133.22 M64.6495 1129.52 Q70.4596 1129.52 73.5152 1134.12 Q76.5938 1138.71 76.5938 1147.46 Q76.5938 1156.18 73.5152 1160.79 Q70.4596 1165.37 64.6495 1165.37 Q58.8393 1165.37 55.7606 1160.79 Q52.7051 1156.18 52.7051 1147.46 Q52.7051 1138.71 55.7606 1134.12 Q58.8393 1129.52 64.6495 1129.52 Z" fill="#000000" fill-rule="evenodd" fill-opacity="1" /><path clip-path="url(#clip890)" d="M84.8114 1158.82 L89.6956 1158.82 L89.6956 1164.7 L84.8114 1164.7 L84.8114 1158.82 Z" fill="#000000" fill-rule="evenodd" fill-opacity="1" /><path clip-path="url(#clip890)" d="M109.881 1133.22 Q106.27 1133.22 104.441 1136.78 Q102.635 1140.33 102.635 1147.46 Q102.635 1154.56 104.441 1158.13 Q106.27 1161.67 109.881 1161.67 Q113.515 1161.67 115.32 1158.13 Q117.149 1154.56 117.149 1147.46 Q117.149 1140.33 115.32 1136.78 Q113.515 1133.22 109.881 1133.22 M109.881 1129.52 Q115.691 1129.52 118.746 1134.12 Q121.825 1138.71 121.825 1147.46 Q121.825 1156.18 118.746 1160.79 Q115.691 1165.37 109.881 1165.37 Q104.071 1165.37 100.992 1160.79 Q97.9363 1156.18 97.9363 1147.46 Q97.9363 1138.71 100.992 1134.12 Q104.071 1129.52 109.881 1129.52 Z" fill="#000000" fill-rule="evenodd" fill-opacity="1" /><path clip-path="url(#clip890)" d="M130.853 1160.77 L138.492 1160.77 L138.492 1134.4 L130.182 1136.07 L130.182 1131.81 L138.445 1130.14 L143.121 1130.14 L143.121 1160.77 L150.76 1160.77 L150.76 1164.7 L130.853 1164.7 L130.853 1160.77 Z" fill="#000000" fill-rule="evenodd" fill-opacity="1" /><path clip-path="url(#clip890)" d="M65.0198 834.925 Q61.4087 834.925 59.58 838.49 Q57.7745 842.031 57.7745 849.161 Q57.7745 856.268 59.58 859.832 Q61.4087 863.374 65.0198 863.374 Q68.6541 863.374 70.4596 859.832 Q72.2883 856.268 72.2883 849.161 Q72.2883 842.031 70.4596 838.49 Q68.6541 834.925 65.0198 834.925 M65.0198 831.221 Q70.83 831.221 73.8855 835.828 Q76.9642 840.411 76.9642 849.161 Q76.9642 857.888 73.8855 862.494 Q70.83 867.078 65.0198 867.078 Q59.2097 867.078 56.131 862.494 Q53.0754 857.888 53.0754 849.161 Q53.0754 840.411 56.131 835.828 Q59.2097 831.221 65.0198 831.221 Z" fill="#000000" fill-rule="evenodd" fill-opacity="1" /><path clip-path="url(#clip890)" d="M85.1818 860.527 L90.066 860.527 L90.066 866.406 L85.1818 866.406 L85.1818 860.527 Z" fill="#000000" fill-rule="evenodd" fill-opacity="1" /><path clip-path="url(#clip890)" d="M110.251 834.925 Q106.64 834.925 104.811 838.49 Q103.006 842.031 103.006 849.161 Q103.006 856.268 104.811 859.832 Q106.64 863.374 110.251 863.374 Q113.885 863.374 115.691 859.832 Q117.52 856.268 117.52 849.161 Q117.52 842.031 115.691 838.49 Q113.885 834.925 110.251 834.925 M110.251 831.221 Q116.061 831.221 119.117 835.828 Q122.195 840.411 122.195 849.161 Q122.195 857.888 119.117 862.494 Q116.061 867.078 110.251 867.078 Q104.441 867.078 101.362 862.494 Q98.3067 857.888 98.3067 849.161 Q98.3067 840.411 101.362 835.828 Q104.441 831.221 110.251 831.221 Z" fill="#000000" fill-rule="evenodd" fill-opacity="1" /><path clip-path="url(#clip890)" d="M134.441 862.471 L150.76 862.471 L150.76 866.406 L128.816 866.406 L128.816 862.471 Q131.478 859.717 136.061 855.087 Q140.668 850.434 141.848 849.092 Q144.093 846.569 144.973 844.832 Q145.876 843.073 145.876 841.383 Q145.876 838.629 143.931 836.893 Q142.01 835.157 138.908 835.157 Q136.709 835.157 134.256 835.92 Q131.825 836.684 129.047 838.235 L129.047 833.513 Q131.871 832.379 134.325 831.8 Q136.779 831.221 138.816 831.221 Q144.186 831.221 147.38 833.907 Q150.575 836.592 150.575 841.082 Q150.575 843.212 149.765 845.133 Q148.978 847.031 146.871 849.624 Q146.293 850.295 143.191 853.513 Q140.089 856.707 134.441 862.471 Z" fill="#000000" fill-rule="evenodd" fill-opacity="1" /><path clip-path="url(#clip890)" d="M64.0708 536.63 Q60.4597 536.63 58.631 540.195 Q56.8254 543.737 56.8254 550.866 Q56.8254 557.973 58.631 561.538 Q60.4597 565.079 64.0708 565.079 Q67.705 565.079 69.5105 561.538 Q71.3392 557.973 71.3392 550.866 Q71.3392 543.737 69.5105 540.195 Q67.705 536.63 64.0708 536.63 M64.0708 532.927 Q69.8809 532.927 72.9365 537.533 Q76.0151 542.116 76.0151 550.866 Q76.0151 559.593 72.9365 564.2 Q69.8809 568.783 64.0708 568.783 Q58.2606 568.783 55.1819 564.2 Q52.1264 559.593 52.1264 550.866 Q52.1264 542.116 55.1819 537.533 Q58.2606 532.927 64.0708 532.927 Z" fill="#000000" fill-rule="evenodd" fill-opacity="1" /><path clip-path="url(#clip890)" d="M84.2327 562.232 L89.1169 562.232 L89.1169 568.112 L84.2327 568.112 L84.2327 562.232 Z" fill="#000000" fill-rule="evenodd" fill-opacity="1" /><path clip-path="url(#clip890)" d="M109.302 536.63 Q105.691 536.63 103.862 540.195 Q102.057 543.737 102.057 550.866 Q102.057 557.973 103.862 561.538 Q105.691 565.079 109.302 565.079 Q112.936 565.079 114.742 561.538 Q116.57 557.973 116.57 550.866 Q116.57 543.737 114.742 540.195 Q112.936 536.63 109.302 536.63 M109.302 532.927 Q115.112 532.927 118.168 537.533 Q121.246 542.116 121.246 550.866 Q121.246 559.593 118.168 564.2 Q115.112 568.783 109.302 568.783 Q103.492 568.783 100.413 564.2 Q97.3576 559.593 97.3576 550.866 Q97.3576 542.116 100.413 537.533 Q103.492 532.927 109.302 532.927 Z" fill="#000000" fill-rule="evenodd" fill-opacity="1" /><path clip-path="url(#clip890)" d="M143.631 549.477 Q146.987 550.195 148.862 552.464 Q150.76 554.732 150.76 558.065 Q150.76 563.181 147.242 565.982 Q143.723 568.783 137.242 568.783 Q135.066 568.783 132.751 568.343 Q130.459 567.926 128.006 567.07 L128.006 562.556 Q129.95 563.69 132.265 564.269 Q134.58 564.848 137.103 564.848 Q141.501 564.848 143.793 563.112 Q146.107 561.376 146.107 558.065 Q146.107 555.01 143.955 553.297 Q141.825 551.561 138.006 551.561 L133.978 551.561 L133.978 547.718 L138.191 547.718 Q141.64 547.718 143.468 546.352 Q145.297 544.964 145.297 542.371 Q145.297 539.709 143.399 538.297 Q141.524 536.862 138.006 536.862 Q136.084 536.862 133.885 537.278 Q131.686 537.695 129.047 538.575 L129.047 534.408 Q131.709 533.667 134.024 533.297 Q136.362 532.927 138.422 532.927 Q143.746 532.927 146.848 535.357 Q149.95 537.765 149.95 541.885 Q149.95 544.755 148.306 546.746 Q146.663 548.714 143.631 549.477 Z" fill="#000000" fill-rule="evenodd" fill-opacity="1" /><path clip-path="url(#clip890)" d="M62.9365 238.336 Q59.3254 238.336 57.4967 241.9 Q55.6912 245.442 55.6912 252.572 Q55.6912 259.678 57.4967 263.243 Q59.3254 266.784 62.9365 266.784 Q66.5707 266.784 68.3763 263.243 Q70.205 259.678 70.205 252.572 Q70.205 245.442 68.3763 241.9 Q66.5707 238.336 62.9365 238.336 M62.9365 234.632 Q68.7467 234.632 71.8022 239.238 Q74.8809 243.822 74.8809 252.572 Q74.8809 261.298 71.8022 265.905 Q68.7467 270.488 62.9365 270.488 Q57.1264 270.488 54.0477 265.905 Q50.9921 261.298 50.9921 252.572 Q50.9921 243.822 54.0477 239.238 Q57.1264 234.632 62.9365 234.632 Z" fill="#000000" fill-rule="evenodd" fill-opacity="1" /><path clip-path="url(#clip890)" d="M83.0984 263.937 L87.9827 263.937 L87.9827 269.817 L83.0984 269.817 L83.0984 263.937 Z" fill="#000000" fill-rule="evenodd" fill-opacity="1" /><path clip-path="url(#clip890)" d="M108.168 238.336 Q104.557 238.336 102.728 241.9 Q100.922 245.442 100.922 252.572 Q100.922 259.678 102.728 263.243 Q104.557 266.784 108.168 266.784 Q111.802 266.784 113.608 263.243 Q115.436 259.678 115.436 252.572 Q115.436 245.442 113.608 241.9 Q111.802 238.336 108.168 238.336 M108.168 234.632 Q113.978 234.632 117.033 239.238 Q120.112 243.822 120.112 252.572 Q120.112 261.298 117.033 265.905 Q113.978 270.488 108.168 270.488 Q102.358 270.488 99.2789 265.905 Q96.2234 261.298 96.2234 252.572 Q96.2234 243.822 99.2789 239.238 Q102.358 234.632 108.168 234.632 Z" fill="#000000" fill-rule="evenodd" fill-opacity="1" /><path clip-path="url(#clip890)" d="M141.177 239.331 L129.371 257.78 L141.177 257.78 L141.177 239.331 M139.95 235.257 L145.83 235.257 L145.83 257.78 L150.76 257.78 L150.76 261.669 L145.83 261.669 L145.83 269.817 L141.177 269.817 L141.177 261.669 L125.575 261.669 L125.575 257.155 L139.95 235.257 Z" fill="#000000" fill-rule="evenodd" fill-opacity="1" /><polyline clip-path="url(#clip892)" style="stroke:#009af9; stroke-linecap:butt; stroke-linejoin:round; stroke-width:4; stroke-opacity:1; fill:none" points="
  248.062,1445.72 268.702,1445.72 289.343,1445.72 309.983,1445.71 330.623,1445.71 351.264,1445.71 371.904,1445.71 392.544,1445.71 413.184,1445.7 433.825,1445.69 
  454.465,1445.66 475.105,1445.63 495.746,1445.58 516.386,1445.49 537.026,1445.35 557.667,1445.14 578.307,1444.82 598.947,1444.34 619.588,1443.63 640.228,1442.59 
  660.868,1441.09 681.509,1438.95 702.149,1435.97 722.789,1431.85 743.43,1426.24 764.07,1418.72 784.71,1408.79 805.351,1395.85 825.991,1379.25 846.631,1358.27 
  867.272,1332.17 887.912,1300.19 908.552,1261.63 929.193,1215.86 949.833,1162.45 970.473,1101.15 991.114,1032.02 1011.75,955.471 1032.39,872.293 1053.03,783.705 
  1073.67,691.347 1094.32,597.258 1114.96,503.815 1135.6,413.649 1156.24,329.524 1176.88,254.205 1197.52,190.306 1218.16,140.143 1238.8,105.593 1259.44,87.9763 
  1280.08,87.9763 1300.72,105.593 1321.36,140.143 1342,190.306 1362.64,254.205 1383.28,329.524 1403.92,413.649 1424.56,503.815 1445.2,597.258 1465.84,691.347 
  1486.48,783.705 1507.12,872.293 1527.76,955.471 1548.4,1032.02 1569.04,1101.15 1589.68,1162.45 1610.32,1215.86 1630.96,1261.63 1651.6,1300.19 1672.24,1332.17 
  1692.88,1358.27 1713.53,1379.25 1734.17,1395.85 1754.81,1408.79 1775.45,1418.72 1796.09,1426.24 1816.73,1431.85 1837.37,1435.97 1858.01,1438.95 1878.65,1441.09 
  1899.29,1442.59 1919.93,1443.63 1940.57,1444.34 1961.21,1444.82 1981.85,1445.14 2002.49,1445.35 2023.13,1445.49 2043.77,1445.58 2064.41,1445.63 2085.05,1445.66 
  2105.69,1445.69 2126.33,1445.7 2146.97,1445.71 2167.61,1445.71 2188.25,1445.71 2208.89,1445.71 2229.53,1445.71 2250.17,1445.72 2270.81,1445.72 2291.45,1445.72 
  
  "/>
<polyline clip-path="url(#clip892)" style="stroke:#e26f46; stroke-linecap:butt; stroke-linejoin:round; stroke-width:4; stroke-opacity:1; fill:none" points="
  248.062,1445.71 268.702,1445.71 289.343,1445.7 309.983,1445.69 330.623,1445.67 351.264,1445.63 371.904,1445.57 392.544,1445.47 413.184,1445.32 433.825,1445.07 
  454.465,1444.67 475.105,1444.07 495.746,1443.15 516.386,1441.77 537.026,1439.75 557.667,1436.81 578.307,1432.63 598.947,1426.76 619.588,1418.67 640.228,1407.7 
  660.868,1393.1 681.509,1373.99 702.149,1349.45 722.789,1318.53 743.43,1280.33 764.07,1234.11 784.71,1179.36 805.351,1116 825.991,1044.44 846.631,965.786 
  867.272,881.85 887.912,795.264 908.552,709.439 929.193,628.468 949.833,556.926 970.473,499.59 991.114,461.056 1011.75,445.318 1032.39,455.316 1053.03,492.517 
  1073.67,556.575 1094.32,645.13 1114.96,753.778 1135.6,876.241 1156.24,1004.75 1176.88,1130.61 1197.52,1244.87 1218.16,1339.15 1238.8,1406.34 1259.44,1441.28 
  1280.08,1441.28 1300.72,1406.34 1321.36,1339.15 1342,1244.87 1362.64,1130.61 1383.28,1004.75 1403.92,876.241 1424.56,753.778 1445.2,645.13 1465.84,556.575 
  1486.48,492.517 1507.12,455.316 1527.76,445.318 1548.4,461.056 1569.04,499.59 1589.68,556.926 1610.32,628.468 1630.96,709.439 1651.6,795.264 1672.24,881.85 
  1692.88,965.786 1713.53,1044.44 1734.17,1116 1754.81,1179.36 1775.45,1234.11 1796.09,1280.33 1816.73,1318.53 1837.37,1349.45 1858.01,1373.99 1878.65,1393.1 
  1899.29,1407.7 1919.93,1418.67 1940.57,1426.76 1961.21,1432.63 1981.85,1436.81 2002.49,1439.75 2023.13,1441.77 2043.77,1443.15 2064.41,1444.07 2085.05,1444.67 
  2105.69,1445.07 2126.33,1445.32 2146.97,1445.47 2167.61,1445.57 2188.25,1445.63 2208.89,1445.67 2229.53,1445.69 2250.17,1445.7 2270.81,1445.71 2291.45,1445.71 
  
  "/>
<path clip-path="url(#clip890)" d="
M2011.94 250.738 L2280.56 250.738 L2280.56 95.2176 L2011.94 95.2176  Z
  " fill="#ffffff" fill-rule="evenodd" fill-opacity="1"/>
<polyline clip-path="url(#clip890)" style="stroke:#000000; stroke-linecap:butt; stroke-linejoin:round; stroke-width:4; stroke-opacity:1; fill:none" points="
  2011.94,250.738 2280.56,250.738 2280.56,95.2176 2011.94,95.2176 2011.94,250.738 
  "/>
<polyline clip-path="url(#clip890)" style="stroke:#009af9; stroke-linecap:butt; stroke-linejoin:round; stroke-width:4; stroke-opacity:1; fill:none" points="
  2035.94,147.058 2179.94,147.058 
  "/>
<path clip-path="url(#clip890)" d="M2229.93 152.474 Q2229.33 155.495 2228.51 157.229 Q2227.19 159.875 2224.95 159.875 Q2223.35 159.875 2222.13 158.915 Q2220.94 157.955 2220.64 156.362 Q2220.03 157.088 2219.58 157.51 Q2219.16 157.931 2218.32 158.587 Q2217.5 159.22 2216.47 159.548 Q2215.44 159.875 2214.26 159.875 Q2211.41 159.875 2209.6 158.376 Q2207.17 168.19 2206.96 168.682 Q2206.28 169.689 2205.29 169.689 Q2204.68 169.689 2204.31 169.315 Q2203.94 168.963 2203.94 168.401 Q2203.96 168.214 2204.1 167.628 L2210.99 139.873 Q2211.17 139.123 2211.64 138.702 Q2212.13 138.257 2212.41 138.21 Q2212.7 138.139 2212.91 138.139 Q2213.54 138.139 2213.91 138.491 Q2214.31 138.819 2214.31 139.428 Q2214.31 139.521 2214.17 140.06 Q2214.05 140.575 2213.87 141.372 Q2213.68 142.145 2213.59 142.496 L2211.57 150.553 Q2210.89 153.317 2210.89 154.629 Q2210.89 156.62 2211.78 157.721 Q2212.7 158.798 2214.45 158.798 Q2215.55 158.798 2216.58 158.353 Q2217.61 157.885 2218.32 157.252 Q2219.02 156.62 2219.58 155.94 Q2220.14 155.238 2220.4 154.793 Q2220.66 154.324 2220.68 154.207 L2221.92 149.312 L2224.2 140.341 Q2224.34 139.779 2224.59 139.404 Q2224.88 139.006 2225.2 138.866 Q2225.53 138.725 2225.72 138.702 Q2225.91 138.655 2226.07 138.655 Q2226.66 138.655 2227.05 139.006 Q2227.45 139.357 2227.45 139.966 Q2227.45 140.083 2227.31 140.646 Q2227.19 141.184 2227.01 141.981 Q2226.82 142.754 2226.73 143.175 Q2225.98 146.126 2225.91 146.431 L2224.57 151.607 Q2224.5 151.912 2224.27 152.896 Q2224.06 153.879 2223.94 154.395 Q2223.82 154.886 2223.7 155.566 Q2223.61 156.222 2223.61 156.596 Q2223.61 158.798 2225.06 158.798 Q2225.62 158.798 2226.12 158.47 Q2226.61 158.119 2226.94 157.627 Q2227.29 157.135 2227.62 156.292 Q2227.97 155.425 2228.18 154.723 Q2228.39 153.996 2228.69 152.872 Q2228.81 152.333 2228.93 152.169 Q2229.04 152.006 2229.37 152.006 Q2229.93 152.006 2229.93 152.474 Z" fill="#000000" fill-rule="evenodd" fill-opacity="1" /><polyline clip-path="url(#clip890)" style="stroke:#e26f46; stroke-linecap:butt; stroke-linejoin:round; stroke-width:4; stroke-opacity:1; fill:none" points="
  2035.94,198.898 2179.94,198.898 
  "/>
<path clip-path="url(#clip890)" d="M2226.51 196.393 Q2226.51 196.603 2226.33 197.33 Q2226.16 198.032 2225.62 199.414 Q2225.11 200.773 2224.31 202.295 Q2223.54 203.794 2222.11 205.691 Q2220.68 207.589 2218.9 209.252 Q2215.55 212.39 2211.97 214.077 Q2208.41 215.763 2205.36 216.302 L2204.68 216.302 Q2203.94 216.302 2203.94 215.716 L2204.45 213.561 L2207.38 201.827 Q2208.29 198.243 2208.29 197.939 Q2208.29 197.657 2208.17 197.517 Q2208.08 197.353 2207.52 197.236 Q2206.98 197.119 2205.9 197.119 Q2205.46 197.119 2205.25 197.095 Q2205.06 197.072 2204.9 196.955 Q2204.73 196.814 2204.73 196.533 Q2204.73 196.135 2204.9 195.924 Q2205.08 195.69 2205.22 195.643 Q2205.36 195.596 2205.65 195.573 Q2206.04 195.549 2207.38 195.432 Q2208.71 195.292 2209.86 195.198 Q2211.01 195.104 2211.5 195.104 Q2211.78 195.104 2211.95 195.245 Q2212.11 195.362 2212.11 195.503 L2212.13 195.62 L2207.43 214.709 Q2209.16 214.147 2210.87 213.21 Q2212.6 212.273 2214.48 210.727 Q2216.35 209.158 2217.94 207.214 Q2219.53 205.27 2220.94 202.553 Q2222.37 199.812 2223.26 196.674 Q2223.42 196.041 2223.82 195.667 Q2224.24 195.292 2224.55 195.198 Q2224.85 195.104 2225.13 195.104 Q2225.77 195.104 2226.14 195.456 Q2226.51 195.784 2226.51 196.393 Z" fill="#000000" fill-rule="evenodd" fill-opacity="1" /></svg>
