<?xml version="1.0" encoding="UTF-8" standalone="no"?>
<svg
   xmlns:dc="http://purl.org/dc/elements/1.1/"
   xmlns:cc="http://creativecommons.org/ns#"
   xmlns:rdf="http://www.w3.org/1999/02/22-rdf-syntax-ns#"
   xmlns:svg="http://www.w3.org/2000/svg"
   xmlns="http://www.w3.org/2000/svg"
   xmlns:sodipodi="http://sodipodi.sourceforge.net/DTD/sodipodi-0.dtd"
   xmlns:inkscape="http://www.inkscape.org/namespaces/inkscape"
   width="185.59726mm"
   height="118.40946mm"
   viewBox="0 0 185.59726 118.40946"
   version="1.1"
   id="svg1097"
   inkscape:version="1.0.1 (3bc2e813f5, 2020-09-07)"
   sodipodi:docname="optimaltransport_logo_symbol.svg">
  <defs
     id="defs1091" />
  <sodipodi:namedview
     id="base"
     pagecolor="#ffffff"
     bordercolor="#666666"
     borderopacity="1.0"
     inkscape:pageopacity="0.0"
     inkscape:pageshadow="2"
     inkscape:zoom="0.35"
     inkscape:cx="324.45105"
     inkscape:cy="401.08424"
     inkscape:document-units="mm"
     inkscape:current-layer="layer1"
     inkscape:document-rotation="0"
     showgrid="false"
     fit-margin-top="5"
     lock-margins="true"
     fit-margin-left="5"
     fit-margin-right="5"
     fit-margin-bottom="5"
     inkscape:window-width="1458"
     inkscape:window-height="1016"
     inkscape:window-x="50"
     inkscape:window-y="27"
     inkscape:window-maximized="0" />
  <metadata
     id="metadata1094">
    <rdf:RDF>
      <cc:Work
         rdf:about="">
        <dc:format>image/svg+xml</dc:format>
        <dc:type
           rdf:resource="http://purl.org/dc/dcmitype/StillImage" />
        <dc:title />
      </cc:Work>
    </rdf:RDF>
  </metadata>
  <g
     inkscape:label="Layer 1"
     inkscape:groupmode="layer"
     id="layer1"
     transform="translate(4.3522024,-8.8309829)">
    <g
       transform="matrix(0.16620199,0,0,0.16620199,-7.7587623,-77.788831)"
       id="g38"
       style="clip-rule:evenodd;fill-rule:evenodd;stroke-linecap:round;stroke-linejoin:round;stroke-miterlimit:1.5">
      <g
         transform="matrix(0.998503,0,0,1.30695,-1286.58,-333.863)"
         id="g4">
        <path
           d="m 1352.43,926.785 c 127.79,-3.12 155.77,-235.209 257.9,-236.195 102.12,0.986 130.1,233.075 257.89,236.195 z"
           style="fill:#389826;stroke:#000000;stroke-width:26.7px;fill-opacity:1"
           id="path2" />
      </g>
      <g
         transform="matrix(-0.998503,0,0,-1.30695,2444.27,2088.65)"
         id="g8"
         style="fill:#cb3c33;fill-opacity:1">
        <path
           d="m 1352.43,926.785 c 127.79,-3.12 155.77,-235.209 257.9,-236.195 102.12,0.986 130.1,233.075 257.89,236.195 z"
           style="fill:#cb3c33;stroke:#000000;stroke-width:26.7px;fill-opacity:1"
           id="path6" />
      </g>
      <g
         transform="matrix(2.27529,0,0,2.05952,-2432.49,-1716.97)"
         id="g14">
        <path
           d="m 1231.5,1131.49 c -4.16,-9.32 -9.95,-14.2 -17.7,-13.73 l 0.14,134.41 h 17.56 z"
           style="fill:none;stroke:#000000;stroke-width:14.29px"
           id="path10" />
        <path
           d="m 1231.5,1131.49 c -4.16,-9.32 -9.95,-14.2 -17.7,-13.73 l 0.14,134.41 h 17.56 z"
           style="fill:#4063d8;fill-opacity:1"
           id="path12" />
      </g>
      <g
         transform="matrix(-2.27529,0,0,-2.05627,3593.3,3467.2)"
         id="g20"
         style="fill:#9558b2;fill-opacity:1">
        <path
           d="m 1231.5,1131.49 c -4.16,-9.32 -9.95,-14.2 -17.7,-13.73 l 0.14,134.41 h 17.56 z"
           style="fill:#9558b2;stroke:#000000;stroke-width:14.3px;fill-opacity:1"
           id="path16" />
        <path
           d="m 1231.5,1131.49 c -4.16,-9.32 -9.95,-14.2 -17.7,-13.73 l 0.14,134.41 h 17.56 z"
           style="fill:#9558b2;fill-opacity:1"
           id="path18" />
      </g>
      <g
         transform="matrix(2.15997,0,0,2.3147,-2278.48,-2021)"
         id="g28">
        <g
           transform="matrix(0.737018,0,0,0.687752,979.621,917.052)"
           id="g26">
          <path
             d="m 367.992,566.955 -33.776,-60.334 -9.18,68.533 z"
             id="path22" />
          <path
             d="m 344.054,558.168 c 30.907,111.052 113.423,135.66 221.194,117.965"
             style="fill:none;stroke:#000000;stroke-width:14.58px"
             id="path24" />
        </g>
      </g>
      <g
         transform="matrix(-2.19845,0,0,-2.3147,3486.45,3776.04)"
         id="g36">
        <g
           transform="matrix(-0.72412,0,0,-0.687752,1659.8,1587.4)"
           id="g34">
          <path
             d="m 564.849,407.366 34.296,60.702 8.985,-69.14 z"
             id="path30" />
          <path
             d="M 589.02,416.131 C 557.477,305.411 473.56,280.882 363.998,298.556"
             style="fill:none;stroke:#000000;stroke-width:14.7px"
             id="path32" />
        </g>
      </g>
    </g>
  </g>
</svg>
