<?xml version="1.0" encoding="UTF-8" standalone="no"?>
<svg
   xmlns:dc="http://purl.org/dc/elements/1.1/"
   xmlns:cc="http://creativecommons.org/ns#"
   xmlns:rdf="http://www.w3.org/1999/02/22-rdf-syntax-ns#"
   xmlns:svg="http://www.w3.org/2000/svg"
   xmlns="http://www.w3.org/2000/svg"
   xmlns:sodipodi="http://sodipodi.sourceforge.net/DTD/sodipodi-0.dtd"
   xmlns:inkscape="http://www.inkscape.org/namespaces/inkscape"
   width="1812.905"
   height="439.73654"
   viewBox="0 0 1812.9051 439.73655"
   version="1.1"
   xml:space="preserve"
   style="clip-rule:evenodd;fill-rule:evenodd;stroke-linecap:round;stroke-linejoin:round;stroke-miterlimit:1.5"
   id="svg260"
   sodipodi:docname="optimaltransport_logo.svg"
   inkscape:version="1.0.1 (3bc2e813f5, 2020-09-07)"><metadata
   id="metadata266"><rdf:RDF><cc:Work
       rdf:about=""><dc:format>image/svg+xml</dc:format><dc:type
         rdf:resource="http://purl.org/dc/dcmitype/StillImage" /><dc:title /></cc:Work></rdf:RDF></metadata><defs
   id="defs264" /><sodipodi:namedview
   pagecolor="#ffffff"
   bordercolor="#666666"
   borderopacity="1"
   objecttolerance="10"
   gridtolerance="10"
   guidetolerance="10"
   inkscape:pageopacity="0"
   inkscape:pageshadow="2"
   inkscape:window-width="1920"
   inkscape:window-height="1016"
   id="namedview262"
   showgrid="false"
   lock-margins="true"
   fit-margin-top="15"
   fit-margin-left="15"
   fit-margin-right="15"
   fit-margin-bottom="15"
   inkscape:zoom="0.5"
   inkscape:cx="764.55447"
   inkscape:cy="134.09577"
   inkscape:window-x="0"
   inkscape:window-y="27"
   inkscape:window-maximized="1"
   inkscape:current-layer="g20"
   inkscape:document-rotation="0" />
    <g
   transform="matrix(0.628165,0,0,0.628165,-16.772825,-331.27961)"
   id="g38">
        <g
   transform="matrix(0.998503,0,0,1.30695,-1286.58,-333.863)"
   id="g4">
            <path
   d="m 1352.43,926.785 c 127.79,-3.12 155.77,-235.209 257.9,-236.195 102.12,0.986 130.1,233.075 257.89,236.195 z"
   style="fill:#389826;stroke:#000000;stroke-width:26.7px;fill-opacity:1"
   id="path2" />
        </g>
        <g
   transform="matrix(-0.998503,0,0,-1.30695,2444.27,2088.65)"
   id="g8">
            <path
   d="m 1352.43,926.785 c 127.79,-3.12 155.77,-235.209 257.9,-236.195 102.12,0.986 130.1,233.075 257.89,236.195 z"
   style="fill:#cb3c33;stroke:#000000;stroke-width:26.7px;fill-opacity:1"
   id="path6" />
        </g>
        <g
   transform="matrix(2.27529,0,0,2.05952,-2432.49,-1716.97)"
   id="g14">
            <path
   d="m 1231.5,1131.49 c -4.16,-9.32 -9.95,-14.2 -17.7,-13.73 l 0.14,134.41 h 17.56 z"
   style="fill:none;stroke:#000000;stroke-width:14.29px"
   id="path10" />
            <path
   d="m 1231.5,1131.49 c -4.16,-9.32 -9.95,-14.2 -17.7,-13.73 l 0.14,134.41 h 17.56 z"
   style="fill:#4063d8;fill-opacity:1"
   id="path12" />
        </g>
        <g
   transform="matrix(-2.27529,0,0,-2.05627,3593.3,3467.2)"
   id="g20">
            <path
   d="m 1231.5,1131.49 c -4.16,-9.32 -9.95,-14.2 -17.7,-13.73 l 0.14,134.41 h 17.56 z"
   style="fill:none;stroke:#000000;stroke-width:14.3px"
   id="path16" />
            <path
   d="m 1231.5,1131.49 c -4.16,-9.32 -9.95,-14.2 -17.7,-13.73 l 0.14,134.41 h 17.56 z"
   style="fill:#9558b2;fill-opacity:1"
   id="path18" />
        </g>
        <g
   transform="matrix(2.15997,0,0,2.3147,-2278.48,-2021)"
   id="g28">
            <g
   transform="matrix(0.737018,0,0,0.687752,979.621,917.052)"
   id="g26">
                <path
   d="m 367.992,566.955 -33.776,-60.334 -9.18,68.533 z"
   id="path22" />
                <path
   d="m 344.054,558.168 c 30.907,111.052 113.423,135.66 221.194,117.965"
   style="fill:none;stroke:#000000;stroke-width:14.58px"
   id="path24" />
            </g>
        </g>
        <g
   transform="matrix(-2.19845,0,0,-2.3147,3486.45,3776.04)"
   id="g36">
            <g
   transform="matrix(-0.72412,0,0,-0.687752,1659.8,1587.4)"
   id="g34">
                <path
   d="m 564.849,407.366 34.296,60.702 8.985,-69.14 z"
   id="path30" />
                <path
   d="M 589.02,416.131 C 557.477,305.411 473.56,280.882 363.998,298.556"
   style="fill:none;stroke:#000000;stroke-width:14.7px"
   id="path32" />
            </g>
        </g>
    </g>
    
    <g
   transform="matrix(1.22992,0,0,1.22992,-743.85482,-1136.743)"
   id="g120">
        <g
   transform="matrix(92,0,0,92,1189.01,1083.24)"
   id="g46">
            <path
   d="m 0.589,-0.361 c 0,-0.081 -0.018,-0.143 -0.053,-0.187 -0.035,-0.044 -0.082,-0.066 -0.141,-0.066 -0.06,0 -0.108,0.022 -0.143,0.066 -0.036,0.044 -0.053,0.106 -0.053,0.187 0,0.081 0.017,0.144 0.053,0.188 0.035,0.044 0.083,0.066 0.143,0.066 0.059,0 0.106,-0.022 0.141,-0.066 0.035,-0.044 0.053,-0.107 0.053,-0.188 z M 0.63,-0.064 C 0.576,-0.008 0.497,0.02 0.395,0.02 0.292,0.02 0.213,-0.008 0.159,-0.064 0.086,-0.133 0.049,-0.232 0.049,-0.361 c 0,-0.132 0.037,-0.231 0.11,-0.297 0.054,-0.056 0.133,-0.084 0.236,-0.084 0.102,0 0.181,0.028 0.235,0.084 0.073,0.066 0.109,0.165 0.109,0.297 0,0.129 -0.036,0.228 -0.109,0.297 z"
   style="fill-rule:nonzero"
   id="path44" />
        </g>
        <g
   transform="matrix(92,0,0,92,1260.57,1083.24)"
   id="g50">
            <path
   d="m 0.313,-0.422 c -0.051,0 -0.086,0.024 -0.105,0.071 -0.009,0.026 -0.014,0.058 -0.014,0.097 0,0.062 0.016,0.105 0.049,0.13 0.02,0.015 0.043,0.022 0.07,0.022 0.038,0 0.068,-0.015 0.088,-0.044 0.02,-0.03 0.031,-0.07 0.031,-0.12 0,-0.041 -0.01,-0.077 -0.028,-0.109 -0.019,-0.032 -0.05,-0.047 -0.091,-0.047 z m 0.262,0.149 c 0,0.094 -0.021,0.165 -0.063,0.214 C 0.47,-0.009 0.416,0.015 0.349,0.015 0.307,0.015 0.272,0.005 0.244,-0.017 0.228,-0.028 0.213,-0.045 0.199,-0.068 V 0.209 H 0.061 v -0.741 h 0.133 v 0.078 c 0.015,-0.023 0.031,-0.041 0.048,-0.054 0.031,-0.024 0.068,-0.036 0.111,-0.036 0.062,0 0.114,0.023 0.157,0.069 0.044,0.046 0.065,0.113 0.065,0.202 z"
   style="fill-rule:nonzero"
   id="path48" />
        </g>
        <g
   transform="matrix(92,0,0,92,1316.77,1083.24)"
   id="g54">
            <path
   d="m 0.01,-0.428 v -0.099 h 0.074 v -0.149 h 0.138 v 0.149 h 0.087 v 0.099 H 0.222 v 0.281 c 0,0.022 0.003,0.035 0.008,0.041 0.006,0.005 0.023,0.008 0.051,0.008 0.004,0 0.009,0 0.014,0 0.004,-0.001 0.009,-0.001 0.014,-0.001 V 0.005 L 0.243,0.007 C 0.177,0.01 0.132,-0.002 0.108,-0.027 0.092,-0.043 0.084,-0.067 0.084,-0.101 v -0.327 z"
   style="fill-rule:nonzero"
   id="path52" />
        </g>
        <g
   transform="matrix(92,0,0,92,1347.4,1083.24)"
   id="g58">
            <path
   d="M 0.208,-0.596 H 0.067 V -0.724 H 0.208 Z M 0.067,-0.532 H 0.208 V 0 H 0.067 Z"
   style="fill-rule:nonzero"
   id="path56" />
        </g>
        <g
   transform="matrix(92,0,0,92,1372.97,1083.24)"
   id="g62">
            <path
   d="m 0.791,-0.482 c 0.015,0.018 0.025,0.041 0.03,0.068 0.004,0.018 0.005,0.044 0.005,0.079 L 0.825,0 H 0.683 v -0.339 c 0,-0.02 -0.004,-0.037 -0.01,-0.05 C 0.66,-0.413 0.638,-0.426 0.604,-0.426 0.566,-0.426 0.54,-0.41 0.525,-0.378 0.517,-0.361 0.514,-0.341 0.514,-0.317 V 0 h -0.14 v -0.317 c 0,-0.031 -0.004,-0.054 -0.01,-0.069 -0.012,-0.025 -0.035,-0.038 -0.069,-0.038 -0.04,0 -0.066,0.013 -0.08,0.038 -0.008,0.015 -0.011,0.037 -0.011,0.066 V 0 H 0.063 v -0.531 h 0.135 v 0.077 c 0.017,-0.027 0.033,-0.047 0.049,-0.059 0.027,-0.021 0.062,-0.031 0.105,-0.031 0.04,0 0.073,0.009 0.098,0.027 0.02,0.017 0.036,0.038 0.046,0.064 0.018,-0.031 0.041,-0.054 0.068,-0.069 0.029,-0.015 0.061,-0.022 0.096,-0.022 0.023,0 0.046,0.005 0.069,0.014 0.023,0.009 0.043,0.025 0.062,0.048 z"
   style="fill-rule:nonzero"
   id="path60" />
        </g>
        <g
   transform="matrix(92,0,0,92,1454.77,1083.24)"
   id="g66">
            <path
   d="M 0.358,-0.259 C 0.35,-0.253 0.341,-0.249 0.332,-0.245 0.323,-0.242 0.311,-0.239 0.295,-0.236 L 0.264,-0.23 c -0.03,0.005 -0.051,0.012 -0.063,0.019 -0.022,0.013 -0.033,0.032 -0.033,0.059 0,0.024 0.007,0.041 0.02,0.052 0.013,0.01 0.029,0.016 0.048,0.016 0.03,0 0.058,-0.009 0.083,-0.027 0.025,-0.017 0.038,-0.049 0.039,-0.096 z M 0.274,-0.324 c 0.026,-0.003 0.044,-0.007 0.055,-0.012 0.02,-0.008 0.03,-0.022 0.03,-0.039 0,-0.022 -0.008,-0.037 -0.023,-0.046 C 0.321,-0.429 0.299,-0.433 0.27,-0.433 0.237,-0.433 0.213,-0.425 0.2,-0.409 0.19,-0.397 0.183,-0.38 0.18,-0.36 H 0.046 c 0.003,-0.046 0.016,-0.085 0.039,-0.115 0.037,-0.046 0.1,-0.07 0.189,-0.07 0.059,0 0.11,0.012 0.156,0.035 0.045,0.023 0.068,0.066 0.068,0.131 v 0.244 c 0,0.017 0,0.037 0.001,0.061 0.001,0.018 0.003,0.031 0.008,0.037 0.004,0.007 0.011,0.012 0.02,0.016 V 0 H 0.376 C 0.372,-0.011 0.369,-0.021 0.367,-0.03 0.366,-0.04 0.364,-0.05 0.363,-0.063 0.344,-0.042 0.322,-0.024 0.297,-0.009 0.267,0.008 0.233,0.017 0.195,0.017 0.147,0.017 0.107,0.003 0.076,-0.025 0.045,-0.052 0.029,-0.091 0.029,-0.142 c 0,-0.065 0.025,-0.112 0.075,-0.142 0.028,-0.016 0.069,-0.027 0.123,-0.034 z"
   style="fill-rule:nonzero"
   id="path64" />
        </g>
        <g
   transform="matrix(92,0,0,92,1505.93,1083.24)"
   id="g70">
            <rect
   x="0.068000004"
   y="-0.72000003"
   width="0.139"
   height="0.72000003"
   style="fill-rule:nonzero"
   id="rect68" />
        </g>
        <g
   transform="matrix(92,0,0,92,1531.49,1083.24)"
   id="g74">
            <path
   d="m 0.599,-0.72 v 0.128 H 0.384 V 0 H 0.232 V -0.592 H 0.016 V -0.72 Z"
   style="fill-rule:nonzero"
   id="path72" />
        </g>
        <g
   transform="matrix(92,0,0,92,1587.69,1083.24)"
   id="g78">
            <path
   d="m 0.373,-0.544 v 0.143 C 0.364,-0.402 0.356,-0.403 0.349,-0.403 0.342,-0.404 0.337,-0.404 0.333,-0.404 c -0.056,0 -0.094,0.018 -0.113,0.055 -0.011,0.02 -0.016,0.052 -0.016,0.095 V 0 H 0.063 v -0.532 h 0.133 v 0.093 c 0.022,-0.036 0.04,-0.06 0.056,-0.073 0.026,-0.022 0.06,-0.033 0.102,-0.033 z"
   style="fill-rule:nonzero"
   id="path76" />
        </g>
        <g
   transform="matrix(92,0,0,92,1623.49,1083.24)"
   id="g82">
            <path
   d="M 0.358,-0.259 C 0.35,-0.253 0.341,-0.249 0.332,-0.245 0.323,-0.242 0.311,-0.239 0.295,-0.236 L 0.264,-0.23 c -0.03,0.005 -0.051,0.012 -0.063,0.019 -0.022,0.013 -0.033,0.032 -0.033,0.059 0,0.024 0.007,0.041 0.02,0.052 0.013,0.01 0.029,0.016 0.048,0.016 0.03,0 0.058,-0.009 0.083,-0.027 0.025,-0.017 0.038,-0.049 0.039,-0.096 z M 0.274,-0.324 c 0.026,-0.003 0.044,-0.007 0.055,-0.012 0.02,-0.008 0.03,-0.022 0.03,-0.039 0,-0.022 -0.008,-0.037 -0.023,-0.046 C 0.321,-0.429 0.299,-0.433 0.27,-0.433 0.237,-0.433 0.213,-0.425 0.2,-0.409 0.19,-0.397 0.183,-0.38 0.18,-0.36 H 0.046 c 0.003,-0.046 0.016,-0.085 0.039,-0.115 0.037,-0.046 0.1,-0.07 0.189,-0.07 0.059,0 0.11,0.012 0.156,0.035 0.045,0.023 0.068,0.066 0.068,0.131 v 0.244 c 0,0.017 0,0.037 0.001,0.061 0.001,0.018 0.003,0.031 0.008,0.037 0.004,0.007 0.011,0.012 0.02,0.016 V 0 H 0.376 C 0.372,-0.011 0.369,-0.021 0.367,-0.03 0.366,-0.04 0.364,-0.05 0.363,-0.063 0.344,-0.042 0.322,-0.024 0.297,-0.009 0.267,0.008 0.233,0.017 0.195,0.017 0.147,0.017 0.107,0.003 0.076,-0.025 0.045,-0.052 0.029,-0.091 0.029,-0.142 c 0,-0.065 0.025,-0.112 0.075,-0.142 0.028,-0.016 0.069,-0.027 0.123,-0.034 z"
   style="fill-rule:nonzero"
   id="path80" />
        </g>
        <g
   transform="matrix(92,0,0,92,1674.66,1083.24)"
   id="g86">
            <path
   d="M 0.547,-0.358 V 0 H 0.405 v -0.324 c 0,-0.028 -0.004,-0.049 -0.011,-0.064 -0.014,-0.028 -0.04,-0.041 -0.079,-0.041 -0.047,0 -0.079,0.02 -0.097,0.06 -0.009,0.021 -0.013,0.048 -0.013,0.081 V 0 H 0.066 V -0.531 H 0.2 v 0.077 c 0.018,-0.027 0.035,-0.047 0.051,-0.059 0.029,-0.021 0.065,-0.032 0.109,-0.032 0.055,0 0.1,0.014 0.135,0.043 0.035,0.029 0.052,0.077 0.052,0.144 z"
   style="fill-rule:nonzero"
   id="path84" />
        </g>
        <g
   transform="matrix(92,0,0,92,1730.86,1083.24)"
   id="g90">
            <path
   d="m 0.173,-0.17 c 0.003,0.025 0.01,0.042 0.019,0.053 0.018,0.018 0.05,0.028 0.096,0.028 0.027,0 0.049,-0.004 0.065,-0.013 0.016,-0.008 0.024,-0.02 0.024,-0.036 0,-0.016 -0.006,-0.028 -0.019,-0.036 C 0.345,-0.182 0.297,-0.196 0.213,-0.216 0.153,-0.231 0.11,-0.25 0.085,-0.272 0.061,-0.294 0.048,-0.326 0.048,-0.368 c 0,-0.049 0.02,-0.091 0.058,-0.126 0.039,-0.036 0.093,-0.053 0.163,-0.053 0.066,0 0.121,0.013 0.162,0.039 0.042,0.027 0.066,0.073 0.072,0.138 H 0.364 C 0.362,-0.388 0.357,-0.402 0.349,-0.413 0.334,-0.431 0.308,-0.441 0.271,-0.441 c -0.03,0 -0.052,0.005 -0.065,0.014 -0.013,0.01 -0.019,0.021 -0.019,0.033 0,0.016 0.007,0.028 0.021,0.035 0.013,0.008 0.062,0.02 0.145,0.039 0.055,0.013 0.096,0.032 0.124,0.059 0.027,0.026 0.041,0.06 0.041,0.1 0,0.053 -0.02,0.096 -0.059,0.129 C 0.42,0.001 0.359,0.018 0.277,0.018 0.194,0.018 0.132,0 0.092,-0.035 0.052,-0.07 0.032,-0.115 0.032,-0.17 Z"
   style="fill-rule:nonzero"
   id="path88" />
        </g>
        <g
   transform="matrix(92,0,0,92,1782.02,1083.24)"
   id="g94">
            <path
   d="m 0.313,-0.422 c -0.051,0 -0.086,0.024 -0.105,0.071 -0.009,0.026 -0.014,0.058 -0.014,0.097 0,0.062 0.016,0.105 0.049,0.13 0.02,0.015 0.043,0.022 0.07,0.022 0.038,0 0.068,-0.015 0.088,-0.044 0.02,-0.03 0.031,-0.07 0.031,-0.12 0,-0.041 -0.01,-0.077 -0.028,-0.109 -0.019,-0.032 -0.05,-0.047 -0.091,-0.047 z m 0.262,0.149 c 0,0.094 -0.021,0.165 -0.063,0.214 C 0.47,-0.009 0.416,0.015 0.349,0.015 0.307,0.015 0.272,0.005 0.244,-0.017 0.228,-0.028 0.213,-0.045 0.199,-0.068 V 0.209 H 0.061 v -0.741 h 0.133 v 0.078 c 0.015,-0.023 0.031,-0.041 0.048,-0.054 0.031,-0.024 0.068,-0.036 0.111,-0.036 0.062,0 0.114,0.023 0.157,0.069 0.044,0.046 0.065,0.113 0.065,0.202 z"
   style="fill-rule:nonzero"
   id="path92" />
        </g>
        <g
   transform="matrix(92,0,0,92,1838.22,1083.24)"
   id="g98">
            <path
   d="M 0.43,-0.265 C 0.43,-0.319 0.419,-0.36 0.397,-0.388 0.376,-0.417 0.344,-0.432 0.304,-0.432 c -0.041,0 -0.072,0.015 -0.094,0.044 -0.022,0.028 -0.033,0.069 -0.033,0.123 0,0.053 0.011,0.094 0.033,0.123 0.022,0.029 0.053,0.044 0.094,0.044 0.04,0 0.072,-0.015 0.093,-0.044 0.022,-0.029 0.033,-0.07 0.033,-0.123 z M 0.304,0.019 C 0.213,0.019 0.145,-0.009 0.1,-0.065 0.055,-0.12 0.032,-0.187 0.032,-0.265 c 0,-0.077 0.023,-0.144 0.068,-0.2 0.045,-0.056 0.113,-0.084 0.204,-0.084 0.092,0 0.16,0.028 0.205,0.084 0.045,0.056 0.067,0.123 0.067,0.2 0,0.078 -0.022,0.145 -0.067,0.2 -0.045,0.056 -0.113,0.084 -0.205,0.084 z"
   style="fill-rule:nonzero"
   id="path96" />
        </g>
        <g
   transform="matrix(92,0,0,92,1894.42,1083.24)"
   id="g102">
            <path
   d="m 0.373,-0.544 v 0.143 C 0.364,-0.402 0.356,-0.403 0.349,-0.403 0.342,-0.404 0.337,-0.404 0.333,-0.404 c -0.056,0 -0.094,0.018 -0.113,0.055 -0.011,0.02 -0.016,0.052 -0.016,0.095 V 0 H 0.063 v -0.532 h 0.133 v 0.093 c 0.022,-0.036 0.04,-0.06 0.056,-0.073 0.026,-0.022 0.06,-0.033 0.102,-0.033 z"
   style="fill-rule:nonzero"
   id="path100" />
        </g>
        <g
   transform="matrix(92,0,0,92,1930.22,1083.24)"
   id="g106">
            <path
   d="m 0.01,-0.428 v -0.099 h 0.074 v -0.149 h 0.138 v 0.149 h 0.087 v 0.099 H 0.222 v 0.281 c 0,0.022 0.003,0.035 0.008,0.041 0.006,0.005 0.023,0.008 0.051,0.008 0.004,0 0.009,0 0.014,0 0.004,-0.001 0.009,-0.001 0.014,-0.001 V 0.005 L 0.243,0.007 C 0.177,0.01 0.132,-0.002 0.108,-0.027 0.092,-0.043 0.084,-0.067 0.084,-0.101 v -0.327 z"
   style="fill-rule:nonzero"
   id="path104" />
        </g>
        <g
   transform="matrix(92,0,0,92,1960.86,1083.24)"
   id="g110">
            <rect
   x="0.063000001"
   y="-0.146"
   width="0.148"
   height="0.146"
   style="fill-rule:nonzero"
   id="rect108" />
        </g>
        <g
   transform="matrix(92,0,0,92,1986.42,1083.24)"
   id="g114">
            <path
   d="M 0.21,-0.596 H 0.071 V -0.724 H 0.21 Z M 0.004,0.102 c 0.008,0.001 0.014,0.001 0.017,0.001 0.003,0 0.006,0.001 0.009,0.001 0.013,0 0.024,-0.004 0.031,-0.01 0.007,-0.007 0.01,-0.02 0.01,-0.039 V -0.53 H 0.21 V 0.057 C 0.21,0.111 0.2,0.151 0.179,0.176 0.158,0.202 0.116,0.215 0.054,0.215 c -0.004,0 -0.01,0 -0.019,-0.001 -0.008,0 -0.018,0 -0.031,-0.001 z"
   style="fill-rule:nonzero"
   id="path112" />
        </g>
        <g
   transform="matrix(92,0,0,92,2011.98,1083.24)"
   id="g118">
            <rect
   x="0.068000004"
   y="-0.72000003"
   width="0.139"
   height="0.72000003"
   style="fill-rule:nonzero"
   id="rect116" />
        </g>
    </g>
    <g
   transform="matrix(0.972591,0,0,0.972591,-435.08582,-778.0472)"
   id="g258">
        <g
   transform="matrix(64.356,0,0,64.356,1189.01,1083.24)"
   id="g124">
            <path
   d="m 0.044,-0.269 c 0,-0.052 0.011,-0.098 0.031,-0.14 0.02,-0.041 0.049,-0.073 0.085,-0.095 0.036,-0.023 0.078,-0.034 0.124,-0.034 0.072,0 0.13,0.025 0.175,0.075 0.044,0.049 0.066,0.116 0.066,0.198 v 0.007 c 0,0.051 -0.009,0.097 -0.029,0.138 -0.02,0.041 -0.048,0.073 -0.085,0.096 C 0.375,-0.002 0.333,0.01 0.285,0.01 0.214,0.01 0.156,-0.015 0.111,-0.065 0.067,-0.115 0.044,-0.181 0.044,-0.263 Z m 0.091,0.011 c 0,0.058 0.014,0.105 0.041,0.141 0.027,0.035 0.064,0.053 0.109,0.053 0.046,0 0.083,-0.018 0.11,-0.054 0.027,-0.036 0.04,-0.086 0.04,-0.151 0,-0.058 -0.014,-0.105 -0.041,-0.141 -0.028,-0.036 -0.064,-0.054 -0.11,-0.054 -0.044,0 -0.08,0.018 -0.108,0.053 -0.027,0.036 -0.041,0.087 -0.041,0.153 z"
   style="fill-rule:nonzero"
   id="path122" />
        </g>
        <g
   transform="matrix(64.356,0,0,64.356,1225.71,1083.24)"
   id="g128">
            <path
   d="m 0.515,-0.258 c 0,0.08 -0.019,0.145 -0.056,0.194 C 0.423,-0.015 0.373,0.01 0.31,0.01 0.246,0.01 0.195,-0.011 0.159,-0.051 V 0.203 H 0.068 v -0.731 h 0.083 l 0.004,0.058 c 0.037,-0.045 0.088,-0.068 0.154,-0.068 0.063,0 0.113,0.024 0.15,0.072 0.037,0.048 0.056,0.114 0.056,0.199 z M 0.424,-0.269 c 0,-0.059 -0.012,-0.106 -0.038,-0.141 -0.025,-0.034 -0.06,-0.051 -0.104,-0.051 -0.055,0 -0.096,0.024 -0.123,0.072 v 0.253 c 0.027,0.048 0.068,0.072 0.124,0.072 0.043,0 0.077,-0.017 0.103,-0.051 0.026,-0.035 0.038,-0.086 0.038,-0.154 z"
   style="fill-rule:nonzero"
   id="path126" />
        </g>
        <g
   transform="matrix(64.356,0,0,64.356,1261.82,1083.24)"
   id="g132">
            <path
   d="m 0.191,-0.656 v 0.128 H 0.29 v 0.07 H 0.191 v 0.327 c 0,0.021 0.004,0.037 0.013,0.048 0.009,0.01 0.024,0.016 0.045,0.016 0.01,0 0.025,-0.002 0.043,-0.006 V 0 C 0.268,0.007 0.245,0.01 0.223,0.01 0.182,0.01 0.152,-0.002 0.131,-0.027 0.111,-0.051 0.101,-0.086 0.101,-0.131 V -0.458 H 0.004 v -0.07 h 0.097 v -0.128 z"
   style="fill-rule:nonzero"
   id="path130" />
        </g>
        <g
   transform="matrix(64.356,0,0,64.356,1282.84,1083.24)"
   id="g136">
            <path
   d="M 0.167,0 H 0.076 V -0.528 H 0.167 Z M 0.069,-0.668 c 0,-0.015 0.004,-0.027 0.013,-0.038 0.009,-0.01 0.022,-0.015 0.04,-0.015 0.018,0 0.031,0.005 0.04,0.015 0.009,0.011 0.014,0.023 0.014,0.038 0,0.014 -0.005,0.026 -0.014,0.036 -0.009,0.01 -0.022,0.015 -0.04,0.015 -0.018,0 -0.031,-0.005 -0.04,-0.015 -0.009,-0.01 -0.013,-0.022 -0.013,-0.036 z"
   style="fill-rule:nonzero"
   id="path134" />
        </g>
        <g
   transform="matrix(64.356,0,0,64.356,1298.46,1083.24)"
   id="g140">
            <path
   d="m 0.153,-0.528 0.003,0.058 c 0.038,-0.045 0.091,-0.068 0.157,-0.068 0.073,0 0.124,0.028 0.15,0.085 0.018,-0.026 0.041,-0.046 0.069,-0.062 0.028,-0.015 0.061,-0.023 0.1,-0.023 0.116,0 0.175,0.061 0.177,0.184 V 0 H 0.718 v -0.349 c 0,-0.037 -0.008,-0.066 -0.026,-0.084 -0.017,-0.019 -0.046,-0.028 -0.087,-0.028 -0.033,0 -0.061,0.01 -0.083,0.03 -0.022,0.02 -0.035,0.047 -0.039,0.08 V 0 h -0.09 v -0.346 c 0,-0.077 -0.038,-0.115 -0.113,-0.115 -0.059,0 -0.1,0.025 -0.122,0.075 V 0 h -0.09 v -0.528 z"
   style="fill-rule:nonzero"
   id="path138" />
        </g>
        <g
   transform="matrix(64.356,0,0,64.356,1354.86,1083.24)"
   id="g144">
            <path
   d="M 0.395,0 C 0.389,-0.01 0.385,-0.029 0.382,-0.056 0.34,-0.012 0.29,0.01 0.231,0.01 0.179,0.01 0.137,-0.005 0.103,-0.034 0.07,-0.064 0.053,-0.101 0.053,-0.146 c 0,-0.055 0.021,-0.098 0.063,-0.129 0.042,-0.03 0.101,-0.045 0.176,-0.045 H 0.38 v -0.042 c 0,-0.031 -0.009,-0.057 -0.028,-0.075 -0.019,-0.019 -0.047,-0.028 -0.083,-0.028 -0.033,0 -0.06,0.008 -0.081,0.024 -0.022,0.016 -0.033,0.036 -0.033,0.059 H 0.064 c 0,-0.026 0.009,-0.052 0.028,-0.076 0.019,-0.025 0.044,-0.044 0.076,-0.059 0.032,-0.014 0.068,-0.021 0.106,-0.021 0.061,0 0.108,0.015 0.143,0.046 0.034,0.03 0.052,0.072 0.054,0.125 v 0.243 c 0,0.049 0.006,0.088 0.018,0.116 V 0 Z m -0.15,-0.069 c 0.028,0 0.055,-0.007 0.08,-0.022 0.026,-0.014 0.044,-0.034 0.055,-0.057 V -0.256 H 0.31 c -0.111,0 -0.166,0.032 -0.166,0.097 0,0.028 0.009,0.05 0.028,0.066 0.019,0.016 0.043,0.024 0.073,0.024 z"
   style="fill-rule:nonzero"
   id="path142" />
        </g>
        <g
   transform="matrix(64.356,0,0,64.356,1389.87,1083.24)"
   id="g148">
            <rect
   x="0.075999998"
   y="-0.75"
   width="0.090000004"
   height="0.75"
   style="fill-rule:nonzero"
   id="rect146" />
        </g>
        <g
   transform="matrix(64.356,0,0,64.356,1421.42,1083.24)"
   id="g152">
            <path
   d="m 0.191,-0.656 v 0.128 H 0.29 v 0.07 H 0.191 v 0.327 c 0,0.021 0.004,0.037 0.013,0.048 0.009,0.01 0.024,0.016 0.045,0.016 0.01,0 0.025,-0.002 0.043,-0.006 V 0 C 0.268,0.007 0.245,0.01 0.223,0.01 0.182,0.01 0.152,-0.002 0.131,-0.027 0.111,-0.051 0.101,-0.086 0.101,-0.131 V -0.458 H 0.004 v -0.07 h 0.097 v -0.128 z"
   style="fill-rule:nonzero"
   id="path150" />
        </g>
        <g
   transform="matrix(64.356,0,0,64.356,1442.44,1083.24)"
   id="g156">
            <path
   d="M 0.324,-0.447 C 0.31,-0.45 0.295,-0.451 0.279,-0.451 c -0.059,0 -0.099,0.026 -0.12,0.076 V 0 H 0.068 v -0.528 h 0.088 l 0.002,0.061 c 0.029,-0.047 0.071,-0.071 0.126,-0.071 0.017,0 0.031,0.002 0.04,0.007 z"
   style="fill-rule:nonzero"
   id="path154" />
        </g>
        <g
   transform="matrix(64.356,0,0,64.356,1462.96,1083.24)"
   id="g160">
            <path
   d="M 0.395,0 C 0.389,-0.01 0.385,-0.029 0.382,-0.056 0.34,-0.012 0.29,0.01 0.231,0.01 0.179,0.01 0.137,-0.005 0.103,-0.034 0.07,-0.064 0.053,-0.101 0.053,-0.146 c 0,-0.055 0.021,-0.098 0.063,-0.129 0.042,-0.03 0.101,-0.045 0.176,-0.045 H 0.38 v -0.042 c 0,-0.031 -0.009,-0.057 -0.028,-0.075 -0.019,-0.019 -0.047,-0.028 -0.083,-0.028 -0.033,0 -0.06,0.008 -0.081,0.024 -0.022,0.016 -0.033,0.036 -0.033,0.059 H 0.064 c 0,-0.026 0.009,-0.052 0.028,-0.076 0.019,-0.025 0.044,-0.044 0.076,-0.059 0.032,-0.014 0.068,-0.021 0.106,-0.021 0.061,0 0.108,0.015 0.143,0.046 0.034,0.03 0.052,0.072 0.054,0.125 v 0.243 c 0,0.049 0.006,0.088 0.018,0.116 V 0 Z m -0.15,-0.069 c 0.028,0 0.055,-0.007 0.08,-0.022 0.026,-0.014 0.044,-0.034 0.055,-0.057 V -0.256 H 0.31 c -0.111,0 -0.166,0.032 -0.166,0.097 0,0.028 0.009,0.05 0.028,0.066 0.019,0.016 0.043,0.024 0.073,0.024 z"
   style="fill-rule:nonzero"
   id="path158" />
        </g>
        <g
   transform="matrix(64.356,0,0,64.356,1497.97,1083.24)"
   id="g164">
            <path
   d="m 0.154,-0.528 0.003,0.066 c 0.04,-0.051 0.093,-0.076 0.158,-0.076 0.112,0 0.168,0.063 0.169,0.189 V 0 H 0.394 V -0.35 C 0.393,-0.388 0.385,-0.416 0.367,-0.434 0.35,-0.452 0.324,-0.461 0.288,-0.461 c -0.03,0 -0.055,0.007 -0.078,0.023 -0.022,0.016 -0.039,0.036 -0.051,0.062 V 0 H 0.068 v -0.528 z"
   style="fill-rule:nonzero"
   id="path162" />
        </g>
        <g
   transform="matrix(64.356,0,0,64.356,1533.48,1083.24)"
   id="g168">
            <path
   d="M 0.376,-0.14 C 0.376,-0.165 0.367,-0.184 0.348,-0.197 0.33,-0.211 0.298,-0.222 0.252,-0.232 0.206,-0.242 0.17,-0.253 0.143,-0.267 0.116,-0.281 0.097,-0.297 0.084,-0.316 0.071,-0.335 0.064,-0.357 0.064,-0.383 c 0,-0.044 0.019,-0.08 0.055,-0.11 0.037,-0.03 0.084,-0.045 0.141,-0.045 0.06,0 0.108,0.015 0.146,0.046 0.037,0.031 0.055,0.071 0.055,0.119 H 0.371 C 0.371,-0.398 0.36,-0.419 0.339,-0.437 0.318,-0.455 0.292,-0.464 0.26,-0.464 c -0.033,0 -0.059,0.007 -0.077,0.022 -0.019,0.014 -0.028,0.033 -0.028,0.056 0,0.022 0.008,0.038 0.026,0.049 0.017,0.011 0.048,0.022 0.093,0.032 0.045,0.01 0.082,0.022 0.11,0.036 0.028,0.014 0.049,0.031 0.062,0.05 0.014,0.02 0.02,0.044 0.02,0.073 0,0.047 -0.019,0.085 -0.056,0.113 C 0.372,-0.004 0.323,0.01 0.263,0.01 0.22,0.01 0.183,0.002 0.15,-0.013 0.118,-0.028 0.092,-0.049 0.074,-0.075 0.056,-0.102 0.046,-0.131 0.046,-0.163 h 0.091 c 0.001,0.031 0.013,0.055 0.036,0.072 0.023,0.018 0.053,0.027 0.09,0.027 0.034,0 0.061,-0.007 0.082,-0.021 0.021,-0.014 0.031,-0.032 0.031,-0.055 z"
   style="fill-rule:nonzero"
   id="path166" />
        </g>
        <g
   transform="matrix(64.356,0,0,64.356,1566.66,1083.24)"
   id="g172">
            <path
   d="m 0.515,-0.258 c 0,0.08 -0.019,0.145 -0.056,0.194 C 0.423,-0.015 0.373,0.01 0.31,0.01 0.246,0.01 0.195,-0.011 0.159,-0.051 V 0.203 H 0.068 v -0.731 h 0.083 l 0.004,0.058 c 0.037,-0.045 0.088,-0.068 0.154,-0.068 0.063,0 0.113,0.024 0.15,0.072 0.037,0.048 0.056,0.114 0.056,0.199 z M 0.424,-0.269 c 0,-0.059 -0.012,-0.106 -0.038,-0.141 -0.025,-0.034 -0.06,-0.051 -0.104,-0.051 -0.055,0 -0.096,0.024 -0.123,0.072 v 0.253 c 0.027,0.048 0.068,0.072 0.124,0.072 0.043,0 0.077,-0.017 0.103,-0.051 0.026,-0.035 0.038,-0.086 0.038,-0.154 z"
   style="fill-rule:nonzero"
   id="path170" />
        </g>
        <g
   transform="matrix(64.356,0,0,64.356,1602.77,1083.24)"
   id="g176">
            <path
   d="m 0.044,-0.269 c 0,-0.052 0.011,-0.098 0.031,-0.14 0.02,-0.041 0.049,-0.073 0.085,-0.095 0.036,-0.023 0.078,-0.034 0.124,-0.034 0.072,0 0.13,0.025 0.175,0.075 0.044,0.049 0.066,0.116 0.066,0.198 v 0.007 c 0,0.051 -0.009,0.097 -0.029,0.138 -0.02,0.041 -0.048,0.073 -0.085,0.096 C 0.375,-0.002 0.333,0.01 0.285,0.01 0.214,0.01 0.156,-0.015 0.111,-0.065 0.067,-0.115 0.044,-0.181 0.044,-0.263 Z m 0.091,0.011 c 0,0.058 0.014,0.105 0.041,0.141 0.027,0.035 0.064,0.053 0.109,0.053 0.046,0 0.083,-0.018 0.11,-0.054 0.027,-0.036 0.04,-0.086 0.04,-0.151 0,-0.058 -0.014,-0.105 -0.041,-0.141 -0.028,-0.036 -0.064,-0.054 -0.11,-0.054 -0.044,0 -0.08,0.018 -0.108,0.053 -0.027,0.036 -0.041,0.087 -0.041,0.153 z"
   style="fill-rule:nonzero"
   id="path174" />
        </g>
        <g
   transform="matrix(64.356,0,0,64.356,1639.47,1083.24)"
   id="g180">
            <path
   d="M 0.324,-0.447 C 0.31,-0.45 0.295,-0.451 0.279,-0.451 c -0.059,0 -0.099,0.026 -0.12,0.076 V 0 H 0.068 v -0.528 h 0.088 l 0.002,0.061 c 0.029,-0.047 0.071,-0.071 0.126,-0.071 0.017,0 0.031,0.002 0.04,0.007 z"
   style="fill-rule:nonzero"
   id="path178" />
        </g>
        <g
   transform="matrix(64.356,0,0,64.356,1662.82,1083.24)"
   id="g184">
            <path
   d="m 0.191,-0.656 v 0.128 H 0.29 v 0.07 H 0.191 v 0.327 c 0,0.021 0.004,0.037 0.013,0.048 0.009,0.01 0.024,0.016 0.045,0.016 0.01,0 0.025,-0.002 0.043,-0.006 V 0 C 0.268,0.007 0.245,0.01 0.223,0.01 0.182,0.01 0.152,-0.002 0.131,-0.027 0.111,-0.051 0.101,-0.086 0.101,-0.131 V -0.458 H 0.004 v -0.07 h 0.097 v -0.128 z"
   style="fill-rule:nonzero"
   id="path182" />
        </g>
        <g
   transform="matrix(64.356,0,0,64.356,1699.77,1083.24)"
   id="g188">
            <path
   d="M 0.395,0 C 0.389,-0.01 0.385,-0.029 0.382,-0.056 0.34,-0.012 0.29,0.01 0.231,0.01 0.179,0.01 0.137,-0.005 0.103,-0.034 0.07,-0.064 0.053,-0.101 0.053,-0.146 c 0,-0.055 0.021,-0.098 0.063,-0.129 0.042,-0.03 0.101,-0.045 0.176,-0.045 H 0.38 v -0.042 c 0,-0.031 -0.009,-0.057 -0.028,-0.075 -0.019,-0.019 -0.047,-0.028 -0.083,-0.028 -0.033,0 -0.06,0.008 -0.081,0.024 -0.022,0.016 -0.033,0.036 -0.033,0.059 H 0.064 c 0,-0.026 0.009,-0.052 0.028,-0.076 0.019,-0.025 0.044,-0.044 0.076,-0.059 0.032,-0.014 0.068,-0.021 0.106,-0.021 0.061,0 0.108,0.015 0.143,0.046 0.034,0.03 0.052,0.072 0.054,0.125 v 0.243 c 0,0.049 0.006,0.088 0.018,0.116 V 0 Z m -0.15,-0.069 c 0.028,0 0.055,-0.007 0.08,-0.022 0.026,-0.014 0.044,-0.034 0.055,-0.057 V -0.256 H 0.31 c -0.111,0 -0.166,0.032 -0.166,0.097 0,0.028 0.009,0.05 0.028,0.066 0.019,0.016 0.043,0.024 0.073,0.024 z"
   style="fill-rule:nonzero"
   id="path186" />
        </g>
        <g
   transform="matrix(64.356,0,0,64.356,1734.78,1083.24)"
   id="g192">
            <rect
   x="0.075999998"
   y="-0.75"
   width="0.090000004"
   height="0.75"
   style="fill-rule:nonzero"
   id="rect190" />
        </g>
        <g
   transform="matrix(64.356,0,0,64.356,1750.4,1083.24)"
   id="g196">
            <path
   d="m 0.047,-0.269 c 0,-0.082 0.019,-0.147 0.057,-0.196 0.038,-0.049 0.089,-0.073 0.151,-0.073 0.065,0 0.115,0.023 0.151,0.068 l 0.005,-0.058 h 0.082 v 0.515 C 0.493,0.056 0.473,0.11 0.432,0.149 0.392,0.188 0.337,0.208 0.269,0.208 0.231,0.208 0.194,0.2 0.157,0.184 0.121,0.167 0.093,0.145 0.074,0.117 L 0.121,0.063 C 0.159,0.11 0.207,0.134 0.263,0.134 0.307,0.134 0.341,0.122 0.365,0.097 0.39,0.072 0.402,0.038 0.402,-0.007 V -0.053 C 0.366,-0.011 0.317,0.01 0.254,0.01 0.193,0.01 0.142,-0.015 0.104,-0.065 0.066,-0.115 0.047,-0.183 0.047,-0.269 Z m 0.091,0.011 c 0,0.059 0.012,0.106 0.036,0.14 0.025,0.034 0.059,0.051 0.103,0.051 0.057,0 0.099,-0.026 0.125,-0.078 V -0.386 C 0.375,-0.436 0.333,-0.461 0.278,-0.461 0.234,-0.461 0.2,-0.444 0.175,-0.41 0.15,-0.376 0.138,-0.325 0.138,-0.258 Z"
   style="fill-rule:nonzero"
   id="path194" />
        </g>
        <g
   transform="matrix(64.356,0,0,64.356,1786.5,1083.24)"
   id="g200">
            <path
   d="m 0.044,-0.269 c 0,-0.052 0.011,-0.098 0.031,-0.14 0.02,-0.041 0.049,-0.073 0.085,-0.095 0.036,-0.023 0.078,-0.034 0.124,-0.034 0.072,0 0.13,0.025 0.175,0.075 0.044,0.049 0.066,0.116 0.066,0.198 v 0.007 c 0,0.051 -0.009,0.097 -0.029,0.138 -0.02,0.041 -0.048,0.073 -0.085,0.096 C 0.375,-0.002 0.333,0.01 0.285,0.01 0.214,0.01 0.156,-0.015 0.111,-0.065 0.067,-0.115 0.044,-0.181 0.044,-0.263 Z m 0.091,0.011 c 0,0.058 0.014,0.105 0.041,0.141 0.027,0.035 0.064,0.053 0.109,0.053 0.046,0 0.083,-0.018 0.11,-0.054 0.027,-0.036 0.04,-0.086 0.04,-0.151 0,-0.058 -0.014,-0.105 -0.041,-0.141 -0.028,-0.036 -0.064,-0.054 -0.11,-0.054 -0.044,0 -0.08,0.018 -0.108,0.053 -0.027,0.036 -0.041,0.087 -0.041,0.153 z"
   style="fill-rule:nonzero"
   id="path198" />
        </g>
        <g
   transform="matrix(64.356,0,0,64.356,1823.21,1083.24)"
   id="g204">
            <path
   d="M 0.324,-0.447 C 0.31,-0.45 0.295,-0.451 0.279,-0.451 c -0.059,0 -0.099,0.026 -0.12,0.076 V 0 H 0.068 v -0.528 h 0.088 l 0.002,0.061 c 0.029,-0.047 0.071,-0.071 0.126,-0.071 0.017,0 0.031,0.002 0.04,0.007 z"
   style="fill-rule:nonzero"
   id="path202" />
        </g>
        <g
   transform="matrix(64.356,0,0,64.356,1844.98,1083.24)"
   id="g208">
            <path
   d="M 0.167,0 H 0.076 V -0.528 H 0.167 Z M 0.069,-0.668 c 0,-0.015 0.004,-0.027 0.013,-0.038 0.009,-0.01 0.022,-0.015 0.04,-0.015 0.018,0 0.031,0.005 0.04,0.015 0.009,0.011 0.014,0.023 0.014,0.038 0,0.014 -0.005,0.026 -0.014,0.036 -0.009,0.01 -0.022,0.015 -0.04,0.015 -0.018,0 -0.031,-0.005 -0.04,-0.015 -0.009,-0.01 -0.013,-0.022 -0.013,-0.036 z"
   style="fill-rule:nonzero"
   id="path206" />
        </g>
        <g
   transform="matrix(64.356,0,0,64.356,1860.6,1083.24)"
   id="g212">
            <path
   d="m 0.191,-0.656 v 0.128 H 0.29 v 0.07 H 0.191 v 0.327 c 0,0.021 0.004,0.037 0.013,0.048 0.009,0.01 0.024,0.016 0.045,0.016 0.01,0 0.025,-0.002 0.043,-0.006 V 0 C 0.268,0.007 0.245,0.01 0.223,0.01 0.182,0.01 0.152,-0.002 0.131,-0.027 0.111,-0.051 0.101,-0.086 0.101,-0.131 V -0.458 H 0.004 v -0.07 h 0.097 v -0.128 z"
   style="fill-rule:nonzero"
   id="path210" />
        </g>
        <g
   transform="matrix(64.356,0,0,64.356,1881.62,1083.24)"
   id="g216">
            <path
   d="m 0.159,-0.464 c 0.04,-0.05 0.092,-0.074 0.156,-0.074 0.112,0 0.168,0.063 0.169,0.189 V 0 H 0.394 V -0.35 C 0.393,-0.388 0.385,-0.416 0.367,-0.434 0.35,-0.452 0.324,-0.461 0.288,-0.461 c -0.03,0 -0.055,0.007 -0.078,0.023 -0.022,0.016 -0.039,0.036 -0.051,0.062 V 0 H 0.068 v -0.75 h 0.091 z"
   style="fill-rule:nonzero"
   id="path214" />
        </g>
        <g
   transform="matrix(64.356,0,0,64.356,1917.07,1083.24)"
   id="g220">
            <path
   d="m 0.153,-0.528 0.003,0.058 c 0.038,-0.045 0.091,-0.068 0.157,-0.068 0.073,0 0.124,0.028 0.15,0.085 0.018,-0.026 0.041,-0.046 0.069,-0.062 0.028,-0.015 0.061,-0.023 0.1,-0.023 0.116,0 0.175,0.061 0.177,0.184 V 0 H 0.718 v -0.349 c 0,-0.037 -0.008,-0.066 -0.026,-0.084 -0.017,-0.019 -0.046,-0.028 -0.087,-0.028 -0.033,0 -0.061,0.01 -0.083,0.03 -0.022,0.02 -0.035,0.047 -0.039,0.08 V 0 h -0.09 v -0.346 c 0,-0.077 -0.038,-0.115 -0.113,-0.115 -0.059,0 -0.1,0.025 -0.122,0.075 V 0 h -0.09 v -0.528 z"
   style="fill-rule:nonzero"
   id="path218" />
        </g>
        <g
   transform="matrix(64.356,0,0,64.356,1973.47,1083.24)"
   id="g224">
            <path
   d="M 0.376,-0.14 C 0.376,-0.165 0.367,-0.184 0.348,-0.197 0.33,-0.211 0.298,-0.222 0.252,-0.232 0.206,-0.242 0.17,-0.253 0.143,-0.267 0.116,-0.281 0.097,-0.297 0.084,-0.316 0.071,-0.335 0.064,-0.357 0.064,-0.383 c 0,-0.044 0.019,-0.08 0.055,-0.11 0.037,-0.03 0.084,-0.045 0.141,-0.045 0.06,0 0.108,0.015 0.146,0.046 0.037,0.031 0.055,0.071 0.055,0.119 H 0.371 C 0.371,-0.398 0.36,-0.419 0.339,-0.437 0.318,-0.455 0.292,-0.464 0.26,-0.464 c -0.033,0 -0.059,0.007 -0.077,0.022 -0.019,0.014 -0.028,0.033 -0.028,0.056 0,0.022 0.008,0.038 0.026,0.049 0.017,0.011 0.048,0.022 0.093,0.032 0.045,0.01 0.082,0.022 0.11,0.036 0.028,0.014 0.049,0.031 0.062,0.05 0.014,0.02 0.02,0.044 0.02,0.073 0,0.047 -0.019,0.085 -0.056,0.113 C 0.372,-0.004 0.323,0.01 0.263,0.01 0.22,0.01 0.183,0.002 0.15,-0.013 0.118,-0.028 0.092,-0.049 0.074,-0.075 0.056,-0.102 0.046,-0.131 0.046,-0.163 h 0.091 c 0.001,0.031 0.013,0.055 0.036,0.072 0.023,0.018 0.053,0.027 0.09,0.027 0.034,0 0.061,-0.007 0.082,-0.021 0.021,-0.014 0.031,-0.032 0.031,-0.055 z"
   style="fill-rule:nonzero"
   id="path222" />
        </g>
        <g
   transform="matrix(64.356,0,0,64.356,2022.59,1083.24)"
   id="g228">
            <path
   d="M 0.113,0 V -0.458 H 0.029 v -0.07 h 0.084 v -0.055 c 0,-0.056 0.015,-0.1 0.045,-0.131 0.03,-0.031 0.073,-0.046 0.129,-0.046 0.02,0 0.041,0.003 0.062,0.008 L 0.344,-0.679 C 0.328,-0.682 0.312,-0.683 0.295,-0.683 c -0.029,0 -0.052,0.008 -0.068,0.026 -0.016,0.017 -0.024,0.041 -0.024,0.073 v 0.056 h 0.113 v 0.07 H 0.203 V 0 Z"
   style="fill-rule:nonzero"
   id="path226" />
        </g>
        <g
   transform="matrix(64.356,0,0,64.356,2044.93,1083.24)"
   id="g232">
            <path
   d="m 0.044,-0.269 c 0,-0.052 0.011,-0.098 0.031,-0.14 0.02,-0.041 0.049,-0.073 0.085,-0.095 0.036,-0.023 0.078,-0.034 0.124,-0.034 0.072,0 0.13,0.025 0.175,0.075 0.044,0.049 0.066,0.116 0.066,0.198 v 0.007 c 0,0.051 -0.009,0.097 -0.029,0.138 -0.02,0.041 -0.048,0.073 -0.085,0.096 C 0.375,-0.002 0.333,0.01 0.285,0.01 0.214,0.01 0.156,-0.015 0.111,-0.065 0.067,-0.115 0.044,-0.181 0.044,-0.263 Z m 0.091,0.011 c 0,0.058 0.014,0.105 0.041,0.141 0.027,0.035 0.064,0.053 0.109,0.053 0.046,0 0.083,-0.018 0.11,-0.054 0.027,-0.036 0.04,-0.086 0.04,-0.151 0,-0.058 -0.014,-0.105 -0.041,-0.141 -0.028,-0.036 -0.064,-0.054 -0.11,-0.054 -0.044,0 -0.08,0.018 -0.108,0.053 -0.027,0.036 -0.041,0.087 -0.041,0.153 z"
   style="fill-rule:nonzero"
   id="path230" />
        </g>
        <g
   transform="matrix(64.356,0,0,64.356,2081.63,1083.24)"
   id="g236">
            <path
   d="M 0.324,-0.447 C 0.31,-0.45 0.295,-0.451 0.279,-0.451 c -0.059,0 -0.099,0.026 -0.12,0.076 V 0 H 0.068 v -0.528 h 0.088 l 0.002,0.061 c 0.029,-0.047 0.071,-0.071 0.126,-0.071 0.017,0 0.031,0.002 0.04,0.007 z"
   style="fill-rule:nonzero"
   id="path234" />
        </g>
        <g
   transform="matrix(64.356,0,0,64.356,2119.34,1083.24)"
   id="g240">
            <path
   d="m 0.38,-0.711 h 0.095 v 0.503 c 0,0.069 -0.021,0.122 -0.062,0.16 C 0.372,-0.009 0.318,0.01 0.25,0.01 0.179,0.01 0.124,-0.008 0.085,-0.044 0.046,-0.081 0.026,-0.131 0.026,-0.196 H 0.12 c 0,0.04 0.011,0.072 0.033,0.095 0.022,0.023 0.055,0.034 0.097,0.034 0.039,0 0.07,-0.012 0.094,-0.037 0.024,-0.024 0.036,-0.058 0.036,-0.102 z"
   style="fill-rule:nonzero"
   id="path238" />
        </g>
        <g
   transform="matrix(64.356,0,0,64.356,2154.85,1083.24)"
   id="g244">
            <path
   d="M 0.395,-0.052 C 0.359,-0.011 0.308,0.01 0.24,0.01 0.183,0.01 0.141,-0.007 0.111,-0.039 0.082,-0.072 0.067,-0.12 0.066,-0.185 v -0.343 h 0.091 v 0.341 c 0,0.08 0.032,0.12 0.097,0.12 0.069,0 0.115,-0.026 0.138,-0.077 v -0.384 h 0.09 V 0 H 0.396 Z"
   style="fill-rule:nonzero"
   id="path242" />
        </g>
        <g
   transform="matrix(64.356,0,0,64.356,2190.33,1083.24)"
   id="g248">
            <rect
   x="0.075999998"
   y="-0.75"
   width="0.090000004"
   height="0.75"
   style="fill-rule:nonzero"
   id="rect246" />
        </g>
        <g
   transform="matrix(64.356,0,0,64.356,2205.95,1083.24)"
   id="g252">
            <path
   d="M 0.167,0 H 0.076 V -0.528 H 0.167 Z M 0.069,-0.668 c 0,-0.015 0.004,-0.027 0.013,-0.038 0.009,-0.01 0.022,-0.015 0.04,-0.015 0.018,0 0.031,0.005 0.04,0.015 0.009,0.011 0.014,0.023 0.014,0.038 0,0.014 -0.005,0.026 -0.014,0.036 -0.009,0.01 -0.022,0.015 -0.04,0.015 -0.018,0 -0.031,-0.005 -0.04,-0.015 -0.009,-0.01 -0.013,-0.022 -0.013,-0.036 z"
   style="fill-rule:nonzero"
   id="path250" />
        </g>
        <g
   transform="matrix(64.356,0,0,64.356,2221.57,1083.24)"
   id="g256">
            <path
   d="M 0.395,0 C 0.389,-0.01 0.385,-0.029 0.382,-0.056 0.34,-0.012 0.29,0.01 0.231,0.01 0.179,0.01 0.137,-0.005 0.103,-0.034 0.07,-0.064 0.053,-0.101 0.053,-0.146 c 0,-0.055 0.021,-0.098 0.063,-0.129 0.042,-0.03 0.101,-0.045 0.176,-0.045 H 0.38 v -0.042 c 0,-0.031 -0.009,-0.057 -0.028,-0.075 -0.019,-0.019 -0.047,-0.028 -0.083,-0.028 -0.033,0 -0.06,0.008 -0.081,0.024 -0.022,0.016 -0.033,0.036 -0.033,0.059 H 0.064 c 0,-0.026 0.009,-0.052 0.028,-0.076 0.019,-0.025 0.044,-0.044 0.076,-0.059 0.032,-0.014 0.068,-0.021 0.106,-0.021 0.061,0 0.108,0.015 0.143,0.046 0.034,0.03 0.052,0.072 0.054,0.125 v 0.243 c 0,0.049 0.006,0.088 0.018,0.116 V 0 Z m -0.15,-0.069 c 0.028,0 0.055,-0.007 0.08,-0.022 0.026,-0.014 0.044,-0.034 0.055,-0.057 V -0.256 H 0.31 c -0.111,0 -0.166,0.032 -0.166,0.097 0,0.028 0.009,0.05 0.028,0.066 0.019,0.016 0.043,0.024 0.073,0.024 z"
   style="fill-rule:nonzero"
   id="path254" />
        </g>
    </g>
</svg>
