<?xml version="1.0" encoding="utf-8"?>
<svg xmlns="http://www.w3.org/2000/svg" xmlns:xlink="http://www.w3.org/1999/xlink" width="600" height="400" viewBox="0 0 2400 1600">
<defs>
  <clipPath id="clip580">
    <rect x="0" y="0" width="2400" height="1600"/>
  </clipPath>
</defs>
<path clip-path="url(#clip580)" d="
M0 1600 L2400 1600 L2400 0 L0 0  Z
  " fill="#ffffff" fill-rule="evenodd" fill-opacity="1"/>
<defs>
  <clipPath id="clip581">
    <rect x="480" y="0" width="1681" height="1600"/>
  </clipPath>
</defs>
<path clip-path="url(#clip580)" d="
M147.478 1486.45 L2352.76 1486.45 L2352.76 123.472 L147.478 123.472  Z
  " fill="#ffffff" fill-rule="evenodd" fill-opacity="1"/>
<defs>
  <clipPath id="clip582">
    <rect x="147" y="123" width="2206" height="1364"/>
  </clipPath>
</defs>
<polyline clip-path="url(#clip582)" style="stroke:#000000; stroke-linecap:butt; stroke-linejoin:round; stroke-width:2; stroke-opacity:0.1; fill:none" points="
  172.973,1486.45 172.973,123.472 
  "/>
<polyline clip-path="url(#clip582)" style="stroke:#000000; stroke-linecap:butt; stroke-linejoin:round; stroke-width:2; stroke-opacity:0.1; fill:none" points="
  532.954,1486.45 532.954,123.472 
  "/>
<polyline clip-path="url(#clip582)" style="stroke:#000000; stroke-linecap:butt; stroke-linejoin:round; stroke-width:2; stroke-opacity:0.1; fill:none" points="
  892.934,1486.45 892.934,123.472 
  "/>
<polyline clip-path="url(#clip582)" style="stroke:#000000; stroke-linecap:butt; stroke-linejoin:round; stroke-width:2; stroke-opacity:0.1; fill:none" points="
  1252.91,1486.45 1252.91,123.472 
  "/>
<polyline clip-path="url(#clip582)" style="stroke:#000000; stroke-linecap:butt; stroke-linejoin:round; stroke-width:2; stroke-opacity:0.1; fill:none" points="
  1612.89,1486.45 1612.89,123.472 
  "/>
<polyline clip-path="url(#clip582)" style="stroke:#000000; stroke-linecap:butt; stroke-linejoin:round; stroke-width:2; stroke-opacity:0.1; fill:none" points="
  1972.88,1486.45 1972.88,123.472 
  "/>
<polyline clip-path="url(#clip582)" style="stroke:#000000; stroke-linecap:butt; stroke-linejoin:round; stroke-width:2; stroke-opacity:0.1; fill:none" points="
  2332.86,1486.45 2332.86,123.472 
  "/>
<polyline clip-path="url(#clip580)" style="stroke:#000000; stroke-linecap:butt; stroke-linejoin:round; stroke-width:4; stroke-opacity:1; fill:none" points="
  147.478,1486.45 2352.76,1486.45 
  "/>
<polyline clip-path="url(#clip580)" style="stroke:#000000; stroke-linecap:butt; stroke-linejoin:round; stroke-width:4; stroke-opacity:1; fill:none" points="
  172.973,1486.45 172.973,1467.55 
  "/>
<polyline clip-path="url(#clip580)" style="stroke:#000000; stroke-linecap:butt; stroke-linejoin:round; stroke-width:4; stroke-opacity:1; fill:none" points="
  532.954,1486.45 532.954,1467.55 
  "/>
<polyline clip-path="url(#clip580)" style="stroke:#000000; stroke-linecap:butt; stroke-linejoin:round; stroke-width:4; stroke-opacity:1; fill:none" points="
  892.934,1486.45 892.934,1467.55 
  "/>
<polyline clip-path="url(#clip580)" style="stroke:#000000; stroke-linecap:butt; stroke-linejoin:round; stroke-width:4; stroke-opacity:1; fill:none" points="
  1252.91,1486.45 1252.91,1467.55 
  "/>
<polyline clip-path="url(#clip580)" style="stroke:#000000; stroke-linecap:butt; stroke-linejoin:round; stroke-width:4; stroke-opacity:1; fill:none" points="
  1612.89,1486.45 1612.89,1467.55 
  "/>
<polyline clip-path="url(#clip580)" style="stroke:#000000; stroke-linecap:butt; stroke-linejoin:round; stroke-width:4; stroke-opacity:1; fill:none" points="
  1972.88,1486.45 1972.88,1467.55 
  "/>
<polyline clip-path="url(#clip580)" style="stroke:#000000; stroke-linecap:butt; stroke-linejoin:round; stroke-width:4; stroke-opacity:1; fill:none" points="
  2332.86,1486.45 2332.86,1467.55 
  "/>
<path clip-path="url(#clip580)" d="M142.441 1532.02 L172.117 1532.02 L172.117 1535.95 L142.441 1535.95 L142.441 1532.02 Z" fill="#000000" fill-rule="evenodd" fill-opacity="1" /><path clip-path="url(#clip580)" d="M196.376 1530.21 Q199.733 1530.93 201.608 1533.2 Q203.506 1535.47 203.506 1538.8 Q203.506 1543.92 199.987 1546.72 Q196.469 1549.52 189.987 1549.52 Q187.811 1549.52 185.497 1549.08 Q183.205 1548.66 180.751 1547.81 L180.751 1543.29 Q182.696 1544.43 185.01 1545.01 Q187.325 1545.58 189.848 1545.58 Q194.246 1545.58 196.538 1543.85 Q198.853 1542.11 198.853 1538.8 Q198.853 1535.75 196.7 1534.03 Q194.571 1532.3 190.751 1532.3 L186.723 1532.3 L186.723 1528.45 L190.936 1528.45 Q194.385 1528.45 196.214 1527.09 Q198.043 1525.7 198.043 1523.11 Q198.043 1520.45 196.145 1519.03 Q194.27 1517.6 190.751 1517.6 Q188.83 1517.6 186.631 1518.01 Q184.432 1518.43 181.793 1519.31 L181.793 1515.14 Q184.455 1514.4 186.77 1514.03 Q189.108 1513.66 191.168 1513.66 Q196.492 1513.66 199.594 1516.09 Q202.696 1518.5 202.696 1522.62 Q202.696 1525.49 201.052 1527.48 Q199.408 1529.45 196.376 1530.21 Z" fill="#000000" fill-rule="evenodd" fill-opacity="1" /><path clip-path="url(#clip580)" d="M502.896 1532.02 L532.572 1532.02 L532.572 1535.95 L502.896 1535.95 L502.896 1532.02 Z" fill="#000000" fill-rule="evenodd" fill-opacity="1" /><path clip-path="url(#clip580)" d="M546.692 1544.91 L563.011 1544.91 L563.011 1548.85 L541.067 1548.85 L541.067 1544.91 Q543.729 1542.16 548.312 1537.53 Q552.919 1532.88 554.1 1531.53 Q556.345 1529.01 557.224 1527.27 Q558.127 1525.51 558.127 1523.82 Q558.127 1521.07 556.183 1519.33 Q554.262 1517.6 551.16 1517.6 Q548.961 1517.6 546.507 1518.36 Q544.076 1519.13 541.299 1520.68 L541.299 1515.95 Q544.123 1514.82 546.576 1514.24 Q549.03 1513.66 551.067 1513.66 Q556.437 1513.66 559.632 1516.35 Q562.826 1519.03 562.826 1523.52 Q562.826 1525.65 562.016 1527.57 Q561.229 1529.47 559.123 1532.07 Q558.544 1532.74 555.442 1535.95 Q552.34 1539.15 546.692 1544.91 Z" fill="#000000" fill-rule="evenodd" fill-opacity="1" /><path clip-path="url(#clip580)" d="M862.691 1532.02 L892.367 1532.02 L892.367 1535.95 L862.691 1535.95 L862.691 1532.02 Z" fill="#000000" fill-rule="evenodd" fill-opacity="1" /><path clip-path="url(#clip580)" d="M903.27 1544.91 L910.909 1544.91 L910.909 1518.55 L902.598 1520.21 L902.598 1515.95 L910.862 1514.29 L915.538 1514.29 L915.538 1544.91 L923.177 1544.91 L923.177 1548.85 L903.27 1548.85 L903.27 1544.91 Z" fill="#000000" fill-rule="evenodd" fill-opacity="1" /><path clip-path="url(#clip580)" d="M1252.91 1517.37 Q1249.3 1517.37 1247.47 1520.93 Q1245.67 1524.47 1245.67 1531.6 Q1245.67 1538.71 1247.47 1542.27 Q1249.3 1545.82 1252.91 1545.82 Q1256.55 1545.82 1258.35 1542.27 Q1260.18 1538.71 1260.18 1531.6 Q1260.18 1524.47 1258.35 1520.93 Q1256.55 1517.37 1252.91 1517.37 M1252.91 1513.66 Q1258.72 1513.66 1261.78 1518.27 Q1264.86 1522.85 1264.86 1531.6 Q1264.86 1540.33 1261.78 1544.94 Q1258.72 1549.52 1252.91 1549.52 Q1247.1 1549.52 1244.03 1544.94 Q1240.97 1540.33 1240.97 1531.6 Q1240.97 1522.85 1244.03 1518.27 Q1247.1 1513.66 1252.91 1513.66 Z" fill="#000000" fill-rule="evenodd" fill-opacity="1" /><path clip-path="url(#clip580)" d="M1603.28 1544.91 L1610.92 1544.91 L1610.92 1518.55 L1602.61 1520.21 L1602.61 1515.95 L1610.87 1514.29 L1615.55 1514.29 L1615.55 1544.91 L1623.18 1544.91 L1623.18 1548.85 L1603.28 1548.85 L1603.28 1544.91 Z" fill="#000000" fill-rule="evenodd" fill-opacity="1" /><path clip-path="url(#clip580)" d="M1967.53 1544.91 L1983.85 1544.91 L1983.85 1548.85 L1961.9 1548.85 L1961.9 1544.91 Q1964.56 1542.16 1969.15 1537.53 Q1973.75 1532.88 1974.94 1531.53 Q1977.18 1529.01 1978.06 1527.27 Q1978.96 1525.51 1978.96 1523.82 Q1978.96 1521.07 1977.02 1519.33 Q1975.1 1517.6 1972 1517.6 Q1969.8 1517.6 1967.34 1518.36 Q1964.91 1519.13 1962.13 1520.68 L1962.13 1515.95 Q1964.96 1514.82 1967.41 1514.24 Q1969.87 1513.66 1971.9 1513.66 Q1977.27 1513.66 1980.47 1516.35 Q1983.66 1519.03 1983.66 1523.52 Q1983.66 1525.65 1982.85 1527.57 Q1982.06 1529.47 1979.96 1532.07 Q1979.38 1532.74 1976.28 1535.95 Q1973.18 1539.15 1967.53 1544.91 Z" fill="#000000" fill-rule="evenodd" fill-opacity="1" /><path clip-path="url(#clip580)" d="M2337.1 1530.21 Q2340.46 1530.93 2342.33 1533.2 Q2344.23 1535.47 2344.23 1538.8 Q2344.23 1543.92 2340.71 1546.72 Q2337.2 1549.52 2330.71 1549.52 Q2328.54 1549.52 2326.22 1549.08 Q2323.93 1548.66 2321.48 1547.81 L2321.48 1543.29 Q2323.42 1544.43 2325.74 1545.01 Q2328.05 1545.58 2330.58 1545.58 Q2334.97 1545.58 2337.27 1543.85 Q2339.58 1542.11 2339.58 1538.8 Q2339.58 1535.75 2337.43 1534.03 Q2335.3 1532.3 2331.48 1532.3 L2327.45 1532.3 L2327.45 1528.45 L2331.66 1528.45 Q2335.11 1528.45 2336.94 1527.09 Q2338.77 1525.7 2338.77 1523.11 Q2338.77 1520.45 2336.87 1519.03 Q2335 1517.6 2331.48 1517.6 Q2329.56 1517.6 2327.36 1518.01 Q2325.16 1518.43 2322.52 1519.31 L2322.52 1515.14 Q2325.18 1514.4 2327.5 1514.03 Q2329.83 1513.66 2331.89 1513.66 Q2337.22 1513.66 2340.32 1516.09 Q2343.42 1518.5 2343.42 1522.62 Q2343.42 1525.49 2341.78 1527.48 Q2340.14 1529.45 2337.1 1530.21 Z" fill="#000000" fill-rule="evenodd" fill-opacity="1" /><polyline clip-path="url(#clip582)" style="stroke:#000000; stroke-linecap:butt; stroke-linejoin:round; stroke-width:2; stroke-opacity:0.1; fill:none" points="
  147.478,1412.32 2352.76,1412.32 
  "/>
<polyline clip-path="url(#clip582)" style="stroke:#000000; stroke-linecap:butt; stroke-linejoin:round; stroke-width:2; stroke-opacity:0.1; fill:none" points="
  147.478,1155.12 2352.76,1155.12 
  "/>
<polyline clip-path="url(#clip582)" style="stroke:#000000; stroke-linecap:butt; stroke-linejoin:round; stroke-width:2; stroke-opacity:0.1; fill:none" points="
  147.478,897.926 2352.76,897.926 
  "/>
<polyline clip-path="url(#clip582)" style="stroke:#000000; stroke-linecap:butt; stroke-linejoin:round; stroke-width:2; stroke-opacity:0.1; fill:none" points="
  147.478,640.73 2352.76,640.73 
  "/>
<polyline clip-path="url(#clip582)" style="stroke:#000000; stroke-linecap:butt; stroke-linejoin:round; stroke-width:2; stroke-opacity:0.1; fill:none" points="
  147.478,383.533 2352.76,383.533 
  "/>
<polyline clip-path="url(#clip582)" style="stroke:#000000; stroke-linecap:butt; stroke-linejoin:round; stroke-width:2; stroke-opacity:0.1; fill:none" points="
  147.478,126.337 2352.76,126.337 
  "/>
<polyline clip-path="url(#clip580)" style="stroke:#000000; stroke-linecap:butt; stroke-linejoin:round; stroke-width:4; stroke-opacity:1; fill:none" points="
  147.478,1486.45 147.478,123.472 
  "/>
<polyline clip-path="url(#clip580)" style="stroke:#000000; stroke-linecap:butt; stroke-linejoin:round; stroke-width:4; stroke-opacity:1; fill:none" points="
  147.478,1412.32 166.376,1412.32 
  "/>
<polyline clip-path="url(#clip580)" style="stroke:#000000; stroke-linecap:butt; stroke-linejoin:round; stroke-width:4; stroke-opacity:1; fill:none" points="
  147.478,1155.12 166.376,1155.12 
  "/>
<polyline clip-path="url(#clip580)" style="stroke:#000000; stroke-linecap:butt; stroke-linejoin:round; stroke-width:4; stroke-opacity:1; fill:none" points="
  147.478,897.926 166.376,897.926 
  "/>
<polyline clip-path="url(#clip580)" style="stroke:#000000; stroke-linecap:butt; stroke-linejoin:round; stroke-width:4; stroke-opacity:1; fill:none" points="
  147.478,640.73 166.376,640.73 
  "/>
<polyline clip-path="url(#clip580)" style="stroke:#000000; stroke-linecap:butt; stroke-linejoin:round; stroke-width:4; stroke-opacity:1; fill:none" points="
  147.478,383.533 166.376,383.533 
  "/>
<polyline clip-path="url(#clip580)" style="stroke:#000000; stroke-linecap:butt; stroke-linejoin:round; stroke-width:4; stroke-opacity:1; fill:none" points="
  147.478,126.337 166.376,126.337 
  "/>
<path clip-path="url(#clip580)" d="M51.3625 1412.77 L81.0383 1412.77 L81.0383 1416.71 L51.3625 1416.71 L51.3625 1412.77 Z" fill="#000000" fill-rule="evenodd" fill-opacity="1" /><path clip-path="url(#clip580)" d="M95.1586 1425.66 L111.478 1425.66 L111.478 1429.6 L89.5336 1429.6 L89.5336 1425.66 Q92.1956 1422.91 96.7789 1418.28 Q101.385 1413.63 102.566 1412.28 Q104.811 1409.76 105.691 1408.03 Q106.594 1406.27 106.594 1404.58 Q106.594 1401.82 104.649 1400.09 Q102.728 1398.35 99.6261 1398.35 Q97.4271 1398.35 94.9734 1399.11 Q92.5428 1399.88 89.7651 1401.43 L89.7651 1396.71 Q92.5891 1395.57 95.0428 1394.99 Q97.4965 1394.41 99.5335 1394.41 Q104.904 1394.41 108.098 1397.1 Q111.293 1399.78 111.293 1404.28 Q111.293 1406.4 110.483 1408.33 Q109.696 1410.22 107.589 1412.82 Q107.01 1413.49 103.909 1416.71 Q100.807 1419.9 95.1586 1425.66 Z" fill="#000000" fill-rule="evenodd" fill-opacity="1" /><path clip-path="url(#clip580)" d="M50.9921 1155.57 L80.6679 1155.57 L80.6679 1159.51 L50.9921 1159.51 L50.9921 1155.57 Z" fill="#000000" fill-rule="evenodd" fill-opacity="1" /><path clip-path="url(#clip580)" d="M91.5706 1168.47 L99.2095 1168.47 L99.2095 1142.1 L90.8993 1143.77 L90.8993 1139.51 L99.1632 1137.84 L103.839 1137.84 L103.839 1168.47 L111.478 1168.47 L111.478 1172.4 L91.5706 1172.4 L91.5706 1168.47 Z" fill="#000000" fill-rule="evenodd" fill-opacity="1" /><path clip-path="url(#clip580)" d="M99.5335 883.725 Q95.9224 883.725 94.0937 887.29 Q92.2882 890.831 92.2882 897.961 Q92.2882 905.067 94.0937 908.632 Q95.9224 912.174 99.5335 912.174 Q103.168 912.174 104.973 908.632 Q106.802 905.067 106.802 897.961 Q106.802 890.831 104.973 887.29 Q103.168 883.725 99.5335 883.725 M99.5335 880.021 Q105.344 880.021 108.399 884.628 Q111.478 889.211 111.478 897.961 Q111.478 906.688 108.399 911.294 Q105.344 915.877 99.5335 915.877 Q93.7234 915.877 90.6447 911.294 Q87.5892 906.688 87.5892 897.961 Q87.5892 889.211 90.6447 884.628 Q93.7234 880.021 99.5335 880.021 Z" fill="#000000" fill-rule="evenodd" fill-opacity="1" /><path clip-path="url(#clip580)" d="M91.5706 654.074 L99.2095 654.074 L99.2095 627.709 L90.8993 629.375 L90.8993 625.116 L99.1632 623.45 L103.839 623.45 L103.839 654.074 L111.478 654.074 L111.478 658.01 L91.5706 658.01 L91.5706 654.074 Z" fill="#000000" fill-rule="evenodd" fill-opacity="1" /><path clip-path="url(#clip580)" d="M95.1586 396.878 L111.478 396.878 L111.478 400.813 L89.5336 400.813 L89.5336 396.878 Q92.1956 394.123 96.7789 389.494 Q101.385 384.841 102.566 383.498 Q104.811 380.975 105.691 379.239 Q106.594 377.48 106.594 375.79 Q106.594 373.035 104.649 371.299 Q102.728 369.563 99.6261 369.563 Q97.4271 369.563 94.9734 370.327 Q92.5428 371.091 89.7651 372.642 L89.7651 367.92 Q92.5891 366.786 95.0428 366.207 Q97.4965 365.628 99.5335 365.628 Q104.904 365.628 108.098 368.313 Q111.293 370.998 111.293 375.489 Q111.293 377.619 110.483 379.54 Q109.696 381.438 107.589 384.031 Q107.01 384.702 103.909 387.92 Q100.807 391.114 95.1586 396.878 Z" fill="#000000" fill-rule="evenodd" fill-opacity="1" /><path clip-path="url(#clip580)" d="M104.348 124.982 Q107.705 125.7 109.58 127.969 Q111.478 130.237 111.478 133.57 Q111.478 138.686 107.959 141.487 Q104.441 144.288 97.9595 144.288 Q95.7836 144.288 93.4688 143.848 Q91.1771 143.431 88.7234 142.575 L88.7234 138.061 Q90.6678 139.195 92.9826 139.774 Q95.2974 140.353 97.8206 140.353 Q102.219 140.353 104.51 138.617 Q106.825 136.881 106.825 133.57 Q106.825 130.515 104.672 128.802 Q102.543 127.066 98.7234 127.066 L94.6956 127.066 L94.6956 123.223 L98.9085 123.223 Q102.358 123.223 104.186 121.857 Q106.015 120.469 106.015 117.876 Q106.015 115.214 104.117 113.802 Q102.242 112.367 98.7234 112.367 Q96.8021 112.367 94.603 112.783 Q92.4039 113.2 89.7651 114.08 L89.7651 109.913 Q92.4271 109.172 94.7419 108.802 Q97.0798 108.432 99.14 108.432 Q104.464 108.432 107.566 110.862 Q110.668 113.27 110.668 117.39 Q110.668 120.26 109.024 122.251 Q107.381 124.219 104.348 124.982 Z" fill="#000000" fill-rule="evenodd" fill-opacity="1" /><path clip-path="url(#clip580)" d="M1270.57 54.8446 Q1269.5 60.1322 1268.07 63.1654 Q1265.77 67.7972 1261.84 67.7972 Q1259.05 67.7972 1256.92 66.1166 Q1254.83 64.4361 1254.29 61.6488 Q1253.23 62.9195 1252.45 63.6573 Q1251.71 64.3951 1250.24 65.5428 Q1248.8 66.6495 1247 67.2233 Q1245.19 67.7972 1243.15 67.7972 Q1238.14 67.7972 1234.99 65.1739 Q1230.73 82.3484 1230.36 83.2092 Q1229.17 84.9717 1227.45 84.9717 Q1226.38 84.9717 1225.73 84.3159 Q1225.07 83.701 1225.07 82.7173 Q1225.11 82.3894 1225.36 81.3646 L1237.41 32.7923 Q1237.73 31.4807 1238.55 30.7429 Q1239.42 29.9641 1239.91 29.8821 Q1240.4 29.7591 1240.77 29.7591 Q1241.87 29.7591 1242.53 30.374 Q1243.23 30.9478 1243.23 32.0136 Q1243.23 32.1775 1242.98 33.1203 Q1242.78 34.022 1242.45 35.4157 Q1242.12 36.7683 1241.96 37.3831 L1238.43 51.4835 Q1237.24 56.3202 1237.24 58.6156 Q1237.24 62.0997 1238.8 64.0262 Q1240.4 65.9117 1243.47 65.9117 Q1245.4 65.9117 1247.2 65.1329 Q1249.01 64.3131 1250.24 63.2064 Q1251.47 62.0997 1252.45 60.911 Q1253.43 59.6813 1253.88 58.9025 Q1254.34 58.0827 1254.38 57.8778 L1256.55 49.311 L1260.52 33.6121 Q1260.77 32.6284 1261.22 31.9726 Q1261.71 31.2757 1262.29 31.0298 Q1262.86 30.7839 1263.19 30.7429 Q1263.52 30.6609 1263.8 30.6609 Q1264.83 30.6609 1265.53 31.2757 Q1266.22 31.8906 1266.22 32.9563 Q1266.22 33.1613 1265.98 34.145 Q1265.77 35.0877 1265.44 36.4814 Q1265.12 37.834 1264.95 38.5718 Q1263.64 43.7365 1263.52 44.2693 L1261.18 53.328 Q1261.06 53.8608 1260.65 55.5824 Q1260.28 57.3039 1260.07 58.2057 Q1259.87 59.0665 1259.66 60.2552 Q1259.5 61.4029 1259.5 62.0587 Q1259.5 65.9117 1262.04 65.9117 Q1263.03 65.9117 1263.89 65.3378 Q1264.75 64.723 1265.32 63.8622 Q1265.94 63.0014 1266.51 61.5258 Q1267.12 60.0092 1267.49 58.7795 Q1267.86 57.5089 1268.39 55.5414 Q1268.6 54.5986 1268.8 54.3117 Q1269.01 54.0248 1269.58 54.0248 Q1270.57 54.0248 1270.57 54.8446 Z" fill="#000000" fill-rule="evenodd" fill-opacity="1" /><circle clip-path="url(#clip582)" cx="349.918" cy="984.511" r="14" fill="#009af9" fill-rule="evenodd" fill-opacity="0.25" stroke="#000000" stroke-opacity="0.25" stroke-width="3.2"/>
<circle clip-path="url(#clip582)" cx="650.95" cy="1046.31" r="14" fill="#009af9" fill-rule="evenodd" fill-opacity="0.25" stroke="#000000" stroke-opacity="0.25" stroke-width="3.2"/>
<circle clip-path="url(#clip582)" cx="2140.91" cy="1074.13" r="14" fill="#009af9" fill-rule="evenodd" fill-opacity="0.25" stroke="#000000" stroke-opacity="0.25" stroke-width="3.2"/>
<circle clip-path="url(#clip582)" cx="2058.01" cy="1393.22" r="14" fill="#009af9" fill-rule="evenodd" fill-opacity="0.25" stroke="#000000" stroke-opacity="0.25" stroke-width="3.2"/>
<circle clip-path="url(#clip582)" cx="1841.11" cy="1189.96" r="14" fill="#009af9" fill-rule="evenodd" fill-opacity="0.25" stroke="#000000" stroke-opacity="0.25" stroke-width="3.2"/>
<circle clip-path="url(#clip582)" cx="1385.46" cy="241.852" r="14" fill="#009af9" fill-rule="evenodd" fill-opacity="0.25" stroke="#000000" stroke-opacity="0.25" stroke-width="3.2"/>
<circle clip-path="url(#clip582)" cx="2075.3" cy="1173.96" r="14" fill="#009af9" fill-rule="evenodd" fill-opacity="0.25" stroke="#000000" stroke-opacity="0.25" stroke-width="3.2"/>
<circle clip-path="url(#clip582)" cx="1859.07" cy="1083.67" r="14" fill="#009af9" fill-rule="evenodd" fill-opacity="0.25" stroke="#000000" stroke-opacity="0.25" stroke-width="3.2"/>
<circle clip-path="url(#clip582)" cx="1945.31" cy="1069.27" r="14" fill="#009af9" fill-rule="evenodd" fill-opacity="0.25" stroke="#000000" stroke-opacity="0.25" stroke-width="3.2"/>
<circle clip-path="url(#clip582)" cx="1776.94" cy="1141.6" r="14" fill="#009af9" fill-rule="evenodd" fill-opacity="0.25" stroke="#000000" stroke-opacity="0.25" stroke-width="3.2"/>
<circle clip-path="url(#clip582)" cx="1237.74" cy="258.412" r="14" fill="#009af9" fill-rule="evenodd" fill-opacity="0.25" stroke="#000000" stroke-opacity="0.25" stroke-width="3.2"/>
<circle clip-path="url(#clip582)" cx="1925.17" cy="1005.45" r="14" fill="#009af9" fill-rule="evenodd" fill-opacity="0.25" stroke="#000000" stroke-opacity="0.25" stroke-width="3.2"/>
<circle clip-path="url(#clip582)" cx="1024.86" cy="331.365" r="14" fill="#009af9" fill-rule="evenodd" fill-opacity="0.25" stroke="#000000" stroke-opacity="0.25" stroke-width="3.2"/>
<circle clip-path="url(#clip582)" cx="1948.96" cy="1131.63" r="14" fill="#009af9" fill-rule="evenodd" fill-opacity="0.25" stroke="#000000" stroke-opacity="0.25" stroke-width="3.2"/>
<circle clip-path="url(#clip582)" cx="1221.47" cy="266.067" r="14" fill="#009af9" fill-rule="evenodd" fill-opacity="0.25" stroke="#000000" stroke-opacity="0.25" stroke-width="3.2"/>
<circle clip-path="url(#clip582)" cx="709.773" cy="1198.69" r="14" fill="#009af9" fill-rule="evenodd" fill-opacity="0.25" stroke="#000000" stroke-opacity="0.25" stroke-width="3.2"/>
<circle clip-path="url(#clip582)" cx="893.143" cy="250.767" r="14" fill="#009af9" fill-rule="evenodd" fill-opacity="0.25" stroke="#000000" stroke-opacity="0.25" stroke-width="3.2"/>
<circle clip-path="url(#clip582)" cx="479.821" cy="1319.08" r="14" fill="#009af9" fill-rule="evenodd" fill-opacity="0.25" stroke="#000000" stroke-opacity="0.25" stroke-width="3.2"/>
<circle clip-path="url(#clip582)" cx="2180.41" cy="1144.67" r="14" fill="#009af9" fill-rule="evenodd" fill-opacity="0.25" stroke="#000000" stroke-opacity="0.25" stroke-width="3.2"/>
<circle clip-path="url(#clip582)" cx="814.03" cy="255.69" r="14" fill="#009af9" fill-rule="evenodd" fill-opacity="0.25" stroke="#000000" stroke-opacity="0.25" stroke-width="3.2"/>
<circle clip-path="url(#clip582)" cx="1869.67" cy="1103.68" r="14" fill="#009af9" fill-rule="evenodd" fill-opacity="0.25" stroke="#000000" stroke-opacity="0.25" stroke-width="3.2"/>
<circle clip-path="url(#clip582)" cx="1988.78" cy="1195.24" r="14" fill="#009af9" fill-rule="evenodd" fill-opacity="0.25" stroke="#000000" stroke-opacity="0.25" stroke-width="3.2"/>
<circle clip-path="url(#clip582)" cx="1006.97" cy="478.112" r="14" fill="#009af9" fill-rule="evenodd" fill-opacity="0.25" stroke="#000000" stroke-opacity="0.25" stroke-width="3.2"/>
<circle clip-path="url(#clip582)" cx="686.353" cy="1124.59" r="14" fill="#009af9" fill-rule="evenodd" fill-opacity="0.25" stroke="#000000" stroke-opacity="0.25" stroke-width="3.2"/>
<circle clip-path="url(#clip582)" cx="612.657" cy="1113.53" r="14" fill="#009af9" fill-rule="evenodd" fill-opacity="0.25" stroke="#000000" stroke-opacity="0.25" stroke-width="3.2"/>
<circle clip-path="url(#clip582)" cx="1631.3" cy="1188.08" r="14" fill="#009af9" fill-rule="evenodd" fill-opacity="0.25" stroke="#000000" stroke-opacity="0.25" stroke-width="3.2"/>
<circle clip-path="url(#clip582)" cx="577.853" cy="1159.74" r="14" fill="#009af9" fill-rule="evenodd" fill-opacity="0.25" stroke="#000000" stroke-opacity="0.25" stroke-width="3.2"/>
<circle clip-path="url(#clip582)" cx="1263.53" cy="419.724" r="14" fill="#009af9" fill-rule="evenodd" fill-opacity="0.25" stroke="#000000" stroke-opacity="0.25" stroke-width="3.2"/>
<circle clip-path="url(#clip582)" cx="1459.1" cy="389.395" r="14" fill="#009af9" fill-rule="evenodd" fill-opacity="0.25" stroke="#000000" stroke-opacity="0.25" stroke-width="3.2"/>
<circle clip-path="url(#clip582)" cx="636.544" cy="1447.87" r="14" fill="#009af9" fill-rule="evenodd" fill-opacity="0.25" stroke="#000000" stroke-opacity="0.25" stroke-width="3.2"/>
<circle clip-path="url(#clip582)" cx="1388.6" cy="481.728" r="14" fill="#009af9" fill-rule="evenodd" fill-opacity="0.25" stroke="#000000" stroke-opacity="0.25" stroke-width="3.2"/>
<circle clip-path="url(#clip582)" cx="1471.03" cy="520.098" r="14" fill="#009af9" fill-rule="evenodd" fill-opacity="0.25" stroke="#000000" stroke-opacity="0.25" stroke-width="3.2"/>
<circle clip-path="url(#clip582)" cx="1033.37" cy="326.022" r="14" fill="#009af9" fill-rule="evenodd" fill-opacity="0.25" stroke="#000000" stroke-opacity="0.25" stroke-width="3.2"/>
<circle clip-path="url(#clip582)" cx="1442.25" cy="417.125" r="14" fill="#009af9" fill-rule="evenodd" fill-opacity="0.25" stroke="#000000" stroke-opacity="0.25" stroke-width="3.2"/>
<circle clip-path="url(#clip582)" cx="1248.94" cy="162.047" r="14" fill="#009af9" fill-rule="evenodd" fill-opacity="0.25" stroke="#000000" stroke-opacity="0.25" stroke-width="3.2"/>
<circle clip-path="url(#clip582)" cx="619.999" cy="1168.33" r="14" fill="#009af9" fill-rule="evenodd" fill-opacity="0.25" stroke="#000000" stroke-opacity="0.25" stroke-width="3.2"/>
<circle clip-path="url(#clip582)" cx="2086.96" cy="1111.93" r="14" fill="#009af9" fill-rule="evenodd" fill-opacity="0.25" stroke="#000000" stroke-opacity="0.25" stroke-width="3.2"/>
<circle clip-path="url(#clip582)" cx="1744.45" cy="1044.77" r="14" fill="#009af9" fill-rule="evenodd" fill-opacity="0.25" stroke="#000000" stroke-opacity="0.25" stroke-width="3.2"/>
<circle clip-path="url(#clip582)" cx="476.932" cy="1188.69" r="14" fill="#009af9" fill-rule="evenodd" fill-opacity="0.25" stroke="#000000" stroke-opacity="0.25" stroke-width="3.2"/>
<circle clip-path="url(#clip582)" cx="636.876" cy="1206.64" r="14" fill="#009af9" fill-rule="evenodd" fill-opacity="0.25" stroke="#000000" stroke-opacity="0.25" stroke-width="3.2"/>
<circle clip-path="url(#clip582)" cx="1560.34" cy="1245.95" r="14" fill="#009af9" fill-rule="evenodd" fill-opacity="0.25" stroke="#000000" stroke-opacity="0.25" stroke-width="3.2"/>
<circle clip-path="url(#clip582)" cx="1666.29" cy="749.336" r="14" fill="#009af9" fill-rule="evenodd" fill-opacity="0.25" stroke="#000000" stroke-opacity="0.25" stroke-width="3.2"/>
<circle clip-path="url(#clip582)" cx="973.461" cy="246.743" r="14" fill="#009af9" fill-rule="evenodd" fill-opacity="0.25" stroke="#000000" stroke-opacity="0.25" stroke-width="3.2"/>
<circle clip-path="url(#clip582)" cx="656.561" cy="908.905" r="14" fill="#009af9" fill-rule="evenodd" fill-opacity="0.25" stroke="#000000" stroke-opacity="0.25" stroke-width="3.2"/>
<circle clip-path="url(#clip582)" cx="557.578" cy="1118.78" r="14" fill="#009af9" fill-rule="evenodd" fill-opacity="0.25" stroke="#000000" stroke-opacity="0.25" stroke-width="3.2"/>
<circle clip-path="url(#clip582)" cx="944.764" cy="250.319" r="14" fill="#009af9" fill-rule="evenodd" fill-opacity="0.25" stroke="#000000" stroke-opacity="0.25" stroke-width="3.2"/>
<circle clip-path="url(#clip582)" cx="2082.81" cy="1275.04" r="14" fill="#009af9" fill-rule="evenodd" fill-opacity="0.25" stroke="#000000" stroke-opacity="0.25" stroke-width="3.2"/>
<circle clip-path="url(#clip582)" cx="2170.68" cy="1147.89" r="14" fill="#009af9" fill-rule="evenodd" fill-opacity="0.25" stroke="#000000" stroke-opacity="0.25" stroke-width="3.2"/>
<circle clip-path="url(#clip582)" cx="1271.65" cy="559.999" r="14" fill="#009af9" fill-rule="evenodd" fill-opacity="0.25" stroke="#000000" stroke-opacity="0.25" stroke-width="3.2"/>
<circle clip-path="url(#clip582)" cx="1475.93" cy="391.004" r="14" fill="#009af9" fill-rule="evenodd" fill-opacity="0.25" stroke="#000000" stroke-opacity="0.25" stroke-width="3.2"/>
<circle clip-path="url(#clip582)" cx="1723.07" cy="1248.95" r="14" fill="#009af9" fill-rule="evenodd" fill-opacity="0.25" stroke="#000000" stroke-opacity="0.25" stroke-width="3.2"/>
<circle clip-path="url(#clip582)" cx="1657.86" cy="1230.16" r="14" fill="#009af9" fill-rule="evenodd" fill-opacity="0.25" stroke="#000000" stroke-opacity="0.25" stroke-width="3.2"/>
<circle clip-path="url(#clip582)" cx="1038.92" cy="293.232" r="14" fill="#009af9" fill-rule="evenodd" fill-opacity="0.25" stroke="#000000" stroke-opacity="0.25" stroke-width="3.2"/>
<circle clip-path="url(#clip582)" cx="1170.17" cy="1056.91" r="14" fill="#009af9" fill-rule="evenodd" fill-opacity="0.25" stroke="#000000" stroke-opacity="0.25" stroke-width="3.2"/>
<circle clip-path="url(#clip582)" cx="866.13" cy="1004.85" r="14" fill="#009af9" fill-rule="evenodd" fill-opacity="0.25" stroke="#000000" stroke-opacity="0.25" stroke-width="3.2"/>
<circle clip-path="url(#clip582)" cx="1498.45" cy="365.767" r="14" fill="#009af9" fill-rule="evenodd" fill-opacity="0.25" stroke="#000000" stroke-opacity="0.25" stroke-width="3.2"/>
<circle clip-path="url(#clip582)" cx="1307.57" cy="298.769" r="14" fill="#009af9" fill-rule="evenodd" fill-opacity="0.25" stroke="#000000" stroke-opacity="0.25" stroke-width="3.2"/>
<circle clip-path="url(#clip582)" cx="1584.99" cy="1315.75" r="14" fill="#009af9" fill-rule="evenodd" fill-opacity="0.25" stroke="#000000" stroke-opacity="0.25" stroke-width="3.2"/>
<circle clip-path="url(#clip582)" cx="1200.01" cy="494.902" r="14" fill="#009af9" fill-rule="evenodd" fill-opacity="0.25" stroke="#000000" stroke-opacity="0.25" stroke-width="3.2"/>
<circle clip-path="url(#clip582)" cx="1913.87" cy="920.853" r="14" fill="#009af9" fill-rule="evenodd" fill-opacity="0.25" stroke="#000000" stroke-opacity="0.25" stroke-width="3.2"/>
<circle clip-path="url(#clip582)" cx="1757.59" cy="1079.7" r="14" fill="#009af9" fill-rule="evenodd" fill-opacity="0.25" stroke="#000000" stroke-opacity="0.25" stroke-width="3.2"/>
<circle clip-path="url(#clip582)" cx="563.249" cy="1074.7" r="14" fill="#009af9" fill-rule="evenodd" fill-opacity="0.25" stroke="#000000" stroke-opacity="0.25" stroke-width="3.2"/>
<circle clip-path="url(#clip582)" cx="715.533" cy="1051.07" r="14" fill="#009af9" fill-rule="evenodd" fill-opacity="0.25" stroke="#000000" stroke-opacity="0.25" stroke-width="3.2"/>
<circle clip-path="url(#clip582)" cx="1145.86" cy="425.749" r="14" fill="#009af9" fill-rule="evenodd" fill-opacity="0.25" stroke="#000000" stroke-opacity="0.25" stroke-width="3.2"/>
<circle clip-path="url(#clip582)" cx="2290.34" cy="1089.86" r="14" fill="#009af9" fill-rule="evenodd" fill-opacity="0.25" stroke="#000000" stroke-opacity="0.25" stroke-width="3.2"/>
<circle clip-path="url(#clip582)" cx="718.652" cy="1333.44" r="14" fill="#009af9" fill-rule="evenodd" fill-opacity="0.25" stroke="#000000" stroke-opacity="0.25" stroke-width="3.2"/>
<circle clip-path="url(#clip582)" cx="414.466" cy="1446.92" r="14" fill="#009af9" fill-rule="evenodd" fill-opacity="0.25" stroke="#000000" stroke-opacity="0.25" stroke-width="3.2"/>
<circle clip-path="url(#clip582)" cx="1287.97" cy="416.739" r="14" fill="#009af9" fill-rule="evenodd" fill-opacity="0.25" stroke="#000000" stroke-opacity="0.25" stroke-width="3.2"/>
<circle clip-path="url(#clip582)" cx="1960.19" cy="1333.18" r="14" fill="#009af9" fill-rule="evenodd" fill-opacity="0.25" stroke="#000000" stroke-opacity="0.25" stroke-width="3.2"/>
<circle clip-path="url(#clip582)" cx="672.622" cy="1197.16" r="14" fill="#009af9" fill-rule="evenodd" fill-opacity="0.25" stroke="#000000" stroke-opacity="0.25" stroke-width="3.2"/>
<circle clip-path="url(#clip582)" cx="586.625" cy="1192.41" r="14" fill="#009af9" fill-rule="evenodd" fill-opacity="0.25" stroke="#000000" stroke-opacity="0.25" stroke-width="3.2"/>
<circle clip-path="url(#clip582)" cx="1657.58" cy="1289.89" r="14" fill="#009af9" fill-rule="evenodd" fill-opacity="0.25" stroke="#000000" stroke-opacity="0.25" stroke-width="3.2"/>
<circle clip-path="url(#clip582)" cx="1838.15" cy="863.906" r="14" fill="#009af9" fill-rule="evenodd" fill-opacity="0.25" stroke="#000000" stroke-opacity="0.25" stroke-width="3.2"/>
<circle clip-path="url(#clip582)" cx="1741.77" cy="1007.57" r="14" fill="#009af9" fill-rule="evenodd" fill-opacity="0.25" stroke="#000000" stroke-opacity="0.25" stroke-width="3.2"/>
<circle clip-path="url(#clip582)" cx="1101.6" cy="646.169" r="14" fill="#009af9" fill-rule="evenodd" fill-opacity="0.25" stroke="#000000" stroke-opacity="0.25" stroke-width="3.2"/>
<circle clip-path="url(#clip582)" cx="764.451" cy="1237.99" r="14" fill="#009af9" fill-rule="evenodd" fill-opacity="0.25" stroke="#000000" stroke-opacity="0.25" stroke-width="3.2"/>
<circle clip-path="url(#clip582)" cx="1680.25" cy="1265.5" r="14" fill="#009af9" fill-rule="evenodd" fill-opacity="0.25" stroke="#000000" stroke-opacity="0.25" stroke-width="3.2"/>
<circle clip-path="url(#clip582)" cx="1160.81" cy="469.479" r="14" fill="#009af9" fill-rule="evenodd" fill-opacity="0.25" stroke="#000000" stroke-opacity="0.25" stroke-width="3.2"/>
<circle clip-path="url(#clip582)" cx="1330.17" cy="231.389" r="14" fill="#009af9" fill-rule="evenodd" fill-opacity="0.25" stroke="#000000" stroke-opacity="0.25" stroke-width="3.2"/>
<circle clip-path="url(#clip582)" cx="936.709" cy="374.899" r="14" fill="#009af9" fill-rule="evenodd" fill-opacity="0.25" stroke="#000000" stroke-opacity="0.25" stroke-width="3.2"/>
<circle clip-path="url(#clip582)" cx="1001.91" cy="485.99" r="14" fill="#009af9" fill-rule="evenodd" fill-opacity="0.25" stroke="#000000" stroke-opacity="0.25" stroke-width="3.2"/>
<circle clip-path="url(#clip582)" cx="1258.94" cy="394.29" r="14" fill="#009af9" fill-rule="evenodd" fill-opacity="0.25" stroke="#000000" stroke-opacity="0.25" stroke-width="3.2"/>
<circle clip-path="url(#clip582)" cx="805.827" cy="1345.2" r="14" fill="#009af9" fill-rule="evenodd" fill-opacity="0.25" stroke="#000000" stroke-opacity="0.25" stroke-width="3.2"/>
<circle clip-path="url(#clip582)" cx="1241.5" cy="400.108" r="14" fill="#009af9" fill-rule="evenodd" fill-opacity="0.25" stroke="#000000" stroke-opacity="0.25" stroke-width="3.2"/>
<circle clip-path="url(#clip582)" cx="1728.94" cy="1035.58" r="14" fill="#009af9" fill-rule="evenodd" fill-opacity="0.25" stroke="#000000" stroke-opacity="0.25" stroke-width="3.2"/>
<circle clip-path="url(#clip582)" cx="1256.85" cy="494.678" r="14" fill="#009af9" fill-rule="evenodd" fill-opacity="0.25" stroke="#000000" stroke-opacity="0.25" stroke-width="3.2"/>
<circle clip-path="url(#clip582)" cx="2020.07" cy="1326.46" r="14" fill="#009af9" fill-rule="evenodd" fill-opacity="0.25" stroke="#000000" stroke-opacity="0.25" stroke-width="3.2"/>
<circle clip-path="url(#clip582)" cx="1954.39" cy="845.583" r="14" fill="#009af9" fill-rule="evenodd" fill-opacity="0.25" stroke="#000000" stroke-opacity="0.25" stroke-width="3.2"/>
<circle clip-path="url(#clip582)" cx="1862.92" cy="1252.11" r="14" fill="#009af9" fill-rule="evenodd" fill-opacity="0.25" stroke="#000000" stroke-opacity="0.25" stroke-width="3.2"/>
<circle clip-path="url(#clip582)" cx="798.47" cy="1255.8" r="14" fill="#009af9" fill-rule="evenodd" fill-opacity="0.25" stroke="#000000" stroke-opacity="0.25" stroke-width="3.2"/>
<circle clip-path="url(#clip582)" cx="1175.33" cy="388.372" r="14" fill="#009af9" fill-rule="evenodd" fill-opacity="0.25" stroke="#000000" stroke-opacity="0.25" stroke-width="3.2"/>
<circle clip-path="url(#clip582)" cx="1817.93" cy="1055.75" r="14" fill="#009af9" fill-rule="evenodd" fill-opacity="0.25" stroke="#000000" stroke-opacity="0.25" stroke-width="3.2"/>
<circle clip-path="url(#clip582)" cx="209.891" cy="1279.83" r="14" fill="#009af9" fill-rule="evenodd" fill-opacity="0.25" stroke="#000000" stroke-opacity="0.25" stroke-width="3.2"/>
<circle clip-path="url(#clip582)" cx="1296.4" cy="606.218" r="14" fill="#009af9" fill-rule="evenodd" fill-opacity="0.25" stroke="#000000" stroke-opacity="0.25" stroke-width="3.2"/>
<circle clip-path="url(#clip582)" cx="2057.86" cy="1009.64" r="14" fill="#009af9" fill-rule="evenodd" fill-opacity="0.25" stroke="#000000" stroke-opacity="0.25" stroke-width="3.2"/>
<circle clip-path="url(#clip582)" cx="425.865" cy="1117.94" r="14" fill="#009af9" fill-rule="evenodd" fill-opacity="0.25" stroke="#000000" stroke-opacity="0.25" stroke-width="3.2"/>
<circle clip-path="url(#clip582)" cx="1207.9" cy="486.566" r="14" fill="#009af9" fill-rule="evenodd" fill-opacity="0.25" stroke="#000000" stroke-opacity="0.25" stroke-width="3.2"/>
<circle clip-path="url(#clip582)" cx="324.542" cy="1355.96" r="14" fill="#009af9" fill-rule="evenodd" fill-opacity="0.25" stroke="#000000" stroke-opacity="0.25" stroke-width="3.2"/>
<circle clip-path="url(#clip582)" cx="1881.2" cy="1117.59" r="14" fill="#009af9" fill-rule="evenodd" fill-opacity="0.25" stroke="#000000" stroke-opacity="0.25" stroke-width="3.2"/>
<circle clip-path="url(#clip582)" cx="874.351" cy="1065.2" r="14" fill="#009af9" fill-rule="evenodd" fill-opacity="0.25" stroke="#000000" stroke-opacity="0.25" stroke-width="3.2"/>
<path clip-path="url(#clip580)" d="
M1986.82 272.585 L2279.25 272.585 L2279.25 168.905 L1986.82 168.905  Z
  " fill="#ffffff" fill-rule="evenodd" fill-opacity="1"/>
<polyline clip-path="url(#clip580)" style="stroke:#000000; stroke-linecap:butt; stroke-linejoin:round; stroke-width:4; stroke-opacity:1; fill:none" points="
  1986.82,272.585 2279.25,272.585 2279.25,168.905 1986.82,168.905 1986.82,272.585 
  "/>
<circle clip-path="url(#clip580)" cx="2082.82" cy="220.745" r="23" fill="#009af9" fill-rule="evenodd" fill-opacity="0.25" stroke="#000000" stroke-opacity="0.25" stroke-width="5.12"/>
<path clip-path="url(#clip580)" d="M2192.66 240.432 Q2190.85 245.062 2189.14 246.474 Q2187.43 247.886 2184.56 247.886 L2181.15 247.886 L2181.15 244.321 L2183.65 244.321 Q2185.41 244.321 2186.39 243.488 Q2187.36 242.654 2188.54 239.552 L2189.3 237.608 L2178.82 212.099 L2183.33 212.099 L2191.43 232.377 L2199.53 212.099 L2204.05 212.099 L2192.66 240.432 Z" fill="#000000" fill-rule="evenodd" fill-opacity="1" /><path clip-path="url(#clip580)" d="M2211.34 234.089 L2218.98 234.089 L2218.98 207.724 L2210.67 209.391 L2210.67 205.131 L2218.93 203.465 L2223.61 203.465 L2223.61 234.089 L2231.25 234.089 L2231.25 238.025 L2211.34 238.025 L2211.34 234.089 Z" fill="#000000" fill-rule="evenodd" fill-opacity="1" /></svg>
