<?xml version="1.0" encoding="utf-8"?>
<svg xmlns="http://www.w3.org/2000/svg" xmlns:xlink="http://www.w3.org/1999/xlink" width="600" height="400" viewBox="0 0 2400 1600">
<defs>
  <clipPath id="clip580">
    <rect x="0" y="0" width="2400" height="1600"/>
  </clipPath>
</defs>
<path clip-path="url(#clip580)" d="
M0 1600 L2400 1600 L2400 0 L0 0  Z
  " fill="#ffffff" fill-rule="evenodd" fill-opacity="1"/>
<defs>
  <clipPath id="clip581">
    <rect x="480" y="0" width="1681" height="1600"/>
  </clipPath>
</defs>
<path clip-path="url(#clip580)" d="
M112.177 1486.45 L2352.76 1486.45 L2352.76 47.2441 L112.177 47.2441  Z
  " fill="#ffffff" fill-rule="evenodd" fill-opacity="1"/>
<defs>
  <clipPath id="clip582">
    <rect x="112" y="47" width="2242" height="1440"/>
  </clipPath>
</defs>
<polyline clip-path="url(#clip582)" style="stroke:#000000; stroke-linecap:butt; stroke-linejoin:round; stroke-width:2; stroke-opacity:0.1; fill:none" points="
  175.59,1486.45 175.59,47.2441 
  "/>
<polyline clip-path="url(#clip582)" style="stroke:#000000; stroke-linecap:butt; stroke-linejoin:round; stroke-width:2; stroke-opacity:0.1; fill:none" points="
  704.028,1486.45 704.028,47.2441 
  "/>
<polyline clip-path="url(#clip582)" style="stroke:#000000; stroke-linecap:butt; stroke-linejoin:round; stroke-width:2; stroke-opacity:0.1; fill:none" points="
  1232.47,1486.45 1232.47,47.2441 
  "/>
<polyline clip-path="url(#clip582)" style="stroke:#000000; stroke-linecap:butt; stroke-linejoin:round; stroke-width:2; stroke-opacity:0.1; fill:none" points="
  1760.9,1486.45 1760.9,47.2441 
  "/>
<polyline clip-path="url(#clip582)" style="stroke:#000000; stroke-linecap:butt; stroke-linejoin:round; stroke-width:2; stroke-opacity:0.1; fill:none" points="
  2289.34,1486.45 2289.34,47.2441 
  "/>
<polyline clip-path="url(#clip580)" style="stroke:#000000; stroke-linecap:butt; stroke-linejoin:round; stroke-width:4; stroke-opacity:1; fill:none" points="
  112.177,1486.45 2352.76,1486.45 
  "/>
<polyline clip-path="url(#clip580)" style="stroke:#000000; stroke-linecap:butt; stroke-linejoin:round; stroke-width:4; stroke-opacity:1; fill:none" points="
  175.59,1486.45 175.59,1467.55 
  "/>
<polyline clip-path="url(#clip580)" style="stroke:#000000; stroke-linecap:butt; stroke-linejoin:round; stroke-width:4; stroke-opacity:1; fill:none" points="
  704.028,1486.45 704.028,1467.55 
  "/>
<polyline clip-path="url(#clip580)" style="stroke:#000000; stroke-linecap:butt; stroke-linejoin:round; stroke-width:4; stroke-opacity:1; fill:none" points="
  1232.47,1486.45 1232.47,1467.55 
  "/>
<polyline clip-path="url(#clip580)" style="stroke:#000000; stroke-linecap:butt; stroke-linejoin:round; stroke-width:4; stroke-opacity:1; fill:none" points="
  1760.9,1486.45 1760.9,1467.55 
  "/>
<polyline clip-path="url(#clip580)" style="stroke:#000000; stroke-linecap:butt; stroke-linejoin:round; stroke-width:4; stroke-opacity:1; fill:none" points="
  2289.34,1486.45 2289.34,1467.55 
  "/>
<path clip-path="url(#clip580)" d="M122.118 1532.02 L151.794 1532.02 L151.794 1535.95 L122.118 1535.95 L122.118 1532.02 Z" fill="#000000" fill-rule="evenodd" fill-opacity="1" /><path clip-path="url(#clip580)" d="M162.696 1544.91 L170.335 1544.91 L170.335 1518.55 L162.025 1520.21 L162.025 1515.95 L170.289 1514.29 L174.965 1514.29 L174.965 1544.91 L182.604 1544.91 L182.604 1548.85 L162.696 1548.85 L162.696 1544.91 Z" fill="#000000" fill-rule="evenodd" fill-opacity="1" /><path clip-path="url(#clip580)" d="M192.048 1542.97 L196.932 1542.97 L196.932 1548.85 L192.048 1548.85 L192.048 1542.97 Z" fill="#000000" fill-rule="evenodd" fill-opacity="1" /><path clip-path="url(#clip580)" d="M217.117 1517.37 Q213.506 1517.37 211.678 1520.93 Q209.872 1524.47 209.872 1531.6 Q209.872 1538.71 211.678 1542.27 Q213.506 1545.82 217.117 1545.82 Q220.752 1545.82 222.557 1542.27 Q224.386 1538.71 224.386 1531.6 Q224.386 1524.47 222.557 1520.93 Q220.752 1517.37 217.117 1517.37 M217.117 1513.66 Q222.927 1513.66 225.983 1518.27 Q229.062 1522.85 229.062 1531.6 Q229.062 1540.33 225.983 1544.94 Q222.927 1549.52 217.117 1549.52 Q211.307 1549.52 208.228 1544.94 Q205.173 1540.33 205.173 1531.6 Q205.173 1522.85 208.228 1518.27 Q211.307 1513.66 217.117 1513.66 Z" fill="#000000" fill-rule="evenodd" fill-opacity="1" /><path clip-path="url(#clip580)" d="M651.054 1532.02 L680.73 1532.02 L680.73 1535.95 L651.054 1535.95 L651.054 1532.02 Z" fill="#000000" fill-rule="evenodd" fill-opacity="1" /><path clip-path="url(#clip580)" d="M700.822 1517.37 Q697.211 1517.37 695.382 1520.93 Q693.577 1524.47 693.577 1531.6 Q693.577 1538.71 695.382 1542.27 Q697.211 1545.82 700.822 1545.82 Q704.456 1545.82 706.262 1542.27 Q708.091 1538.71 708.091 1531.6 Q708.091 1524.47 706.262 1520.93 Q704.456 1517.37 700.822 1517.37 M700.822 1513.66 Q706.632 1513.66 709.688 1518.27 Q712.767 1522.85 712.767 1531.6 Q712.767 1540.33 709.688 1544.94 Q706.632 1549.52 700.822 1549.52 Q695.012 1549.52 691.933 1544.94 Q688.878 1540.33 688.878 1531.6 Q688.878 1522.85 691.933 1518.27 Q695.012 1513.66 700.822 1513.66 Z" fill="#000000" fill-rule="evenodd" fill-opacity="1" /><path clip-path="url(#clip580)" d="M720.984 1542.97 L725.868 1542.97 L725.868 1548.85 L720.984 1548.85 L720.984 1542.97 Z" fill="#000000" fill-rule="evenodd" fill-opacity="1" /><path clip-path="url(#clip580)" d="M736.1 1514.29 L754.456 1514.29 L754.456 1518.22 L740.382 1518.22 L740.382 1526.7 Q741.401 1526.35 742.419 1526.19 Q743.438 1526 744.456 1526 Q750.243 1526 753.623 1529.17 Q757.002 1532.34 757.002 1537.76 Q757.002 1543.34 753.53 1546.44 Q750.058 1549.52 743.739 1549.52 Q741.563 1549.52 739.294 1549.15 Q737.049 1548.78 734.641 1548.04 L734.641 1543.34 Q736.725 1544.47 738.947 1545.03 Q741.169 1545.58 743.646 1545.58 Q747.651 1545.58 749.989 1543.48 Q752.327 1541.37 752.327 1537.76 Q752.327 1534.15 749.989 1532.04 Q747.651 1529.94 743.646 1529.94 Q741.771 1529.94 739.896 1530.35 Q738.044 1530.77 736.1 1531.65 L736.1 1514.29 Z" fill="#000000" fill-rule="evenodd" fill-opacity="1" /><path clip-path="url(#clip580)" d="M1209.85 1517.37 Q1206.24 1517.37 1204.41 1520.93 Q1202.61 1524.47 1202.61 1531.6 Q1202.61 1538.71 1204.41 1542.27 Q1206.24 1545.82 1209.85 1545.82 Q1213.49 1545.82 1215.29 1542.27 Q1217.12 1538.71 1217.12 1531.6 Q1217.12 1524.47 1215.29 1520.93 Q1213.49 1517.37 1209.85 1517.37 M1209.85 1513.66 Q1215.66 1513.66 1218.72 1518.27 Q1221.8 1522.85 1221.8 1531.6 Q1221.8 1540.33 1218.72 1544.94 Q1215.66 1549.52 1209.85 1549.52 Q1204.04 1549.52 1200.96 1544.94 Q1197.91 1540.33 1197.91 1531.6 Q1197.91 1522.85 1200.96 1518.27 Q1204.04 1513.66 1209.85 1513.66 Z" fill="#000000" fill-rule="evenodd" fill-opacity="1" /><path clip-path="url(#clip580)" d="M1230.01 1542.97 L1234.9 1542.97 L1234.9 1548.85 L1230.01 1548.85 L1230.01 1542.97 Z" fill="#000000" fill-rule="evenodd" fill-opacity="1" /><path clip-path="url(#clip580)" d="M1255.08 1517.37 Q1251.47 1517.37 1249.64 1520.93 Q1247.84 1524.47 1247.84 1531.6 Q1247.84 1538.71 1249.64 1542.27 Q1251.47 1545.82 1255.08 1545.82 Q1258.72 1545.82 1260.52 1542.27 Q1262.35 1538.71 1262.35 1531.6 Q1262.35 1524.47 1260.52 1520.93 Q1258.72 1517.37 1255.08 1517.37 M1255.08 1513.66 Q1260.89 1513.66 1263.95 1518.27 Q1267.03 1522.85 1267.03 1531.6 Q1267.03 1540.33 1263.95 1544.94 Q1260.89 1549.52 1255.08 1549.52 Q1249.27 1549.52 1246.19 1544.94 Q1243.14 1540.33 1243.14 1531.6 Q1243.14 1522.85 1246.19 1518.27 Q1249.27 1513.66 1255.08 1513.66 Z" fill="#000000" fill-rule="evenodd" fill-opacity="1" /><path clip-path="url(#clip580)" d="M1738.79 1517.37 Q1735.18 1517.37 1733.35 1520.93 Q1731.54 1524.47 1731.54 1531.6 Q1731.54 1538.71 1733.35 1542.27 Q1735.18 1545.82 1738.79 1545.82 Q1742.42 1545.82 1744.23 1542.27 Q1746.06 1538.71 1746.06 1531.6 Q1746.06 1524.47 1744.23 1520.93 Q1742.42 1517.37 1738.79 1517.37 M1738.79 1513.66 Q1744.6 1513.66 1747.65 1518.27 Q1750.73 1522.85 1750.73 1531.6 Q1750.73 1540.33 1747.65 1544.94 Q1744.6 1549.52 1738.79 1549.52 Q1732.98 1549.52 1729.9 1544.94 Q1726.84 1540.33 1726.84 1531.6 Q1726.84 1522.85 1729.9 1518.27 Q1732.98 1513.66 1738.79 1513.66 Z" fill="#000000" fill-rule="evenodd" fill-opacity="1" /><path clip-path="url(#clip580)" d="M1758.95 1542.97 L1763.83 1542.97 L1763.83 1548.85 L1758.95 1548.85 L1758.95 1542.97 Z" fill="#000000" fill-rule="evenodd" fill-opacity="1" /><path clip-path="url(#clip580)" d="M1774.06 1514.29 L1792.42 1514.29 L1792.42 1518.22 L1778.35 1518.22 L1778.35 1526.7 Q1779.37 1526.35 1780.38 1526.19 Q1781.4 1526 1782.42 1526 Q1788.21 1526 1791.59 1529.17 Q1794.97 1532.34 1794.97 1537.76 Q1794.97 1543.34 1791.5 1546.44 Q1788.02 1549.52 1781.7 1549.52 Q1779.53 1549.52 1777.26 1549.15 Q1775.01 1548.78 1772.61 1548.04 L1772.61 1543.34 Q1774.69 1544.47 1776.91 1545.03 Q1779.13 1545.58 1781.61 1545.58 Q1785.62 1545.58 1787.95 1543.48 Q1790.29 1541.37 1790.29 1537.76 Q1790.29 1534.15 1787.95 1532.04 Q1785.62 1529.94 1781.61 1529.94 Q1779.74 1529.94 1777.86 1530.35 Q1776.01 1530.77 1774.06 1531.65 L1774.06 1514.29 Z" fill="#000000" fill-rule="evenodd" fill-opacity="1" /><path clip-path="url(#clip580)" d="M2256.5 1544.91 L2264.14 1544.91 L2264.14 1518.55 L2255.82 1520.21 L2255.82 1515.95 L2264.09 1514.29 L2268.76 1514.29 L2268.76 1544.91 L2276.4 1544.91 L2276.4 1548.85 L2256.5 1548.85 L2256.5 1544.91 Z" fill="#000000" fill-rule="evenodd" fill-opacity="1" /><path clip-path="url(#clip580)" d="M2285.85 1542.97 L2290.73 1542.97 L2290.73 1548.85 L2285.85 1548.85 L2285.85 1542.97 Z" fill="#000000" fill-rule="evenodd" fill-opacity="1" /><path clip-path="url(#clip580)" d="M2310.92 1517.37 Q2307.31 1517.37 2305.48 1520.93 Q2303.67 1524.47 2303.67 1531.6 Q2303.67 1538.71 2305.48 1542.27 Q2307.31 1545.82 2310.92 1545.82 Q2314.55 1545.82 2316.36 1542.27 Q2318.19 1538.71 2318.19 1531.6 Q2318.19 1524.47 2316.36 1520.93 Q2314.55 1517.37 2310.92 1517.37 M2310.92 1513.66 Q2316.73 1513.66 2319.78 1518.27 Q2322.86 1522.85 2322.86 1531.6 Q2322.86 1540.33 2319.78 1544.94 Q2316.73 1549.52 2310.92 1549.52 Q2305.11 1549.52 2302.03 1544.94 Q2298.97 1540.33 2298.97 1531.6 Q2298.97 1522.85 2302.03 1518.27 Q2305.11 1513.66 2310.92 1513.66 Z" fill="#000000" fill-rule="evenodd" fill-opacity="1" /><polyline clip-path="url(#clip582)" style="stroke:#000000; stroke-linecap:butt; stroke-linejoin:round; stroke-width:2; stroke-opacity:0.1; fill:none" points="
  112.177,1445.87 2352.76,1445.87 
  "/>
<polyline clip-path="url(#clip582)" style="stroke:#000000; stroke-linecap:butt; stroke-linejoin:round; stroke-width:2; stroke-opacity:0.1; fill:none" points="
  112.177,1204.46 2352.76,1204.46 
  "/>
<polyline clip-path="url(#clip582)" style="stroke:#000000; stroke-linecap:butt; stroke-linejoin:round; stroke-width:2; stroke-opacity:0.1; fill:none" points="
  112.177,963.06 2352.76,963.06 
  "/>
<polyline clip-path="url(#clip582)" style="stroke:#000000; stroke-linecap:butt; stroke-linejoin:round; stroke-width:2; stroke-opacity:0.1; fill:none" points="
  112.177,721.658 2352.76,721.658 
  "/>
<polyline clip-path="url(#clip582)" style="stroke:#000000; stroke-linecap:butt; stroke-linejoin:round; stroke-width:2; stroke-opacity:0.1; fill:none" points="
  112.177,480.255 2352.76,480.255 
  "/>
<polyline clip-path="url(#clip582)" style="stroke:#000000; stroke-linecap:butt; stroke-linejoin:round; stroke-width:2; stroke-opacity:0.1; fill:none" points="
  112.177,238.853 2352.76,238.853 
  "/>
<polyline clip-path="url(#clip580)" style="stroke:#000000; stroke-linecap:butt; stroke-linejoin:round; stroke-width:4; stroke-opacity:1; fill:none" points="
  112.177,1486.45 112.177,47.2441 
  "/>
<polyline clip-path="url(#clip580)" style="stroke:#000000; stroke-linecap:butt; stroke-linejoin:round; stroke-width:4; stroke-opacity:1; fill:none" points="
  112.177,1445.87 131.075,1445.87 
  "/>
<polyline clip-path="url(#clip580)" style="stroke:#000000; stroke-linecap:butt; stroke-linejoin:round; stroke-width:4; stroke-opacity:1; fill:none" points="
  112.177,1204.46 131.075,1204.46 
  "/>
<polyline clip-path="url(#clip580)" style="stroke:#000000; stroke-linecap:butt; stroke-linejoin:round; stroke-width:4; stroke-opacity:1; fill:none" points="
  112.177,963.06 131.075,963.06 
  "/>
<polyline clip-path="url(#clip580)" style="stroke:#000000; stroke-linecap:butt; stroke-linejoin:round; stroke-width:4; stroke-opacity:1; fill:none" points="
  112.177,721.658 131.075,721.658 
  "/>
<polyline clip-path="url(#clip580)" style="stroke:#000000; stroke-linecap:butt; stroke-linejoin:round; stroke-width:4; stroke-opacity:1; fill:none" points="
  112.177,480.255 131.075,480.255 
  "/>
<polyline clip-path="url(#clip580)" style="stroke:#000000; stroke-linecap:butt; stroke-linejoin:round; stroke-width:4; stroke-opacity:1; fill:none" points="
  112.177,238.853 131.075,238.853 
  "/>
<path clip-path="url(#clip580)" d="M64.2328 1431.66 Q60.6217 1431.66 58.793 1435.23 Q56.9875 1438.77 56.9875 1445.9 Q56.9875 1453.01 58.793 1456.57 Q60.6217 1460.11 64.2328 1460.11 Q67.867 1460.11 69.6726 1456.57 Q71.5013 1453.01 71.5013 1445.9 Q71.5013 1438.77 69.6726 1435.23 Q67.867 1431.66 64.2328 1431.66 M64.2328 1427.96 Q70.0429 1427.96 73.0985 1432.57 Q76.1772 1437.15 76.1772 1445.9 Q76.1772 1454.63 73.0985 1459.23 Q70.0429 1463.82 64.2328 1463.82 Q58.4226 1463.82 55.344 1459.23 Q52.2884 1454.63 52.2884 1445.9 Q52.2884 1437.15 55.344 1432.57 Q58.4226 1427.96 64.2328 1427.96 Z" fill="#000000" fill-rule="evenodd" fill-opacity="1" /><path clip-path="url(#clip580)" d="M56.2699 1217.81 L63.9087 1217.81 L63.9087 1191.44 L55.5986 1193.11 L55.5986 1188.85 L63.8624 1187.18 L68.5383 1187.18 L68.5383 1217.81 L76.1772 1217.81 L76.1772 1221.74 L56.2699 1221.74 L56.2699 1217.81 Z" fill="#000000" fill-rule="evenodd" fill-opacity="1" /><path clip-path="url(#clip580)" d="M59.8578 976.405 L76.1772 976.405 L76.1772 980.34 L54.2328 980.34 L54.2328 976.405 Q56.8949 973.651 61.4782 969.021 Q66.0846 964.368 67.2652 963.026 Q69.5105 960.502 70.3902 958.766 Q71.2929 957.007 71.2929 955.317 Q71.2929 952.563 69.3485 950.827 Q67.4272 949.091 64.3254 949.091 Q62.1263 949.091 59.6726 949.854 Q57.2421 950.618 54.4643 952.169 L54.4643 947.447 Q57.2884 946.313 59.7421 945.734 Q62.1958 945.155 64.2328 945.155 Q69.6031 945.155 72.7976 947.841 Q75.992 950.526 75.992 955.016 Q75.992 957.146 75.1818 959.067 Q74.3948 960.965 72.2883 963.558 Q71.7096 964.229 68.6078 967.447 Q65.5059 970.641 59.8578 976.405 Z" fill="#000000" fill-rule="evenodd" fill-opacity="1" /><path clip-path="url(#clip580)" d="M69.0476 720.304 Q72.404 721.021 74.279 723.29 Q76.1772 725.558 76.1772 728.892 Q76.1772 734.007 72.6587 736.808 Q69.1402 739.609 62.6587 739.609 Q60.4828 739.609 58.168 739.169 Q55.8764 738.753 53.4227 737.896 L53.4227 733.382 Q55.3671 734.517 57.6819 735.095 Q59.9967 735.674 62.5198 735.674 Q66.918 735.674 69.2096 733.938 Q71.5244 732.202 71.5244 728.892 Q71.5244 725.836 69.3717 724.123 Q67.242 722.387 63.4226 722.387 L59.3949 722.387 L59.3949 718.544 L63.6078 718.544 Q67.0569 718.544 68.8855 717.179 Q70.7142 715.79 70.7142 713.197 Q70.7142 710.535 68.8161 709.123 Q66.9411 707.688 63.4226 707.688 Q61.5013 707.688 59.3023 708.105 Q57.1032 708.521 54.4643 709.401 L54.4643 705.234 Q57.1264 704.494 59.4412 704.123 Q61.7791 703.753 63.8393 703.753 Q69.1633 703.753 72.2652 706.183 Q75.367 708.591 75.367 712.711 Q75.367 715.581 73.7235 717.572 Q72.08 719.54 69.0476 720.304 Z" fill="#000000" fill-rule="evenodd" fill-opacity="1" /><path clip-path="url(#clip580)" d="M66.5939 467.049 L54.7884 485.498 L66.5939 485.498 L66.5939 467.049 M65.367 462.975 L71.2466 462.975 L71.2466 485.498 L76.1772 485.498 L76.1772 489.387 L71.2466 489.387 L71.2466 497.535 L66.5939 497.535 L66.5939 489.387 L50.9921 489.387 L50.9921 484.873 L65.367 462.975 Z" fill="#000000" fill-rule="evenodd" fill-opacity="1" /><path clip-path="url(#clip580)" d="M55.2745 221.573 L73.6309 221.573 L73.6309 225.508 L59.5569 225.508 L59.5569 233.98 Q60.5754 233.633 61.5939 233.471 Q62.6124 233.286 63.6309 233.286 Q69.418 233.286 72.7976 236.457 Q76.1772 239.628 76.1772 245.045 Q76.1772 250.624 72.705 253.725 Q69.2328 256.804 62.9134 256.804 Q60.7374 256.804 58.4689 256.434 Q56.2236 256.063 53.8162 255.323 L53.8162 250.624 Q55.8995 251.758 58.1217 252.313 Q60.3439 252.869 62.8208 252.869 Q66.8254 252.869 69.1633 250.762 Q71.5013 248.656 71.5013 245.045 Q71.5013 241.434 69.1633 239.327 Q66.8254 237.221 62.8208 237.221 Q60.9458 237.221 59.0708 237.638 Q57.2189 238.054 55.2745 238.934 L55.2745 221.573 Z" fill="#000000" fill-rule="evenodd" fill-opacity="1" /><polyline clip-path="url(#clip582)" style="stroke:#000000; stroke-linecap:butt; stroke-linejoin:round; stroke-width:4; stroke-opacity:1; fill:none" points="
  175.59,87.9763 209.141,304.809 242.693,496.699 276.245,665.413 309.796,812.656 343.348,940.076 376.9,1049.26 410.451,1141.74 444.003,1218.99 477.555,1282.42 
  511.106,1333.38 544.658,1373.17 578.209,1403.02 611.761,1424.11 645.313,1437.56 678.864,1444.43 712.416,1445.72 745.968,1442.36 779.519,1435.25 813.071,1425.2 
  846.623,1412.98 880.174,1399.3 913.726,1384.8 947.278,1370.08 980.829,1355.66 1014.38,1342.01 1047.93,1329.54 1081.48,1318.62 1115.04,1309.52 1148.59,1302.5 
  1182.14,1297.71 1215.69,1295.29 1249.24,1295.29 1282.79,1297.71 1316.35,1302.5 1349.9,1309.52 1383.45,1318.62 1417,1329.54 1450.55,1342.01 1484.1,1355.66 
  1517.66,1370.08 1551.21,1384.8 1584.76,1399.3 1618.31,1412.98 1651.86,1425.2 1685.41,1435.25 1718.97,1442.36 1752.52,1445.72 1786.07,1444.43 1819.62,1437.56 
  1853.17,1424.11 1886.72,1403.02 1920.28,1373.17 1953.83,1333.38 1987.38,1282.42 2020.93,1218.99 2054.48,1141.74 2088.03,1049.26 2121.59,940.076 2155.14,812.656 
  2188.69,665.413 2222.24,496.699 2255.79,304.809 2289.34,87.9763 
  "/>
<path clip-path="url(#clip580)" d="
M1672.77 198.898 L2278.07 198.898 L2278.07 95.2176 L1672.77 95.2176  Z
  " fill="#ffffff" fill-rule="evenodd" fill-opacity="1"/>
<polyline clip-path="url(#clip580)" style="stroke:#000000; stroke-linecap:butt; stroke-linejoin:round; stroke-width:4; stroke-opacity:1; fill:none" points="
  1672.77,198.898 2278.07,198.898 2278.07,95.2176 1672.77,95.2176 1672.77,198.898 
  "/>
<polyline clip-path="url(#clip580)" style="stroke:#000000; stroke-linecap:butt; stroke-linejoin:round; stroke-width:4; stroke-opacity:1; fill:none" points="
  1696.77,147.058 1840.77,147.058 
  "/>
<path clip-path="url(#clip580)" d="M1887.02 130.912 L1887.02 135.472 Q1884.35 134.199 1881.99 133.574 Q1879.63 132.949 1877.43 132.949 Q1873.61 132.949 1871.53 134.43 Q1869.47 135.912 1869.47 138.643 Q1869.47 140.935 1870.84 142.115 Q1872.22 143.273 1876.07 143.99 L1878.89 144.569 Q1884.12 145.565 1886.6 148.088 Q1889.1 150.588 1889.1 154.801 Q1889.1 159.824 1885.72 162.416 Q1882.36 165.009 1875.86 165.009 Q1873.41 165.009 1870.63 164.453 Q1867.87 163.898 1864.91 162.81 L1864.91 157.995 Q1867.76 159.592 1870.49 160.402 Q1873.22 161.213 1875.86 161.213 Q1879.86 161.213 1882.04 159.639 Q1884.22 158.064 1884.22 155.148 Q1884.22 152.602 1882.64 151.166 Q1881.09 149.731 1877.53 149.014 L1874.68 148.458 Q1869.45 147.416 1867.11 145.194 Q1864.77 142.972 1864.77 139.014 Q1864.77 134.43 1867.99 131.791 Q1871.23 129.153 1876.9 129.153 Q1879.33 129.153 1881.85 129.592 Q1884.38 130.032 1887.02 130.912 Z" fill="#000000" fill-rule="evenodd" fill-opacity="1" /><path clip-path="url(#clip580)" d="M1914.86 139.407 L1914.86 143.389 Q1913.06 142.393 1911.23 141.907 Q1909.42 141.398 1907.57 141.398 Q1903.43 141.398 1901.14 144.037 Q1898.84 146.652 1898.84 151.398 Q1898.84 156.143 1901.14 158.782 Q1903.43 161.398 1907.57 161.398 Q1909.42 161.398 1911.23 160.912 Q1913.06 160.402 1914.86 159.407 L1914.86 163.342 Q1913.08 164.176 1911.16 164.592 Q1909.26 165.009 1907.11 165.009 Q1901.25 165.009 1897.8 161.328 Q1894.35 157.648 1894.35 151.398 Q1894.35 145.055 1897.83 141.421 Q1901.32 137.787 1907.39 137.787 Q1909.35 137.787 1911.23 138.203 Q1913.1 138.597 1914.86 139.407 Z" fill="#000000" fill-rule="evenodd" fill-opacity="1" /><path clip-path="url(#clip580)" d="M1934.05 151.305 Q1928.89 151.305 1926.9 152.486 Q1924.91 153.666 1924.91 156.514 Q1924.91 158.782 1926.39 160.125 Q1927.9 161.444 1930.47 161.444 Q1934.01 161.444 1936.14 158.944 Q1938.29 156.421 1938.29 152.254 L1938.29 151.305 L1934.05 151.305 M1942.55 149.546 L1942.55 164.338 L1938.29 164.338 L1938.29 160.402 Q1936.83 162.763 1934.65 163.898 Q1932.48 165.009 1929.33 165.009 Q1925.35 165.009 1922.99 162.787 Q1920.65 160.541 1920.65 156.791 Q1920.65 152.416 1923.57 150.194 Q1926.51 147.972 1932.32 147.972 L1938.29 147.972 L1938.29 147.555 Q1938.29 144.615 1936.34 143.018 Q1934.42 141.398 1930.93 141.398 Q1928.71 141.398 1926.6 141.93 Q1924.49 142.463 1922.55 143.527 L1922.55 139.592 Q1924.89 138.69 1927.09 138.25 Q1929.28 137.787 1931.37 137.787 Q1936.99 137.787 1939.77 140.703 Q1942.55 143.62 1942.55 149.546 Z" fill="#000000" fill-rule="evenodd" fill-opacity="1" /><path clip-path="url(#clip580)" d="M1951.32 128.319 L1955.58 128.319 L1955.58 164.338 L1951.32 164.338 L1951.32 128.319 Z" fill="#000000" fill-rule="evenodd" fill-opacity="1" /><path clip-path="url(#clip580)" d="M1976.28 151.305 Q1971.11 151.305 1969.12 152.486 Q1967.13 153.666 1967.13 156.514 Q1967.13 158.782 1968.61 160.125 Q1970.12 161.444 1972.69 161.444 Q1976.23 161.444 1978.36 158.944 Q1980.51 156.421 1980.51 152.254 L1980.51 151.305 L1976.28 151.305 M1984.77 149.546 L1984.77 164.338 L1980.51 164.338 L1980.51 160.402 Q1979.05 162.763 1976.88 163.898 Q1974.7 165.009 1971.55 165.009 Q1967.57 165.009 1965.21 162.787 Q1962.87 160.541 1962.87 156.791 Q1962.87 152.416 1965.79 150.194 Q1968.73 147.972 1974.54 147.972 L1980.51 147.972 L1980.51 147.555 Q1980.51 144.615 1978.57 143.018 Q1976.65 141.398 1973.15 141.398 Q1970.93 141.398 1968.82 141.93 Q1966.71 142.463 1964.77 143.527 L1964.77 139.592 Q1967.11 138.69 1969.31 138.25 Q1971.51 137.787 1973.59 137.787 Q1979.21 137.787 1981.99 140.703 Q1984.77 143.62 1984.77 149.546 Z" fill="#000000" fill-rule="evenodd" fill-opacity="1" /><path clip-path="url(#clip580)" d="M2008.57 142.393 Q2007.85 141.977 2006.99 141.791 Q2006.16 141.583 2005.14 141.583 Q2001.53 141.583 1999.59 143.944 Q1997.66 146.282 1997.66 150.68 L1997.66 164.338 L1993.38 164.338 L1993.38 138.412 L1997.66 138.412 L1997.66 142.44 Q1999.01 140.078 2001.16 138.944 Q2003.31 137.787 2006.39 137.787 Q2006.83 137.787 2007.36 137.856 Q2007.9 137.903 2008.54 138.018 L2008.57 142.393 Z" fill="#000000" fill-rule="evenodd" fill-opacity="1" /><path clip-path="url(#clip580)" d="M2032.22 160.449 L2032.22 174.199 L2027.94 174.199 L2027.94 138.412 L2032.22 138.412 L2032.22 142.347 Q2033.57 140.032 2035.6 138.921 Q2037.66 137.787 2040.51 137.787 Q2045.23 137.787 2048.17 141.537 Q2051.14 145.287 2051.14 151.398 Q2051.14 157.509 2048.17 161.259 Q2045.23 165.009 2040.51 165.009 Q2037.66 165.009 2035.6 163.898 Q2033.57 162.763 2032.22 160.449 M2046.71 151.398 Q2046.71 146.699 2044.77 144.037 Q2042.85 141.352 2039.47 141.352 Q2036.09 141.352 2034.15 144.037 Q2032.22 146.699 2032.22 151.398 Q2032.22 156.097 2034.15 158.782 Q2036.09 161.444 2039.47 161.444 Q2042.85 161.444 2044.77 158.782 Q2046.71 156.097 2046.71 151.398 Z" fill="#000000" fill-rule="evenodd" fill-opacity="1" /><path clip-path="url(#clip580)" d="M2068.24 141.398 Q2064.82 141.398 2062.83 144.083 Q2060.83 146.745 2060.83 151.398 Q2060.83 156.051 2062.8 158.736 Q2064.79 161.398 2068.24 161.398 Q2071.64 161.398 2073.64 158.713 Q2075.63 156.027 2075.63 151.398 Q2075.63 146.791 2073.64 144.106 Q2071.64 141.398 2068.24 141.398 M2068.24 137.787 Q2073.8 137.787 2076.97 141.398 Q2080.14 145.009 2080.14 151.398 Q2080.14 157.764 2076.97 161.398 Q2073.8 165.009 2068.24 165.009 Q2062.66 165.009 2059.49 161.398 Q2056.34 157.764 2056.34 151.398 Q2056.34 145.009 2059.49 141.398 Q2062.66 137.787 2068.24 137.787 Z" fill="#000000" fill-rule="evenodd" fill-opacity="1" /><path clip-path="url(#clip580)" d="M2091.41 131.051 L2091.41 138.412 L2100.19 138.412 L2100.19 141.722 L2091.41 141.722 L2091.41 155.796 Q2091.41 158.967 2092.27 159.87 Q2093.15 160.773 2095.81 160.773 L2100.19 160.773 L2100.19 164.338 L2095.81 164.338 Q2090.88 164.338 2089.01 162.509 Q2087.13 160.657 2087.13 155.796 L2087.13 141.722 L2084.01 141.722 L2084.01 138.412 L2087.13 138.412 L2087.13 131.051 L2091.41 131.051 Z" fill="#000000" fill-rule="evenodd" fill-opacity="1" /><path clip-path="url(#clip580)" d="M2127.96 150.31 L2127.96 152.393 L2108.38 152.393 Q2108.66 156.791 2111.02 159.106 Q2113.4 161.398 2117.64 161.398 Q2120.09 161.398 2122.39 160.796 Q2124.7 160.194 2126.97 158.99 L2126.97 163.018 Q2124.68 163.99 2122.27 164.5 Q2119.86 165.009 2117.39 165.009 Q2111.18 165.009 2107.55 161.398 Q2103.94 157.787 2103.94 151.629 Q2103.94 145.264 2107.36 141.537 Q2110.81 137.787 2116.64 137.787 Q2121.88 137.787 2124.91 141.166 Q2127.96 144.523 2127.96 150.31 M2123.7 149.06 Q2123.66 145.565 2121.74 143.481 Q2119.84 141.398 2116.69 141.398 Q2113.13 141.398 2110.97 143.412 Q2108.84 145.426 2108.52 149.083 L2123.7 149.06 Z" fill="#000000" fill-rule="evenodd" fill-opacity="1" /><path clip-path="url(#clip580)" d="M2156.51 148.689 L2156.51 164.338 L2152.25 164.338 L2152.25 148.828 Q2152.25 145.148 2150.81 143.319 Q2149.38 141.49 2146.51 141.49 Q2143.06 141.49 2141.07 143.69 Q2139.08 145.889 2139.08 149.685 L2139.08 164.338 L2134.79 164.338 L2134.79 138.412 L2139.08 138.412 L2139.08 142.44 Q2140.6 140.102 2142.66 138.944 Q2144.75 137.787 2147.45 137.787 Q2151.92 137.787 2154.21 140.565 Q2156.51 143.319 2156.51 148.689 Z" fill="#000000" fill-rule="evenodd" fill-opacity="1" /><path clip-path="url(#clip580)" d="M2169.21 131.051 L2169.21 138.412 L2177.99 138.412 L2177.99 141.722 L2169.21 141.722 L2169.21 155.796 Q2169.21 158.967 2170.07 159.87 Q2170.95 160.773 2173.61 160.773 L2177.99 160.773 L2177.99 164.338 L2173.61 164.338 Q2168.68 164.338 2166.81 162.509 Q2164.93 160.657 2164.93 155.796 L2164.93 141.722 L2161.81 141.722 L2161.81 138.412 L2164.93 138.412 L2164.93 131.051 L2169.21 131.051 Z" fill="#000000" fill-rule="evenodd" fill-opacity="1" /><path clip-path="url(#clip580)" d="M2183.59 138.412 L2187.85 138.412 L2187.85 164.338 L2183.59 164.338 L2183.59 138.412 M2183.59 128.319 L2187.85 128.319 L2187.85 133.713 L2183.59 133.713 L2183.59 128.319 Z" fill="#000000" fill-rule="evenodd" fill-opacity="1" /><path clip-path="url(#clip580)" d="M2208.54 151.305 Q2203.38 151.305 2201.39 152.486 Q2199.4 153.666 2199.4 156.514 Q2199.4 158.782 2200.88 160.125 Q2202.38 161.444 2204.95 161.444 Q2208.5 161.444 2210.63 158.944 Q2212.78 156.421 2212.78 152.254 L2212.78 151.305 L2208.54 151.305 M2217.04 149.546 L2217.04 164.338 L2212.78 164.338 L2212.78 160.402 Q2211.32 162.763 2209.14 163.898 Q2206.97 165.009 2203.82 165.009 Q2199.84 165.009 2197.48 162.787 Q2195.14 160.541 2195.14 156.791 Q2195.14 152.416 2198.06 150.194 Q2201 147.972 2206.81 147.972 L2212.78 147.972 L2212.78 147.555 Q2212.78 144.615 2210.83 143.018 Q2208.91 141.398 2205.42 141.398 Q2203.2 141.398 2201.09 141.93 Q2198.98 142.463 2197.04 143.527 L2197.04 139.592 Q2199.38 138.69 2201.57 138.25 Q2203.77 137.787 2205.86 137.787 Q2211.48 137.787 2214.26 140.703 Q2217.04 143.62 2217.04 149.546 Z" fill="#000000" fill-rule="evenodd" fill-opacity="1" /><path clip-path="url(#clip580)" d="M2225.81 128.319 L2230.07 128.319 L2230.07 164.338 L2225.81 164.338 L2225.81 128.319 Z" fill="#000000" fill-rule="evenodd" fill-opacity="1" /></svg>
