<?xml version="1.0" encoding="utf-8"?>
<svg xmlns="http://www.w3.org/2000/svg" xmlns:xlink="http://www.w3.org/1999/xlink" width="800" height="400" viewBox="0 0 3200 1600">
<defs>
  <clipPath id="clip140">
    <rect x="0" y="0" width="3200" height="1600"/>
  </clipPath>
</defs>
<path clip-path="url(#clip140)" d="
M0 1600 L3200 1600 L3200 0 L0 0  Z
  " fill="#ffffff" fill-rule="evenodd" fill-opacity="1"/>
<defs>
  <clipPath id="clip141">
    <rect x="640" y="0" width="2241" height="1600"/>
  </clipPath>
</defs>
<defs>
  <clipPath id="clip142">
    <rect x="2881" y="0" width="97" height="1600"/>
  </clipPath>
</defs>
<path clip-path="url(#clip140)" d="
M194.76 1495.09 L2436.83 1495.09 L2436.83 47.2441 L194.76 47.2441  Z
  " fill="#ffffff" fill-rule="evenodd" fill-opacity="1"/>
<defs>
  <clipPath id="clip143">
    <rect x="194" y="47" width="2243" height="1449"/>
  </clipPath>
</defs>
<polyline clip-path="url(#clip143)" style="stroke:#000000; stroke-linecap:butt; stroke-linejoin:round; stroke-width:2; stroke-opacity:0.1; fill:none" points="
  258.215,1495.09 258.215,47.2441 
  "/>
<polyline clip-path="url(#clip143)" style="stroke:#000000; stroke-linecap:butt; stroke-linejoin:round; stroke-width:2; stroke-opacity:0.1; fill:none" points="
  787.006,1495.09 787.006,47.2441 
  "/>
<polyline clip-path="url(#clip143)" style="stroke:#000000; stroke-linecap:butt; stroke-linejoin:round; stroke-width:2; stroke-opacity:0.1; fill:none" points="
  1315.8,1495.09 1315.8,47.2441 
  "/>
<polyline clip-path="url(#clip143)" style="stroke:#000000; stroke-linecap:butt; stroke-linejoin:round; stroke-width:2; stroke-opacity:0.1; fill:none" points="
  1844.59,1495.09 1844.59,47.2441 
  "/>
<polyline clip-path="url(#clip143)" style="stroke:#000000; stroke-linecap:butt; stroke-linejoin:round; stroke-width:2; stroke-opacity:0.1; fill:none" points="
  2373.38,1495.09 2373.38,47.2441 
  "/>
<polyline clip-path="url(#clip140)" style="stroke:#000000; stroke-linecap:butt; stroke-linejoin:round; stroke-width:4; stroke-opacity:1; fill:none" points="
  194.76,1495.09 2436.83,1495.09 
  "/>
<polyline clip-path="url(#clip140)" style="stroke:#000000; stroke-linecap:butt; stroke-linejoin:round; stroke-width:4; stroke-opacity:1; fill:none" points="
  258.215,1495.09 258.215,1476.19 
  "/>
<polyline clip-path="url(#clip140)" style="stroke:#000000; stroke-linecap:butt; stroke-linejoin:round; stroke-width:4; stroke-opacity:1; fill:none" points="
  787.006,1495.09 787.006,1476.19 
  "/>
<polyline clip-path="url(#clip140)" style="stroke:#000000; stroke-linecap:butt; stroke-linejoin:round; stroke-width:4; stroke-opacity:1; fill:none" points="
  1315.8,1495.09 1315.8,1476.19 
  "/>
<polyline clip-path="url(#clip140)" style="stroke:#000000; stroke-linecap:butt; stroke-linejoin:round; stroke-width:4; stroke-opacity:1; fill:none" points="
  1844.59,1495.09 1844.59,1476.19 
  "/>
<polyline clip-path="url(#clip140)" style="stroke:#000000; stroke-linecap:butt; stroke-linejoin:round; stroke-width:4; stroke-opacity:1; fill:none" points="
  2373.38,1495.09 2373.38,1476.19 
  "/>
<path clip-path="url(#clip140)" d="M204.743 1547.06 L234.419 1547.06 L234.419 1550.99 L204.743 1550.99 L204.743 1547.06 Z" fill="#000000" fill-rule="evenodd" fill-opacity="1" /><path clip-path="url(#clip140)" d="M245.322 1559.95 L252.96 1559.95 L252.96 1533.59 L244.65 1535.25 L244.65 1530.99 L252.914 1529.33 L257.59 1529.33 L257.59 1559.95 L265.229 1559.95 L265.229 1563.89 L245.322 1563.89 L245.322 1559.95 Z" fill="#000000" fill-rule="evenodd" fill-opacity="1" /><path clip-path="url(#clip140)" d="M274.673 1558.01 L279.557 1558.01 L279.557 1563.89 L274.673 1563.89 L274.673 1558.01 Z" fill="#000000" fill-rule="evenodd" fill-opacity="1" /><path clip-path="url(#clip140)" d="M299.743 1532.41 Q296.131 1532.41 294.303 1535.97 Q292.497 1539.51 292.497 1546.64 Q292.497 1553.75 294.303 1557.31 Q296.131 1560.86 299.743 1560.86 Q303.377 1560.86 305.182 1557.31 Q307.011 1553.75 307.011 1546.64 Q307.011 1539.51 305.182 1535.97 Q303.377 1532.41 299.743 1532.41 M299.743 1528.7 Q305.553 1528.7 308.608 1533.31 Q311.687 1537.89 311.687 1546.64 Q311.687 1555.37 308.608 1559.98 Q305.553 1564.56 299.743 1564.56 Q293.932 1564.56 290.854 1559.98 Q287.798 1555.37 287.798 1546.64 Q287.798 1537.89 290.854 1533.31 Q293.932 1528.7 299.743 1528.7 Z" fill="#000000" fill-rule="evenodd" fill-opacity="1" /><path clip-path="url(#clip140)" d="M734.031 1547.06 L763.707 1547.06 L763.707 1550.99 L734.031 1550.99 L734.031 1547.06 Z" fill="#000000" fill-rule="evenodd" fill-opacity="1" /><path clip-path="url(#clip140)" d="M783.8 1532.41 Q780.188 1532.41 778.36 1535.97 Q776.554 1539.51 776.554 1546.64 Q776.554 1553.75 778.36 1557.31 Q780.188 1560.86 783.8 1560.86 Q787.434 1560.86 789.239 1557.31 Q791.068 1553.75 791.068 1546.64 Q791.068 1539.51 789.239 1535.97 Q787.434 1532.41 783.8 1532.41 M783.8 1528.7 Q789.61 1528.7 792.665 1533.31 Q795.744 1537.89 795.744 1546.64 Q795.744 1555.37 792.665 1559.98 Q789.61 1564.56 783.8 1564.56 Q777.989 1564.56 774.911 1559.98 Q771.855 1555.37 771.855 1546.64 Q771.855 1537.89 774.911 1533.31 Q777.989 1528.7 783.8 1528.7 Z" fill="#000000" fill-rule="evenodd" fill-opacity="1" /><path clip-path="url(#clip140)" d="M803.961 1558.01 L808.846 1558.01 L808.846 1563.89 L803.961 1563.89 L803.961 1558.01 Z" fill="#000000" fill-rule="evenodd" fill-opacity="1" /><path clip-path="url(#clip140)" d="M819.077 1529.33 L837.433 1529.33 L837.433 1533.26 L823.359 1533.26 L823.359 1541.74 Q824.378 1541.39 825.397 1541.23 Q826.415 1541.04 827.434 1541.04 Q833.221 1541.04 836.6 1544.21 Q839.98 1547.38 839.98 1552.8 Q839.98 1558.38 836.508 1561.48 Q833.035 1564.56 826.716 1564.56 Q824.54 1564.56 822.272 1564.19 Q820.026 1563.82 817.619 1563.08 L817.619 1558.38 Q819.702 1559.51 821.924 1560.07 Q824.147 1560.62 826.623 1560.62 Q830.628 1560.62 832.966 1558.52 Q835.304 1556.41 835.304 1552.8 Q835.304 1549.19 832.966 1547.08 Q830.628 1544.98 826.623 1544.98 Q824.748 1544.98 822.873 1545.39 Q821.022 1545.81 819.077 1546.69 L819.077 1529.33 Z" fill="#000000" fill-rule="evenodd" fill-opacity="1" /><path clip-path="url(#clip140)" d="M1293.18 1532.41 Q1289.57 1532.41 1287.74 1535.97 Q1285.94 1539.51 1285.94 1546.64 Q1285.94 1553.75 1287.74 1557.31 Q1289.57 1560.86 1293.18 1560.86 Q1296.81 1560.86 1298.62 1557.31 Q1300.45 1553.75 1300.45 1546.64 Q1300.45 1539.51 1298.62 1535.97 Q1296.81 1532.41 1293.18 1532.41 M1293.18 1528.7 Q1298.99 1528.7 1302.05 1533.31 Q1305.12 1537.89 1305.12 1546.64 Q1305.12 1555.37 1302.05 1559.98 Q1298.99 1564.56 1293.18 1564.56 Q1287.37 1564.56 1284.29 1559.98 Q1281.24 1555.37 1281.24 1546.64 Q1281.24 1537.89 1284.29 1533.31 Q1287.37 1528.7 1293.18 1528.7 Z" fill="#000000" fill-rule="evenodd" fill-opacity="1" /><path clip-path="url(#clip140)" d="M1313.34 1558.01 L1318.23 1558.01 L1318.23 1563.89 L1313.34 1563.89 L1313.34 1558.01 Z" fill="#000000" fill-rule="evenodd" fill-opacity="1" /><path clip-path="url(#clip140)" d="M1338.41 1532.41 Q1334.8 1532.41 1332.97 1535.97 Q1331.17 1539.51 1331.17 1546.64 Q1331.17 1553.75 1332.97 1557.31 Q1334.8 1560.86 1338.41 1560.86 Q1342.05 1560.86 1343.85 1557.31 Q1345.68 1553.75 1345.68 1546.64 Q1345.68 1539.51 1343.85 1535.97 Q1342.05 1532.41 1338.41 1532.41 M1338.41 1528.7 Q1344.22 1528.7 1347.28 1533.31 Q1350.36 1537.89 1350.36 1546.64 Q1350.36 1555.37 1347.28 1559.98 Q1344.22 1564.56 1338.41 1564.56 Q1332.6 1564.56 1329.52 1559.98 Q1326.47 1555.37 1326.47 1546.64 Q1326.47 1537.89 1329.52 1533.31 Q1332.6 1528.7 1338.41 1528.7 Z" fill="#000000" fill-rule="evenodd" fill-opacity="1" /><path clip-path="url(#clip140)" d="M1822.47 1532.41 Q1818.86 1532.41 1817.03 1535.97 Q1815.22 1539.51 1815.22 1546.64 Q1815.22 1553.75 1817.03 1557.31 Q1818.86 1560.86 1822.47 1560.86 Q1826.1 1560.86 1827.91 1557.31 Q1829.74 1553.75 1829.74 1546.64 Q1829.74 1539.51 1827.91 1535.97 Q1826.1 1532.41 1822.47 1532.41 M1822.47 1528.7 Q1828.28 1528.7 1831.33 1533.31 Q1834.41 1537.89 1834.41 1546.64 Q1834.41 1555.37 1831.33 1559.98 Q1828.28 1564.56 1822.47 1564.56 Q1816.66 1564.56 1813.58 1559.98 Q1810.52 1555.37 1810.52 1546.64 Q1810.52 1537.89 1813.58 1533.31 Q1816.66 1528.7 1822.47 1528.7 Z" fill="#000000" fill-rule="evenodd" fill-opacity="1" /><path clip-path="url(#clip140)" d="M1842.63 1558.01 L1847.51 1558.01 L1847.51 1563.89 L1842.63 1563.89 L1842.63 1558.01 Z" fill="#000000" fill-rule="evenodd" fill-opacity="1" /><path clip-path="url(#clip140)" d="M1857.75 1529.33 L1876.1 1529.33 L1876.1 1533.26 L1862.03 1533.26 L1862.03 1541.74 Q1863.05 1541.39 1864.07 1541.23 Q1865.08 1541.04 1866.1 1541.04 Q1871.89 1541.04 1875.27 1544.21 Q1878.65 1547.38 1878.65 1552.8 Q1878.65 1558.38 1875.18 1561.48 Q1871.7 1564.56 1865.39 1564.56 Q1863.21 1564.56 1860.94 1564.19 Q1858.7 1563.82 1856.29 1563.08 L1856.29 1558.38 Q1858.37 1559.51 1860.59 1560.07 Q1862.82 1560.62 1865.29 1560.62 Q1869.3 1560.62 1871.64 1558.52 Q1873.97 1556.41 1873.97 1552.8 Q1873.97 1549.19 1871.64 1547.08 Q1869.3 1544.98 1865.29 1544.98 Q1863.42 1544.98 1861.54 1545.39 Q1859.69 1545.81 1857.75 1546.69 L1857.75 1529.33 Z" fill="#000000" fill-rule="evenodd" fill-opacity="1" /><path clip-path="url(#clip140)" d="M2340.53 1559.95 L2348.17 1559.95 L2348.17 1533.59 L2339.86 1535.25 L2339.86 1530.99 L2348.12 1529.33 L2352.8 1529.33 L2352.8 1559.95 L2360.44 1559.95 L2360.44 1563.89 L2340.53 1563.89 L2340.53 1559.95 Z" fill="#000000" fill-rule="evenodd" fill-opacity="1" /><path clip-path="url(#clip140)" d="M2369.88 1558.01 L2374.77 1558.01 L2374.77 1563.89 L2369.88 1563.89 L2369.88 1558.01 Z" fill="#000000" fill-rule="evenodd" fill-opacity="1" /><path clip-path="url(#clip140)" d="M2394.95 1532.41 Q2391.34 1532.41 2389.51 1535.97 Q2387.71 1539.51 2387.71 1546.64 Q2387.71 1553.75 2389.51 1557.31 Q2391.34 1560.86 2394.95 1560.86 Q2398.59 1560.86 2400.39 1557.31 Q2402.22 1553.75 2402.22 1546.64 Q2402.22 1539.51 2400.39 1535.97 Q2398.59 1532.41 2394.95 1532.41 M2394.95 1528.7 Q2400.76 1528.7 2403.82 1533.31 Q2406.9 1537.89 2406.9 1546.64 Q2406.9 1555.37 2403.82 1559.98 Q2400.76 1564.56 2394.95 1564.56 Q2389.14 1564.56 2386.06 1559.98 Q2383.01 1555.37 2383.01 1546.64 Q2383.01 1537.89 2386.06 1533.31 Q2389.14 1528.7 2394.95 1528.7 Z" fill="#000000" fill-rule="evenodd" fill-opacity="1" /><polyline clip-path="url(#clip143)" style="stroke:#000000; stroke-linecap:butt; stroke-linejoin:round; stroke-width:2; stroke-opacity:0.1; fill:none" points="
  194.76,1454.11 2436.83,1454.11 
  "/>
<polyline clip-path="url(#clip143)" style="stroke:#000000; stroke-linecap:butt; stroke-linejoin:round; stroke-width:2; stroke-opacity:0.1; fill:none" points="
  194.76,1152.58 2436.83,1152.58 
  "/>
<polyline clip-path="url(#clip143)" style="stroke:#000000; stroke-linecap:butt; stroke-linejoin:round; stroke-width:2; stroke-opacity:0.1; fill:none" points="
  194.76,851.045 2436.83,851.045 
  "/>
<polyline clip-path="url(#clip143)" style="stroke:#000000; stroke-linecap:butt; stroke-linejoin:round; stroke-width:2; stroke-opacity:0.1; fill:none" points="
  194.76,549.511 2436.83,549.511 
  "/>
<polyline clip-path="url(#clip143)" style="stroke:#000000; stroke-linecap:butt; stroke-linejoin:round; stroke-width:2; stroke-opacity:0.1; fill:none" points="
  194.76,247.978 2436.83,247.978 
  "/>
<polyline clip-path="url(#clip140)" style="stroke:#000000; stroke-linecap:butt; stroke-linejoin:round; stroke-width:4; stroke-opacity:1; fill:none" points="
  194.76,1495.09 194.76,47.2441 
  "/>
<polyline clip-path="url(#clip140)" style="stroke:#000000; stroke-linecap:butt; stroke-linejoin:round; stroke-width:4; stroke-opacity:1; fill:none" points="
  194.76,1454.11 209.084,1454.11 
  "/>
<polyline clip-path="url(#clip140)" style="stroke:#000000; stroke-linecap:butt; stroke-linejoin:round; stroke-width:4; stroke-opacity:1; fill:none" points="
  194.76,1152.58 209.084,1152.58 
  "/>
<polyline clip-path="url(#clip140)" style="stroke:#000000; stroke-linecap:butt; stroke-linejoin:round; stroke-width:4; stroke-opacity:1; fill:none" points="
  194.76,851.045 209.084,851.045 
  "/>
<polyline clip-path="url(#clip140)" style="stroke:#000000; stroke-linecap:butt; stroke-linejoin:round; stroke-width:4; stroke-opacity:1; fill:none" points="
  194.76,549.511 209.084,549.511 
  "/>
<polyline clip-path="url(#clip140)" style="stroke:#000000; stroke-linecap:butt; stroke-linejoin:round; stroke-width:4; stroke-opacity:1; fill:none" points="
  194.76,247.978 209.084,247.978 
  "/>
<path clip-path="url(#clip140)" d="M59.4226 1439.91 Q55.8115 1439.91 53.9828 1443.47 Q52.1773 1447.02 52.1773 1454.15 Q52.1773 1461.25 53.9828 1464.82 Q55.8115 1468.36 59.4226 1468.36 Q63.0569 1468.36 64.8624 1464.82 Q66.6911 1461.25 66.6911 1454.15 Q66.6911 1447.02 64.8624 1443.47 Q63.0569 1439.91 59.4226 1439.91 M59.4226 1436.21 Q65.2328 1436.21 68.2883 1440.81 Q71.367 1445.4 71.367 1454.15 Q71.367 1462.87 68.2883 1467.48 Q65.2328 1472.06 59.4226 1472.06 Q53.6125 1472.06 50.5338 1467.48 Q47.4782 1462.87 47.4782 1454.15 Q47.4782 1445.4 50.5338 1440.81 Q53.6125 1436.21 59.4226 1436.21 Z" fill="#000000" fill-rule="evenodd" fill-opacity="1" /><path clip-path="url(#clip140)" d="M79.5845 1465.51 L84.4688 1465.51 L84.4688 1471.39 L79.5845 1471.39 L79.5845 1465.51 Z" fill="#000000" fill-rule="evenodd" fill-opacity="1" /><path clip-path="url(#clip140)" d="M104.654 1439.91 Q101.043 1439.91 99.2141 1443.47 Q97.4085 1447.02 97.4085 1454.15 Q97.4085 1461.25 99.2141 1464.82 Q101.043 1468.36 104.654 1468.36 Q108.288 1468.36 110.094 1464.82 Q111.922 1461.25 111.922 1454.15 Q111.922 1447.02 110.094 1443.47 Q108.288 1439.91 104.654 1439.91 M104.654 1436.21 Q110.464 1436.21 113.52 1440.81 Q116.598 1445.4 116.598 1454.15 Q116.598 1462.87 113.52 1467.48 Q110.464 1472.06 104.654 1472.06 Q98.8437 1472.06 95.765 1467.48 Q92.7095 1462.87 92.7095 1454.15 Q92.7095 1445.4 95.765 1440.81 Q98.8437 1436.21 104.654 1436.21 Z" fill="#000000" fill-rule="evenodd" fill-opacity="1" /><path clip-path="url(#clip140)" d="M134.816 1439.91 Q131.205 1439.91 129.376 1443.47 Q127.57 1447.02 127.57 1454.15 Q127.57 1461.25 129.376 1464.82 Q131.205 1468.36 134.816 1468.36 Q138.45 1468.36 140.256 1464.82 Q142.084 1461.25 142.084 1454.15 Q142.084 1447.02 140.256 1443.47 Q138.45 1439.91 134.816 1439.91 M134.816 1436.21 Q140.626 1436.21 143.681 1440.81 Q146.76 1445.4 146.76 1454.15 Q146.76 1462.87 143.681 1467.48 Q140.626 1472.06 134.816 1472.06 Q129.006 1472.06 125.927 1467.48 Q122.871 1462.87 122.871 1454.15 Q122.871 1445.4 125.927 1440.81 Q129.006 1436.21 134.816 1436.21 Z" fill="#000000" fill-rule="evenodd" fill-opacity="1" /><path clip-path="url(#clip140)" d="M60.6495 1138.38 Q57.0384 1138.38 55.2097 1141.94 Q53.4041 1145.48 53.4041 1152.61 Q53.4041 1159.72 55.2097 1163.28 Q57.0384 1166.83 60.6495 1166.83 Q64.2837 1166.83 66.0892 1163.28 Q67.9179 1159.72 67.9179 1152.61 Q67.9179 1145.48 66.0892 1141.94 Q64.2837 1138.38 60.6495 1138.38 M60.6495 1134.67 Q66.4596 1134.67 69.5152 1139.28 Q72.5938 1143.86 72.5938 1152.61 Q72.5938 1161.34 69.5152 1165.95 Q66.4596 1170.53 60.6495 1170.53 Q54.8393 1170.53 51.7606 1165.95 Q48.7051 1161.34 48.7051 1152.61 Q48.7051 1143.86 51.7606 1139.28 Q54.8393 1134.67 60.6495 1134.67 Z" fill="#000000" fill-rule="evenodd" fill-opacity="1" /><path clip-path="url(#clip140)" d="M80.8114 1163.98 L85.6956 1163.98 L85.6956 1169.86 L80.8114 1169.86 L80.8114 1163.98 Z" fill="#000000" fill-rule="evenodd" fill-opacity="1" /><path clip-path="url(#clip140)" d="M105.881 1138.38 Q102.27 1138.38 100.441 1141.94 Q98.6354 1145.48 98.6354 1152.61 Q98.6354 1159.72 100.441 1163.28 Q102.27 1166.83 105.881 1166.83 Q109.515 1166.83 111.32 1163.28 Q113.149 1159.72 113.149 1152.61 Q113.149 1145.48 111.32 1141.94 Q109.515 1138.38 105.881 1138.38 M105.881 1134.67 Q111.691 1134.67 114.746 1139.28 Q117.825 1143.86 117.825 1152.61 Q117.825 1161.34 114.746 1165.95 Q111.691 1170.53 105.881 1170.53 Q100.071 1170.53 96.9919 1165.95 Q93.9363 1161.34 93.9363 1152.61 Q93.9363 1143.86 96.9919 1139.28 Q100.071 1134.67 105.881 1134.67 Z" fill="#000000" fill-rule="evenodd" fill-opacity="1" /><path clip-path="url(#clip140)" d="M126.853 1165.92 L134.492 1165.92 L134.492 1139.56 L126.182 1141.22 L126.182 1136.96 L134.445 1135.3 L139.121 1135.3 L139.121 1165.92 L146.76 1165.92 L146.76 1169.86 L126.853 1169.86 L126.853 1165.92 Z" fill="#000000" fill-rule="evenodd" fill-opacity="1" /><path clip-path="url(#clip140)" d="M61.0198 836.843 Q57.4087 836.843 55.58 840.408 Q53.7745 843.95 53.7745 851.079 Q53.7745 858.186 55.58 861.751 Q57.4087 865.292 61.0198 865.292 Q64.6541 865.292 66.4596 861.751 Q68.2883 858.186 68.2883 851.079 Q68.2883 843.95 66.4596 840.408 Q64.6541 836.843 61.0198 836.843 M61.0198 833.14 Q66.83 833.14 69.8855 837.746 Q72.9642 842.329 72.9642 851.079 Q72.9642 859.806 69.8855 864.413 Q66.83 868.996 61.0198 868.996 Q55.2097 868.996 52.131 864.413 Q49.0754 859.806 49.0754 851.079 Q49.0754 842.329 52.131 837.746 Q55.2097 833.14 61.0198 833.14 Z" fill="#000000" fill-rule="evenodd" fill-opacity="1" /><path clip-path="url(#clip140)" d="M81.1818 862.445 L86.066 862.445 L86.066 868.325 L81.1818 868.325 L81.1818 862.445 Z" fill="#000000" fill-rule="evenodd" fill-opacity="1" /><path clip-path="url(#clip140)" d="M106.251 836.843 Q102.64 836.843 100.811 840.408 Q99.0057 843.95 99.0057 851.079 Q99.0057 858.186 100.811 861.751 Q102.64 865.292 106.251 865.292 Q109.885 865.292 111.691 861.751 Q113.52 858.186 113.52 851.079 Q113.52 843.95 111.691 840.408 Q109.885 836.843 106.251 836.843 M106.251 833.14 Q112.061 833.14 115.117 837.746 Q118.195 842.329 118.195 851.079 Q118.195 859.806 115.117 864.413 Q112.061 868.996 106.251 868.996 Q100.441 868.996 97.3622 864.413 Q94.3067 859.806 94.3067 851.079 Q94.3067 842.329 97.3622 837.746 Q100.441 833.14 106.251 833.14 Z" fill="#000000" fill-rule="evenodd" fill-opacity="1" /><path clip-path="url(#clip140)" d="M130.441 864.389 L146.76 864.389 L146.76 868.325 L124.816 868.325 L124.816 864.389 Q127.478 861.635 132.061 857.005 Q136.668 852.352 137.848 851.01 Q140.093 848.487 140.973 846.751 Q141.876 844.991 141.876 843.302 Q141.876 840.547 139.931 838.811 Q138.01 837.075 134.908 837.075 Q132.709 837.075 130.256 837.839 Q127.825 838.603 125.047 840.153 L125.047 835.431 Q127.871 834.297 130.325 833.718 Q132.779 833.14 134.816 833.14 Q140.186 833.14 143.38 835.825 Q146.575 838.51 146.575 843.001 Q146.575 845.13 145.765 847.052 Q144.978 848.95 142.871 851.542 Q142.293 852.214 139.191 855.431 Q136.089 858.626 130.441 864.389 Z" fill="#000000" fill-rule="evenodd" fill-opacity="1" /><path clip-path="url(#clip140)" d="M60.0708 535.31 Q56.4597 535.31 54.631 538.875 Q52.8254 542.416 52.8254 549.546 Q52.8254 556.653 54.631 560.217 Q56.4597 563.759 60.0708 563.759 Q63.705 563.759 65.5105 560.217 Q67.3392 556.653 67.3392 549.546 Q67.3392 542.416 65.5105 538.875 Q63.705 535.31 60.0708 535.31 M60.0708 531.606 Q65.8809 531.606 68.9365 536.213 Q72.0151 540.796 72.0151 549.546 Q72.0151 558.273 68.9365 562.879 Q65.8809 567.463 60.0708 567.463 Q54.2606 567.463 51.1819 562.879 Q48.1264 558.273 48.1264 549.546 Q48.1264 540.796 51.1819 536.213 Q54.2606 531.606 60.0708 531.606 Z" fill="#000000" fill-rule="evenodd" fill-opacity="1" /><path clip-path="url(#clip140)" d="M80.2327 560.912 L85.1169 560.912 L85.1169 566.791 L80.2327 566.791 L80.2327 560.912 Z" fill="#000000" fill-rule="evenodd" fill-opacity="1" /><path clip-path="url(#clip140)" d="M105.302 535.31 Q101.691 535.31 99.8622 538.875 Q98.0567 542.416 98.0567 549.546 Q98.0567 556.653 99.8622 560.217 Q101.691 563.759 105.302 563.759 Q108.936 563.759 110.742 560.217 Q112.57 556.653 112.57 549.546 Q112.57 542.416 110.742 538.875 Q108.936 535.31 105.302 535.31 M105.302 531.606 Q111.112 531.606 114.168 536.213 Q117.246 540.796 117.246 549.546 Q117.246 558.273 114.168 562.879 Q111.112 567.463 105.302 567.463 Q99.4918 567.463 96.4132 562.879 Q93.3576 558.273 93.3576 549.546 Q93.3576 540.796 96.4132 536.213 Q99.4918 531.606 105.302 531.606 Z" fill="#000000" fill-rule="evenodd" fill-opacity="1" /><path clip-path="url(#clip140)" d="M139.631 548.157 Q142.987 548.875 144.862 551.143 Q146.76 553.412 146.76 556.745 Q146.76 561.861 143.242 564.662 Q139.723 567.463 133.242 567.463 Q131.066 567.463 128.751 567.023 Q126.459 566.606 124.006 565.75 L124.006 561.236 Q125.95 562.37 128.265 562.949 Q130.58 563.527 133.103 563.527 Q137.501 563.527 139.793 561.791 Q142.107 560.055 142.107 556.745 Q142.107 553.69 139.955 551.977 Q137.825 550.241 134.006 550.241 L129.978 550.241 L129.978 546.398 L134.191 546.398 Q137.64 546.398 139.468 545.032 Q141.297 543.643 141.297 541.051 Q141.297 538.389 139.399 536.977 Q137.524 535.542 134.006 535.542 Q132.084 535.542 129.885 535.958 Q127.686 536.375 125.047 537.254 L125.047 533.088 Q127.709 532.347 130.024 531.977 Q132.362 531.606 134.422 531.606 Q139.746 531.606 142.848 534.037 Q145.95 536.444 145.95 540.565 Q145.95 543.435 144.306 545.426 Q142.663 547.393 139.631 548.157 Z" fill="#000000" fill-rule="evenodd" fill-opacity="1" /><path clip-path="url(#clip140)" d="M58.9365 233.777 Q55.3254 233.777 53.4967 237.342 Q51.6912 240.883 51.6912 248.013 Q51.6912 255.119 53.4967 258.684 Q55.3254 262.226 58.9365 262.226 Q62.5707 262.226 64.3763 258.684 Q66.205 255.119 66.205 248.013 Q66.205 240.883 64.3763 237.342 Q62.5707 233.777 58.9365 233.777 M58.9365 230.073 Q64.7467 230.073 67.8022 234.68 Q70.8809 239.263 70.8809 248.013 Q70.8809 256.74 67.8022 261.346 Q64.7467 265.929 58.9365 265.929 Q53.1264 265.929 50.0477 261.346 Q46.9921 256.74 46.9921 248.013 Q46.9921 239.263 50.0477 234.68 Q53.1264 230.073 58.9365 230.073 Z" fill="#000000" fill-rule="evenodd" fill-opacity="1" /><path clip-path="url(#clip140)" d="M79.0984 259.378 L83.9827 259.378 L83.9827 265.258 L79.0984 265.258 L79.0984 259.378 Z" fill="#000000" fill-rule="evenodd" fill-opacity="1" /><path clip-path="url(#clip140)" d="M104.168 233.777 Q100.557 233.777 98.728 237.342 Q96.9224 240.883 96.9224 248.013 Q96.9224 255.119 98.728 258.684 Q100.557 262.226 104.168 262.226 Q107.802 262.226 109.608 258.684 Q111.436 255.119 111.436 248.013 Q111.436 240.883 109.608 237.342 Q107.802 233.777 104.168 233.777 M104.168 230.073 Q109.978 230.073 113.033 234.68 Q116.112 239.263 116.112 248.013 Q116.112 256.74 113.033 261.346 Q109.978 265.929 104.168 265.929 Q98.3576 265.929 95.2789 261.346 Q92.2234 256.74 92.2234 248.013 Q92.2234 239.263 95.2789 234.68 Q98.3576 230.073 104.168 230.073 Z" fill="#000000" fill-rule="evenodd" fill-opacity="1" /><path clip-path="url(#clip140)" d="M137.177 234.772 L125.371 253.221 L137.177 253.221 L137.177 234.772 M135.95 230.698 L141.83 230.698 L141.83 253.221 L146.76 253.221 L146.76 257.11 L141.83 257.11 L141.83 265.258 L137.177 265.258 L137.177 257.11 L121.575 257.11 L121.575 252.596 L135.95 230.698 Z" fill="#000000" fill-rule="evenodd" fill-opacity="1" /><polyline clip-path="url(#clip143)" style="stroke:#009af9; stroke-linecap:butt; stroke-linejoin:round; stroke-width:4; stroke-opacity:1; fill:none" points="
  258.215,1454.11 266.71,1454.11 275.204,1454.11 283.699,1454.11 292.193,1454.11 300.688,1454.11 309.183,1454.11 317.677,1454.11 326.172,1454.11 334.667,1454.11 
  343.161,1454.11 351.656,1454.11 360.15,1454.11 368.645,1454.11 377.14,1454.11 385.634,1454.11 394.129,1454.11 402.624,1454.11 411.118,1454.11 419.613,1454.1 
  428.108,1454.1 436.602,1454.09 445.097,1454.07 453.591,1454.05 462.086,1454 470.581,1453.93 479.075,1453.83 487.57,1453.66 496.065,1453.41 504.559,1453.02 
  513.054,1452.45 521.548,1451.6 530.043,1450.38 538.538,1448.64 547.032,1446.18 555.527,1442.76 564.022,1438.08 572.516,1431.76 581.011,1423.36 589.505,1412.33 
  598,1398.07 606.495,1379.92 614.989,1357.14 623.484,1328.99 631.979,1294.74 640.473,1253.73 648.968,1205.38 657.462,1149.33 665.957,1085.44 674.452,1013.87 
  682.946,935.147 691.441,850.189 699.936,760.332 708.43,667.324 716.925,573.286 725.419,480.65 733.914,392.065 742.409,310.272 750.903,237.974 759.398,177.683 
  767.893,131.578 776.387,101.375 784.882,88.2208 793.376,92.6197 801.871,114.403 810.366,152.738 818.86,206.182 827.355,272.773 835.85,350.148 844.344,435.681 
  852.839,526.631 861.333,620.288 869.828,714.098 878.323,805.773 886.817,893.373 895.312,975.355 903.807,1050.59 912.301,1118.36 920.796,1178.34 929.291,1230.5 
  937.785,1275.12 946.28,1312.67 954.774,1343.78 963.269,1369.15 971.764,1389.53 980.258,1405.64 988.753,1418.2 997.248,1427.85 1005.74,1435.15 1014.24,1440.6 
  1022.73,1444.61 1031.23,1447.51 1039.72,1449.58 1048.22,1451.05 1056.71,1452.06 1065.2,1452.76 1073.7,1453.23 1082.19,1453.55 1090.69,1453.75 1099.18,1453.89 
  1107.68,1453.97 1116.17,1454.03 1124.67,1454.06 1133.16,1454.08 1141.66,1454.09 1150.15,1454.1 1158.65,1454.11 1167.14,1454.11 1175.63,1454.11 1184.13,1454.11 
  1192.62,1454.11 1201.12,1454.11 1209.61,1454.11 1218.11,1454.11 1226.6,1454.11 1235.1,1454.11 1243.59,1454.11 1252.09,1454.11 1260.58,1454.11 1269.08,1454.11 
  1277.57,1454.11 1286.06,1454.11 1294.56,1454.11 1303.05,1454.11 1311.55,1454.11 1320.04,1454.11 1328.54,1454.11 1337.03,1454.11 1345.53,1454.11 1354.02,1454.11 
  1362.52,1454.11 1371.01,1454.11 1379.51,1454.11 1388,1454.11 1396.49,1454.11 1404.99,1454.11 1413.48,1454.11 1421.98,1454.11 1430.47,1454.11 1438.97,1454.11 
  1447.46,1454.11 1455.96,1454.11 1464.45,1454.11 1472.95,1454.11 1481.44,1454.11 1489.94,1454.11 1498.43,1454.11 1506.93,1454.11 1515.42,1454.11 1523.91,1454.11 
  1532.41,1454.11 1540.9,1454.11 1549.4,1454.11 1557.89,1454.11 1566.39,1454.11 1574.88,1454.11 1583.38,1454.11 1591.87,1454.11 1600.37,1454.11 1608.86,1454.11 
  1617.36,1454.11 1625.85,1454.11 1634.34,1454.11 1642.84,1454.11 1651.33,1454.11 1659.83,1454.11 1668.32,1454.11 1676.82,1454.11 1685.31,1454.11 1693.81,1454.11 
  1702.3,1454.11 1710.8,1454.11 1719.29,1454.11 1727.79,1454.11 1736.28,1454.11 1744.77,1454.11 1753.27,1454.11 1761.76,1454.11 1770.26,1454.11 1778.75,1454.11 
  1787.25,1454.11 1795.74,1454.11 1804.24,1454.11 1812.73,1454.11 1821.23,1454.11 1829.72,1454.11 1838.22,1454.11 1846.71,1454.11 1855.2,1454.11 1863.7,1454.11 
  1872.19,1454.11 1880.69,1454.11 1889.18,1454.11 1897.68,1454.11 1906.17,1454.11 1914.67,1454.11 1923.16,1454.11 1931.66,1454.11 1940.15,1454.11 1948.65,1454.11 
  1957.14,1454.11 1965.64,1454.11 1974.13,1454.11 1982.62,1454.11 1991.12,1454.11 1999.61,1454.11 2008.11,1454.11 2016.6,1454.11 2025.1,1454.11 2033.59,1454.11 
  2042.09,1454.11 2050.58,1454.11 2059.08,1454.11 2067.57,1454.11 2076.07,1454.11 2084.56,1454.11 2093.05,1454.11 2101.55,1454.11 2110.04,1454.11 2118.54,1454.11 
  2127.03,1454.11 2135.53,1454.11 2144.02,1454.11 2152.52,1454.11 2161.01,1454.11 2169.51,1454.11 2178,1454.11 2186.5,1454.11 2194.99,1454.11 2203.48,1454.11 
  2211.98,1454.11 2220.47,1454.11 2228.97,1454.11 2237.46,1454.11 2245.96,1454.11 2254.45,1454.11 2262.95,1454.11 2271.44,1454.11 2279.94,1454.11 2288.43,1454.11 
  2296.93,1454.11 2305.42,1454.11 2313.91,1454.11 2322.41,1454.11 2330.9,1454.11 2339.4,1454.11 2347.89,1454.11 2356.39,1454.11 2364.88,1454.11 2373.38,1454.11 
  
  "/>
<polyline clip-path="url(#clip143)" style="stroke:#e26f46; stroke-linecap:butt; stroke-linejoin:round; stroke-width:4; stroke-opacity:1; fill:none" points="
  258.215,1454.11 266.71,1454.11 275.204,1454.11 283.699,1454.11 292.193,1454.11 300.688,1454.11 309.183,1454.11 317.677,1454.11 326.172,1454.11 334.667,1454.11 
  343.161,1454.11 351.656,1454.11 360.15,1454.11 368.645,1454.11 377.14,1454.11 385.634,1454.11 394.129,1454.11 402.624,1454.11 411.118,1454.11 419.613,1454.11 
  428.108,1454.11 436.602,1454.11 445.097,1454.11 453.591,1454.11 462.086,1454.11 470.581,1454.11 479.075,1454.11 487.57,1454.11 496.065,1454.11 504.559,1454.11 
  513.054,1454.11 521.548,1454.11 530.043,1454.11 538.538,1454.11 547.032,1454.11 555.527,1454.11 564.022,1454.11 572.516,1454.11 581.011,1454.11 589.505,1454.11 
  598,1454.11 606.495,1454.11 614.989,1454.11 623.484,1454.11 631.979,1454.11 640.473,1454.11 648.968,1454.11 657.462,1454.11 665.957,1454.11 674.452,1454.11 
  682.946,1454.11 691.441,1454.11 699.936,1454.11 708.43,1454.11 716.925,1454.11 725.419,1454.11 733.914,1454.11 742.409,1454.11 750.903,1454.11 759.398,1454.11 
  767.893,1454.11 776.387,1454.11 784.882,1454.11 793.376,1454.11 801.871,1454.11 810.366,1454.11 818.86,1454.11 827.355,1454.11 835.85,1454.11 844.344,1454.11 
  852.839,1454.11 861.333,1454.11 869.828,1454.11 878.323,1454.11 886.817,1454.11 895.312,1454.11 903.807,1454.11 912.301,1454.11 920.796,1454.11 929.291,1454.11 
  937.785,1454.11 946.28,1454.11 954.774,1454.11 963.269,1454.11 971.764,1454.11 980.258,1454.11 988.753,1454.11 997.248,1454.11 1005.74,1454.11 1014.24,1454.11 
  1022.73,1454.11 1031.23,1454.11 1039.72,1454.11 1048.22,1454.11 1056.71,1454.11 1065.2,1454.11 1073.7,1454.11 1082.19,1454.11 1090.69,1454.11 1099.18,1454.11 
  1107.68,1454.11 1116.17,1454.11 1124.67,1454.11 1133.16,1454.11 1141.66,1454.11 1150.15,1454.11 1158.65,1454.11 1167.14,1454.11 1175.63,1454.11 1184.13,1454.11 
  1192.62,1454.11 1201.12,1454.11 1209.61,1454.11 1218.11,1454.11 1226.6,1454.11 1235.1,1454.11 1243.59,1454.11 1252.09,1454.11 1260.58,1454.11 1269.08,1454.11 
  1277.57,1454.11 1286.06,1454.11 1294.56,1454.11 1303.05,1454.11 1311.55,1454.11 1320.04,1454.11 1328.54,1454.11 1337.03,1454.11 1345.53,1454.11 1354.02,1454.11 
  1362.52,1454.11 1371.01,1454.11 1379.51,1454.11 1388,1454.11 1396.49,1454.11 1404.99,1454.11 1413.48,1454.11 1421.98,1454.11 1430.47,1454.11 1438.97,1454.11 
  1447.46,1454.11 1455.96,1454.11 1464.45,1454.11 1472.95,1454.11 1481.44,1454.1 1489.94,1454.09 1498.43,1454.08 1506.93,1454.06 1515.42,1454.03 1523.91,1453.97 
  1532.41,1453.89 1540.9,1453.75 1549.4,1453.55 1557.89,1453.23 1566.39,1452.76 1574.88,1452.06 1583.38,1451.05 1591.87,1449.58 1600.37,1447.51 1608.86,1444.61 
  1617.36,1440.6 1625.85,1435.15 1634.34,1427.85 1642.84,1418.2 1651.33,1405.64 1659.83,1389.53 1668.32,1369.15 1676.82,1343.78 1685.31,1312.67 1693.81,1275.12 
  1702.3,1230.5 1710.8,1178.34 1719.29,1118.36 1727.79,1050.59 1736.28,975.355 1744.77,893.373 1753.27,805.773 1761.76,714.098 1770.26,620.288 1778.75,526.631 
  1787.25,435.681 1795.74,350.148 1804.24,272.773 1812.73,206.182 1821.23,152.738 1829.72,114.403 1838.22,92.6197 1846.71,88.2208 1855.2,101.375 1863.7,131.578 
  1872.19,177.683 1880.69,237.974 1889.18,310.272 1897.68,392.065 1906.17,480.65 1914.67,573.286 1923.16,667.324 1931.66,760.332 1940.15,850.189 1948.65,935.147 
  1957.14,1013.87 1965.64,1085.44 1974.13,1149.33 1982.62,1205.38 1991.12,1253.73 1999.61,1294.74 2008.11,1328.99 2016.6,1357.14 2025.1,1379.92 2033.59,1398.07 
  2042.09,1412.33 2050.58,1423.36 2059.08,1431.76 2067.57,1438.08 2076.07,1442.76 2084.56,1446.18 2093.05,1448.64 2101.55,1450.38 2110.04,1451.6 2118.54,1452.45 
  2127.03,1453.02 2135.53,1453.41 2144.02,1453.66 2152.52,1453.83 2161.01,1453.93 2169.51,1454 2178,1454.05 2186.5,1454.07 2194.99,1454.09 2203.48,1454.1 
  2211.98,1454.1 2220.47,1454.11 2228.97,1454.11 2237.46,1454.11 2245.96,1454.11 2254.45,1454.11 2262.95,1454.11 2271.44,1454.11 2279.94,1454.11 2288.43,1454.11 
  2296.93,1454.11 2305.42,1454.11 2313.91,1454.11 2322.41,1454.11 2330.9,1454.11 2339.4,1454.11 2347.89,1454.11 2356.39,1454.11 2364.88,1454.11 2373.38,1454.11 
  
  "/>
<polyline clip-path="url(#clip143)" style="stroke:#3da44d; stroke-linecap:butt; stroke-linejoin:round; stroke-width:4; stroke-opacity:1; fill:none" points="
  258.215,1454.11 266.71,1454.11 275.204,1454.11 283.699,1454.11 292.193,1454.11 300.688,1454.11 309.183,1454.11 317.677,1454.11 326.172,1454.11 334.667,1454.11 
  343.161,1454.11 351.656,1454.11 360.15,1454.11 368.645,1454.11 377.14,1454.11 385.634,1454.11 394.129,1454.11 402.624,1454.11 411.118,1454.11 419.613,1454.11 
  428.108,1454.11 436.602,1454.11 445.097,1454.11 453.591,1454.11 462.086,1454.11 470.581,1454.11 479.075,1454.11 487.57,1454.11 496.065,1454.11 504.559,1454.11 
  513.054,1454.11 521.548,1454.11 530.043,1454.11 538.538,1454.11 547.032,1454.11 555.527,1454.11 564.022,1454.11 572.516,1454.11 581.011,1454.11 589.505,1454.11 
  598,1454.11 606.495,1454.11 614.989,1454.11 623.484,1454.11 631.979,1454.11 640.473,1454.11 648.968,1454.11 657.462,1454.11 665.957,1454.11 674.452,1454.11 
  682.946,1454.11 691.441,1454.11 699.936,1454.11 708.43,1454.11 716.925,1454.11 725.419,1454.11 733.914,1454.11 742.409,1454.11 750.903,1454.11 759.398,1454.11 
  767.893,1454.11 776.387,1454.11 784.882,1454.11 793.376,1454.11 801.871,1454.11 810.366,1454.11 818.86,1454.11 827.355,1454.11 835.85,1454.11 844.344,1454.11 
  852.839,1454.11 861.333,1454.11 869.828,1454.11 878.323,1454.11 886.817,1454.11 895.312,1454.11 903.807,1454.11 912.301,1454.11 920.796,1454.11 929.291,1454.11 
  937.785,1454.11 946.28,1454.11 954.774,1454.11 963.269,1454.11 971.764,1454.11 980.258,1454.11 988.753,1454.11 997.248,1454.11 1005.74,1454.11 1014.24,1454.11 
  1022.73,1454.11 1031.23,1454.11 1039.72,1454.11 1048.22,1454.11 1056.71,1454.11 1065.2,1454.1 1073.7,1454.1 1082.19,1454.1 1090.69,1454.09 1099.18,1454.08 
  1107.68,1454.07 1116.17,1454.05 1124.67,1454.02 1133.16,1453.98 1141.66,1453.93 1150.15,1453.86 1158.65,1453.77 1167.14,1453.64 1175.63,1453.47 1184.13,1453.24 
  1192.62,1452.94 1201.12,1452.54 1209.61,1452.03 1218.11,1451.36 1226.6,1450.5 1235.1,1449.4 1243.59,1448.01 1252.09,1446.26 1260.58,1444.07 1269.08,1441.35 
  1277.57,1438 1286.06,1433.9 1294.56,1428.93 1303.05,1422.93 1311.55,1415.74 1320.04,1407.21 1328.54,1397.15 1337.03,1385.38 1345.53,1371.7 1354.02,1355.94 
  1362.52,1337.92 1371.01,1317.47 1379.51,1294.46 1388,1268.78 1396.49,1240.34 1404.99,1209.13 1413.48,1175.16 1421.98,1138.53 1430.47,1099.39 1438.97,1057.95 
  1447.46,1014.52 1455.96,969.458 1464.45,923.218 1472.95,876.306 1481.44,829.293 1489.94,782.799 1498.43,737.484 1506.93,694.03 1515.42,653.125 1523.91,615.446 
  1532.41,581.643 1540.9,552.313 1549.4,527.992 1557.89,509.131 1566.39,496.087 1574.88,489.108 1583.38,488.33 1591.87,493.766 1600.37,505.313 1608.86,522.749 
  1617.36,545.744 1625.85,573.869 1634.34,606.608 1642.84,643.377 1651.33,683.538 1659.83,726.419 1668.32,771.334 1676.82,817.596 1685.31,864.539 1693.81,911.532 
  1702.3,957.99 1710.8,1003.39 1719.29,1047.26 1727.79,1089.23 1736.28,1128.97 1744.77,1166.25 1753.27,1200.89 1761.76,1232.8 1770.26,1261.93 1778.75,1288.3 
  1787.25,1311.97 1795.74,1333.04 1804.24,1351.66 1812.73,1367.97 1821.23,1382.14 1829.72,1394.38 1838.22,1404.85 1846.71,1413.75 1855.2,1421.25 1863.7,1427.53 
  1872.19,1432.75 1880.69,1437.05 1889.18,1440.58 1897.68,1443.44 1906.17,1445.75 1914.67,1447.61 1923.16,1449.08 1931.66,1450.25 1940.15,1451.16 1948.65,1451.88 
  1957.14,1452.43 1965.64,1452.85 1974.13,1453.17 1982.62,1453.42 1991.12,1453.6 1999.61,1453.74 2008.11,1453.84 2016.6,1453.92 2025.1,1453.97 2033.59,1454.01 
  2042.09,1454.04 2050.58,1454.06 2059.08,1454.08 2067.57,1454.09 2076.07,1454.09 2084.56,1454.1 2093.05,1454.1 2101.55,1454.11 2110.04,1454.11 2118.54,1454.11 
  2127.03,1454.11 2135.53,1454.11 2144.02,1454.11 2152.52,1454.11 2161.01,1454.11 2169.51,1454.11 2178,1454.11 2186.5,1454.11 2194.99,1454.11 2203.48,1454.11 
  2211.98,1454.11 2220.47,1454.11 2228.97,1454.11 2237.46,1454.11 2245.96,1454.11 2254.45,1454.11 2262.95,1454.11 2271.44,1454.11 2279.94,1454.11 2288.43,1454.11 
  2296.93,1454.11 2305.42,1454.11 2313.91,1454.11 2322.41,1454.11 2330.9,1454.11 2339.4,1454.11 2347.89,1454.11 2356.39,1454.11 2364.88,1454.11 2373.38,1454.11 
  
  "/>
<polyline clip-path="url(#clip143)" style="stroke:#c271d2; stroke-linecap:butt; stroke-linejoin:round; stroke-width:4; stroke-opacity:1; fill:none" points="
  258.215,1454.11 266.71,1454.11 275.204,1454.11 283.699,1454.11 292.193,1454.11 300.688,1454.11 309.183,1454.11 317.677,1454.11 326.172,1454.11 334.667,1454.11 
  343.161,1454.11 351.656,1454.11 360.15,1454.11 368.645,1454.11 377.14,1454.11 385.634,1454.11 394.129,1454.11 402.624,1454.11 411.118,1454.11 419.613,1454.11 
  428.108,1454.11 436.602,1454.11 445.097,1454.11 453.591,1454.11 462.086,1454.11 470.581,1454.11 479.075,1454.11 487.57,1454.11 496.065,1454.11 504.559,1454.11 
  513.054,1454.11 521.548,1454.11 530.043,1454.11 538.538,1454.11 547.032,1454.11 555.527,1454.11 564.022,1454.11 572.516,1454.11 581.011,1454.11 589.505,1454.11 
  598,1454.11 606.495,1454.11 614.989,1454.11 623.484,1454.11 631.979,1454.11 640.473,1454.11 648.968,1454.11 657.462,1454.11 665.957,1454.11 674.452,1454.11 
  682.946,1454.11 691.441,1454.11 699.936,1454.11 708.43,1454.11 716.925,1454.11 725.419,1454.11 733.914,1454.11 742.409,1454.11 750.903,1454.11 759.398,1454.11 
  767.893,1454.11 776.387,1454.11 784.882,1454.11 793.376,1454.11 801.871,1454.1 810.366,1454.1 818.86,1454.1 827.355,1454.09 835.85,1454.08 844.344,1454.06 
  852.839,1454.04 861.333,1454.02 869.828,1453.98 878.323,1453.93 886.817,1453.85 895.312,1453.75 903.807,1453.62 912.301,1453.44 920.796,1453.21 929.291,1452.9 
  937.785,1452.49 946.28,1451.95 954.774,1451.26 963.269,1450.38 971.764,1449.24 980.258,1447.81 988.753,1446.01 997.248,1443.76 1005.74,1440.97 1014.24,1437.53 
  1022.73,1433.33 1031.23,1428.24 1039.72,1422.1 1048.22,1414.76 1056.71,1406.04 1065.2,1395.78 1073.7,1383.78 1082.19,1369.85 1090.69,1353.82 1099.18,1335.5 
  1107.68,1314.74 1116.17,1291.4 1124.67,1265.37 1133.16,1236.59 1141.66,1205.03 1150.15,1170.73 1158.65,1133.77 1167.14,1094.33 1175.63,1052.62 1184.13,1008.96 
  1192.62,963.733 1201.12,917.38 1209.61,870.423 1218.11,823.439 1226.6,777.057 1235.1,731.936 1243.59,688.763 1252.09,648.225 1260.58,610.996 1269.08,577.72 
  1277.57,548.989 1286.06,525.327 1294.56,507.176 1303.05,494.879 1311.55,488.67 1320.04,488.67 1328.54,494.879 1337.03,507.176 1345.53,525.327 1354.02,548.989 
  1362.52,577.72 1371.01,610.996 1379.51,648.225 1388,688.763 1396.49,731.936 1404.99,777.057 1413.48,823.44 1421.98,870.423 1430.47,917.38 1438.97,963.733 
  1447.46,1008.96 1455.96,1052.62 1464.45,1094.33 1472.95,1133.77 1481.44,1170.73 1489.94,1205.03 1498.43,1236.59 1506.93,1265.37 1515.42,1291.4 1523.91,1314.74 
  1532.41,1335.5 1540.9,1353.82 1549.4,1369.85 1557.89,1383.78 1566.39,1395.78 1574.88,1406.04 1583.38,1414.76 1591.87,1422.1 1600.37,1428.24 1608.86,1433.33 
  1617.36,1437.53 1625.85,1440.97 1634.34,1443.76 1642.84,1446.01 1651.33,1447.81 1659.83,1449.24 1668.32,1450.38 1676.82,1451.26 1685.31,1451.95 1693.81,1452.49 
  1702.3,1452.9 1710.8,1453.21 1719.29,1453.44 1727.79,1453.62 1736.28,1453.75 1744.77,1453.85 1753.27,1453.93 1761.76,1453.98 1770.26,1454.02 1778.75,1454.04 
  1787.25,1454.06 1795.74,1454.08 1804.24,1454.09 1812.73,1454.1 1821.23,1454.1 1829.72,1454.1 1838.22,1454.11 1846.71,1454.11 1855.2,1454.11 1863.7,1454.11 
  1872.19,1454.11 1880.69,1454.11 1889.18,1454.11 1897.68,1454.11 1906.17,1454.11 1914.67,1454.11 1923.16,1454.11 1931.66,1454.11 1940.15,1454.11 1948.65,1454.11 
  1957.14,1454.11 1965.64,1454.11 1974.13,1454.11 1982.62,1454.11 1991.12,1454.11 1999.61,1454.11 2008.11,1454.11 2016.6,1454.11 2025.1,1454.11 2033.59,1454.11 
  2042.09,1454.11 2050.58,1454.11 2059.08,1454.11 2067.57,1454.11 2076.07,1454.11 2084.56,1454.11 2093.05,1454.11 2101.55,1454.11 2110.04,1454.11 2118.54,1454.11 
  2127.03,1454.11 2135.53,1454.11 2144.02,1454.11 2152.52,1454.11 2161.01,1454.11 2169.51,1454.11 2178,1454.11 2186.5,1454.11 2194.99,1454.11 2203.48,1454.11 
  2211.98,1454.11 2220.47,1454.11 2228.97,1454.11 2237.46,1454.11 2245.96,1454.11 2254.45,1454.11 2262.95,1454.11 2271.44,1454.11 2279.94,1454.11 2288.43,1454.11 
  2296.93,1454.11 2305.42,1454.11 2313.91,1454.11 2322.41,1454.11 2330.9,1454.11 2339.4,1454.11 2347.89,1454.11 2356.39,1454.11 2364.88,1454.11 2373.38,1454.11 
  
  "/>
<polyline clip-path="url(#clip143)" style="stroke:#ac8d18; stroke-linecap:butt; stroke-linejoin:round; stroke-width:4; stroke-opacity:1; fill:none" points="
  258.215,1454.11 266.71,1454.11 275.204,1454.11 283.699,1454.11 292.193,1454.11 300.688,1454.11 309.183,1454.11 317.677,1454.11 326.172,1454.11 334.667,1454.11 
  343.161,1454.11 351.656,1454.11 360.15,1454.11 368.645,1454.11 377.14,1454.11 385.634,1454.11 394.129,1454.11 402.624,1454.11 411.118,1454.11 419.613,1454.11 
  428.108,1454.11 436.602,1454.11 445.097,1454.11 453.591,1454.11 462.086,1454.11 470.581,1454.11 479.075,1454.11 487.57,1454.11 496.065,1454.11 504.559,1454.11 
  513.054,1454.11 521.548,1454.11 530.043,1454.11 538.538,1454.1 547.032,1454.1 555.527,1454.09 564.022,1454.09 572.516,1454.08 581.011,1454.06 589.505,1454.04 
  598,1454.01 606.495,1453.97 614.989,1453.92 623.484,1453.84 631.979,1453.74 640.473,1453.6 648.968,1453.42 657.462,1453.17 665.957,1452.85 674.452,1452.43 
  682.946,1451.88 691.441,1451.16 699.936,1450.25 708.43,1449.08 716.925,1447.61 725.419,1445.75 733.914,1443.44 742.409,1440.58 750.903,1437.05 759.398,1432.75 
  767.893,1427.53 776.387,1421.25 784.882,1413.75 793.376,1404.85 801.871,1394.38 810.366,1382.14 818.86,1367.97 827.355,1351.66 835.85,1333.04 844.344,1311.97 
  852.839,1288.3 861.333,1261.93 869.828,1232.8 878.323,1200.89 886.817,1166.25 895.312,1128.97 903.807,1089.23 912.301,1047.26 920.796,1003.39 929.291,957.99 
  937.785,911.532 946.28,864.539 954.774,817.596 963.269,771.334 971.764,726.419 980.258,683.538 988.753,643.377 997.248,606.608 1005.74,573.869 1014.24,545.744 
  1022.73,522.749 1031.23,505.313 1039.72,493.766 1048.22,488.33 1056.71,489.108 1065.2,496.087 1073.7,509.131 1082.19,527.992 1090.69,552.313 1099.18,581.643 
  1107.68,615.446 1116.17,653.125 1124.67,694.03 1133.16,737.484 1141.66,782.799 1150.15,829.293 1158.65,876.306 1167.14,923.218 1175.63,969.458 1184.13,1014.52 
  1192.62,1057.95 1201.12,1099.39 1209.61,1138.53 1218.11,1175.16 1226.6,1209.13 1235.1,1240.34 1243.59,1268.78 1252.09,1294.46 1260.58,1317.47 1269.08,1337.92 
  1277.57,1355.94 1286.06,1371.7 1294.56,1385.38 1303.05,1397.15 1311.55,1407.21 1320.04,1415.74 1328.54,1422.93 1337.03,1428.93 1345.53,1433.9 1354.02,1438 
  1362.52,1441.35 1371.01,1444.07 1379.51,1446.26 1388,1448.01 1396.49,1449.4 1404.99,1450.5 1413.48,1451.36 1421.98,1452.03 1430.47,1452.54 1438.97,1452.94 
  1447.46,1453.24 1455.96,1453.47 1464.45,1453.64 1472.95,1453.77 1481.44,1453.86 1489.94,1453.93 1498.43,1453.98 1506.93,1454.02 1515.42,1454.05 1523.91,1454.07 
  1532.41,1454.08 1540.9,1454.09 1549.4,1454.1 1557.89,1454.1 1566.39,1454.1 1574.88,1454.11 1583.38,1454.11 1591.87,1454.11 1600.37,1454.11 1608.86,1454.11 
  1617.36,1454.11 1625.85,1454.11 1634.34,1454.11 1642.84,1454.11 1651.33,1454.11 1659.83,1454.11 1668.32,1454.11 1676.82,1454.11 1685.31,1454.11 1693.81,1454.11 
  1702.3,1454.11 1710.8,1454.11 1719.29,1454.11 1727.79,1454.11 1736.28,1454.11 1744.77,1454.11 1753.27,1454.11 1761.76,1454.11 1770.26,1454.11 1778.75,1454.11 
  1787.25,1454.11 1795.74,1454.11 1804.24,1454.11 1812.73,1454.11 1821.23,1454.11 1829.72,1454.11 1838.22,1454.11 1846.71,1454.11 1855.2,1454.11 1863.7,1454.11 
  1872.19,1454.11 1880.69,1454.11 1889.18,1454.11 1897.68,1454.11 1906.17,1454.11 1914.67,1454.11 1923.16,1454.11 1931.66,1454.11 1940.15,1454.11 1948.65,1454.11 
  1957.14,1454.11 1965.64,1454.11 1974.13,1454.11 1982.62,1454.11 1991.12,1454.11 1999.61,1454.11 2008.11,1454.11 2016.6,1454.11 2025.1,1454.11 2033.59,1454.11 
  2042.09,1454.11 2050.58,1454.11 2059.08,1454.11 2067.57,1454.11 2076.07,1454.11 2084.56,1454.11 2093.05,1454.11 2101.55,1454.11 2110.04,1454.11 2118.54,1454.11 
  2127.03,1454.11 2135.53,1454.11 2144.02,1454.11 2152.52,1454.11 2161.01,1454.11 2169.51,1454.11 2178,1454.11 2186.5,1454.11 2194.99,1454.11 2203.48,1454.11 
  2211.98,1454.11 2220.47,1454.11 2228.97,1454.11 2237.46,1454.11 2245.96,1454.11 2254.45,1454.11 2262.95,1454.11 2271.44,1454.11 2279.94,1454.11 2288.43,1454.11 
  2296.93,1454.11 2305.42,1454.11 2313.91,1454.11 2322.41,1454.11 2330.9,1454.11 2339.4,1454.11 2347.89,1454.11 2356.39,1454.11 2364.88,1454.11 2373.38,1454.11 
  
  "/>
<path clip-path="url(#clip140)" d="
M2535.43 406.546 L3152.76 406.546 L3152.76 95.5056 L2535.43 95.5056  Z
  " fill="#ffffff" fill-rule="evenodd" fill-opacity="1"/>
<polyline clip-path="url(#clip140)" style="stroke:#000000; stroke-linecap:butt; stroke-linejoin:round; stroke-width:4; stroke-opacity:1; fill:none" points="
  2535.43,406.546 3152.76,406.546 3152.76,95.5056 2535.43,95.5056 2535.43,406.546 
  "/>
<polyline clip-path="url(#clip140)" style="stroke:#009af9; stroke-linecap:butt; stroke-linejoin:round; stroke-width:4; stroke-opacity:1; fill:none" points="
  2567.43,147.346 2759.43,147.346 
  "/>
<path clip-path="url(#clip140)" d="M2817.43 146.124 Q2816.82 149.146 2816 150.879 Q2814.69 153.526 2812.44 153.526 Q2810.85 153.526 2809.63 152.565 Q2808.44 151.605 2808.13 150.012 Q2807.52 150.738 2807.08 151.16 Q2806.66 151.582 2805.81 152.237 Q2804.99 152.87 2803.96 153.198 Q2802.93 153.526 2801.76 153.526 Q2798.9 153.526 2797.1 152.027 Q2794.66 161.841 2794.45 162.332 Q2793.77 163.34 2792.79 163.34 Q2792.18 163.34 2791.81 162.965 Q2791.43 162.614 2791.43 162.051 Q2791.46 161.864 2791.6 161.278 L2798.48 133.523 Q2798.67 132.773 2799.14 132.352 Q2799.63 131.907 2799.91 131.86 Q2800.19 131.79 2800.4 131.79 Q2801.04 131.79 2801.41 132.141 Q2801.81 132.469 2801.81 133.078 Q2801.81 133.172 2801.67 133.71 Q2801.55 134.226 2801.36 135.022 Q2801.18 135.795 2801.08 136.146 L2799.07 144.204 Q2798.39 146.967 2798.39 148.279 Q2798.39 150.27 2799.28 151.371 Q2800.19 152.448 2801.95 152.448 Q2803.05 152.448 2804.08 152.003 Q2805.11 151.535 2805.81 150.902 Q2806.52 150.27 2807.08 149.591 Q2807.64 148.888 2807.9 148.443 Q2808.16 147.975 2808.18 147.857 L2809.42 142.962 L2811.69 133.991 Q2811.83 133.429 2812.09 133.054 Q2812.37 132.656 2812.7 132.516 Q2813.03 132.375 2813.21 132.352 Q2813.4 132.305 2813.57 132.305 Q2814.15 132.305 2814.55 132.656 Q2814.95 133.008 2814.95 133.617 Q2814.95 133.734 2814.81 134.296 Q2814.69 134.835 2814.5 135.631 Q2814.32 136.404 2814.22 136.825 Q2813.47 139.777 2813.4 140.081 L2812.07 145.258 Q2812 145.562 2811.76 146.546 Q2811.55 147.529 2811.43 148.045 Q2811.32 148.537 2811.2 149.216 Q2811.11 149.872 2811.11 150.247 Q2811.11 152.448 2812.56 152.448 Q2813.12 152.448 2813.61 152.12 Q2814.1 151.769 2814.43 151.277 Q2814.78 150.785 2815.11 149.942 Q2815.46 149.075 2815.67 148.373 Q2815.88 147.647 2816.19 146.522 Q2816.31 145.984 2816.42 145.82 Q2816.54 145.656 2816.87 145.656 Q2817.43 145.656 2817.43 146.124 Z" fill="#000000" fill-rule="evenodd" fill-opacity="1" /><path clip-path="url(#clip140)" d="M2822.28 157.362 L2822.28 156.312 Q2826.31 156.312 2828.4 154.164 Q2828.97 154.164 2829.07 154.296 Q2829.17 154.427 2829.17 155.033 L2829.17 173.872 Q2829.17 174.872 2829.66 175.184 Q2830.15 175.495 2832.3 175.495 L2833.36 175.495 L2833.36 176.528 Q2832.18 176.43 2827.92 176.43 Q2823.66 176.43 2822.49 176.528 L2822.49 175.495 L2823.56 175.495 Q2825.67 175.495 2826.18 175.2 Q2826.69 174.889 2826.69 173.872 L2826.69 156.476 Q2824.94 157.362 2822.28 157.362 Z" fill="#000000" fill-rule="evenodd" fill-opacity="1" /><polyline clip-path="url(#clip140)" style="stroke:#e26f46; stroke-linecap:butt; stroke-linejoin:round; stroke-width:4; stroke-opacity:1; fill:none" points="
  2567.43,199.186 2759.43,199.186 
  "/>
<path clip-path="url(#clip140)" d="M2817.43 197.964 Q2816.82 200.986 2816 202.719 Q2814.69 205.366 2812.44 205.366 Q2810.85 205.366 2809.63 204.405 Q2808.44 203.445 2808.13 201.852 Q2807.52 202.578 2807.08 203 Q2806.66 203.422 2805.81 204.077 Q2804.99 204.71 2803.96 205.038 Q2802.93 205.366 2801.76 205.366 Q2798.9 205.366 2797.1 203.867 Q2794.66 213.681 2794.45 214.172 Q2793.77 215.18 2792.79 215.18 Q2792.18 215.18 2791.81 214.805 Q2791.43 214.454 2791.43 213.891 Q2791.46 213.704 2791.6 213.118 L2798.48 185.363 Q2798.67 184.613 2799.14 184.192 Q2799.63 183.747 2799.91 183.7 Q2800.19 183.63 2800.4 183.63 Q2801.04 183.63 2801.41 183.981 Q2801.81 184.309 2801.81 184.918 Q2801.81 185.012 2801.67 185.55 Q2801.55 186.066 2801.36 186.862 Q2801.18 187.635 2801.08 187.986 L2799.07 196.044 Q2798.39 198.807 2798.39 200.119 Q2798.39 202.11 2799.28 203.211 Q2800.19 204.288 2801.95 204.288 Q2803.05 204.288 2804.08 203.843 Q2805.11 203.375 2805.81 202.742 Q2806.52 202.11 2807.08 201.431 Q2807.64 200.728 2807.9 200.283 Q2808.16 199.815 2808.18 199.697 L2809.42 194.802 L2811.69 185.831 Q2811.83 185.269 2812.09 184.894 Q2812.37 184.496 2812.7 184.356 Q2813.03 184.215 2813.21 184.192 Q2813.4 184.145 2813.57 184.145 Q2814.15 184.145 2814.55 184.496 Q2814.95 184.848 2814.95 185.457 Q2814.95 185.574 2814.81 186.136 Q2814.69 186.675 2814.5 187.471 Q2814.32 188.244 2814.22 188.665 Q2813.47 191.617 2813.4 191.921 L2812.07 197.098 Q2812 197.402 2811.76 198.386 Q2811.55 199.369 2811.43 199.885 Q2811.32 200.377 2811.2 201.056 Q2811.11 201.712 2811.11 202.087 Q2811.11 204.288 2812.56 204.288 Q2813.12 204.288 2813.61 203.96 Q2814.1 203.609 2814.43 203.117 Q2814.78 202.625 2815.11 201.782 Q2815.46 200.915 2815.67 200.213 Q2815.88 199.487 2816.19 198.362 Q2816.31 197.824 2816.42 197.66 Q2816.54 197.496 2816.87 197.496 Q2817.43 197.496 2817.43 197.964 Z" fill="#000000" fill-rule="evenodd" fill-opacity="1" /><path clip-path="url(#clip140)" d="M2822.28 228.368 Q2822.28 227.762 2822.33 227.581 Q2822.4 227.401 2822.66 227.122 L2829.1 219.941 Q2832.63 215.973 2832.63 212.514 Q2832.63 210.267 2831.45 208.661 Q2830.28 207.054 2828.13 207.054 Q2826.66 207.054 2825.41 207.956 Q2824.17 208.857 2823.59 210.464 Q2823.69 210.431 2824.04 210.431 Q2824.87 210.431 2825.33 210.956 Q2825.81 211.481 2825.81 212.186 Q2825.81 213.087 2825.22 213.53 Q2824.64 213.956 2824.07 213.956 Q2823.84 213.956 2823.53 213.907 Q2823.23 213.858 2822.76 213.399 Q2822.28 212.923 2822.28 212.087 Q2822.28 209.743 2824.05 207.874 Q2825.84 206.004 2828.56 206.004 Q2831.64 206.004 2833.66 207.841 Q2835.69 209.661 2835.69 212.514 Q2835.69 213.514 2835.38 214.432 Q2835.09 215.334 2834.68 216.039 Q2834.28 216.744 2833.2 217.875 Q2832.12 219.006 2831.25 219.81 Q2830.38 220.613 2828.43 222.318 L2824.87 225.778 L2830.92 225.778 Q2833.87 225.778 2834.1 225.515 Q2834.43 225.04 2834.84 222.531 L2835.69 222.531 L2834.74 228.368 L2822.28 228.368 Z" fill="#000000" fill-rule="evenodd" fill-opacity="1" /><polyline clip-path="url(#clip140)" style="stroke:#3da44d; stroke-linecap:butt; stroke-linejoin:round; stroke-width:4; stroke-opacity:1; fill:none" points="
  2567.43,251.026 2759.43,251.026 
  "/>
<path clip-path="url(#clip140)" d="M2817.43 261.929 Q2816.82 264.951 2816 266.684 Q2814.69 269.331 2812.44 269.331 Q2810.85 269.331 2809.63 268.37 Q2808.44 267.41 2808.13 265.817 Q2807.52 266.543 2807.08 266.965 Q2806.66 267.387 2805.81 268.042 Q2804.99 268.675 2803.96 269.003 Q2802.93 269.331 2801.76 269.331 Q2798.9 269.331 2797.1 267.832 Q2794.66 277.646 2794.45 278.137 Q2793.77 279.145 2792.79 279.145 Q2792.18 279.145 2791.81 278.77 Q2791.43 278.419 2791.43 277.856 Q2791.46 277.669 2791.6 277.083 L2798.48 249.328 Q2798.67 248.578 2799.14 248.157 Q2799.63 247.712 2799.91 247.665 Q2800.19 247.595 2800.4 247.595 Q2801.04 247.595 2801.41 247.946 Q2801.81 248.274 2801.81 248.883 Q2801.81 248.977 2801.67 249.515 Q2801.55 250.031 2801.36 250.827 Q2801.18 251.6 2801.08 251.951 L2799.07 260.009 Q2798.39 262.772 2798.39 264.084 Q2798.39 266.075 2799.28 267.176 Q2800.19 268.253 2801.95 268.253 Q2803.05 268.253 2804.08 267.808 Q2805.11 267.34 2805.81 266.707 Q2806.52 266.075 2807.08 265.396 Q2807.64 264.693 2807.9 264.248 Q2808.16 263.78 2808.18 263.662 L2809.42 258.767 L2811.69 249.796 Q2811.83 249.234 2812.09 248.859 Q2812.37 248.461 2812.7 248.321 Q2813.03 248.18 2813.21 248.157 Q2813.4 248.11 2813.57 248.11 Q2814.15 248.11 2814.55 248.461 Q2814.95 248.813 2814.95 249.422 Q2814.95 249.539 2814.81 250.101 Q2814.69 250.64 2814.5 251.436 Q2814.32 252.209 2814.22 252.63 Q2813.47 255.582 2813.4 255.886 L2812.07 261.063 Q2812 261.367 2811.76 262.351 Q2811.55 263.334 2811.43 263.85 Q2811.32 264.342 2811.2 265.021 Q2811.11 265.677 2811.11 266.052 Q2811.11 268.253 2812.56 268.253 Q2813.12 268.253 2813.61 267.925 Q2814.1 267.574 2814.43 267.082 Q2814.78 266.59 2815.11 265.747 Q2815.46 264.88 2815.67 264.178 Q2815.88 263.452 2816.19 262.327 Q2816.31 261.789 2816.42 261.625 Q2816.54 261.461 2816.87 261.461 Q2817.43 261.461 2817.43 261.929 Z" fill="#000000" fill-rule="evenodd" fill-opacity="1" /><path clip-path="url(#clip140)" d="M2858.08 256.8 Q2858.08 248.695 2861.1 242.161 Q2862.39 239.42 2864.19 237.125 Q2865.99 234.829 2867.19 233.822 Q2868.38 232.815 2868.71 232.815 Q2869.18 232.815 2869.2 233.284 Q2869.2 233.518 2868.57 234.103 Q2860.84 241.973 2860.86 256.8 Q2860.86 271.673 2868.38 279.238 Q2869.2 280.058 2869.2 280.316 Q2869.2 280.784 2868.71 280.784 Q2868.38 280.784 2867.23 279.824 Q2866.09 278.864 2864.31 276.662 Q2862.53 274.46 2861.24 271.767 Q2858.08 265.232 2858.08 256.8 Z" fill="#000000" fill-rule="evenodd" fill-opacity="1" /><path clip-path="url(#clip140)" d="M2900.22 268.839 Q2900.22 269.284 2899.7 269.331 L2898.65 269.331 Q2897.57 269.331 2897.1 269.167 Q2896.64 269.003 2896.1 268.253 Q2895.77 267.785 2894.95 265.606 Q2894.15 263.405 2892.98 260.079 Q2891.83 256.753 2891.06 254.785 L2879.51 268.417 Q2878.72 269.424 2877.92 269.424 Q2877.34 269.424 2876.91 269.026 Q2876.49 268.628 2876.49 268.019 Q2876.49 267.574 2876.66 267.316 Q2876.84 267.059 2877.34 266.543 L2890.59 253.403 L2885.93 240.357 Q2885.04 237.945 2884.53 237.336 Q2884.03 236.727 2882.82 236.516 Q2882.37 236.399 2882.37 236.024 Q2882.37 235.509 2883.24 235.509 Q2887.88 235.509 2889.09 238.905 L2898.88 266.192 Q2899.42 267.761 2899.98 268.417 Q2900.22 268.722 2900.22 268.839 Z" fill="#000000" fill-rule="evenodd" fill-opacity="1" /><path clip-path="url(#clip140)" d="M2905.09 263.542 L2905.09 262.492 Q2909.12 262.492 2911.21 260.344 Q2911.78 260.344 2911.88 260.476 Q2911.98 260.607 2911.98 261.213 L2911.98 280.052 Q2911.98 281.052 2912.47 281.364 Q2912.96 281.675 2915.11 281.675 L2916.17 281.675 L2916.17 282.708 Q2914.99 282.61 2910.73 282.61 Q2906.47 282.61 2905.3 282.708 L2905.3 281.675 L2906.37 281.675 Q2908.48 281.675 2908.99 281.38 Q2909.5 281.069 2909.5 280.052 L2909.5 262.656 Q2907.75 263.542 2905.09 263.542 Z" fill="#000000" fill-rule="evenodd" fill-opacity="1" /><path clip-path="url(#clip140)" d="M2934.49 261.508 Q2934.53 260.922 2935.45 260.922 L2964.84 260.922 Q2966.22 260.922 2966.25 261.461 Q2966.25 262.046 2964.94 262.023 L2935.77 262.023 Q2934.49 262.046 2934.49 261.508 M2934.49 252.139 Q2934.49 251.553 2935.49 251.576 L2964.79 251.576 Q2966.22 251.576 2966.25 252.139 Q2966.25 252.677 2965.03 252.677 L2935.45 252.677 Q2934.49 252.677 2934.49 252.139 Z" fill="#000000" fill-rule="evenodd" fill-opacity="1" /><path clip-path="url(#clip140)" d="M2984.74 253.45 Q2984.74 246.4 2986.52 242.559 Q2989 236.844 2994.86 236.844 Q2996.1 236.844 2997.39 237.195 Q2998.7 237.523 3000.34 238.811 Q3002 240.099 3003.01 242.207 Q3004.93 246.283 3004.93 253.45 Q3004.93 260.454 3003.15 264.271 Q3000.55 269.846 2994.81 269.846 Q2992.66 269.846 2990.46 268.745 Q2988.28 267.644 2986.9 264.997 Q2984.74 261.039 2984.74 253.45 M2988.72 252.865 Q2988.72 260.102 2989.24 262.983 Q2989.82 266.098 2991.42 267.457 Q2993.03 268.792 2994.81 268.792 Q2996.73 268.792 2998.33 267.363 Q2999.94 265.911 3000.43 262.796 Q3000.97 259.727 3000.95 252.865 Q3000.95 246.189 3000.48 243.519 Q2999.85 240.404 2998.16 239.163 Q2996.5 237.898 2994.81 237.898 Q2994.18 237.898 2993.5 238.085 Q2992.85 238.272 2991.89 238.811 Q2990.92 239.35 2990.18 240.685 Q2989.45 242.02 2989.1 244.034 Q2988.72 246.634 2988.72 252.865 Z" fill="#000000" fill-rule="evenodd" fill-opacity="1" /><path clip-path="url(#clip140)" d="M3009.22 268.019 Q3008.49 267.246 3008.49 266.239 Q3008.49 265.232 3009.22 264.506 Q3009.94 263.756 3011.04 263.756 Q3012.1 263.756 3012.8 264.459 Q3013.53 265.138 3013.53 266.262 Q3013.53 267.363 3012.75 268.089 Q3012 268.792 3011.04 268.792 Q3009.94 268.792 3009.22 268.019 Z" fill="#000000" fill-rule="evenodd" fill-opacity="1" /><path clip-path="url(#clip140)" d="M3021.69 268.792 Q3021.69 267.925 3021.76 267.668 Q3021.85 267.41 3022.23 267.012 L3031.43 256.753 Q3036.47 251.085 3036.47 246.142 Q3036.47 242.934 3034.78 240.638 Q3033.12 238.343 3030.05 238.343 Q3027.94 238.343 3026.16 239.631 Q3024.38 240.919 3023.56 243.215 Q3023.7 243.168 3024.19 243.168 Q3025.39 243.168 3026.04 243.917 Q3026.72 244.667 3026.72 245.674 Q3026.72 246.962 3025.88 247.595 Q3025.06 248.204 3024.24 248.204 Q3023.91 248.204 3023.47 248.133 Q3023.05 248.063 3022.37 247.407 Q3021.69 246.728 3021.69 245.533 Q3021.69 242.184 3024.22 239.514 Q3026.77 236.844 3030.66 236.844 Q3035.06 236.844 3037.94 239.467 Q3040.85 242.067 3040.85 246.142 Q3040.85 247.571 3040.4 248.883 Q3039.98 250.171 3039.4 251.178 Q3038.83 252.185 3037.29 253.802 Q3035.74 255.418 3034.5 256.565 Q3033.26 257.713 3030.47 260.149 L3025.39 265.091 L3034.03 265.091 Q3038.25 265.091 3038.58 264.716 Q3039.04 264.037 3039.63 260.454 L3040.85 260.454 L3039.49 268.792 L3021.69 268.792 Z" fill="#000000" fill-rule="evenodd" fill-opacity="1" /><path clip-path="url(#clip140)" d="M3045.63 261.063 Q3045.63 259.634 3046.4 259.095 Q3047.18 258.533 3048 258.533 Q3049.1 258.533 3049.73 259.236 Q3050.39 259.915 3050.39 260.875 Q3050.39 261.835 3049.73 262.538 Q3049.1 263.217 3048 263.217 Q3047.46 263.217 3047.18 263.124 Q3047.81 265.325 3049.73 266.918 Q3051.67 268.511 3054.23 268.511 Q3057.44 268.511 3059.36 265.396 Q3060.5 263.381 3060.5 258.814 Q3060.5 254.785 3059.64 252.771 Q3058.3 249.703 3055.56 249.703 Q3051.67 249.703 3049.38 253.052 Q3049.1 253.474 3048.77 253.497 Q3048.3 253.497 3048.18 253.239 Q3048.09 252.958 3048.09 252.232 L3048.09 238.038 Q3048.09 236.891 3048.56 236.891 Q3048.75 236.891 3049.14 237.031 Q3052.17 238.366 3055.51 238.39 Q3058.96 238.39 3062.05 236.984 Q3062.28 236.844 3062.42 236.844 Q3062.89 236.844 3062.92 237.382 Q3062.92 237.57 3062.52 238.132 Q3062.14 238.671 3061.32 239.397 Q3060.5 240.099 3059.45 240.779 Q3058.4 241.458 3056.85 241.926 Q3055.33 242.371 3053.64 242.371 Q3051.63 242.371 3049.57 241.739 L3049.57 251.085 Q3052.05 248.649 3055.66 248.649 Q3059.5 248.649 3062.14 251.74 Q3064.79 254.832 3064.79 259.142 Q3064.79 263.662 3061.65 266.754 Q3058.54 269.846 3054.32 269.846 Q3050.48 269.846 3048.04 267.106 Q3045.63 264.365 3045.63 261.063 Z" fill="#000000" fill-rule="evenodd" fill-opacity="1" /><path clip-path="url(#clip140)" d="M3070.34 280.316 Q3070.34 280.082 3070.95 279.496 Q3078.68 271.626 3078.68 256.8 Q3078.68 241.926 3071.25 234.408 Q3070.34 233.541 3070.34 233.284 Q3070.34 232.815 3070.81 232.815 Q3071.14 232.815 3072.28 233.775 Q3073.46 234.736 3075.21 236.937 Q3076.99 239.139 3078.3 241.833 Q3081.47 248.368 3081.47 256.8 Q3081.47 264.904 3078.44 271.439 Q3077.16 274.179 3075.35 276.474 Q3073.55 278.77 3072.35 279.777 Q3071.16 280.784 3070.81 280.784 Q3070.34 280.784 3070.34 280.316 Z" fill="#000000" fill-rule="evenodd" fill-opacity="1" /><polyline clip-path="url(#clip140)" style="stroke:#c271d2; stroke-linecap:butt; stroke-linejoin:round; stroke-width:4; stroke-opacity:1; fill:none" points="
  2567.43,302.866 2759.43,302.866 
  "/>
<path clip-path="url(#clip140)" d="M2817.43 313.769 Q2816.82 316.791 2816 318.524 Q2814.69 321.171 2812.44 321.171 Q2810.85 321.171 2809.63 320.21 Q2808.44 319.25 2808.13 317.657 Q2807.52 318.383 2807.08 318.805 Q2806.66 319.227 2805.81 319.882 Q2804.99 320.515 2803.96 320.843 Q2802.93 321.171 2801.76 321.171 Q2798.9 321.171 2797.1 319.672 Q2794.66 329.486 2794.45 329.977 Q2793.77 330.985 2792.79 330.985 Q2792.18 330.985 2791.81 330.61 Q2791.43 330.259 2791.43 329.696 Q2791.46 329.509 2791.6 328.923 L2798.48 301.168 Q2798.67 300.418 2799.14 299.997 Q2799.63 299.552 2799.91 299.505 Q2800.19 299.435 2800.4 299.435 Q2801.04 299.435 2801.41 299.786 Q2801.81 300.114 2801.81 300.723 Q2801.81 300.817 2801.67 301.355 Q2801.55 301.871 2801.36 302.667 Q2801.18 303.44 2801.08 303.791 L2799.07 311.849 Q2798.39 314.612 2798.39 315.924 Q2798.39 317.915 2799.28 319.016 Q2800.19 320.093 2801.95 320.093 Q2803.05 320.093 2804.08 319.648 Q2805.11 319.18 2805.81 318.547 Q2806.52 317.915 2807.08 317.236 Q2807.64 316.533 2807.9 316.088 Q2808.16 315.62 2808.18 315.502 L2809.42 310.607 L2811.69 301.636 Q2811.83 301.074 2812.09 300.699 Q2812.37 300.301 2812.7 300.161 Q2813.03 300.02 2813.21 299.997 Q2813.4 299.95 2813.57 299.95 Q2814.15 299.95 2814.55 300.301 Q2814.95 300.653 2814.95 301.262 Q2814.95 301.379 2814.81 301.941 Q2814.69 302.48 2814.5 303.276 Q2814.32 304.049 2814.22 304.47 Q2813.47 307.422 2813.4 307.726 L2812.07 312.903 Q2812 313.207 2811.76 314.191 Q2811.55 315.174 2811.43 315.69 Q2811.32 316.182 2811.2 316.861 Q2811.11 317.517 2811.11 317.892 Q2811.11 320.093 2812.56 320.093 Q2813.12 320.093 2813.61 319.765 Q2814.1 319.414 2814.43 318.922 Q2814.78 318.43 2815.11 317.587 Q2815.46 316.72 2815.67 316.018 Q2815.88 315.292 2816.19 314.167 Q2816.31 313.629 2816.42 313.465 Q2816.54 313.301 2816.87 313.301 Q2817.43 313.301 2817.43 313.769 Z" fill="#000000" fill-rule="evenodd" fill-opacity="1" /><path clip-path="url(#clip140)" d="M2858.08 308.64 Q2858.08 300.535 2861.1 294.001 Q2862.39 291.26 2864.19 288.965 Q2865.99 286.669 2867.19 285.662 Q2868.38 284.655 2868.71 284.655 Q2869.18 284.655 2869.2 285.124 Q2869.2 285.358 2868.57 285.943 Q2860.84 293.813 2860.86 308.64 Q2860.86 323.513 2868.38 331.078 Q2869.2 331.898 2869.2 332.156 Q2869.2 332.624 2868.71 332.624 Q2868.38 332.624 2867.23 331.664 Q2866.09 330.704 2864.31 328.502 Q2862.53 326.3 2861.24 323.607 Q2858.08 317.072 2858.08 308.64 Z" fill="#000000" fill-rule="evenodd" fill-opacity="1" /><path clip-path="url(#clip140)" d="M2900.22 320.679 Q2900.22 321.124 2899.7 321.171 L2898.65 321.171 Q2897.57 321.171 2897.1 321.007 Q2896.64 320.843 2896.1 320.093 Q2895.77 319.625 2894.95 317.446 Q2894.15 315.245 2892.98 311.919 Q2891.83 308.593 2891.06 306.625 L2879.51 320.257 Q2878.72 321.264 2877.92 321.264 Q2877.34 321.264 2876.91 320.866 Q2876.49 320.468 2876.49 319.859 Q2876.49 319.414 2876.66 319.156 Q2876.84 318.899 2877.34 318.383 L2890.59 305.243 L2885.93 292.197 Q2885.04 289.785 2884.53 289.176 Q2884.03 288.567 2882.82 288.356 Q2882.37 288.239 2882.37 287.864 Q2882.37 287.349 2883.24 287.349 Q2887.88 287.349 2889.09 290.745 L2898.88 318.032 Q2899.42 319.601 2899.98 320.257 Q2900.22 320.562 2900.22 320.679 Z" fill="#000000" fill-rule="evenodd" fill-opacity="1" /><path clip-path="url(#clip140)" d="M2905.09 315.382 L2905.09 314.332 Q2909.12 314.332 2911.21 312.184 Q2911.78 312.184 2911.88 312.316 Q2911.98 312.447 2911.98 313.053 L2911.98 331.892 Q2911.98 332.892 2912.47 333.204 Q2912.96 333.515 2915.11 333.515 L2916.17 333.515 L2916.17 334.548 Q2914.99 334.45 2910.73 334.45 Q2906.47 334.45 2905.3 334.548 L2905.3 333.515 L2906.37 333.515 Q2908.48 333.515 2908.99 333.22 Q2909.5 332.909 2909.5 331.892 L2909.5 314.496 Q2907.75 315.382 2905.09 315.382 Z" fill="#000000" fill-rule="evenodd" fill-opacity="1" /><path clip-path="url(#clip140)" d="M2934.49 313.348 Q2934.53 312.762 2935.45 312.762 L2964.84 312.762 Q2966.22 312.762 2966.25 313.301 Q2966.25 313.886 2964.94 313.863 L2935.77 313.863 Q2934.49 313.886 2934.49 313.348 M2934.49 303.979 Q2934.49 303.393 2935.49 303.416 L2964.79 303.416 Q2966.22 303.416 2966.25 303.979 Q2966.25 304.517 2965.03 304.517 L2935.45 304.517 Q2934.49 304.517 2934.49 303.979 Z" fill="#000000" fill-rule="evenodd" fill-opacity="1" /><path clip-path="url(#clip140)" d="M2984.74 305.29 Q2984.74 298.24 2986.52 294.399 Q2989 288.684 2994.86 288.684 Q2996.1 288.684 2997.39 289.035 Q2998.7 289.363 3000.34 290.651 Q3002 291.939 3003.01 294.047 Q3004.93 298.123 3004.93 305.29 Q3004.93 312.294 3003.15 316.111 Q3000.55 321.686 2994.81 321.686 Q2992.66 321.686 2990.46 320.585 Q2988.28 319.484 2986.9 316.837 Q2984.74 312.879 2984.74 305.29 M2988.72 304.705 Q2988.72 311.942 2989.24 314.823 Q2989.82 317.938 2991.42 319.297 Q2993.03 320.632 2994.81 320.632 Q2996.73 320.632 2998.33 319.203 Q2999.94 317.751 3000.43 314.636 Q3000.97 311.567 3000.95 304.705 Q3000.95 298.029 3000.48 295.359 Q2999.85 292.244 2998.16 291.003 Q2996.5 289.738 2994.81 289.738 Q2994.18 289.738 2993.5 289.925 Q2992.85 290.112 2991.89 290.651 Q2990.92 291.19 2990.18 292.525 Q2989.45 293.86 2989.1 295.874 Q2988.72 298.474 2988.72 304.705 Z" fill="#000000" fill-rule="evenodd" fill-opacity="1" /><path clip-path="url(#clip140)" d="M3009.22 319.859 Q3008.49 319.086 3008.49 318.079 Q3008.49 317.072 3009.22 316.346 Q3009.94 315.596 3011.04 315.596 Q3012.1 315.596 3012.8 316.299 Q3013.53 316.978 3013.53 318.102 Q3013.53 319.203 3012.75 319.929 Q3012 320.632 3011.04 320.632 Q3009.94 320.632 3009.22 319.859 Z" fill="#000000" fill-rule="evenodd" fill-opacity="1" /><path clip-path="url(#clip140)" d="M3021.69 312.903 Q3021.69 311.474 3022.46 310.935 Q3023.23 310.373 3024.05 310.373 Q3025.15 310.373 3025.79 311.076 Q3026.44 311.755 3026.44 312.715 Q3026.44 313.675 3025.79 314.378 Q3025.15 315.057 3024.05 315.057 Q3023.52 315.057 3023.23 314.964 Q3023.87 317.165 3025.79 318.758 Q3027.73 320.351 3030.28 320.351 Q3033.49 320.351 3035.41 317.236 Q3036.56 315.221 3036.56 310.654 Q3036.56 306.625 3035.69 304.611 Q3034.36 301.543 3031.62 301.543 Q3027.73 301.543 3025.44 304.892 Q3025.15 305.314 3024.83 305.337 Q3024.36 305.337 3024.24 305.079 Q3024.15 304.798 3024.15 304.072 L3024.15 289.878 Q3024.15 288.731 3024.62 288.731 Q3024.8 288.731 3025.2 288.871 Q3028.22 290.206 3031.57 290.23 Q3035.02 290.23 3038.11 288.824 Q3038.34 288.684 3038.48 288.684 Q3038.95 288.684 3038.97 289.222 Q3038.97 289.41 3038.58 289.972 Q3038.2 290.511 3037.38 291.237 Q3036.56 291.939 3035.51 292.619 Q3034.45 293.298 3032.91 293.766 Q3031.39 294.211 3029.7 294.211 Q3027.68 294.211 3025.62 293.579 L3025.62 302.925 Q3028.11 300.489 3031.71 300.489 Q3035.55 300.489 3038.2 303.58 Q3040.85 306.672 3040.85 310.982 Q3040.85 315.502 3037.71 318.594 Q3034.59 321.686 3030.38 321.686 Q3026.54 321.686 3024.1 318.946 Q3021.69 316.205 3021.69 312.903 Z" fill="#000000" fill-rule="evenodd" fill-opacity="1" /><path clip-path="url(#clip140)" d="M3046.4 332.156 Q3046.4 331.922 3047.01 331.336 Q3054.74 323.466 3054.74 308.64 Q3054.74 293.766 3047.31 286.248 Q3046.4 285.381 3046.4 285.124 Q3046.4 284.655 3046.87 284.655 Q3047.19 284.655 3048.34 285.615 Q3049.51 286.576 3051.27 288.777 Q3053.05 290.979 3054.36 293.673 Q3057.52 300.208 3057.52 308.64 Q3057.52 316.744 3054.5 323.279 Q3053.21 326.019 3051.41 328.314 Q3049.61 330.61 3048.41 331.617 Q3047.22 332.624 3046.87 332.624 Q3046.4 332.624 3046.4 332.156 Z" fill="#000000" fill-rule="evenodd" fill-opacity="1" /><polyline clip-path="url(#clip140)" style="stroke:#ac8d18; stroke-linecap:butt; stroke-linejoin:round; stroke-width:4; stroke-opacity:1; fill:none" points="
  2567.43,354.706 2759.43,354.706 
  "/>
<path clip-path="url(#clip140)" d="M2817.43 365.609 Q2816.82 368.631 2816 370.364 Q2814.69 373.011 2812.44 373.011 Q2810.85 373.011 2809.63 372.05 Q2808.44 371.09 2808.13 369.497 Q2807.52 370.223 2807.08 370.645 Q2806.66 371.067 2805.81 371.722 Q2804.99 372.355 2803.96 372.683 Q2802.93 373.011 2801.76 373.011 Q2798.9 373.011 2797.1 371.512 Q2794.66 381.326 2794.45 381.817 Q2793.77 382.825 2792.79 382.825 Q2792.18 382.825 2791.81 382.45 Q2791.43 382.099 2791.43 381.536 Q2791.46 381.349 2791.6 380.763 L2798.48 353.008 Q2798.67 352.258 2799.14 351.837 Q2799.63 351.392 2799.91 351.345 Q2800.19 351.275 2800.4 351.275 Q2801.04 351.275 2801.41 351.626 Q2801.81 351.954 2801.81 352.563 Q2801.81 352.657 2801.67 353.195 Q2801.55 353.711 2801.36 354.507 Q2801.18 355.28 2801.08 355.631 L2799.07 363.689 Q2798.39 366.452 2798.39 367.764 Q2798.39 369.755 2799.28 370.856 Q2800.19 371.933 2801.95 371.933 Q2803.05 371.933 2804.08 371.488 Q2805.11 371.02 2805.81 370.387 Q2806.52 369.755 2807.08 369.076 Q2807.64 368.373 2807.9 367.928 Q2808.16 367.46 2808.18 367.342 L2809.42 362.447 L2811.69 353.476 Q2811.83 352.914 2812.09 352.539 Q2812.37 352.141 2812.7 352.001 Q2813.03 351.86 2813.21 351.837 Q2813.4 351.79 2813.57 351.79 Q2814.15 351.79 2814.55 352.141 Q2814.95 352.493 2814.95 353.102 Q2814.95 353.219 2814.81 353.781 Q2814.69 354.32 2814.5 355.116 Q2814.32 355.889 2814.22 356.31 Q2813.47 359.262 2813.4 359.566 L2812.07 364.743 Q2812 365.047 2811.76 366.031 Q2811.55 367.014 2811.43 367.53 Q2811.32 368.022 2811.2 368.701 Q2811.11 369.357 2811.11 369.732 Q2811.11 371.933 2812.56 371.933 Q2813.12 371.933 2813.61 371.605 Q2814.1 371.254 2814.43 370.762 Q2814.78 370.27 2815.11 369.427 Q2815.46 368.56 2815.67 367.858 Q2815.88 367.132 2816.19 366.007 Q2816.31 365.469 2816.42 365.305 Q2816.54 365.141 2816.87 365.141 Q2817.43 365.141 2817.43 365.609 Z" fill="#000000" fill-rule="evenodd" fill-opacity="1" /><path clip-path="url(#clip140)" d="M2858.08 360.48 Q2858.08 352.375 2861.1 345.841 Q2862.39 343.1 2864.19 340.805 Q2865.99 338.509 2867.19 337.502 Q2868.38 336.495 2868.71 336.495 Q2869.18 336.495 2869.2 336.964 Q2869.2 337.198 2868.57 337.783 Q2860.84 345.653 2860.86 360.48 Q2860.86 375.353 2868.38 382.918 Q2869.2 383.738 2869.2 383.996 Q2869.2 384.464 2868.71 384.464 Q2868.38 384.464 2867.23 383.504 Q2866.09 382.544 2864.31 380.342 Q2862.53 378.14 2861.24 375.447 Q2858.08 368.912 2858.08 360.48 Z" fill="#000000" fill-rule="evenodd" fill-opacity="1" /><path clip-path="url(#clip140)" d="M2900.22 372.519 Q2900.22 372.964 2899.7 373.011 L2898.65 373.011 Q2897.57 373.011 2897.1 372.847 Q2896.64 372.683 2896.1 371.933 Q2895.77 371.465 2894.95 369.286 Q2894.15 367.085 2892.98 363.759 Q2891.83 360.433 2891.06 358.465 L2879.51 372.097 Q2878.72 373.104 2877.92 373.104 Q2877.34 373.104 2876.91 372.706 Q2876.49 372.308 2876.49 371.699 Q2876.49 371.254 2876.66 370.996 Q2876.84 370.739 2877.34 370.223 L2890.59 357.083 L2885.93 344.037 Q2885.04 341.625 2884.53 341.016 Q2884.03 340.407 2882.82 340.196 Q2882.37 340.079 2882.37 339.704 Q2882.37 339.189 2883.24 339.189 Q2887.88 339.189 2889.09 342.585 L2898.88 369.872 Q2899.42 371.441 2899.98 372.097 Q2900.22 372.402 2900.22 372.519 Z" fill="#000000" fill-rule="evenodd" fill-opacity="1" /><path clip-path="url(#clip140)" d="M2905.09 367.222 L2905.09 366.172 Q2909.12 366.172 2911.21 364.024 Q2911.78 364.024 2911.88 364.156 Q2911.98 364.287 2911.98 364.893 L2911.98 383.732 Q2911.98 384.732 2912.47 385.044 Q2912.96 385.355 2915.11 385.355 L2916.17 385.355 L2916.17 386.388 Q2914.99 386.29 2910.73 386.29 Q2906.47 386.29 2905.3 386.388 L2905.3 385.355 L2906.37 385.355 Q2908.48 385.355 2908.99 385.06 Q2909.5 384.749 2909.5 383.732 L2909.5 366.336 Q2907.75 367.222 2905.09 367.222 Z" fill="#000000" fill-rule="evenodd" fill-opacity="1" /><path clip-path="url(#clip140)" d="M2934.49 365.188 Q2934.53 364.602 2935.45 364.602 L2964.84 364.602 Q2966.22 364.602 2966.25 365.141 Q2966.25 365.726 2964.94 365.703 L2935.77 365.703 Q2934.49 365.726 2934.49 365.188 M2934.49 355.819 Q2934.49 355.233 2935.49 355.256 L2964.79 355.256 Q2966.22 355.256 2966.25 355.819 Q2966.25 356.357 2965.03 356.357 L2935.45 356.357 Q2934.49 356.357 2934.49 355.819 Z" fill="#000000" fill-rule="evenodd" fill-opacity="1" /><path clip-path="url(#clip140)" d="M2984.74 357.13 Q2984.74 350.08 2986.52 346.239 Q2989 340.524 2994.86 340.524 Q2996.1 340.524 2997.39 340.875 Q2998.7 341.203 3000.34 342.491 Q3002 343.779 3003.01 345.887 Q3004.93 349.963 3004.93 357.13 Q3004.93 364.134 3003.15 367.951 Q3000.55 373.526 2994.81 373.526 Q2992.66 373.526 2990.46 372.425 Q2988.28 371.324 2986.9 368.677 Q2984.74 364.719 2984.74 357.13 M2988.72 356.545 Q2988.72 363.782 2989.24 366.663 Q2989.82 369.778 2991.42 371.137 Q2993.03 372.472 2994.81 372.472 Q2996.73 372.472 2998.33 371.043 Q2999.94 369.591 3000.43 366.476 Q3000.97 363.407 3000.95 356.545 Q3000.95 349.869 3000.48 347.199 Q2999.85 344.084 2998.16 342.843 Q2996.5 341.578 2994.81 341.578 Q2994.18 341.578 2993.5 341.765 Q2992.85 341.952 2991.89 342.491 Q2990.92 343.03 2990.18 344.365 Q2989.45 345.7 2989.1 347.714 Q2988.72 350.314 2988.72 356.545 Z" fill="#000000" fill-rule="evenodd" fill-opacity="1" /><path clip-path="url(#clip140)" d="M3009.22 371.699 Q3008.49 370.926 3008.49 369.919 Q3008.49 368.912 3009.22 368.186 Q3009.94 367.436 3011.04 367.436 Q3012.1 367.436 3012.8 368.139 Q3013.53 368.818 3013.53 369.942 Q3013.53 371.043 3012.75 371.769 Q3012 372.472 3011.04 372.472 Q3009.94 372.472 3009.22 371.699 Z" fill="#000000" fill-rule="evenodd" fill-opacity="1" /><path clip-path="url(#clip140)" d="M3021.69 349.916 L3023.26 340.055 L3024.45 340.055 Q3024.59 340.641 3024.83 340.898 Q3025.08 341.156 3026.44 341.367 Q3027.83 341.578 3030.61 341.578 L3042.25 341.578 Q3042.25 342.679 3041.83 343.264 L3035.34 352.375 Q3033.28 355.256 3032.37 360.573 Q3031.83 364.134 3031.85 368.443 L3031.85 370.879 Q3031.85 373.526 3029.63 373.526 Q3027.43 373.526 3027.43 370.879 Q3027.43 361.721 3033.33 352.844 Q3033.96 351.93 3036.28 348.675 Q3038.62 345.419 3038.72 345.278 L3028.79 345.278 Q3024.43 345.278 3024.08 345.56 Q3023.61 345.981 3022.88 349.916 L3021.69 349.916 Z" fill="#000000" fill-rule="evenodd" fill-opacity="1" /><path clip-path="url(#clip140)" d="M3041.36 364.743 Q3041.36 363.314 3042.14 362.775 Q3042.91 362.213 3043.73 362.213 Q3044.83 362.213 3045.46 362.916 Q3046.12 363.595 3046.12 364.555 Q3046.12 365.515 3045.46 366.218 Q3044.83 366.897 3043.73 366.897 Q3043.19 366.897 3042.91 366.804 Q3043.54 369.005 3045.46 370.598 Q3047.41 372.191 3049.96 372.191 Q3053.17 372.191 3055.09 369.076 Q3056.24 367.061 3056.24 362.494 Q3056.24 358.465 3055.37 356.451 Q3054.03 353.383 3051.29 353.383 Q3047.41 353.383 3045.11 356.732 Q3044.83 357.154 3044.5 357.177 Q3044.03 357.177 3043.92 356.919 Q3043.82 356.638 3043.82 355.912 L3043.82 341.718 Q3043.82 340.571 3044.29 340.571 Q3044.48 340.571 3044.88 340.711 Q3047.9 342.046 3051.25 342.07 Q3054.69 342.07 3057.78 340.664 Q3058.02 340.524 3058.16 340.524 Q3058.62 340.524 3058.65 341.062 Q3058.65 341.25 3058.25 341.812 Q3057.88 342.351 3057.06 343.077 Q3056.24 343.779 3055.18 344.459 Q3054.13 345.138 3052.58 345.606 Q3051.06 346.051 3049.37 346.051 Q3047.36 346.051 3045.3 345.419 L3045.3 354.765 Q3047.78 352.329 3051.39 352.329 Q3055.23 352.329 3057.88 355.42 Q3060.52 358.512 3060.52 362.822 Q3060.52 367.342 3057.38 370.434 Q3054.27 373.526 3050.05 373.526 Q3046.21 373.526 3043.77 370.786 Q3041.36 368.045 3041.36 364.743 Z" fill="#000000" fill-rule="evenodd" fill-opacity="1" /><path clip-path="url(#clip140)" d="M3066.07 383.996 Q3066.07 383.762 3066.68 383.176 Q3074.41 375.306 3074.41 360.48 Q3074.41 345.606 3066.99 338.088 Q3066.07 337.221 3066.07 336.964 Q3066.07 336.495 3066.54 336.495 Q3066.87 336.495 3068.02 337.455 Q3069.19 338.416 3070.94 340.617 Q3072.72 342.819 3074.04 345.513 Q3077.2 352.048 3077.2 360.48 Q3077.2 368.584 3074.18 375.119 Q3072.89 377.859 3071.08 380.154 Q3069.28 382.45 3068.09 383.457 Q3066.89 384.464 3066.54 384.464 Q3066.07 384.464 3066.07 383.996 Z" fill="#000000" fill-rule="evenodd" fill-opacity="1" /></svg>
