<?xml version="1.0" encoding="utf-8"?>
<svg xmlns="http://www.w3.org/2000/svg" xmlns:xlink="http://www.w3.org/1999/xlink" width="600" height="400" viewBox="0 0 2400 1600">
<defs>
  <clipPath id="clip020">
    <rect x="0" y="0" width="2400" height="1600"/>
  </clipPath>
</defs>
<path clip-path="url(#clip020)" d="
M0 1600 L2400 1600 L2400 0 L0 0  Z
  " fill="#ffffff" fill-rule="evenodd" fill-opacity="1"/>
<defs>
  <clipPath id="clip021">
    <rect x="480" y="0" width="1681" height="1600"/>
  </clipPath>
</defs>
<path clip-path="url(#clip020)" d="
M147.478 1486.45 L2352.76 1486.45 L2352.76 123.472 L147.478 123.472  Z
  " fill="#ffffff" fill-rule="evenodd" fill-opacity="1"/>
<defs>
  <clipPath id="clip022">
    <rect x="147" y="123" width="2206" height="1364"/>
  </clipPath>
</defs>
<polyline clip-path="url(#clip022)" style="stroke:#000000; stroke-linecap:butt; stroke-linejoin:round; stroke-width:2; stroke-opacity:0.1; fill:none" points="
  420.845,1486.45 420.845,123.472 
  "/>
<polyline clip-path="url(#clip022)" style="stroke:#000000; stroke-linecap:butt; stroke-linejoin:round; stroke-width:2; stroke-opacity:0.1; fill:none" points="
  794.605,1486.45 794.605,123.472 
  "/>
<polyline clip-path="url(#clip022)" style="stroke:#000000; stroke-linecap:butt; stroke-linejoin:round; stroke-width:2; stroke-opacity:0.1; fill:none" points="
  1168.37,1486.45 1168.37,123.472 
  "/>
<polyline clip-path="url(#clip022)" style="stroke:#000000; stroke-linecap:butt; stroke-linejoin:round; stroke-width:2; stroke-opacity:0.1; fill:none" points="
  1542.13,1486.45 1542.13,123.472 
  "/>
<polyline clip-path="url(#clip022)" style="stroke:#000000; stroke-linecap:butt; stroke-linejoin:round; stroke-width:2; stroke-opacity:0.1; fill:none" points="
  1915.89,1486.45 1915.89,123.472 
  "/>
<polyline clip-path="url(#clip022)" style="stroke:#000000; stroke-linecap:butt; stroke-linejoin:round; stroke-width:2; stroke-opacity:0.1; fill:none" points="
  2289.65,1486.45 2289.65,123.472 
  "/>
<polyline clip-path="url(#clip020)" style="stroke:#000000; stroke-linecap:butt; stroke-linejoin:round; stroke-width:4; stroke-opacity:1; fill:none" points="
  147.478,1486.45 2352.76,1486.45 
  "/>
<polyline clip-path="url(#clip020)" style="stroke:#000000; stroke-linecap:butt; stroke-linejoin:round; stroke-width:4; stroke-opacity:1; fill:none" points="
  420.845,1486.45 420.845,1467.55 
  "/>
<polyline clip-path="url(#clip020)" style="stroke:#000000; stroke-linecap:butt; stroke-linejoin:round; stroke-width:4; stroke-opacity:1; fill:none" points="
  794.605,1486.45 794.605,1467.55 
  "/>
<polyline clip-path="url(#clip020)" style="stroke:#000000; stroke-linecap:butt; stroke-linejoin:round; stroke-width:4; stroke-opacity:1; fill:none" points="
  1168.37,1486.45 1168.37,1467.55 
  "/>
<polyline clip-path="url(#clip020)" style="stroke:#000000; stroke-linecap:butt; stroke-linejoin:round; stroke-width:4; stroke-opacity:1; fill:none" points="
  1542.13,1486.45 1542.13,1467.55 
  "/>
<polyline clip-path="url(#clip020)" style="stroke:#000000; stroke-linecap:butt; stroke-linejoin:round; stroke-width:4; stroke-opacity:1; fill:none" points="
  1915.89,1486.45 1915.89,1467.55 
  "/>
<polyline clip-path="url(#clip020)" style="stroke:#000000; stroke-linecap:butt; stroke-linejoin:round; stroke-width:4; stroke-opacity:1; fill:none" points="
  2289.65,1486.45 2289.65,1467.55 
  "/>
<path clip-path="url(#clip020)" d="M390.788 1532.02 L420.463 1532.02 L420.463 1535.95 L390.788 1535.95 L390.788 1532.02 Z" fill="#000000" fill-rule="evenodd" fill-opacity="1" /><path clip-path="url(#clip020)" d="M434.584 1544.91 L450.903 1544.91 L450.903 1548.85 L428.959 1548.85 L428.959 1544.91 Q431.621 1542.16 436.204 1537.53 Q440.81 1532.88 441.991 1531.53 Q444.236 1529.01 445.116 1527.27 Q446.019 1525.51 446.019 1523.82 Q446.019 1521.07 444.074 1519.33 Q442.153 1517.6 439.051 1517.6 Q436.852 1517.6 434.398 1518.36 Q431.968 1519.13 429.19 1520.68 L429.19 1515.95 Q432.014 1514.82 434.468 1514.24 Q436.922 1513.66 438.959 1513.66 Q444.329 1513.66 447.523 1516.35 Q450.718 1519.03 450.718 1523.52 Q450.718 1525.65 449.908 1527.57 Q449.121 1529.47 447.014 1532.07 Q446.435 1532.74 443.334 1535.95 Q440.232 1539.15 434.584 1544.91 Z" fill="#000000" fill-rule="evenodd" fill-opacity="1" /><path clip-path="url(#clip020)" d="M764.362 1532.02 L794.038 1532.02 L794.038 1535.95 L764.362 1535.95 L764.362 1532.02 Z" fill="#000000" fill-rule="evenodd" fill-opacity="1" /><path clip-path="url(#clip020)" d="M804.941 1544.91 L812.58 1544.91 L812.58 1518.55 L804.27 1520.21 L804.27 1515.95 L812.533 1514.29 L817.209 1514.29 L817.209 1544.91 L824.848 1544.91 L824.848 1548.85 L804.941 1548.85 L804.941 1544.91 Z" fill="#000000" fill-rule="evenodd" fill-opacity="1" /><path clip-path="url(#clip020)" d="M1168.37 1517.37 Q1164.75 1517.37 1162.93 1520.93 Q1161.12 1524.47 1161.12 1531.6 Q1161.12 1538.71 1162.93 1542.27 Q1164.75 1545.82 1168.37 1545.82 Q1172 1545.82 1173.81 1542.27 Q1175.63 1538.71 1175.63 1531.6 Q1175.63 1524.47 1173.81 1520.93 Q1172 1517.37 1168.37 1517.37 M1168.37 1513.66 Q1174.18 1513.66 1177.23 1518.27 Q1180.31 1522.85 1180.31 1531.6 Q1180.31 1540.33 1177.23 1544.94 Q1174.18 1549.52 1168.37 1549.52 Q1162.56 1549.52 1159.48 1544.94 Q1156.42 1540.33 1156.42 1531.6 Q1156.42 1522.85 1159.48 1518.27 Q1162.56 1513.66 1168.37 1513.66 Z" fill="#000000" fill-rule="evenodd" fill-opacity="1" /><path clip-path="url(#clip020)" d="M1532.51 1544.91 L1540.15 1544.91 L1540.15 1518.55 L1531.84 1520.21 L1531.84 1515.95 L1540.1 1514.29 L1544.78 1514.29 L1544.78 1544.91 L1552.41 1544.91 L1552.41 1548.85 L1532.51 1548.85 L1532.51 1544.91 Z" fill="#000000" fill-rule="evenodd" fill-opacity="1" /><path clip-path="url(#clip020)" d="M1910.54 1544.91 L1926.86 1544.91 L1926.86 1548.85 L1904.91 1548.85 L1904.91 1544.91 Q1907.58 1542.16 1912.16 1537.53 Q1916.76 1532.88 1917.95 1531.53 Q1920.19 1529.01 1921.07 1527.27 Q1921.97 1525.51 1921.97 1523.82 Q1921.97 1521.07 1920.03 1519.33 Q1918.11 1517.6 1915.01 1517.6 Q1912.81 1517.6 1910.35 1518.36 Q1907.92 1519.13 1905.14 1520.68 L1905.14 1515.95 Q1907.97 1514.82 1910.42 1514.24 Q1912.88 1513.66 1914.91 1513.66 Q1920.28 1513.66 1923.48 1516.35 Q1926.67 1519.03 1926.67 1523.52 Q1926.67 1525.65 1925.86 1527.57 Q1925.08 1529.47 1922.97 1532.07 Q1922.39 1532.74 1919.29 1535.95 Q1916.19 1539.15 1910.54 1544.91 Z" fill="#000000" fill-rule="evenodd" fill-opacity="1" /><path clip-path="url(#clip020)" d="M2293.89 1530.21 Q2297.25 1530.93 2299.12 1533.2 Q2301.02 1535.47 2301.02 1538.8 Q2301.02 1543.92 2297.5 1546.72 Q2293.99 1549.52 2287.5 1549.52 Q2285.33 1549.52 2283.01 1549.08 Q2280.72 1548.66 2278.27 1547.81 L2278.27 1543.29 Q2280.21 1544.43 2282.53 1545.01 Q2284.84 1545.58 2287.37 1545.58 Q2291.76 1545.58 2294.06 1543.85 Q2296.37 1542.11 2296.37 1538.8 Q2296.37 1535.75 2294.22 1534.03 Q2292.09 1532.3 2288.27 1532.3 L2284.24 1532.3 L2284.24 1528.45 L2288.45 1528.45 Q2291.9 1528.45 2293.73 1527.09 Q2295.56 1525.7 2295.56 1523.11 Q2295.56 1520.45 2293.66 1519.03 Q2291.79 1517.6 2288.27 1517.6 Q2286.35 1517.6 2284.15 1518.01 Q2281.95 1518.43 2279.31 1519.31 L2279.31 1515.14 Q2281.97 1514.4 2284.29 1514.03 Q2286.62 1513.66 2288.68 1513.66 Q2294.01 1513.66 2297.11 1516.09 Q2300.21 1518.5 2300.21 1522.62 Q2300.21 1525.49 2298.57 1527.48 Q2296.93 1529.45 2293.89 1530.21 Z" fill="#000000" fill-rule="evenodd" fill-opacity="1" /><polyline clip-path="url(#clip022)" style="stroke:#000000; stroke-linecap:butt; stroke-linejoin:round; stroke-width:2; stroke-opacity:0.1; fill:none" points="
  147.478,1408.19 2352.76,1408.19 
  "/>
<polyline clip-path="url(#clip022)" style="stroke:#000000; stroke-linecap:butt; stroke-linejoin:round; stroke-width:2; stroke-opacity:0.1; fill:none" points="
  147.478,1175.19 2352.76,1175.19 
  "/>
<polyline clip-path="url(#clip022)" style="stroke:#000000; stroke-linecap:butt; stroke-linejoin:round; stroke-width:2; stroke-opacity:0.1; fill:none" points="
  147.478,942.195 2352.76,942.195 
  "/>
<polyline clip-path="url(#clip022)" style="stroke:#000000; stroke-linecap:butt; stroke-linejoin:round; stroke-width:2; stroke-opacity:0.1; fill:none" points="
  147.478,709.199 2352.76,709.199 
  "/>
<polyline clip-path="url(#clip022)" style="stroke:#000000; stroke-linecap:butt; stroke-linejoin:round; stroke-width:2; stroke-opacity:0.1; fill:none" points="
  147.478,476.203 2352.76,476.203 
  "/>
<polyline clip-path="url(#clip022)" style="stroke:#000000; stroke-linecap:butt; stroke-linejoin:round; stroke-width:2; stroke-opacity:0.1; fill:none" points="
  147.478,243.206 2352.76,243.206 
  "/>
<polyline clip-path="url(#clip020)" style="stroke:#000000; stroke-linecap:butt; stroke-linejoin:round; stroke-width:4; stroke-opacity:1; fill:none" points="
  147.478,1486.45 147.478,123.472 
  "/>
<polyline clip-path="url(#clip020)" style="stroke:#000000; stroke-linecap:butt; stroke-linejoin:round; stroke-width:4; stroke-opacity:1; fill:none" points="
  147.478,1408.19 166.376,1408.19 
  "/>
<polyline clip-path="url(#clip020)" style="stroke:#000000; stroke-linecap:butt; stroke-linejoin:round; stroke-width:4; stroke-opacity:1; fill:none" points="
  147.478,1175.19 166.376,1175.19 
  "/>
<polyline clip-path="url(#clip020)" style="stroke:#000000; stroke-linecap:butt; stroke-linejoin:round; stroke-width:4; stroke-opacity:1; fill:none" points="
  147.478,942.195 166.376,942.195 
  "/>
<polyline clip-path="url(#clip020)" style="stroke:#000000; stroke-linecap:butt; stroke-linejoin:round; stroke-width:4; stroke-opacity:1; fill:none" points="
  147.478,709.199 166.376,709.199 
  "/>
<polyline clip-path="url(#clip020)" style="stroke:#000000; stroke-linecap:butt; stroke-linejoin:round; stroke-width:4; stroke-opacity:1; fill:none" points="
  147.478,476.203 166.376,476.203 
  "/>
<polyline clip-path="url(#clip020)" style="stroke:#000000; stroke-linecap:butt; stroke-linejoin:round; stroke-width:4; stroke-opacity:1; fill:none" points="
  147.478,243.206 166.376,243.206 
  "/>
<path clip-path="url(#clip020)" d="M51.3625 1408.64 L81.0383 1408.64 L81.0383 1412.57 L51.3625 1412.57 L51.3625 1408.64 Z" fill="#000000" fill-rule="evenodd" fill-opacity="1" /><path clip-path="url(#clip020)" d="M95.1586 1421.53 L111.478 1421.53 L111.478 1425.47 L89.5336 1425.47 L89.5336 1421.53 Q92.1956 1418.78 96.7789 1414.15 Q101.385 1409.49 102.566 1408.15 Q104.811 1405.63 105.691 1403.89 Q106.594 1402.13 106.594 1400.44 Q106.594 1397.69 104.649 1395.95 Q102.728 1394.22 99.6261 1394.22 Q97.4271 1394.22 94.9734 1394.98 Q92.5428 1395.74 89.7651 1397.3 L89.7651 1392.57 Q92.5891 1391.44 95.0428 1390.86 Q97.4965 1390.28 99.5335 1390.28 Q104.904 1390.28 108.098 1392.97 Q111.293 1395.65 111.293 1400.14 Q111.293 1402.27 110.483 1404.19 Q109.696 1406.09 107.589 1408.68 Q107.01 1409.36 103.909 1412.57 Q100.807 1415.77 95.1586 1421.53 Z" fill="#000000" fill-rule="evenodd" fill-opacity="1" /><path clip-path="url(#clip020)" d="M50.9921 1175.64 L80.6679 1175.64 L80.6679 1179.58 L50.9921 1179.58 L50.9921 1175.64 Z" fill="#000000" fill-rule="evenodd" fill-opacity="1" /><path clip-path="url(#clip020)" d="M91.5706 1188.54 L99.2095 1188.54 L99.2095 1162.17 L90.8993 1163.84 L90.8993 1159.58 L99.1632 1157.91 L103.839 1157.91 L103.839 1188.54 L111.478 1188.54 L111.478 1192.47 L91.5706 1192.47 L91.5706 1188.54 Z" fill="#000000" fill-rule="evenodd" fill-opacity="1" /><path clip-path="url(#clip020)" d="M99.5335 927.993 Q95.9224 927.993 94.0937 931.558 Q92.2882 935.1 92.2882 942.229 Q92.2882 949.336 94.0937 952.901 Q95.9224 956.442 99.5335 956.442 Q103.168 956.442 104.973 952.901 Q106.802 949.336 106.802 942.229 Q106.802 935.1 104.973 931.558 Q103.168 927.993 99.5335 927.993 M99.5335 924.29 Q105.344 924.29 108.399 928.896 Q111.478 933.479 111.478 942.229 Q111.478 950.956 108.399 955.563 Q105.344 960.146 99.5335 960.146 Q93.7234 960.146 90.6447 955.563 Q87.5892 950.956 87.5892 942.229 Q87.5892 933.479 90.6447 928.896 Q93.7234 924.29 99.5335 924.29 Z" fill="#000000" fill-rule="evenodd" fill-opacity="1" /><path clip-path="url(#clip020)" d="M91.5706 722.543 L99.2095 722.543 L99.2095 696.178 L90.8993 697.844 L90.8993 693.585 L99.1632 691.919 L103.839 691.919 L103.839 722.543 L111.478 722.543 L111.478 726.479 L91.5706 726.479 L91.5706 722.543 Z" fill="#000000" fill-rule="evenodd" fill-opacity="1" /><path clip-path="url(#clip020)" d="M95.1586 489.547 L111.478 489.547 L111.478 493.483 L89.5336 493.483 L89.5336 489.547 Q92.1956 486.793 96.7789 482.163 Q101.385 477.51 102.566 476.168 Q104.811 473.645 105.691 471.909 Q106.594 470.149 106.594 468.46 Q106.594 465.705 104.649 463.969 Q102.728 462.233 99.6261 462.233 Q97.4271 462.233 94.9734 462.997 Q92.5428 463.76 89.7651 465.311 L89.7651 460.589 Q92.5891 459.455 95.0428 458.876 Q97.4965 458.298 99.5335 458.298 Q104.904 458.298 108.098 460.983 Q111.293 463.668 111.293 468.159 Q111.293 470.288 110.483 472.21 Q109.696 474.108 107.589 476.7 Q107.01 477.372 103.909 480.589 Q100.807 483.784 95.1586 489.547 Z" fill="#000000" fill-rule="evenodd" fill-opacity="1" /><path clip-path="url(#clip020)" d="M104.348 241.852 Q107.705 242.57 109.58 244.838 Q111.478 247.107 111.478 250.44 Q111.478 255.556 107.959 258.357 Q104.441 261.158 97.9595 261.158 Q95.7836 261.158 93.4688 260.718 Q91.1771 260.301 88.7234 259.445 L88.7234 254.931 Q90.6678 256.065 92.9826 256.644 Q95.2974 257.223 97.8206 257.223 Q102.219 257.223 104.51 255.487 Q106.825 253.75 106.825 250.44 Q106.825 247.385 104.672 245.672 Q102.543 243.936 98.7234 243.936 L94.6956 243.936 L94.6956 240.093 L98.9085 240.093 Q102.358 240.093 104.186 238.727 Q106.015 237.338 106.015 234.746 Q106.015 232.084 104.117 230.672 Q102.242 229.237 98.7234 229.237 Q96.8021 229.237 94.603 229.653 Q92.4039 230.07 89.7651 230.95 L89.7651 226.783 Q92.4271 226.042 94.7419 225.672 Q97.0798 225.301 99.14 225.301 Q104.464 225.301 107.566 227.732 Q110.668 230.139 110.668 234.26 Q110.668 237.13 109.024 239.121 Q107.381 241.088 104.348 241.852 Z" fill="#000000" fill-rule="evenodd" fill-opacity="1" /><path clip-path="url(#clip020)" d="M1270.57 54.8446 Q1269.5 60.1322 1268.07 63.1654 Q1265.77 67.7972 1261.84 67.7972 Q1259.05 67.7972 1256.92 66.1166 Q1254.83 64.4361 1254.29 61.6488 Q1253.23 62.9195 1252.45 63.6573 Q1251.71 64.3951 1250.24 65.5428 Q1248.8 66.6495 1247 67.2233 Q1245.19 67.7972 1243.15 67.7972 Q1238.14 67.7972 1234.99 65.1739 Q1230.73 82.3484 1230.36 83.2092 Q1229.17 84.9717 1227.45 84.9717 Q1226.38 84.9717 1225.73 84.3159 Q1225.07 83.701 1225.07 82.7173 Q1225.11 82.3894 1225.36 81.3646 L1237.41 32.7923 Q1237.73 31.4807 1238.55 30.7429 Q1239.42 29.9641 1239.91 29.8821 Q1240.4 29.7591 1240.77 29.7591 Q1241.87 29.7591 1242.53 30.374 Q1243.23 30.9478 1243.23 32.0136 Q1243.23 32.1775 1242.98 33.1203 Q1242.78 34.022 1242.45 35.4157 Q1242.12 36.7683 1241.96 37.3831 L1238.43 51.4835 Q1237.24 56.3202 1237.24 58.6156 Q1237.24 62.0997 1238.8 64.0262 Q1240.4 65.9117 1243.47 65.9117 Q1245.4 65.9117 1247.2 65.1329 Q1249.01 64.3131 1250.24 63.2064 Q1251.47 62.0997 1252.45 60.911 Q1253.43 59.6813 1253.88 58.9025 Q1254.34 58.0827 1254.38 57.8778 L1256.55 49.311 L1260.52 33.6121 Q1260.77 32.6284 1261.22 31.9726 Q1261.71 31.2757 1262.29 31.0298 Q1262.86 30.7839 1263.19 30.7429 Q1263.52 30.6609 1263.8 30.6609 Q1264.83 30.6609 1265.53 31.2757 Q1266.22 31.8906 1266.22 32.9563 Q1266.22 33.1613 1265.98 34.145 Q1265.77 35.0877 1265.44 36.4814 Q1265.12 37.834 1264.95 38.5718 Q1263.64 43.7365 1263.52 44.2693 L1261.18 53.328 Q1261.06 53.8608 1260.65 55.5824 Q1260.28 57.3039 1260.07 58.2057 Q1259.87 59.0665 1259.66 60.2552 Q1259.5 61.4029 1259.5 62.0587 Q1259.5 65.9117 1262.04 65.9117 Q1263.03 65.9117 1263.89 65.3378 Q1264.75 64.723 1265.32 63.8622 Q1265.94 63.0014 1266.51 61.5258 Q1267.12 60.0092 1267.49 58.7795 Q1267.86 57.5089 1268.39 55.5414 Q1268.6 54.5986 1268.8 54.3117 Q1269.01 54.0248 1269.58 54.0248 Q1270.57 54.0248 1270.57 54.8446 Z" fill="#000000" fill-rule="evenodd" fill-opacity="1" /><circle clip-path="url(#clip022)" cx="1798.47" cy="974.337" r="14" fill="#009af9" fill-rule="evenodd" fill-opacity="0.25" stroke="#000000" stroke-opacity="0.25" stroke-width="3.2"/>
<circle clip-path="url(#clip022)" cx="1817.55" cy="1128.44" r="14" fill="#009af9" fill-rule="evenodd" fill-opacity="0.25" stroke="#000000" stroke-opacity="0.25" stroke-width="3.2"/>
<circle clip-path="url(#clip022)" cx="1838.63" cy="1063.64" r="14" fill="#009af9" fill-rule="evenodd" fill-opacity="0.25" stroke="#000000" stroke-opacity="0.25" stroke-width="3.2"/>
<circle clip-path="url(#clip022)" cx="726.151" cy="998.491" r="14" fill="#009af9" fill-rule="evenodd" fill-opacity="0.25" stroke="#000000" stroke-opacity="0.25" stroke-width="3.2"/>
<circle clip-path="url(#clip022)" cx="1018.85" cy="492.905" r="14" fill="#009af9" fill-rule="evenodd" fill-opacity="0.25" stroke="#000000" stroke-opacity="0.25" stroke-width="3.2"/>
<circle clip-path="url(#clip022)" cx="2007.04" cy="1174.68" r="14" fill="#009af9" fill-rule="evenodd" fill-opacity="0.25" stroke="#000000" stroke-opacity="0.25" stroke-width="3.2"/>
<circle clip-path="url(#clip022)" cx="1028.28" cy="451.01" r="14" fill="#009af9" fill-rule="evenodd" fill-opacity="0.25" stroke="#000000" stroke-opacity="0.25" stroke-width="3.2"/>
<circle clip-path="url(#clip022)" cx="1677.61" cy="1240.27" r="14" fill="#009af9" fill-rule="evenodd" fill-opacity="0.25" stroke="#000000" stroke-opacity="0.25" stroke-width="3.2"/>
<circle clip-path="url(#clip022)" cx="1315.75" cy="389.179" r="14" fill="#009af9" fill-rule="evenodd" fill-opacity="0.25" stroke="#000000" stroke-opacity="0.25" stroke-width="3.2"/>
<circle clip-path="url(#clip022)" cx="1248.78" cy="440.067" r="14" fill="#009af9" fill-rule="evenodd" fill-opacity="0.25" stroke="#000000" stroke-opacity="0.25" stroke-width="3.2"/>
<circle clip-path="url(#clip022)" cx="369.384" cy="1180.37" r="14" fill="#009af9" fill-rule="evenodd" fill-opacity="0.25" stroke="#000000" stroke-opacity="0.25" stroke-width="3.2"/>
<circle clip-path="url(#clip022)" cx="1562.17" cy="1106.82" r="14" fill="#009af9" fill-rule="evenodd" fill-opacity="0.25" stroke="#000000" stroke-opacity="0.25" stroke-width="3.2"/>
<circle clip-path="url(#clip022)" cx="2015.18" cy="1217.85" r="14" fill="#009af9" fill-rule="evenodd" fill-opacity="0.25" stroke="#000000" stroke-opacity="0.25" stroke-width="3.2"/>
<circle clip-path="url(#clip022)" cx="316.474" cy="1121.55" r="14" fill="#009af9" fill-rule="evenodd" fill-opacity="0.25" stroke="#000000" stroke-opacity="0.25" stroke-width="3.2"/>
<circle clip-path="url(#clip022)" cx="237.104" cy="1152.98" r="14" fill="#009af9" fill-rule="evenodd" fill-opacity="0.25" stroke="#000000" stroke-opacity="0.25" stroke-width="3.2"/>
<circle clip-path="url(#clip022)" cx="1650.47" cy="1085.97" r="14" fill="#009af9" fill-rule="evenodd" fill-opacity="0.25" stroke="#000000" stroke-opacity="0.25" stroke-width="3.2"/>
<circle clip-path="url(#clip022)" cx="1586.99" cy="1123.75" r="14" fill="#009af9" fill-rule="evenodd" fill-opacity="0.25" stroke="#000000" stroke-opacity="0.25" stroke-width="3.2"/>
<circle clip-path="url(#clip022)" cx="949.851" cy="217.128" r="14" fill="#009af9" fill-rule="evenodd" fill-opacity="0.25" stroke="#000000" stroke-opacity="0.25" stroke-width="3.2"/>
<circle clip-path="url(#clip022)" cx="1033.55" cy="381.964" r="14" fill="#009af9" fill-rule="evenodd" fill-opacity="0.25" stroke="#000000" stroke-opacity="0.25" stroke-width="3.2"/>
<circle clip-path="url(#clip022)" cx="329.623" cy="1164.64" r="14" fill="#009af9" fill-rule="evenodd" fill-opacity="0.25" stroke="#000000" stroke-opacity="0.25" stroke-width="3.2"/>
<circle clip-path="url(#clip022)" cx="1286.29" cy="521.485" r="14" fill="#009af9" fill-rule="evenodd" fill-opacity="0.25" stroke="#000000" stroke-opacity="0.25" stroke-width="3.2"/>
<circle clip-path="url(#clip022)" cx="861.299" cy="467.545" r="14" fill="#009af9" fill-rule="evenodd" fill-opacity="0.25" stroke="#000000" stroke-opacity="0.25" stroke-width="3.2"/>
<circle clip-path="url(#clip022)" cx="633.12" cy="1280.51" r="14" fill="#009af9" fill-rule="evenodd" fill-opacity="0.25" stroke="#000000" stroke-opacity="0.25" stroke-width="3.2"/>
<circle clip-path="url(#clip022)" cx="327.017" cy="943.321" r="14" fill="#009af9" fill-rule="evenodd" fill-opacity="0.25" stroke="#000000" stroke-opacity="0.25" stroke-width="3.2"/>
<circle clip-path="url(#clip022)" cx="1369.03" cy="516.367" r="14" fill="#009af9" fill-rule="evenodd" fill-opacity="0.25" stroke="#000000" stroke-opacity="0.25" stroke-width="3.2"/>
<circle clip-path="url(#clip022)" cx="297.692" cy="1231.08" r="14" fill="#009af9" fill-rule="evenodd" fill-opacity="0.25" stroke="#000000" stroke-opacity="0.25" stroke-width="3.2"/>
<circle clip-path="url(#clip022)" cx="1497.5" cy="1246.88" r="14" fill="#009af9" fill-rule="evenodd" fill-opacity="0.25" stroke="#000000" stroke-opacity="0.25" stroke-width="3.2"/>
<circle clip-path="url(#clip022)" cx="1143.72" cy="410.183" r="14" fill="#009af9" fill-rule="evenodd" fill-opacity="0.25" stroke="#000000" stroke-opacity="0.25" stroke-width="3.2"/>
<circle clip-path="url(#clip022)" cx="1414.12" cy="504.606" r="14" fill="#009af9" fill-rule="evenodd" fill-opacity="0.25" stroke="#000000" stroke-opacity="0.25" stroke-width="3.2"/>
<circle clip-path="url(#clip022)" cx="1024.76" cy="298.019" r="14" fill="#009af9" fill-rule="evenodd" fill-opacity="0.25" stroke="#000000" stroke-opacity="0.25" stroke-width="3.2"/>
<circle clip-path="url(#clip022)" cx="467.199" cy="1075.38" r="14" fill="#009af9" fill-rule="evenodd" fill-opacity="0.25" stroke="#000000" stroke-opacity="0.25" stroke-width="3.2"/>
<circle clip-path="url(#clip022)" cx="337.454" cy="1332.3" r="14" fill="#009af9" fill-rule="evenodd" fill-opacity="0.25" stroke="#000000" stroke-opacity="0.25" stroke-width="3.2"/>
<circle clip-path="url(#clip022)" cx="526.558" cy="1354.25" r="14" fill="#009af9" fill-rule="evenodd" fill-opacity="0.25" stroke="#000000" stroke-opacity="0.25" stroke-width="3.2"/>
<circle clip-path="url(#clip022)" cx="1088.67" cy="553.59" r="14" fill="#009af9" fill-rule="evenodd" fill-opacity="0.25" stroke="#000000" stroke-opacity="0.25" stroke-width="3.2"/>
<circle clip-path="url(#clip022)" cx="1795.89" cy="1374.01" r="14" fill="#009af9" fill-rule="evenodd" fill-opacity="0.25" stroke="#000000" stroke-opacity="0.25" stroke-width="3.2"/>
<circle clip-path="url(#clip022)" cx="2290.34" cy="1211.08" r="14" fill="#009af9" fill-rule="evenodd" fill-opacity="0.25" stroke="#000000" stroke-opacity="0.25" stroke-width="3.2"/>
<circle clip-path="url(#clip022)" cx="576.688" cy="1098.56" r="14" fill="#009af9" fill-rule="evenodd" fill-opacity="0.25" stroke="#000000" stroke-opacity="0.25" stroke-width="3.2"/>
<circle clip-path="url(#clip022)" cx="567.527" cy="1305.8" r="14" fill="#009af9" fill-rule="evenodd" fill-opacity="0.25" stroke="#000000" stroke-opacity="0.25" stroke-width="3.2"/>
<circle clip-path="url(#clip022)" cx="1177.07" cy="462.771" r="14" fill="#009af9" fill-rule="evenodd" fill-opacity="0.25" stroke="#000000" stroke-opacity="0.25" stroke-width="3.2"/>
<circle clip-path="url(#clip022)" cx="424.731" cy="1327.57" r="14" fill="#009af9" fill-rule="evenodd" fill-opacity="0.25" stroke="#000000" stroke-opacity="0.25" stroke-width="3.2"/>
<circle clip-path="url(#clip022)" cx="1870.02" cy="1113.68" r="14" fill="#009af9" fill-rule="evenodd" fill-opacity="0.25" stroke="#000000" stroke-opacity="0.25" stroke-width="3.2"/>
<circle clip-path="url(#clip022)" cx="398.896" cy="1297.32" r="14" fill="#009af9" fill-rule="evenodd" fill-opacity="0.25" stroke="#000000" stroke-opacity="0.25" stroke-width="3.2"/>
<circle clip-path="url(#clip022)" cx="780.713" cy="213.025" r="14" fill="#009af9" fill-rule="evenodd" fill-opacity="0.25" stroke="#000000" stroke-opacity="0.25" stroke-width="3.2"/>
<circle clip-path="url(#clip022)" cx="522.279" cy="1140.01" r="14" fill="#009af9" fill-rule="evenodd" fill-opacity="0.25" stroke="#000000" stroke-opacity="0.25" stroke-width="3.2"/>
<circle clip-path="url(#clip022)" cx="794.13" cy="336.471" r="14" fill="#009af9" fill-rule="evenodd" fill-opacity="0.25" stroke="#000000" stroke-opacity="0.25" stroke-width="3.2"/>
<circle clip-path="url(#clip022)" cx="1849" cy="1136.73" r="14" fill="#009af9" fill-rule="evenodd" fill-opacity="0.25" stroke="#000000" stroke-opacity="0.25" stroke-width="3.2"/>
<circle clip-path="url(#clip022)" cx="1171.65" cy="248.592" r="14" fill="#009af9" fill-rule="evenodd" fill-opacity="0.25" stroke="#000000" stroke-opacity="0.25" stroke-width="3.2"/>
<circle clip-path="url(#clip022)" cx="1880.31" cy="1124.76" r="14" fill="#009af9" fill-rule="evenodd" fill-opacity="0.25" stroke="#000000" stroke-opacity="0.25" stroke-width="3.2"/>
<circle clip-path="url(#clip022)" cx="476.933" cy="985.81" r="14" fill="#009af9" fill-rule="evenodd" fill-opacity="0.25" stroke="#000000" stroke-opacity="0.25" stroke-width="3.2"/>
<circle clip-path="url(#clip022)" cx="1018.15" cy="386.253" r="14" fill="#009af9" fill-rule="evenodd" fill-opacity="0.25" stroke="#000000" stroke-opacity="0.25" stroke-width="3.2"/>
<circle clip-path="url(#clip022)" cx="1746.37" cy="1168.66" r="14" fill="#009af9" fill-rule="evenodd" fill-opacity="0.25" stroke="#000000" stroke-opacity="0.25" stroke-width="3.2"/>
<circle clip-path="url(#clip022)" cx="209.891" cy="1125.68" r="14" fill="#009af9" fill-rule="evenodd" fill-opacity="0.25" stroke="#000000" stroke-opacity="0.25" stroke-width="3.2"/>
<circle clip-path="url(#clip022)" cx="858.801" cy="470.381" r="14" fill="#009af9" fill-rule="evenodd" fill-opacity="0.25" stroke="#000000" stroke-opacity="0.25" stroke-width="3.2"/>
<circle clip-path="url(#clip022)" cx="1347.04" cy="576.53" r="14" fill="#009af9" fill-rule="evenodd" fill-opacity="0.25" stroke="#000000" stroke-opacity="0.25" stroke-width="3.2"/>
<circle clip-path="url(#clip022)" cx="1018.74" cy="707.008" r="14" fill="#009af9" fill-rule="evenodd" fill-opacity="0.25" stroke="#000000" stroke-opacity="0.25" stroke-width="3.2"/>
<circle clip-path="url(#clip022)" cx="1737.64" cy="1155.53" r="14" fill="#009af9" fill-rule="evenodd" fill-opacity="0.25" stroke="#000000" stroke-opacity="0.25" stroke-width="3.2"/>
<circle clip-path="url(#clip022)" cx="1625.24" cy="1131.6" r="14" fill="#009af9" fill-rule="evenodd" fill-opacity="0.25" stroke="#000000" stroke-opacity="0.25" stroke-width="3.2"/>
<circle clip-path="url(#clip022)" cx="1947.59" cy="1207.92" r="14" fill="#009af9" fill-rule="evenodd" fill-opacity="0.25" stroke="#000000" stroke-opacity="0.25" stroke-width="3.2"/>
<circle clip-path="url(#clip022)" cx="1769.41" cy="1326.45" r="14" fill="#009af9" fill-rule="evenodd" fill-opacity="0.25" stroke="#000000" stroke-opacity="0.25" stroke-width="3.2"/>
<circle clip-path="url(#clip022)" cx="1392.36" cy="412.178" r="14" fill="#009af9" fill-rule="evenodd" fill-opacity="0.25" stroke="#000000" stroke-opacity="0.25" stroke-width="3.2"/>
<circle clip-path="url(#clip022)" cx="1294.21" cy="650.281" r="14" fill="#009af9" fill-rule="evenodd" fill-opacity="0.25" stroke="#000000" stroke-opacity="0.25" stroke-width="3.2"/>
<circle clip-path="url(#clip022)" cx="1798.14" cy="1133.79" r="14" fill="#009af9" fill-rule="evenodd" fill-opacity="0.25" stroke="#000000" stroke-opacity="0.25" stroke-width="3.2"/>
<circle clip-path="url(#clip022)" cx="997.687" cy="573.526" r="14" fill="#009af9" fill-rule="evenodd" fill-opacity="0.25" stroke="#000000" stroke-opacity="0.25" stroke-width="3.2"/>
<circle clip-path="url(#clip022)" cx="354.801" cy="1191.51" r="14" fill="#009af9" fill-rule="evenodd" fill-opacity="0.25" stroke="#000000" stroke-opacity="0.25" stroke-width="3.2"/>
<circle clip-path="url(#clip022)" cx="627.682" cy="1140.69" r="14" fill="#009af9" fill-rule="evenodd" fill-opacity="0.25" stroke="#000000" stroke-opacity="0.25" stroke-width="3.2"/>
<circle clip-path="url(#clip022)" cx="412.941" cy="1181.17" r="14" fill="#009af9" fill-rule="evenodd" fill-opacity="0.25" stroke="#000000" stroke-opacity="0.25" stroke-width="3.2"/>
<circle clip-path="url(#clip022)" cx="1133.7" cy="441.89" r="14" fill="#009af9" fill-rule="evenodd" fill-opacity="0.25" stroke="#000000" stroke-opacity="0.25" stroke-width="3.2"/>
<circle clip-path="url(#clip022)" cx="2068.34" cy="1031.73" r="14" fill="#009af9" fill-rule="evenodd" fill-opacity="0.25" stroke="#000000" stroke-opacity="0.25" stroke-width="3.2"/>
<circle clip-path="url(#clip022)" cx="1846.47" cy="1080.96" r="14" fill="#009af9" fill-rule="evenodd" fill-opacity="0.25" stroke="#000000" stroke-opacity="0.25" stroke-width="3.2"/>
<circle clip-path="url(#clip022)" cx="884.138" cy="509.644" r="14" fill="#009af9" fill-rule="evenodd" fill-opacity="0.25" stroke="#000000" stroke-opacity="0.25" stroke-width="3.2"/>
<circle clip-path="url(#clip022)" cx="1254.68" cy="162.047" r="14" fill="#009af9" fill-rule="evenodd" fill-opacity="0.25" stroke="#000000" stroke-opacity="0.25" stroke-width="3.2"/>
<circle clip-path="url(#clip022)" cx="443.302" cy="1271.84" r="14" fill="#009af9" fill-rule="evenodd" fill-opacity="0.25" stroke="#000000" stroke-opacity="0.25" stroke-width="3.2"/>
<circle clip-path="url(#clip022)" cx="2230.21" cy="1107.29" r="14" fill="#009af9" fill-rule="evenodd" fill-opacity="0.25" stroke="#000000" stroke-opacity="0.25" stroke-width="3.2"/>
<circle clip-path="url(#clip022)" cx="370.9" cy="1124.84" r="14" fill="#009af9" fill-rule="evenodd" fill-opacity="0.25" stroke="#000000" stroke-opacity="0.25" stroke-width="3.2"/>
<circle clip-path="url(#clip022)" cx="1141.25" cy="576.016" r="14" fill="#009af9" fill-rule="evenodd" fill-opacity="0.25" stroke="#000000" stroke-opacity="0.25" stroke-width="3.2"/>
<circle clip-path="url(#clip022)" cx="1204.94" cy="365.752" r="14" fill="#009af9" fill-rule="evenodd" fill-opacity="0.25" stroke="#000000" stroke-opacity="0.25" stroke-width="3.2"/>
<circle clip-path="url(#clip022)" cx="697.168" cy="1258.31" r="14" fill="#009af9" fill-rule="evenodd" fill-opacity="0.25" stroke="#000000" stroke-opacity="0.25" stroke-width="3.2"/>
<circle clip-path="url(#clip022)" cx="1937.33" cy="1033.79" r="14" fill="#009af9" fill-rule="evenodd" fill-opacity="0.25" stroke="#000000" stroke-opacity="0.25" stroke-width="3.2"/>
<circle clip-path="url(#clip022)" cx="1082.81" cy="527.486" r="14" fill="#009af9" fill-rule="evenodd" fill-opacity="0.25" stroke="#000000" stroke-opacity="0.25" stroke-width="3.2"/>
<circle clip-path="url(#clip022)" cx="414.979" cy="1260.98" r="14" fill="#009af9" fill-rule="evenodd" fill-opacity="0.25" stroke="#000000" stroke-opacity="0.25" stroke-width="3.2"/>
<circle clip-path="url(#clip022)" cx="1827.38" cy="1315.03" r="14" fill="#009af9" fill-rule="evenodd" fill-opacity="0.25" stroke="#000000" stroke-opacity="0.25" stroke-width="3.2"/>
<circle clip-path="url(#clip022)" cx="833.818" cy="1136.34" r="14" fill="#009af9" fill-rule="evenodd" fill-opacity="0.25" stroke="#000000" stroke-opacity="0.25" stroke-width="3.2"/>
<circle clip-path="url(#clip022)" cx="1090.81" cy="499.445" r="14" fill="#009af9" fill-rule="evenodd" fill-opacity="0.25" stroke="#000000" stroke-opacity="0.25" stroke-width="3.2"/>
<circle clip-path="url(#clip022)" cx="2079.35" cy="1048.34" r="14" fill="#009af9" fill-rule="evenodd" fill-opacity="0.25" stroke="#000000" stroke-opacity="0.25" stroke-width="3.2"/>
<circle clip-path="url(#clip022)" cx="1985.54" cy="1026.09" r="14" fill="#009af9" fill-rule="evenodd" fill-opacity="0.25" stroke="#000000" stroke-opacity="0.25" stroke-width="3.2"/>
<circle clip-path="url(#clip022)" cx="1161.95" cy="488.886" r="14" fill="#009af9" fill-rule="evenodd" fill-opacity="0.25" stroke="#000000" stroke-opacity="0.25" stroke-width="3.2"/>
<circle clip-path="url(#clip022)" cx="477.854" cy="1196.14" r="14" fill="#009af9" fill-rule="evenodd" fill-opacity="0.25" stroke="#000000" stroke-opacity="0.25" stroke-width="3.2"/>
<circle clip-path="url(#clip022)" cx="634.479" cy="1447.87" r="14" fill="#009af9" fill-rule="evenodd" fill-opacity="0.25" stroke="#000000" stroke-opacity="0.25" stroke-width="3.2"/>
<circle clip-path="url(#clip022)" cx="1296.06" cy="1078.17" r="14" fill="#009af9" fill-rule="evenodd" fill-opacity="0.25" stroke="#000000" stroke-opacity="0.25" stroke-width="3.2"/>
<circle clip-path="url(#clip022)" cx="702.203" cy="1194.28" r="14" fill="#009af9" fill-rule="evenodd" fill-opacity="0.25" stroke="#000000" stroke-opacity="0.25" stroke-width="3.2"/>
<circle clip-path="url(#clip022)" cx="997.145" cy="518.148" r="14" fill="#009af9" fill-rule="evenodd" fill-opacity="0.25" stroke="#000000" stroke-opacity="0.25" stroke-width="3.2"/>
<circle clip-path="url(#clip022)" cx="2011.26" cy="1213.36" r="14" fill="#009af9" fill-rule="evenodd" fill-opacity="0.25" stroke="#000000" stroke-opacity="0.25" stroke-width="3.2"/>
<circle clip-path="url(#clip022)" cx="431.498" cy="1387.19" r="14" fill="#009af9" fill-rule="evenodd" fill-opacity="0.25" stroke="#000000" stroke-opacity="0.25" stroke-width="3.2"/>
<circle clip-path="url(#clip022)" cx="967.729" cy="552.669" r="14" fill="#009af9" fill-rule="evenodd" fill-opacity="0.25" stroke="#000000" stroke-opacity="0.25" stroke-width="3.2"/>
<circle clip-path="url(#clip022)" cx="251.243" cy="1260.84" r="14" fill="#009af9" fill-rule="evenodd" fill-opacity="0.25" stroke="#000000" stroke-opacity="0.25" stroke-width="3.2"/>
<circle clip-path="url(#clip022)" cx="1245.35" cy="557.297" r="14" fill="#009af9" fill-rule="evenodd" fill-opacity="0.25" stroke="#000000" stroke-opacity="0.25" stroke-width="3.2"/>
<circle clip-path="url(#clip022)" cx="1167.6" cy="581.07" r="14" fill="#009af9" fill-rule="evenodd" fill-opacity="0.25" stroke="#000000" stroke-opacity="0.25" stroke-width="3.2"/>
<circle clip-path="url(#clip022)" cx="968.911" cy="601.452" r="14" fill="#009af9" fill-rule="evenodd" fill-opacity="0.25" stroke="#000000" stroke-opacity="0.25" stroke-width="3.2"/>
<circle clip-path="url(#clip022)" cx="618.443" cy="1170.95" r="14" fill="#009af9" fill-rule="evenodd" fill-opacity="0.25" stroke="#000000" stroke-opacity="0.25" stroke-width="3.2"/>
<circle clip-path="url(#clip022)" cx="1748.45" cy="1226.03" r="14" fill="#009af9" fill-rule="evenodd" fill-opacity="0.25" stroke="#000000" stroke-opacity="0.25" stroke-width="3.2"/>
<path clip-path="url(#clip020)" d="
M1986.82 272.585 L2279.25 272.585 L2279.25 168.905 L1986.82 168.905  Z
  " fill="#ffffff" fill-rule="evenodd" fill-opacity="1"/>
<polyline clip-path="url(#clip020)" style="stroke:#000000; stroke-linecap:butt; stroke-linejoin:round; stroke-width:4; stroke-opacity:1; fill:none" points="
  1986.82,272.585 2279.25,272.585 2279.25,168.905 1986.82,168.905 1986.82,272.585 
  "/>
<circle clip-path="url(#clip020)" cx="2082.82" cy="220.745" r="23" fill="#009af9" fill-rule="evenodd" fill-opacity="0.25" stroke="#000000" stroke-opacity="0.25" stroke-width="5.12"/>
<path clip-path="url(#clip020)" d="M2192.66 240.432 Q2190.85 245.062 2189.14 246.474 Q2187.43 247.886 2184.56 247.886 L2181.15 247.886 L2181.15 244.321 L2183.65 244.321 Q2185.41 244.321 2186.39 243.488 Q2187.36 242.654 2188.54 239.552 L2189.3 237.608 L2178.82 212.099 L2183.33 212.099 L2191.43 232.377 L2199.53 212.099 L2204.05 212.099 L2192.66 240.432 Z" fill="#000000" fill-rule="evenodd" fill-opacity="1" /><path clip-path="url(#clip020)" d="M2211.34 234.089 L2218.98 234.089 L2218.98 207.724 L2210.67 209.391 L2210.67 205.131 L2218.93 203.465 L2223.61 203.465 L2223.61 234.089 L2231.25 234.089 L2231.25 238.025 L2211.34 238.025 L2211.34 234.089 Z" fill="#000000" fill-rule="evenodd" fill-opacity="1" /></svg>
