<?xml version="1.0" encoding="utf-8"?>
<svg xmlns="http://www.w3.org/2000/svg" xmlns:xlink="http://www.w3.org/1999/xlink" width="600" height="400" viewBox="0 0 2400 1600">
<defs>
  <clipPath id="clip110">
    <rect x="0" y="0" width="2400" height="1600"/>
  </clipPath>
</defs>
<path clip-path="url(#clip110)" d="
M0 1600 L2400 1600 L2400 0 L0 0  Z
  " fill="#ffffff" fill-rule="evenodd" fill-opacity="1"/>
<defs>
  <clipPath id="clip111">
    <rect x="480" y="0" width="1681" height="1600"/>
  </clipPath>
</defs>
<defs>
  <clipPath id="clip112">
    <rect x="186" y="123" width="2167" height="1364"/>
  </clipPath>
</defs>
<path clip-path="url(#clip110)" d="
M186.76 1486.45 L2352.76 1486.45 L2352.76 123.472 L186.76 123.472  Z
  " fill="#ffffff" fill-rule="evenodd" fill-opacity="1"/>
<polyline clip-path="url(#clip112)" style="stroke:#000000; stroke-linecap:butt; stroke-linejoin:round; stroke-width:2; stroke-opacity:0.1; fill:none" points="
  248.062,1486.45 248.062,123.472 
  "/>
<polyline clip-path="url(#clip112)" style="stroke:#000000; stroke-linecap:butt; stroke-linejoin:round; stroke-width:2; stroke-opacity:0.1; fill:none" points="
  758.91,1486.45 758.91,123.472 
  "/>
<polyline clip-path="url(#clip112)" style="stroke:#000000; stroke-linecap:butt; stroke-linejoin:round; stroke-width:2; stroke-opacity:0.1; fill:none" points="
  1269.76,1486.45 1269.76,123.472 
  "/>
<polyline clip-path="url(#clip112)" style="stroke:#000000; stroke-linecap:butt; stroke-linejoin:round; stroke-width:2; stroke-opacity:0.1; fill:none" points="
  1780.61,1486.45 1780.61,123.472 
  "/>
<polyline clip-path="url(#clip112)" style="stroke:#000000; stroke-linecap:butt; stroke-linejoin:round; stroke-width:2; stroke-opacity:0.1; fill:none" points="
  2291.45,1486.45 2291.45,123.472 
  "/>
<polyline clip-path="url(#clip110)" style="stroke:#000000; stroke-linecap:butt; stroke-linejoin:round; stroke-width:4; stroke-opacity:1; fill:none" points="
  186.76,1486.45 2352.76,1486.45 
  "/>
<polyline clip-path="url(#clip110)" style="stroke:#000000; stroke-linecap:butt; stroke-linejoin:round; stroke-width:4; stroke-opacity:1; fill:none" points="
  248.062,1486.45 248.062,1467.55 
  "/>
<polyline clip-path="url(#clip110)" style="stroke:#000000; stroke-linecap:butt; stroke-linejoin:round; stroke-width:4; stroke-opacity:1; fill:none" points="
  758.91,1486.45 758.91,1467.55 
  "/>
<polyline clip-path="url(#clip110)" style="stroke:#000000; stroke-linecap:butt; stroke-linejoin:round; stroke-width:4; stroke-opacity:1; fill:none" points="
  1269.76,1486.45 1269.76,1467.55 
  "/>
<polyline clip-path="url(#clip110)" style="stroke:#000000; stroke-linecap:butt; stroke-linejoin:round; stroke-width:4; stroke-opacity:1; fill:none" points="
  1780.61,1486.45 1780.61,1467.55 
  "/>
<polyline clip-path="url(#clip110)" style="stroke:#000000; stroke-linecap:butt; stroke-linejoin:round; stroke-width:4; stroke-opacity:1; fill:none" points="
  2291.45,1486.45 2291.45,1467.55 
  "/>
<path clip-path="url(#clip110)" d="M194.59 1532.02 L224.266 1532.02 L224.266 1535.95 L194.59 1535.95 L194.59 1532.02 Z" fill="#000000" fill-rule="evenodd" fill-opacity="1" /><path clip-path="url(#clip110)" d="M235.168 1544.91 L242.807 1544.91 L242.807 1518.55 L234.497 1520.21 L234.497 1515.95 L242.761 1514.29 L247.437 1514.29 L247.437 1544.91 L255.076 1544.91 L255.076 1548.85 L235.168 1548.85 L235.168 1544.91 Z" fill="#000000" fill-rule="evenodd" fill-opacity="1" /><path clip-path="url(#clip110)" d="M264.52 1542.97 L269.404 1542.97 L269.404 1548.85 L264.52 1548.85 L264.52 1542.97 Z" fill="#000000" fill-rule="evenodd" fill-opacity="1" /><path clip-path="url(#clip110)" d="M289.589 1517.37 Q285.978 1517.37 284.15 1520.93 Q282.344 1524.47 282.344 1531.6 Q282.344 1538.71 284.15 1542.27 Q285.978 1545.82 289.589 1545.82 Q293.224 1545.82 295.029 1542.27 Q296.858 1538.71 296.858 1531.6 Q296.858 1524.47 295.029 1520.93 Q293.224 1517.37 289.589 1517.37 M289.589 1513.66 Q295.4 1513.66 298.455 1518.27 Q301.534 1522.85 301.534 1531.6 Q301.534 1540.33 298.455 1544.94 Q295.4 1549.52 289.589 1549.52 Q283.779 1549.52 280.701 1544.94 Q277.645 1540.33 277.645 1531.6 Q277.645 1522.85 280.701 1518.27 Q283.779 1513.66 289.589 1513.66 Z" fill="#000000" fill-rule="evenodd" fill-opacity="1" /><path clip-path="url(#clip110)" d="M705.936 1532.02 L735.611 1532.02 L735.611 1535.95 L705.936 1535.95 L705.936 1532.02 Z" fill="#000000" fill-rule="evenodd" fill-opacity="1" /><path clip-path="url(#clip110)" d="M755.704 1517.37 Q752.093 1517.37 750.264 1520.93 Q748.459 1524.47 748.459 1531.6 Q748.459 1538.71 750.264 1542.27 Q752.093 1545.82 755.704 1545.82 Q759.338 1545.82 761.144 1542.27 Q762.972 1538.71 762.972 1531.6 Q762.972 1524.47 761.144 1520.93 Q759.338 1517.37 755.704 1517.37 M755.704 1513.66 Q761.514 1513.66 764.57 1518.27 Q767.648 1522.85 767.648 1531.6 Q767.648 1540.33 764.57 1544.94 Q761.514 1549.52 755.704 1549.52 Q749.894 1549.52 746.815 1544.94 Q743.76 1540.33 743.76 1531.6 Q743.76 1522.85 746.815 1518.27 Q749.894 1513.66 755.704 1513.66 Z" fill="#000000" fill-rule="evenodd" fill-opacity="1" /><path clip-path="url(#clip110)" d="M775.866 1542.97 L780.75 1542.97 L780.75 1548.85 L775.866 1548.85 L775.866 1542.97 Z" fill="#000000" fill-rule="evenodd" fill-opacity="1" /><path clip-path="url(#clip110)" d="M790.982 1514.29 L809.338 1514.29 L809.338 1518.22 L795.264 1518.22 L795.264 1526.7 Q796.282 1526.35 797.301 1526.19 Q798.319 1526 799.338 1526 Q805.125 1526 808.505 1529.17 Q811.884 1532.34 811.884 1537.76 Q811.884 1543.34 808.412 1546.44 Q804.94 1549.52 798.62 1549.52 Q796.444 1549.52 794.176 1549.15 Q791.931 1548.78 789.523 1548.04 L789.523 1543.34 Q791.607 1544.47 793.829 1545.03 Q796.051 1545.58 798.528 1545.58 Q802.532 1545.58 804.87 1543.48 Q807.208 1541.37 807.208 1537.76 Q807.208 1534.15 804.87 1532.04 Q802.532 1529.94 798.528 1529.94 Q796.653 1529.94 794.778 1530.35 Q792.926 1530.77 790.982 1531.65 L790.982 1514.29 Z" fill="#000000" fill-rule="evenodd" fill-opacity="1" /><path clip-path="url(#clip110)" d="M1247.14 1517.37 Q1243.53 1517.37 1241.7 1520.93 Q1239.9 1524.47 1239.9 1531.6 Q1239.9 1538.71 1241.7 1542.27 Q1243.53 1545.82 1247.14 1545.82 Q1250.78 1545.82 1252.58 1542.27 Q1254.41 1538.71 1254.41 1531.6 Q1254.41 1524.47 1252.58 1520.93 Q1250.78 1517.37 1247.14 1517.37 M1247.14 1513.66 Q1252.95 1513.66 1256.01 1518.27 Q1259.09 1522.85 1259.09 1531.6 Q1259.09 1540.33 1256.01 1544.94 Q1252.95 1549.52 1247.14 1549.52 Q1241.33 1549.52 1238.25 1544.94 Q1235.2 1540.33 1235.2 1531.6 Q1235.2 1522.85 1238.25 1518.27 Q1241.33 1513.66 1247.14 1513.66 Z" fill="#000000" fill-rule="evenodd" fill-opacity="1" /><path clip-path="url(#clip110)" d="M1267.3 1542.97 L1272.19 1542.97 L1272.19 1548.85 L1267.3 1548.85 L1267.3 1542.97 Z" fill="#000000" fill-rule="evenodd" fill-opacity="1" /><path clip-path="url(#clip110)" d="M1292.37 1517.37 Q1288.76 1517.37 1286.93 1520.93 Q1285.13 1524.47 1285.13 1531.6 Q1285.13 1538.71 1286.93 1542.27 Q1288.76 1545.82 1292.37 1545.82 Q1296.01 1545.82 1297.81 1542.27 Q1299.64 1538.71 1299.64 1531.6 Q1299.64 1524.47 1297.81 1520.93 Q1296.01 1517.37 1292.37 1517.37 M1292.37 1513.66 Q1298.18 1513.66 1301.24 1518.27 Q1304.32 1522.85 1304.32 1531.6 Q1304.32 1540.33 1301.24 1544.94 Q1298.18 1549.52 1292.37 1549.52 Q1286.56 1549.52 1283.48 1544.94 Q1280.43 1540.33 1280.43 1531.6 Q1280.43 1522.85 1283.48 1518.27 Q1286.56 1513.66 1292.37 1513.66 Z" fill="#000000" fill-rule="evenodd" fill-opacity="1" /><path clip-path="url(#clip110)" d="M1758.49 1517.37 Q1754.88 1517.37 1753.05 1520.93 Q1751.24 1524.47 1751.24 1531.6 Q1751.24 1538.71 1753.05 1542.27 Q1754.88 1545.82 1758.49 1545.82 Q1762.12 1545.82 1763.93 1542.27 Q1765.76 1538.71 1765.76 1531.6 Q1765.76 1524.47 1763.93 1520.93 Q1762.12 1517.37 1758.49 1517.37 M1758.49 1513.66 Q1764.3 1513.66 1767.35 1518.27 Q1770.43 1522.85 1770.43 1531.6 Q1770.43 1540.33 1767.35 1544.94 Q1764.3 1549.52 1758.49 1549.52 Q1752.68 1549.52 1749.6 1544.94 Q1746.54 1540.33 1746.54 1531.6 Q1746.54 1522.85 1749.6 1518.27 Q1752.68 1513.66 1758.49 1513.66 Z" fill="#000000" fill-rule="evenodd" fill-opacity="1" /><path clip-path="url(#clip110)" d="M1778.65 1542.97 L1783.53 1542.97 L1783.53 1548.85 L1778.65 1548.85 L1778.65 1542.97 Z" fill="#000000" fill-rule="evenodd" fill-opacity="1" /><path clip-path="url(#clip110)" d="M1793.77 1514.29 L1812.12 1514.29 L1812.12 1518.22 L1798.05 1518.22 L1798.05 1526.7 Q1799.07 1526.35 1800.09 1526.19 Q1801.1 1526 1802.12 1526 Q1807.91 1526 1811.29 1529.17 Q1814.67 1532.34 1814.67 1537.76 Q1814.67 1543.34 1811.2 1546.44 Q1807.72 1549.52 1801.4 1549.52 Q1799.23 1549.52 1796.96 1549.15 Q1794.71 1548.78 1792.31 1548.04 L1792.31 1543.34 Q1794.39 1544.47 1796.61 1545.03 Q1798.84 1545.58 1801.31 1545.58 Q1805.32 1545.58 1807.65 1543.48 Q1809.99 1541.37 1809.99 1537.76 Q1809.99 1534.15 1807.65 1532.04 Q1805.32 1529.94 1801.31 1529.94 Q1799.44 1529.94 1797.56 1530.35 Q1795.71 1530.77 1793.77 1531.65 L1793.77 1514.29 Z" fill="#000000" fill-rule="evenodd" fill-opacity="1" /><path clip-path="url(#clip110)" d="M2258.61 1544.91 L2266.25 1544.91 L2266.25 1518.55 L2257.94 1520.21 L2257.94 1515.95 L2266.2 1514.29 L2270.88 1514.29 L2270.88 1544.91 L2278.51 1544.91 L2278.51 1548.85 L2258.61 1548.85 L2258.61 1544.91 Z" fill="#000000" fill-rule="evenodd" fill-opacity="1" /><path clip-path="url(#clip110)" d="M2287.96 1542.97 L2292.84 1542.97 L2292.84 1548.85 L2287.96 1548.85 L2287.96 1542.97 Z" fill="#000000" fill-rule="evenodd" fill-opacity="1" /><path clip-path="url(#clip110)" d="M2313.03 1517.37 Q2309.42 1517.37 2307.59 1520.93 Q2305.78 1524.47 2305.78 1531.6 Q2305.78 1538.71 2307.59 1542.27 Q2309.42 1545.82 2313.03 1545.82 Q2316.66 1545.82 2318.47 1542.27 Q2320.3 1538.71 2320.3 1531.6 Q2320.3 1524.47 2318.47 1520.93 Q2316.66 1517.37 2313.03 1517.37 M2313.03 1513.66 Q2318.84 1513.66 2321.89 1518.27 Q2324.97 1522.85 2324.97 1531.6 Q2324.97 1540.33 2321.89 1544.94 Q2318.84 1549.52 2313.03 1549.52 Q2307.22 1549.52 2304.14 1544.94 Q2301.08 1540.33 2301.08 1531.6 Q2301.08 1522.85 2304.14 1518.27 Q2307.22 1513.66 2313.03 1513.66 Z" fill="#000000" fill-rule="evenodd" fill-opacity="1" /><polyline clip-path="url(#clip112)" style="stroke:#000000; stroke-linecap:butt; stroke-linejoin:round; stroke-width:2; stroke-opacity:0.1; fill:none" points="
  186.76,1447.87 2352.76,1447.87 
  "/>
<polyline clip-path="url(#clip112)" style="stroke:#000000; stroke-linecap:butt; stroke-linejoin:round; stroke-width:2; stroke-opacity:0.1; fill:none" points="
  186.76,1242.14 2352.76,1242.14 
  "/>
<polyline clip-path="url(#clip112)" style="stroke:#000000; stroke-linecap:butt; stroke-linejoin:round; stroke-width:2; stroke-opacity:0.1; fill:none" points="
  186.76,1036.41 2352.76,1036.41 
  "/>
<polyline clip-path="url(#clip112)" style="stroke:#000000; stroke-linecap:butt; stroke-linejoin:round; stroke-width:2; stroke-opacity:0.1; fill:none" points="
  186.76,830.677 2352.76,830.677 
  "/>
<polyline clip-path="url(#clip112)" style="stroke:#000000; stroke-linecap:butt; stroke-linejoin:round; stroke-width:2; stroke-opacity:0.1; fill:none" points="
  186.76,624.944 2352.76,624.944 
  "/>
<polyline clip-path="url(#clip112)" style="stroke:#000000; stroke-linecap:butt; stroke-linejoin:round; stroke-width:2; stroke-opacity:0.1; fill:none" points="
  186.76,419.212 2352.76,419.212 
  "/>
<polyline clip-path="url(#clip112)" style="stroke:#000000; stroke-linecap:butt; stroke-linejoin:round; stroke-width:2; stroke-opacity:0.1; fill:none" points="
  186.76,213.48 2352.76,213.48 
  "/>
<polyline clip-path="url(#clip110)" style="stroke:#000000; stroke-linecap:butt; stroke-linejoin:round; stroke-width:4; stroke-opacity:1; fill:none" points="
  186.76,1486.45 186.76,123.472 
  "/>
<polyline clip-path="url(#clip110)" style="stroke:#000000; stroke-linecap:butt; stroke-linejoin:round; stroke-width:4; stroke-opacity:1; fill:none" points="
  186.76,1447.87 205.658,1447.87 
  "/>
<polyline clip-path="url(#clip110)" style="stroke:#000000; stroke-linecap:butt; stroke-linejoin:round; stroke-width:4; stroke-opacity:1; fill:none" points="
  186.76,1242.14 205.658,1242.14 
  "/>
<polyline clip-path="url(#clip110)" style="stroke:#000000; stroke-linecap:butt; stroke-linejoin:round; stroke-width:4; stroke-opacity:1; fill:none" points="
  186.76,1036.41 205.658,1036.41 
  "/>
<polyline clip-path="url(#clip110)" style="stroke:#000000; stroke-linecap:butt; stroke-linejoin:round; stroke-width:4; stroke-opacity:1; fill:none" points="
  186.76,830.677 205.658,830.677 
  "/>
<polyline clip-path="url(#clip110)" style="stroke:#000000; stroke-linecap:butt; stroke-linejoin:round; stroke-width:4; stroke-opacity:1; fill:none" points="
  186.76,624.944 205.658,624.944 
  "/>
<polyline clip-path="url(#clip110)" style="stroke:#000000; stroke-linecap:butt; stroke-linejoin:round; stroke-width:4; stroke-opacity:1; fill:none" points="
  186.76,419.212 205.658,419.212 
  "/>
<polyline clip-path="url(#clip110)" style="stroke:#000000; stroke-linecap:butt; stroke-linejoin:round; stroke-width:4; stroke-opacity:1; fill:none" points="
  186.76,213.48 205.658,213.48 
  "/>
<path clip-path="url(#clip110)" d="M63.4226 1433.67 Q59.8115 1433.67 57.9828 1437.24 Q56.1773 1440.78 56.1773 1447.91 Q56.1773 1455.01 57.9828 1458.58 Q59.8115 1462.12 63.4226 1462.12 Q67.0569 1462.12 68.8624 1458.58 Q70.6911 1455.01 70.6911 1447.91 Q70.6911 1440.78 68.8624 1437.24 Q67.0569 1433.67 63.4226 1433.67 M63.4226 1429.97 Q69.2328 1429.97 72.2883 1434.57 Q75.367 1439.16 75.367 1447.91 Q75.367 1456.63 72.2883 1461.24 Q69.2328 1465.82 63.4226 1465.82 Q57.6125 1465.82 54.5338 1461.24 Q51.4782 1456.63 51.4782 1447.91 Q51.4782 1439.16 54.5338 1434.57 Q57.6125 1429.97 63.4226 1429.97 Z" fill="#000000" fill-rule="evenodd" fill-opacity="1" /><path clip-path="url(#clip110)" d="M83.5845 1459.27 L88.4688 1459.27 L88.4688 1465.15 L83.5845 1465.15 L83.5845 1459.27 Z" fill="#000000" fill-rule="evenodd" fill-opacity="1" /><path clip-path="url(#clip110)" d="M108.654 1433.67 Q105.043 1433.67 103.214 1437.24 Q101.409 1440.78 101.409 1447.91 Q101.409 1455.01 103.214 1458.58 Q105.043 1462.12 108.654 1462.12 Q112.288 1462.12 114.094 1458.58 Q115.922 1455.01 115.922 1447.91 Q115.922 1440.78 114.094 1437.24 Q112.288 1433.67 108.654 1433.67 M108.654 1429.97 Q114.464 1429.97 117.52 1434.57 Q120.598 1439.16 120.598 1447.91 Q120.598 1456.63 117.52 1461.24 Q114.464 1465.82 108.654 1465.82 Q102.844 1465.82 99.765 1461.24 Q96.7095 1456.63 96.7095 1447.91 Q96.7095 1439.16 99.765 1434.57 Q102.844 1429.97 108.654 1429.97 Z" fill="#000000" fill-rule="evenodd" fill-opacity="1" /><path clip-path="url(#clip110)" d="M138.816 1433.67 Q135.205 1433.67 133.376 1437.24 Q131.57 1440.78 131.57 1447.91 Q131.57 1455.01 133.376 1458.58 Q135.205 1462.12 138.816 1462.12 Q142.45 1462.12 144.256 1458.58 Q146.084 1455.01 146.084 1447.91 Q146.084 1440.78 144.256 1437.24 Q142.45 1433.67 138.816 1433.67 M138.816 1429.97 Q144.626 1429.97 147.681 1434.57 Q150.76 1439.16 150.76 1447.91 Q150.76 1456.63 147.681 1461.24 Q144.626 1465.82 138.816 1465.82 Q133.006 1465.82 129.927 1461.24 Q126.871 1456.63 126.871 1447.91 Q126.871 1439.16 129.927 1434.57 Q133.006 1429.97 138.816 1429.97 Z" fill="#000000" fill-rule="evenodd" fill-opacity="1" /><path clip-path="url(#clip110)" d="M64.6495 1227.94 Q61.0384 1227.94 59.2097 1231.5 Q57.4041 1235.05 57.4041 1242.18 Q57.4041 1249.28 59.2097 1252.85 Q61.0384 1256.39 64.6495 1256.39 Q68.2837 1256.39 70.0892 1252.85 Q71.9179 1249.28 71.9179 1242.18 Q71.9179 1235.05 70.0892 1231.5 Q68.2837 1227.94 64.6495 1227.94 M64.6495 1224.24 Q70.4596 1224.24 73.5152 1228.84 Q76.5938 1233.43 76.5938 1242.18 Q76.5938 1250.9 73.5152 1255.51 Q70.4596 1260.09 64.6495 1260.09 Q58.8393 1260.09 55.7606 1255.51 Q52.7051 1250.9 52.7051 1242.18 Q52.7051 1233.43 55.7606 1228.84 Q58.8393 1224.24 64.6495 1224.24 Z" fill="#000000" fill-rule="evenodd" fill-opacity="1" /><path clip-path="url(#clip110)" d="M84.8114 1253.54 L89.6956 1253.54 L89.6956 1259.42 L84.8114 1259.42 L84.8114 1253.54 Z" fill="#000000" fill-rule="evenodd" fill-opacity="1" /><path clip-path="url(#clip110)" d="M109.881 1227.94 Q106.27 1227.94 104.441 1231.5 Q102.635 1235.05 102.635 1242.18 Q102.635 1249.28 104.441 1252.85 Q106.27 1256.39 109.881 1256.39 Q113.515 1256.39 115.32 1252.85 Q117.149 1249.28 117.149 1242.18 Q117.149 1235.05 115.32 1231.5 Q113.515 1227.94 109.881 1227.94 M109.881 1224.24 Q115.691 1224.24 118.746 1228.84 Q121.825 1233.43 121.825 1242.18 Q121.825 1250.9 118.746 1255.51 Q115.691 1260.09 109.881 1260.09 Q104.071 1260.09 100.992 1255.51 Q97.9363 1250.9 97.9363 1242.18 Q97.9363 1233.43 100.992 1228.84 Q104.071 1224.24 109.881 1224.24 Z" fill="#000000" fill-rule="evenodd" fill-opacity="1" /><path clip-path="url(#clip110)" d="M130.853 1255.49 L138.492 1255.49 L138.492 1229.12 L130.182 1230.79 L130.182 1226.53 L138.445 1224.86 L143.121 1224.86 L143.121 1255.49 L150.76 1255.49 L150.76 1259.42 L130.853 1259.42 L130.853 1255.49 Z" fill="#000000" fill-rule="evenodd" fill-opacity="1" /><path clip-path="url(#clip110)" d="M65.0198 1022.21 Q61.4087 1022.21 59.58 1025.77 Q57.7745 1029.31 57.7745 1036.44 Q57.7745 1043.55 59.58 1047.11 Q61.4087 1050.66 65.0198 1050.66 Q68.6541 1050.66 70.4596 1047.11 Q72.2883 1043.55 72.2883 1036.44 Q72.2883 1029.31 70.4596 1025.77 Q68.6541 1022.21 65.0198 1022.21 M65.0198 1018.5 Q70.83 1018.5 73.8855 1023.11 Q76.9642 1027.69 76.9642 1036.44 Q76.9642 1045.17 73.8855 1049.78 Q70.83 1054.36 65.0198 1054.36 Q59.2097 1054.36 56.131 1049.78 Q53.0754 1045.17 53.0754 1036.44 Q53.0754 1027.69 56.131 1023.11 Q59.2097 1018.5 65.0198 1018.5 Z" fill="#000000" fill-rule="evenodd" fill-opacity="1" /><path clip-path="url(#clip110)" d="M85.1818 1047.81 L90.066 1047.81 L90.066 1053.69 L85.1818 1053.69 L85.1818 1047.81 Z" fill="#000000" fill-rule="evenodd" fill-opacity="1" /><path clip-path="url(#clip110)" d="M110.251 1022.21 Q106.64 1022.21 104.811 1025.77 Q103.006 1029.31 103.006 1036.44 Q103.006 1043.55 104.811 1047.11 Q106.64 1050.66 110.251 1050.66 Q113.885 1050.66 115.691 1047.11 Q117.52 1043.55 117.52 1036.44 Q117.52 1029.31 115.691 1025.77 Q113.885 1022.21 110.251 1022.21 M110.251 1018.5 Q116.061 1018.5 119.117 1023.11 Q122.195 1027.69 122.195 1036.44 Q122.195 1045.17 119.117 1049.78 Q116.061 1054.36 110.251 1054.36 Q104.441 1054.36 101.362 1049.78 Q98.3067 1045.17 98.3067 1036.44 Q98.3067 1027.69 101.362 1023.11 Q104.441 1018.5 110.251 1018.5 Z" fill="#000000" fill-rule="evenodd" fill-opacity="1" /><path clip-path="url(#clip110)" d="M134.441 1049.75 L150.76 1049.75 L150.76 1053.69 L128.816 1053.69 L128.816 1049.75 Q131.478 1047 136.061 1042.37 Q140.668 1037.72 141.848 1036.37 Q144.093 1033.85 144.973 1032.11 Q145.876 1030.36 145.876 1028.67 Q145.876 1025.91 143.931 1024.17 Q142.01 1022.44 138.908 1022.44 Q136.709 1022.44 134.256 1023.2 Q131.825 1023.97 129.047 1025.52 L129.047 1020.8 Q131.871 1019.66 134.325 1019.08 Q136.779 1018.5 138.816 1018.5 Q144.186 1018.5 147.38 1021.19 Q150.575 1023.87 150.575 1028.36 Q150.575 1030.49 149.765 1032.42 Q148.978 1034.31 146.871 1036.91 Q146.293 1037.58 143.191 1040.8 Q140.089 1043.99 134.441 1049.75 Z" fill="#000000" fill-rule="evenodd" fill-opacity="1" /><path clip-path="url(#clip110)" d="M64.0708 816.475 Q60.4597 816.475 58.631 820.04 Q56.8254 823.582 56.8254 830.711 Q56.8254 837.818 58.631 841.382 Q60.4597 844.924 64.0708 844.924 Q67.705 844.924 69.5105 841.382 Q71.3392 837.818 71.3392 830.711 Q71.3392 823.582 69.5105 820.04 Q67.705 816.475 64.0708 816.475 M64.0708 812.772 Q69.8809 812.772 72.9365 817.378 Q76.0151 821.961 76.0151 830.711 Q76.0151 839.438 72.9365 844.045 Q69.8809 848.628 64.0708 848.628 Q58.2606 848.628 55.1819 844.045 Q52.1264 839.438 52.1264 830.711 Q52.1264 821.961 55.1819 817.378 Q58.2606 812.772 64.0708 812.772 Z" fill="#000000" fill-rule="evenodd" fill-opacity="1" /><path clip-path="url(#clip110)" d="M84.2327 842.077 L89.1169 842.077 L89.1169 847.957 L84.2327 847.957 L84.2327 842.077 Z" fill="#000000" fill-rule="evenodd" fill-opacity="1" /><path clip-path="url(#clip110)" d="M109.302 816.475 Q105.691 816.475 103.862 820.04 Q102.057 823.582 102.057 830.711 Q102.057 837.818 103.862 841.382 Q105.691 844.924 109.302 844.924 Q112.936 844.924 114.742 841.382 Q116.57 837.818 116.57 830.711 Q116.57 823.582 114.742 820.04 Q112.936 816.475 109.302 816.475 M109.302 812.772 Q115.112 812.772 118.168 817.378 Q121.246 821.961 121.246 830.711 Q121.246 839.438 118.168 844.045 Q115.112 848.628 109.302 848.628 Q103.492 848.628 100.413 844.045 Q97.3576 839.438 97.3576 830.711 Q97.3576 821.961 100.413 817.378 Q103.492 812.772 109.302 812.772 Z" fill="#000000" fill-rule="evenodd" fill-opacity="1" /><path clip-path="url(#clip110)" d="M143.631 829.322 Q146.987 830.04 148.862 832.308 Q150.76 834.577 150.76 837.91 Q150.76 843.026 147.242 845.827 Q143.723 848.628 137.242 848.628 Q135.066 848.628 132.751 848.188 Q130.459 847.771 128.006 846.915 L128.006 842.401 Q129.95 843.535 132.265 844.114 Q134.58 844.693 137.103 844.693 Q141.501 844.693 143.793 842.957 Q146.107 841.22 146.107 837.91 Q146.107 834.855 143.955 833.142 Q141.825 831.406 138.006 831.406 L133.978 831.406 L133.978 827.563 L138.191 827.563 Q141.64 827.563 143.468 826.197 Q145.297 824.808 145.297 822.216 Q145.297 819.554 143.399 818.142 Q141.524 816.707 138.006 816.707 Q136.084 816.707 133.885 817.123 Q131.686 817.54 129.047 818.42 L129.047 814.253 Q131.709 813.512 134.024 813.142 Q136.362 812.772 138.422 812.772 Q143.746 812.772 146.848 815.202 Q149.95 817.609 149.95 821.73 Q149.95 824.6 148.306 826.591 Q146.663 828.558 143.631 829.322 Z" fill="#000000" fill-rule="evenodd" fill-opacity="1" /><path clip-path="url(#clip110)" d="M62.9365 610.743 Q59.3254 610.743 57.4967 614.308 Q55.6912 617.849 55.6912 624.979 Q55.6912 632.086 57.4967 635.65 Q59.3254 639.192 62.9365 639.192 Q66.5707 639.192 68.3763 635.65 Q70.205 632.086 70.205 624.979 Q70.205 617.849 68.3763 614.308 Q66.5707 610.743 62.9365 610.743 M62.9365 607.039 Q68.7467 607.039 71.8022 611.646 Q74.8809 616.229 74.8809 624.979 Q74.8809 633.706 71.8022 638.312 Q68.7467 642.896 62.9365 642.896 Q57.1264 642.896 54.0477 638.312 Q50.9921 633.706 50.9921 624.979 Q50.9921 616.229 54.0477 611.646 Q57.1264 607.039 62.9365 607.039 Z" fill="#000000" fill-rule="evenodd" fill-opacity="1" /><path clip-path="url(#clip110)" d="M83.0984 636.345 L87.9827 636.345 L87.9827 642.224 L83.0984 642.224 L83.0984 636.345 Z" fill="#000000" fill-rule="evenodd" fill-opacity="1" /><path clip-path="url(#clip110)" d="M108.168 610.743 Q104.557 610.743 102.728 614.308 Q100.922 617.849 100.922 624.979 Q100.922 632.086 102.728 635.65 Q104.557 639.192 108.168 639.192 Q111.802 639.192 113.608 635.65 Q115.436 632.086 115.436 624.979 Q115.436 617.849 113.608 614.308 Q111.802 610.743 108.168 610.743 M108.168 607.039 Q113.978 607.039 117.033 611.646 Q120.112 616.229 120.112 624.979 Q120.112 633.706 117.033 638.312 Q113.978 642.896 108.168 642.896 Q102.358 642.896 99.2789 638.312 Q96.2234 633.706 96.2234 624.979 Q96.2234 616.229 99.2789 611.646 Q102.358 607.039 108.168 607.039 Z" fill="#000000" fill-rule="evenodd" fill-opacity="1" /><path clip-path="url(#clip110)" d="M141.177 611.738 L129.371 630.187 L141.177 630.187 L141.177 611.738 M139.95 607.664 L145.83 607.664 L145.83 630.187 L150.76 630.187 L150.76 634.076 L145.83 634.076 L145.83 642.224 L141.177 642.224 L141.177 634.076 L125.575 634.076 L125.575 629.562 L139.95 607.664 Z" fill="#000000" fill-rule="evenodd" fill-opacity="1" /><path clip-path="url(#clip110)" d="M64.418 405.011 Q60.8069 405.011 58.9782 408.576 Q57.1726 412.117 57.1726 419.247 Q57.1726 426.353 58.9782 429.918 Q60.8069 433.46 64.418 433.46 Q68.0522 433.46 69.8578 429.918 Q71.6865 426.353 71.6865 419.247 Q71.6865 412.117 69.8578 408.576 Q68.0522 405.011 64.418 405.011 M64.418 401.307 Q70.2281 401.307 73.2837 405.914 Q76.3624 410.497 76.3624 419.247 Q76.3624 427.974 73.2837 432.58 Q70.2281 437.163 64.418 437.163 Q58.6078 437.163 55.5291 432.58 Q52.4736 427.974 52.4736 419.247 Q52.4736 410.497 55.5291 405.914 Q58.6078 401.307 64.418 401.307 Z" fill="#000000" fill-rule="evenodd" fill-opacity="1" /><path clip-path="url(#clip110)" d="M84.5799 430.613 L89.4641 430.613 L89.4641 436.492 L84.5799 436.492 L84.5799 430.613 Z" fill="#000000" fill-rule="evenodd" fill-opacity="1" /><path clip-path="url(#clip110)" d="M109.649 405.011 Q106.038 405.011 104.209 408.576 Q102.404 412.117 102.404 419.247 Q102.404 426.353 104.209 429.918 Q106.038 433.46 109.649 433.46 Q113.283 433.46 115.089 429.918 Q116.918 426.353 116.918 419.247 Q116.918 412.117 115.089 408.576 Q113.283 405.011 109.649 405.011 M109.649 401.307 Q115.459 401.307 118.515 405.914 Q121.594 410.497 121.594 419.247 Q121.594 427.974 118.515 432.58 Q115.459 437.163 109.649 437.163 Q103.839 437.163 100.76 432.58 Q97.7048 427.974 97.7048 419.247 Q97.7048 410.497 100.76 405.914 Q103.839 401.307 109.649 401.307 Z" fill="#000000" fill-rule="evenodd" fill-opacity="1" /><path clip-path="url(#clip110)" d="M129.857 401.932 L148.214 401.932 L148.214 405.867 L134.14 405.867 L134.14 414.339 Q135.158 413.992 136.177 413.83 Q137.195 413.645 138.214 413.645 Q144.001 413.645 147.38 416.816 Q150.76 419.988 150.76 425.404 Q150.76 430.983 147.288 434.085 Q143.816 437.163 137.496 437.163 Q135.32 437.163 133.052 436.793 Q130.807 436.423 128.399 435.682 L128.399 430.983 Q130.482 432.117 132.705 432.673 Q134.927 433.228 137.404 433.228 Q141.408 433.228 143.746 431.122 Q146.084 429.015 146.084 425.404 Q146.084 421.793 143.746 419.687 Q141.408 417.58 137.404 417.58 Q135.529 417.58 133.654 417.997 Q131.802 418.414 129.857 419.293 L129.857 401.932 Z" fill="#000000" fill-rule="evenodd" fill-opacity="1" /><path clip-path="url(#clip110)" d="M63.2606 199.279 Q59.6495 199.279 57.8208 202.843 Q56.0152 206.385 56.0152 213.515 Q56.0152 220.621 57.8208 224.186 Q59.6495 227.728 63.2606 227.728 Q66.8948 227.728 68.7004 224.186 Q70.5291 220.621 70.5291 213.515 Q70.5291 206.385 68.7004 202.843 Q66.8948 199.279 63.2606 199.279 M63.2606 195.575 Q69.0707 195.575 72.1263 200.181 Q75.205 204.765 75.205 213.515 Q75.205 222.241 72.1263 226.848 Q69.0707 231.431 63.2606 231.431 Q57.4504 231.431 54.3717 226.848 Q51.3162 222.241 51.3162 213.515 Q51.3162 204.765 54.3717 200.181 Q57.4504 195.575 63.2606 195.575 Z" fill="#000000" fill-rule="evenodd" fill-opacity="1" /><path clip-path="url(#clip110)" d="M83.4225 224.88 L88.3067 224.88 L88.3067 230.76 L83.4225 230.76 L83.4225 224.88 Z" fill="#000000" fill-rule="evenodd" fill-opacity="1" /><path clip-path="url(#clip110)" d="M108.492 199.279 Q104.881 199.279 103.052 202.843 Q101.246 206.385 101.246 213.515 Q101.246 220.621 103.052 224.186 Q104.881 227.728 108.492 227.728 Q112.126 227.728 113.932 224.186 Q115.76 220.621 115.76 213.515 Q115.76 206.385 113.932 202.843 Q112.126 199.279 108.492 199.279 M108.492 195.575 Q114.302 195.575 117.358 200.181 Q120.436 204.765 120.436 213.515 Q120.436 222.241 117.358 226.848 Q114.302 231.431 108.492 231.431 Q102.682 231.431 99.603 226.848 Q96.5474 222.241 96.5474 213.515 Q96.5474 204.765 99.603 200.181 Q102.682 195.575 108.492 195.575 Z" fill="#000000" fill-rule="evenodd" fill-opacity="1" /><path clip-path="url(#clip110)" d="M139.232 211.617 Q136.084 211.617 134.232 213.769 Q132.404 215.922 132.404 219.672 Q132.404 223.399 134.232 225.575 Q136.084 227.728 139.232 227.728 Q142.381 227.728 144.209 225.575 Q146.061 223.399 146.061 219.672 Q146.061 215.922 144.209 213.769 Q142.381 211.617 139.232 211.617 M148.515 196.964 L148.515 201.223 Q146.756 200.39 144.95 199.95 Q143.168 199.51 141.408 199.51 Q136.779 199.51 134.325 202.635 Q131.894 205.76 131.547 212.08 Q132.913 210.066 134.973 209.001 Q137.033 207.913 139.51 207.913 Q144.718 207.913 147.728 211.084 Q150.76 214.232 150.76 219.672 Q150.76 224.996 147.612 228.214 Q144.464 231.431 139.232 231.431 Q133.237 231.431 130.066 226.848 Q126.894 222.241 126.894 213.515 Q126.894 205.32 130.783 200.459 Q134.672 195.575 141.223 195.575 Q142.982 195.575 144.765 195.922 Q146.57 196.269 148.515 196.964 Z" fill="#000000" fill-rule="evenodd" fill-opacity="1" /><path clip-path="url(#clip110)" d="M863.124 23.4424 L861.444 37.9526 Q861.321 39.2643 861.116 39.6742 Q860.911 40.0431 860.255 40.0431 Q859.271 40.0431 859.271 39.0593 Q859.271 38.6494 859.435 37.5427 Q859.681 35.2883 859.681 32.9929 Q859.681 30.4106 859.189 28.812 Q858.738 27.1724 857.427 25.9837 Q856.115 24.795 853.697 24.3032 Q851.278 23.7703 847.425 23.7703 L836.358 23.7703 Q833.653 23.7703 832.997 24.2622 Q832.382 24.7541 831.808 27.0495 L826.439 48.3639 L834.063 48.3639 Q839.391 48.3639 841.482 46.8063 Q843.572 45.2487 844.884 40.289 Q845.089 39.5102 845.171 39.2233 Q845.294 38.8954 845.499 38.7314 Q845.745 38.5265 846.155 38.5265 Q846.523 38.5265 846.769 38.7724 Q847.015 38.9773 847.097 39.2233 L847.179 39.4692 Q847.179 39.8791 846.933 40.8219 L842.302 59.0211 Q841.974 60.2508 841.769 60.5377 Q841.605 60.7836 841.031 60.7836 Q840.621 60.7836 840.334 60.4967 Q840.047 60.2098 840.047 59.7589 Q840.129 59.267 840.293 58.8571 Q840.867 56.3568 840.867 54.7582 Q840.867 53.7335 840.662 53.1186 Q840.457 52.5038 839.76 51.9709 Q839.063 51.4381 837.629 51.1921 Q836.194 50.9462 833.899 50.9462 L825.783 50.9462 L820.577 71.8507 L820.208 73.7772 Q820.208 74.638 820.659 74.9659 Q821.151 75.2938 822.914 75.4578 Q825.537 75.6627 827.259 75.6627 Q829.39 75.6627 829.636 75.7447 Q830.128 75.9907 830.128 76.6465 Q830.128 77.3843 829.8 77.7942 Q829.472 78.1631 829.185 78.2041 Q828.898 78.2451 828.365 78.2451 L815.864 77.9991 L804.796 78.2451 Q803.526 78.2451 803.526 77.2203 Q803.526 76.4415 803.854 76.1136 Q804.182 75.7447 804.55 75.7037 Q804.919 75.6627 805.862 75.6627 Q807.912 75.6627 809.141 75.5398 Q810.371 75.4168 811.15 75.2528 Q811.97 75.0479 812.379 74.474 Q812.83 73.9002 813.035 73.4083 Q813.24 72.8755 813.527 71.6868 L824.594 27.2954 Q825.004 25.7788 825.004 25.2869 Q825.004 24.7541 824.635 24.4261 Q824.307 24.0982 823.406 23.9753 Q822.504 23.8113 821.766 23.8113 Q821.069 23.7703 819.553 23.7703 Q818.569 23.7703 818.159 23.7293 Q817.79 23.6883 817.503 23.4834 Q817.216 23.2784 817.216 22.8276 Q817.216 21.6799 817.708 21.4339 Q818.241 21.147 819.717 21.147 L860.87 21.147 Q862.509 21.147 862.878 21.5159 Q863.288 21.8438 863.124 23.4424 Z" fill="#000000" fill-rule="evenodd" fill-opacity="1" /><path clip-path="url(#clip110)" d="M872.742 57.2586 Q872.742 43.0763 878.03 31.6403 Q880.284 26.8445 883.44 22.8276 Q886.596 18.8106 888.687 17.0481 Q890.777 15.2855 891.351 15.2855 Q892.171 15.2855 892.212 16.1053 Q892.212 16.5152 891.105 17.5399 Q877.579 31.3123 877.62 57.2586 Q877.62 83.2867 890.777 96.5263 Q892.212 97.9609 892.212 98.4118 Q892.212 99.2316 891.351 99.2316 Q890.777 99.2316 888.769 97.551 Q886.76 95.8705 883.645 92.0175 Q880.53 88.1645 878.276 83.4507 Q872.742 72.0147 872.742 57.2586 Z" fill="#000000" fill-rule="evenodd" fill-opacity="1" /><path clip-path="url(#clip110)" d="M938.228 54.8402 Q938.228 60.9066 935.113 66.6041 Q932.039 72.3016 927.202 75.7447 Q922.406 79.1878 917.569 79.1878 Q912.118 79.1878 909.29 73.5313 Q904.166 94.0669 903.879 94.5998 Q902.69 96.3623 900.969 96.3623 Q899.903 96.3623 899.247 95.7065 Q898.591 95.0917 898.591 94.1079 Q898.632 93.78 898.878 92.7553 L907.076 59.7589 Q908.962 52.0939 914.659 46.6423 Q920.398 41.1498 926.546 41.1498 Q931.424 41.1498 934.826 44.7978 Q938.228 48.4459 938.228 54.8402 M932.203 51.2331 Q932.203 47.1342 930.563 45.0847 Q928.923 42.9943 926.382 42.9943 Q924.046 42.9943 921.217 44.8798 Q918.43 46.7653 915.971 50.9462 Q914.659 53.3646 913.716 56.3568 Q912.774 59.349 910.929 66.7271 Q910.273 69.6783 910.273 69.8423 Q910.273 70.1702 910.437 70.908 Q910.642 71.6458 911.134 72.7935 Q911.667 73.9002 912.405 74.8839 Q913.143 75.8677 914.495 76.6055 Q915.848 77.3023 917.487 77.3023 Q920.029 77.3023 922.734 75.2528 Q925.48 73.1624 927.489 69.3504 Q929.169 66.2762 930.686 60.4967 Q932.203 54.6762 932.203 51.2331 Z" fill="#000000" fill-rule="evenodd" fill-opacity="1" /><path clip-path="url(#clip110)" d="M943.558 98.4118 Q943.558 98.0019 944.624 96.9772 Q958.15 83.2048 958.15 57.2586 Q958.15 31.2304 945.156 18.0728 Q943.558 16.5562 943.558 16.1053 Q943.558 15.2855 944.378 15.2855 Q944.952 15.2855 946.96 16.9661 Q949.009 18.6467 952.084 22.4996 Q955.199 26.3526 957.494 31.0664 Q963.028 42.5024 963.028 57.2586 Q963.028 71.4408 957.74 82.8769 Q955.486 87.6726 952.33 91.6895 Q949.173 95.7065 947.083 97.469 Q944.993 99.2316 944.378 99.2316 Q943.558 99.2316 943.558 98.4118 Z" fill="#000000" fill-rule="evenodd" fill-opacity="1" /><path clip-path="url(#clip110)" d="M999.082 65.4974 Q999.164 64.4727 1000.76 64.4727 L1052.2 64.4727 Q1054.62 64.4727 1054.66 65.4154 Q1054.66 66.4402 1052.37 66.3992 L1001.34 66.3992 Q999.082 66.4402 999.082 65.4974 M999.082 49.1017 Q999.082 48.077 1000.84 48.1179 L1052.12 48.1179 Q1054.62 48.1179 1054.66 49.1017 Q1054.66 50.0444 1052.53 50.0444 L1000.76 50.0444 Q999.082 50.0444 999.082 49.1017 Z" fill="#000000" fill-rule="evenodd" fill-opacity="1" /><path clip-path="url(#clip110)" d="M1106.02 97.551 Q1106.02 98.2478 1105.53 98.7397 Q1105.04 99.2316 1104.34 99.2316 Q1103.15 99.2316 1102.74 98.1249 L1087.12 57.8324 Q1087.04 57.6684 1087.04 57.2586 Q1087.04 56.8487 1087.12 56.6847 L1102.74 16.3922 Q1103.15 15.2855 1104.34 15.2855 Q1105.04 15.2855 1105.53 15.7774 Q1106.02 16.2693 1106.02 16.9661 Q1106.02 17.376 1105.94 17.5399 L1090.48 57.2586 L1105.94 96.9772 Q1106.02 97.1411 1106.02 97.551 Z" fill="#000000" fill-rule="evenodd" fill-opacity="1" /><path clip-path="url(#clip110)" d="M1170.22 47.0112 Q1170.22 49.4706 1169.28 53.7745 Q1168.38 58.0783 1167.64 60.1278 Q1165.59 65.5794 1161.49 70.1702 Q1159.24 72.7115 1156.78 74.556 Q1154.36 76.3596 1152.56 77.2613 Q1150.75 78.1221 1148.62 78.573 Q1146.49 79.0648 1145.51 79.1058 Q1144.52 79.1878 1143.13 79.1878 L1139.93 91.6895 Q1139.28 94.9277 1138.95 95.1326 Q1138.87 95.2966 1138.66 95.3786 Q1138.5 95.4606 1138.33 95.4606 L1138.17 95.4606 Q1137.72 95.4606 1137.47 95.2556 Q1137.23 95.0507 1137.19 94.8047 L1137.19 94.5998 Q1137.19 94.0259 1139.11 86.6479 Q1140.1 82.8769 1140.96 78.9829 Q1134.4 78.573 1130.34 75.6627 Q1126.32 72.7525 1126.32 67.096 Q1126.32 63.6119 1130.38 52.9137 Q1132.31 47.79 1132.31 45.6586 Q1132.31 44.7158 1132.1 44.142 Q1131.9 43.5271 1131.49 43.3222 Q1131.08 43.0763 1130.83 43.0353 Q1130.63 42.9943 1130.22 42.9943 Q1127.8 42.9943 1125.55 45.4127 Q1123.29 47.831 1121.73 53.4056 Q1121.41 54.4303 1121.2 54.6762 Q1121 54.9222 1120.38 54.9222 Q1119.36 54.8812 1119.36 54.0614 Q1119.36 53.7335 1119.72 52.4628 Q1120.09 51.1511 1120.95 49.2247 Q1121.86 47.2572 1123.09 45.4946 Q1124.32 43.6911 1126.24 42.4204 Q1128.21 41.1498 1130.46 41.1498 Q1133.54 41.1498 1135.42 43.1582 Q1137.35 45.1257 1137.35 48.036 Q1137.35 48.6098 1137.23 49.2656 Q1137.1 49.9215 1136.98 50.2904 Q1136.9 50.6593 1136.65 51.3561 Q1136.45 52.0119 1136.41 52.1349 Q1134.32 57.5455 1133.25 61.0706 Q1132.19 64.5546 1132.02 65.5794 Q1131.9 66.5631 1131.9 67.7518 Q1131.9 76.0316 1141.45 77.1384 L1155.39 21.6799 Q1155.63 20.5322 1155.84 20.2862 Q1156.04 19.9993 1156.66 19.9993 Q1157.64 19.9993 1157.64 20.9011 Q1157.64 21.188 1157.39 22.1717 L1143.54 77.3023 Q1144.85 77.3023 1145.67 77.2613 Q1146.49 77.2203 1148.21 76.8514 Q1149.97 76.4415 1151.45 75.7037 Q1152.97 74.9659 1155.1 73.4903 Q1157.23 71.9737 1159.32 69.8423 Q1161.94 67.178 1164.28 62.7101 Q1166.62 58.2423 1166.62 54.5533 Q1166.62 50.4133 1163.62 47.4211 Q1163.17 47.0112 1162.93 46.7653 Q1162.72 46.5194 1162.52 46.1095 Q1162.35 45.6996 1162.35 45.1667 Q1162.35 43.7731 1163.67 42.4614 Q1164.98 41.1498 1166.53 41.1498 Q1167.93 41.1498 1169.08 42.5024 Q1170.22 43.8551 1170.22 47.0112 Z" fill="#000000" fill-rule="evenodd" fill-opacity="1" /><path clip-path="url(#clip110)" d="M1174.66 76.8924 Q1173.47 75.5398 1173.47 73.7772 Q1173.47 72.0147 1174.62 70.703 Q1175.81 69.3504 1177.94 69.3504 Q1180.44 69.3504 1181.87 71.7688 Q1183.31 74.1461 1183.31 78.1631 Q1183.31 82.5079 1181.55 86.5249 Q1179.78 90.5828 1178.06 92.5093 Q1176.34 94.4358 1175.64 94.4358 Q1174.82 94.4358 1174.82 93.5341 Q1174.82 93.2061 1175.4 92.5913 Q1181.42 86.115 1181.46 78.1631 Q1181.46 76.8924 1181.3 76.8924 L1181.09 77.0564 Q1179.66 78.2451 1177.94 78.2451 Q1175.85 78.2451 1174.66 76.8924 Z" fill="#000000" fill-rule="evenodd" fill-opacity="1" /><path clip-path="url(#clip110)" d="M1249.43 54.8402 Q1249.43 60.9066 1246.32 66.6041 Q1243.24 72.3016 1238.41 75.7447 Q1233.61 79.1878 1228.78 79.1878 Q1223.32 79.1878 1220.5 73.5313 Q1215.37 94.0669 1215.08 94.5998 Q1213.9 96.3623 1212.17 96.3623 Q1211.11 96.3623 1210.45 95.7065 Q1209.8 95.0917 1209.8 94.1079 Q1209.84 93.78 1210.08 92.7553 L1218.28 59.7589 Q1220.17 52.0939 1225.87 46.6423 Q1231.6 41.1498 1237.75 41.1498 Q1242.63 41.1498 1246.03 44.7978 Q1249.43 48.4459 1249.43 54.8402 M1243.41 51.2331 Q1243.41 47.1342 1241.77 45.0847 Q1240.13 42.9943 1237.59 42.9943 Q1235.25 42.9943 1232.42 44.8798 Q1229.64 46.7653 1227.18 50.9462 Q1225.87 53.3646 1224.92 56.3568 Q1223.98 59.349 1222.14 66.7271 Q1221.48 69.6783 1221.48 69.8423 Q1221.48 70.1702 1221.64 70.908 Q1221.85 71.6458 1222.34 72.7935 Q1222.87 73.9002 1223.61 74.8839 Q1224.35 75.8677 1225.7 76.6055 Q1227.05 77.3023 1228.69 77.3023 Q1231.23 77.3023 1233.94 75.2528 Q1236.69 73.1624 1238.69 69.3504 Q1240.38 66.2762 1241.89 60.4967 Q1243.41 54.6762 1243.41 51.2331 Z" fill="#000000" fill-rule="evenodd" fill-opacity="1" /><path clip-path="url(#clip110)" d="M1271.6 56.6847 Q1271.68 56.8487 1271.68 57.2586 Q1271.68 57.6684 1271.6 57.8324 L1255.99 98.1249 Q1255.58 99.2316 1254.43 99.2316 Q1253.73 99.2316 1253.24 98.7397 Q1252.75 98.2478 1252.75 97.551 Q1252.75 97.1411 1252.83 96.9772 L1268.24 57.2586 L1252.83 17.5399 Q1252.75 17.376 1252.75 16.9661 Q1252.75 16.2693 1253.24 15.7774 Q1253.73 15.2855 1254.43 15.2855 Q1255.58 15.2855 1255.99 16.3922 L1271.6 56.6847 Z" fill="#000000" fill-rule="evenodd" fill-opacity="1" /><path clip-path="url(#clip110)" d="M1310.28 58.2833 Q1308.35 58.2833 1308.35 57.2586 Q1308.35 56.2338 1310.36 56.2338 Q1310.61 56.2338 1311.02 56.2748 Q1311.47 56.3158 1311.55 56.3158 L1335.2 56.3158 L1335.2 32.583 Q1335.2 32.501 1335.16 32.1321 Q1335.12 31.7222 1335.12 31.4763 Q1335.12 29.4678 1336.1 29.4678 Q1337.13 29.4678 1337.13 31.4763 L1337.13 56.3158 L1360.82 56.3158 Q1360.9 56.3158 1361.31 56.2748 Q1361.72 56.2338 1361.97 56.2338 Q1363.89 56.2338 1363.89 57.2586 Q1363.93 58.2833 1361.88 58.2833 Q1361.64 58.2833 1361.27 58.2423 Q1360.9 58.2013 1360.82 58.2013 L1337.13 58.2013 L1337.13 83.1228 Q1337.13 85.0493 1336.1 85.0493 Q1335.12 85.0493 1335.12 83.0408 Q1335.12 82.7949 1335.16 82.385 Q1335.2 82.0161 1335.2 81.9341 L1335.2 58.2013 L1311.55 58.2013 Q1311.47 58.2013 1310.98 58.2423 Q1310.53 58.2833 1310.28 58.2833 Z" fill="#000000" fill-rule="evenodd" fill-opacity="1" /><path clip-path="url(#clip110)" d="M1415.29 97.551 Q1415.29 98.2478 1414.8 98.7397 Q1414.31 99.2316 1413.61 99.2316 Q1412.42 99.2316 1412.01 98.1249 L1396.39 57.8324 Q1396.31 57.6684 1396.31 57.2586 Q1396.31 56.8487 1396.39 56.6847 L1412.01 16.3922 Q1412.42 15.2855 1413.61 15.2855 Q1414.31 15.2855 1414.8 15.7774 Q1415.29 16.2693 1415.29 16.9661 Q1415.29 17.376 1415.21 17.5399 L1399.76 57.2586 L1415.21 96.9772 Q1415.29 97.1411 1415.29 97.551 Z" fill="#000000" fill-rule="evenodd" fill-opacity="1" /><path clip-path="url(#clip110)" d="M1468.26 54.8402 Q1468.26 60.9066 1465.15 66.6041 Q1462.07 72.3016 1457.24 75.7447 Q1452.44 79.1878 1447.61 79.1878 Q1442.15 79.1878 1439.33 73.5313 Q1434.2 94.0669 1433.91 94.5998 Q1432.73 96.3623 1431 96.3623 Q1429.94 96.3623 1429.28 95.7065 Q1428.63 95.0917 1428.63 94.1079 Q1428.67 93.78 1428.91 92.7553 L1437.11 59.7589 Q1439 52.0939 1444.69 46.6423 Q1450.43 41.1498 1456.58 41.1498 Q1461.46 41.1498 1464.86 44.7978 Q1468.26 48.4459 1468.26 54.8402 M1462.24 51.2331 Q1462.24 47.1342 1460.6 45.0847 Q1458.96 42.9943 1456.42 42.9943 Q1454.08 42.9943 1451.25 44.8798 Q1448.47 46.7653 1446.01 50.9462 Q1444.69 53.3646 1443.75 56.3568 Q1442.81 59.349 1440.96 66.7271 Q1440.31 69.6783 1440.31 69.8423 Q1440.31 70.1702 1440.47 70.908 Q1440.68 71.6458 1441.17 72.7935 Q1441.7 73.9002 1442.44 74.8839 Q1443.18 75.8677 1444.53 76.6055 Q1445.88 77.3023 1447.52 77.3023 Q1450.06 77.3023 1452.77 75.2528 Q1455.52 73.1624 1457.52 69.3504 Q1459.21 66.2762 1460.72 60.4967 Q1462.24 54.6762 1462.24 51.2331 Z" fill="#000000" fill-rule="evenodd" fill-opacity="1" /><path clip-path="url(#clip110)" d="M1472.77 76.8924 Q1471.58 75.5398 1471.58 73.7772 Q1471.58 72.0147 1472.73 70.703 Q1473.91 69.3504 1476.05 69.3504 Q1478.55 69.3504 1479.98 71.7688 Q1481.42 74.1461 1481.42 78.1631 Q1481.42 82.5079 1479.65 86.5249 Q1477.89 90.5828 1476.17 92.5093 Q1474.45 94.4358 1473.75 94.4358 Q1472.93 94.4358 1472.93 93.5341 Q1472.93 93.2061 1473.5 92.5913 Q1479.53 86.115 1479.57 78.1631 Q1479.57 76.8924 1479.41 76.8924 L1479.2 77.0564 Q1477.77 78.2451 1476.05 78.2451 Q1473.96 78.2451 1472.77 76.8924 Z" fill="#000000" fill-rule="evenodd" fill-opacity="1" /><path clip-path="url(#clip110)" d="M1547.54 54.8402 Q1547.54 60.9066 1544.43 66.6041 Q1541.35 72.3016 1536.52 75.7447 Q1531.72 79.1878 1526.88 79.1878 Q1521.43 79.1878 1518.6 73.5313 Q1513.48 94.0669 1513.19 94.5998 Q1512 96.3623 1510.28 96.3623 Q1509.22 96.3623 1508.56 95.7065 Q1507.9 95.0917 1507.9 94.1079 Q1507.95 93.78 1508.19 92.7553 L1516.39 59.7589 Q1518.27 52.0939 1523.97 46.6423 Q1529.71 41.1498 1535.86 41.1498 Q1540.74 41.1498 1544.14 44.7978 Q1547.54 48.4459 1547.54 54.8402 M1541.52 51.2331 Q1541.52 47.1342 1539.88 45.0847 Q1538.24 42.9943 1535.7 42.9943 Q1533.36 42.9943 1530.53 44.8798 Q1527.74 46.7653 1525.28 50.9462 Q1523.97 53.3646 1523.03 56.3568 Q1522.09 59.349 1520.24 66.7271 Q1519.59 69.6783 1519.59 69.8423 Q1519.59 70.1702 1519.75 70.908 Q1519.96 71.6458 1520.45 72.7935 Q1520.98 73.9002 1521.72 74.8839 Q1522.46 75.8677 1523.81 76.6055 Q1525.16 77.3023 1526.8 77.3023 Q1529.34 77.3023 1532.05 75.2528 Q1534.79 73.1624 1536.8 69.3504 Q1538.48 66.2762 1540 60.4967 Q1541.52 54.6762 1541.52 51.2331 Z" fill="#000000" fill-rule="evenodd" fill-opacity="1" /><path clip-path="url(#clip110)" d="M1629.56 56.0699 Q1630.05 56.5617 1630.05 57.2586 Q1630.05 57.9554 1629.56 58.4472 Q1629.07 58.9391 1628.37 58.9391 L1575.83 58.9391 Q1575.13 58.9391 1574.64 58.4472 Q1574.15 57.9554 1574.15 57.2586 Q1574.15 56.5617 1574.64 56.0699 Q1575.13 55.578 1575.83 55.578 L1628.37 55.578 Q1629.07 55.578 1629.56 56.0699 Z" fill="#000000" fill-rule="evenodd" fill-opacity="1" /><path clip-path="url(#clip110)" d="M1662.11 30.3286 L1662.11 27.7053 Q1672.19 27.7053 1677.39 22.3357 Q1678.83 22.3357 1679.08 22.6636 Q1679.32 22.9915 1679.32 24.5081 L1679.32 71.6048 Q1679.32 74.1051 1680.55 74.8839 Q1681.78 75.6627 1687.15 75.6627 L1689.81 75.6627 L1689.81 78.2451 Q1686.86 77.9991 1676.21 77.9991 Q1665.55 77.9991 1662.64 78.2451 L1662.64 75.6627 L1665.3 75.6627 Q1670.59 75.6627 1671.86 74.9249 Q1673.13 74.1461 1673.13 71.6048 L1673.13 28.1152 Q1668.75 30.3286 1662.11 30.3286 Z" fill="#000000" fill-rule="evenodd" fill-opacity="1" /><path clip-path="url(#clip110)" d="M1722.53 56.6847 Q1722.61 56.8487 1722.61 57.2586 Q1722.61 57.6684 1722.53 57.8324 L1706.91 98.1249 Q1706.5 99.2316 1705.36 99.2316 Q1704.66 99.2316 1704.17 98.7397 Q1703.68 98.2478 1703.68 97.551 Q1703.68 97.1411 1703.76 96.9772 L1719.17 57.2586 L1703.76 17.5399 Q1703.68 17.376 1703.68 16.9661 Q1703.68 16.2693 1704.17 15.7774 Q1704.66 15.2855 1705.36 15.2855 Q1706.5 15.2855 1706.91 16.3922 L1722.53 56.6847 Z" fill="#000000" fill-rule="evenodd" fill-opacity="1" /><polyline clip-path="url(#clip112)" style="stroke:#ff0000; stroke-linecap:butt; stroke-linejoin:round; stroke-width:4; stroke-opacity:1; fill:none" points="
  248.062,1447.87 280.497,1447.87 312.931,1447.87 345.366,1447.87 377.801,1447.87 410.236,1447.87 442.671,1447.87 475.105,1447.87 507.54,1447.87 539.975,1447.87 
  572.41,1447.87 604.845,1447.87 637.279,1447.87 669.714,1447.87 702.149,1447.87 734.584,1447.87 767.019,1447.87 799.453,1447.87 831.888,1447.87 864.323,1447.87 
  896.758,1447.87 929.193,1447.87 961.627,1447.87 994.062,1447.87 1026.5,162.047 1058.93,162.047 1091.37,162.047 1123.8,162.047 1156.24,162.047 1188.67,162.047 
  1221.11,162.047 1253.54,162.047 1285.98,162.047 1318.41,162.047 1350.85,162.047 1383.28,162.047 1415.71,162.047 1448.15,162.047 1480.58,162.047 1513.02,162.047 
  1545.45,1447.87 1577.89,1447.87 1610.32,1447.87 1642.76,1447.87 1675.19,1447.87 1707.63,1447.87 1740.06,1447.87 1772.5,1447.87 1804.93,1447.87 1837.37,1447.87 
  1869.8,1447.87 1902.24,1447.87 1934.67,1447.87 1967.11,1447.87 1999.54,1447.87 2031.98,1447.87 2064.41,1447.87 2096.85,1447.87 2129.28,1447.87 2161.71,1447.87 
  2194.15,1447.87 2226.58,1447.87 2259.02,1447.87 2291.45,1447.87 
  "/>
<polyline clip-path="url(#clip112)" style="stroke:#e3001c; stroke-linecap:butt; stroke-linejoin:round; stroke-width:4; stroke-opacity:1; fill:none" points="
  248.062,1126.42 280.497,1126.42 312.931,1126.42 345.366,1126.42 377.801,1126.42 410.236,1126.42 442.671,1126.42 475.105,1126.42 507.54,1126.42 539.975,1126.42 
  572.41,1126.42 604.845,1126.42 637.279,1126.42 669.714,1126.42 702.149,1126.42 734.584,1126.42 767.019,1126.42 799.453,1126.42 831.888,1126.42 864.323,1126.42 
  896.758,1126.42 929.193,1126.42 961.627,1126.42 994.062,1126.42 1026.5,1126.42 1058.93,1126.42 1091.37,1126.42 1123.8,1126.42 1156.24,1126.42 1188.67,1126.42 
  1221.11,1126.42 1253.54,1126.42 1285.98,1126.42 1318.41,1126.42 1350.85,1126.42 1383.28,1126.42 1415.71,1126.42 1448.15,1126.42 1480.58,1126.42 1513.02,1126.42 
  1545.45,1126.42 1577.89,1126.42 1610.32,1126.42 1642.76,1126.42 1675.19,1126.42 1707.63,1126.42 1740.06,1126.42 1772.5,1126.42 1804.93,1126.42 1837.37,1126.42 
  1869.8,1126.42 1902.24,1126.42 1934.67,1126.42 1967.11,1126.42 1999.54,1126.42 2031.98,1126.42 2064.41,1126.42 2096.85,1126.42 2129.28,1126.42 2161.71,1126.42 
  2194.15,1126.42 2226.58,1126.42 2259.02,1126.42 2291.45,1126.42 
  "/>
<polyline clip-path="url(#clip112)" style="stroke:#c60039; stroke-linecap:butt; stroke-linejoin:round; stroke-width:4; stroke-opacity:1; fill:none" points="
  248.062,1447.85 280.497,1447.77 312.931,1447.6 345.366,1447.21 377.801,1444.72 410.236,1413.19 442.671,1316.22 475.105,1141.36 507.54,964.213 539.975,851.785 
  572.41,814.073 604.845,822.08 637.279,846.76 669.714,877.934 702.149,910.838 734.584,941.959 767.019,971.524 799.453,1000.77 831.888,1028.19 864.323,1052.66 
  896.758,1074.93 929.193,1095.95 961.627,1115.53 994.062,1132.92 1026.5,1147.84 1058.93,1160.5 1091.37,1171.28 1123.8,1180.37 1156.24,1187.79 1188.67,1193.4 
  1221.11,1197.12 1253.54,1198.97 1285.98,1198.97 1318.41,1197.12 1350.85,1193.38 1383.28,1187.76 1415.71,1180.32 1448.15,1171.2 1480.58,1160.41 1513.02,1147.74 
  1545.45,1132.84 1577.89,1115.47 1610.32,1095.91 1642.76,1074.9 1675.19,1052.68 1707.63,1028.3 1740.06,1000.99 1772.5,971.854 1804.93,942.405 1837.37,911.351 
  1869.8,878.405 1902.24,847.045 1934.67,821.995 1967.11,813.671 1999.54,851.162 2031.98,963.561 2064.41,1141.28 2096.85,1316.29 2129.28,1413.19 2161.71,1444.72 
  2194.15,1447.21 2226.58,1447.6 2259.02,1447.77 2291.45,1447.85 
  "/>
<polyline clip-path="url(#clip112)" style="stroke:#aa0055; stroke-linecap:butt; stroke-linejoin:round; stroke-width:4; stroke-opacity:1; fill:none" points="
  248.062,1447.87 280.497,1447.87 312.931,1447.87 345.366,1447.84 377.801,1447.73 410.236,1447.47 442.671,1446.59 475.105,1432.44 507.54,1377.89 539.975,1236.67 
  572.41,1017.32 604.845,791.372 637.279,634.487 669.714,575.95 702.149,592.974 734.584,657.589 767.019,741.149 799.453,825.288 831.888,902.202 864.323,969.604 
  896.758,1026.92 929.193,1074.96 961.627,1114.85 994.062,1146.87 1026.5,1173.54 1058.93,1195.83 1091.37,1213.42 1123.8,1226.85 1156.24,1237.2 1188.67,1244.83 
  1221.11,1249.68 1253.54,1251.97 1285.98,1251.98 1318.41,1249.7 1350.85,1244.84 1383.28,1237.22 1415.71,1226.86 1448.15,1213.38 1480.58,1195.76 1513.02,1173.6 
  1545.45,1147.14 1577.89,1115.11 1610.32,1075.16 1642.76,1027.27 1675.19,969.667 1707.63,902.168 1740.06,824.871 1772.5,740.347 1804.93,657.699 1837.37,593.76 
  1869.8,576.508 1902.24,635.016 1934.67,791.037 1967.11,1016.2 1999.54,1236.72 2031.98,1377.88 2064.41,1432.41 2096.85,1446.59 2129.28,1447.47 2161.71,1447.73 
  2194.15,1447.84 2226.58,1447.87 2259.02,1447.87 2291.45,1447.87 
  "/>
<polyline clip-path="url(#clip112)" style="stroke:#8e0071; stroke-linecap:butt; stroke-linejoin:round; stroke-width:4; stroke-opacity:1; fill:none" points="
  248.062,1447.87 280.497,1447.87 312.931,1447.87 345.366,1447.87 377.801,1447.82 410.236,1447.66 442.671,1447.36 475.105,1446.47 507.54,1435.15 539.975,1384.68 
  572.41,1256.51 604.845,1026.82 637.279,765.265 669.714,553.705 702.149,450.242 734.584,441.921 767.019,513.381 799.453,628.416 831.888,752.746 864.323,871.356 
  896.758,972.586 929.193,1052.83 961.627,1115.37 994.062,1162.57 1026.5,1196.91 1058.93,1230.17 1091.37,1251.95 1123.8,1262.51 1156.24,1273.72 1188.67,1285.4 
  1221.11,1290.28 1253.54,1290.32 1285.98,1290.24 1318.41,1290.01 1350.85,1284.95 1383.28,1273.2 1415.71,1262.32 1448.15,1252.42 1480.58,1230.54 1513.02,1196.97 
  1545.45,1164.9 1577.89,1116.91 1610.32,1056.44 1642.76,972.108 1675.19,872.642 1707.63,752.544 1740.06,626.397 1772.5,510.777 1804.93,438.351 1837.37,452.748 
  1869.8,552.897 1902.24,762.939 1934.67,1026.65 1967.11,1257.02 1999.54,1385.15 2031.98,1435.13 2064.41,1446.47 2096.85,1447.36 2129.28,1447.66 2161.71,1447.82 
  2194.15,1447.87 2226.58,1447.87 2259.02,1447.87 2291.45,1447.87 
  "/>
<polyline clip-path="url(#clip112)" style="stroke:#71008e; stroke-linecap:butt; stroke-linejoin:round; stroke-width:4; stroke-opacity:1; fill:none" points="
  248.062,1447.87 280.497,1447.87 312.931,1447.87 345.366,1447.87 377.801,1447.85 410.236,1447.76 442.671,1447.54 475.105,1447.06 507.54,1444.96 539.975,1417.87 
  572.41,1335.28 604.845,1150.62 637.279,884.374 669.714,621.816 702.149,434.264 734.584,359.043 767.019,384.266 799.453,485.865 831.888,626.803 864.323,776.796 
  896.758,913.3 929.193,1026.61 961.627,1113.15 994.062,1175.39 1026.5,1221.21 1058.93,1254.76 1091.37,1277.83 1123.8,1295.04 1156.24,1307.18 1188.67,1315.16 
  1221.11,1320.04 1253.54,1322.39 1285.98,1322.35 1318.41,1319.89 1350.85,1314.92 1383.28,1306.9 1415.71,1294.79 1448.15,1277.65 1480.58,1254.86 1513.02,1221.9 
  1545.45,1176.15 1577.89,1113.95 1610.32,1028.11 1642.76,915.325 1675.19,777.379 1707.63,626.768 1740.06,485.151 1772.5,382.022 1804.93,357.613 1837.37,432.648 
  1869.8,621.75 1902.24,884.546 1934.67,1150.4 1967.11,1335.36 1999.54,1417.82 2031.98,1444.99 2064.41,1447.07 2096.85,1447.54 2129.28,1447.76 2161.71,1447.85 
  2194.15,1447.87 2226.58,1447.87 2259.02,1447.87 2291.45,1447.87 
  "/>
<polyline clip-path="url(#clip112)" style="stroke:#5500aa; stroke-linecap:butt; stroke-linejoin:round; stroke-width:4; stroke-opacity:1; fill:none" points="
  248.062,1447.87 280.497,1447.87 312.931,1447.87 345.366,1447.87 377.801,1447.85 410.236,1447.78 442.671,1447.62 475.105,1447.3 507.54,1446.02 539.975,1429.46 
  572.41,1367.9 604.845,1203.64 637.279,947.194 669.714,668.614 702.149,438.334 734.584,330.933 767.019,322.4 799.453,398.566 831.888,546.315 864.323,710.643 
  896.758,865.135 929.193,1003.17 961.627,1105.5 994.062,1183.61 1026.5,1243.77 1058.93,1275.6 1091.37,1297.83 1123.8,1318.52 1156.24,1331.03 1188.67,1338.26 
  1221.11,1343.89 1253.54,1347.61 1285.98,1347.6 1318.41,1343.95 1350.85,1338.49 1383.28,1331.41 1415.71,1319.07 1448.15,1298.5 1480.58,1276.92 1513.02,1245.49 
  1545.45,1187.43 1577.89,1109.05 1610.32,998.285 1642.76,863.203 1675.19,707.11 1707.63,541.197 1740.06,409.3 1772.5,316.511 1804.93,326.219 1837.37,440.106 
  1869.8,667.774 1902.24,948.415 1934.67,1203.84 1967.11,1367.29 1999.54,1429.45 2031.98,1446.01 2064.41,1447.3 2096.85,1447.62 2129.28,1447.78 2161.71,1447.85 
  2194.15,1447.87 2226.58,1447.87 2259.02,1447.87 2291.45,1447.87 
  "/>
<polyline clip-path="url(#clip112)" style="stroke:#3900c6; stroke-linecap:butt; stroke-linejoin:round; stroke-width:4; stroke-opacity:1; fill:none" points="
  248.062,1447.87 280.497,1447.87 312.931,1447.87 345.366,1447.87 377.801,1447.84 410.236,1447.73 442.671,1447.46 475.105,1446.98 507.54,1445.65 539.975,1437.56 
  572.41,1372.62 604.845,1229.1 637.279,977.364 669.714,690.892 702.149,452.879 734.584,313.232 767.019,281.76 799.453,350.374 831.888,491.876 864.323,666.647 
  896.758,840.131 929.193,984.504 961.627,1101.53 994.062,1191.78 1026.5,1247.04 1058.93,1293.72 1091.37,1321.19 1123.8,1336.69 1156.24,1348.3 1188.67,1358.13 
  1221.11,1364.58 1253.54,1367.24 1285.98,1367.31 1318.41,1364.77 1350.85,1358.37 1383.28,1348.63 1415.71,1337.25 1448.15,1322.03 1480.58,1294.59 1513.02,1249.07 
  1545.45,1192.78 1577.89,1104.62 1610.32,987.198 1642.76,827.578 1675.19,666.467 1707.63,488.664 1740.06,355.398 1772.5,283.219 1804.93,309.724 1837.37,450.119 
  1869.8,689.165 1902.24,980.116 1934.67,1229.74 1967.11,1373.06 1999.54,1437.38 2031.98,1445.63 2064.41,1446.97 2096.85,1447.46 2129.28,1447.72 2161.71,1447.84 
  2194.15,1447.87 2226.58,1447.87 2259.02,1447.87 2291.45,1447.87 
  "/>
<polyline clip-path="url(#clip112)" style="stroke:#1c00e3; stroke-linecap:butt; stroke-linejoin:round; stroke-width:4; stroke-opacity:1; fill:none" points="
  248.062,1447.87 280.497,1447.87 312.931,1447.87 345.366,1447.87 377.801,1447.84 410.236,1447.73 442.671,1447.46 475.105,1446.99 507.54,1445.72 539.975,1438 
  572.41,1375.52 604.845,1241.63 637.279,990.085 669.714,701.574 702.149,452.877 734.584,302.384 767.019,266.691 799.453,321.571 831.888,456.644 864.323,632.369 
  896.758,809.751 929.193,973.308 961.627,1104.36 994.062,1199.93 1026.5,1256 1058.93,1308.21 1091.37,1336.09 1123.8,1350.82 1156.24,1364.52 1188.67,1376 
  1221.11,1380.32 1253.54,1378.94 1285.98,1378.98 1318.41,1380.45 1350.85,1376.25 1383.28,1364.89 1415.71,1351.2 1448.15,1336.81 1480.58,1309.69 1513.02,1257.38 
  1545.45,1200.98 1577.89,1105.37 1610.32,975.483 1642.76,804.401 1675.19,634.219 1707.63,459.348 1740.06,324.402 1772.5,259.795 1804.93,299.606 1837.37,448.323 
  1869.8,702.025 1902.24,993.85 1934.67,1241.78 1967.11,1375.36 1999.54,1438.03 2031.98,1445.72 2064.41,1446.99 2096.85,1447.46 2129.28,1447.73 2161.71,1447.84 
  2194.15,1447.87 2226.58,1447.87 2259.02,1447.87 2291.45,1447.87 
  "/>
<polyline clip-path="url(#clip112)" style="stroke:#0000ff; stroke-linecap:butt; stroke-linejoin:round; stroke-width:4; stroke-opacity:1; fill:none" points="
  248.062,1447.87 280.497,1447.87 312.931,1447.87 345.366,1447.86 377.801,1447.82 410.236,1447.64 442.671,1447.19 475.105,1446.44 507.54,1444.78 539.975,1437.5 
  572.41,1381.65 604.845,1241.63 637.279,999.317 669.714,703.742 702.149,455.544 734.584,277.602 767.019,242.886 799.453,311.855 831.888,439.83 864.323,615.953 
  896.758,792.671 929.193,962.566 961.627,1102.11 994.062,1204.61 1026.5,1271.69 1058.93,1318.41 1091.37,1345.42 1123.8,1365.52 1156.24,1380.33 1188.67,1389.16 
  1221.11,1390.18 1253.54,1389.3 1285.98,1389.32 1318.41,1390.24 1350.85,1389.48 1383.28,1381 1415.71,1366.23 1448.15,1345.9 1480.58,1318.48 1513.02,1271.15 
  1545.45,1204.02 1577.89,1100.53 1610.32,960.244 1642.76,796.135 1675.19,615.167 1707.63,437.415 1740.06,312.035 1772.5,247.782 1804.93,282.495 1837.37,451.29 
  1869.8,701.993 1902.24,997.769 1934.67,1242.61 1967.11,1381.87 1999.54,1437.37 2031.98,1444.77 2064.41,1446.44 2096.85,1447.19 2129.28,1447.63 2161.71,1447.82 
  2194.15,1447.86 2226.58,1447.87 2259.02,1447.87 2291.45,1447.87 
  "/>
</svg>
