<?xml version="1.0" encoding="utf-8"?>
<svg xmlns="http://www.w3.org/2000/svg" xmlns:xlink="http://www.w3.org/1999/xlink" width="600" height="400" viewBox="0 0 2400 1600">
<defs>
  <clipPath id="clip730">
    <rect x="0" y="0" width="2400" height="1600"/>
  </clipPath>
</defs>
<path clip-path="url(#clip730)" d="
M0 1600 L2400 1600 L2400 0 L0 0  Z
  " fill="#ffffff" fill-rule="evenodd" fill-opacity="1"/>
<defs>
  <clipPath id="clip731">
    <rect x="480" y="0" width="1681" height="1600"/>
  </clipPath>
</defs>
<path clip-path="url(#clip730)" d="
M156.598 1486.45 L2352.76 1486.45 L2352.76 123.472 L156.598 123.472  Z
  " fill="#ffffff" fill-rule="evenodd" fill-opacity="1"/>
<defs>
  <clipPath id="clip732">
    <rect x="156" y="123" width="2197" height="1364"/>
  </clipPath>
</defs>
<polyline clip-path="url(#clip732)" style="stroke:#000000; stroke-linecap:butt; stroke-linejoin:round; stroke-width:2; stroke-opacity:0.1; fill:none" points="
  391.408,1486.45 391.408,123.472 
  "/>
<polyline clip-path="url(#clip732)" style="stroke:#000000; stroke-linecap:butt; stroke-linejoin:round; stroke-width:2; stroke-opacity:0.1; fill:none" points="
  823.042,1486.45 823.042,123.472 
  "/>
<polyline clip-path="url(#clip732)" style="stroke:#000000; stroke-linecap:butt; stroke-linejoin:round; stroke-width:2; stroke-opacity:0.1; fill:none" points="
  1254.68,1486.45 1254.68,123.472 
  "/>
<polyline clip-path="url(#clip732)" style="stroke:#000000; stroke-linecap:butt; stroke-linejoin:round; stroke-width:2; stroke-opacity:0.1; fill:none" points="
  1686.31,1486.45 1686.31,123.472 
  "/>
<polyline clip-path="url(#clip732)" style="stroke:#000000; stroke-linecap:butt; stroke-linejoin:round; stroke-width:2; stroke-opacity:0.1; fill:none" points="
  2117.95,1486.45 2117.95,123.472 
  "/>
<polyline clip-path="url(#clip730)" style="stroke:#000000; stroke-linecap:butt; stroke-linejoin:round; stroke-width:4; stroke-opacity:1; fill:none" points="
  156.598,1486.45 2352.76,1486.45 
  "/>
<polyline clip-path="url(#clip730)" style="stroke:#000000; stroke-linecap:butt; stroke-linejoin:round; stroke-width:4; stroke-opacity:1; fill:none" points="
  391.408,1486.45 391.408,1467.55 
  "/>
<polyline clip-path="url(#clip730)" style="stroke:#000000; stroke-linecap:butt; stroke-linejoin:round; stroke-width:4; stroke-opacity:1; fill:none" points="
  823.042,1486.45 823.042,1467.55 
  "/>
<polyline clip-path="url(#clip730)" style="stroke:#000000; stroke-linecap:butt; stroke-linejoin:round; stroke-width:4; stroke-opacity:1; fill:none" points="
  1254.68,1486.45 1254.68,1467.55 
  "/>
<polyline clip-path="url(#clip730)" style="stroke:#000000; stroke-linecap:butt; stroke-linejoin:round; stroke-width:4; stroke-opacity:1; fill:none" points="
  1686.31,1486.45 1686.31,1467.55 
  "/>
<polyline clip-path="url(#clip730)" style="stroke:#000000; stroke-linecap:butt; stroke-linejoin:round; stroke-width:4; stroke-opacity:1; fill:none" points="
  2117.95,1486.45 2117.95,1467.55 
  "/>
<path clip-path="url(#clip730)" d="M345.47 1532.02 L375.146 1532.02 L375.146 1535.95 L345.47 1535.95 L345.47 1532.02 Z" fill="#000000" fill-rule="evenodd" fill-opacity="1" /><path clip-path="url(#clip730)" d="M386.049 1544.91 L393.688 1544.91 L393.688 1518.55 L385.377 1520.21 L385.377 1515.95 L393.641 1514.29 L398.317 1514.29 L398.317 1544.91 L405.956 1544.91 L405.956 1548.85 L386.049 1548.85 L386.049 1544.91 Z" fill="#000000" fill-rule="evenodd" fill-opacity="1" /><path clip-path="url(#clip730)" d="M425.4 1517.37 Q421.789 1517.37 419.961 1520.93 Q418.155 1524.47 418.155 1531.6 Q418.155 1538.71 419.961 1542.27 Q421.789 1545.82 425.4 1545.82 Q429.035 1545.82 430.84 1542.27 Q432.669 1538.71 432.669 1531.6 Q432.669 1524.47 430.84 1520.93 Q429.035 1517.37 425.4 1517.37 M425.4 1513.66 Q431.211 1513.66 434.266 1518.27 Q437.345 1522.85 437.345 1531.6 Q437.345 1540.33 434.266 1544.94 Q431.211 1549.52 425.4 1549.52 Q419.59 1549.52 416.512 1544.94 Q413.456 1540.33 413.456 1531.6 Q413.456 1522.85 416.512 1518.27 Q419.59 1513.66 425.4 1513.66 Z" fill="#000000" fill-rule="evenodd" fill-opacity="1" /><path clip-path="url(#clip730)" d="M792.684 1532.02 L822.359 1532.02 L822.359 1535.95 L792.684 1535.95 L792.684 1532.02 Z" fill="#000000" fill-rule="evenodd" fill-opacity="1" /><path clip-path="url(#clip730)" d="M832.498 1514.29 L850.855 1514.29 L850.855 1518.22 L836.781 1518.22 L836.781 1526.7 Q837.799 1526.35 838.818 1526.19 Q839.836 1526 840.855 1526 Q846.642 1526 850.021 1529.17 Q853.401 1532.34 853.401 1537.76 Q853.401 1543.34 849.929 1546.44 Q846.457 1549.52 840.137 1549.52 Q837.961 1549.52 835.693 1549.15 Q833.447 1548.78 831.04 1548.04 L831.04 1543.34 Q833.123 1544.47 835.345 1545.03 Q837.568 1545.58 840.045 1545.58 Q844.049 1545.58 846.387 1543.48 Q848.725 1541.37 848.725 1537.76 Q848.725 1534.15 846.387 1532.04 Q844.049 1529.94 840.045 1529.94 Q838.17 1529.94 836.295 1530.35 Q834.443 1530.77 832.498 1531.65 L832.498 1514.29 Z" fill="#000000" fill-rule="evenodd" fill-opacity="1" /><path clip-path="url(#clip730)" d="M1254.68 1517.37 Q1251.07 1517.37 1249.24 1520.93 Q1247.43 1524.47 1247.43 1531.6 Q1247.43 1538.71 1249.24 1542.27 Q1251.07 1545.82 1254.68 1545.82 Q1258.31 1545.82 1260.12 1542.27 Q1261.95 1538.71 1261.95 1531.6 Q1261.95 1524.47 1260.12 1520.93 Q1258.31 1517.37 1254.68 1517.37 M1254.68 1513.66 Q1260.49 1513.66 1263.54 1518.27 Q1266.62 1522.85 1266.62 1531.6 Q1266.62 1540.33 1263.54 1544.94 Q1260.49 1549.52 1254.68 1549.52 Q1248.87 1549.52 1245.79 1544.94 Q1242.73 1540.33 1242.73 1531.6 Q1242.73 1522.85 1245.79 1518.27 Q1248.87 1513.66 1254.68 1513.66 Z" fill="#000000" fill-rule="evenodd" fill-opacity="1" /><path clip-path="url(#clip730)" d="M1676.59 1514.29 L1694.95 1514.29 L1694.95 1518.22 L1680.87 1518.22 L1680.87 1526.7 Q1681.89 1526.35 1682.91 1526.19 Q1683.93 1526 1684.95 1526 Q1690.73 1526 1694.11 1529.17 Q1697.49 1532.34 1697.49 1537.76 Q1697.49 1543.34 1694.02 1546.44 Q1690.55 1549.52 1684.23 1549.52 Q1682.05 1549.52 1679.78 1549.15 Q1677.54 1548.78 1675.13 1548.04 L1675.13 1543.34 Q1677.21 1544.47 1679.44 1545.03 Q1681.66 1545.58 1684.14 1545.58 Q1688.14 1545.58 1690.48 1543.48 Q1692.82 1541.37 1692.82 1537.76 Q1692.82 1534.15 1690.48 1532.04 Q1688.14 1529.94 1684.14 1529.94 Q1682.26 1529.94 1680.39 1530.35 Q1678.53 1530.77 1676.59 1531.65 L1676.59 1514.29 Z" fill="#000000" fill-rule="evenodd" fill-opacity="1" /><path clip-path="url(#clip730)" d="M2092.63 1544.91 L2100.27 1544.91 L2100.27 1518.55 L2091.96 1520.21 L2091.96 1515.95 L2100.23 1514.29 L2104.9 1514.29 L2104.9 1544.91 L2112.54 1544.91 L2112.54 1548.85 L2092.63 1548.85 L2092.63 1544.91 Z" fill="#000000" fill-rule="evenodd" fill-opacity="1" /><path clip-path="url(#clip730)" d="M2131.99 1517.37 Q2128.37 1517.37 2126.55 1520.93 Q2124.74 1524.47 2124.74 1531.6 Q2124.74 1538.71 2126.55 1542.27 Q2128.37 1545.82 2131.99 1545.82 Q2135.62 1545.82 2137.43 1542.27 Q2139.25 1538.71 2139.25 1531.6 Q2139.25 1524.47 2137.43 1520.93 Q2135.62 1517.37 2131.99 1517.37 M2131.99 1513.66 Q2137.8 1513.66 2140.85 1518.27 Q2143.93 1522.85 2143.93 1531.6 Q2143.93 1540.33 2140.85 1544.94 Q2137.8 1549.52 2131.99 1549.52 Q2126.18 1549.52 2123.1 1544.94 Q2120.04 1540.33 2120.04 1531.6 Q2120.04 1522.85 2123.1 1518.27 Q2126.18 1513.66 2131.99 1513.66 Z" fill="#000000" fill-rule="evenodd" fill-opacity="1" /><polyline clip-path="url(#clip732)" style="stroke:#000000; stroke-linecap:butt; stroke-linejoin:round; stroke-width:2; stroke-opacity:0.1; fill:none" points="
  156.598,1447.87 2352.76,1447.87 
  "/>
<polyline clip-path="url(#clip732)" style="stroke:#000000; stroke-linecap:butt; stroke-linejoin:round; stroke-width:2; stroke-opacity:0.1; fill:none" points="
  156.598,1181.96 2352.76,1181.96 
  "/>
<polyline clip-path="url(#clip732)" style="stroke:#000000; stroke-linecap:butt; stroke-linejoin:round; stroke-width:2; stroke-opacity:0.1; fill:none" points="
  156.598,916.037 2352.76,916.037 
  "/>
<polyline clip-path="url(#clip732)" style="stroke:#000000; stroke-linecap:butt; stroke-linejoin:round; stroke-width:2; stroke-opacity:0.1; fill:none" points="
  156.598,650.119 2352.76,650.119 
  "/>
<polyline clip-path="url(#clip732)" style="stroke:#000000; stroke-linecap:butt; stroke-linejoin:round; stroke-width:2; stroke-opacity:0.1; fill:none" points="
  156.598,384.201 2352.76,384.201 
  "/>
<polyline clip-path="url(#clip730)" style="stroke:#000000; stroke-linecap:butt; stroke-linejoin:round; stroke-width:4; stroke-opacity:1; fill:none" points="
  156.598,1486.45 156.598,123.472 
  "/>
<polyline clip-path="url(#clip730)" style="stroke:#000000; stroke-linecap:butt; stroke-linejoin:round; stroke-width:4; stroke-opacity:1; fill:none" points="
  156.598,1447.87 175.496,1447.87 
  "/>
<polyline clip-path="url(#clip730)" style="stroke:#000000; stroke-linecap:butt; stroke-linejoin:round; stroke-width:4; stroke-opacity:1; fill:none" points="
  156.598,1181.96 175.496,1181.96 
  "/>
<polyline clip-path="url(#clip730)" style="stroke:#000000; stroke-linecap:butt; stroke-linejoin:round; stroke-width:4; stroke-opacity:1; fill:none" points="
  156.598,916.037 175.496,916.037 
  "/>
<polyline clip-path="url(#clip730)" style="stroke:#000000; stroke-linecap:butt; stroke-linejoin:round; stroke-width:4; stroke-opacity:1; fill:none" points="
  156.598,650.119 175.496,650.119 
  "/>
<polyline clip-path="url(#clip730)" style="stroke:#000000; stroke-linecap:butt; stroke-linejoin:round; stroke-width:4; stroke-opacity:1; fill:none" points="
  156.598,384.201 175.496,384.201 
  "/>
<path clip-path="url(#clip730)" d="M63.4226 1433.67 Q59.8115 1433.67 57.9828 1437.24 Q56.1773 1440.78 56.1773 1447.91 Q56.1773 1455.01 57.9828 1458.58 Q59.8115 1462.12 63.4226 1462.12 Q67.0569 1462.12 68.8624 1458.58 Q70.6911 1455.01 70.6911 1447.91 Q70.6911 1440.78 68.8624 1437.24 Q67.0569 1433.67 63.4226 1433.67 M63.4226 1429.97 Q69.2328 1429.97 72.2883 1434.57 Q75.367 1439.16 75.367 1447.91 Q75.367 1456.63 72.2883 1461.24 Q69.2328 1465.82 63.4226 1465.82 Q57.6125 1465.82 54.5338 1461.24 Q51.4782 1456.63 51.4782 1447.91 Q51.4782 1439.16 54.5338 1434.57 Q57.6125 1429.97 63.4226 1429.97 Z" fill="#000000" fill-rule="evenodd" fill-opacity="1" /><path clip-path="url(#clip730)" d="M83.5845 1459.27 L88.4688 1459.27 L88.4688 1465.15 L83.5845 1465.15 L83.5845 1459.27 Z" fill="#000000" fill-rule="evenodd" fill-opacity="1" /><path clip-path="url(#clip730)" d="M108.654 1433.67 Q105.043 1433.67 103.214 1437.24 Q101.409 1440.78 101.409 1447.91 Q101.409 1455.01 103.214 1458.58 Q105.043 1462.12 108.654 1462.12 Q112.288 1462.12 114.094 1458.58 Q115.922 1455.01 115.922 1447.91 Q115.922 1440.78 114.094 1437.24 Q112.288 1433.67 108.654 1433.67 M108.654 1429.97 Q114.464 1429.97 117.52 1434.57 Q120.598 1439.16 120.598 1447.91 Q120.598 1456.63 117.52 1461.24 Q114.464 1465.82 108.654 1465.82 Q102.844 1465.82 99.765 1461.24 Q96.7095 1456.63 96.7095 1447.91 Q96.7095 1439.16 99.765 1434.57 Q102.844 1429.97 108.654 1429.97 Z" fill="#000000" fill-rule="evenodd" fill-opacity="1" /><path clip-path="url(#clip730)" d="M64.6495 1167.75 Q61.0384 1167.75 59.2097 1171.32 Q57.4041 1174.86 57.4041 1181.99 Q57.4041 1189.1 59.2097 1192.66 Q61.0384 1196.2 64.6495 1196.2 Q68.2837 1196.2 70.0892 1192.66 Q71.9179 1189.1 71.9179 1181.99 Q71.9179 1174.86 70.0892 1171.32 Q68.2837 1167.75 64.6495 1167.75 M64.6495 1164.05 Q70.4596 1164.05 73.5152 1168.66 Q76.5938 1173.24 76.5938 1181.99 Q76.5938 1190.72 73.5152 1195.32 Q70.4596 1199.91 64.6495 1199.91 Q58.8393 1199.91 55.7606 1195.32 Q52.7051 1190.72 52.7051 1181.99 Q52.7051 1173.24 55.7606 1168.66 Q58.8393 1164.05 64.6495 1164.05 Z" fill="#000000" fill-rule="evenodd" fill-opacity="1" /><path clip-path="url(#clip730)" d="M84.8114 1193.36 L89.6956 1193.36 L89.6956 1199.24 L84.8114 1199.24 L84.8114 1193.36 Z" fill="#000000" fill-rule="evenodd" fill-opacity="1" /><path clip-path="url(#clip730)" d="M100.691 1195.3 L108.33 1195.3 L108.33 1168.93 L100.02 1170.6 L100.02 1166.34 L108.283 1164.68 L112.959 1164.68 L112.959 1195.3 L120.598 1195.3 L120.598 1199.24 L100.691 1199.24 L100.691 1195.3 Z" fill="#000000" fill-rule="evenodd" fill-opacity="1" /><path clip-path="url(#clip730)" d="M65.0198 901.836 Q61.4087 901.836 59.58 905.4 Q57.7745 908.942 57.7745 916.072 Q57.7745 923.178 59.58 926.743 Q61.4087 930.285 65.0198 930.285 Q68.6541 930.285 70.4596 926.743 Q72.2883 923.178 72.2883 916.072 Q72.2883 908.942 70.4596 905.4 Q68.6541 901.836 65.0198 901.836 M65.0198 898.132 Q70.83 898.132 73.8855 902.738 Q76.9642 907.322 76.9642 916.072 Q76.9642 924.799 73.8855 929.405 Q70.83 933.988 65.0198 933.988 Q59.2097 933.988 56.131 929.405 Q53.0754 924.799 53.0754 916.072 Q53.0754 907.322 56.131 902.738 Q59.2097 898.132 65.0198 898.132 Z" fill="#000000" fill-rule="evenodd" fill-opacity="1" /><path clip-path="url(#clip730)" d="M85.1818 927.437 L90.066 927.437 L90.066 933.317 L85.1818 933.317 L85.1818 927.437 Z" fill="#000000" fill-rule="evenodd" fill-opacity="1" /><path clip-path="url(#clip730)" d="M104.279 929.382 L120.598 929.382 L120.598 933.317 L98.6539 933.317 L98.6539 929.382 Q101.316 926.627 105.899 921.998 Q110.506 917.345 111.686 916.002 Q113.932 913.479 114.811 911.743 Q115.714 909.984 115.714 908.294 Q115.714 905.539 113.77 903.803 Q111.848 902.067 108.746 902.067 Q106.547 902.067 104.094 902.831 Q101.663 903.595 98.8854 905.146 L98.8854 900.424 Q101.709 899.289 104.163 898.711 Q106.617 898.132 108.654 898.132 Q114.024 898.132 117.219 900.817 Q120.413 903.502 120.413 907.993 Q120.413 910.123 119.603 912.044 Q118.816 913.942 116.709 916.535 Q116.131 917.206 113.029 920.424 Q109.927 923.618 104.279 929.382 Z" fill="#000000" fill-rule="evenodd" fill-opacity="1" /><path clip-path="url(#clip730)" d="M64.0708 635.918 Q60.4597 635.918 58.631 639.482 Q56.8254 643.024 56.8254 650.154 Q56.8254 657.26 58.631 660.825 Q60.4597 664.367 64.0708 664.367 Q67.705 664.367 69.5105 660.825 Q71.3392 657.26 71.3392 650.154 Q71.3392 643.024 69.5105 639.482 Q67.705 635.918 64.0708 635.918 M64.0708 632.214 Q69.8809 632.214 72.9365 636.82 Q76.0151 641.404 76.0151 650.154 Q76.0151 658.88 72.9365 663.487 Q69.8809 668.07 64.0708 668.07 Q58.2606 668.07 55.1819 663.487 Q52.1264 658.88 52.1264 650.154 Q52.1264 641.404 55.1819 636.82 Q58.2606 632.214 64.0708 632.214 Z" fill="#000000" fill-rule="evenodd" fill-opacity="1" /><path clip-path="url(#clip730)" d="M84.2327 661.519 L89.1169 661.519 L89.1169 667.399 L84.2327 667.399 L84.2327 661.519 Z" fill="#000000" fill-rule="evenodd" fill-opacity="1" /><path clip-path="url(#clip730)" d="M113.469 648.765 Q116.825 649.482 118.7 651.751 Q120.598 654.019 120.598 657.353 Q120.598 662.468 117.08 665.269 Q113.561 668.07 107.08 668.07 Q104.904 668.07 102.589 667.63 Q100.297 667.214 97.8437 666.357 L97.8437 661.843 Q99.7882 662.978 102.103 663.556 Q104.418 664.135 106.941 664.135 Q111.339 664.135 113.631 662.399 Q115.945 660.663 115.945 657.353 Q115.945 654.297 113.793 652.584 Q111.663 650.848 107.844 650.848 L103.816 650.848 L103.816 647.006 L108.029 647.006 Q111.478 647.006 113.307 645.64 Q115.135 644.251 115.135 641.658 Q115.135 638.996 113.237 637.584 Q111.362 636.149 107.844 636.149 Q105.922 636.149 103.723 636.566 Q101.524 636.982 98.8854 637.862 L98.8854 633.695 Q101.547 632.955 103.862 632.584 Q106.2 632.214 108.26 632.214 Q113.584 632.214 116.686 634.645 Q119.788 637.052 119.788 641.172 Q119.788 644.043 118.145 646.033 Q116.501 648.001 113.469 648.765 Z" fill="#000000" fill-rule="evenodd" fill-opacity="1" /><path clip-path="url(#clip730)" d="M62.9365 370 Q59.3254 370 57.4967 373.564 Q55.6912 377.106 55.6912 384.236 Q55.6912 391.342 57.4967 394.907 Q59.3254 398.449 62.9365 398.449 Q66.5707 398.449 68.3763 394.907 Q70.205 391.342 70.205 384.236 Q70.205 377.106 68.3763 373.564 Q66.5707 370 62.9365 370 M62.9365 366.296 Q68.7467 366.296 71.8022 370.902 Q74.8809 375.486 74.8809 384.236 Q74.8809 392.962 71.8022 397.569 Q68.7467 402.152 62.9365 402.152 Q57.1264 402.152 54.0477 397.569 Q50.9921 392.962 50.9921 384.236 Q50.9921 375.486 54.0477 370.902 Q57.1264 366.296 62.9365 366.296 Z" fill="#000000" fill-rule="evenodd" fill-opacity="1" /><path clip-path="url(#clip730)" d="M83.0984 395.601 L87.9827 395.601 L87.9827 401.481 L83.0984 401.481 L83.0984 395.601 Z" fill="#000000" fill-rule="evenodd" fill-opacity="1" /><path clip-path="url(#clip730)" d="M111.015 370.995 L99.2095 389.444 L111.015 389.444 L111.015 370.995 M109.788 366.921 L115.668 366.921 L115.668 389.444 L120.598 389.444 L120.598 393.333 L115.668 393.333 L115.668 401.481 L111.015 401.481 L111.015 393.333 L95.4132 393.333 L95.4132 388.819 L109.788 366.921 Z" fill="#000000" fill-rule="evenodd" fill-opacity="1" /><path clip-path="url(#clip730)" d="M762.472 12.096 L773.49 12.096 L800.307 62.6918 L800.307 12.096 L808.247 12.096 L808.247 72.576 L797.229 72.576 L770.412 21.9802 L770.412 72.576 L762.472 72.576 L762.472 12.096 Z" fill="#000000" fill-rule="evenodd" fill-opacity="1" /><path clip-path="url(#clip730)" d="M824.532 12.096 L836.725 12.096 L852.159 53.2532 L867.674 12.096 L879.867 12.096 L879.867 72.576 L871.887 72.576 L871.887 19.4686 L856.291 60.9499 L848.068 60.9499 L832.472 19.4686 L832.472 72.576 L824.532 72.576 L824.532 12.096 Z" fill="#000000" fill-rule="evenodd" fill-opacity="1" /><path clip-path="url(#clip730)" d="M896.111 12.096 L930.868 12.096 L930.868 18.9825 L904.294 18.9825 L904.294 36.8065 L928.275 36.8065 L928.275 43.6931 L904.294 43.6931 L904.294 72.576 L896.111 72.576 L896.111 12.096 Z" fill="#000000" fill-rule="evenodd" fill-opacity="1" /><path clip-path="url(#clip730)" d="M965.544 27.2059 L972.997 27.2059 L982.315 62.6108 L991.591 27.2059 L1000.38 27.2059 L1009.7 62.6108 L1018.98 27.2059 L1026.43 27.2059 L1014.56 72.576 L1005.77 72.576 L996.007 35.3887 L986.203 72.576 L977.413 72.576 L965.544 27.2059 Z" fill="#000000" fill-rule="evenodd" fill-opacity="1" /><path clip-path="url(#clip730)" d="M1037.73 27.2059 L1045.18 27.2059 L1045.18 72.576 L1037.73 72.576 L1037.73 27.2059 M1037.73 9.54393 L1045.18 9.54393 L1045.18 18.9825 L1037.73 18.9825 L1037.73 9.54393 Z" fill="#000000" fill-rule="evenodd" fill-opacity="1" /><path clip-path="url(#clip730)" d="M1068.15 14.324 L1068.15 27.2059 L1083.51 27.2059 L1083.51 32.9987 L1068.15 32.9987 L1068.15 57.6282 Q1068.15 63.1779 1069.65 64.7578 Q1071.19 66.3376 1075.85 66.3376 L1083.51 66.3376 L1083.51 72.576 L1075.85 72.576 Q1067.22 72.576 1063.94 69.3758 Q1060.66 66.1351 1060.66 57.6282 L1060.66 32.9987 L1055.19 32.9987 L1055.19 27.2059 L1060.66 27.2059 L1060.66 14.324 L1068.15 14.324 Z" fill="#000000" fill-rule="evenodd" fill-opacity="1" /><path clip-path="url(#clip730)" d="M1131.02 45.1919 L1131.02 72.576 L1123.57 72.576 L1123.57 45.4349 Q1123.57 38.994 1121.06 35.7938 Q1118.55 32.5936 1113.52 32.5936 Q1107.49 32.5936 1104 36.4419 Q1100.52 40.2903 1100.52 46.9338 L1100.52 72.576 L1093.03 72.576 L1093.03 9.54393 L1100.52 9.54393 L1100.52 34.2544 Q1103.19 30.163 1106.8 28.1376 Q1110.44 26.1121 1115.18 26.1121 Q1123 26.1121 1127.01 30.9732 Q1131.02 35.7938 1131.02 45.1919 Z" fill="#000000" fill-rule="evenodd" fill-opacity="1" /><path clip-path="url(#clip730)" d="M1172.59 12.096 L1207.34 12.096 L1207.34 18.9825 L1180.77 18.9825 L1180.77 36.8065 L1204.75 36.8065 L1204.75 43.6931 L1180.77 43.6931 L1180.77 72.576 L1172.59 72.576 L1172.59 12.096 Z" fill="#000000" fill-rule="evenodd" fill-opacity="1" /><path clip-path="url(#clip730)" d="M1240.24 34.1734 Q1238.98 33.4443 1237.48 33.1202 Q1236.02 32.7556 1234.24 32.7556 Q1227.92 32.7556 1224.52 36.8875 Q1221.16 40.9789 1221.16 48.6757 L1221.16 72.576 L1213.66 72.576 L1213.66 27.2059 L1221.16 27.2059 L1221.16 34.2544 Q1223.51 30.1225 1227.27 28.1376 Q1231.04 26.1121 1236.43 26.1121 Q1237.2 26.1121 1238.13 26.2337 Q1239.06 26.3147 1240.2 26.5172 L1240.24 34.1734 Z" fill="#000000" fill-rule="evenodd" fill-opacity="1" /><path clip-path="url(#clip730)" d="M1263.81 32.4315 Q1257.82 32.4315 1254.33 37.1306 Q1250.85 41.7891 1250.85 49.9314 Q1250.85 58.0738 1254.29 62.7728 Q1257.78 67.4314 1263.81 67.4314 Q1269.77 67.4314 1273.25 62.7323 Q1276.73 58.0333 1276.73 49.9314 Q1276.73 41.8701 1273.25 37.1711 Q1269.77 32.4315 1263.81 32.4315 M1263.81 26.1121 Q1273.53 26.1121 1279.08 32.4315 Q1284.63 38.7509 1284.63 49.9314 Q1284.63 61.0714 1279.08 67.4314 Q1273.53 73.7508 1263.81 73.7508 Q1254.05 73.7508 1248.5 67.4314 Q1242.99 61.0714 1242.99 49.9314 Q1242.99 38.7509 1248.5 32.4315 Q1254.05 26.1121 1263.81 26.1121 Z" fill="#000000" fill-rule="evenodd" fill-opacity="1" /><path clip-path="url(#clip730)" d="M1329.56 49.9314 Q1329.56 41.7081 1326.16 37.0496 Q1322.79 32.3505 1316.88 32.3505 Q1310.96 32.3505 1307.56 37.0496 Q1304.2 41.7081 1304.2 49.9314 Q1304.2 58.1548 1307.56 62.8538 Q1310.96 67.5124 1316.88 67.5124 Q1322.79 67.5124 1326.16 62.8538 Q1329.56 58.1548 1329.56 49.9314 M1304.2 34.0924 Q1306.55 30.0415 1310.11 28.0971 Q1313.72 26.1121 1318.7 26.1121 Q1326.97 26.1121 1332.11 32.6746 Q1337.3 39.2371 1337.3 49.9314 Q1337.3 60.6258 1332.11 67.1883 Q1326.97 73.7508 1318.7 73.7508 Q1313.72 73.7508 1310.11 71.8063 Q1306.55 69.8214 1304.2 65.7705 L1304.2 72.576 L1296.71 72.576 L1296.71 9.54393 L1304.2 9.54393 L1304.2 34.0924 Z" fill="#000000" fill-rule="evenodd" fill-opacity="1" /><path clip-path="url(#clip730)" d="M1388.46 48.0275 L1388.46 51.6733 L1354.19 51.6733 Q1354.67 59.3701 1358.81 63.421 Q1362.98 67.4314 1370.39 67.4314 Q1374.69 67.4314 1378.7 66.3781 Q1382.75 65.3249 1386.72 63.2184 L1386.72 70.267 Q1382.71 71.9684 1378.49 72.8596 Q1374.28 73.7508 1369.95 73.7508 Q1359.09 73.7508 1352.73 67.4314 Q1346.41 61.1119 1346.41 50.3365 Q1346.41 39.1965 1352.41 32.6746 Q1358.44 26.1121 1368.65 26.1121 Q1377.8 26.1121 1383.11 32.0264 Q1388.46 37.9003 1388.46 48.0275 M1381 45.84 Q1380.92 39.7232 1377.56 36.0774 Q1374.24 32.4315 1368.73 32.4315 Q1362.49 32.4315 1358.72 35.9558 Q1355 39.4801 1354.43 45.8805 L1381 45.84 Z" fill="#000000" fill-rule="evenodd" fill-opacity="1" /><path clip-path="url(#clip730)" d="M1438.41 45.1919 L1438.41 72.576 L1430.95 72.576 L1430.95 45.4349 Q1430.95 38.994 1428.44 35.7938 Q1425.93 32.5936 1420.91 32.5936 Q1414.87 32.5936 1411.39 36.4419 Q1407.9 40.2903 1407.9 46.9338 L1407.9 72.576 L1400.41 72.576 L1400.41 27.2059 L1407.9 27.2059 L1407.9 34.2544 Q1410.58 30.163 1414.18 28.1376 Q1417.83 26.1121 1422.57 26.1121 Q1430.39 26.1121 1434.4 30.9732 Q1438.41 35.7938 1438.41 45.1919 Z" fill="#000000" fill-rule="evenodd" fill-opacity="1" /><path clip-path="url(#clip730)" d="M1453.27 27.2059 L1460.73 27.2059 L1460.73 72.576 L1453.27 72.576 L1453.27 27.2059 M1453.27 9.54393 L1460.73 9.54393 L1460.73 18.9825 L1453.27 18.9825 L1453.27 9.54393 Z" fill="#000000" fill-rule="evenodd" fill-opacity="1" /><path clip-path="url(#clip730)" d="M1475.55 54.671 L1475.55 27.2059 L1483.01 27.2059 L1483.01 54.3874 Q1483.01 60.8284 1485.52 64.0691 Q1488.03 67.2693 1493.05 67.2693 Q1499.09 67.2693 1502.57 63.421 Q1506.1 59.5726 1506.1 52.9291 L1506.1 27.2059 L1513.55 27.2059 L1513.55 72.576 L1506.1 72.576 L1506.1 65.6084 Q1503.38 69.7404 1499.78 71.7658 Q1496.21 73.7508 1491.47 73.7508 Q1483.65 73.7508 1479.6 68.8897 Q1475.55 64.0286 1475.55 54.671 M1494.31 26.1121 L1494.31 26.1121 Z" fill="#000000" fill-rule="evenodd" fill-opacity="1" /><path clip-path="url(#clip730)" d="M1557.83 28.5427 L1557.83 35.5912 Q1554.67 33.9709 1551.26 33.1607 Q1547.86 32.3505 1544.22 32.3505 Q1538.67 32.3505 1535.87 34.0519 Q1533.12 35.7533 1533.12 39.156 Q1533.12 41.7486 1535.1 43.2475 Q1537.09 44.7058 1543.08 46.0426 L1545.63 46.6097 Q1553.57 48.3111 1556.89 51.4303 Q1560.26 54.509 1560.26 60.0587 Q1560.26 66.3781 1555.23 70.0644 Q1550.25 73.7508 1541.5 73.7508 Q1537.86 73.7508 1533.89 73.0216 Q1529.96 72.3329 1525.58 70.9151 L1525.58 63.2184 Q1529.71 65.3654 1533.72 66.4591 Q1537.73 67.5124 1541.66 67.5124 Q1546.93 67.5124 1549.77 65.73 Q1552.6 63.9071 1552.6 60.6258 Q1552.6 57.5877 1550.53 55.9673 Q1548.51 54.3469 1541.58 52.8481 L1538.99 52.2405 Q1532.06 50.7821 1528.98 47.7845 Q1525.91 44.7463 1525.91 39.4801 Q1525.91 33.0797 1530.44 29.5959 Q1534.98 26.1121 1543.32 26.1121 Q1547.46 26.1121 1551.1 26.7198 Q1554.75 27.3274 1557.83 28.5427 Z" fill="#000000" fill-rule="evenodd" fill-opacity="1" /><path clip-path="url(#clip730)" d="M1598.5 9.54393 L1605.95 9.54393 L1605.95 72.576 L1598.5 72.576 L1598.5 9.54393 Z" fill="#000000" fill-rule="evenodd" fill-opacity="1" /><path clip-path="url(#clip730)" d="M1639.13 32.4315 Q1633.13 32.4315 1629.65 37.1306 Q1626.17 41.7891 1626.17 49.9314 Q1626.17 58.0738 1629.61 62.7728 Q1633.09 67.4314 1639.13 67.4314 Q1645.08 67.4314 1648.57 62.7323 Q1652.05 58.0333 1652.05 49.9314 Q1652.05 41.8701 1648.57 37.1711 Q1645.08 32.4315 1639.13 32.4315 M1639.13 26.1121 Q1648.85 26.1121 1654.4 32.4315 Q1659.95 38.7509 1659.95 49.9314 Q1659.95 61.0714 1654.4 67.4314 Q1648.85 73.7508 1639.13 73.7508 Q1629.37 73.7508 1623.82 67.4314 Q1618.31 61.0714 1618.31 49.9314 Q1618.31 38.7509 1623.82 32.4315 Q1629.37 26.1121 1639.13 26.1121 Z" fill="#000000" fill-rule="evenodd" fill-opacity="1" /><path clip-path="url(#clip730)" d="M1701.23 28.5427 L1701.23 35.5912 Q1698.07 33.9709 1694.67 33.1607 Q1691.26 32.3505 1687.62 32.3505 Q1682.07 32.3505 1679.27 34.0519 Q1676.52 35.7533 1676.52 39.156 Q1676.52 41.7486 1678.5 43.2475 Q1680.49 44.7058 1686.48 46.0426 L1689.04 46.6097 Q1696.98 48.3111 1700.3 51.4303 Q1703.66 54.509 1703.66 60.0587 Q1703.66 66.3781 1698.64 70.0644 Q1693.65 73.7508 1684.9 73.7508 Q1681.26 73.7508 1677.29 73.0216 Q1673.36 72.3329 1668.98 70.9151 L1668.98 63.2184 Q1673.12 65.3654 1677.13 66.4591 Q1681.14 67.5124 1685.07 67.5124 Q1690.33 67.5124 1693.17 65.73 Q1696 63.9071 1696 60.6258 Q1696 57.5877 1693.94 55.9673 Q1691.91 54.3469 1684.98 52.8481 L1682.39 52.2405 Q1675.46 50.7821 1672.39 47.7845 Q1669.31 44.7463 1669.31 39.4801 Q1669.31 33.0797 1673.84 29.5959 Q1678.38 26.1121 1686.73 26.1121 Q1690.86 26.1121 1694.5 26.7198 Q1698.15 27.3274 1701.23 28.5427 Z" fill="#000000" fill-rule="evenodd" fill-opacity="1" /><path clip-path="url(#clip730)" d="M1744.45 28.5427 L1744.45 35.5912 Q1741.29 33.9709 1737.89 33.1607 Q1734.49 32.3505 1730.84 32.3505 Q1725.29 32.3505 1722.5 34.0519 Q1719.74 35.7533 1719.74 39.156 Q1719.74 41.7486 1721.73 43.2475 Q1723.71 44.7058 1729.71 46.0426 L1732.26 46.6097 Q1740.2 48.3111 1743.52 51.4303 Q1746.88 54.509 1746.88 60.0587 Q1746.88 66.3781 1741.86 70.0644 Q1736.88 73.7508 1728.13 73.7508 Q1724.48 73.7508 1720.51 73.0216 Q1716.58 72.3329 1712.21 70.9151 L1712.21 63.2184 Q1716.34 65.3654 1720.35 66.4591 Q1724.36 67.5124 1728.29 67.5124 Q1733.55 67.5124 1736.39 65.73 Q1739.23 63.9071 1739.23 60.6258 Q1739.23 57.5877 1737.16 55.9673 Q1735.13 54.3469 1728.21 52.8481 L1725.61 52.2405 Q1718.69 50.7821 1715.61 47.7845 Q1712.53 44.7463 1712.53 39.4801 Q1712.53 33.0797 1717.07 29.5959 Q1721.6 26.1121 1729.95 26.1121 Q1734.08 26.1121 1737.73 26.7198 Q1741.37 27.3274 1744.45 28.5427 Z" fill="#000000" fill-rule="evenodd" fill-opacity="1" /><polyline clip-path="url(#clip732)" style="stroke:#e31a1c; stroke-linecap:butt; stroke-linejoin:round; stroke-width:4; stroke-opacity:1; fill:none" points="
  218.754,1447.87 239.681,1447.87 260.609,1447.87 281.537,1447.87 302.465,1447.87 323.392,1447.87 344.32,1447.85 365.248,1447.79 386.176,1447.62 407.103,1447.16 
  428.031,1446.12 448.959,1444.15 469.887,1441.03 490.814,1437.11 511.742,1433.78 532.67,1433.55 553.598,1438.8 574.525,1445.65 595.453,1447.6 616.381,1447.81 
  637.309,1447.81 658.236,1447.57 679.164,1443.32 700.092,1408.44 721.02,1342.26 741.947,1263.81 762.875,1181.35 783.803,1104.12 804.731,1042.19 825.658,1005.34 
  846.586,1001.38 867.514,1050.32 888.442,1124.5 909.369,1201.34 930.297,1272.56 951.225,1330.75 972.152,1371.47 993.08,1397.16 1014.01,1410.31 1034.94,1405.21 
  1055.86,1380.07 1076.79,1331.68 1097.72,1255.32 1118.65,1145.14 1139.57,985.093 1160.5,833.362 1181.43,690.54 1202.36,575.804 1223.29,509.49 1244.21,503.895 
  1265.14,560.19 1286.07,691.557 1307,840.799 1327.92,997.601 1348.85,1143.19 1369.78,1265.6 1390.71,1359.04 1411.64,1428.57 1432.56,1447.87 1453.49,1447.87 
  1474.42,1447.87 1495.35,1447.87 1516.27,1447.87 1537.2,1447.87 1558.13,1447.87 1579.06,1447.87 1599.98,1447.87 1620.91,1447.87 1641.84,1447.87 1662.77,1447.87 
  1683.7,1447.82 1704.62,1441.2 1725.55,1396.53 1746.48,1317.77 1767.41,1217.94 1788.33,1111.07 1809.26,1013.86 1830.19,942.634 1851.12,909.415 1872.05,902.007 
  1892.97,973.7 1913.9,1059.69 1934.83,1147.8 1955.76,1227.85 1976.68,1294.02 1997.61,1345.52 2018.54,1383.3 2039.47,1409.38 2060.4,1426.33 2081.32,1436.67 
  2102.25,1442.52 2123.18,1445.54 2144.11,1446.95 2165.03,1447.55 2185.96,1447.77 2206.89,1447.84 2227.82,1447.87 2248.75,1447.87 2269.67,1447.87 2290.6,1447.87 
  
  "/>
<polyline clip-path="url(#clip732)" style="stroke:#377db8; stroke-linecap:butt; stroke-linejoin:round; stroke-width:4; stroke-opacity:1; fill:none" points="
  218.754,1447.87 239.681,1447.87 260.609,1447.87 281.537,1447.87 302.465,1447.87 323.392,1447.85 344.32,1447.81 365.248,1447.69 386.176,1447.42 407.103,1446.89 
  428.031,1445.97 448.959,1444.68 469.887,1443.3 490.814,1442.47 511.742,1443 532.67,1444.89 553.598,1446.6 574.525,1447.26 595.453,1447.4 616.381,1447.29 
  637.309,1446.96 658.236,1446.66 679.164,1446.83 700.092,1447.34 721.02,1447.65 741.947,1447.75 762.875,1447.77 783.803,1447.71 804.731,1447.37 825.658,1445.79 
  846.586,1442.96 867.514,1447.75 888.442,1447.87 909.369,1447.87 930.297,1447.87 951.225,1447.87 972.152,1447.72 993.08,1437.55 1014.01,1433.8 1034.94,1433.13 
  1055.86,1435.16 1076.79,1439.77 1097.72,1443.9 1118.65,1447.71 1139.57,1447.87 1160.5,1447.87 1181.43,1447.87 1202.36,1447.87 1223.29,1447.87 1244.21,1447.87 
  1265.14,1446.67 1286.07,1350.75 1307,1289.83 1327.92,1235.63 1348.85,1194.79 1369.78,1172.52 1390.71,1170.65 1411.64,1186.76 1432.56,1221.41 1453.49,1266.45 
  1474.42,1310.91 1495.35,1345.39 1516.27,1363.88 1537.2,1360.09 1558.13,1327.8 1579.06,1260.49 1599.98,1154.34 1620.91,1013.99 1641.84,853.462 1662.77,694.963 
  1683.7,563.528 1704.62,483.258 1725.55,477.62 1746.48,544.635 1767.41,668.636 1788.33,827.891 1809.26,999.016 1830.19,1161.13 1851.12,1298.46 1872.05,1447.87 
  1892.97,1447.87 1913.9,1447.87 1934.83,1447.87 1955.76,1447.87 1976.68,1447.87 1997.61,1447.87 2018.54,1447.87 2039.47,1447.87 2060.4,1447.87 2081.32,1447.87 
  2102.25,1447.87 2123.18,1447.87 2144.11,1447.87 2165.03,1447.87 2185.96,1447.87 2206.89,1447.87 2227.82,1447.87 2248.75,1447.87 2269.67,1447.87 2290.6,1447.87 
  
  "/>
<polyline clip-path="url(#clip732)" style="stroke:#4dae49; stroke-linecap:butt; stroke-linejoin:round; stroke-width:4; stroke-opacity:1; fill:none" points="
  218.754,1447.87 239.681,1447.87 260.609,1447.87 281.537,1447.87 302.465,1447.87 323.392,1447.86 344.32,1447.81 365.248,1447.65 386.176,1447.17 407.103,1445.81 
  428.031,1442.41 448.959,1434.65 469.887,1418.59 490.814,1388.35 511.742,1336.54 532.67,1256.09 553.598,1143.36 574.525,1002.3 595.453,842.213 616.381,670.256 
  637.309,497.797 658.236,339.578 679.164,215.258 700.092,162.047 721.02,197.965 741.947,318.49 762.875,512.419 783.803,753.229 804.731,1004.76 825.658,1231.3 
  846.586,1404.25 867.514,1447.87 888.442,1447.87 909.369,1447.87 930.297,1447.87 951.225,1447.87 972.152,1447.87 993.08,1447.87 1014.01,1424.13 1034.94,1400.63 
  1055.86,1379.45 1076.79,1360.37 1097.72,1347.81 1118.65,1350.31 1139.57,1432.12 1160.5,1447.46 1181.43,1447.83 1202.36,1447.83 1223.29,1447.27 1244.21,1440.96 
  1265.14,1420.05 1286.07,1410.5 1307,1390.13 1327.92,1371.53 1348.85,1364.36 1369.78,1370.28 1390.71,1385.81 1411.64,1401.13 1432.56,1429.99 1453.49,1446.28 
  1474.42,1447.87 1495.35,1447.87 1516.27,1447.87 1537.2,1447.83 1558.13,1445.7 1579.06,1442.64 1599.98,1442.53 1620.91,1444.45 1641.84,1446.68 1662.77,1447.56 
  1683.7,1447.74 1704.62,1447.8 1725.55,1447.85 1746.48,1447.87 1767.41,1447.87 1788.33,1447.87 1809.26,1447.87 1830.19,1447.87 1851.12,1447.87 1872.05,1447.87 
  1892.97,1447.87 1913.9,1447.87 1934.83,1447.87 1955.76,1447.87 1976.68,1447.85 1997.61,1445.93 2018.54,1443.64 2039.47,1442.77 2060.4,1443.36 2081.32,1444.63 
  2102.25,1445.88 2123.18,1446.82 2144.11,1447.38 2165.03,1447.67 2185.96,1447.8 2206.89,1447.85 2227.82,1447.87 2248.75,1447.87 2269.67,1447.87 2290.6,1447.87 
  
  "/>
<path clip-path="url(#clip730)" d="
M1986.54 376.265 L2279.55 376.265 L2279.55 168.905 L1986.54 168.905  Z
  " fill="#ffffff" fill-rule="evenodd" fill-opacity="1"/>
<polyline clip-path="url(#clip730)" style="stroke:#000000; stroke-linecap:butt; stroke-linejoin:round; stroke-width:4; stroke-opacity:1; fill:none" points="
  1986.54,376.265 2279.55,376.265 2279.55,168.905 1986.54,168.905 1986.54,376.265 
  "/>
<polyline clip-path="url(#clip730)" style="stroke:#e31a1c; stroke-linecap:butt; stroke-linejoin:round; stroke-width:4; stroke-opacity:1; fill:none" points="
  2010.54,220.745 2154.54,220.745 
  "/>
<path clip-path="url(#clip730)" d="M2192.38 240.432 Q2190.58 245.062 2188.87 246.474 Q2187.15 247.886 2184.28 247.886 L2180.88 247.886 L2180.88 244.321 L2183.38 244.321 Q2185.14 244.321 2186.11 243.488 Q2187.08 242.654 2188.26 239.552 L2189.03 237.608 L2178.54 212.099 L2183.06 212.099 L2191.16 232.377 L2199.26 212.099 L2203.77 212.099 L2192.38 240.432 Z" fill="#000000" fill-rule="evenodd" fill-opacity="1" /><path clip-path="url(#clip730)" d="M2211.06 234.089 L2218.7 234.089 L2218.7 207.724 L2210.39 209.391 L2210.39 205.131 L2218.66 203.465 L2223.33 203.465 L2223.33 234.089 L2230.97 234.089 L2230.97 238.025 L2211.06 238.025 L2211.06 234.089 Z" fill="#000000" fill-rule="evenodd" fill-opacity="1" /><polyline clip-path="url(#clip730)" style="stroke:#377db8; stroke-linecap:butt; stroke-linejoin:round; stroke-width:4; stroke-opacity:1; fill:none" points="
  2010.54,272.585 2154.54,272.585 
  "/>
<path clip-path="url(#clip730)" d="M2192.38 292.272 Q2190.58 296.902 2188.87 298.314 Q2187.15 299.726 2184.28 299.726 L2180.88 299.726 L2180.88 296.161 L2183.38 296.161 Q2185.14 296.161 2186.11 295.328 Q2187.08 294.494 2188.26 291.392 L2189.03 289.448 L2178.54 263.939 L2183.06 263.939 L2191.16 284.217 L2199.26 263.939 L2203.77 263.939 L2192.38 292.272 Z" fill="#000000" fill-rule="evenodd" fill-opacity="1" /><path clip-path="url(#clip730)" d="M2214.28 285.929 L2230.6 285.929 L2230.6 289.865 L2208.66 289.865 L2208.66 285.929 Q2211.32 283.175 2215.9 278.545 Q2220.51 273.893 2221.69 272.55 Q2223.93 270.027 2224.81 268.291 Q2225.72 266.531 2225.72 264.842 Q2225.72 262.087 2223.77 260.351 Q2221.85 258.615 2218.75 258.615 Q2216.55 258.615 2214.1 259.379 Q2211.67 260.143 2208.89 261.694 L2208.89 256.971 Q2211.71 255.837 2214.17 255.258 Q2216.62 254.68 2218.66 254.68 Q2224.03 254.68 2227.22 257.365 Q2230.42 260.05 2230.42 264.541 Q2230.42 266.67 2229.61 268.592 Q2228.82 270.49 2226.71 273.082 Q2226.13 273.754 2223.03 276.971 Q2219.93 280.166 2214.28 285.929 Z" fill="#000000" fill-rule="evenodd" fill-opacity="1" /><polyline clip-path="url(#clip730)" style="stroke:#4dae49; stroke-linecap:butt; stroke-linejoin:round; stroke-width:4; stroke-opacity:1; fill:none" points="
  2010.54,324.425 2154.54,324.425 
  "/>
<path clip-path="url(#clip730)" d="M2192.38 344.112 Q2190.58 348.742 2188.87 350.154 Q2187.15 351.566 2184.28 351.566 L2180.88 351.566 L2180.88 348.001 L2183.38 348.001 Q2185.14 348.001 2186.11 347.168 Q2187.08 346.334 2188.26 343.232 L2189.03 341.288 L2178.54 315.779 L2183.06 315.779 L2191.16 336.057 L2199.26 315.779 L2203.77 315.779 L2192.38 344.112 Z" fill="#000000" fill-rule="evenodd" fill-opacity="1" /><path clip-path="url(#clip730)" d="M2224.42 323.07 Q2227.78 323.788 2229.65 326.057 Q2231.55 328.325 2231.55 331.658 Q2231.55 336.774 2228.03 339.575 Q2224.51 342.376 2218.03 342.376 Q2215.86 342.376 2213.54 341.936 Q2211.25 341.519 2208.8 340.663 L2208.8 336.149 Q2210.74 337.283 2213.06 337.862 Q2215.37 338.441 2217.89 338.441 Q2222.29 338.441 2224.58 336.705 Q2226.9 334.969 2226.9 331.658 Q2226.9 328.603 2224.75 326.89 Q2222.62 325.154 2218.8 325.154 L2214.77 325.154 L2214.77 321.311 L2218.98 321.311 Q2222.43 321.311 2224.26 319.946 Q2226.09 318.557 2226.09 315.964 Q2226.09 313.302 2224.19 311.89 Q2222.31 310.455 2218.8 310.455 Q2216.87 310.455 2214.68 310.871 Q2212.48 311.288 2209.84 312.168 L2209.84 308.001 Q2212.5 307.26 2214.81 306.89 Q2217.15 306.52 2219.21 306.52 Q2224.54 306.52 2227.64 308.95 Q2230.74 311.358 2230.74 315.478 Q2230.74 318.348 2229.1 320.339 Q2227.45 322.307 2224.42 323.07 Z" fill="#000000" fill-rule="evenodd" fill-opacity="1" /></svg>
