<?xml version="1.0" encoding="utf-8"?>
<svg xmlns="http://www.w3.org/2000/svg" xmlns:xlink="http://www.w3.org/1999/xlink" width="600" height="400" viewBox="0 0 2400 1600">
<defs>
  <clipPath id="clip080">
    <rect x="0" y="0" width="2400" height="1600"/>
  </clipPath>
</defs>
<path clip-path="url(#clip080)" d="
M0 1600 L2400 1600 L2400 0 L0 0  Z
  " fill="#ffffff" fill-rule="evenodd" fill-opacity="1"/>
<defs>
  <clipPath id="clip081">
    <rect x="480" y="0" width="1681" height="1600"/>
  </clipPath>
</defs>
<defs>
  <clipPath id="clip082">
    <rect x="186" y="47" width="2167" height="1440"/>
  </clipPath>
</defs>
<path clip-path="url(#clip080)" d="
M186.76 1486.45 L2352.76 1486.45 L2352.76 123.472 L186.76 123.472  Z
  " fill="#ffffff" fill-rule="evenodd" fill-opacity="1"/>
<defs>
  <clipPath id="clip083">
    <rect x="186" y="123" width="2167" height="1364"/>
  </clipPath>
</defs>
<polyline clip-path="url(#clip083)" style="stroke:#000000; stroke-linecap:butt; stroke-linejoin:round; stroke-width:2; stroke-opacity:0.1; fill:none" points="
  248.062,1486.45 248.062,123.472 
  "/>
<polyline clip-path="url(#clip083)" style="stroke:#000000; stroke-linecap:butt; stroke-linejoin:round; stroke-width:2; stroke-opacity:0.1; fill:none" points="
  758.91,1486.45 758.91,123.472 
  "/>
<polyline clip-path="url(#clip083)" style="stroke:#000000; stroke-linecap:butt; stroke-linejoin:round; stroke-width:2; stroke-opacity:0.1; fill:none" points="
  1269.76,1486.45 1269.76,123.472 
  "/>
<polyline clip-path="url(#clip083)" style="stroke:#000000; stroke-linecap:butt; stroke-linejoin:round; stroke-width:2; stroke-opacity:0.1; fill:none" points="
  1780.61,1486.45 1780.61,123.472 
  "/>
<polyline clip-path="url(#clip083)" style="stroke:#000000; stroke-linecap:butt; stroke-linejoin:round; stroke-width:2; stroke-opacity:0.1; fill:none" points="
  2291.45,1486.45 2291.45,123.472 
  "/>
<polyline clip-path="url(#clip080)" style="stroke:#000000; stroke-linecap:butt; stroke-linejoin:round; stroke-width:4; stroke-opacity:1; fill:none" points="
  186.76,1486.45 2352.76,1486.45 
  "/>
<polyline clip-path="url(#clip080)" style="stroke:#000000; stroke-linecap:butt; stroke-linejoin:round; stroke-width:4; stroke-opacity:1; fill:none" points="
  248.062,1486.45 248.062,1467.55 
  "/>
<polyline clip-path="url(#clip080)" style="stroke:#000000; stroke-linecap:butt; stroke-linejoin:round; stroke-width:4; stroke-opacity:1; fill:none" points="
  758.91,1486.45 758.91,1467.55 
  "/>
<polyline clip-path="url(#clip080)" style="stroke:#000000; stroke-linecap:butt; stroke-linejoin:round; stroke-width:4; stroke-opacity:1; fill:none" points="
  1269.76,1486.45 1269.76,1467.55 
  "/>
<polyline clip-path="url(#clip080)" style="stroke:#000000; stroke-linecap:butt; stroke-linejoin:round; stroke-width:4; stroke-opacity:1; fill:none" points="
  1780.61,1486.45 1780.61,1467.55 
  "/>
<polyline clip-path="url(#clip080)" style="stroke:#000000; stroke-linecap:butt; stroke-linejoin:round; stroke-width:4; stroke-opacity:1; fill:none" points="
  2291.45,1486.45 2291.45,1467.55 
  "/>
<path clip-path="url(#clip080)" d="M194.59 1532.02 L224.266 1532.02 L224.266 1535.95 L194.59 1535.95 L194.59 1532.02 Z" fill="#000000" fill-rule="evenodd" fill-opacity="1" /><path clip-path="url(#clip080)" d="M235.168 1544.91 L242.807 1544.91 L242.807 1518.55 L234.497 1520.21 L234.497 1515.95 L242.761 1514.29 L247.437 1514.29 L247.437 1544.91 L255.076 1544.91 L255.076 1548.85 L235.168 1548.85 L235.168 1544.91 Z" fill="#000000" fill-rule="evenodd" fill-opacity="1" /><path clip-path="url(#clip080)" d="M264.52 1542.97 L269.404 1542.97 L269.404 1548.85 L264.52 1548.85 L264.52 1542.97 Z" fill="#000000" fill-rule="evenodd" fill-opacity="1" /><path clip-path="url(#clip080)" d="M289.589 1517.37 Q285.978 1517.37 284.15 1520.93 Q282.344 1524.47 282.344 1531.6 Q282.344 1538.71 284.15 1542.27 Q285.978 1545.82 289.589 1545.82 Q293.224 1545.82 295.029 1542.27 Q296.858 1538.71 296.858 1531.6 Q296.858 1524.47 295.029 1520.93 Q293.224 1517.37 289.589 1517.37 M289.589 1513.66 Q295.4 1513.66 298.455 1518.27 Q301.534 1522.85 301.534 1531.6 Q301.534 1540.33 298.455 1544.94 Q295.4 1549.52 289.589 1549.52 Q283.779 1549.52 280.701 1544.94 Q277.645 1540.33 277.645 1531.6 Q277.645 1522.85 280.701 1518.27 Q283.779 1513.66 289.589 1513.66 Z" fill="#000000" fill-rule="evenodd" fill-opacity="1" /><path clip-path="url(#clip080)" d="M705.936 1532.02 L735.611 1532.02 L735.611 1535.95 L705.936 1535.95 L705.936 1532.02 Z" fill="#000000" fill-rule="evenodd" fill-opacity="1" /><path clip-path="url(#clip080)" d="M755.704 1517.37 Q752.093 1517.37 750.264 1520.93 Q748.459 1524.47 748.459 1531.6 Q748.459 1538.71 750.264 1542.27 Q752.093 1545.82 755.704 1545.82 Q759.338 1545.82 761.144 1542.27 Q762.972 1538.71 762.972 1531.6 Q762.972 1524.47 761.144 1520.93 Q759.338 1517.37 755.704 1517.37 M755.704 1513.66 Q761.514 1513.66 764.57 1518.27 Q767.648 1522.85 767.648 1531.6 Q767.648 1540.33 764.57 1544.94 Q761.514 1549.52 755.704 1549.52 Q749.894 1549.52 746.815 1544.94 Q743.76 1540.33 743.76 1531.6 Q743.76 1522.85 746.815 1518.27 Q749.894 1513.66 755.704 1513.66 Z" fill="#000000" fill-rule="evenodd" fill-opacity="1" /><path clip-path="url(#clip080)" d="M775.866 1542.97 L780.75 1542.97 L780.75 1548.85 L775.866 1548.85 L775.866 1542.97 Z" fill="#000000" fill-rule="evenodd" fill-opacity="1" /><path clip-path="url(#clip080)" d="M790.982 1514.29 L809.338 1514.29 L809.338 1518.22 L795.264 1518.22 L795.264 1526.7 Q796.282 1526.35 797.301 1526.19 Q798.319 1526 799.338 1526 Q805.125 1526 808.505 1529.17 Q811.884 1532.34 811.884 1537.76 Q811.884 1543.34 808.412 1546.44 Q804.94 1549.52 798.62 1549.52 Q796.444 1549.52 794.176 1549.15 Q791.931 1548.78 789.523 1548.04 L789.523 1543.34 Q791.607 1544.47 793.829 1545.03 Q796.051 1545.58 798.528 1545.58 Q802.532 1545.58 804.87 1543.48 Q807.208 1541.37 807.208 1537.76 Q807.208 1534.15 804.87 1532.04 Q802.532 1529.94 798.528 1529.94 Q796.653 1529.94 794.778 1530.35 Q792.926 1530.77 790.982 1531.65 L790.982 1514.29 Z" fill="#000000" fill-rule="evenodd" fill-opacity="1" /><path clip-path="url(#clip080)" d="M1247.14 1517.37 Q1243.53 1517.37 1241.7 1520.93 Q1239.9 1524.47 1239.9 1531.6 Q1239.9 1538.71 1241.7 1542.27 Q1243.53 1545.82 1247.14 1545.82 Q1250.78 1545.82 1252.58 1542.27 Q1254.41 1538.71 1254.41 1531.6 Q1254.41 1524.47 1252.58 1520.93 Q1250.78 1517.37 1247.14 1517.37 M1247.14 1513.66 Q1252.95 1513.66 1256.01 1518.27 Q1259.09 1522.85 1259.09 1531.6 Q1259.09 1540.33 1256.01 1544.94 Q1252.95 1549.52 1247.14 1549.52 Q1241.33 1549.52 1238.25 1544.94 Q1235.2 1540.33 1235.2 1531.6 Q1235.2 1522.85 1238.25 1518.27 Q1241.33 1513.66 1247.14 1513.66 Z" fill="#000000" fill-rule="evenodd" fill-opacity="1" /><path clip-path="url(#clip080)" d="M1267.3 1542.97 L1272.19 1542.97 L1272.19 1548.85 L1267.3 1548.85 L1267.3 1542.97 Z" fill="#000000" fill-rule="evenodd" fill-opacity="1" /><path clip-path="url(#clip080)" d="M1292.37 1517.37 Q1288.76 1517.37 1286.93 1520.93 Q1285.13 1524.47 1285.13 1531.6 Q1285.13 1538.71 1286.93 1542.27 Q1288.76 1545.82 1292.37 1545.82 Q1296.01 1545.82 1297.81 1542.27 Q1299.64 1538.71 1299.64 1531.6 Q1299.64 1524.47 1297.81 1520.93 Q1296.01 1517.37 1292.37 1517.37 M1292.37 1513.66 Q1298.18 1513.66 1301.24 1518.27 Q1304.32 1522.85 1304.32 1531.6 Q1304.32 1540.33 1301.24 1544.94 Q1298.18 1549.52 1292.37 1549.52 Q1286.56 1549.52 1283.48 1544.94 Q1280.43 1540.33 1280.43 1531.6 Q1280.43 1522.85 1283.48 1518.27 Q1286.56 1513.66 1292.37 1513.66 Z" fill="#000000" fill-rule="evenodd" fill-opacity="1" /><path clip-path="url(#clip080)" d="M1758.49 1517.37 Q1754.88 1517.37 1753.05 1520.93 Q1751.24 1524.47 1751.24 1531.6 Q1751.24 1538.71 1753.05 1542.27 Q1754.88 1545.82 1758.49 1545.82 Q1762.12 1545.82 1763.93 1542.27 Q1765.76 1538.71 1765.76 1531.6 Q1765.76 1524.47 1763.93 1520.93 Q1762.12 1517.37 1758.49 1517.37 M1758.49 1513.66 Q1764.3 1513.66 1767.35 1518.27 Q1770.43 1522.85 1770.43 1531.6 Q1770.43 1540.33 1767.35 1544.94 Q1764.3 1549.52 1758.49 1549.52 Q1752.68 1549.52 1749.6 1544.94 Q1746.54 1540.33 1746.54 1531.6 Q1746.54 1522.85 1749.6 1518.27 Q1752.68 1513.66 1758.49 1513.66 Z" fill="#000000" fill-rule="evenodd" fill-opacity="1" /><path clip-path="url(#clip080)" d="M1778.65 1542.97 L1783.53 1542.97 L1783.53 1548.85 L1778.65 1548.85 L1778.65 1542.97 Z" fill="#000000" fill-rule="evenodd" fill-opacity="1" /><path clip-path="url(#clip080)" d="M1793.77 1514.29 L1812.12 1514.29 L1812.12 1518.22 L1798.05 1518.22 L1798.05 1526.7 Q1799.07 1526.35 1800.09 1526.19 Q1801.1 1526 1802.12 1526 Q1807.91 1526 1811.29 1529.17 Q1814.67 1532.34 1814.67 1537.76 Q1814.67 1543.34 1811.2 1546.44 Q1807.72 1549.52 1801.4 1549.52 Q1799.23 1549.52 1796.96 1549.15 Q1794.71 1548.78 1792.31 1548.04 L1792.31 1543.34 Q1794.39 1544.47 1796.61 1545.03 Q1798.84 1545.58 1801.31 1545.58 Q1805.32 1545.58 1807.65 1543.48 Q1809.99 1541.37 1809.99 1537.76 Q1809.99 1534.15 1807.65 1532.04 Q1805.32 1529.94 1801.31 1529.94 Q1799.44 1529.94 1797.56 1530.35 Q1795.71 1530.77 1793.77 1531.65 L1793.77 1514.29 Z" fill="#000000" fill-rule="evenodd" fill-opacity="1" /><path clip-path="url(#clip080)" d="M2258.61 1544.91 L2266.25 1544.91 L2266.25 1518.55 L2257.94 1520.21 L2257.94 1515.95 L2266.2 1514.29 L2270.88 1514.29 L2270.88 1544.91 L2278.51 1544.91 L2278.51 1548.85 L2258.61 1548.85 L2258.61 1544.91 Z" fill="#000000" fill-rule="evenodd" fill-opacity="1" /><path clip-path="url(#clip080)" d="M2287.96 1542.97 L2292.84 1542.97 L2292.84 1548.85 L2287.96 1548.85 L2287.96 1542.97 Z" fill="#000000" fill-rule="evenodd" fill-opacity="1" /><path clip-path="url(#clip080)" d="M2313.03 1517.37 Q2309.42 1517.37 2307.59 1520.93 Q2305.78 1524.47 2305.78 1531.6 Q2305.78 1538.71 2307.59 1542.27 Q2309.42 1545.82 2313.03 1545.82 Q2316.66 1545.82 2318.47 1542.27 Q2320.3 1538.71 2320.3 1531.6 Q2320.3 1524.47 2318.47 1520.93 Q2316.66 1517.37 2313.03 1517.37 M2313.03 1513.66 Q2318.84 1513.66 2321.89 1518.27 Q2324.97 1522.85 2324.97 1531.6 Q2324.97 1540.33 2321.89 1544.94 Q2318.84 1549.52 2313.03 1549.52 Q2307.22 1549.52 2304.14 1544.94 Q2301.08 1540.33 2301.08 1531.6 Q2301.08 1522.85 2304.14 1518.27 Q2307.22 1513.66 2313.03 1513.66 Z" fill="#000000" fill-rule="evenodd" fill-opacity="1" /><polyline clip-path="url(#clip083)" style="stroke:#000000; stroke-linecap:butt; stroke-linejoin:round; stroke-width:2; stroke-opacity:0.1; fill:none" points="
  186.76,1447.87 2352.76,1447.87 
  "/>
<polyline clip-path="url(#clip083)" style="stroke:#000000; stroke-linecap:butt; stroke-linejoin:round; stroke-width:2; stroke-opacity:0.1; fill:none" points="
  186.76,1242.14 2352.76,1242.14 
  "/>
<polyline clip-path="url(#clip083)" style="stroke:#000000; stroke-linecap:butt; stroke-linejoin:round; stroke-width:2; stroke-opacity:0.1; fill:none" points="
  186.76,1036.41 2352.76,1036.41 
  "/>
<polyline clip-path="url(#clip083)" style="stroke:#000000; stroke-linecap:butt; stroke-linejoin:round; stroke-width:2; stroke-opacity:0.1; fill:none" points="
  186.76,830.677 2352.76,830.677 
  "/>
<polyline clip-path="url(#clip083)" style="stroke:#000000; stroke-linecap:butt; stroke-linejoin:round; stroke-width:2; stroke-opacity:0.1; fill:none" points="
  186.76,624.944 2352.76,624.944 
  "/>
<polyline clip-path="url(#clip083)" style="stroke:#000000; stroke-linecap:butt; stroke-linejoin:round; stroke-width:2; stroke-opacity:0.1; fill:none" points="
  186.76,419.212 2352.76,419.212 
  "/>
<polyline clip-path="url(#clip083)" style="stroke:#000000; stroke-linecap:butt; stroke-linejoin:round; stroke-width:2; stroke-opacity:0.1; fill:none" points="
  186.76,213.48 2352.76,213.48 
  "/>
<polyline clip-path="url(#clip080)" style="stroke:#000000; stroke-linecap:butt; stroke-linejoin:round; stroke-width:4; stroke-opacity:1; fill:none" points="
  186.76,1486.45 186.76,123.472 
  "/>
<polyline clip-path="url(#clip080)" style="stroke:#000000; stroke-linecap:butt; stroke-linejoin:round; stroke-width:4; stroke-opacity:1; fill:none" points="
  186.76,1447.87 205.658,1447.87 
  "/>
<polyline clip-path="url(#clip080)" style="stroke:#000000; stroke-linecap:butt; stroke-linejoin:round; stroke-width:4; stroke-opacity:1; fill:none" points="
  186.76,1242.14 205.658,1242.14 
  "/>
<polyline clip-path="url(#clip080)" style="stroke:#000000; stroke-linecap:butt; stroke-linejoin:round; stroke-width:4; stroke-opacity:1; fill:none" points="
  186.76,1036.41 205.658,1036.41 
  "/>
<polyline clip-path="url(#clip080)" style="stroke:#000000; stroke-linecap:butt; stroke-linejoin:round; stroke-width:4; stroke-opacity:1; fill:none" points="
  186.76,830.677 205.658,830.677 
  "/>
<polyline clip-path="url(#clip080)" style="stroke:#000000; stroke-linecap:butt; stroke-linejoin:round; stroke-width:4; stroke-opacity:1; fill:none" points="
  186.76,624.944 205.658,624.944 
  "/>
<polyline clip-path="url(#clip080)" style="stroke:#000000; stroke-linecap:butt; stroke-linejoin:round; stroke-width:4; stroke-opacity:1; fill:none" points="
  186.76,419.212 205.658,419.212 
  "/>
<polyline clip-path="url(#clip080)" style="stroke:#000000; stroke-linecap:butt; stroke-linejoin:round; stroke-width:4; stroke-opacity:1; fill:none" points="
  186.76,213.48 205.658,213.48 
  "/>
<path clip-path="url(#clip080)" d="M63.4226 1433.67 Q59.8115 1433.67 57.9828 1437.24 Q56.1773 1440.78 56.1773 1447.91 Q56.1773 1455.01 57.9828 1458.58 Q59.8115 1462.12 63.4226 1462.12 Q67.0569 1462.12 68.8624 1458.58 Q70.6911 1455.01 70.6911 1447.91 Q70.6911 1440.78 68.8624 1437.24 Q67.0569 1433.67 63.4226 1433.67 M63.4226 1429.97 Q69.2328 1429.97 72.2883 1434.57 Q75.367 1439.16 75.367 1447.91 Q75.367 1456.63 72.2883 1461.24 Q69.2328 1465.82 63.4226 1465.82 Q57.6125 1465.82 54.5338 1461.24 Q51.4782 1456.63 51.4782 1447.91 Q51.4782 1439.16 54.5338 1434.57 Q57.6125 1429.97 63.4226 1429.97 Z" fill="#000000" fill-rule="evenodd" fill-opacity="1" /><path clip-path="url(#clip080)" d="M83.5845 1459.27 L88.4688 1459.27 L88.4688 1465.15 L83.5845 1465.15 L83.5845 1459.27 Z" fill="#000000" fill-rule="evenodd" fill-opacity="1" /><path clip-path="url(#clip080)" d="M108.654 1433.67 Q105.043 1433.67 103.214 1437.24 Q101.409 1440.78 101.409 1447.91 Q101.409 1455.01 103.214 1458.58 Q105.043 1462.12 108.654 1462.12 Q112.288 1462.12 114.094 1458.58 Q115.922 1455.01 115.922 1447.91 Q115.922 1440.78 114.094 1437.24 Q112.288 1433.67 108.654 1433.67 M108.654 1429.97 Q114.464 1429.97 117.52 1434.57 Q120.598 1439.16 120.598 1447.91 Q120.598 1456.63 117.52 1461.24 Q114.464 1465.82 108.654 1465.82 Q102.844 1465.82 99.765 1461.24 Q96.7095 1456.63 96.7095 1447.91 Q96.7095 1439.16 99.765 1434.57 Q102.844 1429.97 108.654 1429.97 Z" fill="#000000" fill-rule="evenodd" fill-opacity="1" /><path clip-path="url(#clip080)" d="M138.816 1433.67 Q135.205 1433.67 133.376 1437.24 Q131.57 1440.78 131.57 1447.91 Q131.57 1455.01 133.376 1458.58 Q135.205 1462.12 138.816 1462.12 Q142.45 1462.12 144.256 1458.58 Q146.084 1455.01 146.084 1447.91 Q146.084 1440.78 144.256 1437.24 Q142.45 1433.67 138.816 1433.67 M138.816 1429.97 Q144.626 1429.97 147.681 1434.57 Q150.76 1439.16 150.76 1447.91 Q150.76 1456.63 147.681 1461.24 Q144.626 1465.82 138.816 1465.82 Q133.006 1465.82 129.927 1461.24 Q126.871 1456.63 126.871 1447.91 Q126.871 1439.16 129.927 1434.57 Q133.006 1429.97 138.816 1429.97 Z" fill="#000000" fill-rule="evenodd" fill-opacity="1" /><path clip-path="url(#clip080)" d="M64.6495 1227.94 Q61.0384 1227.94 59.2097 1231.5 Q57.4041 1235.05 57.4041 1242.18 Q57.4041 1249.28 59.2097 1252.85 Q61.0384 1256.39 64.6495 1256.39 Q68.2837 1256.39 70.0892 1252.85 Q71.9179 1249.28 71.9179 1242.18 Q71.9179 1235.05 70.0892 1231.5 Q68.2837 1227.94 64.6495 1227.94 M64.6495 1224.24 Q70.4596 1224.24 73.5152 1228.84 Q76.5938 1233.43 76.5938 1242.18 Q76.5938 1250.9 73.5152 1255.51 Q70.4596 1260.09 64.6495 1260.09 Q58.8393 1260.09 55.7606 1255.51 Q52.7051 1250.9 52.7051 1242.18 Q52.7051 1233.43 55.7606 1228.84 Q58.8393 1224.24 64.6495 1224.24 Z" fill="#000000" fill-rule="evenodd" fill-opacity="1" /><path clip-path="url(#clip080)" d="M84.8114 1253.54 L89.6956 1253.54 L89.6956 1259.42 L84.8114 1259.42 L84.8114 1253.54 Z" fill="#000000" fill-rule="evenodd" fill-opacity="1" /><path clip-path="url(#clip080)" d="M109.881 1227.94 Q106.27 1227.94 104.441 1231.5 Q102.635 1235.05 102.635 1242.18 Q102.635 1249.28 104.441 1252.85 Q106.27 1256.39 109.881 1256.39 Q113.515 1256.39 115.32 1252.85 Q117.149 1249.28 117.149 1242.18 Q117.149 1235.05 115.32 1231.5 Q113.515 1227.94 109.881 1227.94 M109.881 1224.24 Q115.691 1224.24 118.746 1228.84 Q121.825 1233.43 121.825 1242.18 Q121.825 1250.9 118.746 1255.51 Q115.691 1260.09 109.881 1260.09 Q104.071 1260.09 100.992 1255.51 Q97.9363 1250.9 97.9363 1242.18 Q97.9363 1233.43 100.992 1228.84 Q104.071 1224.24 109.881 1224.24 Z" fill="#000000" fill-rule="evenodd" fill-opacity="1" /><path clip-path="url(#clip080)" d="M130.853 1255.49 L138.492 1255.49 L138.492 1229.12 L130.182 1230.79 L130.182 1226.53 L138.445 1224.86 L143.121 1224.86 L143.121 1255.49 L150.76 1255.49 L150.76 1259.42 L130.853 1259.42 L130.853 1255.49 Z" fill="#000000" fill-rule="evenodd" fill-opacity="1" /><path clip-path="url(#clip080)" d="M65.0198 1022.21 Q61.4087 1022.21 59.58 1025.77 Q57.7745 1029.31 57.7745 1036.44 Q57.7745 1043.55 59.58 1047.11 Q61.4087 1050.66 65.0198 1050.66 Q68.6541 1050.66 70.4596 1047.11 Q72.2883 1043.55 72.2883 1036.44 Q72.2883 1029.31 70.4596 1025.77 Q68.6541 1022.21 65.0198 1022.21 M65.0198 1018.5 Q70.83 1018.5 73.8855 1023.11 Q76.9642 1027.69 76.9642 1036.44 Q76.9642 1045.17 73.8855 1049.78 Q70.83 1054.36 65.0198 1054.36 Q59.2097 1054.36 56.131 1049.78 Q53.0754 1045.17 53.0754 1036.44 Q53.0754 1027.69 56.131 1023.11 Q59.2097 1018.5 65.0198 1018.5 Z" fill="#000000" fill-rule="evenodd" fill-opacity="1" /><path clip-path="url(#clip080)" d="M85.1818 1047.81 L90.066 1047.81 L90.066 1053.69 L85.1818 1053.69 L85.1818 1047.81 Z" fill="#000000" fill-rule="evenodd" fill-opacity="1" /><path clip-path="url(#clip080)" d="M110.251 1022.21 Q106.64 1022.21 104.811 1025.77 Q103.006 1029.31 103.006 1036.44 Q103.006 1043.55 104.811 1047.11 Q106.64 1050.66 110.251 1050.66 Q113.885 1050.66 115.691 1047.11 Q117.52 1043.55 117.52 1036.44 Q117.52 1029.31 115.691 1025.77 Q113.885 1022.21 110.251 1022.21 M110.251 1018.5 Q116.061 1018.5 119.117 1023.11 Q122.195 1027.69 122.195 1036.44 Q122.195 1045.17 119.117 1049.78 Q116.061 1054.36 110.251 1054.36 Q104.441 1054.36 101.362 1049.78 Q98.3067 1045.17 98.3067 1036.44 Q98.3067 1027.69 101.362 1023.11 Q104.441 1018.5 110.251 1018.5 Z" fill="#000000" fill-rule="evenodd" fill-opacity="1" /><path clip-path="url(#clip080)" d="M134.441 1049.75 L150.76 1049.75 L150.76 1053.69 L128.816 1053.69 L128.816 1049.75 Q131.478 1047 136.061 1042.37 Q140.668 1037.72 141.848 1036.37 Q144.093 1033.85 144.973 1032.11 Q145.876 1030.36 145.876 1028.67 Q145.876 1025.91 143.931 1024.17 Q142.01 1022.44 138.908 1022.44 Q136.709 1022.44 134.256 1023.2 Q131.825 1023.97 129.047 1025.52 L129.047 1020.8 Q131.871 1019.66 134.325 1019.08 Q136.779 1018.5 138.816 1018.5 Q144.186 1018.5 147.38 1021.19 Q150.575 1023.87 150.575 1028.36 Q150.575 1030.49 149.765 1032.42 Q148.978 1034.31 146.871 1036.91 Q146.293 1037.58 143.191 1040.8 Q140.089 1043.99 134.441 1049.75 Z" fill="#000000" fill-rule="evenodd" fill-opacity="1" /><path clip-path="url(#clip080)" d="M64.0708 816.475 Q60.4597 816.475 58.631 820.04 Q56.8254 823.582 56.8254 830.711 Q56.8254 837.818 58.631 841.382 Q60.4597 844.924 64.0708 844.924 Q67.705 844.924 69.5105 841.382 Q71.3392 837.818 71.3392 830.711 Q71.3392 823.582 69.5105 820.04 Q67.705 816.475 64.0708 816.475 M64.0708 812.772 Q69.8809 812.772 72.9365 817.378 Q76.0151 821.961 76.0151 830.711 Q76.0151 839.438 72.9365 844.045 Q69.8809 848.628 64.0708 848.628 Q58.2606 848.628 55.1819 844.045 Q52.1264 839.438 52.1264 830.711 Q52.1264 821.961 55.1819 817.378 Q58.2606 812.772 64.0708 812.772 Z" fill="#000000" fill-rule="evenodd" fill-opacity="1" /><path clip-path="url(#clip080)" d="M84.2327 842.077 L89.1169 842.077 L89.1169 847.957 L84.2327 847.957 L84.2327 842.077 Z" fill="#000000" fill-rule="evenodd" fill-opacity="1" /><path clip-path="url(#clip080)" d="M109.302 816.475 Q105.691 816.475 103.862 820.04 Q102.057 823.582 102.057 830.711 Q102.057 837.818 103.862 841.382 Q105.691 844.924 109.302 844.924 Q112.936 844.924 114.742 841.382 Q116.57 837.818 116.57 830.711 Q116.57 823.582 114.742 820.04 Q112.936 816.475 109.302 816.475 M109.302 812.772 Q115.112 812.772 118.168 817.378 Q121.246 821.961 121.246 830.711 Q121.246 839.438 118.168 844.045 Q115.112 848.628 109.302 848.628 Q103.492 848.628 100.413 844.045 Q97.3576 839.438 97.3576 830.711 Q97.3576 821.961 100.413 817.378 Q103.492 812.772 109.302 812.772 Z" fill="#000000" fill-rule="evenodd" fill-opacity="1" /><path clip-path="url(#clip080)" d="M143.631 829.322 Q146.987 830.04 148.862 832.308 Q150.76 834.577 150.76 837.91 Q150.76 843.026 147.242 845.827 Q143.723 848.628 137.242 848.628 Q135.066 848.628 132.751 848.188 Q130.459 847.771 128.006 846.915 L128.006 842.401 Q129.95 843.535 132.265 844.114 Q134.58 844.693 137.103 844.693 Q141.501 844.693 143.793 842.957 Q146.107 841.22 146.107 837.91 Q146.107 834.855 143.955 833.142 Q141.825 831.406 138.006 831.406 L133.978 831.406 L133.978 827.563 L138.191 827.563 Q141.64 827.563 143.468 826.197 Q145.297 824.808 145.297 822.216 Q145.297 819.554 143.399 818.142 Q141.524 816.707 138.006 816.707 Q136.084 816.707 133.885 817.123 Q131.686 817.54 129.047 818.42 L129.047 814.253 Q131.709 813.512 134.024 813.142 Q136.362 812.772 138.422 812.772 Q143.746 812.772 146.848 815.202 Q149.95 817.609 149.95 821.73 Q149.95 824.6 148.306 826.591 Q146.663 828.558 143.631 829.322 Z" fill="#000000" fill-rule="evenodd" fill-opacity="1" /><path clip-path="url(#clip080)" d="M62.9365 610.743 Q59.3254 610.743 57.4967 614.308 Q55.6912 617.849 55.6912 624.979 Q55.6912 632.086 57.4967 635.65 Q59.3254 639.192 62.9365 639.192 Q66.5707 639.192 68.3763 635.65 Q70.205 632.086 70.205 624.979 Q70.205 617.849 68.3763 614.308 Q66.5707 610.743 62.9365 610.743 M62.9365 607.039 Q68.7467 607.039 71.8022 611.646 Q74.8809 616.229 74.8809 624.979 Q74.8809 633.706 71.8022 638.312 Q68.7467 642.896 62.9365 642.896 Q57.1264 642.896 54.0477 638.312 Q50.9921 633.706 50.9921 624.979 Q50.9921 616.229 54.0477 611.646 Q57.1264 607.039 62.9365 607.039 Z" fill="#000000" fill-rule="evenodd" fill-opacity="1" /><path clip-path="url(#clip080)" d="M83.0984 636.345 L87.9827 636.345 L87.9827 642.224 L83.0984 642.224 L83.0984 636.345 Z" fill="#000000" fill-rule="evenodd" fill-opacity="1" /><path clip-path="url(#clip080)" d="M108.168 610.743 Q104.557 610.743 102.728 614.308 Q100.922 617.849 100.922 624.979 Q100.922 632.086 102.728 635.65 Q104.557 639.192 108.168 639.192 Q111.802 639.192 113.608 635.65 Q115.436 632.086 115.436 624.979 Q115.436 617.849 113.608 614.308 Q111.802 610.743 108.168 610.743 M108.168 607.039 Q113.978 607.039 117.033 611.646 Q120.112 616.229 120.112 624.979 Q120.112 633.706 117.033 638.312 Q113.978 642.896 108.168 642.896 Q102.358 642.896 99.2789 638.312 Q96.2234 633.706 96.2234 624.979 Q96.2234 616.229 99.2789 611.646 Q102.358 607.039 108.168 607.039 Z" fill="#000000" fill-rule="evenodd" fill-opacity="1" /><path clip-path="url(#clip080)" d="M141.177 611.738 L129.371 630.187 L141.177 630.187 L141.177 611.738 M139.95 607.664 L145.83 607.664 L145.83 630.187 L150.76 630.187 L150.76 634.076 L145.83 634.076 L145.83 642.224 L141.177 642.224 L141.177 634.076 L125.575 634.076 L125.575 629.562 L139.95 607.664 Z" fill="#000000" fill-rule="evenodd" fill-opacity="1" /><path clip-path="url(#clip080)" d="M64.418 405.011 Q60.8069 405.011 58.9782 408.576 Q57.1726 412.117 57.1726 419.247 Q57.1726 426.353 58.9782 429.918 Q60.8069 433.46 64.418 433.46 Q68.0522 433.46 69.8578 429.918 Q71.6865 426.353 71.6865 419.247 Q71.6865 412.117 69.8578 408.576 Q68.0522 405.011 64.418 405.011 M64.418 401.307 Q70.2281 401.307 73.2837 405.914 Q76.3624 410.497 76.3624 419.247 Q76.3624 427.974 73.2837 432.58 Q70.2281 437.163 64.418 437.163 Q58.6078 437.163 55.5291 432.58 Q52.4736 427.974 52.4736 419.247 Q52.4736 410.497 55.5291 405.914 Q58.6078 401.307 64.418 401.307 Z" fill="#000000" fill-rule="evenodd" fill-opacity="1" /><path clip-path="url(#clip080)" d="M84.5799 430.613 L89.4641 430.613 L89.4641 436.492 L84.5799 436.492 L84.5799 430.613 Z" fill="#000000" fill-rule="evenodd" fill-opacity="1" /><path clip-path="url(#clip080)" d="M109.649 405.011 Q106.038 405.011 104.209 408.576 Q102.404 412.117 102.404 419.247 Q102.404 426.353 104.209 429.918 Q106.038 433.46 109.649 433.46 Q113.283 433.46 115.089 429.918 Q116.918 426.353 116.918 419.247 Q116.918 412.117 115.089 408.576 Q113.283 405.011 109.649 405.011 M109.649 401.307 Q115.459 401.307 118.515 405.914 Q121.594 410.497 121.594 419.247 Q121.594 427.974 118.515 432.58 Q115.459 437.163 109.649 437.163 Q103.839 437.163 100.76 432.58 Q97.7048 427.974 97.7048 419.247 Q97.7048 410.497 100.76 405.914 Q103.839 401.307 109.649 401.307 Z" fill="#000000" fill-rule="evenodd" fill-opacity="1" /><path clip-path="url(#clip080)" d="M129.857 401.932 L148.214 401.932 L148.214 405.867 L134.14 405.867 L134.14 414.339 Q135.158 413.992 136.177 413.83 Q137.195 413.645 138.214 413.645 Q144.001 413.645 147.38 416.816 Q150.76 419.988 150.76 425.404 Q150.76 430.983 147.288 434.085 Q143.816 437.163 137.496 437.163 Q135.32 437.163 133.052 436.793 Q130.807 436.423 128.399 435.682 L128.399 430.983 Q130.482 432.117 132.705 432.673 Q134.927 433.228 137.404 433.228 Q141.408 433.228 143.746 431.122 Q146.084 429.015 146.084 425.404 Q146.084 421.793 143.746 419.687 Q141.408 417.58 137.404 417.58 Q135.529 417.58 133.654 417.997 Q131.802 418.414 129.857 419.293 L129.857 401.932 Z" fill="#000000" fill-rule="evenodd" fill-opacity="1" /><path clip-path="url(#clip080)" d="M63.2606 199.279 Q59.6495 199.279 57.8208 202.843 Q56.0152 206.385 56.0152 213.515 Q56.0152 220.621 57.8208 224.186 Q59.6495 227.728 63.2606 227.728 Q66.8948 227.728 68.7004 224.186 Q70.5291 220.621 70.5291 213.515 Q70.5291 206.385 68.7004 202.843 Q66.8948 199.279 63.2606 199.279 M63.2606 195.575 Q69.0707 195.575 72.1263 200.181 Q75.205 204.765 75.205 213.515 Q75.205 222.241 72.1263 226.848 Q69.0707 231.431 63.2606 231.431 Q57.4504 231.431 54.3717 226.848 Q51.3162 222.241 51.3162 213.515 Q51.3162 204.765 54.3717 200.181 Q57.4504 195.575 63.2606 195.575 Z" fill="#000000" fill-rule="evenodd" fill-opacity="1" /><path clip-path="url(#clip080)" d="M83.4225 224.88 L88.3067 224.88 L88.3067 230.76 L83.4225 230.76 L83.4225 224.88 Z" fill="#000000" fill-rule="evenodd" fill-opacity="1" /><path clip-path="url(#clip080)" d="M108.492 199.279 Q104.881 199.279 103.052 202.843 Q101.246 206.385 101.246 213.515 Q101.246 220.621 103.052 224.186 Q104.881 227.728 108.492 227.728 Q112.126 227.728 113.932 224.186 Q115.76 220.621 115.76 213.515 Q115.76 206.385 113.932 202.843 Q112.126 199.279 108.492 199.279 M108.492 195.575 Q114.302 195.575 117.358 200.181 Q120.436 204.765 120.436 213.515 Q120.436 222.241 117.358 226.848 Q114.302 231.431 108.492 231.431 Q102.682 231.431 99.603 226.848 Q96.5474 222.241 96.5474 213.515 Q96.5474 204.765 99.603 200.181 Q102.682 195.575 108.492 195.575 Z" fill="#000000" fill-rule="evenodd" fill-opacity="1" /><path clip-path="url(#clip080)" d="M139.232 211.617 Q136.084 211.617 134.232 213.769 Q132.404 215.922 132.404 219.672 Q132.404 223.399 134.232 225.575 Q136.084 227.728 139.232 227.728 Q142.381 227.728 144.209 225.575 Q146.061 223.399 146.061 219.672 Q146.061 215.922 144.209 213.769 Q142.381 211.617 139.232 211.617 M148.515 196.964 L148.515 201.223 Q146.756 200.39 144.95 199.95 Q143.168 199.51 141.408 199.51 Q136.779 199.51 134.325 202.635 Q131.894 205.76 131.547 212.08 Q132.913 210.066 134.973 209.001 Q137.033 207.913 139.51 207.913 Q144.718 207.913 147.728 211.084 Q150.76 214.232 150.76 219.672 Q150.76 224.996 147.612 228.214 Q144.464 231.431 139.232 231.431 Q133.237 231.431 130.066 226.848 Q126.894 222.241 126.894 213.515 Q126.894 205.32 130.783 200.459 Q134.672 195.575 141.223 195.575 Q142.982 195.575 144.765 195.922 Q146.57 196.269 148.515 196.964 Z" fill="#000000" fill-rule="evenodd" fill-opacity="1" /><path clip-path="url(#clip080)" d="M856.574 23.4424 L854.893 37.9526 Q854.771 39.2643 854.566 39.6742 Q854.361 40.0431 853.705 40.0431 Q852.721 40.0431 852.721 39.0593 Q852.721 38.6494 852.885 37.5427 Q853.131 35.2883 853.131 32.9929 Q853.131 30.4106 852.639 28.812 Q852.188 27.1724 850.877 25.9837 Q849.565 24.795 847.146 24.3032 Q844.728 23.7703 840.875 23.7703 L829.808 23.7703 Q827.103 23.7703 826.447 24.2622 Q825.832 24.7541 825.258 27.0495 L819.889 48.3639 L827.513 48.3639 Q832.841 48.3639 834.932 46.8063 Q837.022 45.2487 838.334 40.289 Q838.539 39.5102 838.621 39.2233 Q838.744 38.8954 838.949 38.7314 Q839.195 38.5265 839.604 38.5265 Q839.973 38.5265 840.219 38.7724 Q840.465 38.9773 840.547 39.2233 L840.629 39.4692 Q840.629 39.8791 840.383 40.8219 L835.751 59.0211 Q835.424 60.2508 835.219 60.5377 Q835.055 60.7836 834.481 60.7836 Q834.071 60.7836 833.784 60.4967 Q833.497 60.2098 833.497 59.7589 Q833.579 59.267 833.743 58.8571 Q834.317 56.3568 834.317 54.7582 Q834.317 53.7335 834.112 53.1186 Q833.907 52.5038 833.21 51.9709 Q832.513 51.4381 831.079 51.1921 Q829.644 50.9462 827.349 50.9462 L819.233 50.9462 L814.027 71.8507 L813.658 73.7772 Q813.658 74.638 814.109 74.9659 Q814.601 75.2938 816.364 75.4578 Q818.987 75.6627 820.708 75.6627 Q822.84 75.6627 823.086 75.7447 Q823.578 75.9907 823.578 76.6465 Q823.578 77.3843 823.25 77.7942 Q822.922 78.1631 822.635 78.2041 Q822.348 78.2451 821.815 78.2451 L809.313 77.9991 L798.246 78.2451 Q796.976 78.2451 796.976 77.2203 Q796.976 76.4415 797.304 76.1136 Q797.631 75.7447 798 75.7037 Q798.369 75.6627 799.312 75.6627 Q801.361 75.6627 802.591 75.5398 Q803.821 75.4168 804.6 75.2528 Q805.419 75.0479 805.829 74.474 Q806.28 73.9002 806.485 73.4083 Q806.69 72.8755 806.977 71.6868 L818.044 27.2954 Q818.454 25.7788 818.454 25.2869 Q818.454 24.7541 818.085 24.4261 Q817.757 24.0982 816.855 23.9753 Q815.954 23.8113 815.216 23.8113 Q814.519 23.7703 813.002 23.7703 Q812.019 23.7703 811.609 23.7293 Q811.24 23.6883 810.953 23.4834 Q810.666 23.2784 810.666 22.8276 Q810.666 21.6799 811.158 21.4339 Q811.691 21.147 813.166 21.147 L854.32 21.147 Q855.959 21.147 856.328 21.5159 Q856.738 21.8438 856.574 23.4424 Z" fill="#000000" fill-rule="evenodd" fill-opacity="1" /><path clip-path="url(#clip080)" d="M866.192 57.2586 Q866.192 43.0763 871.48 31.6403 Q873.734 26.8445 876.89 22.8276 Q880.046 18.8106 882.137 17.0481 Q884.227 15.2855 884.801 15.2855 Q885.621 15.2855 885.662 16.1053 Q885.662 16.5152 884.555 17.5399 Q871.029 31.3123 871.07 57.2586 Q871.07 83.2867 884.227 96.5263 Q885.662 97.9609 885.662 98.4118 Q885.662 99.2316 884.801 99.2316 Q884.227 99.2316 882.219 97.551 Q880.21 95.8705 877.095 92.0175 Q873.98 88.1645 871.726 83.4507 Q866.192 72.0147 866.192 57.2586 Z" fill="#000000" fill-rule="evenodd" fill-opacity="1" /><path clip-path="url(#clip080)" d="M931.678 54.8402 Q931.678 60.9066 928.563 66.6041 Q925.488 72.3016 920.652 75.7447 Q915.856 79.1878 911.019 79.1878 Q905.568 79.1878 902.739 73.5313 Q897.616 94.0669 897.329 94.5998 Q896.14 96.3623 894.419 96.3623 Q893.353 96.3623 892.697 95.7065 Q892.041 95.0917 892.041 94.1079 Q892.082 93.78 892.328 92.7553 L900.526 59.7589 Q902.411 52.0939 908.109 46.6423 Q913.847 41.1498 919.996 41.1498 Q924.874 41.1498 928.276 44.7978 Q931.678 48.4459 931.678 54.8402 M925.652 51.2331 Q925.652 47.1342 924.013 45.0847 Q922.373 42.9943 919.832 42.9943 Q917.496 42.9943 914.667 44.8798 Q911.88 46.7653 909.421 50.9462 Q908.109 53.3646 907.166 56.3568 Q906.223 59.349 904.379 66.7271 Q903.723 69.6783 903.723 69.8423 Q903.723 70.1702 903.887 70.908 Q904.092 71.6458 904.584 72.7935 Q905.117 73.9002 905.855 74.8839 Q906.592 75.8677 907.945 76.6055 Q909.298 77.3023 910.937 77.3023 Q913.479 77.3023 916.184 75.2528 Q918.93 73.1624 920.939 69.3504 Q922.619 66.2762 924.136 60.4967 Q925.652 54.6762 925.652 51.2331 Z" fill="#000000" fill-rule="evenodd" fill-opacity="1" /><path clip-path="url(#clip080)" d="M937.008 98.4118 Q937.008 98.0019 938.073 96.9772 Q951.6 83.2048 951.6 57.2586 Q951.6 31.2304 938.606 18.0728 Q937.008 16.5562 937.008 16.1053 Q937.008 15.2855 937.828 15.2855 Q938.401 15.2855 940.41 16.9661 Q942.459 18.6467 945.534 22.4996 Q948.649 26.3526 950.944 31.0664 Q956.478 42.5024 956.478 57.2586 Q956.478 71.4408 951.19 82.8769 Q948.936 87.6726 945.779 91.6895 Q942.623 95.7065 940.533 97.469 Q938.442 99.2316 937.828 99.2316 Q937.008 99.2316 937.008 98.4118 Z" fill="#000000" fill-rule="evenodd" fill-opacity="1" /><path clip-path="url(#clip080)" d="M992.532 65.4974 Q992.613 64.4727 994.212 64.4727 L1045.65 64.4727 Q1048.07 64.4727 1048.11 65.4154 Q1048.11 66.4402 1045.82 66.3992 L994.786 66.3992 Q992.532 66.4402 992.532 65.4974 M992.532 49.1017 Q992.532 48.077 994.294 48.1179 L1045.57 48.1179 Q1048.07 48.1179 1048.11 49.1017 Q1048.11 50.0444 1045.98 50.0444 L994.212 50.0444 Q992.532 50.0444 992.532 49.1017 Z" fill="#000000" fill-rule="evenodd" fill-opacity="1" /><path clip-path="url(#clip080)" d="M1099.47 97.551 Q1099.47 98.2478 1098.98 98.7397 Q1098.49 99.2316 1097.79 99.2316 Q1096.6 99.2316 1096.19 98.1249 L1080.57 57.8324 Q1080.49 57.6684 1080.49 57.2586 Q1080.49 56.8487 1080.57 56.6847 L1096.19 16.3922 Q1096.6 15.2855 1097.79 15.2855 Q1098.49 15.2855 1098.98 15.7774 Q1099.47 16.2693 1099.47 16.9661 Q1099.47 17.376 1099.39 17.5399 L1083.93 57.2586 L1099.39 96.9772 Q1099.47 97.1411 1099.47 97.551 Z" fill="#000000" fill-rule="evenodd" fill-opacity="1" /><path clip-path="url(#clip080)" d="M1163.67 47.0112 Q1163.67 49.4706 1162.73 53.7745 Q1161.83 58.0783 1161.09 60.1278 Q1159.04 65.5794 1154.94 70.1702 Q1152.69 72.7115 1150.23 74.556 Q1147.81 76.3596 1146.01 77.2613 Q1144.2 78.1221 1142.07 78.573 Q1139.94 79.0648 1138.96 79.1058 Q1137.97 79.1878 1136.58 79.1878 L1133.38 91.6895 Q1132.73 94.9277 1132.4 95.1326 Q1132.32 95.2966 1132.11 95.3786 Q1131.95 95.4606 1131.78 95.4606 L1131.62 95.4606 Q1131.17 95.4606 1130.92 95.2556 Q1130.68 95.0507 1130.64 94.8047 L1130.64 94.5998 Q1130.64 94.0259 1132.56 86.6479 Q1133.55 82.8769 1134.41 78.9829 Q1127.85 78.573 1123.79 75.6627 Q1119.77 72.7525 1119.77 67.096 Q1119.77 63.6119 1123.83 52.9137 Q1125.76 47.79 1125.76 45.6586 Q1125.76 44.7158 1125.55 44.142 Q1125.35 43.5271 1124.94 43.3222 Q1124.53 43.0763 1124.28 43.0353 Q1124.08 42.9943 1123.67 42.9943 Q1121.25 42.9943 1119 45.4127 Q1116.74 47.831 1115.18 53.4056 Q1114.86 54.4303 1114.65 54.6762 Q1114.45 54.9222 1113.83 54.9222 Q1112.81 54.8812 1112.81 54.0614 Q1112.81 53.7335 1113.17 52.4628 Q1113.54 51.1511 1114.4 49.2247 Q1115.31 47.2572 1116.54 45.4946 Q1117.77 43.6911 1119.69 42.4204 Q1121.66 41.1498 1123.91 41.1498 Q1126.99 41.1498 1128.87 43.1582 Q1130.8 45.1257 1130.8 48.036 Q1130.8 48.6098 1130.68 49.2656 Q1130.55 49.9215 1130.43 50.2904 Q1130.35 50.6593 1130.1 51.3561 Q1129.9 52.0119 1129.86 52.1349 Q1127.77 57.5455 1126.7 61.0706 Q1125.64 64.5546 1125.47 65.5794 Q1125.35 66.5631 1125.35 67.7518 Q1125.35 76.0316 1134.9 77.1384 L1148.84 21.6799 Q1149.08 20.5322 1149.29 20.2862 Q1149.49 19.9993 1150.11 19.9993 Q1151.09 19.9993 1151.09 20.9011 Q1151.09 21.188 1150.84 22.1717 L1136.99 77.3023 Q1138.3 77.3023 1139.12 77.2613 Q1139.94 77.2203 1141.66 76.8514 Q1143.42 76.4415 1144.9 75.7037 Q1146.42 74.9659 1148.55 73.4903 Q1150.68 71.9737 1152.77 69.8423 Q1155.39 67.178 1157.73 62.7101 Q1160.07 58.2423 1160.07 54.5533 Q1160.07 50.4133 1157.07 47.4211 Q1156.62 47.0112 1156.38 46.7653 Q1156.17 46.5194 1155.97 46.1095 Q1155.8 45.6996 1155.8 45.1667 Q1155.8 43.7731 1157.12 42.4614 Q1158.43 41.1498 1159.98 41.1498 Q1161.38 41.1498 1162.53 42.5024 Q1163.67 43.8551 1163.67 47.0112 Z" fill="#000000" fill-rule="evenodd" fill-opacity="1" /><path clip-path="url(#clip080)" d="M1168.11 76.8924 Q1166.92 75.5398 1166.92 73.7772 Q1166.92 72.0147 1168.07 70.703 Q1169.26 69.3504 1171.39 69.3504 Q1173.89 69.3504 1175.32 71.7688 Q1176.76 74.1461 1176.76 78.1631 Q1176.76 82.5079 1175 86.5249 Q1173.23 90.5828 1171.51 92.5093 Q1169.79 94.4358 1169.09 94.4358 Q1168.27 94.4358 1168.27 93.5341 Q1168.27 93.2061 1168.85 92.5913 Q1174.87 86.115 1174.91 78.1631 Q1174.91 76.8924 1174.75 76.8924 L1174.54 77.0564 Q1173.11 78.2451 1171.39 78.2451 Q1169.3 78.2451 1168.11 76.8924 Z" fill="#000000" fill-rule="evenodd" fill-opacity="1" /><path clip-path="url(#clip080)" d="M1242.88 54.8402 Q1242.88 60.9066 1239.77 66.6041 Q1236.69 72.3016 1231.86 75.7447 Q1227.06 79.1878 1222.23 79.1878 Q1216.77 79.1878 1213.95 73.5313 Q1208.82 94.0669 1208.53 94.5998 Q1207.35 96.3623 1205.62 96.3623 Q1204.56 96.3623 1203.9 95.7065 Q1203.25 95.0917 1203.25 94.1079 Q1203.29 93.78 1203.53 92.7553 L1211.73 59.7589 Q1213.62 52.0939 1219.31 46.6423 Q1225.05 41.1498 1231.2 41.1498 Q1236.08 41.1498 1239.48 44.7978 Q1242.88 48.4459 1242.88 54.8402 M1236.86 51.2331 Q1236.86 47.1342 1235.22 45.0847 Q1233.58 42.9943 1231.04 42.9943 Q1228.7 42.9943 1225.87 44.8798 Q1223.09 46.7653 1220.63 50.9462 Q1219.31 53.3646 1218.37 56.3568 Q1217.43 59.349 1215.58 66.7271 Q1214.93 69.6783 1214.93 69.8423 Q1214.93 70.1702 1215.09 70.908 Q1215.3 71.6458 1215.79 72.7935 Q1216.32 73.9002 1217.06 74.8839 Q1217.8 75.8677 1219.15 76.6055 Q1220.5 77.3023 1222.14 77.3023 Q1224.68 77.3023 1227.39 75.2528 Q1230.14 73.1624 1232.14 69.3504 Q1233.83 66.2762 1235.34 60.4967 Q1236.86 54.6762 1236.86 51.2331 Z" fill="#000000" fill-rule="evenodd" fill-opacity="1" /><path clip-path="url(#clip080)" d="M1265.05 56.6847 Q1265.13 56.8487 1265.13 57.2586 Q1265.13 57.6684 1265.05 57.8324 L1249.44 98.1249 Q1249.03 99.2316 1247.88 99.2316 Q1247.18 99.2316 1246.69 98.7397 Q1246.2 98.2478 1246.2 97.551 Q1246.2 97.1411 1246.28 96.9772 L1261.69 57.2586 L1246.28 17.5399 Q1246.2 17.376 1246.2 16.9661 Q1246.2 16.2693 1246.69 15.7774 Q1247.18 15.2855 1247.88 15.2855 Q1249.03 15.2855 1249.44 16.3922 L1265.05 56.6847 Z" fill="#000000" fill-rule="evenodd" fill-opacity="1" /><path clip-path="url(#clip080)" d="M1303.73 58.2833 Q1301.8 58.2833 1301.8 57.2586 Q1301.8 56.2338 1303.81 56.2338 Q1304.06 56.2338 1304.47 56.2748 Q1304.92 56.3158 1305 56.3158 L1328.65 56.3158 L1328.65 32.583 Q1328.65 32.501 1328.61 32.1321 Q1328.57 31.7222 1328.57 31.4763 Q1328.57 29.4678 1329.55 29.4678 Q1330.58 29.4678 1330.58 31.4763 L1330.58 56.3158 L1354.27 56.3158 Q1354.35 56.3158 1354.76 56.2748 Q1355.17 56.2338 1355.42 56.2338 Q1357.34 56.2338 1357.34 57.2586 Q1357.38 58.2833 1355.33 58.2833 Q1355.09 58.2833 1354.72 58.2423 Q1354.35 58.2013 1354.27 58.2013 L1330.58 58.2013 L1330.58 83.1228 Q1330.58 85.0493 1329.55 85.0493 Q1328.57 85.0493 1328.57 83.0408 Q1328.57 82.7949 1328.61 82.385 Q1328.65 82.0161 1328.65 81.9341 L1328.65 58.2013 L1305 58.2013 Q1304.92 58.2013 1304.43 58.2423 Q1303.98 58.2833 1303.73 58.2833 Z" fill="#000000" fill-rule="evenodd" fill-opacity="1" /><path clip-path="url(#clip080)" d="M1408.74 97.551 Q1408.74 98.2478 1408.25 98.7397 Q1407.76 99.2316 1407.06 99.2316 Q1405.87 99.2316 1405.46 98.1249 L1389.84 57.8324 Q1389.76 57.6684 1389.76 57.2586 Q1389.76 56.8487 1389.84 56.6847 L1405.46 16.3922 Q1405.87 15.2855 1407.06 15.2855 Q1407.76 15.2855 1408.25 15.7774 Q1408.74 16.2693 1408.74 16.9661 Q1408.74 17.376 1408.66 17.5399 L1393.21 57.2586 L1408.66 96.9772 Q1408.74 97.1411 1408.74 97.551 Z" fill="#000000" fill-rule="evenodd" fill-opacity="1" /><path clip-path="url(#clip080)" d="M1461.71 54.8402 Q1461.71 60.9066 1458.6 66.6041 Q1455.52 72.3016 1450.69 75.7447 Q1445.89 79.1878 1441.06 79.1878 Q1435.6 79.1878 1432.78 73.5313 Q1427.65 94.0669 1427.36 94.5998 Q1426.18 96.3623 1424.45 96.3623 Q1423.39 96.3623 1422.73 95.7065 Q1422.08 95.0917 1422.08 94.1079 Q1422.12 93.78 1422.36 92.7553 L1430.56 59.7589 Q1432.45 52.0939 1438.14 46.6423 Q1443.88 41.1498 1450.03 41.1498 Q1454.91 41.1498 1458.31 44.7978 Q1461.71 48.4459 1461.71 54.8402 M1455.69 51.2331 Q1455.69 47.1342 1454.05 45.0847 Q1452.41 42.9943 1449.87 42.9943 Q1447.53 42.9943 1444.7 44.8798 Q1441.92 46.7653 1439.46 50.9462 Q1438.14 53.3646 1437.2 56.3568 Q1436.26 59.349 1434.41 66.7271 Q1433.76 69.6783 1433.76 69.8423 Q1433.76 70.1702 1433.92 70.908 Q1434.13 71.6458 1434.62 72.7935 Q1435.15 73.9002 1435.89 74.8839 Q1436.63 75.8677 1437.98 76.6055 Q1439.33 77.3023 1440.97 77.3023 Q1443.51 77.3023 1446.22 75.2528 Q1448.97 73.1624 1450.97 69.3504 Q1452.66 66.2762 1454.17 60.4967 Q1455.69 54.6762 1455.69 51.2331 Z" fill="#000000" fill-rule="evenodd" fill-opacity="1" /><path clip-path="url(#clip080)" d="M1466.22 76.8924 Q1465.03 75.5398 1465.03 73.7772 Q1465.03 72.0147 1466.18 70.703 Q1467.36 69.3504 1469.5 69.3504 Q1472 69.3504 1473.43 71.7688 Q1474.87 74.1461 1474.87 78.1631 Q1474.87 82.5079 1473.1 86.5249 Q1471.34 90.5828 1469.62 92.5093 Q1467.9 94.4358 1467.2 94.4358 Q1466.38 94.4358 1466.38 93.5341 Q1466.38 93.2061 1466.95 92.5913 Q1472.98 86.115 1473.02 78.1631 Q1473.02 76.8924 1472.86 76.8924 L1472.65 77.0564 Q1471.22 78.2451 1469.5 78.2451 Q1467.4 78.2451 1466.22 76.8924 Z" fill="#000000" fill-rule="evenodd" fill-opacity="1" /><path clip-path="url(#clip080)" d="M1501.35 78.2451 L1501.35 75.6627 Q1505.82 75.6627 1506.85 75.1299 Q1507.87 74.556 1507.87 71.8507 L1507.87 28.1972 Q1507.87 25.082 1506.76 24.3032 Q1505.7 23.5244 1501.35 23.5244 L1501.35 20.9011 L1513.41 19.9993 L1513.41 71.8507 Q1513.41 74.556 1514.47 75.1299 Q1515.54 75.6627 1519.96 75.6627 L1519.96 78.2451 Q1518.94 78.2451 1516.81 78.1631 Q1514.68 78.0811 1513.12 78.0401 Q1511.56 77.9991 1510.66 77.9991 Q1509.68 77.9991 1501.35 78.2451 Z" fill="#000000" fill-rule="evenodd" fill-opacity="1" /><path clip-path="url(#clip080)" d="M1532.59 73.7362 Q1527.06 68.2437 1527.06 60.2918 Q1527.06 52.2988 1532.47 46.4784 Q1537.92 40.6169 1545.71 40.6169 Q1553.33 40.6169 1558.79 46.4374 Q1564.28 52.2169 1564.28 60.2918 Q1564.28 68.2027 1558.75 73.6953 Q1553.25 79.1878 1545.63 79.1878 Q1538.17 79.1878 1532.59 73.7362 M1534.03 59.5949 Q1534.03 67.7518 1536.16 71.4408 Q1539.44 77.0564 1545.71 77.0564 Q1548.83 77.0564 1551.41 75.3758 Q1554.03 73.6953 1555.47 70.867 Q1557.31 67.178 1557.31 59.5949 Q1557.31 51.5201 1555.1 47.954 Q1551.82 42.5024 1545.63 42.5024 Q1542.92 42.5024 1540.26 43.937 Q1537.64 45.3307 1536.04 48.1179 Q1534.03 51.807 1534.03 59.5949 Z" fill="#000000" fill-rule="evenodd" fill-opacity="1" /><path clip-path="url(#clip080)" d="M1565.61 84.8853 Q1565.61 82.18 1567.66 79.8436 Q1569.75 77.5073 1573.35 76.4825 Q1569.66 74.1461 1569.66 69.0225 Q1569.66 65.0875 1572.25 62.0543 Q1568.31 58.7752 1568.31 53.4056 Q1568.31 48.4459 1572.25 44.7978 Q1576.18 41.1498 1581.92 41.1498 Q1586.96 41.1498 1590.82 44.183 Q1594.83 40.248 1599.71 40.207 Q1601.88 40.207 1602.91 41.5597 Q1603.97 42.9123 1603.97 44.3469 Q1603.97 45.6176 1603.15 46.2324 Q1602.37 46.8473 1601.55 46.8473 Q1600.53 46.8473 1599.79 46.1914 Q1599.09 45.4946 1599.09 44.4289 Q1599.09 42.6664 1600.45 42.1335 Q1600.2 42.0515 1599.63 42.0515 Q1595.53 42.0515 1592.04 45.3307 Q1595.49 48.5278 1595.49 53.4875 Q1595.49 58.4472 1591.55 62.0953 Q1587.62 65.7433 1581.92 65.7433 Q1577.21 65.7433 1573.6 63.12 Q1572.16 64.8006 1572.16 67.096 Q1572.16 69.1864 1573.44 70.826 Q1574.71 72.4656 1576.63 72.7115 Q1577.21 72.7935 1582.9 72.7935 Q1586.27 72.7935 1588.11 72.8755 Q1589.95 72.9574 1592.58 73.5313 Q1595.24 74.0642 1597.33 75.1299 Q1602.78 78.1631 1602.82 84.7214 Q1602.82 89.5171 1597.29 92.5093 Q1591.8 95.5425 1584.17 95.5425 Q1576.47 95.5425 1571.02 92.4683 Q1565.61 89.4351 1565.61 84.8853 M1569.99 84.8853 Q1569.99 88.3284 1574.05 90.9517 Q1578.11 93.616 1584.26 93.616 Q1590.28 93.616 1594.34 90.9927 Q1598.44 88.4104 1598.44 84.8853 Q1598.44 82.385 1597 80.7864 Q1595.57 79.1878 1592.62 78.532 Q1589.71 77.9171 1587.66 77.7942 Q1585.61 77.6712 1581.84 77.6712 L1576.88 77.6712 Q1574.01 77.8352 1572 79.9256 Q1569.99 82.0161 1569.99 84.8853 M1574.58 53.4875 Q1574.58 63.8168 1581.92 63.8168 Q1585.61 63.8168 1587.86 60.4557 Q1589.22 58.2013 1589.22 53.4056 Q1589.22 43.0763 1581.92 43.0763 Q1578.23 43.0763 1575.94 46.4374 Q1574.58 48.6918 1574.58 53.4875 Z" fill="#000000" fill-rule="evenodd" fill-opacity="1" /><path clip-path="url(#clip080)" d="M1607.18 57.2586 Q1607.18 43.0763 1612.46 31.6403 Q1614.72 26.8445 1617.88 22.8276 Q1621.03 18.8106 1623.12 17.0481 Q1625.21 15.2855 1625.79 15.2855 Q1626.61 15.2855 1626.65 16.1053 Q1626.65 16.5152 1625.54 17.5399 Q1612.01 31.3123 1612.05 57.2586 Q1612.05 83.2867 1625.21 96.5263 Q1626.65 97.9609 1626.65 98.4118 Q1626.65 99.2316 1625.79 99.2316 Q1625.21 99.2316 1623.2 97.551 Q1621.2 95.8705 1618.08 92.0175 Q1614.96 88.1645 1612.71 83.4507 Q1607.18 72.0147 1607.18 57.2586 Z" fill="#000000" fill-rule="evenodd" fill-opacity="1" /><path clip-path="url(#clip080)" d="M1672.66 54.8402 Q1672.66 60.9066 1669.55 66.6041 Q1666.47 72.3016 1661.64 75.7447 Q1656.84 79.1878 1652 79.1878 Q1646.55 79.1878 1643.72 73.5313 Q1638.6 94.0669 1638.31 94.5998 Q1637.13 96.3623 1635.4 96.3623 Q1634.34 96.3623 1633.68 95.7065 Q1633.03 95.0917 1633.03 94.1079 Q1633.07 93.78 1633.31 92.7553 L1641.51 59.7589 Q1643.4 52.0939 1649.09 46.6423 Q1654.83 41.1498 1660.98 41.1498 Q1665.86 41.1498 1669.26 44.7978 Q1672.66 48.4459 1672.66 54.8402 M1666.64 51.2331 Q1666.64 47.1342 1665 45.0847 Q1663.36 42.9943 1660.82 42.9943 Q1658.48 42.9943 1655.65 44.8798 Q1652.86 46.7653 1650.41 50.9462 Q1649.09 53.3646 1648.15 56.3568 Q1647.21 59.349 1645.36 66.7271 Q1644.71 69.6783 1644.71 69.8423 Q1644.71 70.1702 1644.87 70.908 Q1645.08 71.6458 1645.57 72.7935 Q1646.1 73.9002 1646.84 74.8839 Q1647.58 75.8677 1648.93 76.6055 Q1650.28 77.3023 1651.92 77.3023 Q1654.46 77.3023 1657.17 75.2528 Q1659.92 73.1624 1661.92 69.3504 Q1663.6 66.2762 1665.12 60.4967 Q1666.64 54.6762 1666.64 51.2331 Z" fill="#000000" fill-rule="evenodd" fill-opacity="1" /><path clip-path="url(#clip080)" d="M1677.99 98.4118 Q1677.99 98.0019 1679.06 96.9772 Q1692.58 83.2048 1692.58 57.2586 Q1692.58 31.2304 1679.59 18.0728 Q1677.99 16.5562 1677.99 16.1053 Q1677.99 15.2855 1678.81 15.2855 Q1679.39 15.2855 1681.39 16.9661 Q1683.44 18.6467 1686.52 22.4996 Q1689.63 26.3526 1691.93 31.0664 Q1697.46 42.5024 1697.46 57.2586 Q1697.46 71.4408 1692.18 82.8769 Q1689.92 87.6726 1686.76 91.6895 Q1683.61 95.7065 1681.52 97.469 Q1679.43 99.2316 1678.81 99.2316 Q1677.99 99.2316 1677.99 98.4118 Z" fill="#000000" fill-rule="evenodd" fill-opacity="1" /><path clip-path="url(#clip080)" d="M1729.08 56.6847 Q1729.16 56.8487 1729.16 57.2586 Q1729.16 57.6684 1729.08 57.8324 L1713.46 98.1249 Q1713.05 99.2316 1711.91 99.2316 Q1711.21 99.2316 1710.72 98.7397 Q1710.23 98.2478 1710.23 97.551 Q1710.23 97.1411 1710.31 96.9772 L1725.72 57.2586 L1710.31 17.5399 Q1710.23 17.376 1710.23 16.9661 Q1710.23 16.2693 1710.72 15.7774 Q1711.21 15.2855 1711.91 15.2855 Q1713.05 15.2855 1713.46 16.3922 L1729.08 56.6847 Z" fill="#000000" fill-rule="evenodd" fill-opacity="1" /><polyline clip-path="url(#clip083)" style="stroke:#ff0000; stroke-linecap:butt; stroke-linejoin:round; stroke-width:4; stroke-opacity:1; fill:none" points="
  248.062,1447.87 280.497,1447.87 312.931,1447.87 345.366,1447.87 377.801,1447.87 410.236,1447.87 442.671,1447.87 475.105,1447.87 507.54,1447.87 539.975,1447.87 
  572.41,1447.87 604.845,1447.87 637.279,1447.87 669.714,1447.87 702.149,1447.87 734.584,1447.87 767.019,1447.87 799.453,1447.87 831.888,1447.87 864.323,1447.87 
  896.758,1447.87 929.193,1447.87 961.627,1447.87 994.062,1447.87 1026.5,162.047 1058.93,162.047 1091.37,162.047 1123.8,162.047 1156.24,162.047 1188.67,162.047 
  1221.11,162.047 1253.54,162.047 1285.98,162.047 1318.41,162.047 1350.85,162.047 1383.28,162.047 1415.71,162.047 1448.15,162.047 1480.58,162.047 1513.02,162.047 
  1545.45,1447.87 1577.89,1447.87 1610.32,1447.87 1642.76,1447.87 1675.19,1447.87 1707.63,1447.87 1740.06,1447.87 1772.5,1447.87 1804.93,1447.87 1837.37,1447.87 
  1869.8,1447.87 1902.24,1447.87 1934.67,1447.87 1967.11,1447.87 1999.54,1447.87 2031.98,1447.87 2064.41,1447.87 2096.85,1447.87 2129.28,1447.87 2161.71,1447.87 
  2194.15,1447.87 2226.58,1447.87 2259.02,1447.87 2291.45,1447.87 
  "/>
<polyline clip-path="url(#clip083)" style="stroke:#e3001c; stroke-linecap:butt; stroke-linejoin:round; stroke-width:4; stroke-opacity:1; fill:none" points="
  248.062,1126.42 280.497,1126.42 312.931,1126.42 345.366,1126.42 377.801,1126.42 410.236,1126.42 442.671,1126.42 475.105,1126.42 507.54,1126.42 539.975,1126.42 
  572.41,1126.42 604.845,1126.42 637.279,1126.42 669.714,1126.42 702.149,1126.42 734.584,1126.42 767.019,1126.42 799.453,1126.42 831.888,1126.42 864.323,1126.42 
  896.758,1126.42 929.193,1126.42 961.627,1126.42 994.062,1126.42 1026.5,1126.42 1058.93,1126.42 1091.37,1126.42 1123.8,1126.42 1156.24,1126.42 1188.67,1126.42 
  1221.11,1126.42 1253.54,1126.42 1285.98,1126.42 1318.41,1126.42 1350.85,1126.42 1383.28,1126.42 1415.71,1126.42 1448.15,1126.42 1480.58,1126.42 1513.02,1126.42 
  1545.45,1126.42 1577.89,1126.42 1610.32,1126.42 1642.76,1126.42 1675.19,1126.42 1707.63,1126.42 1740.06,1126.42 1772.5,1126.42 1804.93,1126.42 1837.37,1126.42 
  1869.8,1126.42 1902.24,1126.42 1934.67,1126.42 1967.11,1126.42 1999.54,1126.42 2031.98,1126.42 2064.41,1126.42 2096.85,1126.42 2129.28,1126.42 2161.71,1126.42 
  2194.15,1126.42 2226.58,1126.42 2259.02,1126.42 2291.45,1126.42 
  "/>
<polyline clip-path="url(#clip083)" style="stroke:#c60039; stroke-linecap:butt; stroke-linejoin:round; stroke-width:4; stroke-opacity:1; fill:none" points="
  248.062,1432.99 280.497,1416.4 312.931,1388.5 345.366,1347.29 377.801,1293.1 410.236,1230.47 442.671,1165.53 475.105,1105.07 507.54,1054.62 539.975,1016.86 
  572.41,991.392 604.845,977.312 637.279,972.585 669.714,975.25 702.149,983.366 734.584,995.233 767.019,1009.49 799.453,1025.08 831.888,1041.21 864.323,1057.26 
  896.758,1072.77 929.193,1087.43 961.627,1101.03 994.062,1113.43 1026.5,1124.54 1058.93,1134.3 1091.37,1142.68 1123.8,1149.67 1156.24,1155.25 1188.67,1159.43 
  1221.11,1162.21 1253.54,1163.6 1285.98,1163.6 1318.41,1162.21 1350.85,1159.43 1383.28,1155.25 1415.71,1149.67 1448.15,1142.68 1480.58,1134.3 1513.02,1124.54 
  1545.45,1113.43 1577.89,1101.03 1610.32,1087.43 1642.76,1072.77 1675.19,1057.26 1707.63,1041.21 1740.06,1025.09 1772.5,1009.49 1804.93,995.237 1837.37,983.369 
  1869.8,975.251 1902.24,972.583 1934.67,977.307 1967.11,991.384 1999.54,1016.86 2031.98,1054.62 2064.41,1105.06 2096.85,1165.53 2129.28,1230.47 2161.71,1293.1 
  2194.15,1347.29 2226.58,1388.5 2259.02,1416.4 2291.45,1432.99 
  "/>
<polyline clip-path="url(#clip083)" style="stroke:#aa0055; stroke-linecap:butt; stroke-linejoin:round; stroke-width:4; stroke-opacity:1; fill:none" points="
  248.062,1441.54 280.497,1434.48 312.931,1420.25 345.366,1398.42 377.801,1365.16 410.236,1320.57 442.671,1264.86 475.105,1201.96 507.54,1135.81 539.975,1071.8 
  572.41,1015.06 604.845,969.915 637.279,938.468 669.714,920.494 702.149,915.024 734.584,920.305 767.019,933.937 799.453,953.495 831.888,976.519 864.323,1001.14 
  896.758,1026.04 929.193,1050.11 961.627,1072.6 994.062,1093.09 1026.5,1111.35 1058.93,1127.24 1091.37,1140.75 1123.8,1151.88 1156.24,1160.68 1188.67,1167.21 
  1221.11,1171.54 1253.54,1173.69 1285.98,1173.69 1318.41,1171.54 1350.85,1167.21 1383.28,1160.68 1415.71,1151.88 1448.15,1140.75 1480.58,1127.24 1513.02,1111.35 
  1545.45,1093.09 1577.89,1072.6 1610.32,1050.11 1642.76,1026.03 1675.19,1001.14 1707.63,976.515 1740.06,953.489 1772.5,933.929 1804.93,920.298 1837.37,915.017 
  1869.8,920.486 1902.24,938.46 1934.67,969.91 1967.11,1015.05 1999.54,1071.79 2031.98,1135.81 2064.41,1201.95 2096.85,1264.86 2129.28,1320.57 2161.71,1365.16 
  2194.15,1398.42 2226.58,1420.25 2259.02,1434.48 2291.45,1441.54 
  "/>
<polyline clip-path="url(#clip083)" style="stroke:#8e0071; stroke-linecap:butt; stroke-linejoin:round; stroke-width:4; stroke-opacity:1; fill:none" points="
  248.062,1443.34 280.497,1438.25 312.931,1427.55 345.366,1410.7 377.801,1384.23 410.236,1347.15 442.671,1298.83 475.105,1241.13 507.54,1177.2 539.975,1111.42 
  572.41,1049.04 604.845,994.231 637.279,951.038 669.714,921.038 702.149,904.615 734.584,900.745 767.019,908.111 799.453,923.789 831.888,945.262 864.323,970.59 
  896.758,997.629 929.193,1024.66 961.627,1050.63 994.062,1074.75 1026.5,1096.48 1058.93,1115.52 1091.37,1131.77 1123.8,1145.21 1156.24,1155.87 1188.67,1163.78 
  1221.11,1169.02 1253.54,1171.63 1285.98,1171.63 1318.41,1169.03 1350.85,1163.8 1383.28,1155.88 1415.71,1145.24 1448.15,1131.8 1480.58,1115.56 1513.02,1096.52 
  1545.45,1074.81 1577.89,1050.7 1610.32,1024.73 1642.76,997.718 1675.19,970.686 1707.63,945.351 1740.06,923.855 1772.5,908.171 1804.93,900.772 1837.37,904.544 
  1869.8,920.925 1902.24,950.901 1934.67,994.135 1967.11,1048.96 1999.54,1111.38 2031.98,1177.19 2064.41,1241.11 2096.85,1298.82 2129.28,1347.14 2161.71,1384.23 
  2194.15,1410.7 2226.58,1427.55 2259.02,1438.25 2291.45,1443.34 
  "/>
<polyline clip-path="url(#clip083)" style="stroke:#71008e; stroke-linecap:butt; stroke-linejoin:round; stroke-width:4; stroke-opacity:1; fill:none" points="
  248.062,1443.94 280.497,1439.54 312.931,1430.11 345.366,1415.06 377.801,1391.14 410.236,1357.13 442.671,1312.57 475.105,1257.76 507.54,1196.07 539.975,1131.46 
  572.41,1068.23 604.845,1011.69 637.279,964.612 669.714,929.763 702.149,908.311 734.584,899.967 767.019,902.983 799.453,915.031 831.888,934.074 864.323,957.695 
  896.758,983.929 929.193,1010.96 961.627,1037.42 994.062,1062.39 1026.5,1085.18 1058.93,1105.32 1091.37,1122.62 1123.8,1136.98 1156.24,1148.42 1188.67,1156.94 
  1221.11,1162.59 1253.54,1165.41 1285.98,1165.41 1318.41,1162.6 1350.85,1156.94 1383.28,1148.42 1415.71,1136.99 1448.15,1122.63 1480.58,1105.33 1513.02,1085.19 
  1545.45,1062.41 1577.89,1037.43 1610.32,1010.96 1642.76,983.933 1675.19,957.693 1707.63,934.067 1740.06,915.019 1772.5,902.966 1804.93,899.963 1837.37,908.331 
  1869.8,929.788 1902.24,964.627 1934.67,1011.69 1967.11,1068.23 1999.54,1131.45 2031.98,1196.06 2064.41,1257.74 2096.85,1312.57 2129.28,1357.12 2161.71,1391.14 
  2194.15,1415.06 2226.58,1430.11 2259.02,1439.54 2291.45,1443.94 
  "/>
<polyline clip-path="url(#clip083)" style="stroke:#5500aa; stroke-linecap:butt; stroke-linejoin:round; stroke-width:4; stroke-opacity:1; fill:none" points="
  248.062,1444.17 280.497,1440.03 312.931,1431.15 345.366,1416.98 377.801,1394.17 410.236,1361.63 442.671,1318.74 475.105,1265.88 507.54,1205.6 539.975,1142.24 
  572.41,1079.5 604.845,1021.97 637.279,973.935 669.714,937.493 702.149,913.88 734.584,902.904 767.019,903.498 799.453,913.384 831.888,930.559 864.323,952.814 
  896.758,977.821 929.193,1004.08 961.627,1030.18 994.062,1054.91 1026.5,1077.6 1058.93,1097.85 1091.37,1115.35 1123.8,1129.94 1156.24,1141.59 1188.67,1150.3 
  1221.11,1156.08 1253.54,1158.97 1285.98,1158.97 1318.41,1156.09 1350.85,1150.31 1383.28,1141.61 1415.71,1129.97 1448.15,1115.38 1480.58,1097.89 1513.02,1077.65 
  1545.45,1054.97 1577.89,1030.25 1610.32,1004.16 1642.76,977.901 1675.19,952.892 1707.63,930.622 1740.06,913.416 1772.5,903.49 1804.93,902.858 1837.37,913.817 
  1869.8,937.433 1902.24,973.857 1934.67,1021.91 1967.11,1079.46 1999.54,1142.22 2031.98,1205.59 2064.41,1265.86 2096.85,1318.73 2129.28,1361.63 2161.71,1394.17 
  2194.15,1416.98 2226.58,1431.15 2259.02,1440.03 2291.45,1444.17 
  "/>
<polyline clip-path="url(#clip083)" style="stroke:#3900c6; stroke-linecap:butt; stroke-linejoin:round; stroke-width:4; stroke-opacity:1; fill:none" points="
  248.062,1444.31 280.497,1440.34 312.931,1431.73 345.366,1417.88 377.801,1395.71 410.236,1363.8 442.671,1321.7 475.105,1269.99 507.54,1210.77 539.975,1148.2 
  572.41,1085.85 604.845,1028.52 637.279,980.142 669.714,942.643 702.149,918.299 734.584,905.876 767.019,905.519 799.453,913.941 831.888,929.857 864.323,951.18 
  896.758,975.182 929.193,1000.6 961.627,1026.08 994.062,1050.37 1026.5,1072.78 1058.93,1092.85 1091.37,1110.24 1123.8,1124.77 1156.24,1136.38 1188.67,1145.07 
  1221.11,1150.86 1253.54,1153.74 1285.98,1153.75 1318.41,1150.87 1350.85,1145.09 1383.28,1136.41 1415.71,1124.8 1448.15,1110.28 1480.58,1092.91 1513.02,1072.85 
  1545.45,1050.44 1577.89,1026.16 1610.32,1000.68 1642.76,975.262 1675.19,951.252 1707.63,929.909 1740.06,913.94 1772.5,905.458 1804.93,905.814 1837.37,918.26 
  1869.8,942.59 1902.24,980.088 1934.67,1028.49 1967.11,1085.81 1999.54,1148.17 2031.98,1210.75 2064.41,1269.98 2096.85,1321.7 2129.28,1363.79 2161.71,1395.71 
  2194.15,1417.88 2226.58,1431.73 2259.02,1440.34 2291.45,1444.31 
  "/>
<polyline clip-path="url(#clip083)" style="stroke:#1c00e3; stroke-linecap:butt; stroke-linejoin:round; stroke-width:4; stroke-opacity:1; fill:none" points="
  248.062,1444.37 280.497,1440.49 312.931,1432 345.366,1418.37 377.801,1396.54 410.236,1365.03 442.671,1323.62 475.105,1272.43 507.54,1213.85 539.975,1151.78 
  572.41,1089.77 604.845,1032.47 637.279,983.958 669.714,946.257 702.149,921.434 734.584,908.284 767.019,907.121 799.453,914.822 831.888,929.911 864.323,950.486 
  896.758,973.906 929.193,998.762 961.627,1023.73 994.062,1047.61 1026.5,1069.71 1058.93,1089.55 1091.37,1106.76 1123.8,1121.16 1156.24,1132.68 1188.67,1141.31 
  1221.11,1147.06 1253.54,1149.93 1285.98,1149.93 1318.41,1147.07 1350.85,1141.34 1383.28,1132.72 1415.71,1121.21 1448.15,1106.82 1480.58,1089.62 1513.02,1069.8 
  1545.45,1047.72 1577.89,1023.85 1610.32,998.886 1642.76,974.027 1675.19,950.596 1707.63,929.988 1740.06,914.828 1772.5,907.053 1804.93,908.203 1837.37,921.358 
  1869.8,946.168 1902.24,983.878 1934.67,1032.42 1967.11,1089.7 1999.54,1151.73 2031.98,1213.81 2064.41,1272.42 2096.85,1323.6 2129.28,1365.03 2161.71,1396.53 
  2194.15,1418.36 2226.58,1432 2259.02,1440.49 2291.45,1444.37 
  "/>
<polyline clip-path="url(#clip083)" style="stroke:#0000ff; stroke-linecap:butt; stroke-linejoin:round; stroke-width:4; stroke-opacity:1; fill:none" points="
  248.062,1444.41 280.497,1440.59 312.931,1432.18 345.366,1418.7 377.801,1397.07 410.236,1365.85 442.671,1324.72 475.105,1274 507.54,1215.81 539.975,1153.77 
  572.41,1092.1 604.845,1034.96 637.279,986.42 669.714,948.73 702.149,923.427 734.584,910.083 767.019,908.271 799.453,915.577 831.888,930.184 864.323,950.178 
  896.758,973.236 929.193,997.725 961.627,1022.33 994.062,1045.93 1026.5,1067.78 1058.93,1087.4 1091.37,1104.44 1123.8,1118.72 1156.24,1130.15 1188.67,1138.72 
  1221.11,1144.43 1253.54,1147.28 1285.98,1147.28 1318.41,1144.44 1350.85,1138.75 1383.28,1130.19 1415.71,1118.76 1448.15,1104.5 1480.58,1087.47 1513.02,1067.86 
  1545.45,1046.02 1577.89,1022.43 1610.32,997.823 1642.76,973.329 1675.19,950.26 1707.63,930.24 1740.06,915.588 1772.5,908.24 1804.93,910.039 1837.37,923.372 
  1869.8,948.664 1902.24,986.358 1934.67,1034.91 1967.11,1092.05 1999.54,1153.72 2031.98,1215.77 2064.41,1273.97 2096.85,1324.7 2129.28,1365.84 2161.71,1397.06 
  2194.15,1418.7 2226.58,1432.18 2259.02,1440.59 2291.45,1444.41 
  "/>
</svg>
