<?xml version="1.0" encoding="utf-8"?>
<svg xmlns="http://www.w3.org/2000/svg" xmlns:xlink="http://www.w3.org/1999/xlink" width="600" height="400" viewBox="0 0 2400 1600">
<defs>
  <clipPath id="clip760">
    <rect x="0" y="0" width="2400" height="1600"/>
  </clipPath>
</defs>
<path clip-path="url(#clip760)" d="
M0 1600 L2400 1600 L2400 0 L0 0  Z
  " fill="#ffffff" fill-rule="evenodd" fill-opacity="1"/>
<defs>
  <clipPath id="clip761">
    <rect x="480" y="0" width="1681" height="1600"/>
  </clipPath>
</defs>
<path clip-path="url(#clip760)" d="
M186.76 1486.45 L2352.76 1486.45 L2352.76 123.472 L186.76 123.472  Z
  " fill="#ffffff" fill-rule="evenodd" fill-opacity="1"/>
<defs>
  <clipPath id="clip762">
    <rect x="186" y="123" width="2167" height="1364"/>
  </clipPath>
</defs>
<polyline clip-path="url(#clip762)" style="stroke:#000000; stroke-linecap:butt; stroke-linejoin:round; stroke-width:2; stroke-opacity:0.1; fill:none" points="
  418.345,1486.45 418.345,123.472 
  "/>
<polyline clip-path="url(#clip762)" style="stroke:#000000; stroke-linecap:butt; stroke-linejoin:round; stroke-width:2; stroke-opacity:0.1; fill:none" points="
  844.051,1486.45 844.051,123.472 
  "/>
<polyline clip-path="url(#clip762)" style="stroke:#000000; stroke-linecap:butt; stroke-linejoin:round; stroke-width:2; stroke-opacity:0.1; fill:none" points="
  1269.76,1486.45 1269.76,123.472 
  "/>
<polyline clip-path="url(#clip762)" style="stroke:#000000; stroke-linecap:butt; stroke-linejoin:round; stroke-width:2; stroke-opacity:0.1; fill:none" points="
  1695.46,1486.45 1695.46,123.472 
  "/>
<polyline clip-path="url(#clip762)" style="stroke:#000000; stroke-linecap:butt; stroke-linejoin:round; stroke-width:2; stroke-opacity:0.1; fill:none" points="
  2121.17,1486.45 2121.17,123.472 
  "/>
<polyline clip-path="url(#clip760)" style="stroke:#000000; stroke-linecap:butt; stroke-linejoin:round; stroke-width:4; stroke-opacity:1; fill:none" points="
  186.76,1486.45 2352.76,1486.45 
  "/>
<polyline clip-path="url(#clip760)" style="stroke:#000000; stroke-linecap:butt; stroke-linejoin:round; stroke-width:4; stroke-opacity:1; fill:none" points="
  418.345,1486.45 418.345,1467.55 
  "/>
<polyline clip-path="url(#clip760)" style="stroke:#000000; stroke-linecap:butt; stroke-linejoin:round; stroke-width:4; stroke-opacity:1; fill:none" points="
  844.051,1486.45 844.051,1467.55 
  "/>
<polyline clip-path="url(#clip760)" style="stroke:#000000; stroke-linecap:butt; stroke-linejoin:round; stroke-width:4; stroke-opacity:1; fill:none" points="
  1269.76,1486.45 1269.76,1467.55 
  "/>
<polyline clip-path="url(#clip760)" style="stroke:#000000; stroke-linecap:butt; stroke-linejoin:round; stroke-width:4; stroke-opacity:1; fill:none" points="
  1695.46,1486.45 1695.46,1467.55 
  "/>
<polyline clip-path="url(#clip760)" style="stroke:#000000; stroke-linecap:butt; stroke-linejoin:round; stroke-width:4; stroke-opacity:1; fill:none" points="
  2121.17,1486.45 2121.17,1467.55 
  "/>
<path clip-path="url(#clip760)" d="M372.407 1532.02 L402.083 1532.02 L402.083 1535.95 L372.407 1535.95 L372.407 1532.02 Z" fill="#000000" fill-rule="evenodd" fill-opacity="1" /><path clip-path="url(#clip760)" d="M412.986 1544.91 L420.625 1544.91 L420.625 1518.55 L412.315 1520.21 L412.315 1515.95 L420.578 1514.29 L425.254 1514.29 L425.254 1544.91 L432.893 1544.91 L432.893 1548.85 L412.986 1548.85 L412.986 1544.91 Z" fill="#000000" fill-rule="evenodd" fill-opacity="1" /><path clip-path="url(#clip760)" d="M452.337 1517.37 Q448.726 1517.37 446.898 1520.93 Q445.092 1524.47 445.092 1531.6 Q445.092 1538.71 446.898 1542.27 Q448.726 1545.82 452.337 1545.82 Q455.972 1545.82 457.777 1542.27 Q459.606 1538.71 459.606 1531.6 Q459.606 1524.47 457.777 1520.93 Q455.972 1517.37 452.337 1517.37 M452.337 1513.66 Q458.148 1513.66 461.203 1518.27 Q464.282 1522.85 464.282 1531.6 Q464.282 1540.33 461.203 1544.94 Q458.148 1549.52 452.337 1549.52 Q446.527 1549.52 443.449 1544.94 Q440.393 1540.33 440.393 1531.6 Q440.393 1522.85 443.449 1518.27 Q446.527 1513.66 452.337 1513.66 Z" fill="#000000" fill-rule="evenodd" fill-opacity="1" /><path clip-path="url(#clip760)" d="M813.693 1532.02 L843.368 1532.02 L843.368 1535.95 L813.693 1535.95 L813.693 1532.02 Z" fill="#000000" fill-rule="evenodd" fill-opacity="1" /><path clip-path="url(#clip760)" d="M853.507 1514.29 L871.864 1514.29 L871.864 1518.22 L857.79 1518.22 L857.79 1526.7 Q858.808 1526.35 859.827 1526.19 Q860.845 1526 861.864 1526 Q867.651 1526 871.03 1529.17 Q874.41 1532.34 874.41 1537.76 Q874.41 1543.34 870.938 1546.44 Q867.466 1549.52 861.146 1549.52 Q858.97 1549.52 856.702 1549.15 Q854.456 1548.78 852.049 1548.04 L852.049 1543.34 Q854.132 1544.47 856.354 1545.03 Q858.577 1545.58 861.054 1545.58 Q865.058 1545.58 867.396 1543.48 Q869.734 1541.37 869.734 1537.76 Q869.734 1534.15 867.396 1532.04 Q865.058 1529.94 861.054 1529.94 Q859.179 1529.94 857.304 1530.35 Q855.452 1530.77 853.507 1531.65 L853.507 1514.29 Z" fill="#000000" fill-rule="evenodd" fill-opacity="1" /><path clip-path="url(#clip760)" d="M1269.76 1517.37 Q1266.15 1517.37 1264.32 1520.93 Q1262.51 1524.47 1262.51 1531.6 Q1262.51 1538.71 1264.32 1542.27 Q1266.15 1545.82 1269.76 1545.82 Q1273.39 1545.82 1275.2 1542.27 Q1277.03 1538.71 1277.03 1531.6 Q1277.03 1524.47 1275.2 1520.93 Q1273.39 1517.37 1269.76 1517.37 M1269.76 1513.66 Q1275.57 1513.66 1278.62 1518.27 Q1281.7 1522.85 1281.7 1531.6 Q1281.7 1540.33 1278.62 1544.94 Q1275.57 1549.52 1269.76 1549.52 Q1263.95 1549.52 1260.87 1544.94 Q1257.81 1540.33 1257.81 1531.6 Q1257.81 1522.85 1260.87 1518.27 Q1263.95 1513.66 1269.76 1513.66 Z" fill="#000000" fill-rule="evenodd" fill-opacity="1" /><path clip-path="url(#clip760)" d="M1685.74 1514.29 L1704.1 1514.29 L1704.1 1518.22 L1690.02 1518.22 L1690.02 1526.7 Q1691.04 1526.35 1692.06 1526.19 Q1693.08 1526 1694.1 1526 Q1699.89 1526 1703.27 1529.17 Q1706.65 1532.34 1706.65 1537.76 Q1706.65 1543.34 1703.17 1546.44 Q1699.7 1549.52 1693.38 1549.52 Q1691.21 1549.52 1688.94 1549.15 Q1686.69 1548.78 1684.28 1548.04 L1684.28 1543.34 Q1686.37 1544.47 1688.59 1545.03 Q1690.81 1545.58 1693.29 1545.58 Q1697.29 1545.58 1699.63 1543.48 Q1701.97 1541.37 1701.97 1537.76 Q1701.97 1534.15 1699.63 1532.04 Q1697.29 1529.94 1693.29 1529.94 Q1691.41 1529.94 1689.54 1530.35 Q1687.69 1530.77 1685.74 1531.65 L1685.74 1514.29 Z" fill="#000000" fill-rule="evenodd" fill-opacity="1" /><path clip-path="url(#clip760)" d="M2095.86 1544.91 L2103.5 1544.91 L2103.5 1518.55 L2095.19 1520.21 L2095.19 1515.95 L2103.45 1514.29 L2108.13 1514.29 L2108.13 1544.91 L2115.77 1544.91 L2115.77 1548.85 L2095.86 1548.85 L2095.86 1544.91 Z" fill="#000000" fill-rule="evenodd" fill-opacity="1" /><path clip-path="url(#clip760)" d="M2135.21 1517.37 Q2131.6 1517.37 2129.77 1520.93 Q2127.97 1524.47 2127.97 1531.6 Q2127.97 1538.71 2129.77 1542.27 Q2131.6 1545.82 2135.21 1545.82 Q2138.84 1545.82 2140.65 1542.27 Q2142.48 1538.71 2142.48 1531.6 Q2142.48 1524.47 2140.65 1520.93 Q2138.84 1517.37 2135.21 1517.37 M2135.21 1513.66 Q2141.02 1513.66 2144.08 1518.27 Q2147.16 1522.85 2147.16 1531.6 Q2147.16 1540.33 2144.08 1544.94 Q2141.02 1549.52 2135.21 1549.52 Q2129.4 1549.52 2126.32 1544.94 Q2123.27 1540.33 2123.27 1531.6 Q2123.27 1522.85 2126.32 1518.27 Q2129.4 1513.66 2135.21 1513.66 Z" fill="#000000" fill-rule="evenodd" fill-opacity="1" /><polyline clip-path="url(#clip762)" style="stroke:#000000; stroke-linecap:butt; stroke-linejoin:round; stroke-width:2; stroke-opacity:0.1; fill:none" points="
  186.76,1447.87 2352.76,1447.87 
  "/>
<polyline clip-path="url(#clip762)" style="stroke:#000000; stroke-linecap:butt; stroke-linejoin:round; stroke-width:2; stroke-opacity:0.1; fill:none" points="
  186.76,1076.02 2352.76,1076.02 
  "/>
<polyline clip-path="url(#clip762)" style="stroke:#000000; stroke-linecap:butt; stroke-linejoin:round; stroke-width:2; stroke-opacity:0.1; fill:none" points="
  186.76,704.165 2352.76,704.165 
  "/>
<polyline clip-path="url(#clip762)" style="stroke:#000000; stroke-linecap:butt; stroke-linejoin:round; stroke-width:2; stroke-opacity:0.1; fill:none" points="
  186.76,332.312 2352.76,332.312 
  "/>
<polyline clip-path="url(#clip760)" style="stroke:#000000; stroke-linecap:butt; stroke-linejoin:round; stroke-width:4; stroke-opacity:1; fill:none" points="
  186.76,1486.45 186.76,123.472 
  "/>
<polyline clip-path="url(#clip760)" style="stroke:#000000; stroke-linecap:butt; stroke-linejoin:round; stroke-width:4; stroke-opacity:1; fill:none" points="
  186.76,1447.87 205.658,1447.87 
  "/>
<polyline clip-path="url(#clip760)" style="stroke:#000000; stroke-linecap:butt; stroke-linejoin:round; stroke-width:4; stroke-opacity:1; fill:none" points="
  186.76,1076.02 205.658,1076.02 
  "/>
<polyline clip-path="url(#clip760)" style="stroke:#000000; stroke-linecap:butt; stroke-linejoin:round; stroke-width:4; stroke-opacity:1; fill:none" points="
  186.76,704.165 205.658,704.165 
  "/>
<polyline clip-path="url(#clip760)" style="stroke:#000000; stroke-linecap:butt; stroke-linejoin:round; stroke-width:4; stroke-opacity:1; fill:none" points="
  186.76,332.312 205.658,332.312 
  "/>
<path clip-path="url(#clip760)" d="M63.4226 1433.67 Q59.8115 1433.67 57.9828 1437.24 Q56.1773 1440.78 56.1773 1447.91 Q56.1773 1455.01 57.9828 1458.58 Q59.8115 1462.12 63.4226 1462.12 Q67.0569 1462.12 68.8624 1458.58 Q70.6911 1455.01 70.6911 1447.91 Q70.6911 1440.78 68.8624 1437.24 Q67.0569 1433.67 63.4226 1433.67 M63.4226 1429.97 Q69.2328 1429.97 72.2883 1434.57 Q75.367 1439.16 75.367 1447.91 Q75.367 1456.63 72.2883 1461.24 Q69.2328 1465.82 63.4226 1465.82 Q57.6125 1465.82 54.5338 1461.24 Q51.4782 1456.63 51.4782 1447.91 Q51.4782 1439.16 54.5338 1434.57 Q57.6125 1429.97 63.4226 1429.97 Z" fill="#000000" fill-rule="evenodd" fill-opacity="1" /><path clip-path="url(#clip760)" d="M83.5845 1459.27 L88.4688 1459.27 L88.4688 1465.15 L83.5845 1465.15 L83.5845 1459.27 Z" fill="#000000" fill-rule="evenodd" fill-opacity="1" /><path clip-path="url(#clip760)" d="M108.654 1433.67 Q105.043 1433.67 103.214 1437.24 Q101.409 1440.78 101.409 1447.91 Q101.409 1455.01 103.214 1458.58 Q105.043 1462.12 108.654 1462.12 Q112.288 1462.12 114.094 1458.58 Q115.922 1455.01 115.922 1447.91 Q115.922 1440.78 114.094 1437.24 Q112.288 1433.67 108.654 1433.67 M108.654 1429.97 Q114.464 1429.97 117.52 1434.57 Q120.598 1439.16 120.598 1447.91 Q120.598 1456.63 117.52 1461.24 Q114.464 1465.82 108.654 1465.82 Q102.844 1465.82 99.765 1461.24 Q96.7095 1456.63 96.7095 1447.91 Q96.7095 1439.16 99.765 1434.57 Q102.844 1429.97 108.654 1429.97 Z" fill="#000000" fill-rule="evenodd" fill-opacity="1" /><path clip-path="url(#clip760)" d="M138.816 1433.67 Q135.205 1433.67 133.376 1437.24 Q131.57 1440.78 131.57 1447.91 Q131.57 1455.01 133.376 1458.58 Q135.205 1462.12 138.816 1462.12 Q142.45 1462.12 144.256 1458.58 Q146.084 1455.01 146.084 1447.91 Q146.084 1440.78 144.256 1437.24 Q142.45 1433.67 138.816 1433.67 M138.816 1429.97 Q144.626 1429.97 147.681 1434.57 Q150.76 1439.16 150.76 1447.91 Q150.76 1456.63 147.681 1461.24 Q144.626 1465.82 138.816 1465.82 Q133.006 1465.82 129.927 1461.24 Q126.871 1456.63 126.871 1447.91 Q126.871 1439.16 129.927 1434.57 Q133.006 1429.97 138.816 1429.97 Z" fill="#000000" fill-rule="evenodd" fill-opacity="1" /><path clip-path="url(#clip760)" d="M65.0198 1061.82 Q61.4087 1061.82 59.58 1065.38 Q57.7745 1068.92 57.7745 1076.05 Q57.7745 1083.16 59.58 1086.73 Q61.4087 1090.27 65.0198 1090.27 Q68.6541 1090.27 70.4596 1086.73 Q72.2883 1083.16 72.2883 1076.05 Q72.2883 1068.92 70.4596 1065.38 Q68.6541 1061.82 65.0198 1061.82 M65.0198 1058.11 Q70.83 1058.11 73.8855 1062.72 Q76.9642 1067.3 76.9642 1076.05 Q76.9642 1084.78 73.8855 1089.39 Q70.83 1093.97 65.0198 1093.97 Q59.2097 1093.97 56.131 1089.39 Q53.0754 1084.78 53.0754 1076.05 Q53.0754 1067.3 56.131 1062.72 Q59.2097 1058.11 65.0198 1058.11 Z" fill="#000000" fill-rule="evenodd" fill-opacity="1" /><path clip-path="url(#clip760)" d="M85.1818 1087.42 L90.066 1087.42 L90.066 1093.3 L85.1818 1093.3 L85.1818 1087.42 Z" fill="#000000" fill-rule="evenodd" fill-opacity="1" /><path clip-path="url(#clip760)" d="M110.251 1061.82 Q106.64 1061.82 104.811 1065.38 Q103.006 1068.92 103.006 1076.05 Q103.006 1083.16 104.811 1086.73 Q106.64 1090.27 110.251 1090.27 Q113.885 1090.27 115.691 1086.73 Q117.52 1083.16 117.52 1076.05 Q117.52 1068.92 115.691 1065.38 Q113.885 1061.82 110.251 1061.82 M110.251 1058.11 Q116.061 1058.11 119.117 1062.72 Q122.195 1067.3 122.195 1076.05 Q122.195 1084.78 119.117 1089.39 Q116.061 1093.97 110.251 1093.97 Q104.441 1093.97 101.362 1089.39 Q98.3067 1084.78 98.3067 1076.05 Q98.3067 1067.3 101.362 1062.72 Q104.441 1058.11 110.251 1058.11 Z" fill="#000000" fill-rule="evenodd" fill-opacity="1" /><path clip-path="url(#clip760)" d="M134.441 1089.36 L150.76 1089.36 L150.76 1093.3 L128.816 1093.3 L128.816 1089.36 Q131.478 1086.61 136.061 1081.98 Q140.668 1077.33 141.848 1075.98 Q144.093 1073.46 144.973 1071.73 Q145.876 1069.97 145.876 1068.28 Q145.876 1065.52 143.931 1063.79 Q142.01 1062.05 138.908 1062.05 Q136.709 1062.05 134.256 1062.81 Q131.825 1063.58 129.047 1065.13 L129.047 1060.41 Q131.871 1059.27 134.325 1058.69 Q136.779 1058.11 138.816 1058.11 Q144.186 1058.11 147.38 1060.8 Q150.575 1063.48 150.575 1067.98 Q150.575 1070.1 149.765 1072.03 Q148.978 1073.92 146.871 1076.52 Q146.293 1077.19 143.191 1080.41 Q140.089 1083.6 134.441 1089.36 Z" fill="#000000" fill-rule="evenodd" fill-opacity="1" /><path clip-path="url(#clip760)" d="M62.9365 689.964 Q59.3254 689.964 57.4967 693.529 Q55.6912 697.071 55.6912 704.2 Q55.6912 711.307 57.4967 714.871 Q59.3254 718.413 62.9365 718.413 Q66.5707 718.413 68.3763 714.871 Q70.205 711.307 70.205 704.2 Q70.205 697.071 68.3763 693.529 Q66.5707 689.964 62.9365 689.964 M62.9365 686.26 Q68.7467 686.26 71.8022 690.867 Q74.8809 695.45 74.8809 704.2 Q74.8809 712.927 71.8022 717.533 Q68.7467 722.117 62.9365 722.117 Q57.1264 722.117 54.0477 717.533 Q50.9921 712.927 50.9921 704.2 Q50.9921 695.45 54.0477 690.867 Q57.1264 686.26 62.9365 686.26 Z" fill="#000000" fill-rule="evenodd" fill-opacity="1" /><path clip-path="url(#clip760)" d="M83.0984 715.566 L87.9827 715.566 L87.9827 721.445 L83.0984 721.445 L83.0984 715.566 Z" fill="#000000" fill-rule="evenodd" fill-opacity="1" /><path clip-path="url(#clip760)" d="M108.168 689.964 Q104.557 689.964 102.728 693.529 Q100.922 697.071 100.922 704.2 Q100.922 711.307 102.728 714.871 Q104.557 718.413 108.168 718.413 Q111.802 718.413 113.608 714.871 Q115.436 711.307 115.436 704.2 Q115.436 697.071 113.608 693.529 Q111.802 689.964 108.168 689.964 M108.168 686.26 Q113.978 686.26 117.033 690.867 Q120.112 695.45 120.112 704.2 Q120.112 712.927 117.033 717.533 Q113.978 722.117 108.168 722.117 Q102.358 722.117 99.2789 717.533 Q96.2234 712.927 96.2234 704.2 Q96.2234 695.45 99.2789 690.867 Q102.358 686.26 108.168 686.26 Z" fill="#000000" fill-rule="evenodd" fill-opacity="1" /><path clip-path="url(#clip760)" d="M141.177 690.96 L129.371 709.408 L141.177 709.408 L141.177 690.96 M139.95 686.885 L145.83 686.885 L145.83 709.408 L150.76 709.408 L150.76 713.297 L145.83 713.297 L145.83 721.445 L141.177 721.445 L141.177 713.297 L125.575 713.297 L125.575 708.783 L139.95 686.885 Z" fill="#000000" fill-rule="evenodd" fill-opacity="1" /><path clip-path="url(#clip760)" d="M63.2606 318.11 Q59.6495 318.11 57.8208 321.675 Q56.0152 325.217 56.0152 332.346 Q56.0152 339.453 57.8208 343.018 Q59.6495 346.559 63.2606 346.559 Q66.8948 346.559 68.7004 343.018 Q70.5291 339.453 70.5291 332.346 Q70.5291 325.217 68.7004 321.675 Q66.8948 318.11 63.2606 318.11 M63.2606 314.407 Q69.0707 314.407 72.1263 319.013 Q75.205 323.596 75.205 332.346 Q75.205 341.073 72.1263 345.68 Q69.0707 350.263 63.2606 350.263 Q57.4504 350.263 54.3717 345.68 Q51.3162 341.073 51.3162 332.346 Q51.3162 323.596 54.3717 319.013 Q57.4504 314.407 63.2606 314.407 Z" fill="#000000" fill-rule="evenodd" fill-opacity="1" /><path clip-path="url(#clip760)" d="M83.4225 343.712 L88.3067 343.712 L88.3067 349.592 L83.4225 349.592 L83.4225 343.712 Z" fill="#000000" fill-rule="evenodd" fill-opacity="1" /><path clip-path="url(#clip760)" d="M108.492 318.11 Q104.881 318.11 103.052 321.675 Q101.246 325.217 101.246 332.346 Q101.246 339.453 103.052 343.018 Q104.881 346.559 108.492 346.559 Q112.126 346.559 113.932 343.018 Q115.76 339.453 115.76 332.346 Q115.76 325.217 113.932 321.675 Q112.126 318.11 108.492 318.11 M108.492 314.407 Q114.302 314.407 117.358 319.013 Q120.436 323.596 120.436 332.346 Q120.436 341.073 117.358 345.68 Q114.302 350.263 108.492 350.263 Q102.682 350.263 99.603 345.68 Q96.5474 341.073 96.5474 332.346 Q96.5474 323.596 99.603 319.013 Q102.682 314.407 108.492 314.407 Z" fill="#000000" fill-rule="evenodd" fill-opacity="1" /><path clip-path="url(#clip760)" d="M139.232 330.448 Q136.084 330.448 134.232 332.601 Q132.404 334.754 132.404 338.504 Q132.404 342.231 134.232 344.406 Q136.084 346.559 139.232 346.559 Q142.381 346.559 144.209 344.406 Q146.061 342.231 146.061 338.504 Q146.061 334.754 144.209 332.601 Q142.381 330.448 139.232 330.448 M148.515 315.796 L148.515 320.055 Q146.756 319.221 144.95 318.782 Q143.168 318.342 141.408 318.342 Q136.779 318.342 134.325 321.467 Q131.894 324.592 131.547 330.911 Q132.913 328.897 134.973 327.832 Q137.033 326.745 139.51 326.745 Q144.718 326.745 147.728 329.916 Q150.76 333.064 150.76 338.504 Q150.76 343.828 147.612 347.045 Q144.464 350.263 139.232 350.263 Q133.237 350.263 130.066 345.68 Q126.894 341.073 126.894 332.346 Q126.894 324.152 130.783 319.291 Q134.672 314.407 141.223 314.407 Q142.982 314.407 144.765 314.754 Q146.57 315.101 148.515 315.796 Z" fill="#000000" fill-rule="evenodd" fill-opacity="1" /><path clip-path="url(#clip760)" d="M726.694 12.096 L737.712 12.096 L764.529 62.6918 L764.529 12.096 L772.469 12.096 L772.469 72.576 L761.451 72.576 L734.634 21.9802 L734.634 72.576 L726.694 72.576 L726.694 12.096 Z" fill="#000000" fill-rule="evenodd" fill-opacity="1" /><path clip-path="url(#clip760)" d="M788.754 12.096 L800.947 12.096 L816.381 53.2532 L831.896 12.096 L844.089 12.096 L844.089 72.576 L836.109 72.576 L836.109 19.4686 L820.513 60.9499 L812.289 60.9499 L796.693 19.4686 L796.693 72.576 L788.754 72.576 L788.754 12.096 Z" fill="#000000" fill-rule="evenodd" fill-opacity="1" /><path clip-path="url(#clip760)" d="M860.333 12.096 L895.09 12.096 L895.09 18.9825 L868.516 18.9825 L868.516 36.8065 L892.497 36.8065 L892.497 43.6931 L868.516 43.6931 L868.516 72.576 L860.333 72.576 L860.333 12.096 Z" fill="#000000" fill-rule="evenodd" fill-opacity="1" /><path clip-path="url(#clip760)" d="M929.766 27.2059 L937.219 27.2059 L946.536 62.6108 L955.813 27.2059 L964.603 27.2059 L973.92 62.6108 L983.197 27.2059 L990.651 27.2059 L978.782 72.576 L969.991 72.576 L960.228 35.3887 L950.425 72.576 L941.635 72.576 L929.766 27.2059 Z" fill="#000000" fill-rule="evenodd" fill-opacity="1" /><path clip-path="url(#clip760)" d="M1001.95 27.2059 L1009.41 27.2059 L1009.41 72.576 L1001.95 72.576 L1001.95 27.2059 M1001.95 9.54393 L1009.41 9.54393 L1009.41 18.9825 L1001.95 18.9825 L1001.95 9.54393 Z" fill="#000000" fill-rule="evenodd" fill-opacity="1" /><path clip-path="url(#clip760)" d="M1032.38 14.324 L1032.38 27.2059 L1047.73 27.2059 L1047.73 32.9987 L1032.38 32.9987 L1032.38 57.6282 Q1032.38 63.1779 1033.87 64.7578 Q1035.41 66.3376 1040.07 66.3376 L1047.73 66.3376 L1047.73 72.576 L1040.07 72.576 Q1031.44 72.576 1028.16 69.3758 Q1024.88 66.1351 1024.88 57.6282 L1024.88 32.9987 L1019.41 32.9987 L1019.41 27.2059 L1024.88 27.2059 L1024.88 14.324 L1032.38 14.324 Z" fill="#000000" fill-rule="evenodd" fill-opacity="1" /><path clip-path="url(#clip760)" d="M1095.25 45.1919 L1095.25 72.576 L1087.79 72.576 L1087.79 45.4349 Q1087.79 38.994 1085.28 35.7938 Q1082.77 32.5936 1077.75 32.5936 Q1071.71 32.5936 1068.23 36.4419 Q1064.74 40.2903 1064.74 46.9338 L1064.74 72.576 L1057.25 72.576 L1057.25 9.54393 L1064.74 9.54393 L1064.74 34.2544 Q1067.42 30.163 1071.02 28.1376 Q1074.67 26.1121 1079.41 26.1121 Q1087.22 26.1121 1091.23 30.9732 Q1095.25 35.7938 1095.25 45.1919 Z" fill="#000000" fill-rule="evenodd" fill-opacity="1" /><path clip-path="url(#clip760)" d="M1131.42 12.096 L1139.68 12.096 L1152.4 63.2184 L1165.08 12.096 L1174.28 12.096 L1187 63.2184 L1199.68 12.096 L1207.98 12.096 L1192.79 72.576 L1182.5 72.576 L1169.74 20.0763 L1156.86 72.576 L1146.57 72.576 L1131.42 12.096 Z" fill="#000000" fill-rule="evenodd" fill-opacity="1" /><path clip-path="url(#clip760)" d="M1233.83 49.7694 Q1224.79 49.7694 1221.31 51.8354 Q1217.83 53.9013 1217.83 58.8839 Q1217.83 62.8538 1220.42 65.2034 Q1223.05 67.5124 1227.55 67.5124 Q1233.75 67.5124 1237.47 63.1374 Q1241.24 58.7219 1241.24 51.4303 L1241.24 49.7694 L1233.83 49.7694 M1248.69 46.6907 L1248.69 72.576 L1241.24 72.576 L1241.24 65.6895 Q1238.69 69.8214 1234.88 71.8063 Q1231.07 73.7508 1225.56 73.7508 Q1218.6 73.7508 1214.46 69.8619 Q1210.37 65.9325 1210.37 59.3701 Q1210.37 51.7138 1215.48 47.825 Q1220.62 43.9361 1230.79 43.9361 L1241.24 43.9361 L1241.24 43.2069 Q1241.24 38.0623 1237.84 35.2672 Q1234.47 32.4315 1228.36 32.4315 Q1224.47 32.4315 1220.78 33.3632 Q1217.1 34.295 1213.69 36.1584 L1213.69 29.2718 Q1217.78 27.692 1221.63 26.9223 Q1225.48 26.1121 1229.13 26.1121 Q1238.97 26.1121 1243.83 31.2163 Q1248.69 36.3204 1248.69 46.6907 Z" fill="#000000" fill-rule="evenodd" fill-opacity="1" /><path clip-path="url(#clip760)" d="M1292.97 28.5427 L1292.97 35.5912 Q1289.81 33.9709 1286.41 33.1607 Q1283 32.3505 1279.36 32.3505 Q1273.81 32.3505 1271.01 34.0519 Q1268.26 35.7533 1268.26 39.156 Q1268.26 41.7486 1270.24 43.2475 Q1272.23 44.7058 1278.22 46.0426 L1280.78 46.6097 Q1288.72 48.3111 1292.04 51.4303 Q1295.4 54.509 1295.4 60.0587 Q1295.4 66.3781 1290.38 70.0644 Q1285.39 73.7508 1276.64 73.7508 Q1273 73.7508 1269.03 73.0216 Q1265.1 72.3329 1260.72 70.9151 L1260.72 63.2184 Q1264.86 65.3654 1268.87 66.4591 Q1272.88 67.5124 1276.81 67.5124 Q1282.07 67.5124 1284.91 65.73 Q1287.74 63.9071 1287.74 60.6258 Q1287.74 57.5877 1285.68 55.9673 Q1283.65 54.3469 1276.73 52.8481 L1274.13 52.2405 Q1267.21 50.7821 1264.13 47.7845 Q1261.05 44.7463 1261.05 39.4801 Q1261.05 33.0797 1265.59 29.5959 Q1270.12 26.1121 1278.47 26.1121 Q1282.6 26.1121 1286.25 26.7198 Q1289.89 27.3274 1292.97 28.5427 Z" fill="#000000" fill-rule="evenodd" fill-opacity="1" /><path clip-path="url(#clip760)" d="M1336.19 28.5427 L1336.19 35.5912 Q1333.03 33.9709 1329.63 33.1607 Q1326.23 32.3505 1322.58 32.3505 Q1317.03 32.3505 1314.24 34.0519 Q1311.48 35.7533 1311.48 39.156 Q1311.48 41.7486 1313.47 43.2475 Q1315.45 44.7058 1321.45 46.0426 L1324 46.6097 Q1331.94 48.3111 1335.26 51.4303 Q1338.62 54.509 1338.62 60.0587 Q1338.62 66.3781 1333.6 70.0644 Q1328.62 73.7508 1319.87 73.7508 Q1316.22 73.7508 1312.25 73.0216 Q1308.32 72.3329 1303.95 70.9151 L1303.95 63.2184 Q1308.08 65.3654 1312.09 66.4591 Q1316.1 67.5124 1320.03 67.5124 Q1325.3 67.5124 1328.13 65.73 Q1330.97 63.9071 1330.97 60.6258 Q1330.97 57.5877 1328.9 55.9673 Q1326.88 54.3469 1319.95 52.8481 L1317.36 52.2405 Q1310.43 50.7821 1307.35 47.7845 Q1304.27 44.7463 1304.27 39.4801 Q1304.27 33.0797 1308.81 29.5959 Q1313.35 26.1121 1321.69 26.1121 Q1325.82 26.1121 1329.47 26.7198 Q1333.11 27.3274 1336.19 28.5427 Z" fill="#000000" fill-rule="evenodd" fill-opacity="1" /><path clip-path="url(#clip760)" d="M1389.3 48.0275 L1389.3 51.6733 L1355.03 51.6733 Q1355.52 59.3701 1359.65 63.421 Q1363.82 67.4314 1371.23 67.4314 Q1375.53 67.4314 1379.54 66.3781 Q1383.59 65.3249 1387.56 63.2184 L1387.56 70.267 Q1383.55 71.9684 1379.33 72.8596 Q1375.12 73.7508 1370.79 73.7508 Q1359.93 73.7508 1353.57 67.4314 Q1347.25 61.1119 1347.25 50.3365 Q1347.25 39.1965 1353.25 32.6746 Q1359.28 26.1121 1369.49 26.1121 Q1378.65 26.1121 1383.95 32.0264 Q1389.3 37.9003 1389.3 48.0275 M1381.85 45.84 Q1381.77 39.7232 1378.4 36.0774 Q1375.08 32.4315 1369.57 32.4315 Q1363.33 32.4315 1359.57 35.9558 Q1355.84 39.4801 1355.27 45.8805 L1381.85 45.84 Z" fill="#000000" fill-rule="evenodd" fill-opacity="1" /><path clip-path="url(#clip760)" d="M1427.82 34.1734 Q1426.57 33.4443 1425.07 33.1202 Q1423.61 32.7556 1421.83 32.7556 Q1415.51 32.7556 1412.11 36.8875 Q1408.74 40.9789 1408.74 48.6757 L1408.74 72.576 L1401.25 72.576 L1401.25 27.2059 L1408.74 27.2059 L1408.74 34.2544 Q1411.09 30.1225 1414.86 28.1376 Q1418.63 26.1121 1424.02 26.1121 Q1424.79 26.1121 1425.72 26.2337 Q1426.65 26.3147 1427.78 26.5172 L1427.82 34.1734 Z" fill="#000000" fill-rule="evenodd" fill-opacity="1" /><path clip-path="url(#clip760)" d="M1464.57 28.5427 L1464.57 35.5912 Q1461.41 33.9709 1458 33.1607 Q1454.6 32.3505 1450.95 32.3505 Q1445.41 32.3505 1442.61 34.0519 Q1439.86 35.7533 1439.86 39.156 Q1439.86 41.7486 1441.84 43.2475 Q1443.83 44.7058 1449.82 46.0426 L1452.37 46.6097 Q1460.31 48.3111 1463.63 51.4303 Q1467 54.509 1467 60.0587 Q1467 66.3781 1461.97 70.0644 Q1456.99 73.7508 1448.24 73.7508 Q1444.6 73.7508 1440.63 73.0216 Q1436.7 72.3329 1432.32 70.9151 L1432.32 63.2184 Q1436.45 65.3654 1440.46 66.4591 Q1444.47 67.5124 1448.4 67.5124 Q1453.67 67.5124 1456.5 65.73 Q1459.34 63.9071 1459.34 60.6258 Q1459.34 57.5877 1457.27 55.9673 Q1455.25 54.3469 1448.32 52.8481 L1445.73 52.2405 Q1438.8 50.7821 1435.72 47.7845 Q1432.64 44.7463 1432.64 39.4801 Q1432.64 33.0797 1437.18 29.5959 Q1441.72 26.1121 1450.06 26.1121 Q1454.2 26.1121 1457.84 26.7198 Q1461.49 27.3274 1464.57 28.5427 Z" fill="#000000" fill-rule="evenodd" fill-opacity="1" /><path clip-path="url(#clip760)" d="M1486.24 14.324 L1486.24 27.2059 L1501.59 27.2059 L1501.59 32.9987 L1486.24 32.9987 L1486.24 57.6282 Q1486.24 63.1779 1487.74 64.7578 Q1489.28 66.3376 1493.94 66.3376 L1501.59 66.3376 L1501.59 72.576 L1493.94 72.576 Q1485.31 72.576 1482.03 69.3758 Q1478.74 66.1351 1478.74 57.6282 L1478.74 32.9987 L1473.28 32.9987 L1473.28 27.2059 L1478.74 27.2059 L1478.74 14.324 L1486.24 14.324 Z" fill="#000000" fill-rule="evenodd" fill-opacity="1" /><path clip-path="url(#clip760)" d="M1550.2 48.0275 L1550.2 51.6733 L1515.93 51.6733 Q1516.42 59.3701 1520.55 63.421 Q1524.72 67.4314 1532.14 67.4314 Q1536.43 67.4314 1540.44 66.3781 Q1544.49 65.3249 1548.46 63.2184 L1548.46 70.267 Q1544.45 71.9684 1540.24 72.8596 Q1536.02 73.7508 1531.69 73.7508 Q1520.83 73.7508 1514.47 67.4314 Q1508.15 61.1119 1508.15 50.3365 Q1508.15 39.1965 1514.15 32.6746 Q1520.18 26.1121 1530.39 26.1121 Q1539.55 26.1121 1544.85 32.0264 Q1550.2 37.9003 1550.2 48.0275 M1542.75 45.84 Q1542.67 39.7232 1539.31 36.0774 Q1535.98 32.4315 1530.47 32.4315 Q1524.24 32.4315 1520.47 35.9558 Q1516.74 39.4801 1516.17 45.8805 L1542.75 45.84 Z" fill="#000000" fill-rule="evenodd" fill-opacity="1" /><path clip-path="url(#clip760)" d="M1562.44 27.2059 L1569.89 27.2059 L1569.89 72.576 L1562.44 72.576 L1562.44 27.2059 M1562.44 9.54393 L1569.89 9.54393 L1569.89 18.9825 L1562.44 18.9825 L1562.44 9.54393 Z" fill="#000000" fill-rule="evenodd" fill-opacity="1" /><path clip-path="url(#clip760)" d="M1623.2 45.1919 L1623.2 72.576 L1615.75 72.576 L1615.75 45.4349 Q1615.75 38.994 1613.23 35.7938 Q1610.72 32.5936 1605.7 32.5936 Q1599.66 32.5936 1596.18 36.4419 Q1592.7 40.2903 1592.7 46.9338 L1592.7 72.576 L1585.2 72.576 L1585.2 27.2059 L1592.7 27.2059 L1592.7 34.2544 Q1595.37 30.163 1598.97 28.1376 Q1602.62 26.1121 1607.36 26.1121 Q1615.18 26.1121 1619.19 30.9732 Q1623.2 35.7938 1623.2 45.1919 Z" fill="#000000" fill-rule="evenodd" fill-opacity="1" /><path clip-path="url(#clip760)" d="M1664.44 9.54393 L1671.89 9.54393 L1671.89 72.576 L1664.44 72.576 L1664.44 9.54393 Z" fill="#000000" fill-rule="evenodd" fill-opacity="1" /><path clip-path="url(#clip760)" d="M1705.07 32.4315 Q1699.07 32.4315 1695.59 37.1306 Q1692.11 41.7891 1692.11 49.9314 Q1692.11 58.0738 1695.55 62.7728 Q1699.03 67.4314 1705.07 67.4314 Q1711.02 67.4314 1714.51 62.7323 Q1717.99 58.0333 1717.99 49.9314 Q1717.99 41.8701 1714.51 37.1711 Q1711.02 32.4315 1705.07 32.4315 M1705.07 26.1121 Q1714.79 26.1121 1720.34 32.4315 Q1725.89 38.7509 1725.89 49.9314 Q1725.89 61.0714 1720.34 67.4314 Q1714.79 73.7508 1705.07 73.7508 Q1695.31 73.7508 1689.76 67.4314 Q1684.25 61.0714 1684.25 49.9314 Q1684.25 38.7509 1689.76 32.4315 Q1695.31 26.1121 1705.07 26.1121 Z" fill="#000000" fill-rule="evenodd" fill-opacity="1" /><path clip-path="url(#clip760)" d="M1767.17 28.5427 L1767.17 35.5912 Q1764.01 33.9709 1760.61 33.1607 Q1757.2 32.3505 1753.56 32.3505 Q1748.01 32.3505 1745.21 34.0519 Q1742.46 35.7533 1742.46 39.156 Q1742.46 41.7486 1744.44 43.2475 Q1746.43 44.7058 1752.42 46.0426 L1754.98 46.6097 Q1762.92 48.3111 1766.24 51.4303 Q1769.6 54.509 1769.6 60.0587 Q1769.6 66.3781 1764.58 70.0644 Q1759.59 73.7508 1750.84 73.7508 Q1747.2 73.7508 1743.23 73.0216 Q1739.3 72.3329 1734.92 70.9151 L1734.92 63.2184 Q1739.06 65.3654 1743.07 66.4591 Q1747.08 67.5124 1751.01 67.5124 Q1756.27 67.5124 1759.11 65.73 Q1761.94 63.9071 1761.94 60.6258 Q1761.94 57.5877 1759.88 55.9673 Q1757.85 54.3469 1750.92 52.8481 L1748.33 52.2405 Q1741.4 50.7821 1738.33 47.7845 Q1735.25 44.7463 1735.25 39.4801 Q1735.25 33.0797 1739.78 29.5959 Q1744.32 26.1121 1752.67 26.1121 Q1756.8 26.1121 1760.44 26.7198 Q1764.09 27.3274 1767.17 28.5427 Z" fill="#000000" fill-rule="evenodd" fill-opacity="1" /><path clip-path="url(#clip760)" d="M1810.39 28.5427 L1810.39 35.5912 Q1807.23 33.9709 1803.83 33.1607 Q1800.43 32.3505 1796.78 32.3505 Q1791.23 32.3505 1788.44 34.0519 Q1785.68 35.7533 1785.68 39.156 Q1785.68 41.7486 1787.67 43.2475 Q1789.65 44.7058 1795.65 46.0426 L1798.2 46.6097 Q1806.14 48.3111 1809.46 51.4303 Q1812.82 54.509 1812.82 60.0587 Q1812.82 66.3781 1807.8 70.0644 Q1802.82 73.7508 1794.07 73.7508 Q1790.42 73.7508 1786.45 73.0216 Q1782.52 72.3329 1778.15 70.9151 L1778.15 63.2184 Q1782.28 65.3654 1786.29 66.4591 Q1790.3 67.5124 1794.23 67.5124 Q1799.49 67.5124 1802.33 65.73 Q1805.17 63.9071 1805.17 60.6258 Q1805.17 57.5877 1803.1 55.9673 Q1801.07 54.3469 1794.15 52.8481 L1791.55 52.2405 Q1784.63 50.7821 1781.55 47.7845 Q1778.47 44.7463 1778.47 39.4801 Q1778.47 33.0797 1783.01 29.5959 Q1787.54 26.1121 1795.89 26.1121 Q1800.02 26.1121 1803.67 26.7198 Q1807.31 27.3274 1810.39 28.5427 Z" fill="#000000" fill-rule="evenodd" fill-opacity="1" /><polyline clip-path="url(#clip762)" style="stroke:#e31a1c; stroke-linecap:butt; stroke-linejoin:round; stroke-width:4; stroke-opacity:1; fill:none" points="
  248.062,1447.87 268.702,1447.87 289.343,1447.87 309.983,1447.87 330.623,1447.87 351.264,1447.87 371.904,1447.87 392.544,1447.87 413.184,1447.87 433.825,1447.87 
  454.465,1447.87 475.105,1447.87 495.746,1447.87 516.386,1447.87 537.026,1447.87 557.667,1447.87 578.307,1447.87 598.947,1447.87 619.588,1447.87 640.228,1447.87 
  660.868,1447.87 681.509,1447.87 702.149,1447.87 722.789,1447.87 743.43,1447.87 764.07,1447.87 784.71,1447.87 805.351,1447.87 825.991,1447.87 846.631,1447.86 
  867.272,1447.82 887.912,1447.66 908.552,1446.93 929.193,1443.16 949.833,1430.07 970.473,1404.11 991.114,1365.2 1011.75,1314.17 1032.39,1247.6 1053.03,1172.52 
  1073.67,1091.98 1094.32,997.405 1114.96,894.371 1135.6,784.939 1156.24,666.87 1176.88,543.247 1197.52,432.135 1218.16,335.016 1238.8,268.32 1259.44,226.113 
  1280.08,221.157 1300.72,252.092 1321.36,309.074 1342,397.939 1362.64,507.158 1383.28,625.211 1403.92,734.12 1424.56,844.635 1445.2,940.149 1465.84,1019.07 
  1486.48,1106.69 1507.12,1187.65 1527.76,1268.92 1548.4,1339.07 1569.04,1392.86 1589.68,1428.52 1610.32,1444.93 1630.96,1447.64 1651.6,1447.85 1672.24,1447.87 
  1692.88,1447.87 1713.53,1447.87 1734.17,1447.87 1754.81,1447.87 1775.45,1447.87 1796.09,1447.87 1816.73,1447.87 1837.37,1447.87 1858.01,1447.87 1878.65,1447.87 
  1899.29,1447.87 1919.93,1447.87 1940.57,1447.87 1961.21,1447.87 1981.85,1447.87 2002.49,1447.87 2023.13,1447.87 2043.77,1447.87 2064.41,1447.87 2085.05,1447.87 
  2105.69,1447.87 2126.33,1447.87 2146.97,1447.87 2167.61,1447.87 2188.25,1447.87 2208.89,1447.87 2229.53,1447.87 2250.17,1447.87 2270.81,1447.87 2291.45,1447.87 
  
  "/>
<polyline clip-path="url(#clip762)" style="stroke:#377db8; stroke-linecap:butt; stroke-linejoin:round; stroke-width:4; stroke-opacity:1; fill:none" points="
  248.062,1447.66 268.702,1447.02 289.343,1447.08 309.983,1445.97 330.623,1445.48 351.264,1443.75 371.904,1440.96 392.544,1437.51 413.184,1429.69 433.825,1416.85 
  454.465,1397.91 475.105,1370.38 495.746,1334.86 516.386,1279.46 537.026,1212.6 557.667,1126.07 578.307,1021.31 598.947,902.482 619.588,767.436 640.228,627.04 
  660.868,495.268 681.509,374.769 702.149,271.853 722.789,203.587 743.43,179.353 764.07,180.572 784.71,227.707 805.351,309.331 825.991,410.331 846.631,527.054 
  867.272,648.392 887.912,770.774 908.552,885.083 929.193,982.714 949.833,1073.83 970.473,1155.85 991.114,1221.13 1011.75,1284.6 1032.39,1337.57 1053.03,1382.63 
  1073.67,1417.84 1094.32,1438.63 1114.96,1445.97 1135.6,1447.51 1156.24,1447.79 1176.88,1447.85 1197.52,1447.87 1218.16,1447.87 1238.8,1447.87 1259.44,1447.87 
  1280.08,1447.87 1300.72,1447.87 1321.36,1447.87 1342,1447.87 1362.64,1447.87 1383.28,1447.87 1403.92,1447.87 1424.56,1447.87 1445.2,1447.87 1465.84,1447.87 
  1486.48,1447.87 1507.12,1447.87 1527.76,1447.87 1548.4,1447.86 1569.04,1447.86 1589.68,1447.86 1610.32,1447.87 1630.96,1447.87 1651.6,1447.87 1672.24,1447.87 
  1692.88,1447.87 1713.53,1447.87 1734.17,1447.87 1754.81,1447.87 1775.45,1447.87 1796.09,1447.87 1816.73,1447.87 1837.37,1447.87 1858.01,1447.87 1878.65,1447.87 
  1899.29,1447.87 1919.93,1447.87 1940.57,1447.87 1961.21,1447.87 1981.85,1447.87 2002.49,1447.87 2023.13,1447.87 2043.77,1447.87 2064.41,1447.87 2085.05,1447.87 
  2105.69,1447.87 2126.33,1447.87 2146.97,1447.87 2167.61,1447.87 2188.25,1447.87 2208.89,1447.87 2229.53,1447.87 2250.17,1447.87 2270.81,1447.87 2291.45,1447.87 
  
  "/>
<polyline clip-path="url(#clip762)" style="stroke:#4dae49; stroke-linecap:butt; stroke-linejoin:round; stroke-width:4; stroke-opacity:1; fill:none" points="
  248.062,1447.87 268.702,1447.87 289.343,1447.87 309.983,1447.87 330.623,1447.87 351.264,1447.87 371.904,1447.87 392.544,1447.87 413.184,1447.87 433.825,1447.87 
  454.465,1447.87 475.105,1447.87 495.746,1447.87 516.386,1447.87 537.026,1447.87 557.667,1447.87 578.307,1447.87 598.947,1447.87 619.588,1447.87 640.228,1447.87 
  660.868,1447.87 681.509,1447.87 702.149,1447.87 722.789,1447.87 743.43,1447.87 764.07,1447.87 784.71,1447.87 805.351,1447.87 825.991,1447.87 846.631,1447.87 
  867.272,1447.87 887.912,1447.87 908.552,1447.87 929.193,1447.87 949.833,1447.87 970.473,1447.87 991.114,1447.87 1011.75,1447.87 1032.39,1447.87 1053.03,1447.87 
  1073.67,1447.87 1094.32,1447.87 1114.96,1447.87 1135.6,1447.87 1156.24,1447.87 1176.88,1447.87 1197.52,1447.87 1218.16,1447.87 1238.8,1447.87 1259.44,1447.87 
  1280.08,1447.87 1300.72,1447.87 1321.36,1447.87 1342,1447.87 1362.64,1447.87 1383.28,1447.87 1403.92,1447.87 1424.56,1447.86 1445.2,1447.7 1465.84,1444.73 
  1486.48,1423.58 1507.12,1374.14 1527.76,1309.36 1548.4,1232.73 1569.04,1149.07 1589.68,1057 1610.32,967.355 1630.96,862.609 1651.6,752.378 1672.24,628.819 
  1692.88,509.255 1713.53,386.477 1734.17,289.245 1754.81,218.553 1775.45,162.047 1796.09,169.948 1816.73,189.317 1837.37,274.121 1858.01,376.595 1878.65,497.482 
  1899.29,634.518 1919.93,770.476 1940.57,906.105 1961.21,1031.52 1981.85,1131.15 2002.49,1221.17 2023.13,1283.02 2043.77,1336.5 2064.41,1373.21 2085.05,1401.24 
  2105.69,1419.57 2126.33,1429.86 2146.97,1437.54 2167.61,1441.47 2188.25,1444.13 2208.89,1445.89 2229.53,1446.13 2250.17,1447.24 2270.81,1447.1 2291.45,1447.65 
  
  "/>
<path clip-path="url(#clip760)" d="
M1987.55 376.265 L2280.56 376.265 L2280.56 168.905 L1987.55 168.905  Z
  " fill="#ffffff" fill-rule="evenodd" fill-opacity="1"/>
<polyline clip-path="url(#clip760)" style="stroke:#000000; stroke-linecap:butt; stroke-linejoin:round; stroke-width:4; stroke-opacity:1; fill:none" points="
  1987.55,376.265 2280.56,376.265 2280.56,168.905 1987.55,168.905 1987.55,376.265 
  "/>
<polyline clip-path="url(#clip760)" style="stroke:#e31a1c; stroke-linecap:butt; stroke-linejoin:round; stroke-width:4; stroke-opacity:1; fill:none" points="
  2011.55,220.745 2155.55,220.745 
  "/>
<path clip-path="url(#clip760)" d="M2193.39 240.432 Q2191.58 245.062 2189.87 246.474 Q2188.16 247.886 2185.29 247.886 L2181.89 247.886 L2181.89 244.321 L2184.39 244.321 Q2186.14 244.321 2187.12 243.488 Q2188.09 242.654 2189.27 239.552 L2190.03 237.608 L2179.55 212.099 L2184.06 212.099 L2192.16 232.377 L2200.26 212.099 L2204.78 212.099 L2193.39 240.432 Z" fill="#000000" fill-rule="evenodd" fill-opacity="1" /><path clip-path="url(#clip760)" d="M2212.07 234.089 L2219.71 234.089 L2219.71 207.724 L2211.4 209.391 L2211.4 205.131 L2219.66 203.465 L2224.34 203.465 L2224.34 234.089 L2231.98 234.089 L2231.98 238.025 L2212.07 238.025 L2212.07 234.089 Z" fill="#000000" fill-rule="evenodd" fill-opacity="1" /><polyline clip-path="url(#clip760)" style="stroke:#377db8; stroke-linecap:butt; stroke-linejoin:round; stroke-width:4; stroke-opacity:1; fill:none" points="
  2011.55,272.585 2155.55,272.585 
  "/>
<path clip-path="url(#clip760)" d="M2193.39 292.272 Q2191.58 296.902 2189.87 298.314 Q2188.16 299.726 2185.29 299.726 L2181.89 299.726 L2181.89 296.161 L2184.39 296.161 Q2186.14 296.161 2187.12 295.328 Q2188.09 294.494 2189.27 291.392 L2190.03 289.448 L2179.55 263.939 L2184.06 263.939 L2192.16 284.217 L2200.26 263.939 L2204.78 263.939 L2193.39 292.272 Z" fill="#000000" fill-rule="evenodd" fill-opacity="1" /><path clip-path="url(#clip760)" d="M2215.29 285.929 L2231.61 285.929 L2231.61 289.865 L2209.66 289.865 L2209.66 285.929 Q2212.32 283.175 2216.91 278.545 Q2221.51 273.893 2222.69 272.55 Q2224.94 270.027 2225.82 268.291 Q2226.72 266.531 2226.72 264.842 Q2226.72 262.087 2224.78 260.351 Q2222.86 258.615 2219.76 258.615 Q2217.56 258.615 2215.1 259.379 Q2212.67 260.143 2209.89 261.694 L2209.89 256.971 Q2212.72 255.837 2215.17 255.258 Q2217.63 254.68 2219.66 254.68 Q2225.03 254.68 2228.23 257.365 Q2231.42 260.05 2231.42 264.541 Q2231.42 266.67 2230.61 268.592 Q2229.82 270.49 2227.72 273.082 Q2227.14 273.754 2224.04 276.971 Q2220.94 280.166 2215.29 285.929 Z" fill="#000000" fill-rule="evenodd" fill-opacity="1" /><polyline clip-path="url(#clip760)" style="stroke:#4dae49; stroke-linecap:butt; stroke-linejoin:round; stroke-width:4; stroke-opacity:1; fill:none" points="
  2011.55,324.425 2155.55,324.425 
  "/>
<path clip-path="url(#clip760)" d="M2193.39 344.112 Q2191.58 348.742 2189.87 350.154 Q2188.16 351.566 2185.29 351.566 L2181.89 351.566 L2181.89 348.001 L2184.39 348.001 Q2186.14 348.001 2187.12 347.168 Q2188.09 346.334 2189.27 343.232 L2190.03 341.288 L2179.55 315.779 L2184.06 315.779 L2192.16 336.057 L2200.26 315.779 L2204.78 315.779 L2193.39 344.112 Z" fill="#000000" fill-rule="evenodd" fill-opacity="1" /><path clip-path="url(#clip760)" d="M2225.43 323.07 Q2228.78 323.788 2230.66 326.057 Q2232.56 328.325 2232.56 331.658 Q2232.56 336.774 2229.04 339.575 Q2225.52 342.376 2219.04 342.376 Q2216.86 342.376 2214.55 341.936 Q2212.26 341.519 2209.8 340.663 L2209.8 336.149 Q2211.75 337.283 2214.06 337.862 Q2216.38 338.441 2218.9 338.441 Q2223.3 338.441 2225.59 336.705 Q2227.9 334.969 2227.9 331.658 Q2227.9 328.603 2225.75 326.89 Q2223.62 325.154 2219.8 325.154 L2215.77 325.154 L2215.77 321.311 L2219.99 321.311 Q2223.44 321.311 2225.26 319.946 Q2227.09 318.557 2227.09 315.964 Q2227.09 313.302 2225.19 311.89 Q2223.32 310.455 2219.8 310.455 Q2217.88 310.455 2215.68 310.871 Q2213.48 311.288 2210.84 312.168 L2210.84 308.001 Q2213.51 307.26 2215.82 306.89 Q2218.16 306.52 2220.22 306.52 Q2225.54 306.52 2228.64 308.95 Q2231.75 311.358 2231.75 315.478 Q2231.75 318.348 2230.1 320.339 Q2228.46 322.307 2225.43 323.07 Z" fill="#000000" fill-rule="evenodd" fill-opacity="1" /></svg>
