<?xml version="1.0" encoding="utf-8"?>
<svg xmlns="http://www.w3.org/2000/svg" xmlns:xlink="http://www.w3.org/1999/xlink" width="600" height="400" viewBox="0 0 2400 1600">
<defs>
  <clipPath id="clip050">
    <rect x="0" y="0" width="2400" height="1600"/>
  </clipPath>
</defs>
<path clip-path="url(#clip050)" d="
M0 1600 L2400 1600 L2400 0 L0 0  Z
  " fill="#ffffff" fill-rule="evenodd" fill-opacity="1"/>
<defs>
  <clipPath id="clip051">
    <rect x="480" y="0" width="1681" height="1600"/>
  </clipPath>
</defs>
<path clip-path="url(#clip050)" d="
M186.76 1486.45 L2352.76 1486.45 L2352.76 47.2441 L186.76 47.2441  Z
  " fill="#ffffff" fill-rule="evenodd" fill-opacity="1"/>
<defs>
  <clipPath id="clip052">
    <rect x="186" y="47" width="2167" height="1440"/>
  </clipPath>
</defs>
<polyline clip-path="url(#clip052)" style="stroke:#000000; stroke-linecap:butt; stroke-linejoin:round; stroke-width:2; stroke-opacity:0.1; fill:none" points="
  248.062,1486.45 248.062,47.2441 
  "/>
<polyline clip-path="url(#clip052)" style="stroke:#000000; stroke-linecap:butt; stroke-linejoin:round; stroke-width:2; stroke-opacity:0.1; fill:none" points="
  758.91,1486.45 758.91,47.2441 
  "/>
<polyline clip-path="url(#clip052)" style="stroke:#000000; stroke-linecap:butt; stroke-linejoin:round; stroke-width:2; stroke-opacity:0.1; fill:none" points="
  1269.76,1486.45 1269.76,47.2441 
  "/>
<polyline clip-path="url(#clip052)" style="stroke:#000000; stroke-linecap:butt; stroke-linejoin:round; stroke-width:2; stroke-opacity:0.1; fill:none" points="
  1780.61,1486.45 1780.61,47.2441 
  "/>
<polyline clip-path="url(#clip052)" style="stroke:#000000; stroke-linecap:butt; stroke-linejoin:round; stroke-width:2; stroke-opacity:0.1; fill:none" points="
  2291.45,1486.45 2291.45,47.2441 
  "/>
<polyline clip-path="url(#clip050)" style="stroke:#000000; stroke-linecap:butt; stroke-linejoin:round; stroke-width:4; stroke-opacity:1; fill:none" points="
  186.76,1486.45 2352.76,1486.45 
  "/>
<polyline clip-path="url(#clip050)" style="stroke:#000000; stroke-linecap:butt; stroke-linejoin:round; stroke-width:4; stroke-opacity:1; fill:none" points="
  248.062,1486.45 248.062,1467.55 
  "/>
<polyline clip-path="url(#clip050)" style="stroke:#000000; stroke-linecap:butt; stroke-linejoin:round; stroke-width:4; stroke-opacity:1; fill:none" points="
  758.91,1486.45 758.91,1467.55 
  "/>
<polyline clip-path="url(#clip050)" style="stroke:#000000; stroke-linecap:butt; stroke-linejoin:round; stroke-width:4; stroke-opacity:1; fill:none" points="
  1269.76,1486.45 1269.76,1467.55 
  "/>
<polyline clip-path="url(#clip050)" style="stroke:#000000; stroke-linecap:butt; stroke-linejoin:round; stroke-width:4; stroke-opacity:1; fill:none" points="
  1780.61,1486.45 1780.61,1467.55 
  "/>
<polyline clip-path="url(#clip050)" style="stroke:#000000; stroke-linecap:butt; stroke-linejoin:round; stroke-width:4; stroke-opacity:1; fill:none" points="
  2291.45,1486.45 2291.45,1467.55 
  "/>
<path clip-path="url(#clip050)" d="M194.59 1532.02 L224.266 1532.02 L224.266 1535.95 L194.59 1535.95 L194.59 1532.02 Z" fill="#000000" fill-rule="evenodd" fill-opacity="1" /><path clip-path="url(#clip050)" d="M235.168 1544.91 L242.807 1544.91 L242.807 1518.55 L234.497 1520.21 L234.497 1515.95 L242.761 1514.29 L247.437 1514.29 L247.437 1544.91 L255.076 1544.91 L255.076 1548.85 L235.168 1548.85 L235.168 1544.91 Z" fill="#000000" fill-rule="evenodd" fill-opacity="1" /><path clip-path="url(#clip050)" d="M264.52 1542.97 L269.404 1542.97 L269.404 1548.85 L264.52 1548.85 L264.52 1542.97 Z" fill="#000000" fill-rule="evenodd" fill-opacity="1" /><path clip-path="url(#clip050)" d="M289.589 1517.37 Q285.978 1517.37 284.15 1520.93 Q282.344 1524.47 282.344 1531.6 Q282.344 1538.71 284.15 1542.27 Q285.978 1545.82 289.589 1545.82 Q293.224 1545.82 295.029 1542.27 Q296.858 1538.71 296.858 1531.6 Q296.858 1524.47 295.029 1520.93 Q293.224 1517.37 289.589 1517.37 M289.589 1513.66 Q295.4 1513.66 298.455 1518.27 Q301.534 1522.85 301.534 1531.6 Q301.534 1540.33 298.455 1544.94 Q295.4 1549.52 289.589 1549.52 Q283.779 1549.52 280.701 1544.94 Q277.645 1540.33 277.645 1531.6 Q277.645 1522.85 280.701 1518.27 Q283.779 1513.66 289.589 1513.66 Z" fill="#000000" fill-rule="evenodd" fill-opacity="1" /><path clip-path="url(#clip050)" d="M705.936 1532.02 L735.611 1532.02 L735.611 1535.95 L705.936 1535.95 L705.936 1532.02 Z" fill="#000000" fill-rule="evenodd" fill-opacity="1" /><path clip-path="url(#clip050)" d="M755.704 1517.37 Q752.093 1517.37 750.264 1520.93 Q748.459 1524.47 748.459 1531.6 Q748.459 1538.71 750.264 1542.27 Q752.093 1545.82 755.704 1545.82 Q759.338 1545.82 761.144 1542.27 Q762.972 1538.71 762.972 1531.6 Q762.972 1524.47 761.144 1520.93 Q759.338 1517.37 755.704 1517.37 M755.704 1513.66 Q761.514 1513.66 764.57 1518.27 Q767.648 1522.85 767.648 1531.6 Q767.648 1540.33 764.57 1544.94 Q761.514 1549.52 755.704 1549.52 Q749.894 1549.52 746.815 1544.94 Q743.76 1540.33 743.76 1531.6 Q743.76 1522.85 746.815 1518.27 Q749.894 1513.66 755.704 1513.66 Z" fill="#000000" fill-rule="evenodd" fill-opacity="1" /><path clip-path="url(#clip050)" d="M775.866 1542.97 L780.75 1542.97 L780.75 1548.85 L775.866 1548.85 L775.866 1542.97 Z" fill="#000000" fill-rule="evenodd" fill-opacity="1" /><path clip-path="url(#clip050)" d="M790.982 1514.29 L809.338 1514.29 L809.338 1518.22 L795.264 1518.22 L795.264 1526.7 Q796.282 1526.35 797.301 1526.19 Q798.319 1526 799.338 1526 Q805.125 1526 808.505 1529.17 Q811.884 1532.34 811.884 1537.76 Q811.884 1543.34 808.412 1546.44 Q804.94 1549.52 798.62 1549.52 Q796.444 1549.52 794.176 1549.15 Q791.931 1548.78 789.523 1548.04 L789.523 1543.34 Q791.607 1544.47 793.829 1545.03 Q796.051 1545.58 798.528 1545.58 Q802.532 1545.58 804.87 1543.48 Q807.208 1541.37 807.208 1537.76 Q807.208 1534.15 804.87 1532.04 Q802.532 1529.94 798.528 1529.94 Q796.653 1529.94 794.778 1530.35 Q792.926 1530.77 790.982 1531.65 L790.982 1514.29 Z" fill="#000000" fill-rule="evenodd" fill-opacity="1" /><path clip-path="url(#clip050)" d="M1247.14 1517.37 Q1243.53 1517.37 1241.7 1520.93 Q1239.9 1524.47 1239.9 1531.6 Q1239.9 1538.71 1241.7 1542.27 Q1243.53 1545.82 1247.14 1545.82 Q1250.78 1545.82 1252.58 1542.27 Q1254.41 1538.71 1254.41 1531.6 Q1254.41 1524.47 1252.58 1520.93 Q1250.78 1517.37 1247.14 1517.37 M1247.14 1513.66 Q1252.95 1513.66 1256.01 1518.27 Q1259.09 1522.85 1259.09 1531.6 Q1259.09 1540.33 1256.01 1544.94 Q1252.95 1549.52 1247.14 1549.52 Q1241.33 1549.52 1238.25 1544.94 Q1235.2 1540.33 1235.2 1531.6 Q1235.2 1522.85 1238.25 1518.27 Q1241.33 1513.66 1247.14 1513.66 Z" fill="#000000" fill-rule="evenodd" fill-opacity="1" /><path clip-path="url(#clip050)" d="M1267.3 1542.97 L1272.19 1542.97 L1272.19 1548.85 L1267.3 1548.85 L1267.3 1542.97 Z" fill="#000000" fill-rule="evenodd" fill-opacity="1" /><path clip-path="url(#clip050)" d="M1292.37 1517.37 Q1288.76 1517.37 1286.93 1520.93 Q1285.13 1524.47 1285.13 1531.6 Q1285.13 1538.71 1286.93 1542.27 Q1288.76 1545.82 1292.37 1545.82 Q1296.01 1545.82 1297.81 1542.27 Q1299.64 1538.71 1299.64 1531.6 Q1299.64 1524.47 1297.81 1520.93 Q1296.01 1517.37 1292.37 1517.37 M1292.37 1513.66 Q1298.18 1513.66 1301.24 1518.27 Q1304.32 1522.85 1304.32 1531.6 Q1304.32 1540.33 1301.24 1544.94 Q1298.18 1549.52 1292.37 1549.52 Q1286.56 1549.52 1283.48 1544.94 Q1280.43 1540.33 1280.43 1531.6 Q1280.43 1522.85 1283.48 1518.27 Q1286.56 1513.66 1292.37 1513.66 Z" fill="#000000" fill-rule="evenodd" fill-opacity="1" /><path clip-path="url(#clip050)" d="M1758.49 1517.37 Q1754.88 1517.37 1753.05 1520.93 Q1751.24 1524.47 1751.24 1531.6 Q1751.24 1538.71 1753.05 1542.27 Q1754.88 1545.82 1758.49 1545.82 Q1762.12 1545.82 1763.93 1542.27 Q1765.76 1538.71 1765.76 1531.6 Q1765.76 1524.47 1763.93 1520.93 Q1762.12 1517.37 1758.49 1517.37 M1758.49 1513.66 Q1764.3 1513.66 1767.35 1518.27 Q1770.43 1522.85 1770.43 1531.6 Q1770.43 1540.33 1767.35 1544.94 Q1764.3 1549.52 1758.49 1549.52 Q1752.68 1549.52 1749.6 1544.94 Q1746.54 1540.33 1746.54 1531.6 Q1746.54 1522.85 1749.6 1518.27 Q1752.68 1513.66 1758.49 1513.66 Z" fill="#000000" fill-rule="evenodd" fill-opacity="1" /><path clip-path="url(#clip050)" d="M1778.65 1542.97 L1783.53 1542.97 L1783.53 1548.85 L1778.65 1548.85 L1778.65 1542.97 Z" fill="#000000" fill-rule="evenodd" fill-opacity="1" /><path clip-path="url(#clip050)" d="M1793.77 1514.29 L1812.12 1514.29 L1812.12 1518.22 L1798.05 1518.22 L1798.05 1526.7 Q1799.07 1526.35 1800.09 1526.19 Q1801.1 1526 1802.12 1526 Q1807.91 1526 1811.29 1529.17 Q1814.67 1532.34 1814.67 1537.76 Q1814.67 1543.34 1811.2 1546.44 Q1807.72 1549.52 1801.4 1549.52 Q1799.23 1549.52 1796.96 1549.15 Q1794.71 1548.78 1792.31 1548.04 L1792.31 1543.34 Q1794.39 1544.47 1796.61 1545.03 Q1798.84 1545.58 1801.31 1545.58 Q1805.32 1545.58 1807.65 1543.48 Q1809.99 1541.37 1809.99 1537.76 Q1809.99 1534.15 1807.65 1532.04 Q1805.32 1529.94 1801.31 1529.94 Q1799.44 1529.94 1797.56 1530.35 Q1795.71 1530.77 1793.77 1531.65 L1793.77 1514.29 Z" fill="#000000" fill-rule="evenodd" fill-opacity="1" /><path clip-path="url(#clip050)" d="M2258.61 1544.91 L2266.25 1544.91 L2266.25 1518.55 L2257.94 1520.21 L2257.94 1515.95 L2266.2 1514.29 L2270.88 1514.29 L2270.88 1544.91 L2278.51 1544.91 L2278.51 1548.85 L2258.61 1548.85 L2258.61 1544.91 Z" fill="#000000" fill-rule="evenodd" fill-opacity="1" /><path clip-path="url(#clip050)" d="M2287.96 1542.97 L2292.84 1542.97 L2292.84 1548.85 L2287.96 1548.85 L2287.96 1542.97 Z" fill="#000000" fill-rule="evenodd" fill-opacity="1" /><path clip-path="url(#clip050)" d="M2313.03 1517.37 Q2309.42 1517.37 2307.59 1520.93 Q2305.78 1524.47 2305.78 1531.6 Q2305.78 1538.71 2307.59 1542.27 Q2309.42 1545.82 2313.03 1545.82 Q2316.66 1545.82 2318.47 1542.27 Q2320.3 1538.71 2320.3 1531.6 Q2320.3 1524.47 2318.47 1520.93 Q2316.66 1517.37 2313.03 1517.37 M2313.03 1513.66 Q2318.84 1513.66 2321.89 1518.27 Q2324.97 1522.85 2324.97 1531.6 Q2324.97 1540.33 2321.89 1544.94 Q2318.84 1549.52 2313.03 1549.52 Q2307.22 1549.52 2304.14 1544.94 Q2301.08 1540.33 2301.08 1531.6 Q2301.08 1522.85 2304.14 1518.27 Q2307.22 1513.66 2313.03 1513.66 Z" fill="#000000" fill-rule="evenodd" fill-opacity="1" /><polyline clip-path="url(#clip052)" style="stroke:#000000; stroke-linecap:butt; stroke-linejoin:round; stroke-width:2; stroke-opacity:0.1; fill:none" points="
  186.76,1445.72 2352.76,1445.72 
  "/>
<polyline clip-path="url(#clip052)" style="stroke:#000000; stroke-linecap:butt; stroke-linejoin:round; stroke-width:2; stroke-opacity:0.1; fill:none" points="
  186.76,1228.48 2352.76,1228.48 
  "/>
<polyline clip-path="url(#clip052)" style="stroke:#000000; stroke-linecap:butt; stroke-linejoin:round; stroke-width:2; stroke-opacity:0.1; fill:none" points="
  186.76,1011.24 2352.76,1011.24 
  "/>
<polyline clip-path="url(#clip052)" style="stroke:#000000; stroke-linecap:butt; stroke-linejoin:round; stroke-width:2; stroke-opacity:0.1; fill:none" points="
  186.76,794.001 2352.76,794.001 
  "/>
<polyline clip-path="url(#clip052)" style="stroke:#000000; stroke-linecap:butt; stroke-linejoin:round; stroke-width:2; stroke-opacity:0.1; fill:none" points="
  186.76,576.762 2352.76,576.762 
  "/>
<polyline clip-path="url(#clip052)" style="stroke:#000000; stroke-linecap:butt; stroke-linejoin:round; stroke-width:2; stroke-opacity:0.1; fill:none" points="
  186.76,359.524 2352.76,359.524 
  "/>
<polyline clip-path="url(#clip052)" style="stroke:#000000; stroke-linecap:butt; stroke-linejoin:round; stroke-width:2; stroke-opacity:0.1; fill:none" points="
  186.76,142.286 2352.76,142.286 
  "/>
<polyline clip-path="url(#clip050)" style="stroke:#000000; stroke-linecap:butt; stroke-linejoin:round; stroke-width:4; stroke-opacity:1; fill:none" points="
  186.76,1486.45 186.76,47.2441 
  "/>
<polyline clip-path="url(#clip050)" style="stroke:#000000; stroke-linecap:butt; stroke-linejoin:round; stroke-width:4; stroke-opacity:1; fill:none" points="
  186.76,1445.72 205.658,1445.72 
  "/>
<polyline clip-path="url(#clip050)" style="stroke:#000000; stroke-linecap:butt; stroke-linejoin:round; stroke-width:4; stroke-opacity:1; fill:none" points="
  186.76,1228.48 205.658,1228.48 
  "/>
<polyline clip-path="url(#clip050)" style="stroke:#000000; stroke-linecap:butt; stroke-linejoin:round; stroke-width:4; stroke-opacity:1; fill:none" points="
  186.76,1011.24 205.658,1011.24 
  "/>
<polyline clip-path="url(#clip050)" style="stroke:#000000; stroke-linecap:butt; stroke-linejoin:round; stroke-width:4; stroke-opacity:1; fill:none" points="
  186.76,794.001 205.658,794.001 
  "/>
<polyline clip-path="url(#clip050)" style="stroke:#000000; stroke-linecap:butt; stroke-linejoin:round; stroke-width:4; stroke-opacity:1; fill:none" points="
  186.76,576.762 205.658,576.762 
  "/>
<polyline clip-path="url(#clip050)" style="stroke:#000000; stroke-linecap:butt; stroke-linejoin:round; stroke-width:4; stroke-opacity:1; fill:none" points="
  186.76,359.524 205.658,359.524 
  "/>
<polyline clip-path="url(#clip050)" style="stroke:#000000; stroke-linecap:butt; stroke-linejoin:round; stroke-width:4; stroke-opacity:1; fill:none" points="
  186.76,142.286 205.658,142.286 
  "/>
<path clip-path="url(#clip050)" d="M63.4226 1431.51 Q59.8115 1431.51 57.9828 1435.08 Q56.1773 1438.62 56.1773 1445.75 Q56.1773 1452.86 57.9828 1456.42 Q59.8115 1459.96 63.4226 1459.96 Q67.0569 1459.96 68.8624 1456.42 Q70.6911 1452.86 70.6911 1445.75 Q70.6911 1438.62 68.8624 1435.08 Q67.0569 1431.51 63.4226 1431.51 M63.4226 1427.81 Q69.2328 1427.81 72.2883 1432.42 Q75.367 1437 75.367 1445.75 Q75.367 1454.48 72.2883 1459.08 Q69.2328 1463.67 63.4226 1463.67 Q57.6125 1463.67 54.5338 1459.08 Q51.4782 1454.48 51.4782 1445.75 Q51.4782 1437 54.5338 1432.42 Q57.6125 1427.81 63.4226 1427.81 Z" fill="#000000" fill-rule="evenodd" fill-opacity="1" /><path clip-path="url(#clip050)" d="M83.5845 1457.12 L88.4688 1457.12 L88.4688 1463 L83.5845 1463 L83.5845 1457.12 Z" fill="#000000" fill-rule="evenodd" fill-opacity="1" /><path clip-path="url(#clip050)" d="M108.654 1431.51 Q105.043 1431.51 103.214 1435.08 Q101.409 1438.62 101.409 1445.75 Q101.409 1452.86 103.214 1456.42 Q105.043 1459.96 108.654 1459.96 Q112.288 1459.96 114.094 1456.42 Q115.922 1452.86 115.922 1445.75 Q115.922 1438.62 114.094 1435.08 Q112.288 1431.51 108.654 1431.51 M108.654 1427.81 Q114.464 1427.81 117.52 1432.42 Q120.598 1437 120.598 1445.75 Q120.598 1454.48 117.52 1459.08 Q114.464 1463.67 108.654 1463.67 Q102.844 1463.67 99.765 1459.08 Q96.7095 1454.48 96.7095 1445.75 Q96.7095 1437 99.765 1432.42 Q102.844 1427.81 108.654 1427.81 Z" fill="#000000" fill-rule="evenodd" fill-opacity="1" /><path clip-path="url(#clip050)" d="M138.816 1431.51 Q135.205 1431.51 133.376 1435.08 Q131.57 1438.62 131.57 1445.75 Q131.57 1452.86 133.376 1456.42 Q135.205 1459.96 138.816 1459.96 Q142.45 1459.96 144.256 1456.42 Q146.084 1452.86 146.084 1445.75 Q146.084 1438.62 144.256 1435.08 Q142.45 1431.51 138.816 1431.51 M138.816 1427.81 Q144.626 1427.81 147.681 1432.42 Q150.76 1437 150.76 1445.75 Q150.76 1454.48 147.681 1459.08 Q144.626 1463.67 138.816 1463.67 Q133.006 1463.67 129.927 1459.08 Q126.871 1454.48 126.871 1445.75 Q126.871 1437 129.927 1432.42 Q133.006 1427.81 138.816 1427.81 Z" fill="#000000" fill-rule="evenodd" fill-opacity="1" /><path clip-path="url(#clip050)" d="M64.6495 1214.28 Q61.0384 1214.28 59.2097 1217.84 Q57.4041 1221.38 57.4041 1228.51 Q57.4041 1235.62 59.2097 1239.18 Q61.0384 1242.72 64.6495 1242.72 Q68.2837 1242.72 70.0892 1239.18 Q71.9179 1235.62 71.9179 1228.51 Q71.9179 1221.38 70.0892 1217.84 Q68.2837 1214.28 64.6495 1214.28 M64.6495 1210.57 Q70.4596 1210.57 73.5152 1215.18 Q76.5938 1219.76 76.5938 1228.51 Q76.5938 1237.24 73.5152 1241.85 Q70.4596 1246.43 64.6495 1246.43 Q58.8393 1246.43 55.7606 1241.85 Q52.7051 1237.24 52.7051 1228.51 Q52.7051 1219.76 55.7606 1215.18 Q58.8393 1210.57 64.6495 1210.57 Z" fill="#000000" fill-rule="evenodd" fill-opacity="1" /><path clip-path="url(#clip050)" d="M84.8114 1239.88 L89.6956 1239.88 L89.6956 1245.76 L84.8114 1245.76 L84.8114 1239.88 Z" fill="#000000" fill-rule="evenodd" fill-opacity="1" /><path clip-path="url(#clip050)" d="M109.881 1214.28 Q106.27 1214.28 104.441 1217.84 Q102.635 1221.38 102.635 1228.51 Q102.635 1235.62 104.441 1239.18 Q106.27 1242.72 109.881 1242.72 Q113.515 1242.72 115.32 1239.18 Q117.149 1235.62 117.149 1228.51 Q117.149 1221.38 115.32 1217.84 Q113.515 1214.28 109.881 1214.28 M109.881 1210.57 Q115.691 1210.57 118.746 1215.18 Q121.825 1219.76 121.825 1228.51 Q121.825 1237.24 118.746 1241.85 Q115.691 1246.43 109.881 1246.43 Q104.071 1246.43 100.992 1241.85 Q97.9363 1237.24 97.9363 1228.51 Q97.9363 1219.76 100.992 1215.18 Q104.071 1210.57 109.881 1210.57 Z" fill="#000000" fill-rule="evenodd" fill-opacity="1" /><path clip-path="url(#clip050)" d="M130.853 1241.82 L138.492 1241.82 L138.492 1215.46 L130.182 1217.12 L130.182 1212.86 L138.445 1211.2 L143.121 1211.2 L143.121 1241.82 L150.76 1241.82 L150.76 1245.76 L130.853 1245.76 L130.853 1241.82 Z" fill="#000000" fill-rule="evenodd" fill-opacity="1" /><path clip-path="url(#clip050)" d="M65.0198 997.038 Q61.4087 997.038 59.58 1000.6 Q57.7745 1004.14 57.7745 1011.27 Q57.7745 1018.38 59.58 1021.95 Q61.4087 1025.49 65.0198 1025.49 Q68.6541 1025.49 70.4596 1021.95 Q72.2883 1018.38 72.2883 1011.27 Q72.2883 1004.14 70.4596 1000.6 Q68.6541 997.038 65.0198 997.038 M65.0198 993.334 Q70.83 993.334 73.8855 997.941 Q76.9642 1002.52 76.9642 1011.27 Q76.9642 1020 73.8855 1024.61 Q70.83 1029.19 65.0198 1029.19 Q59.2097 1029.19 56.131 1024.61 Q53.0754 1020 53.0754 1011.27 Q53.0754 1002.52 56.131 997.941 Q59.2097 993.334 65.0198 993.334 Z" fill="#000000" fill-rule="evenodd" fill-opacity="1" /><path clip-path="url(#clip050)" d="M85.1818 1022.64 L90.066 1022.64 L90.066 1028.52 L85.1818 1028.52 L85.1818 1022.64 Z" fill="#000000" fill-rule="evenodd" fill-opacity="1" /><path clip-path="url(#clip050)" d="M110.251 997.038 Q106.64 997.038 104.811 1000.6 Q103.006 1004.14 103.006 1011.27 Q103.006 1018.38 104.811 1021.95 Q106.64 1025.49 110.251 1025.49 Q113.885 1025.49 115.691 1021.95 Q117.52 1018.38 117.52 1011.27 Q117.52 1004.14 115.691 1000.6 Q113.885 997.038 110.251 997.038 M110.251 993.334 Q116.061 993.334 119.117 997.941 Q122.195 1002.52 122.195 1011.27 Q122.195 1020 119.117 1024.61 Q116.061 1029.19 110.251 1029.19 Q104.441 1029.19 101.362 1024.61 Q98.3067 1020 98.3067 1011.27 Q98.3067 1002.52 101.362 997.941 Q104.441 993.334 110.251 993.334 Z" fill="#000000" fill-rule="evenodd" fill-opacity="1" /><path clip-path="url(#clip050)" d="M134.441 1024.58 L150.76 1024.58 L150.76 1028.52 L128.816 1028.52 L128.816 1024.58 Q131.478 1021.83 136.061 1017.2 Q140.668 1012.55 141.848 1011.2 Q144.093 1008.68 144.973 1006.95 Q145.876 1005.19 145.876 1003.5 Q145.876 1000.74 143.931 999.005 Q142.01 997.269 138.908 997.269 Q136.709 997.269 134.256 998.033 Q131.825 998.797 129.047 1000.35 L129.047 995.626 Q131.871 994.491 134.325 993.913 Q136.779 993.334 138.816 993.334 Q144.186 993.334 147.38 996.019 Q150.575 998.704 150.575 1003.2 Q150.575 1005.32 149.765 1007.25 Q148.978 1009.14 146.871 1011.74 Q146.293 1012.41 143.191 1015.63 Q140.089 1018.82 134.441 1024.58 Z" fill="#000000" fill-rule="evenodd" fill-opacity="1" /><path clip-path="url(#clip050)" d="M64.0708 779.799 Q60.4597 779.799 58.631 783.364 Q56.8254 786.906 56.8254 794.035 Q56.8254 801.142 58.631 804.707 Q60.4597 808.248 64.0708 808.248 Q67.705 808.248 69.5105 804.707 Q71.3392 801.142 71.3392 794.035 Q71.3392 786.906 69.5105 783.364 Q67.705 779.799 64.0708 779.799 M64.0708 776.096 Q69.8809 776.096 72.9365 780.702 Q76.0151 785.286 76.0151 794.035 Q76.0151 802.762 72.9365 807.369 Q69.8809 811.952 64.0708 811.952 Q58.2606 811.952 55.1819 807.369 Q52.1264 802.762 52.1264 794.035 Q52.1264 785.286 55.1819 780.702 Q58.2606 776.096 64.0708 776.096 Z" fill="#000000" fill-rule="evenodd" fill-opacity="1" /><path clip-path="url(#clip050)" d="M84.2327 805.401 L89.1169 805.401 L89.1169 811.281 L84.2327 811.281 L84.2327 805.401 Z" fill="#000000" fill-rule="evenodd" fill-opacity="1" /><path clip-path="url(#clip050)" d="M109.302 779.799 Q105.691 779.799 103.862 783.364 Q102.057 786.906 102.057 794.035 Q102.057 801.142 103.862 804.707 Q105.691 808.248 109.302 808.248 Q112.936 808.248 114.742 804.707 Q116.57 801.142 116.57 794.035 Q116.57 786.906 114.742 783.364 Q112.936 779.799 109.302 779.799 M109.302 776.096 Q115.112 776.096 118.168 780.702 Q121.246 785.286 121.246 794.035 Q121.246 802.762 118.168 807.369 Q115.112 811.952 109.302 811.952 Q103.492 811.952 100.413 807.369 Q97.3576 802.762 97.3576 794.035 Q97.3576 785.286 100.413 780.702 Q103.492 776.096 109.302 776.096 Z" fill="#000000" fill-rule="evenodd" fill-opacity="1" /><path clip-path="url(#clip050)" d="M143.631 792.647 Q146.987 793.364 148.862 795.633 Q150.76 797.901 150.76 801.235 Q150.76 806.35 147.242 809.151 Q143.723 811.952 137.242 811.952 Q135.066 811.952 132.751 811.512 Q130.459 811.096 128.006 810.239 L128.006 805.725 Q129.95 806.859 132.265 807.438 Q134.58 808.017 137.103 808.017 Q141.501 808.017 143.793 806.281 Q146.107 804.545 146.107 801.235 Q146.107 798.179 143.955 796.466 Q141.825 794.73 138.006 794.73 L133.978 794.73 L133.978 790.887 L138.191 790.887 Q141.64 790.887 143.468 789.522 Q145.297 788.133 145.297 785.54 Q145.297 782.878 143.399 781.466 Q141.524 780.031 138.006 780.031 Q136.084 780.031 133.885 780.448 Q131.686 780.864 129.047 781.744 L129.047 777.577 Q131.709 776.837 134.024 776.466 Q136.362 776.096 138.422 776.096 Q143.746 776.096 146.848 778.526 Q149.95 780.934 149.95 785.054 Q149.95 787.924 148.306 789.915 Q146.663 791.883 143.631 792.647 Z" fill="#000000" fill-rule="evenodd" fill-opacity="1" /><path clip-path="url(#clip050)" d="M62.9365 562.561 Q59.3254 562.561 57.4967 566.126 Q55.6912 569.668 55.6912 576.797 Q55.6912 583.904 57.4967 587.468 Q59.3254 591.01 62.9365 591.01 Q66.5707 591.01 68.3763 587.468 Q70.205 583.904 70.205 576.797 Q70.205 569.668 68.3763 566.126 Q66.5707 562.561 62.9365 562.561 M62.9365 558.857 Q68.7467 558.857 71.8022 563.464 Q74.8809 568.047 74.8809 576.797 Q74.8809 585.524 71.8022 590.13 Q68.7467 594.714 62.9365 594.714 Q57.1264 594.714 54.0477 590.13 Q50.9921 585.524 50.9921 576.797 Q50.9921 568.047 54.0477 563.464 Q57.1264 558.857 62.9365 558.857 Z" fill="#000000" fill-rule="evenodd" fill-opacity="1" /><path clip-path="url(#clip050)" d="M83.0984 588.163 L87.9827 588.163 L87.9827 594.042 L83.0984 594.042 L83.0984 588.163 Z" fill="#000000" fill-rule="evenodd" fill-opacity="1" /><path clip-path="url(#clip050)" d="M108.168 562.561 Q104.557 562.561 102.728 566.126 Q100.922 569.668 100.922 576.797 Q100.922 583.904 102.728 587.468 Q104.557 591.01 108.168 591.01 Q111.802 591.01 113.608 587.468 Q115.436 583.904 115.436 576.797 Q115.436 569.668 113.608 566.126 Q111.802 562.561 108.168 562.561 M108.168 558.857 Q113.978 558.857 117.033 563.464 Q120.112 568.047 120.112 576.797 Q120.112 585.524 117.033 590.13 Q113.978 594.714 108.168 594.714 Q102.358 594.714 99.2789 590.13 Q96.2234 585.524 96.2234 576.797 Q96.2234 568.047 99.2789 563.464 Q102.358 558.857 108.168 558.857 Z" fill="#000000" fill-rule="evenodd" fill-opacity="1" /><path clip-path="url(#clip050)" d="M141.177 563.557 L129.371 582.005 L141.177 582.005 L141.177 563.557 M139.95 559.482 L145.83 559.482 L145.83 582.005 L150.76 582.005 L150.76 585.894 L145.83 585.894 L145.83 594.042 L141.177 594.042 L141.177 585.894 L125.575 585.894 L125.575 581.38 L139.95 559.482 Z" fill="#000000" fill-rule="evenodd" fill-opacity="1" /><path clip-path="url(#clip050)" d="M64.418 345.323 Q60.8069 345.323 58.9782 348.888 Q57.1726 352.429 57.1726 359.559 Q57.1726 366.665 58.9782 370.23 Q60.8069 373.772 64.418 373.772 Q68.0522 373.772 69.8578 370.23 Q71.6865 366.665 71.6865 359.559 Q71.6865 352.429 69.8578 348.888 Q68.0522 345.323 64.418 345.323 M64.418 341.619 Q70.2281 341.619 73.2837 346.226 Q76.3624 350.809 76.3624 359.559 Q76.3624 368.286 73.2837 372.892 Q70.2281 377.475 64.418 377.475 Q58.6078 377.475 55.5291 372.892 Q52.4736 368.286 52.4736 359.559 Q52.4736 350.809 55.5291 346.226 Q58.6078 341.619 64.418 341.619 Z" fill="#000000" fill-rule="evenodd" fill-opacity="1" /><path clip-path="url(#clip050)" d="M84.5799 370.925 L89.4641 370.925 L89.4641 376.804 L84.5799 376.804 L84.5799 370.925 Z" fill="#000000" fill-rule="evenodd" fill-opacity="1" /><path clip-path="url(#clip050)" d="M109.649 345.323 Q106.038 345.323 104.209 348.888 Q102.404 352.429 102.404 359.559 Q102.404 366.665 104.209 370.23 Q106.038 373.772 109.649 373.772 Q113.283 373.772 115.089 370.23 Q116.918 366.665 116.918 359.559 Q116.918 352.429 115.089 348.888 Q113.283 345.323 109.649 345.323 M109.649 341.619 Q115.459 341.619 118.515 346.226 Q121.594 350.809 121.594 359.559 Q121.594 368.286 118.515 372.892 Q115.459 377.475 109.649 377.475 Q103.839 377.475 100.76 372.892 Q97.7048 368.286 97.7048 359.559 Q97.7048 350.809 100.76 346.226 Q103.839 341.619 109.649 341.619 Z" fill="#000000" fill-rule="evenodd" fill-opacity="1" /><path clip-path="url(#clip050)" d="M129.857 342.244 L148.214 342.244 L148.214 346.179 L134.14 346.179 L134.14 354.652 Q135.158 354.304 136.177 354.142 Q137.195 353.957 138.214 353.957 Q144.001 353.957 147.38 357.128 Q150.76 360.3 150.76 365.716 Q150.76 371.295 147.288 374.397 Q143.816 377.475 137.496 377.475 Q135.32 377.475 133.052 377.105 Q130.807 376.735 128.399 375.994 L128.399 371.295 Q130.482 372.429 132.705 372.985 Q134.927 373.54 137.404 373.54 Q141.408 373.54 143.746 371.434 Q146.084 369.327 146.084 365.716 Q146.084 362.105 143.746 359.999 Q141.408 357.892 137.404 357.892 Q135.529 357.892 133.654 358.309 Q131.802 358.726 129.857 359.605 L129.857 342.244 Z" fill="#000000" fill-rule="evenodd" fill-opacity="1" /><path clip-path="url(#clip050)" d="M63.2606 128.085 Q59.6495 128.085 57.8208 131.649 Q56.0152 135.191 56.0152 142.321 Q56.0152 149.427 57.8208 152.992 Q59.6495 156.533 63.2606 156.533 Q66.8948 156.533 68.7004 152.992 Q70.5291 149.427 70.5291 142.321 Q70.5291 135.191 68.7004 131.649 Q66.8948 128.085 63.2606 128.085 M63.2606 124.381 Q69.0707 124.381 72.1263 128.987 Q75.205 133.571 75.205 142.321 Q75.205 151.047 72.1263 155.654 Q69.0707 160.237 63.2606 160.237 Q57.4504 160.237 54.3717 155.654 Q51.3162 151.047 51.3162 142.321 Q51.3162 133.571 54.3717 128.987 Q57.4504 124.381 63.2606 124.381 Z" fill="#000000" fill-rule="evenodd" fill-opacity="1" /><path clip-path="url(#clip050)" d="M83.4225 153.686 L88.3067 153.686 L88.3067 159.566 L83.4225 159.566 L83.4225 153.686 Z" fill="#000000" fill-rule="evenodd" fill-opacity="1" /><path clip-path="url(#clip050)" d="M108.492 128.085 Q104.881 128.085 103.052 131.649 Q101.246 135.191 101.246 142.321 Q101.246 149.427 103.052 152.992 Q104.881 156.533 108.492 156.533 Q112.126 156.533 113.932 152.992 Q115.76 149.427 115.76 142.321 Q115.76 135.191 113.932 131.649 Q112.126 128.085 108.492 128.085 M108.492 124.381 Q114.302 124.381 117.358 128.987 Q120.436 133.571 120.436 142.321 Q120.436 151.047 117.358 155.654 Q114.302 160.237 108.492 160.237 Q102.682 160.237 99.603 155.654 Q96.5474 151.047 96.5474 142.321 Q96.5474 133.571 99.603 128.987 Q102.682 124.381 108.492 124.381 Z" fill="#000000" fill-rule="evenodd" fill-opacity="1" /><path clip-path="url(#clip050)" d="M139.232 140.422 Q136.084 140.422 134.232 142.575 Q132.404 144.728 132.404 148.478 Q132.404 152.205 134.232 154.381 Q136.084 156.533 139.232 156.533 Q142.381 156.533 144.209 154.381 Q146.061 152.205 146.061 148.478 Q146.061 144.728 144.209 142.575 Q142.381 140.422 139.232 140.422 M148.515 125.77 L148.515 130.029 Q146.756 129.196 144.95 128.756 Q143.168 128.316 141.408 128.316 Q136.779 128.316 134.325 131.441 Q131.894 134.566 131.547 140.885 Q132.913 138.872 134.973 137.807 Q137.033 136.719 139.51 136.719 Q144.718 136.719 147.728 139.89 Q150.76 143.038 150.76 148.478 Q150.76 153.802 147.612 157.02 Q144.464 160.237 139.232 160.237 Q133.237 160.237 130.066 155.654 Q126.894 151.047 126.894 142.321 Q126.894 134.126 130.783 129.265 Q134.672 124.381 141.223 124.381 Q142.982 124.381 144.765 124.728 Q146.57 125.075 148.515 125.77 Z" fill="#000000" fill-rule="evenodd" fill-opacity="1" /><polyline clip-path="url(#clip052)" style="stroke:#0000ff; stroke-linecap:butt; stroke-linejoin:round; stroke-width:4; stroke-opacity:1; fill:none" points="
  248.062,1445.72 280.497,1445.72 312.931,1445.72 345.366,1445.72 377.801,1445.72 410.236,1445.72 442.671,1445.72 475.105,1445.72 507.54,1445.72 539.975,1445.72 
  572.41,1445.72 604.845,1445.72 637.279,1445.72 669.714,1445.72 702.149,1445.72 734.584,1445.72 767.019,1445.72 799.453,1445.72 831.888,1445.72 864.323,1445.72 
  896.758,1445.72 929.193,1445.72 961.627,1445.72 994.062,1445.72 1026.5,87.9763 1058.93,87.9763 1091.37,87.9763 1123.8,87.9763 1156.24,87.9763 1188.67,87.9763 
  1221.11,87.9763 1253.54,87.9763 1285.98,87.9763 1318.41,87.9763 1350.85,87.9763 1383.28,87.9763 1415.71,87.9763 1448.15,87.9763 1480.58,87.9763 1513.02,87.9763 
  1545.45,1445.72 1577.89,1445.72 1610.32,1445.72 1642.76,1445.72 1675.19,1445.72 1707.63,1445.72 1740.06,1445.72 1772.5,1445.72 1804.93,1445.72 1837.37,1445.72 
  1869.8,1445.72 1902.24,1445.72 1934.67,1445.72 1967.11,1445.72 1999.54,1445.72 2031.98,1445.72 2064.41,1445.72 2096.85,1445.72 2129.28,1445.72 2161.71,1445.72 
  2194.15,1445.72 2226.58,1445.72 2259.02,1445.72 2291.45,1445.72 
  "/>
<path clip-path="url(#clip050)" d="
M1607.6 198.898 L2280.56 198.898 L2280.56 95.2176 L1607.6 95.2176  Z
  " fill="#ffffff" fill-rule="evenodd" fill-opacity="1"/>
<polyline clip-path="url(#clip050)" style="stroke:#000000; stroke-linecap:butt; stroke-linejoin:round; stroke-width:4; stroke-opacity:1; fill:none" points="
  1607.6,198.898 2280.56,198.898 2280.56,95.2176 1607.6,95.2176 1607.6,198.898 
  "/>
<polyline clip-path="url(#clip050)" style="stroke:#0000ff; stroke-linecap:butt; stroke-linejoin:round; stroke-width:4; stroke-opacity:1; fill:none" points="
  1631.6,147.058 1775.6,147.058 
  "/>
<path clip-path="url(#clip050)" d="M1799.6 129.778 L1804.27 129.778 L1804.27 164.338 L1799.6 164.338 L1799.6 129.778 Z" fill="#000000" fill-rule="evenodd" fill-opacity="1" /><path clip-path="url(#clip050)" d="M1834.94 148.689 L1834.94 164.338 L1830.68 164.338 L1830.68 148.828 Q1830.68 145.148 1829.25 143.319 Q1827.81 141.49 1824.94 141.49 Q1821.49 141.49 1819.5 143.69 Q1817.51 145.889 1817.51 149.685 L1817.51 164.338 L1813.23 164.338 L1813.23 138.412 L1817.51 138.412 L1817.51 142.44 Q1819.04 140.102 1821.1 138.944 Q1823.18 137.787 1825.89 137.787 Q1830.36 137.787 1832.65 140.565 Q1834.94 143.319 1834.94 148.689 Z" fill="#000000" fill-rule="evenodd" fill-opacity="1" /><path clip-path="url(#clip050)" d="M1843.44 138.412 L1847.7 138.412 L1847.7 164.338 L1843.44 164.338 L1843.44 138.412 M1843.44 128.319 L1847.7 128.319 L1847.7 133.713 L1843.44 133.713 L1843.44 128.319 Z" fill="#000000" fill-rule="evenodd" fill-opacity="1" /><path clip-path="url(#clip050)" d="M1860.82 131.051 L1860.82 138.412 L1869.6 138.412 L1869.6 141.722 L1860.82 141.722 L1860.82 155.796 Q1860.82 158.967 1861.68 159.87 Q1862.56 160.773 1865.22 160.773 L1869.6 160.773 L1869.6 164.338 L1865.22 164.338 Q1860.29 164.338 1858.41 162.509 Q1856.54 160.657 1856.54 155.796 L1856.54 141.722 L1853.41 141.722 L1853.41 138.412 L1856.54 138.412 L1856.54 131.051 L1860.82 131.051 Z" fill="#000000" fill-rule="evenodd" fill-opacity="1" /><path clip-path="url(#clip050)" d="M1875.2 138.412 L1879.46 138.412 L1879.46 164.338 L1875.2 164.338 L1875.2 138.412 M1875.2 128.319 L1879.46 128.319 L1879.46 133.713 L1875.2 133.713 L1875.2 128.319 Z" fill="#000000" fill-rule="evenodd" fill-opacity="1" /><path clip-path="url(#clip050)" d="M1900.15 151.305 Q1894.99 151.305 1893 152.486 Q1891.01 153.666 1891.01 156.514 Q1891.01 158.782 1892.49 160.125 Q1893.99 161.444 1896.56 161.444 Q1900.1 161.444 1902.23 158.944 Q1904.39 156.421 1904.39 152.254 L1904.39 151.305 L1900.15 151.305 M1908.65 149.546 L1908.65 164.338 L1904.39 164.338 L1904.39 160.402 Q1902.93 162.763 1900.75 163.898 Q1898.58 165.009 1895.43 165.009 Q1891.45 165.009 1889.09 162.787 Q1886.75 160.541 1886.75 156.791 Q1886.75 152.416 1889.66 150.194 Q1892.6 147.972 1898.41 147.972 L1904.39 147.972 L1904.39 147.555 Q1904.39 144.615 1902.44 143.018 Q1900.52 141.398 1897.03 141.398 Q1894.8 141.398 1892.7 141.93 Q1890.59 142.463 1888.65 143.527 L1888.65 139.592 Q1890.98 138.69 1893.18 138.25 Q1895.38 137.787 1897.47 137.787 Q1903.09 137.787 1905.87 140.703 Q1908.65 143.62 1908.65 149.546 Z" fill="#000000" fill-rule="evenodd" fill-opacity="1" /><path clip-path="url(#clip050)" d="M1917.42 128.319 L1921.68 128.319 L1921.68 164.338 L1917.42 164.338 L1917.42 128.319 Z" fill="#000000" fill-rule="evenodd" fill-opacity="1" /><path clip-path="url(#clip050)" d="M1964.32 139.407 L1964.32 143.389 Q1962.51 142.393 1960.68 141.907 Q1958.88 141.398 1957.03 141.398 Q1952.88 141.398 1950.59 144.037 Q1948.3 146.652 1948.3 151.398 Q1948.3 156.143 1950.59 158.782 Q1952.88 161.398 1957.03 161.398 Q1958.88 161.398 1960.68 160.912 Q1962.51 160.402 1964.32 159.407 L1964.32 163.342 Q1962.53 164.176 1960.61 164.592 Q1958.71 165.009 1956.56 165.009 Q1950.71 165.009 1947.26 161.328 Q1943.81 157.648 1943.81 151.398 Q1943.81 145.055 1947.28 141.421 Q1950.78 137.787 1956.84 137.787 Q1958.81 137.787 1960.68 138.203 Q1962.56 138.597 1964.32 139.407 Z" fill="#000000" fill-rule="evenodd" fill-opacity="1" /><path clip-path="url(#clip050)" d="M1981.77 141.398 Q1978.34 141.398 1976.35 144.083 Q1974.36 146.745 1974.36 151.398 Q1974.36 156.051 1976.33 158.736 Q1978.32 161.398 1981.77 161.398 Q1985.17 161.398 1987.16 158.713 Q1989.15 156.027 1989.15 151.398 Q1989.15 146.791 1987.16 144.106 Q1985.17 141.398 1981.77 141.398 M1981.77 137.787 Q1987.33 137.787 1990.5 141.398 Q1993.67 145.009 1993.67 151.398 Q1993.67 157.764 1990.5 161.398 Q1987.33 165.009 1981.77 165.009 Q1976.19 165.009 1973.02 161.398 Q1969.87 157.764 1969.87 151.398 Q1969.87 145.009 1973.02 141.398 Q1976.19 137.787 1981.77 137.787 Z" fill="#000000" fill-rule="evenodd" fill-opacity="1" /><path clip-path="url(#clip050)" d="M2022.28 148.689 L2022.28 164.338 L2018.02 164.338 L2018.02 148.828 Q2018.02 145.148 2016.58 143.319 Q2015.15 141.49 2012.28 141.49 Q2008.83 141.49 2006.84 143.69 Q2004.85 145.889 2004.85 149.685 L2004.85 164.338 L2000.57 164.338 L2000.57 138.412 L2004.85 138.412 L2004.85 142.44 Q2006.38 140.102 2008.44 138.944 Q2010.52 137.787 2013.23 137.787 Q2017.7 137.787 2019.99 140.565 Q2022.28 143.319 2022.28 148.689 Z" fill="#000000" fill-rule="evenodd" fill-opacity="1" /><path clip-path="url(#clip050)" d="M2047.83 142.347 L2047.83 128.319 L2052.09 128.319 L2052.09 164.338 L2047.83 164.338 L2047.83 160.449 Q2046.49 162.763 2044.43 163.898 Q2042.4 165.009 2039.52 165.009 Q2034.83 165.009 2031.86 161.259 Q2028.92 157.509 2028.92 151.398 Q2028.92 145.287 2031.86 141.537 Q2034.83 137.787 2039.52 137.787 Q2042.4 137.787 2044.43 138.921 Q2046.49 140.032 2047.83 142.347 M2033.32 151.398 Q2033.32 156.097 2035.24 158.782 Q2037.19 161.444 2040.57 161.444 Q2043.95 161.444 2045.89 158.782 Q2047.83 156.097 2047.83 151.398 Q2047.83 146.699 2045.89 144.037 Q2043.95 141.352 2040.57 141.352 Q2037.19 141.352 2035.24 144.037 Q2033.32 146.699 2033.32 151.398 Z" fill="#000000" fill-rule="evenodd" fill-opacity="1" /><path clip-path="url(#clip050)" d="M2060.87 138.412 L2065.13 138.412 L2065.13 164.338 L2060.87 164.338 L2060.87 138.412 M2060.87 128.319 L2065.13 128.319 L2065.13 133.713 L2060.87 133.713 L2060.87 128.319 Z" fill="#000000" fill-rule="evenodd" fill-opacity="1" /><path clip-path="url(#clip050)" d="M2078.25 131.051 L2078.25 138.412 L2087.02 138.412 L2087.02 141.722 L2078.25 141.722 L2078.25 155.796 Q2078.25 158.967 2079.11 159.87 Q2079.99 160.773 2082.65 160.773 L2087.02 160.773 L2087.02 164.338 L2082.65 164.338 Q2077.72 164.338 2075.84 162.509 Q2073.97 160.657 2073.97 155.796 L2073.97 141.722 L2070.84 141.722 L2070.84 138.412 L2073.97 138.412 L2073.97 131.051 L2078.25 131.051 Z" fill="#000000" fill-rule="evenodd" fill-opacity="1" /><path clip-path="url(#clip050)" d="M2092.63 138.412 L2096.89 138.412 L2096.89 164.338 L2092.63 164.338 L2092.63 138.412 M2092.63 128.319 L2096.89 128.319 L2096.89 133.713 L2092.63 133.713 L2092.63 128.319 Z" fill="#000000" fill-rule="evenodd" fill-opacity="1" /><path clip-path="url(#clip050)" d="M2115.84 141.398 Q2112.42 141.398 2110.43 144.083 Q2108.44 146.745 2108.44 151.398 Q2108.44 156.051 2110.4 158.736 Q2112.39 161.398 2115.84 161.398 Q2119.25 161.398 2121.24 158.713 Q2123.23 156.027 2123.23 151.398 Q2123.23 146.791 2121.24 144.106 Q2119.25 141.398 2115.84 141.398 M2115.84 137.787 Q2121.4 137.787 2124.57 141.398 Q2127.74 145.009 2127.74 151.398 Q2127.74 157.764 2124.57 161.398 Q2121.4 165.009 2115.84 165.009 Q2110.27 165.009 2107.09 161.398 Q2103.95 157.764 2103.95 151.398 Q2103.95 145.009 2107.09 141.398 Q2110.27 137.787 2115.84 137.787 Z" fill="#000000" fill-rule="evenodd" fill-opacity="1" /><path clip-path="url(#clip050)" d="M2156.35 148.689 L2156.35 164.338 L2152.09 164.338 L2152.09 148.828 Q2152.09 145.148 2150.66 143.319 Q2149.22 141.49 2146.35 141.49 Q2142.9 141.49 2140.91 143.69 Q2138.92 145.889 2138.92 149.685 L2138.92 164.338 L2134.64 164.338 L2134.64 138.412 L2138.92 138.412 L2138.92 142.44 Q2140.45 140.102 2142.51 138.944 Q2144.59 137.787 2147.3 137.787 Q2151.77 137.787 2154.06 140.565 Q2156.35 143.319 2156.35 148.689 Z" fill="#000000" fill-rule="evenodd" fill-opacity="1" /><path clip-path="url(#clip050)" d="M2181.84 143.041 Q2183.25 140.68 2186.75 138.597 Q2188.11 137.787 2192.32 137.787 Q2197.05 137.787 2199.99 141.537 Q2202.95 145.287 2202.95 151.398 Q2202.95 157.509 2199.99 161.259 Q2197.05 165.009 2192.32 165.009 Q2189.48 165.009 2187.42 163.898 Q2185.38 162.763 2184.04 160.449 L2184.04 174.199 L2179.76 174.199 L2179.76 151.629 Q2179.76 146.282 2181.84 143.041 M2198.53 151.398 Q2198.53 146.699 2196.58 144.037 Q2194.66 141.352 2191.28 141.352 Q2187.9 141.352 2185.96 144.037 Q2184.04 146.699 2184.04 151.398 Q2184.04 156.097 2185.96 158.782 Q2187.9 161.444 2191.28 161.444 Q2194.66 161.444 2196.58 158.782 Q2198.53 156.097 2198.53 151.398 Z" fill="#000000" fill-rule="evenodd" fill-opacity="1" /><path clip-path="url(#clip050)" d="M2220.61 132.856 Q2217 132.856 2215.17 136.421 Q2213.37 139.963 2213.37 147.092 Q2213.37 154.199 2215.17 157.764 Q2217 161.305 2220.61 161.305 Q2224.25 161.305 2226.05 157.764 Q2227.88 154.199 2227.88 147.092 Q2227.88 139.963 2226.05 136.421 Q2224.25 132.856 2220.61 132.856 M2220.61 129.153 Q2226.42 129.153 2229.48 133.759 Q2232.56 138.342 2232.56 147.092 Q2232.56 155.819 2229.48 160.426 Q2226.42 165.009 2220.61 165.009 Q2214.8 165.009 2211.72 160.426 Q2208.67 155.819 2208.67 147.092 Q2208.67 138.342 2211.72 133.759 Q2214.8 129.153 2220.61 129.153 Z" fill="#000000" fill-rule="evenodd" fill-opacity="1" /></svg>
