<?xml version="1.0" encoding="utf-8"?>
<svg xmlns="http://www.w3.org/2000/svg" xmlns:xlink="http://www.w3.org/1999/xlink" width="600" height="400" viewBox="0 0 2400 1600">
<defs>
  <clipPath id="clip030">
    <rect x="0" y="0" width="2400" height="1600"/>
  </clipPath>
</defs>
<path clip-path="url(#clip030)" d="M0 1600 L2400 1600 L2400 0 L0 0  Z" fill="#ffffff" fill-rule="evenodd" fill-opacity="1"/>
<defs>
  <clipPath id="clip031">
    <rect x="480" y="0" width="1681" height="1600"/>
  </clipPath>
</defs>
<path clip-path="url(#clip030)" d="M147.478 1486.45 L2352.76 1486.45 L2352.76 123.472 L147.478 123.472  Z" fill="#ffffff" fill-rule="evenodd" fill-opacity="1"/>
<defs>
  <clipPath id="clip032">
    <rect x="147" y="123" width="2206" height="1364"/>
  </clipPath>
</defs>
<polyline clip-path="url(#clip032)" style="stroke:#000000; stroke-linecap:round; stroke-linejoin:round; stroke-width:2; stroke-opacity:0.1; fill:none" points="165.589,1486.45 165.589,123.472 "/>
<polyline clip-path="url(#clip032)" style="stroke:#000000; stroke-linecap:round; stroke-linejoin:round; stroke-width:2; stroke-opacity:0.1; fill:none" points="494.238,1486.45 494.238,123.472 "/>
<polyline clip-path="url(#clip032)" style="stroke:#000000; stroke-linecap:round; stroke-linejoin:round; stroke-width:2; stroke-opacity:0.1; fill:none" points="822.886,1486.45 822.886,123.472 "/>
<polyline clip-path="url(#clip032)" style="stroke:#000000; stroke-linecap:round; stroke-linejoin:round; stroke-width:2; stroke-opacity:0.1; fill:none" points="1151.53,1486.45 1151.53,123.472 "/>
<polyline clip-path="url(#clip032)" style="stroke:#000000; stroke-linecap:round; stroke-linejoin:round; stroke-width:2; stroke-opacity:0.1; fill:none" points="1480.18,1486.45 1480.18,123.472 "/>
<polyline clip-path="url(#clip032)" style="stroke:#000000; stroke-linecap:round; stroke-linejoin:round; stroke-width:2; stroke-opacity:0.1; fill:none" points="1808.83,1486.45 1808.83,123.472 "/>
<polyline clip-path="url(#clip032)" style="stroke:#000000; stroke-linecap:round; stroke-linejoin:round; stroke-width:2; stroke-opacity:0.1; fill:none" points="2137.48,1486.45 2137.48,123.472 "/>
<polyline clip-path="url(#clip032)" style="stroke:#000000; stroke-linecap:round; stroke-linejoin:round; stroke-width:2; stroke-opacity:0.1; fill:none" points="147.478,1407.29 2352.76,1407.29 "/>
<polyline clip-path="url(#clip032)" style="stroke:#000000; stroke-linecap:round; stroke-linejoin:round; stroke-width:2; stroke-opacity:0.1; fill:none" points="147.478,1166.01 2352.76,1166.01 "/>
<polyline clip-path="url(#clip032)" style="stroke:#000000; stroke-linecap:round; stroke-linejoin:round; stroke-width:2; stroke-opacity:0.1; fill:none" points="147.478,924.739 2352.76,924.739 "/>
<polyline clip-path="url(#clip032)" style="stroke:#000000; stroke-linecap:round; stroke-linejoin:round; stroke-width:2; stroke-opacity:0.1; fill:none" points="147.478,683.463 2352.76,683.463 "/>
<polyline clip-path="url(#clip032)" style="stroke:#000000; stroke-linecap:round; stroke-linejoin:round; stroke-width:2; stroke-opacity:0.1; fill:none" points="147.478,442.188 2352.76,442.188 "/>
<polyline clip-path="url(#clip032)" style="stroke:#000000; stroke-linecap:round; stroke-linejoin:round; stroke-width:2; stroke-opacity:0.1; fill:none" points="147.478,200.912 2352.76,200.912 "/>
<polyline clip-path="url(#clip030)" style="stroke:#000000; stroke-linecap:round; stroke-linejoin:round; stroke-width:4; stroke-opacity:1; fill:none" points="147.478,1486.45 2352.76,1486.45 "/>
<polyline clip-path="url(#clip030)" style="stroke:#000000; stroke-linecap:round; stroke-linejoin:round; stroke-width:4; stroke-opacity:1; fill:none" points="165.589,1486.45 165.589,1467.55 "/>
<polyline clip-path="url(#clip030)" style="stroke:#000000; stroke-linecap:round; stroke-linejoin:round; stroke-width:4; stroke-opacity:1; fill:none" points="494.238,1486.45 494.238,1467.55 "/>
<polyline clip-path="url(#clip030)" style="stroke:#000000; stroke-linecap:round; stroke-linejoin:round; stroke-width:4; stroke-opacity:1; fill:none" points="822.886,1486.45 822.886,1467.55 "/>
<polyline clip-path="url(#clip030)" style="stroke:#000000; stroke-linecap:round; stroke-linejoin:round; stroke-width:4; stroke-opacity:1; fill:none" points="1151.53,1486.45 1151.53,1467.55 "/>
<polyline clip-path="url(#clip030)" style="stroke:#000000; stroke-linecap:round; stroke-linejoin:round; stroke-width:4; stroke-opacity:1; fill:none" points="1480.18,1486.45 1480.18,1467.55 "/>
<polyline clip-path="url(#clip030)" style="stroke:#000000; stroke-linecap:round; stroke-linejoin:round; stroke-width:4; stroke-opacity:1; fill:none" points="1808.83,1486.45 1808.83,1467.55 "/>
<polyline clip-path="url(#clip030)" style="stroke:#000000; stroke-linecap:round; stroke-linejoin:round; stroke-width:4; stroke-opacity:1; fill:none" points="2137.48,1486.45 2137.48,1467.55 "/>
<path clip-path="url(#clip030)" d="M135.057 1532.02 L164.733 1532.02 L164.733 1535.95 L135.057 1535.95 L135.057 1532.02 Z" fill="#000000" fill-rule="nonzero" fill-opacity="1" /><path clip-path="url(#clip030)" d="M188.992 1530.21 Q192.348 1530.93 194.223 1533.2 Q196.121 1535.47 196.121 1538.8 Q196.121 1543.92 192.603 1546.72 Q189.084 1549.52 182.603 1549.52 Q180.427 1549.52 178.112 1549.08 Q175.82 1548.66 173.367 1547.81 L173.367 1543.29 Q175.311 1544.43 177.626 1545.01 Q179.941 1545.58 182.464 1545.58 Q186.862 1545.58 189.154 1543.85 Q191.468 1542.11 191.468 1538.8 Q191.468 1535.75 189.316 1534.03 Q187.186 1532.3 183.367 1532.3 L179.339 1532.3 L179.339 1528.45 L183.552 1528.45 Q187.001 1528.45 188.83 1527.09 Q190.658 1525.7 190.658 1523.11 Q190.658 1520.45 188.76 1519.03 Q186.885 1517.6 183.367 1517.6 Q181.445 1517.6 179.246 1518.01 Q177.047 1518.43 174.408 1519.31 L174.408 1515.14 Q177.07 1514.4 179.385 1514.03 Q181.723 1513.66 183.783 1513.66 Q189.107 1513.66 192.209 1516.09 Q195.311 1518.5 195.311 1522.62 Q195.311 1525.49 193.668 1527.48 Q192.024 1529.45 188.992 1530.21 Z" fill="#000000" fill-rule="nonzero" fill-opacity="1" /><path clip-path="url(#clip030)" d="M464.18 1532.02 L493.856 1532.02 L493.856 1535.95 L464.18 1535.95 L464.18 1532.02 Z" fill="#000000" fill-rule="nonzero" fill-opacity="1" /><path clip-path="url(#clip030)" d="M507.976 1544.91 L524.295 1544.91 L524.295 1548.85 L502.351 1548.85 L502.351 1544.91 Q505.013 1542.16 509.596 1537.53 Q514.203 1532.88 515.383 1531.53 Q517.629 1529.01 518.508 1527.27 Q519.411 1525.51 519.411 1523.82 Q519.411 1521.07 517.467 1519.33 Q515.545 1517.6 512.444 1517.6 Q510.244 1517.6 507.791 1518.36 Q505.36 1519.13 502.582 1520.68 L502.582 1515.95 Q505.407 1514.82 507.86 1514.24 Q510.314 1513.66 512.351 1513.66 Q517.721 1513.66 520.916 1516.35 Q524.11 1519.03 524.11 1523.52 Q524.11 1525.65 523.3 1527.57 Q522.513 1529.47 520.406 1532.07 Q519.828 1532.74 516.726 1535.95 Q513.624 1539.15 507.976 1544.91 Z" fill="#000000" fill-rule="nonzero" fill-opacity="1" /><path clip-path="url(#clip030)" d="M792.643 1532.02 L822.319 1532.02 L822.319 1535.95 L792.643 1535.95 L792.643 1532.02 Z" fill="#000000" fill-rule="nonzero" fill-opacity="1" /><path clip-path="url(#clip030)" d="M833.222 1544.91 L840.861 1544.91 L840.861 1518.55 L832.551 1520.21 L832.551 1515.95 L840.814 1514.29 L845.49 1514.29 L845.49 1544.91 L853.129 1544.91 L853.129 1548.85 L833.222 1548.85 L833.222 1544.91 Z" fill="#000000" fill-rule="nonzero" fill-opacity="1" /><path clip-path="url(#clip030)" d="M1151.53 1517.37 Q1147.92 1517.37 1146.1 1520.93 Q1144.29 1524.47 1144.29 1531.6 Q1144.29 1538.71 1146.1 1542.27 Q1147.92 1545.82 1151.53 1545.82 Q1155.17 1545.82 1156.97 1542.27 Q1158.8 1538.71 1158.8 1531.6 Q1158.8 1524.47 1156.97 1520.93 Q1155.17 1517.37 1151.53 1517.37 M1151.53 1513.66 Q1157.35 1513.66 1160.4 1518.27 Q1163.48 1522.85 1163.48 1531.6 Q1163.48 1540.33 1160.4 1544.94 Q1157.35 1549.52 1151.53 1549.52 Q1145.72 1549.52 1142.65 1544.94 Q1139.59 1540.33 1139.59 1531.6 Q1139.59 1522.85 1142.65 1518.27 Q1145.72 1513.66 1151.53 1513.66 Z" fill="#000000" fill-rule="nonzero" fill-opacity="1" /><path clip-path="url(#clip030)" d="M1470.57 1544.91 L1478.2 1544.91 L1478.2 1518.55 L1469.89 1520.21 L1469.89 1515.95 L1478.16 1514.29 L1482.83 1514.29 L1482.83 1544.91 L1490.47 1544.91 L1490.47 1548.85 L1470.57 1548.85 L1470.57 1544.91 Z" fill="#000000" fill-rule="nonzero" fill-opacity="1" /><path clip-path="url(#clip030)" d="M1803.49 1544.91 L1819.8 1544.91 L1819.8 1548.85 L1797.86 1548.85 L1797.86 1544.91 Q1800.52 1542.16 1805.11 1537.53 Q1809.71 1532.88 1810.89 1531.53 Q1813.14 1529.01 1814.02 1527.27 Q1814.92 1525.51 1814.92 1523.82 Q1814.92 1521.07 1812.98 1519.33 Q1811.05 1517.6 1807.95 1517.6 Q1805.75 1517.6 1803.3 1518.36 Q1800.87 1519.13 1798.09 1520.68 L1798.09 1515.95 Q1800.92 1514.82 1803.37 1514.24 Q1805.82 1513.66 1807.86 1513.66 Q1813.23 1513.66 1816.42 1516.35 Q1819.62 1519.03 1819.62 1523.52 Q1819.62 1525.65 1818.81 1527.57 Q1818.02 1529.47 1815.92 1532.07 Q1815.34 1532.74 1812.23 1535.95 Q1809.13 1539.15 1803.49 1544.91 Z" fill="#000000" fill-rule="nonzero" fill-opacity="1" /><path clip-path="url(#clip030)" d="M2141.73 1530.21 Q2145.09 1530.93 2146.96 1533.2 Q2148.86 1535.47 2148.86 1538.8 Q2148.86 1543.92 2145.34 1546.72 Q2141.82 1549.52 2135.34 1549.52 Q2133.16 1549.52 2130.85 1549.08 Q2128.56 1548.66 2126.1 1547.81 L2126.1 1543.29 Q2128.05 1544.43 2130.36 1545.01 Q2132.68 1545.58 2135.2 1545.58 Q2139.6 1545.58 2141.89 1543.85 Q2144.21 1542.11 2144.21 1538.8 Q2144.21 1535.75 2142.05 1534.03 Q2139.92 1532.3 2136.1 1532.3 L2132.08 1532.3 L2132.08 1528.45 L2136.29 1528.45 Q2139.74 1528.45 2141.57 1527.09 Q2143.4 1525.7 2143.4 1523.11 Q2143.4 1520.45 2141.5 1519.03 Q2139.62 1517.6 2136.1 1517.6 Q2134.18 1517.6 2131.98 1518.01 Q2129.78 1518.43 2127.15 1519.31 L2127.15 1515.14 Q2129.81 1514.4 2132.12 1514.03 Q2134.46 1513.66 2136.52 1513.66 Q2141.84 1513.66 2144.95 1516.09 Q2148.05 1518.5 2148.05 1522.62 Q2148.05 1525.49 2146.4 1527.48 Q2144.76 1529.45 2141.73 1530.21 Z" fill="#000000" fill-rule="nonzero" fill-opacity="1" /><polyline clip-path="url(#clip030)" style="stroke:#000000; stroke-linecap:round; stroke-linejoin:round; stroke-width:4; stroke-opacity:1; fill:none" points="147.478,1486.45 147.478,123.472 "/>
<polyline clip-path="url(#clip030)" style="stroke:#000000; stroke-linecap:round; stroke-linejoin:round; stroke-width:4; stroke-opacity:1; fill:none" points="147.478,1407.29 166.376,1407.29 "/>
<polyline clip-path="url(#clip030)" style="stroke:#000000; stroke-linecap:round; stroke-linejoin:round; stroke-width:4; stroke-opacity:1; fill:none" points="147.478,1166.01 166.376,1166.01 "/>
<polyline clip-path="url(#clip030)" style="stroke:#000000; stroke-linecap:round; stroke-linejoin:round; stroke-width:4; stroke-opacity:1; fill:none" points="147.478,924.739 166.376,924.739 "/>
<polyline clip-path="url(#clip030)" style="stroke:#000000; stroke-linecap:round; stroke-linejoin:round; stroke-width:4; stroke-opacity:1; fill:none" points="147.478,683.463 166.376,683.463 "/>
<polyline clip-path="url(#clip030)" style="stroke:#000000; stroke-linecap:round; stroke-linejoin:round; stroke-width:4; stroke-opacity:1; fill:none" points="147.478,442.188 166.376,442.188 "/>
<polyline clip-path="url(#clip030)" style="stroke:#000000; stroke-linecap:round; stroke-linejoin:round; stroke-width:4; stroke-opacity:1; fill:none" points="147.478,200.912 166.376,200.912 "/>
<path clip-path="url(#clip030)" d="M51.3625 1407.74 L81.0383 1407.74 L81.0383 1411.68 L51.3625 1411.68 L51.3625 1407.74 Z" fill="#000000" fill-rule="nonzero" fill-opacity="1" /><path clip-path="url(#clip030)" d="M95.1586 1420.64 L111.478 1420.64 L111.478 1424.57 L89.5336 1424.57 L89.5336 1420.64 Q92.1956 1417.88 96.7789 1413.25 Q101.385 1408.6 102.566 1407.26 Q104.811 1404.73 105.691 1403 Q106.594 1401.24 106.594 1399.55 Q106.594 1396.79 104.649 1395.06 Q102.728 1393.32 99.6261 1393.32 Q97.4271 1393.32 94.9734 1394.08 Q92.5428 1394.85 89.7651 1396.4 L89.7651 1391.68 Q92.5891 1390.54 95.0428 1389.96 Q97.4965 1389.39 99.5335 1389.39 Q104.904 1389.39 108.098 1392.07 Q111.293 1394.76 111.293 1399.25 Q111.293 1401.38 110.483 1403.3 Q109.696 1405.2 107.589 1407.79 Q107.01 1408.46 103.909 1411.68 Q100.807 1414.87 95.1586 1420.64 Z" fill="#000000" fill-rule="nonzero" fill-opacity="1" /><path clip-path="url(#clip030)" d="M50.9921 1166.47 L80.6679 1166.47 L80.6679 1170.4 L50.9921 1170.4 L50.9921 1166.47 Z" fill="#000000" fill-rule="nonzero" fill-opacity="1" /><path clip-path="url(#clip030)" d="M91.5706 1179.36 L99.2095 1179.36 L99.2095 1152.99 L90.8993 1154.66 L90.8993 1150.4 L99.1632 1148.73 L103.839 1148.73 L103.839 1179.36 L111.478 1179.36 L111.478 1183.29 L91.5706 1183.29 L91.5706 1179.36 Z" fill="#000000" fill-rule="nonzero" fill-opacity="1" /><path clip-path="url(#clip030)" d="M99.5335 910.538 Q95.9224 910.538 94.0937 914.103 Q92.2882 917.644 92.2882 924.774 Q92.2882 931.88 94.0937 935.445 Q95.9224 938.987 99.5335 938.987 Q103.168 938.987 104.973 935.445 Q106.802 931.88 106.802 924.774 Q106.802 917.644 104.973 914.103 Q103.168 910.538 99.5335 910.538 M99.5335 906.834 Q105.344 906.834 108.399 911.44 Q111.478 916.024 111.478 924.774 Q111.478 933.501 108.399 938.107 Q105.344 942.69 99.5335 942.69 Q93.7234 942.69 90.6447 938.107 Q87.5892 933.501 87.5892 924.774 Q87.5892 916.024 90.6447 911.44 Q93.7234 906.834 99.5335 906.834 Z" fill="#000000" fill-rule="nonzero" fill-opacity="1" /><path clip-path="url(#clip030)" d="M91.5706 696.808 L99.2095 696.808 L99.2095 670.443 L90.8993 672.109 L90.8993 667.85 L99.1632 666.183 L103.839 666.183 L103.839 696.808 L111.478 696.808 L111.478 700.743 L91.5706 700.743 L91.5706 696.808 Z" fill="#000000" fill-rule="nonzero" fill-opacity="1" /><path clip-path="url(#clip030)" d="M95.1586 455.533 L111.478 455.533 L111.478 459.468 L89.5336 459.468 L89.5336 455.533 Q92.1956 452.778 96.7789 448.148 Q101.385 443.496 102.566 442.153 Q104.811 439.63 105.691 437.894 Q106.594 436.135 106.594 434.445 Q106.594 431.69 104.649 429.954 Q102.728 428.218 99.6261 428.218 Q97.4271 428.218 94.9734 428.982 Q92.5428 429.746 89.7651 431.297 L89.7651 426.574 Q92.5891 425.44 95.0428 424.861 Q97.4965 424.283 99.5335 424.283 Q104.904 424.283 108.098 426.968 Q111.293 429.653 111.293 434.144 Q111.293 436.273 110.483 438.195 Q109.696 440.093 107.589 442.685 Q107.01 443.357 103.909 446.574 Q100.807 449.769 95.1586 455.533 Z" fill="#000000" fill-rule="nonzero" fill-opacity="1" /><path clip-path="url(#clip030)" d="M104.348 199.558 Q107.705 200.276 109.58 202.544 Q111.478 204.813 111.478 208.146 Q111.478 213.262 107.959 216.063 Q104.441 218.863 97.9595 218.863 Q95.7836 218.863 93.4688 218.424 Q91.1771 218.007 88.7234 217.15 L88.7234 212.637 Q90.6678 213.771 92.9826 214.35 Q95.2974 214.928 97.8206 214.928 Q102.219 214.928 104.51 213.192 Q106.825 211.456 106.825 208.146 Q106.825 205.09 104.672 203.377 Q102.543 201.641 98.7234 201.641 L94.6956 201.641 L94.6956 197.799 L98.9085 197.799 Q102.358 197.799 104.186 196.433 Q106.015 195.044 106.015 192.452 Q106.015 189.79 104.117 188.377 Q102.242 186.942 98.7234 186.942 Q96.8021 186.942 94.603 187.359 Q92.4039 187.776 89.7651 188.655 L89.7651 184.489 Q92.4271 183.748 94.7419 183.378 Q97.0798 183.007 99.14 183.007 Q104.464 183.007 107.566 185.438 Q110.668 187.845 110.668 191.965 Q110.668 194.836 109.024 196.827 Q107.381 198.794 104.348 199.558 Z" fill="#000000" fill-rule="nonzero" fill-opacity="1" /><path clip-path="url(#clip030)" d="M1270.57 51.8206 Q1269.5 57.1082 1268.07 60.1414 Q1265.77 64.7732 1261.84 64.7732 Q1259.05 64.7732 1256.92 63.0926 Q1254.83 61.4121 1254.29 58.6248 Q1253.23 59.8955 1252.45 60.6333 Q1251.71 61.3711 1250.24 62.5188 Q1248.8 63.6255 1247 64.1993 Q1245.19 64.7732 1243.15 64.7732 Q1238.14 64.7732 1234.99 62.1499 Q1230.73 79.3244 1230.36 80.1852 Q1229.17 81.9477 1227.45 81.9477 Q1226.38 81.9477 1225.73 81.2919 Q1225.07 80.677 1225.07 79.6933 Q1225.11 79.3654 1225.36 78.3406 L1237.41 29.7683 Q1237.73 28.4567 1238.55 27.7189 Q1239.42 26.9401 1239.91 26.8581 Q1240.4 26.7351 1240.77 26.7351 Q1241.87 26.7351 1242.53 27.35 Q1243.23 27.9238 1243.23 28.9896 Q1243.23 29.1535 1242.98 30.0963 Q1242.78 30.998 1242.45 32.3917 Q1242.12 33.7443 1241.96 34.3591 L1238.43 48.4595 Q1237.24 53.2962 1237.24 55.5916 Q1237.24 59.0757 1238.8 61.0022 Q1240.4 62.8877 1243.47 62.8877 Q1245.4 62.8877 1247.2 62.1089 Q1249.01 61.2891 1250.24 60.1824 Q1251.47 59.0757 1252.45 57.887 Q1253.43 56.6573 1253.88 55.8785 Q1254.34 55.0587 1254.38 54.8538 L1256.55 46.287 L1260.52 30.5881 Q1260.77 29.6044 1261.22 28.9486 Q1261.71 28.2517 1262.29 28.0058 Q1262.86 27.7599 1263.19 27.7189 Q1263.52 27.6369 1263.8 27.6369 Q1264.83 27.6369 1265.53 28.2517 Q1266.22 28.8666 1266.22 29.9323 Q1266.22 30.1373 1265.98 31.121 Q1265.77 32.0637 1265.44 33.4574 Q1265.12 34.81 1264.95 35.5478 Q1263.64 40.7125 1263.52 41.2453 L1261.18 50.304 Q1261.06 50.8368 1260.65 52.5584 Q1260.28 54.2799 1260.07 55.1817 Q1259.87 56.0425 1259.66 57.2312 Q1259.5 58.3789 1259.5 59.0347 Q1259.5 62.8877 1262.04 62.8877 Q1263.03 62.8877 1263.89 62.3138 Q1264.75 61.699 1265.32 60.8382 Q1265.94 59.9774 1266.51 58.5018 Q1267.12 56.9852 1267.49 55.7555 Q1267.86 54.4849 1268.39 52.5174 Q1268.6 51.5746 1268.8 51.2877 Q1269.01 51.0008 1269.58 51.0008 Q1270.57 51.0008 1270.57 51.8206 Z" fill="#000000" fill-rule="nonzero" fill-opacity="1" /><circle clip-path="url(#clip032)" cx="668.325" cy="937.698" r="14.4" fill="#009af9" fill-rule="evenodd" fill-opacity="0.25" stroke="#000000" stroke-opacity="0.25" stroke-width="3.2"/>
<circle clip-path="url(#clip032)" cx="1605.29" cy="1126.27" r="14.4" fill="#009af9" fill-rule="evenodd" fill-opacity="0.25" stroke="#000000" stroke-opacity="0.25" stroke-width="3.2"/>
<circle clip-path="url(#clip032)" cx="1062.32" cy="590.646" r="14.4" fill="#009af9" fill-rule="evenodd" fill-opacity="0.25" stroke="#000000" stroke-opacity="0.25" stroke-width="3.2"/>
<circle clip-path="url(#clip032)" cx="1881.05" cy="981.159" r="14.4" fill="#009af9" fill-rule="evenodd" fill-opacity="0.25" stroke="#000000" stroke-opacity="0.25" stroke-width="3.2"/>
<circle clip-path="url(#clip032)" cx="470.715" cy="1158.79" r="14.4" fill="#009af9" fill-rule="evenodd" fill-opacity="0.25" stroke="#000000" stroke-opacity="0.25" stroke-width="3.2"/>
<circle clip-path="url(#clip032)" cx="315.221" cy="1240.46" r="14.4" fill="#009af9" fill-rule="evenodd" fill-opacity="0.25" stroke="#000000" stroke-opacity="0.25" stroke-width="3.2"/>
<circle clip-path="url(#clip032)" cx="1107.31" cy="406.283" r="14.4" fill="#009af9" fill-rule="evenodd" fill-opacity="0.25" stroke="#000000" stroke-opacity="0.25" stroke-width="3.2"/>
<circle clip-path="url(#clip032)" cx="1098.98" cy="512.764" r="14.4" fill="#009af9" fill-rule="evenodd" fill-opacity="0.25" stroke="#000000" stroke-opacity="0.25" stroke-width="3.2"/>
<circle clip-path="url(#clip032)" cx="328.367" cy="1411.04" r="14.4" fill="#009af9" fill-rule="evenodd" fill-opacity="0.25" stroke="#000000" stroke-opacity="0.25" stroke-width="3.2"/>
<circle clip-path="url(#clip032)" cx="656.5" cy="982.82" r="14.4" fill="#009af9" fill-rule="evenodd" fill-opacity="0.25" stroke="#000000" stroke-opacity="0.25" stroke-width="3.2"/>
<circle clip-path="url(#clip032)" cx="1841.81" cy="934.675" r="14.4" fill="#009af9" fill-rule="evenodd" fill-opacity="0.25" stroke="#000000" stroke-opacity="0.25" stroke-width="3.2"/>
<circle clip-path="url(#clip032)" cx="478.458" cy="1051.85" r="14.4" fill="#009af9" fill-rule="evenodd" fill-opacity="0.25" stroke="#000000" stroke-opacity="0.25" stroke-width="3.2"/>
<circle clip-path="url(#clip032)" cx="1422" cy="516.001" r="14.4" fill="#009af9" fill-rule="evenodd" fill-opacity="0.25" stroke="#000000" stroke-opacity="0.25" stroke-width="3.2"/>
<circle clip-path="url(#clip032)" cx="1951.21" cy="1194.6" r="14.4" fill="#009af9" fill-rule="evenodd" fill-opacity="0.25" stroke="#000000" stroke-opacity="0.25" stroke-width="3.2"/>
<circle clip-path="url(#clip032)" cx="498.638" cy="1035.16" r="14.4" fill="#009af9" fill-rule="evenodd" fill-opacity="0.25" stroke="#000000" stroke-opacity="0.25" stroke-width="3.2"/>
<circle clip-path="url(#clip032)" cx="1703.9" cy="993.45" r="14.4" fill="#009af9" fill-rule="evenodd" fill-opacity="0.25" stroke="#000000" stroke-opacity="0.25" stroke-width="3.2"/>
<circle clip-path="url(#clip032)" cx="1747.67" cy="1262.02" r="14.4" fill="#009af9" fill-rule="evenodd" fill-opacity="0.25" stroke="#000000" stroke-opacity="0.25" stroke-width="3.2"/>
<circle clip-path="url(#clip032)" cx="1683.95" cy="1189.56" r="14.4" fill="#009af9" fill-rule="evenodd" fill-opacity="0.25" stroke="#000000" stroke-opacity="0.25" stroke-width="3.2"/>
<circle clip-path="url(#clip032)" cx="1773.8" cy="950.274" r="14.4" fill="#009af9" fill-rule="evenodd" fill-opacity="0.25" stroke="#000000" stroke-opacity="0.25" stroke-width="3.2"/>
<circle clip-path="url(#clip032)" cx="809.877" cy="1190.86" r="14.4" fill="#009af9" fill-rule="evenodd" fill-opacity="0.25" stroke="#000000" stroke-opacity="0.25" stroke-width="3.2"/>
<circle clip-path="url(#clip032)" cx="775.155" cy="1255.66" r="14.4" fill="#009af9" fill-rule="evenodd" fill-opacity="0.25" stroke="#000000" stroke-opacity="0.25" stroke-width="3.2"/>
<circle clip-path="url(#clip032)" cx="1123.44" cy="458.72" r="14.4" fill="#009af9" fill-rule="evenodd" fill-opacity="0.25" stroke="#000000" stroke-opacity="0.25" stroke-width="3.2"/>
<circle clip-path="url(#clip032)" cx="1824.27" cy="1064.06" r="14.4" fill="#009af9" fill-rule="evenodd" fill-opacity="0.25" stroke="#000000" stroke-opacity="0.25" stroke-width="3.2"/>
<circle clip-path="url(#clip032)" cx="1309.27" cy="470.674" r="14.4" fill="#009af9" fill-rule="evenodd" fill-opacity="0.25" stroke="#000000" stroke-opacity="0.25" stroke-width="3.2"/>
<circle clip-path="url(#clip032)" cx="415.082" cy="1100.33" r="14.4" fill="#009af9" fill-rule="evenodd" fill-opacity="0.25" stroke="#000000" stroke-opacity="0.25" stroke-width="3.2"/>
<circle clip-path="url(#clip032)" cx="1170.11" cy="396.548" r="14.4" fill="#009af9" fill-rule="evenodd" fill-opacity="0.25" stroke="#000000" stroke-opacity="0.25" stroke-width="3.2"/>
<circle clip-path="url(#clip032)" cx="1263.91" cy="309.075" r="14.4" fill="#009af9" fill-rule="evenodd" fill-opacity="0.25" stroke="#000000" stroke-opacity="0.25" stroke-width="3.2"/>
<circle clip-path="url(#clip032)" cx="445.363" cy="1244.04" r="14.4" fill="#009af9" fill-rule="evenodd" fill-opacity="0.25" stroke="#000000" stroke-opacity="0.25" stroke-width="3.2"/>
<circle clip-path="url(#clip032)" cx="487.345" cy="1069.43" r="14.4" fill="#009af9" fill-rule="evenodd" fill-opacity="0.25" stroke="#000000" stroke-opacity="0.25" stroke-width="3.2"/>
<circle clip-path="url(#clip032)" cx="1286.24" cy="425.673" r="14.4" fill="#009af9" fill-rule="evenodd" fill-opacity="0.25" stroke="#000000" stroke-opacity="0.25" stroke-width="3.2"/>
<circle clip-path="url(#clip032)" cx="654.403" cy="1308.62" r="14.4" fill="#009af9" fill-rule="evenodd" fill-opacity="0.25" stroke="#000000" stroke-opacity="0.25" stroke-width="3.2"/>
<circle clip-path="url(#clip032)" cx="1662.78" cy="1123.44" r="14.4" fill="#009af9" fill-rule="evenodd" fill-opacity="0.25" stroke="#000000" stroke-opacity="0.25" stroke-width="3.2"/>
<circle clip-path="url(#clip032)" cx="924.821" cy="627.149" r="14.4" fill="#009af9" fill-rule="evenodd" fill-opacity="0.25" stroke="#000000" stroke-opacity="0.25" stroke-width="3.2"/>
<circle clip-path="url(#clip032)" cx="1916.04" cy="1140.35" r="14.4" fill="#009af9" fill-rule="evenodd" fill-opacity="0.25" stroke="#000000" stroke-opacity="0.25" stroke-width="3.2"/>
<circle clip-path="url(#clip032)" cx="1519.99" cy="490.942" r="14.4" fill="#009af9" fill-rule="evenodd" fill-opacity="0.25" stroke="#000000" stroke-opacity="0.25" stroke-width="3.2"/>
<circle clip-path="url(#clip032)" cx="354.279" cy="1231.77" r="14.4" fill="#009af9" fill-rule="evenodd" fill-opacity="0.25" stroke="#000000" stroke-opacity="0.25" stroke-width="3.2"/>
<circle clip-path="url(#clip032)" cx="1426.06" cy="490.346" r="14.4" fill="#009af9" fill-rule="evenodd" fill-opacity="0.25" stroke="#000000" stroke-opacity="0.25" stroke-width="3.2"/>
<circle clip-path="url(#clip032)" cx="228.873" cy="1039.51" r="14.4" fill="#009af9" fill-rule="evenodd" fill-opacity="0.25" stroke="#000000" stroke-opacity="0.25" stroke-width="3.2"/>
<circle clip-path="url(#clip032)" cx="554.031" cy="1150.94" r="14.4" fill="#009af9" fill-rule="evenodd" fill-opacity="0.25" stroke="#000000" stroke-opacity="0.25" stroke-width="3.2"/>
<circle clip-path="url(#clip032)" cx="342.047" cy="1062.71" r="14.4" fill="#009af9" fill-rule="evenodd" fill-opacity="0.25" stroke="#000000" stroke-opacity="0.25" stroke-width="3.2"/>
<circle clip-path="url(#clip032)" cx="1497.24" cy="453.052" r="14.4" fill="#009af9" fill-rule="evenodd" fill-opacity="0.25" stroke="#000000" stroke-opacity="0.25" stroke-width="3.2"/>
<circle clip-path="url(#clip032)" cx="831.422" cy="1231.23" r="14.4" fill="#009af9" fill-rule="evenodd" fill-opacity="0.25" stroke="#000000" stroke-opacity="0.25" stroke-width="3.2"/>
<circle clip-path="url(#clip032)" cx="1711.1" cy="1237.34" r="14.4" fill="#009af9" fill-rule="evenodd" fill-opacity="0.25" stroke="#000000" stroke-opacity="0.25" stroke-width="3.2"/>
<circle clip-path="url(#clip032)" cx="665.534" cy="1210.97" r="14.4" fill="#009af9" fill-rule="evenodd" fill-opacity="0.25" stroke="#000000" stroke-opacity="0.25" stroke-width="3.2"/>
<circle clip-path="url(#clip032)" cx="1529.45" cy="1177.36" r="14.4" fill="#009af9" fill-rule="evenodd" fill-opacity="0.25" stroke="#000000" stroke-opacity="0.25" stroke-width="3.2"/>
<circle clip-path="url(#clip032)" cx="722.936" cy="1183.74" r="14.4" fill="#009af9" fill-rule="evenodd" fill-opacity="0.25" stroke="#000000" stroke-opacity="0.25" stroke-width="3.2"/>
<circle clip-path="url(#clip032)" cx="584.639" cy="1069.23" r="14.4" fill="#009af9" fill-rule="evenodd" fill-opacity="0.25" stroke="#000000" stroke-opacity="0.25" stroke-width="3.2"/>
<circle clip-path="url(#clip032)" cx="1077.36" cy="348.983" r="14.4" fill="#009af9" fill-rule="evenodd" fill-opacity="0.25" stroke="#000000" stroke-opacity="0.25" stroke-width="3.2"/>
<circle clip-path="url(#clip032)" cx="786.83" cy="1118.04" r="14.4" fill="#009af9" fill-rule="evenodd" fill-opacity="0.25" stroke="#000000" stroke-opacity="0.25" stroke-width="3.2"/>
<circle clip-path="url(#clip032)" cx="1044.96" cy="493.208" r="14.4" fill="#009af9" fill-rule="evenodd" fill-opacity="0.25" stroke="#000000" stroke-opacity="0.25" stroke-width="3.2"/>
<circle clip-path="url(#clip032)" cx="1891.9" cy="1301.34" r="14.4" fill="#009af9" fill-rule="evenodd" fill-opacity="0.25" stroke="#000000" stroke-opacity="0.25" stroke-width="3.2"/>
<circle clip-path="url(#clip032)" cx="1592.42" cy="1088.61" r="14.4" fill="#009af9" fill-rule="evenodd" fill-opacity="0.25" stroke="#000000" stroke-opacity="0.25" stroke-width="3.2"/>
<circle clip-path="url(#clip032)" cx="1074.74" cy="352.45" r="14.4" fill="#009af9" fill-rule="evenodd" fill-opacity="0.25" stroke="#000000" stroke-opacity="0.25" stroke-width="3.2"/>
<circle clip-path="url(#clip032)" cx="502.79" cy="1150.06" r="14.4" fill="#009af9" fill-rule="evenodd" fill-opacity="0.25" stroke="#000000" stroke-opacity="0.25" stroke-width="3.2"/>
<circle clip-path="url(#clip032)" cx="555.131" cy="1094.67" r="14.4" fill="#009af9" fill-rule="evenodd" fill-opacity="0.25" stroke="#000000" stroke-opacity="0.25" stroke-width="3.2"/>
<circle clip-path="url(#clip032)" cx="468.109" cy="1300.75" r="14.4" fill="#009af9" fill-rule="evenodd" fill-opacity="0.25" stroke="#000000" stroke-opacity="0.25" stroke-width="3.2"/>
<circle clip-path="url(#clip032)" cx="567.657" cy="1447.87" r="14.4" fill="#009af9" fill-rule="evenodd" fill-opacity="0.25" stroke="#000000" stroke-opacity="0.25" stroke-width="3.2"/>
<circle clip-path="url(#clip032)" cx="2025.35" cy="1057.37" r="14.4" fill="#009af9" fill-rule="evenodd" fill-opacity="0.25" stroke="#000000" stroke-opacity="0.25" stroke-width="3.2"/>
<circle clip-path="url(#clip032)" cx="1305.52" cy="418.48" r="14.4" fill="#009af9" fill-rule="evenodd" fill-opacity="0.25" stroke="#000000" stroke-opacity="0.25" stroke-width="3.2"/>
<circle clip-path="url(#clip032)" cx="530.061" cy="984.457" r="14.4" fill="#009af9" fill-rule="evenodd" fill-opacity="0.25" stroke="#000000" stroke-opacity="0.25" stroke-width="3.2"/>
<circle clip-path="url(#clip032)" cx="1198.31" cy="162.047" r="14.4" fill="#009af9" fill-rule="evenodd" fill-opacity="0.25" stroke="#000000" stroke-opacity="0.25" stroke-width="3.2"/>
<circle clip-path="url(#clip032)" cx="978.669" cy="607.946" r="14.4" fill="#009af9" fill-rule="evenodd" fill-opacity="0.25" stroke="#000000" stroke-opacity="0.25" stroke-width="3.2"/>
<circle clip-path="url(#clip032)" cx="1269.21" cy="288.641" r="14.4" fill="#009af9" fill-rule="evenodd" fill-opacity="0.25" stroke="#000000" stroke-opacity="0.25" stroke-width="3.2"/>
<circle clip-path="url(#clip032)" cx="750.552" cy="404.924" r="14.4" fill="#009af9" fill-rule="evenodd" fill-opacity="0.25" stroke="#000000" stroke-opacity="0.25" stroke-width="3.2"/>
<circle clip-path="url(#clip032)" cx="1686.04" cy="1134.69" r="14.4" fill="#009af9" fill-rule="evenodd" fill-opacity="0.25" stroke="#000000" stroke-opacity="0.25" stroke-width="3.2"/>
<circle clip-path="url(#clip032)" cx="1794.61" cy="1101.28" r="14.4" fill="#009af9" fill-rule="evenodd" fill-opacity="0.25" stroke="#000000" stroke-opacity="0.25" stroke-width="3.2"/>
<circle clip-path="url(#clip032)" cx="1620.08" cy="836.847" r="14.4" fill="#009af9" fill-rule="evenodd" fill-opacity="0.25" stroke="#000000" stroke-opacity="0.25" stroke-width="3.2"/>
<circle clip-path="url(#clip032)" cx="1724.73" cy="1036.14" r="14.4" fill="#009af9" fill-rule="evenodd" fill-opacity="0.25" stroke="#000000" stroke-opacity="0.25" stroke-width="3.2"/>
<circle clip-path="url(#clip032)" cx="1638.29" cy="1082.89" r="14.4" fill="#009af9" fill-rule="evenodd" fill-opacity="0.25" stroke="#000000" stroke-opacity="0.25" stroke-width="3.2"/>
<circle clip-path="url(#clip032)" cx="1101.89" cy="331.493" r="14.4" fill="#009af9" fill-rule="evenodd" fill-opacity="0.25" stroke="#000000" stroke-opacity="0.25" stroke-width="3.2"/>
<circle clip-path="url(#clip032)" cx="1282.25" cy="552.25" r="14.4" fill="#009af9" fill-rule="evenodd" fill-opacity="0.25" stroke="#000000" stroke-opacity="0.25" stroke-width="3.2"/>
<circle clip-path="url(#clip032)" cx="1266.36" cy="495.607" r="14.4" fill="#009af9" fill-rule="evenodd" fill-opacity="0.25" stroke="#000000" stroke-opacity="0.25" stroke-width="3.2"/>
<circle clip-path="url(#clip032)" cx="1696.2" cy="1102.6" r="14.4" fill="#009af9" fill-rule="evenodd" fill-opacity="0.25" stroke="#000000" stroke-opacity="0.25" stroke-width="3.2"/>
<circle clip-path="url(#clip032)" cx="1132.73" cy="607.77" r="14.4" fill="#009af9" fill-rule="evenodd" fill-opacity="0.25" stroke="#000000" stroke-opacity="0.25" stroke-width="3.2"/>
<circle clip-path="url(#clip032)" cx="1570.03" cy="1056.71" r="14.4" fill="#009af9" fill-rule="evenodd" fill-opacity="0.25" stroke="#000000" stroke-opacity="0.25" stroke-width="3.2"/>
<circle clip-path="url(#clip032)" cx="485.165" cy="1185.91" r="14.4" fill="#009af9" fill-rule="evenodd" fill-opacity="0.25" stroke="#000000" stroke-opacity="0.25" stroke-width="3.2"/>
<circle clip-path="url(#clip032)" cx="1737.59" cy="940.949" r="14.4" fill="#009af9" fill-rule="evenodd" fill-opacity="0.25" stroke="#000000" stroke-opacity="0.25" stroke-width="3.2"/>
<circle clip-path="url(#clip032)" cx="209.891" cy="959.125" r="14.4" fill="#009af9" fill-rule="evenodd" fill-opacity="0.25" stroke="#000000" stroke-opacity="0.25" stroke-width="3.2"/>
<circle clip-path="url(#clip032)" cx="1582" cy="1149.29" r="14.4" fill="#009af9" fill-rule="evenodd" fill-opacity="0.25" stroke="#000000" stroke-opacity="0.25" stroke-width="3.2"/>
<circle clip-path="url(#clip032)" cx="808.056" cy="1204.09" r="14.4" fill="#009af9" fill-rule="evenodd" fill-opacity="0.25" stroke="#000000" stroke-opacity="0.25" stroke-width="3.2"/>
<circle clip-path="url(#clip032)" cx="808.245" cy="1302.81" r="14.4" fill="#009af9" fill-rule="evenodd" fill-opacity="0.25" stroke="#000000" stroke-opacity="0.25" stroke-width="3.2"/>
<circle clip-path="url(#clip032)" cx="1130.06" cy="331.219" r="14.4" fill="#009af9" fill-rule="evenodd" fill-opacity="0.25" stroke="#000000" stroke-opacity="0.25" stroke-width="3.2"/>
<circle clip-path="url(#clip032)" cx="741.596" cy="1267.08" r="14.4" fill="#009af9" fill-rule="evenodd" fill-opacity="0.25" stroke="#000000" stroke-opacity="0.25" stroke-width="3.2"/>
<circle clip-path="url(#clip032)" cx="524.568" cy="992.921" r="14.4" fill="#009af9" fill-rule="evenodd" fill-opacity="0.25" stroke="#000000" stroke-opacity="0.25" stroke-width="3.2"/>
<circle clip-path="url(#clip032)" cx="1317.69" cy="624.223" r="14.4" fill="#009af9" fill-rule="evenodd" fill-opacity="0.25" stroke="#000000" stroke-opacity="0.25" stroke-width="3.2"/>
<circle clip-path="url(#clip032)" cx="1111.74" cy="522.814" r="14.4" fill="#009af9" fill-rule="evenodd" fill-opacity="0.25" stroke="#000000" stroke-opacity="0.25" stroke-width="3.2"/>
<circle clip-path="url(#clip032)" cx="1027.2" cy="508.1" r="14.4" fill="#009af9" fill-rule="evenodd" fill-opacity="0.25" stroke="#000000" stroke-opacity="0.25" stroke-width="3.2"/>
<circle clip-path="url(#clip032)" cx="393.128" cy="1181.9" r="14.4" fill="#009af9" fill-rule="evenodd" fill-opacity="0.25" stroke="#000000" stroke-opacity="0.25" stroke-width="3.2"/>
<circle clip-path="url(#clip032)" cx="1046.02" cy="595.633" r="14.4" fill="#009af9" fill-rule="evenodd" fill-opacity="0.25" stroke="#000000" stroke-opacity="0.25" stroke-width="3.2"/>
<circle clip-path="url(#clip032)" cx="1867.73" cy="1209.73" r="14.4" fill="#009af9" fill-rule="evenodd" fill-opacity="0.25" stroke="#000000" stroke-opacity="0.25" stroke-width="3.2"/>
<circle clip-path="url(#clip032)" cx="981.934" cy="300.623" r="14.4" fill="#009af9" fill-rule="evenodd" fill-opacity="0.25" stroke="#000000" stroke-opacity="0.25" stroke-width="3.2"/>
<circle clip-path="url(#clip032)" cx="800.109" cy="912.926" r="14.4" fill="#009af9" fill-rule="evenodd" fill-opacity="0.25" stroke="#000000" stroke-opacity="0.25" stroke-width="3.2"/>
<circle clip-path="url(#clip032)" cx="1591.93" cy="1077.76" r="14.4" fill="#009af9" fill-rule="evenodd" fill-opacity="0.25" stroke="#000000" stroke-opacity="0.25" stroke-width="3.2"/>
<circle clip-path="url(#clip032)" cx="1749.73" cy="1133.57" r="14.4" fill="#009af9" fill-rule="evenodd" fill-opacity="0.25" stroke="#000000" stroke-opacity="0.25" stroke-width="3.2"/>
<circle clip-path="url(#clip032)" cx="2290.34" cy="1369.65" r="14.4" fill="#009af9" fill-rule="evenodd" fill-opacity="0.25" stroke="#000000" stroke-opacity="0.25" stroke-width="3.2"/>
<circle clip-path="url(#clip032)" cx="1187.69" cy="434.155" r="14.4" fill="#009af9" fill-rule="evenodd" fill-opacity="0.25" stroke="#000000" stroke-opacity="0.25" stroke-width="3.2"/>
<circle clip-path="url(#clip032)" cx="1547.84" cy="946.11" r="14.4" fill="#009af9" fill-rule="evenodd" fill-opacity="0.25" stroke="#000000" stroke-opacity="0.25" stroke-width="3.2"/>
<circle clip-path="url(#clip032)" cx="1265.75" cy="501.46" r="14.4" fill="#009af9" fill-rule="evenodd" fill-opacity="0.25" stroke="#000000" stroke-opacity="0.25" stroke-width="3.2"/>
<circle clip-path="url(#clip032)" cx="1759.89" cy="914.999" r="14.4" fill="#009af9" fill-rule="evenodd" fill-opacity="0.25" stroke="#000000" stroke-opacity="0.25" stroke-width="3.2"/>
<circle clip-path="url(#clip032)" cx="655.778" cy="959.576" r="14.4" fill="#009af9" fill-rule="evenodd" fill-opacity="0.25" stroke="#000000" stroke-opacity="0.25" stroke-width="3.2"/>
<path clip-path="url(#clip030)" d="M2006.29 272.585 L2279.25 272.585 L2279.25 168.905 L2006.29 168.905  Z" fill="#ffffff" fill-rule="evenodd" fill-opacity="1"/>
<polyline clip-path="url(#clip030)" style="stroke:#000000; stroke-linecap:round; stroke-linejoin:round; stroke-width:4; stroke-opacity:1; fill:none" points="2006.29,272.585 2279.25,272.585 2279.25,168.905 2006.29,168.905 2006.29,272.585 "/>
<circle clip-path="url(#clip030)" cx="2104.3" cy="220.745" r="20.48" fill="#009af9" fill-rule="evenodd" fill-opacity="0.25" stroke="#000000" stroke-opacity="0.25" stroke-width="4.55111"/>
<path clip-path="url(#clip030)" d="M2216.16 240.432 Q2214.35 245.062 2212.64 246.474 Q2210.92 247.886 2208.05 247.886 L2204.65 247.886 L2204.65 244.321 L2207.15 244.321 Q2208.91 244.321 2209.88 243.488 Q2210.85 242.654 2212.04 239.552 L2212.8 237.608 L2202.31 212.099 L2206.83 212.099 L2214.93 232.377 L2223.03 212.099 L2227.54 212.099 L2216.16 240.432 Z" fill="#000000" fill-rule="nonzero" fill-opacity="1" /><path clip-path="url(#clip030)" d="M2234.84 234.089 L2242.48 234.089 L2242.48 207.724 L2234.16 209.391 L2234.16 205.131 L2242.43 203.465 L2247.1 203.465 L2247.1 234.089 L2254.74 234.089 L2254.74 238.025 L2234.84 238.025 L2234.84 234.089 Z" fill="#000000" fill-rule="nonzero" fill-opacity="1" /></svg>
