<?xml version="1.0" encoding="utf-8"?>
<svg xmlns="http://www.w3.org/2000/svg" xmlns:xlink="http://www.w3.org/1999/xlink" width="600" height="400" viewBox="0 0 2400 1600">
<defs>
  <clipPath id="clip200">
    <rect x="0" y="0" width="2400" height="1600"/>
  </clipPath>
</defs>
<path clip-path="url(#clip200)" d="M0 1600 L2400 1600 L2400 0 L0 0  Z" fill="#ffffff" fill-rule="evenodd" fill-opacity="1"/>
<defs>
  <clipPath id="clip201">
    <rect x="480" y="0" width="1681" height="1600"/>
  </clipPath>
</defs>
<path clip-path="url(#clip200)" d="M156.112 1486.45 L2352.76 1486.45 L2352.76 123.472 L156.112 123.472  Z" fill="#ffffff" fill-rule="evenodd" fill-opacity="1"/>
<defs>
  <clipPath id="clip202">
    <rect x="156" y="123" width="2198" height="1364"/>
  </clipPath>
</defs>
<polyline clip-path="url(#clip202)" style="stroke:#000000; stroke-linecap:round; stroke-linejoin:round; stroke-width:2; stroke-opacity:0.1; fill:none" points="390.973,1486.45 390.973,123.472 "/>
<polyline clip-path="url(#clip202)" style="stroke:#000000; stroke-linecap:round; stroke-linejoin:round; stroke-width:2; stroke-opacity:0.1; fill:none" points="822.704,1486.45 822.704,123.472 "/>
<polyline clip-path="url(#clip202)" style="stroke:#000000; stroke-linecap:round; stroke-linejoin:round; stroke-width:2; stroke-opacity:0.1; fill:none" points="1254.43,1486.45 1254.43,123.472 "/>
<polyline clip-path="url(#clip202)" style="stroke:#000000; stroke-linecap:round; stroke-linejoin:round; stroke-width:2; stroke-opacity:0.1; fill:none" points="1686.16,1486.45 1686.16,123.472 "/>
<polyline clip-path="url(#clip202)" style="stroke:#000000; stroke-linecap:round; stroke-linejoin:round; stroke-width:2; stroke-opacity:0.1; fill:none" points="2117.89,1486.45 2117.89,123.472 "/>
<polyline clip-path="url(#clip202)" style="stroke:#000000; stroke-linecap:round; stroke-linejoin:round; stroke-width:2; stroke-opacity:0.1; fill:none" points="156.112,1447.87 2352.76,1447.87 "/>
<polyline clip-path="url(#clip202)" style="stroke:#000000; stroke-linecap:round; stroke-linejoin:round; stroke-width:2; stroke-opacity:0.1; fill:none" points="156.112,1112.1 2352.76,1112.1 "/>
<polyline clip-path="url(#clip202)" style="stroke:#000000; stroke-linecap:round; stroke-linejoin:round; stroke-width:2; stroke-opacity:0.1; fill:none" points="156.112,776.329 2352.76,776.329 "/>
<polyline clip-path="url(#clip202)" style="stroke:#000000; stroke-linecap:round; stroke-linejoin:round; stroke-width:2; stroke-opacity:0.1; fill:none" points="156.112,440.557 2352.76,440.557 "/>
<polyline clip-path="url(#clip200)" style="stroke:#000000; stroke-linecap:round; stroke-linejoin:round; stroke-width:4; stroke-opacity:1; fill:none" points="156.112,1486.45 2352.76,1486.45 "/>
<polyline clip-path="url(#clip200)" style="stroke:#000000; stroke-linecap:round; stroke-linejoin:round; stroke-width:4; stroke-opacity:1; fill:none" points="390.973,1486.45 390.973,1467.55 "/>
<polyline clip-path="url(#clip200)" style="stroke:#000000; stroke-linecap:round; stroke-linejoin:round; stroke-width:4; stroke-opacity:1; fill:none" points="822.704,1486.45 822.704,1467.55 "/>
<polyline clip-path="url(#clip200)" style="stroke:#000000; stroke-linecap:round; stroke-linejoin:round; stroke-width:4; stroke-opacity:1; fill:none" points="1254.43,1486.45 1254.43,1467.55 "/>
<polyline clip-path="url(#clip200)" style="stroke:#000000; stroke-linecap:round; stroke-linejoin:round; stroke-width:4; stroke-opacity:1; fill:none" points="1686.16,1486.45 1686.16,1467.55 "/>
<polyline clip-path="url(#clip200)" style="stroke:#000000; stroke-linecap:round; stroke-linejoin:round; stroke-width:4; stroke-opacity:1; fill:none" points="2117.89,1486.45 2117.89,1467.55 "/>
<path clip-path="url(#clip200)" d="M345.036 1532.02 L374.712 1532.02 L374.712 1535.95 L345.036 1535.95 L345.036 1532.02 Z" fill="#000000" fill-rule="nonzero" fill-opacity="1" /><path clip-path="url(#clip200)" d="M385.615 1544.91 L393.253 1544.91 L393.253 1518.55 L384.943 1520.21 L384.943 1515.95 L393.207 1514.29 L397.883 1514.29 L397.883 1544.91 L405.522 1544.91 L405.522 1548.85 L385.615 1548.85 L385.615 1544.91 Z" fill="#000000" fill-rule="nonzero" fill-opacity="1" /><path clip-path="url(#clip200)" d="M424.966 1517.37 Q421.355 1517.37 419.526 1520.93 Q417.721 1524.47 417.721 1531.6 Q417.721 1538.71 419.526 1542.27 Q421.355 1545.82 424.966 1545.82 Q428.601 1545.82 430.406 1542.27 Q432.235 1538.71 432.235 1531.6 Q432.235 1524.47 430.406 1520.93 Q428.601 1517.37 424.966 1517.37 M424.966 1513.66 Q430.776 1513.66 433.832 1518.27 Q436.911 1522.85 436.911 1531.6 Q436.911 1540.33 433.832 1544.94 Q430.776 1549.52 424.966 1549.52 Q419.156 1549.52 416.077 1544.94 Q413.022 1540.33 413.022 1531.6 Q413.022 1522.85 416.077 1518.27 Q419.156 1513.66 424.966 1513.66 Z" fill="#000000" fill-rule="nonzero" fill-opacity="1" /><path clip-path="url(#clip200)" d="M792.345 1532.02 L822.021 1532.02 L822.021 1535.95 L792.345 1535.95 L792.345 1532.02 Z" fill="#000000" fill-rule="nonzero" fill-opacity="1" /><path clip-path="url(#clip200)" d="M832.16 1514.29 L850.516 1514.29 L850.516 1518.22 L836.442 1518.22 L836.442 1526.7 Q837.461 1526.35 838.479 1526.19 Q839.498 1526 840.516 1526 Q846.303 1526 849.683 1529.17 Q853.062 1532.34 853.062 1537.76 Q853.062 1543.34 849.59 1546.44 Q846.118 1549.52 839.799 1549.52 Q837.623 1549.52 835.354 1549.15 Q833.109 1548.78 830.701 1548.04 L830.701 1543.34 Q832.785 1544.47 835.007 1545.03 Q837.229 1545.58 839.706 1545.58 Q843.711 1545.58 846.048 1543.48 Q848.386 1541.37 848.386 1537.76 Q848.386 1534.15 846.048 1532.04 Q843.711 1529.94 839.706 1529.94 Q837.831 1529.94 835.956 1530.35 Q834.104 1530.77 832.16 1531.65 L832.16 1514.29 Z" fill="#000000" fill-rule="nonzero" fill-opacity="1" /><path clip-path="url(#clip200)" d="M1254.43 1517.37 Q1250.82 1517.37 1248.99 1520.93 Q1247.19 1524.47 1247.19 1531.6 Q1247.19 1538.71 1248.99 1542.27 Q1250.82 1545.82 1254.43 1545.82 Q1258.07 1545.82 1259.87 1542.27 Q1261.7 1538.71 1261.7 1531.6 Q1261.7 1524.47 1259.87 1520.93 Q1258.07 1517.37 1254.43 1517.37 M1254.43 1513.66 Q1260.24 1513.66 1263.3 1518.27 Q1266.38 1522.85 1266.38 1531.6 Q1266.38 1540.33 1263.3 1544.94 Q1260.24 1549.52 1254.43 1549.52 Q1248.62 1549.52 1245.55 1544.94 Q1242.49 1540.33 1242.49 1531.6 Q1242.49 1522.85 1245.55 1518.27 Q1248.62 1513.66 1254.43 1513.66 Z" fill="#000000" fill-rule="nonzero" fill-opacity="1" /><path clip-path="url(#clip200)" d="M1676.44 1514.29 L1694.8 1514.29 L1694.8 1518.22 L1680.72 1518.22 L1680.72 1526.7 Q1681.74 1526.35 1682.76 1526.19 Q1683.78 1526 1684.8 1526 Q1690.59 1526 1693.97 1529.17 Q1697.34 1532.34 1697.34 1537.76 Q1697.34 1543.34 1693.87 1546.44 Q1690.4 1549.52 1684.08 1549.52 Q1681.91 1549.52 1679.64 1549.15 Q1677.39 1548.78 1674.98 1548.04 L1674.98 1543.34 Q1677.07 1544.47 1679.29 1545.03 Q1681.51 1545.58 1683.99 1545.58 Q1687.99 1545.58 1690.33 1543.48 Q1692.67 1541.37 1692.67 1537.76 Q1692.67 1534.15 1690.33 1532.04 Q1687.99 1529.94 1683.99 1529.94 Q1682.11 1529.94 1680.24 1530.35 Q1678.39 1530.77 1676.44 1531.65 L1676.44 1514.29 Z" fill="#000000" fill-rule="nonzero" fill-opacity="1" /><path clip-path="url(#clip200)" d="M2092.58 1544.91 L2100.22 1544.91 L2100.22 1518.55 L2091.91 1520.21 L2091.91 1515.95 L2100.17 1514.29 L2104.85 1514.29 L2104.85 1544.91 L2112.49 1544.91 L2112.49 1548.85 L2092.58 1548.85 L2092.58 1544.91 Z" fill="#000000" fill-rule="nonzero" fill-opacity="1" /><path clip-path="url(#clip200)" d="M2131.93 1517.37 Q2128.32 1517.37 2126.49 1520.93 Q2124.69 1524.47 2124.69 1531.6 Q2124.69 1538.71 2126.49 1542.27 Q2128.32 1545.82 2131.93 1545.82 Q2135.57 1545.82 2137.37 1542.27 Q2139.2 1538.71 2139.2 1531.6 Q2139.2 1524.47 2137.37 1520.93 Q2135.57 1517.37 2131.93 1517.37 M2131.93 1513.66 Q2137.74 1513.66 2140.8 1518.27 Q2143.88 1522.85 2143.88 1531.6 Q2143.88 1540.33 2140.8 1544.94 Q2137.74 1549.52 2131.93 1549.52 Q2126.12 1549.52 2123.05 1544.94 Q2119.99 1540.33 2119.99 1531.6 Q2119.99 1522.85 2123.05 1518.27 Q2126.12 1513.66 2131.93 1513.66 Z" fill="#000000" fill-rule="nonzero" fill-opacity="1" /><polyline clip-path="url(#clip200)" style="stroke:#000000; stroke-linecap:round; stroke-linejoin:round; stroke-width:4; stroke-opacity:1; fill:none" points="156.112,1486.45 156.112,123.472 "/>
<polyline clip-path="url(#clip200)" style="stroke:#000000; stroke-linecap:round; stroke-linejoin:round; stroke-width:4; stroke-opacity:1; fill:none" points="156.112,1447.87 175.01,1447.87 "/>
<polyline clip-path="url(#clip200)" style="stroke:#000000; stroke-linecap:round; stroke-linejoin:round; stroke-width:4; stroke-opacity:1; fill:none" points="156.112,1112.1 175.01,1112.1 "/>
<polyline clip-path="url(#clip200)" style="stroke:#000000; stroke-linecap:round; stroke-linejoin:round; stroke-width:4; stroke-opacity:1; fill:none" points="156.112,776.329 175.01,776.329 "/>
<polyline clip-path="url(#clip200)" style="stroke:#000000; stroke-linecap:round; stroke-linejoin:round; stroke-width:4; stroke-opacity:1; fill:none" points="156.112,440.557 175.01,440.557 "/>
<path clip-path="url(#clip200)" d="M62.9365 1433.67 Q59.3254 1433.67 57.4967 1437.24 Q55.6912 1440.78 55.6912 1447.91 Q55.6912 1455.01 57.4967 1458.58 Q59.3254 1462.12 62.9365 1462.12 Q66.5707 1462.12 68.3763 1458.58 Q70.205 1455.01 70.205 1447.91 Q70.205 1440.78 68.3763 1437.24 Q66.5707 1433.67 62.9365 1433.67 M62.9365 1429.97 Q68.7467 1429.97 71.8022 1434.57 Q74.8809 1439.16 74.8809 1447.91 Q74.8809 1456.63 71.8022 1461.24 Q68.7467 1465.82 62.9365 1465.82 Q57.1264 1465.82 54.0477 1461.24 Q50.9921 1456.63 50.9921 1447.91 Q50.9921 1439.16 54.0477 1434.57 Q57.1264 1429.97 62.9365 1429.97 Z" fill="#000000" fill-rule="nonzero" fill-opacity="1" /><path clip-path="url(#clip200)" d="M83.0984 1459.27 L87.9827 1459.27 L87.9827 1465.15 L83.0984 1465.15 L83.0984 1459.27 Z" fill="#000000" fill-rule="nonzero" fill-opacity="1" /><path clip-path="url(#clip200)" d="M108.168 1433.67 Q104.557 1433.67 102.728 1437.24 Q100.922 1440.78 100.922 1447.91 Q100.922 1455.01 102.728 1458.58 Q104.557 1462.12 108.168 1462.12 Q111.802 1462.12 113.608 1458.58 Q115.436 1455.01 115.436 1447.91 Q115.436 1440.78 113.608 1437.24 Q111.802 1433.67 108.168 1433.67 M108.168 1429.97 Q113.978 1429.97 117.033 1434.57 Q120.112 1439.16 120.112 1447.91 Q120.112 1456.63 117.033 1461.24 Q113.978 1465.82 108.168 1465.82 Q102.358 1465.82 99.2789 1461.24 Q96.2234 1456.63 96.2234 1447.91 Q96.2234 1439.16 99.2789 1434.57 Q102.358 1429.97 108.168 1429.97 Z" fill="#000000" fill-rule="nonzero" fill-opacity="1" /><path clip-path="url(#clip200)" d="M64.1634 1097.9 Q60.5523 1097.9 58.7236 1101.46 Q56.918 1105.01 56.918 1112.14 Q56.918 1119.24 58.7236 1122.81 Q60.5523 1126.35 64.1634 1126.35 Q67.7976 1126.35 69.6031 1122.81 Q71.4318 1119.24 71.4318 1112.14 Q71.4318 1105.01 69.6031 1101.46 Q67.7976 1097.9 64.1634 1097.9 M64.1634 1094.2 Q69.9735 1094.2 73.029 1098.8 Q76.1077 1103.39 76.1077 1112.14 Q76.1077 1120.86 73.029 1125.47 Q69.9735 1130.05 64.1634 1130.05 Q58.3532 1130.05 55.2745 1125.47 Q52.219 1120.86 52.219 1112.14 Q52.219 1103.39 55.2745 1098.8 Q58.3532 1094.2 64.1634 1094.2 Z" fill="#000000" fill-rule="nonzero" fill-opacity="1" /><path clip-path="url(#clip200)" d="M84.3253 1123.5 L89.2095 1123.5 L89.2095 1129.38 L84.3253 1129.38 L84.3253 1123.5 Z" fill="#000000" fill-rule="nonzero" fill-opacity="1" /><path clip-path="url(#clip200)" d="M100.205 1125.45 L107.844 1125.45 L107.844 1099.08 L99.5335 1100.75 L99.5335 1096.49 L107.797 1094.82 L112.473 1094.82 L112.473 1125.45 L120.112 1125.45 L120.112 1129.38 L100.205 1129.38 L100.205 1125.45 Z" fill="#000000" fill-rule="nonzero" fill-opacity="1" /><path clip-path="url(#clip200)" d="M64.5337 762.128 Q60.9226 762.128 59.0939 765.693 Q57.2884 769.234 57.2884 776.364 Q57.2884 783.47 59.0939 787.035 Q60.9226 790.577 64.5337 790.577 Q68.168 790.577 69.9735 787.035 Q71.8022 783.47 71.8022 776.364 Q71.8022 769.234 69.9735 765.693 Q68.168 762.128 64.5337 762.128 M64.5337 758.424 Q70.3439 758.424 73.3994 763.031 Q76.4781 767.614 76.4781 776.364 Q76.4781 785.091 73.3994 789.697 Q70.3439 794.28 64.5337 794.28 Q58.7236 794.28 55.6449 789.697 Q52.5893 785.091 52.5893 776.364 Q52.5893 767.614 55.6449 763.031 Q58.7236 758.424 64.5337 758.424 Z" fill="#000000" fill-rule="nonzero" fill-opacity="1" /><path clip-path="url(#clip200)" d="M84.6956 787.729 L89.5799 787.729 L89.5799 793.609 L84.6956 793.609 L84.6956 787.729 Z" fill="#000000" fill-rule="nonzero" fill-opacity="1" /><path clip-path="url(#clip200)" d="M103.793 789.674 L120.112 789.674 L120.112 793.609 L98.1678 793.609 L98.1678 789.674 Q100.83 786.919 105.413 782.29 Q110.02 777.637 111.2 776.294 Q113.445 773.771 114.325 772.035 Q115.228 770.276 115.228 768.586 Q115.228 765.831 113.283 764.095 Q111.362 762.359 108.26 762.359 Q106.061 762.359 103.608 763.123 Q101.177 763.887 98.3993 765.438 L98.3993 760.716 Q101.223 759.581 103.677 759.003 Q106.131 758.424 108.168 758.424 Q113.538 758.424 116.733 761.109 Q119.927 763.794 119.927 768.285 Q119.927 770.415 119.117 772.336 Q118.33 774.234 116.223 776.827 Q115.645 777.498 112.543 780.716 Q109.441 783.91 103.793 789.674 Z" fill="#000000" fill-rule="nonzero" fill-opacity="1" /><path clip-path="url(#clip200)" d="M63.5847 426.356 Q59.9736 426.356 58.1449 429.921 Q56.3393 433.462 56.3393 440.592 Q56.3393 447.698 58.1449 451.263 Q59.9736 454.805 63.5847 454.805 Q67.2189 454.805 69.0244 451.263 Q70.8531 447.698 70.8531 440.592 Q70.8531 433.462 69.0244 429.921 Q67.2189 426.356 63.5847 426.356 M63.5847 422.652 Q69.3948 422.652 72.4503 427.258 Q75.529 431.842 75.529 440.592 Q75.529 449.319 72.4503 453.925 Q69.3948 458.508 63.5847 458.508 Q57.7745 458.508 54.6958 453.925 Q51.6403 449.319 51.6403 440.592 Q51.6403 431.842 54.6958 427.258 Q57.7745 422.652 63.5847 422.652 Z" fill="#000000" fill-rule="nonzero" fill-opacity="1" /><path clip-path="url(#clip200)" d="M83.7466 451.957 L88.6308 451.957 L88.6308 457.837 L83.7466 457.837 L83.7466 451.957 Z" fill="#000000" fill-rule="nonzero" fill-opacity="1" /><path clip-path="url(#clip200)" d="M112.983 439.203 Q116.339 439.92 118.214 442.189 Q120.112 444.457 120.112 447.791 Q120.112 452.907 116.594 455.707 Q113.075 458.508 106.594 458.508 Q104.418 458.508 102.103 458.069 Q99.8113 457.652 97.3576 456.795 L97.3576 452.282 Q99.3021 453.416 101.617 453.994 Q103.932 454.573 106.455 454.573 Q110.853 454.573 113.145 452.837 Q115.459 451.101 115.459 447.791 Q115.459 444.735 113.307 443.022 Q111.177 441.286 107.358 441.286 L103.33 441.286 L103.33 437.444 L107.543 437.444 Q110.992 437.444 112.82 436.078 Q114.649 434.689 114.649 432.096 Q114.649 429.434 112.751 428.022 Q110.876 426.587 107.358 426.587 Q105.436 426.587 103.237 427.004 Q101.038 427.421 98.3993 428.3 L98.3993 424.134 Q101.061 423.393 103.376 423.022 Q105.714 422.652 107.774 422.652 Q113.098 422.652 116.2 425.083 Q119.302 427.49 119.302 431.61 Q119.302 434.481 117.658 436.471 Q116.015 438.439 112.983 439.203 Z" fill="#000000" fill-rule="nonzero" fill-opacity="1" /><path clip-path="url(#clip200)" d="M762.229 12.096 L773.247 12.096 L800.064 62.6918 L800.064 12.096 L808.004 12.096 L808.004 72.576 L796.986 72.576 L770.169 21.9802 L770.169 72.576 L762.229 72.576 L762.229 12.096 Z" fill="#000000" fill-rule="nonzero" fill-opacity="1" /><path clip-path="url(#clip200)" d="M824.289 12.096 L836.482 12.096 L851.916 53.2532 L867.431 12.096 L879.624 12.096 L879.624 72.576 L871.644 72.576 L871.644 19.4686 L856.048 60.9499 L847.825 60.9499 L832.229 19.4686 L832.229 72.576 L824.289 72.576 L824.289 12.096 Z" fill="#000000" fill-rule="nonzero" fill-opacity="1" /><path clip-path="url(#clip200)" d="M895.868 12.096 L930.625 12.096 L930.625 18.9825 L904.051 18.9825 L904.051 36.8065 L928.032 36.8065 L928.032 43.6931 L904.051 43.6931 L904.051 72.576 L895.868 72.576 L895.868 12.096 Z" fill="#000000" fill-rule="nonzero" fill-opacity="1" /><path clip-path="url(#clip200)" d="M965.301 27.2059 L972.754 27.2059 L982.071 62.6108 L991.348 27.2059 L1000.14 27.2059 L1009.46 62.6108 L1018.73 27.2059 L1026.19 27.2059 L1014.32 72.576 L1005.53 72.576 L995.764 35.3887 L985.96 72.576 L977.17 72.576 L965.301 27.2059 Z" fill="#000000" fill-rule="nonzero" fill-opacity="1" /><path clip-path="url(#clip200)" d="M1037.49 27.2059 L1044.94 27.2059 L1044.94 72.576 L1037.49 72.576 L1037.49 27.2059 M1037.49 9.54393 L1044.94 9.54393 L1044.94 18.9825 L1037.49 18.9825 L1037.49 9.54393 Z" fill="#000000" fill-rule="nonzero" fill-opacity="1" /><path clip-path="url(#clip200)" d="M1067.91 14.324 L1067.91 27.2059 L1083.26 27.2059 L1083.26 32.9987 L1067.91 32.9987 L1067.91 57.6282 Q1067.91 63.1779 1069.41 64.7578 Q1070.95 66.3376 1075.61 66.3376 L1083.26 66.3376 L1083.26 72.576 L1075.61 72.576 Q1066.98 72.576 1063.7 69.3758 Q1060.42 66.1351 1060.42 57.6282 L1060.42 32.9987 L1054.95 32.9987 L1054.95 27.2059 L1060.42 27.2059 L1060.42 14.324 L1067.91 14.324 Z" fill="#000000" fill-rule="nonzero" fill-opacity="1" /><path clip-path="url(#clip200)" d="M1130.78 45.1919 L1130.78 72.576 L1123.33 72.576 L1123.33 45.4349 Q1123.33 38.994 1120.81 35.7938 Q1118.3 32.5936 1113.28 32.5936 Q1107.24 32.5936 1103.76 36.4419 Q1100.28 40.2903 1100.28 46.9338 L1100.28 72.576 L1092.78 72.576 L1092.78 9.54393 L1100.28 9.54393 L1100.28 34.2544 Q1102.95 30.163 1106.56 28.1376 Q1110.2 26.1121 1114.94 26.1121 Q1122.76 26.1121 1126.77 30.9732 Q1130.78 35.7938 1130.78 45.1919 Z" fill="#000000" fill-rule="nonzero" fill-opacity="1" /><path clip-path="url(#clip200)" d="M1172.34 12.096 L1207.1 12.096 L1207.1 18.9825 L1180.53 18.9825 L1180.53 36.8065 L1204.51 36.8065 L1204.51 43.6931 L1180.53 43.6931 L1180.53 72.576 L1172.34 72.576 L1172.34 12.096 Z" fill="#000000" fill-rule="nonzero" fill-opacity="1" /><path clip-path="url(#clip200)" d="M1239.99 34.1734 Q1238.74 33.4443 1237.24 33.1202 Q1235.78 32.7556 1234 32.7556 Q1227.68 32.7556 1224.28 36.8875 Q1220.91 40.9789 1220.91 48.6757 L1220.91 72.576 L1213.42 72.576 L1213.42 27.2059 L1220.91 27.2059 L1220.91 34.2544 Q1223.26 30.1225 1227.03 28.1376 Q1230.8 26.1121 1236.18 26.1121 Q1236.95 26.1121 1237.89 26.2337 Q1238.82 26.3147 1239.95 26.5172 L1239.99 34.1734 Z" fill="#000000" fill-rule="nonzero" fill-opacity="1" /><path clip-path="url(#clip200)" d="M1263.57 32.4315 Q1257.57 32.4315 1254.09 37.1306 Q1250.61 41.7891 1250.61 49.9314 Q1250.61 58.0738 1254.05 62.7728 Q1257.53 67.4314 1263.57 67.4314 Q1269.52 67.4314 1273.01 62.7323 Q1276.49 58.0333 1276.49 49.9314 Q1276.49 41.8701 1273.01 37.1711 Q1269.52 32.4315 1263.57 32.4315 M1263.57 26.1121 Q1273.29 26.1121 1278.84 32.4315 Q1284.39 38.7509 1284.39 49.9314 Q1284.39 61.0714 1278.84 67.4314 Q1273.29 73.7508 1263.57 73.7508 Q1253.81 73.7508 1248.26 67.4314 Q1242.75 61.0714 1242.75 49.9314 Q1242.75 38.7509 1248.26 32.4315 Q1253.81 26.1121 1263.57 26.1121 Z" fill="#000000" fill-rule="nonzero" fill-opacity="1" /><path clip-path="url(#clip200)" d="M1329.31 49.9314 Q1329.31 41.7081 1325.91 37.0496 Q1322.55 32.3505 1316.64 32.3505 Q1310.72 32.3505 1307.32 37.0496 Q1303.96 41.7081 1303.96 49.9314 Q1303.96 58.1548 1307.32 62.8538 Q1310.72 67.5124 1316.64 67.5124 Q1322.55 67.5124 1325.91 62.8538 Q1329.31 58.1548 1329.31 49.9314 M1303.96 34.0924 Q1306.31 30.0415 1309.87 28.0971 Q1313.48 26.1121 1318.46 26.1121 Q1326.72 26.1121 1331.87 32.6746 Q1337.05 39.2371 1337.05 49.9314 Q1337.05 60.6258 1331.87 67.1883 Q1326.72 73.7508 1318.46 73.7508 Q1313.48 73.7508 1309.87 71.8063 Q1306.31 69.8214 1303.96 65.7705 L1303.96 72.576 L1296.46 72.576 L1296.46 9.54393 L1303.96 9.54393 L1303.96 34.0924 Z" fill="#000000" fill-rule="nonzero" fill-opacity="1" /><path clip-path="url(#clip200)" d="M1388.22 48.0275 L1388.22 51.6733 L1353.94 51.6733 Q1354.43 59.3701 1358.56 63.421 Q1362.73 67.4314 1370.15 67.4314 Q1374.44 67.4314 1378.45 66.3781 Q1382.5 65.3249 1386.47 63.2184 L1386.47 70.267 Q1382.46 71.9684 1378.25 72.8596 Q1374.04 73.7508 1369.7 73.7508 Q1358.85 73.7508 1352.49 67.4314 Q1346.17 61.1119 1346.17 50.3365 Q1346.17 39.1965 1352.16 32.6746 Q1358.2 26.1121 1368.41 26.1121 Q1377.56 26.1121 1382.87 32.0264 Q1388.22 37.9003 1388.22 48.0275 M1380.76 45.84 Q1380.68 39.7232 1377.32 36.0774 Q1374 32.4315 1368.49 32.4315 Q1362.25 32.4315 1358.48 35.9558 Q1354.75 39.4801 1354.19 45.8805 L1380.76 45.84 Z" fill="#000000" fill-rule="nonzero" fill-opacity="1" /><path clip-path="url(#clip200)" d="M1438.16 45.1919 L1438.16 72.576 L1430.71 72.576 L1430.71 45.4349 Q1430.71 38.994 1428.2 35.7938 Q1425.69 32.5936 1420.66 32.5936 Q1414.63 32.5936 1411.14 36.4419 Q1407.66 40.2903 1407.66 46.9338 L1407.66 72.576 L1400.17 72.576 L1400.17 27.2059 L1407.66 27.2059 L1407.66 34.2544 Q1410.33 30.163 1413.94 28.1376 Q1417.58 26.1121 1422.32 26.1121 Q1430.14 26.1121 1434.15 30.9732 Q1438.16 35.7938 1438.16 45.1919 Z" fill="#000000" fill-rule="nonzero" fill-opacity="1" /><path clip-path="url(#clip200)" d="M1453.03 27.2059 L1460.48 27.2059 L1460.48 72.576 L1453.03 72.576 L1453.03 27.2059 M1453.03 9.54393 L1460.48 9.54393 L1460.48 18.9825 L1453.03 18.9825 L1453.03 9.54393 Z" fill="#000000" fill-rule="nonzero" fill-opacity="1" /><path clip-path="url(#clip200)" d="M1475.31 54.671 L1475.31 27.2059 L1482.76 27.2059 L1482.76 54.3874 Q1482.76 60.8284 1485.27 64.0691 Q1487.79 67.2693 1492.81 67.2693 Q1498.85 67.2693 1502.33 63.421 Q1505.85 59.5726 1505.85 52.9291 L1505.85 27.2059 L1513.31 27.2059 L1513.31 72.576 L1505.85 72.576 L1505.85 65.6084 Q1503.14 69.7404 1499.53 71.7658 Q1495.97 73.7508 1491.23 73.7508 Q1483.41 73.7508 1479.36 68.8897 Q1475.31 64.0286 1475.31 54.671 M1494.07 26.1121 L1494.07 26.1121 Z" fill="#000000" fill-rule="nonzero" fill-opacity="1" /><path clip-path="url(#clip200)" d="M1557.58 28.5427 L1557.58 35.5912 Q1554.42 33.9709 1551.02 33.1607 Q1547.62 32.3505 1543.97 32.3505 Q1538.42 32.3505 1535.63 34.0519 Q1532.87 35.7533 1532.87 39.156 Q1532.87 41.7486 1534.86 43.2475 Q1536.84 44.7058 1542.84 46.0426 L1545.39 46.6097 Q1553.33 48.3111 1556.65 51.4303 Q1560.01 54.509 1560.01 60.0587 Q1560.01 66.3781 1554.99 70.0644 Q1550.01 73.7508 1541.26 73.7508 Q1537.61 73.7508 1533.64 73.0216 Q1529.71 72.3329 1525.34 70.9151 L1525.34 63.2184 Q1529.47 65.3654 1533.48 66.4591 Q1537.49 67.5124 1541.42 67.5124 Q1546.69 67.5124 1549.52 65.73 Q1552.36 63.9071 1552.36 60.6258 Q1552.36 57.5877 1550.29 55.9673 Q1548.27 54.3469 1541.34 52.8481 L1538.75 52.2405 Q1531.82 50.7821 1528.74 47.7845 Q1525.66 44.7463 1525.66 39.4801 Q1525.66 33.0797 1530.2 29.5959 Q1534.74 26.1121 1543.08 26.1121 Q1547.21 26.1121 1550.86 26.7198 Q1554.5 27.3274 1557.58 28.5427 Z" fill="#000000" fill-rule="nonzero" fill-opacity="1" /><path clip-path="url(#clip200)" d="M1598.25 9.54393 L1605.71 9.54393 L1605.71 72.576 L1598.25 72.576 L1598.25 9.54393 Z" fill="#000000" fill-rule="nonzero" fill-opacity="1" /><path clip-path="url(#clip200)" d="M1638.89 32.4315 Q1632.89 32.4315 1629.41 37.1306 Q1625.92 41.7891 1625.92 49.9314 Q1625.92 58.0738 1629.37 62.7728 Q1632.85 67.4314 1638.89 67.4314 Q1644.84 67.4314 1648.32 62.7323 Q1651.81 58.0333 1651.81 49.9314 Q1651.81 41.8701 1648.32 37.1711 Q1644.84 32.4315 1638.89 32.4315 M1638.89 26.1121 Q1648.61 26.1121 1654.16 32.4315 Q1659.71 38.7509 1659.71 49.9314 Q1659.71 61.0714 1654.16 67.4314 Q1648.61 73.7508 1638.89 73.7508 Q1629.12 73.7508 1623.57 67.4314 Q1618.06 61.0714 1618.06 49.9314 Q1618.06 38.7509 1623.57 32.4315 Q1629.12 26.1121 1638.89 26.1121 Z" fill="#000000" fill-rule="nonzero" fill-opacity="1" /><path clip-path="url(#clip200)" d="M1700.99 28.5427 L1700.99 35.5912 Q1697.83 33.9709 1694.42 33.1607 Q1691.02 32.3505 1687.37 32.3505 Q1681.82 32.3505 1679.03 34.0519 Q1676.27 35.7533 1676.27 39.156 Q1676.27 41.7486 1678.26 43.2475 Q1680.24 44.7058 1686.24 46.0426 L1688.79 46.6097 Q1696.73 48.3111 1700.05 51.4303 Q1703.42 54.509 1703.42 60.0587 Q1703.42 66.3781 1698.39 70.0644 Q1693.41 73.7508 1684.66 73.7508 Q1681.01 73.7508 1677.04 73.0216 Q1673.12 72.3329 1668.74 70.9151 L1668.74 63.2184 Q1672.87 65.3654 1676.88 66.4591 Q1680.89 67.5124 1684.82 67.5124 Q1690.09 67.5124 1692.92 65.73 Q1695.76 63.9071 1695.76 60.6258 Q1695.76 57.5877 1693.69 55.9673 Q1691.67 54.3469 1684.74 52.8481 L1682.15 52.2405 Q1675.22 50.7821 1672.14 47.7845 Q1669.06 44.7463 1669.06 39.4801 Q1669.06 33.0797 1673.6 29.5959 Q1678.14 26.1121 1686.48 26.1121 Q1690.62 26.1121 1694.26 26.7198 Q1697.91 27.3274 1700.99 28.5427 Z" fill="#000000" fill-rule="nonzero" fill-opacity="1" /><path clip-path="url(#clip200)" d="M1744.21 28.5427 L1744.21 35.5912 Q1741.05 33.9709 1737.65 33.1607 Q1734.24 32.3505 1730.6 32.3505 Q1725.05 32.3505 1722.25 34.0519 Q1719.5 35.7533 1719.5 39.156 Q1719.5 41.7486 1721.48 43.2475 Q1723.47 44.7058 1729.46 46.0426 L1732.02 46.6097 Q1739.96 48.3111 1743.28 51.4303 Q1746.64 54.509 1746.64 60.0587 Q1746.64 66.3781 1741.62 70.0644 Q1736.63 73.7508 1727.88 73.7508 Q1724.24 73.7508 1720.27 73.0216 Q1716.34 72.3329 1711.96 70.9151 L1711.96 63.2184 Q1716.1 65.3654 1720.11 66.4591 Q1724.12 67.5124 1728.05 67.5124 Q1733.31 67.5124 1736.15 65.73 Q1738.98 63.9071 1738.98 60.6258 Q1738.98 57.5877 1736.92 55.9673 Q1734.89 54.3469 1727.96 52.8481 L1725.37 52.2405 Q1718.44 50.7821 1715.37 47.7845 Q1712.29 44.7463 1712.29 39.4801 Q1712.29 33.0797 1716.82 29.5959 Q1721.36 26.1121 1729.71 26.1121 Q1733.84 26.1121 1737.48 26.7198 Q1741.13 27.3274 1744.21 28.5427 Z" fill="#000000" fill-rule="nonzero" fill-opacity="1" /><polyline clip-path="url(#clip202)" style="stroke:#e31a1c; stroke-linecap:round; stroke-linejoin:round; stroke-width:4; stroke-opacity:1; fill:none" points="218.281,1447.87 239.214,1447.87 260.146,1447.87 281.078,1447.87 302.011,1447.87 322.943,1447.85 343.876,1447.78 364.808,1447.59 385.74,1447.06 406.673,1445.79 427.605,1443.11 448.537,1438.07 469.47,1429.75 490.402,1417.75 511.335,1402.88 532.267,1387.59 553.199,1375.7 574.132,1371.13 595.064,1376.02 615.996,1389.23 636.929,1406.22 657.861,1420.96 678.794,1429.01 699.726,1446.91 720.658,1447.85 741.591,1447.87 762.523,1447.87 783.456,1447.87 804.388,1447.87 825.32,1447.87 846.253,1447.87 867.185,1447.87 888.117,1447.87 909.05,1447.87 929.982,1447.87 950.915,1447.87 971.847,1447.87 992.779,1447.87 1013.71,1447.87 1034.64,1447.87 1055.58,1447.87 1076.51,1447.87 1097.44,1447.87 1118.37,1447.87 1139.31,1447.87 1160.24,1410.39 1181.17,1310.75 1202.1,1181.5 1223.04,1039.91 1243.97,910.413 1264.9,816.664 1285.83,773.612 1306.76,780.666 1327.7,837.906 1348.63,929.368 1369.56,1031.97 1390.49,1132.87 1411.43,1222.75 1432.36,1296.11 1453.29,1351 1474.22,1388.34 1495.16,1410.76 1516.09,1421.13 1537.02,1421.06 1557.95,1409.65 1578.89,1382.74 1599.82,1333.26 1620.75,1253.03 1641.68,1136.07 1662.62,982.421 1683.55,795.062 1704.48,601.092 1725.41,431.878 1746.34,340.684 1767.28,338.182 1788.21,422.402 1809.14,577.514 1830.07,773.513 1851.01,975.47 1871.94,1153.79 1892.87,1291.49 1913.8,1396.43 1934.74,1447.87 1955.67,1447.87 1976.6,1447.87 1997.53,1447.87 2018.47,1447.87 2039.4,1447.87 2060.33,1447.87 2081.26,1447.87 2102.2,1447.87 2123.13,1447.87 2144.06,1447.87 2164.99,1447.87 2185.92,1447.87 2206.86,1447.87 2227.79,1447.87 2248.72,1447.87 2269.65,1447.87 2290.59,1447.87 "/>
<polyline clip-path="url(#clip202)" style="stroke:#377db8; stroke-linecap:round; stroke-linejoin:round; stroke-width:4; stroke-opacity:1; fill:none" points="218.281,1447.87 239.214,1447.87 260.146,1447.87 281.078,1447.87 302.011,1447.87 322.943,1447.86 343.876,1447.81 364.808,1447.65 385.74,1447.18 406.673,1445.93 427.605,1442.87 448.537,1435.97 469.47,1421.63 490.402,1394.05 511.335,1345.15 532.267,1265.44 553.199,1146.73 574.132,986.452 595.064,792.075 615.996,583.116 636.929,388.504 657.861,239.549 678.794,162.047 699.726,245.53 720.658,397.775 741.591,615.039 762.523,865.514 783.456,1113.56 804.388,1325.06 825.32,1445.07 846.253,1447.87 867.185,1447.87 888.117,1447.87 909.05,1447.87 929.982,1447.87 950.915,1447.87 971.847,1447.87 992.779,1447.87 1013.71,1447.87 1034.64,1445.17 1055.58,1418.52 1076.51,1381.41 1097.44,1333.78 1118.37,1274.96 1139.31,1205.08 1160.24,1142.48 1181.17,1102.27 1202.1,1077.25 1223.04,1069.77 1243.97,1079.47 1264.9,1103.37 1285.83,1136.55 1306.76,1169.7 1327.7,1207.91 1348.63,1245.22 1369.56,1273.25 1390.49,1294.42 1411.43,1312.55 1432.36,1330.96 1453.29,1351.03 1474.22,1371.77 1495.16,1390.54 1516.09,1404.45 1537.02,1411.65 1557.95,1412.14 1578.89,1407.76 1599.82,1401.65 1620.75,1397.11 1641.68,1396.27 1662.62,1399.37 1683.55,1423.31 1704.48,1444.91 1725.41,1446.64 1746.34,1447.72 1767.28,1447.86 1788.21,1447.87 1809.14,1447.87 1830.07,1447.87 1851.01,1447.87 1871.94,1447.87 1892.87,1446.9 1913.8,1417.24 1934.74,1406.44 1955.67,1413.74 1976.6,1422.75 1997.53,1431.83 2018.47,1439.12 2039.4,1443.87 2060.33,1446.4 2081.26,1447.47 2102.2,1447.81 2123.13,1447.87 2144.06,1447.87 2164.99,1447.87 2185.92,1447.87 2206.86,1447.87 2227.79,1447.87 2248.72,1447.87 2269.65,1447.87 2290.59,1447.87 "/>
<polyline clip-path="url(#clip202)" style="stroke:#4dae49; stroke-linecap:round; stroke-linejoin:round; stroke-width:4; stroke-opacity:1; fill:none" points="218.281,1447.87 239.214,1447.87 260.146,1447.87 281.078,1447.87 302.011,1447.87 322.943,1447.87 343.876,1447.87 364.808,1447.87 385.74,1447.87 406.673,1447.87 427.605,1447.87 448.537,1447.87 469.47,1447.87 490.402,1447.87 511.335,1447.87 532.267,1447.87 553.199,1447.87 574.132,1447.87 595.064,1447.87 615.996,1447.87 636.929,1447.87 657.861,1447.87 678.794,1446.12 699.726,1246.6 720.658,1090.58 741.591,934.915 762.523,797.355 783.456,693.967 804.388,638.086 825.32,647.371 846.253,728.279 867.185,836.654 888.117,957.897 909.05,1075.75 929.982,1176.19 950.915,1251.07 971.847,1298.55 992.779,1320.89 1013.71,1321.78 1034.64,1305.84 1055.58,1283.32 1076.51,1253.39 1097.44,1218.89 1118.37,1181.91 1139.31,1143.85 1160.24,1118.74 1181.17,1118.29 1202.1,1137.74 1223.04,1177.25 1243.97,1232.4 1264.9,1295.03 1285.83,1355.88 1306.76,1418.54 1327.7,1447.87 1348.63,1447.87 1369.56,1447.87 1390.49,1447.87 1411.43,1447.87 1432.36,1447.87 1453.29,1447.87 1474.22,1447.87 1495.16,1447.87 1516.09,1447.87 1537.02,1447.87 1557.95,1447.87 1578.89,1447.87 1599.82,1447.87 1620.75,1447.87 1641.68,1447.87 1662.62,1447.87 1683.55,1447.87 1704.48,1447.87 1725.41,1447.7 1746.34,1364.38 1767.28,1231 1788.21,1081.51 1809.14,944.922 1830.07,849.269 1851.01,812.489 1871.94,836.943 1892.87,910.313 1913.8,1014.71 1934.74,1126.83 1955.67,1232.96 1976.6,1312.11 1997.53,1366.7 2018.47,1401.95 2039.4,1423.4 2060.33,1435.68 2081.26,1442.25 2102.2,1445.5 2123.13,1446.96 2144.06,1447.56 2164.99,1447.78 2185.92,1447.85 2206.86,1447.87 2227.79,1447.87 2248.72,1447.87 2269.65,1447.87 2290.59,1447.87 "/>
<path clip-path="url(#clip200)" d="M2006.86 376.265 L2279.53 376.265 L2279.53 168.905 L2006.86 168.905  Z" fill="#ffffff" fill-rule="evenodd" fill-opacity="1"/>
<polyline clip-path="url(#clip200)" style="stroke:#000000; stroke-linecap:round; stroke-linejoin:round; stroke-width:4; stroke-opacity:1; fill:none" points="2006.86,376.265 2279.53,376.265 2279.53,168.905 2006.86,168.905 2006.86,376.265 "/>
<polyline clip-path="url(#clip200)" style="stroke:#e31a1c; stroke-linecap:round; stroke-linejoin:round; stroke-width:4; stroke-opacity:1; fill:none" points="2031.27,220.745 2177.71,220.745 "/>
<path clip-path="url(#clip200)" d="M2215.96 240.432 Q2214.16 245.062 2212.44 246.474 Q2210.73 247.886 2207.86 247.886 L2204.46 247.886 L2204.46 244.321 L2206.96 244.321 Q2208.72 244.321 2209.69 243.488 Q2210.66 242.654 2211.84 239.552 L2212.6 237.608 L2202.12 212.099 L2206.63 212.099 L2214.73 232.377 L2222.84 212.099 L2227.35 212.099 L2215.96 240.432 Z" fill="#000000" fill-rule="nonzero" fill-opacity="1" /><path clip-path="url(#clip200)" d="M2234.64 234.089 L2242.28 234.089 L2242.28 207.724 L2233.97 209.391 L2233.97 205.131 L2242.23 203.465 L2246.91 203.465 L2246.91 234.089 L2254.55 234.089 L2254.55 238.025 L2234.64 238.025 L2234.64 234.089 Z" fill="#000000" fill-rule="nonzero" fill-opacity="1" /><polyline clip-path="url(#clip200)" style="stroke:#377db8; stroke-linecap:round; stroke-linejoin:round; stroke-width:4; stroke-opacity:1; fill:none" points="2031.27,272.585 2177.71,272.585 "/>
<path clip-path="url(#clip200)" d="M2215.96 292.272 Q2214.16 296.902 2212.44 298.314 Q2210.73 299.726 2207.86 299.726 L2204.46 299.726 L2204.46 296.161 L2206.96 296.161 Q2208.72 296.161 2209.69 295.328 Q2210.66 294.494 2211.84 291.392 L2212.6 289.448 L2202.12 263.939 L2206.63 263.939 L2214.73 284.217 L2222.84 263.939 L2227.35 263.939 L2215.96 292.272 Z" fill="#000000" fill-rule="nonzero" fill-opacity="1" /><path clip-path="url(#clip200)" d="M2237.86 285.929 L2254.18 285.929 L2254.18 289.865 L2232.23 289.865 L2232.23 285.929 Q2234.9 283.175 2239.48 278.545 Q2244.09 273.893 2245.27 272.55 Q2247.51 270.027 2248.39 268.291 Q2249.29 266.531 2249.29 264.842 Q2249.29 262.087 2247.35 260.351 Q2245.43 258.615 2242.33 258.615 Q2240.13 258.615 2237.67 259.379 Q2235.24 260.143 2232.47 261.694 L2232.47 256.971 Q2235.29 255.837 2237.74 255.258 Q2240.2 254.68 2242.23 254.68 Q2247.6 254.68 2250.8 257.365 Q2253.99 260.05 2253.99 264.541 Q2253.99 266.67 2253.18 268.592 Q2252.4 270.49 2250.29 273.082 Q2249.71 273.754 2246.61 276.971 Q2243.51 280.166 2237.86 285.929 Z" fill="#000000" fill-rule="nonzero" fill-opacity="1" /><polyline clip-path="url(#clip200)" style="stroke:#4dae49; stroke-linecap:round; stroke-linejoin:round; stroke-width:4; stroke-opacity:1; fill:none" points="2031.27,324.425 2177.71,324.425 "/>
<path clip-path="url(#clip200)" d="M2215.96 344.112 Q2214.16 348.742 2212.44 350.154 Q2210.73 351.566 2207.86 351.566 L2204.46 351.566 L2204.46 348.001 L2206.96 348.001 Q2208.72 348.001 2209.69 347.168 Q2210.66 346.334 2211.84 343.232 L2212.6 341.288 L2202.12 315.779 L2206.63 315.779 L2214.73 336.057 L2222.84 315.779 L2227.35 315.779 L2215.96 344.112 Z" fill="#000000" fill-rule="nonzero" fill-opacity="1" /><path clip-path="url(#clip200)" d="M2248 323.07 Q2251.35 323.788 2253.23 326.057 Q2255.13 328.325 2255.13 331.658 Q2255.13 336.774 2251.61 339.575 Q2248.09 342.376 2241.61 342.376 Q2239.43 342.376 2237.12 341.936 Q2234.83 341.519 2232.37 340.663 L2232.37 336.149 Q2234.32 337.283 2236.63 337.862 Q2238.95 338.441 2241.47 338.441 Q2245.87 338.441 2248.16 336.705 Q2250.47 334.969 2250.47 331.658 Q2250.47 328.603 2248.32 326.89 Q2246.19 325.154 2242.37 325.154 L2238.34 325.154 L2238.34 321.311 L2242.56 321.311 Q2246.01 321.311 2247.84 319.946 Q2249.66 318.557 2249.66 315.964 Q2249.66 313.302 2247.77 311.89 Q2245.89 310.455 2242.37 310.455 Q2240.45 310.455 2238.25 310.871 Q2236.05 311.288 2233.41 312.168 L2233.41 308.001 Q2236.08 307.26 2238.39 306.89 Q2240.73 306.52 2242.79 306.52 Q2248.11 306.52 2251.22 308.95 Q2254.32 311.358 2254.32 315.478 Q2254.32 318.348 2252.67 320.339 Q2251.03 322.307 2248 323.07 Z" fill="#000000" fill-rule="nonzero" fill-opacity="1" /></svg>
