<?xml version="1.0" encoding="utf-8"?>
<svg xmlns="http://www.w3.org/2000/svg" xmlns:xlink="http://www.w3.org/1999/xlink" width="600" height="400" viewBox="0 0 2400 1600">
<defs>
  <clipPath id="clip220">
    <rect x="0" y="0" width="2400" height="1600"/>
  </clipPath>
</defs>
<path clip-path="url(#clip220)" d="M0 1600 L2400 1600 L2400 0 L0 0  Z" fill="#ffffff" fill-rule="evenodd" fill-opacity="1"/>
<defs>
  <clipPath id="clip221">
    <rect x="480" y="0" width="1681" height="1600"/>
  </clipPath>
</defs>
<path clip-path="url(#clip220)" d="M186.76 1486.45 L2352.76 1486.45 L2352.76 123.472 L186.76 123.472  Z" fill="#ffffff" fill-rule="evenodd" fill-opacity="1"/>
<defs>
  <clipPath id="clip222">
    <rect x="186" y="123" width="2167" height="1364"/>
  </clipPath>
</defs>
<polyline clip-path="url(#clip222)" style="stroke:#000000; stroke-linecap:round; stroke-linejoin:round; stroke-width:2; stroke-opacity:0.1; fill:none" points="248.062,1486.45 248.062,123.472 "/>
<polyline clip-path="url(#clip222)" style="stroke:#000000; stroke-linecap:round; stroke-linejoin:round; stroke-width:2; stroke-opacity:0.1; fill:none" points="758.91,1486.45 758.91,123.472 "/>
<polyline clip-path="url(#clip222)" style="stroke:#000000; stroke-linecap:round; stroke-linejoin:round; stroke-width:2; stroke-opacity:0.1; fill:none" points="1269.76,1486.45 1269.76,123.472 "/>
<polyline clip-path="url(#clip222)" style="stroke:#000000; stroke-linecap:round; stroke-linejoin:round; stroke-width:2; stroke-opacity:0.1; fill:none" points="1780.61,1486.45 1780.61,123.472 "/>
<polyline clip-path="url(#clip222)" style="stroke:#000000; stroke-linecap:round; stroke-linejoin:round; stroke-width:2; stroke-opacity:0.1; fill:none" points="2291.45,1486.45 2291.45,123.472 "/>
<polyline clip-path="url(#clip222)" style="stroke:#000000; stroke-linecap:round; stroke-linejoin:round; stroke-width:2; stroke-opacity:0.1; fill:none" points="186.76,1447.87 2352.76,1447.87 "/>
<polyline clip-path="url(#clip222)" style="stroke:#000000; stroke-linecap:round; stroke-linejoin:round; stroke-width:2; stroke-opacity:0.1; fill:none" points="186.76,1242.14 2352.76,1242.14 "/>
<polyline clip-path="url(#clip222)" style="stroke:#000000; stroke-linecap:round; stroke-linejoin:round; stroke-width:2; stroke-opacity:0.1; fill:none" points="186.76,1036.41 2352.76,1036.41 "/>
<polyline clip-path="url(#clip222)" style="stroke:#000000; stroke-linecap:round; stroke-linejoin:round; stroke-width:2; stroke-opacity:0.1; fill:none" points="186.76,830.677 2352.76,830.677 "/>
<polyline clip-path="url(#clip222)" style="stroke:#000000; stroke-linecap:round; stroke-linejoin:round; stroke-width:2; stroke-opacity:0.1; fill:none" points="186.76,624.944 2352.76,624.944 "/>
<polyline clip-path="url(#clip222)" style="stroke:#000000; stroke-linecap:round; stroke-linejoin:round; stroke-width:2; stroke-opacity:0.1; fill:none" points="186.76,419.212 2352.76,419.212 "/>
<polyline clip-path="url(#clip222)" style="stroke:#000000; stroke-linecap:round; stroke-linejoin:round; stroke-width:2; stroke-opacity:0.1; fill:none" points="186.76,213.48 2352.76,213.48 "/>
<polyline clip-path="url(#clip220)" style="stroke:#000000; stroke-linecap:round; stroke-linejoin:round; stroke-width:4; stroke-opacity:1; fill:none" points="186.76,1486.45 2352.76,1486.45 "/>
<polyline clip-path="url(#clip220)" style="stroke:#000000; stroke-linecap:round; stroke-linejoin:round; stroke-width:4; stroke-opacity:1; fill:none" points="248.062,1486.45 248.062,1467.55 "/>
<polyline clip-path="url(#clip220)" style="stroke:#000000; stroke-linecap:round; stroke-linejoin:round; stroke-width:4; stroke-opacity:1; fill:none" points="758.91,1486.45 758.91,1467.55 "/>
<polyline clip-path="url(#clip220)" style="stroke:#000000; stroke-linecap:round; stroke-linejoin:round; stroke-width:4; stroke-opacity:1; fill:none" points="1269.76,1486.45 1269.76,1467.55 "/>
<polyline clip-path="url(#clip220)" style="stroke:#000000; stroke-linecap:round; stroke-linejoin:round; stroke-width:4; stroke-opacity:1; fill:none" points="1780.61,1486.45 1780.61,1467.55 "/>
<polyline clip-path="url(#clip220)" style="stroke:#000000; stroke-linecap:round; stroke-linejoin:round; stroke-width:4; stroke-opacity:1; fill:none" points="2291.45,1486.45 2291.45,1467.55 "/>
<path clip-path="url(#clip220)" d="M194.59 1532.02 L224.266 1532.02 L224.266 1535.95 L194.59 1535.95 L194.59 1532.02 Z" fill="#000000" fill-rule="nonzero" fill-opacity="1" /><path clip-path="url(#clip220)" d="M235.168 1544.91 L242.807 1544.91 L242.807 1518.55 L234.497 1520.21 L234.497 1515.95 L242.761 1514.29 L247.437 1514.29 L247.437 1544.91 L255.076 1544.91 L255.076 1548.85 L235.168 1548.85 L235.168 1544.91 Z" fill="#000000" fill-rule="nonzero" fill-opacity="1" /><path clip-path="url(#clip220)" d="M264.52 1542.97 L269.404 1542.97 L269.404 1548.85 L264.52 1548.85 L264.52 1542.97 Z" fill="#000000" fill-rule="nonzero" fill-opacity="1" /><path clip-path="url(#clip220)" d="M289.589 1517.37 Q285.978 1517.37 284.15 1520.93 Q282.344 1524.47 282.344 1531.6 Q282.344 1538.71 284.15 1542.27 Q285.978 1545.82 289.589 1545.82 Q293.224 1545.82 295.029 1542.27 Q296.858 1538.71 296.858 1531.6 Q296.858 1524.47 295.029 1520.93 Q293.224 1517.37 289.589 1517.37 M289.589 1513.66 Q295.4 1513.66 298.455 1518.27 Q301.534 1522.85 301.534 1531.6 Q301.534 1540.33 298.455 1544.94 Q295.4 1549.52 289.589 1549.52 Q283.779 1549.52 280.701 1544.94 Q277.645 1540.33 277.645 1531.6 Q277.645 1522.85 280.701 1518.27 Q283.779 1513.66 289.589 1513.66 Z" fill="#000000" fill-rule="nonzero" fill-opacity="1" /><path clip-path="url(#clip220)" d="M705.936 1532.02 L735.611 1532.02 L735.611 1535.95 L705.936 1535.95 L705.936 1532.02 Z" fill="#000000" fill-rule="nonzero" fill-opacity="1" /><path clip-path="url(#clip220)" d="M755.704 1517.37 Q752.093 1517.37 750.264 1520.93 Q748.459 1524.47 748.459 1531.6 Q748.459 1538.71 750.264 1542.27 Q752.093 1545.82 755.704 1545.82 Q759.338 1545.82 761.144 1542.27 Q762.972 1538.71 762.972 1531.6 Q762.972 1524.47 761.144 1520.93 Q759.338 1517.37 755.704 1517.37 M755.704 1513.66 Q761.514 1513.66 764.57 1518.27 Q767.648 1522.85 767.648 1531.6 Q767.648 1540.33 764.57 1544.94 Q761.514 1549.52 755.704 1549.52 Q749.894 1549.52 746.815 1544.94 Q743.76 1540.33 743.76 1531.6 Q743.76 1522.85 746.815 1518.27 Q749.894 1513.66 755.704 1513.66 Z" fill="#000000" fill-rule="nonzero" fill-opacity="1" /><path clip-path="url(#clip220)" d="M775.866 1542.97 L780.75 1542.97 L780.75 1548.85 L775.866 1548.85 L775.866 1542.97 Z" fill="#000000" fill-rule="nonzero" fill-opacity="1" /><path clip-path="url(#clip220)" d="M790.982 1514.29 L809.338 1514.29 L809.338 1518.22 L795.264 1518.22 L795.264 1526.7 Q796.282 1526.35 797.301 1526.19 Q798.319 1526 799.338 1526 Q805.125 1526 808.505 1529.17 Q811.884 1532.34 811.884 1537.76 Q811.884 1543.34 808.412 1546.44 Q804.94 1549.52 798.62 1549.52 Q796.444 1549.52 794.176 1549.15 Q791.931 1548.78 789.523 1548.04 L789.523 1543.34 Q791.607 1544.47 793.829 1545.03 Q796.051 1545.58 798.528 1545.58 Q802.532 1545.58 804.87 1543.48 Q807.208 1541.37 807.208 1537.76 Q807.208 1534.15 804.87 1532.04 Q802.532 1529.94 798.528 1529.94 Q796.653 1529.94 794.778 1530.35 Q792.926 1530.77 790.982 1531.65 L790.982 1514.29 Z" fill="#000000" fill-rule="nonzero" fill-opacity="1" /><path clip-path="url(#clip220)" d="M1247.14 1517.37 Q1243.53 1517.37 1241.7 1520.93 Q1239.9 1524.47 1239.9 1531.6 Q1239.9 1538.71 1241.7 1542.27 Q1243.53 1545.82 1247.14 1545.82 Q1250.78 1545.82 1252.58 1542.27 Q1254.41 1538.71 1254.41 1531.6 Q1254.41 1524.47 1252.58 1520.93 Q1250.78 1517.37 1247.14 1517.37 M1247.14 1513.66 Q1252.95 1513.66 1256.01 1518.27 Q1259.09 1522.85 1259.09 1531.6 Q1259.09 1540.33 1256.01 1544.94 Q1252.95 1549.52 1247.14 1549.52 Q1241.33 1549.52 1238.25 1544.94 Q1235.2 1540.33 1235.2 1531.6 Q1235.2 1522.85 1238.25 1518.27 Q1241.33 1513.66 1247.14 1513.66 Z" fill="#000000" fill-rule="nonzero" fill-opacity="1" /><path clip-path="url(#clip220)" d="M1267.3 1542.97 L1272.19 1542.97 L1272.19 1548.85 L1267.3 1548.85 L1267.3 1542.97 Z" fill="#000000" fill-rule="nonzero" fill-opacity="1" /><path clip-path="url(#clip220)" d="M1292.37 1517.37 Q1288.76 1517.37 1286.93 1520.93 Q1285.13 1524.47 1285.13 1531.6 Q1285.13 1538.71 1286.93 1542.27 Q1288.76 1545.82 1292.37 1545.82 Q1296.01 1545.82 1297.81 1542.27 Q1299.64 1538.71 1299.64 1531.6 Q1299.64 1524.47 1297.81 1520.93 Q1296.01 1517.37 1292.37 1517.37 M1292.37 1513.66 Q1298.18 1513.66 1301.24 1518.27 Q1304.32 1522.85 1304.32 1531.6 Q1304.32 1540.33 1301.24 1544.94 Q1298.18 1549.52 1292.37 1549.52 Q1286.56 1549.52 1283.48 1544.94 Q1280.43 1540.33 1280.43 1531.6 Q1280.43 1522.85 1283.48 1518.27 Q1286.56 1513.66 1292.37 1513.66 Z" fill="#000000" fill-rule="nonzero" fill-opacity="1" /><path clip-path="url(#clip220)" d="M1758.49 1517.37 Q1754.88 1517.37 1753.05 1520.93 Q1751.24 1524.47 1751.24 1531.6 Q1751.24 1538.71 1753.05 1542.27 Q1754.88 1545.82 1758.49 1545.82 Q1762.12 1545.82 1763.93 1542.27 Q1765.76 1538.71 1765.76 1531.6 Q1765.76 1524.47 1763.93 1520.93 Q1762.12 1517.37 1758.49 1517.37 M1758.49 1513.66 Q1764.3 1513.66 1767.35 1518.27 Q1770.43 1522.85 1770.43 1531.6 Q1770.43 1540.33 1767.35 1544.94 Q1764.3 1549.52 1758.49 1549.52 Q1752.68 1549.52 1749.6 1544.94 Q1746.54 1540.33 1746.54 1531.6 Q1746.54 1522.85 1749.6 1518.27 Q1752.68 1513.66 1758.49 1513.66 Z" fill="#000000" fill-rule="nonzero" fill-opacity="1" /><path clip-path="url(#clip220)" d="M1778.65 1542.97 L1783.53 1542.97 L1783.53 1548.85 L1778.65 1548.85 L1778.65 1542.97 Z" fill="#000000" fill-rule="nonzero" fill-opacity="1" /><path clip-path="url(#clip220)" d="M1793.77 1514.29 L1812.12 1514.29 L1812.12 1518.22 L1798.05 1518.22 L1798.05 1526.7 Q1799.07 1526.35 1800.09 1526.19 Q1801.1 1526 1802.12 1526 Q1807.91 1526 1811.29 1529.17 Q1814.67 1532.34 1814.67 1537.76 Q1814.67 1543.34 1811.2 1546.44 Q1807.72 1549.52 1801.4 1549.52 Q1799.23 1549.52 1796.96 1549.15 Q1794.71 1548.78 1792.31 1548.04 L1792.31 1543.34 Q1794.39 1544.47 1796.61 1545.03 Q1798.84 1545.58 1801.31 1545.58 Q1805.32 1545.58 1807.65 1543.48 Q1809.99 1541.37 1809.99 1537.76 Q1809.99 1534.15 1807.65 1532.04 Q1805.32 1529.94 1801.31 1529.94 Q1799.44 1529.94 1797.56 1530.35 Q1795.71 1530.77 1793.77 1531.65 L1793.77 1514.29 Z" fill="#000000" fill-rule="nonzero" fill-opacity="1" /><path clip-path="url(#clip220)" d="M2258.61 1544.91 L2266.25 1544.91 L2266.25 1518.55 L2257.94 1520.21 L2257.94 1515.95 L2266.2 1514.29 L2270.88 1514.29 L2270.88 1544.91 L2278.51 1544.91 L2278.51 1548.85 L2258.61 1548.85 L2258.61 1544.91 Z" fill="#000000" fill-rule="nonzero" fill-opacity="1" /><path clip-path="url(#clip220)" d="M2287.96 1542.97 L2292.84 1542.97 L2292.84 1548.85 L2287.96 1548.85 L2287.96 1542.97 Z" fill="#000000" fill-rule="nonzero" fill-opacity="1" /><path clip-path="url(#clip220)" d="M2313.03 1517.37 Q2309.42 1517.37 2307.59 1520.93 Q2305.78 1524.47 2305.78 1531.6 Q2305.78 1538.71 2307.59 1542.27 Q2309.42 1545.82 2313.03 1545.82 Q2316.66 1545.82 2318.47 1542.27 Q2320.3 1538.71 2320.3 1531.6 Q2320.3 1524.47 2318.47 1520.93 Q2316.66 1517.37 2313.03 1517.37 M2313.03 1513.66 Q2318.84 1513.66 2321.89 1518.27 Q2324.97 1522.85 2324.97 1531.6 Q2324.97 1540.33 2321.89 1544.94 Q2318.84 1549.52 2313.03 1549.52 Q2307.22 1549.52 2304.14 1544.94 Q2301.08 1540.33 2301.08 1531.6 Q2301.08 1522.85 2304.14 1518.27 Q2307.22 1513.66 2313.03 1513.66 Z" fill="#000000" fill-rule="nonzero" fill-opacity="1" /><polyline clip-path="url(#clip220)" style="stroke:#000000; stroke-linecap:round; stroke-linejoin:round; stroke-width:4; stroke-opacity:1; fill:none" points="186.76,1486.45 186.76,123.472 "/>
<polyline clip-path="url(#clip220)" style="stroke:#000000; stroke-linecap:round; stroke-linejoin:round; stroke-width:4; stroke-opacity:1; fill:none" points="186.76,1447.87 205.658,1447.87 "/>
<polyline clip-path="url(#clip220)" style="stroke:#000000; stroke-linecap:round; stroke-linejoin:round; stroke-width:4; stroke-opacity:1; fill:none" points="186.76,1242.14 205.658,1242.14 "/>
<polyline clip-path="url(#clip220)" style="stroke:#000000; stroke-linecap:round; stroke-linejoin:round; stroke-width:4; stroke-opacity:1; fill:none" points="186.76,1036.41 205.658,1036.41 "/>
<polyline clip-path="url(#clip220)" style="stroke:#000000; stroke-linecap:round; stroke-linejoin:round; stroke-width:4; stroke-opacity:1; fill:none" points="186.76,830.677 205.658,830.677 "/>
<polyline clip-path="url(#clip220)" style="stroke:#000000; stroke-linecap:round; stroke-linejoin:round; stroke-width:4; stroke-opacity:1; fill:none" points="186.76,624.944 205.658,624.944 "/>
<polyline clip-path="url(#clip220)" style="stroke:#000000; stroke-linecap:round; stroke-linejoin:round; stroke-width:4; stroke-opacity:1; fill:none" points="186.76,419.212 205.658,419.212 "/>
<polyline clip-path="url(#clip220)" style="stroke:#000000; stroke-linecap:round; stroke-linejoin:round; stroke-width:4; stroke-opacity:1; fill:none" points="186.76,213.48 205.658,213.48 "/>
<path clip-path="url(#clip220)" d="M63.4226 1433.67 Q59.8115 1433.67 57.9828 1437.24 Q56.1773 1440.78 56.1773 1447.91 Q56.1773 1455.01 57.9828 1458.58 Q59.8115 1462.12 63.4226 1462.12 Q67.0569 1462.12 68.8624 1458.58 Q70.6911 1455.01 70.6911 1447.91 Q70.6911 1440.78 68.8624 1437.24 Q67.0569 1433.67 63.4226 1433.67 M63.4226 1429.97 Q69.2328 1429.97 72.2883 1434.57 Q75.367 1439.16 75.367 1447.91 Q75.367 1456.63 72.2883 1461.24 Q69.2328 1465.82 63.4226 1465.82 Q57.6125 1465.82 54.5338 1461.24 Q51.4782 1456.63 51.4782 1447.91 Q51.4782 1439.16 54.5338 1434.57 Q57.6125 1429.97 63.4226 1429.97 Z" fill="#000000" fill-rule="nonzero" fill-opacity="1" /><path clip-path="url(#clip220)" d="M83.5845 1459.27 L88.4688 1459.27 L88.4688 1465.15 L83.5845 1465.15 L83.5845 1459.27 Z" fill="#000000" fill-rule="nonzero" fill-opacity="1" /><path clip-path="url(#clip220)" d="M108.654 1433.67 Q105.043 1433.67 103.214 1437.24 Q101.409 1440.78 101.409 1447.91 Q101.409 1455.01 103.214 1458.58 Q105.043 1462.12 108.654 1462.12 Q112.288 1462.12 114.094 1458.58 Q115.922 1455.01 115.922 1447.91 Q115.922 1440.78 114.094 1437.24 Q112.288 1433.67 108.654 1433.67 M108.654 1429.97 Q114.464 1429.97 117.52 1434.57 Q120.598 1439.16 120.598 1447.91 Q120.598 1456.63 117.52 1461.24 Q114.464 1465.82 108.654 1465.82 Q102.844 1465.82 99.765 1461.24 Q96.7095 1456.63 96.7095 1447.91 Q96.7095 1439.16 99.765 1434.57 Q102.844 1429.97 108.654 1429.97 Z" fill="#000000" fill-rule="nonzero" fill-opacity="1" /><path clip-path="url(#clip220)" d="M138.816 1433.67 Q135.205 1433.67 133.376 1437.24 Q131.57 1440.78 131.57 1447.91 Q131.57 1455.01 133.376 1458.58 Q135.205 1462.12 138.816 1462.12 Q142.45 1462.12 144.256 1458.58 Q146.084 1455.01 146.084 1447.91 Q146.084 1440.78 144.256 1437.24 Q142.45 1433.67 138.816 1433.67 M138.816 1429.97 Q144.626 1429.97 147.681 1434.57 Q150.76 1439.16 150.76 1447.91 Q150.76 1456.63 147.681 1461.24 Q144.626 1465.82 138.816 1465.82 Q133.006 1465.82 129.927 1461.24 Q126.871 1456.63 126.871 1447.91 Q126.871 1439.16 129.927 1434.57 Q133.006 1429.97 138.816 1429.97 Z" fill="#000000" fill-rule="nonzero" fill-opacity="1" /><path clip-path="url(#clip220)" d="M64.6495 1227.94 Q61.0384 1227.94 59.2097 1231.5 Q57.4041 1235.05 57.4041 1242.18 Q57.4041 1249.28 59.2097 1252.85 Q61.0384 1256.39 64.6495 1256.39 Q68.2837 1256.39 70.0892 1252.85 Q71.9179 1249.28 71.9179 1242.18 Q71.9179 1235.05 70.0892 1231.5 Q68.2837 1227.94 64.6495 1227.94 M64.6495 1224.24 Q70.4596 1224.24 73.5152 1228.84 Q76.5938 1233.43 76.5938 1242.18 Q76.5938 1250.9 73.5152 1255.51 Q70.4596 1260.09 64.6495 1260.09 Q58.8393 1260.09 55.7606 1255.51 Q52.7051 1250.9 52.7051 1242.18 Q52.7051 1233.43 55.7606 1228.84 Q58.8393 1224.24 64.6495 1224.24 Z" fill="#000000" fill-rule="nonzero" fill-opacity="1" /><path clip-path="url(#clip220)" d="M84.8114 1253.54 L89.6956 1253.54 L89.6956 1259.42 L84.8114 1259.42 L84.8114 1253.54 Z" fill="#000000" fill-rule="nonzero" fill-opacity="1" /><path clip-path="url(#clip220)" d="M109.881 1227.94 Q106.27 1227.94 104.441 1231.5 Q102.635 1235.05 102.635 1242.18 Q102.635 1249.28 104.441 1252.85 Q106.27 1256.39 109.881 1256.39 Q113.515 1256.39 115.32 1252.85 Q117.149 1249.28 117.149 1242.18 Q117.149 1235.05 115.32 1231.5 Q113.515 1227.94 109.881 1227.94 M109.881 1224.24 Q115.691 1224.24 118.746 1228.84 Q121.825 1233.43 121.825 1242.18 Q121.825 1250.9 118.746 1255.51 Q115.691 1260.09 109.881 1260.09 Q104.071 1260.09 100.992 1255.51 Q97.9363 1250.9 97.9363 1242.18 Q97.9363 1233.43 100.992 1228.84 Q104.071 1224.24 109.881 1224.24 Z" fill="#000000" fill-rule="nonzero" fill-opacity="1" /><path clip-path="url(#clip220)" d="M130.853 1255.49 L138.492 1255.49 L138.492 1229.12 L130.182 1230.79 L130.182 1226.53 L138.445 1224.86 L143.121 1224.86 L143.121 1255.49 L150.76 1255.49 L150.76 1259.42 L130.853 1259.42 L130.853 1255.49 Z" fill="#000000" fill-rule="nonzero" fill-opacity="1" /><path clip-path="url(#clip220)" d="M65.0198 1022.21 Q61.4087 1022.21 59.58 1025.77 Q57.7745 1029.31 57.7745 1036.44 Q57.7745 1043.55 59.58 1047.11 Q61.4087 1050.66 65.0198 1050.66 Q68.6541 1050.66 70.4596 1047.11 Q72.2883 1043.55 72.2883 1036.44 Q72.2883 1029.31 70.4596 1025.77 Q68.6541 1022.21 65.0198 1022.21 M65.0198 1018.5 Q70.83 1018.5 73.8855 1023.11 Q76.9642 1027.69 76.9642 1036.44 Q76.9642 1045.17 73.8855 1049.78 Q70.83 1054.36 65.0198 1054.36 Q59.2097 1054.36 56.131 1049.78 Q53.0754 1045.17 53.0754 1036.44 Q53.0754 1027.69 56.131 1023.11 Q59.2097 1018.5 65.0198 1018.5 Z" fill="#000000" fill-rule="nonzero" fill-opacity="1" /><path clip-path="url(#clip220)" d="M85.1818 1047.81 L90.066 1047.81 L90.066 1053.69 L85.1818 1053.69 L85.1818 1047.81 Z" fill="#000000" fill-rule="nonzero" fill-opacity="1" /><path clip-path="url(#clip220)" d="M110.251 1022.21 Q106.64 1022.21 104.811 1025.77 Q103.006 1029.31 103.006 1036.44 Q103.006 1043.55 104.811 1047.11 Q106.64 1050.66 110.251 1050.66 Q113.885 1050.66 115.691 1047.11 Q117.52 1043.55 117.52 1036.44 Q117.52 1029.31 115.691 1025.77 Q113.885 1022.21 110.251 1022.21 M110.251 1018.5 Q116.061 1018.5 119.117 1023.11 Q122.195 1027.69 122.195 1036.44 Q122.195 1045.17 119.117 1049.78 Q116.061 1054.36 110.251 1054.36 Q104.441 1054.36 101.362 1049.78 Q98.3067 1045.17 98.3067 1036.44 Q98.3067 1027.69 101.362 1023.11 Q104.441 1018.5 110.251 1018.5 Z" fill="#000000" fill-rule="nonzero" fill-opacity="1" /><path clip-path="url(#clip220)" d="M134.441 1049.75 L150.76 1049.75 L150.76 1053.69 L128.816 1053.69 L128.816 1049.75 Q131.478 1047 136.061 1042.37 Q140.668 1037.72 141.848 1036.37 Q144.093 1033.85 144.973 1032.11 Q145.876 1030.36 145.876 1028.67 Q145.876 1025.91 143.931 1024.17 Q142.01 1022.44 138.908 1022.44 Q136.709 1022.44 134.256 1023.2 Q131.825 1023.97 129.047 1025.52 L129.047 1020.8 Q131.871 1019.66 134.325 1019.08 Q136.779 1018.5 138.816 1018.5 Q144.186 1018.5 147.38 1021.19 Q150.575 1023.87 150.575 1028.36 Q150.575 1030.49 149.765 1032.42 Q148.978 1034.31 146.871 1036.91 Q146.293 1037.58 143.191 1040.8 Q140.089 1043.99 134.441 1049.75 Z" fill="#000000" fill-rule="nonzero" fill-opacity="1" /><path clip-path="url(#clip220)" d="M64.0708 816.475 Q60.4597 816.475 58.631 820.04 Q56.8254 823.582 56.8254 830.711 Q56.8254 837.818 58.631 841.382 Q60.4597 844.924 64.0708 844.924 Q67.705 844.924 69.5105 841.382 Q71.3392 837.818 71.3392 830.711 Q71.3392 823.582 69.5105 820.04 Q67.705 816.475 64.0708 816.475 M64.0708 812.772 Q69.8809 812.772 72.9365 817.378 Q76.0151 821.961 76.0151 830.711 Q76.0151 839.438 72.9365 844.045 Q69.8809 848.628 64.0708 848.628 Q58.2606 848.628 55.1819 844.045 Q52.1264 839.438 52.1264 830.711 Q52.1264 821.961 55.1819 817.378 Q58.2606 812.772 64.0708 812.772 Z" fill="#000000" fill-rule="nonzero" fill-opacity="1" /><path clip-path="url(#clip220)" d="M84.2327 842.077 L89.1169 842.077 L89.1169 847.957 L84.2327 847.957 L84.2327 842.077 Z" fill="#000000" fill-rule="nonzero" fill-opacity="1" /><path clip-path="url(#clip220)" d="M109.302 816.475 Q105.691 816.475 103.862 820.04 Q102.057 823.582 102.057 830.711 Q102.057 837.818 103.862 841.382 Q105.691 844.924 109.302 844.924 Q112.936 844.924 114.742 841.382 Q116.57 837.818 116.57 830.711 Q116.57 823.582 114.742 820.04 Q112.936 816.475 109.302 816.475 M109.302 812.772 Q115.112 812.772 118.168 817.378 Q121.246 821.961 121.246 830.711 Q121.246 839.438 118.168 844.045 Q115.112 848.628 109.302 848.628 Q103.492 848.628 100.413 844.045 Q97.3576 839.438 97.3576 830.711 Q97.3576 821.961 100.413 817.378 Q103.492 812.772 109.302 812.772 Z" fill="#000000" fill-rule="nonzero" fill-opacity="1" /><path clip-path="url(#clip220)" d="M143.631 829.322 Q146.987 830.04 148.862 832.308 Q150.76 834.577 150.76 837.91 Q150.76 843.026 147.242 845.827 Q143.723 848.628 137.242 848.628 Q135.066 848.628 132.751 848.188 Q130.459 847.771 128.006 846.915 L128.006 842.401 Q129.95 843.535 132.265 844.114 Q134.58 844.693 137.103 844.693 Q141.501 844.693 143.793 842.957 Q146.107 841.22 146.107 837.91 Q146.107 834.855 143.955 833.142 Q141.825 831.406 138.006 831.406 L133.978 831.406 L133.978 827.563 L138.191 827.563 Q141.64 827.563 143.468 826.197 Q145.297 824.808 145.297 822.216 Q145.297 819.554 143.399 818.142 Q141.524 816.707 138.006 816.707 Q136.084 816.707 133.885 817.123 Q131.686 817.54 129.047 818.42 L129.047 814.253 Q131.709 813.512 134.024 813.142 Q136.362 812.772 138.422 812.772 Q143.746 812.772 146.848 815.202 Q149.95 817.609 149.95 821.73 Q149.95 824.6 148.306 826.591 Q146.663 828.558 143.631 829.322 Z" fill="#000000" fill-rule="nonzero" fill-opacity="1" /><path clip-path="url(#clip220)" d="M62.9365 610.743 Q59.3254 610.743 57.4967 614.308 Q55.6912 617.849 55.6912 624.979 Q55.6912 632.086 57.4967 635.65 Q59.3254 639.192 62.9365 639.192 Q66.5707 639.192 68.3763 635.65 Q70.205 632.086 70.205 624.979 Q70.205 617.849 68.3763 614.308 Q66.5707 610.743 62.9365 610.743 M62.9365 607.039 Q68.7467 607.039 71.8022 611.646 Q74.8809 616.229 74.8809 624.979 Q74.8809 633.706 71.8022 638.312 Q68.7467 642.896 62.9365 642.896 Q57.1264 642.896 54.0477 638.312 Q50.9921 633.706 50.9921 624.979 Q50.9921 616.229 54.0477 611.646 Q57.1264 607.039 62.9365 607.039 Z" fill="#000000" fill-rule="nonzero" fill-opacity="1" /><path clip-path="url(#clip220)" d="M83.0984 636.345 L87.9827 636.345 L87.9827 642.224 L83.0984 642.224 L83.0984 636.345 Z" fill="#000000" fill-rule="nonzero" fill-opacity="1" /><path clip-path="url(#clip220)" d="M108.168 610.743 Q104.557 610.743 102.728 614.308 Q100.922 617.849 100.922 624.979 Q100.922 632.086 102.728 635.65 Q104.557 639.192 108.168 639.192 Q111.802 639.192 113.608 635.65 Q115.436 632.086 115.436 624.979 Q115.436 617.849 113.608 614.308 Q111.802 610.743 108.168 610.743 M108.168 607.039 Q113.978 607.039 117.033 611.646 Q120.112 616.229 120.112 624.979 Q120.112 633.706 117.033 638.312 Q113.978 642.896 108.168 642.896 Q102.358 642.896 99.2789 638.312 Q96.2234 633.706 96.2234 624.979 Q96.2234 616.229 99.2789 611.646 Q102.358 607.039 108.168 607.039 Z" fill="#000000" fill-rule="nonzero" fill-opacity="1" /><path clip-path="url(#clip220)" d="M141.177 611.738 L129.371 630.187 L141.177 630.187 L141.177 611.738 M139.95 607.664 L145.83 607.664 L145.83 630.187 L150.76 630.187 L150.76 634.076 L145.83 634.076 L145.83 642.224 L141.177 642.224 L141.177 634.076 L125.575 634.076 L125.575 629.562 L139.95 607.664 Z" fill="#000000" fill-rule="nonzero" fill-opacity="1" /><path clip-path="url(#clip220)" d="M64.418 405.011 Q60.8069 405.011 58.9782 408.576 Q57.1726 412.117 57.1726 419.247 Q57.1726 426.353 58.9782 429.918 Q60.8069 433.46 64.418 433.46 Q68.0522 433.46 69.8578 429.918 Q71.6865 426.353 71.6865 419.247 Q71.6865 412.117 69.8578 408.576 Q68.0522 405.011 64.418 405.011 M64.418 401.307 Q70.2281 401.307 73.2837 405.914 Q76.3624 410.497 76.3624 419.247 Q76.3624 427.974 73.2837 432.58 Q70.2281 437.163 64.418 437.163 Q58.6078 437.163 55.5291 432.58 Q52.4736 427.974 52.4736 419.247 Q52.4736 410.497 55.5291 405.914 Q58.6078 401.307 64.418 401.307 Z" fill="#000000" fill-rule="nonzero" fill-opacity="1" /><path clip-path="url(#clip220)" d="M84.5799 430.613 L89.4641 430.613 L89.4641 436.492 L84.5799 436.492 L84.5799 430.613 Z" fill="#000000" fill-rule="nonzero" fill-opacity="1" /><path clip-path="url(#clip220)" d="M109.649 405.011 Q106.038 405.011 104.209 408.576 Q102.404 412.117 102.404 419.247 Q102.404 426.353 104.209 429.918 Q106.038 433.46 109.649 433.46 Q113.283 433.46 115.089 429.918 Q116.918 426.353 116.918 419.247 Q116.918 412.117 115.089 408.576 Q113.283 405.011 109.649 405.011 M109.649 401.307 Q115.459 401.307 118.515 405.914 Q121.594 410.497 121.594 419.247 Q121.594 427.974 118.515 432.58 Q115.459 437.163 109.649 437.163 Q103.839 437.163 100.76 432.58 Q97.7048 427.974 97.7048 419.247 Q97.7048 410.497 100.76 405.914 Q103.839 401.307 109.649 401.307 Z" fill="#000000" fill-rule="nonzero" fill-opacity="1" /><path clip-path="url(#clip220)" d="M129.857 401.932 L148.214 401.932 L148.214 405.867 L134.14 405.867 L134.14 414.339 Q135.158 413.992 136.177 413.83 Q137.195 413.645 138.214 413.645 Q144.001 413.645 147.38 416.816 Q150.76 419.988 150.76 425.404 Q150.76 430.983 147.288 434.085 Q143.816 437.163 137.496 437.163 Q135.32 437.163 133.052 436.793 Q130.807 436.423 128.399 435.682 L128.399 430.983 Q130.482 432.117 132.705 432.673 Q134.927 433.228 137.404 433.228 Q141.408 433.228 143.746 431.122 Q146.084 429.015 146.084 425.404 Q146.084 421.793 143.746 419.687 Q141.408 417.58 137.404 417.58 Q135.529 417.58 133.654 417.997 Q131.802 418.414 129.857 419.293 L129.857 401.932 Z" fill="#000000" fill-rule="nonzero" fill-opacity="1" /><path clip-path="url(#clip220)" d="M63.2606 199.279 Q59.6495 199.279 57.8208 202.843 Q56.0152 206.385 56.0152 213.515 Q56.0152 220.621 57.8208 224.186 Q59.6495 227.728 63.2606 227.728 Q66.8948 227.728 68.7004 224.186 Q70.5291 220.621 70.5291 213.515 Q70.5291 206.385 68.7004 202.843 Q66.8948 199.279 63.2606 199.279 M63.2606 195.575 Q69.0707 195.575 72.1263 200.181 Q75.205 204.765 75.205 213.515 Q75.205 222.241 72.1263 226.848 Q69.0707 231.431 63.2606 231.431 Q57.4504 231.431 54.3717 226.848 Q51.3162 222.241 51.3162 213.515 Q51.3162 204.765 54.3717 200.181 Q57.4504 195.575 63.2606 195.575 Z" fill="#000000" fill-rule="nonzero" fill-opacity="1" /><path clip-path="url(#clip220)" d="M83.4225 224.88 L88.3067 224.88 L88.3067 230.76 L83.4225 230.76 L83.4225 224.88 Z" fill="#000000" fill-rule="nonzero" fill-opacity="1" /><path clip-path="url(#clip220)" d="M108.492 199.279 Q104.881 199.279 103.052 202.843 Q101.246 206.385 101.246 213.515 Q101.246 220.621 103.052 224.186 Q104.881 227.728 108.492 227.728 Q112.126 227.728 113.932 224.186 Q115.76 220.621 115.76 213.515 Q115.76 206.385 113.932 202.843 Q112.126 199.279 108.492 199.279 M108.492 195.575 Q114.302 195.575 117.358 200.181 Q120.436 204.765 120.436 213.515 Q120.436 222.241 117.358 226.848 Q114.302 231.431 108.492 231.431 Q102.682 231.431 99.603 226.848 Q96.5474 222.241 96.5474 213.515 Q96.5474 204.765 99.603 200.181 Q102.682 195.575 108.492 195.575 Z" fill="#000000" fill-rule="nonzero" fill-opacity="1" /><path clip-path="url(#clip220)" d="M139.232 211.617 Q136.084 211.617 134.232 213.769 Q132.404 215.922 132.404 219.672 Q132.404 223.399 134.232 225.575 Q136.084 227.728 139.232 227.728 Q142.381 227.728 144.209 225.575 Q146.061 223.399 146.061 219.672 Q146.061 215.922 144.209 213.769 Q142.381 211.617 139.232 211.617 M148.515 196.964 L148.515 201.223 Q146.756 200.39 144.95 199.95 Q143.168 199.51 141.408 199.51 Q136.779 199.51 134.325 202.635 Q131.894 205.76 131.547 212.08 Q132.913 210.066 134.973 209.001 Q137.033 207.913 139.51 207.913 Q144.718 207.913 147.728 211.084 Q150.76 214.232 150.76 219.672 Q150.76 224.996 147.612 228.214 Q144.464 231.431 139.232 231.431 Q133.237 231.431 130.066 226.848 Q126.894 222.241 126.894 213.515 Q126.894 205.32 130.783 200.459 Q134.672 195.575 141.223 195.575 Q142.982 195.575 144.765 195.922 Q146.57 196.269 148.515 196.964 Z" fill="#000000" fill-rule="nonzero" fill-opacity="1" /><path clip-path="url(#clip220)" d="M863.124 20.4184 L861.444 34.9286 Q861.321 36.2403 861.116 36.6502 Q860.911 37.0191 860.255 37.0191 Q859.271 37.0191 859.271 36.0353 Q859.271 35.6254 859.435 34.5187 Q859.681 32.2643 859.681 29.9689 Q859.681 27.3866 859.189 25.788 Q858.738 24.1484 857.427 22.9597 Q856.115 21.771 853.697 21.2792 Q851.278 20.7463 847.425 20.7463 L836.358 20.7463 Q833.653 20.7463 832.997 21.2382 Q832.382 21.7301 831.808 24.0255 L826.439 45.3399 L834.063 45.3399 Q839.391 45.3399 841.482 43.7823 Q843.572 42.2247 844.884 37.265 Q845.089 36.4862 845.171 36.1993 Q845.294 35.8714 845.499 35.7074 Q845.745 35.5025 846.155 35.5025 Q846.523 35.5025 846.769 35.7484 Q847.015 35.9533 847.097 36.1993 L847.179 36.4452 Q847.179 36.8551 846.933 37.7979 L842.302 55.9971 Q841.974 57.2268 841.769 57.5137 Q841.605 57.7596 841.031 57.7596 Q840.621 57.7596 840.334 57.4727 Q840.047 57.1858 840.047 56.7349 Q840.129 56.243 840.293 55.8331 Q840.867 53.3328 840.867 51.7342 Q840.867 50.7095 840.662 50.0946 Q840.457 49.4798 839.76 48.9469 Q839.063 48.4141 837.629 48.1681 Q836.194 47.9222 833.899 47.9222 L825.783 47.9222 L820.577 68.8267 L820.208 70.7532 Q820.208 71.614 820.659 71.9419 Q821.151 72.2698 822.914 72.4338 Q825.537 72.6387 827.259 72.6387 Q829.39 72.6387 829.636 72.7207 Q830.128 72.9667 830.128 73.6225 Q830.128 74.3603 829.8 74.7702 Q829.472 75.1391 829.185 75.1801 Q828.898 75.2211 828.365 75.2211 L815.864 74.9751 L804.796 75.2211 Q803.526 75.2211 803.526 74.1963 Q803.526 73.4175 803.854 73.0896 Q804.182 72.7207 804.55 72.6797 Q804.919 72.6387 805.862 72.6387 Q807.912 72.6387 809.141 72.5158 Q810.371 72.3928 811.15 72.2288 Q811.97 72.0239 812.379 71.45 Q812.83 70.8762 813.035 70.3843 Q813.24 69.8515 813.527 68.6628 L824.594 24.2714 Q825.004 22.7548 825.004 22.2629 Q825.004 21.7301 824.635 21.4021 Q824.307 21.0742 823.406 20.9513 Q822.504 20.7873 821.766 20.7873 Q821.069 20.7463 819.553 20.7463 Q818.569 20.7463 818.159 20.7053 Q817.79 20.6643 817.503 20.4594 Q817.216 20.2544 817.216 19.8036 Q817.216 18.6559 817.708 18.4099 Q818.241 18.123 819.717 18.123 L860.87 18.123 Q862.509 18.123 862.878 18.4919 Q863.288 18.8198 863.124 20.4184 Z" fill="#000000" fill-rule="nonzero" fill-opacity="1" /><path clip-path="url(#clip220)" d="M872.742 54.2346 Q872.742 40.0523 878.03 28.6163 Q880.284 23.8205 883.44 19.8036 Q886.596 15.7866 888.687 14.0241 Q890.777 12.2615 891.351 12.2615 Q892.171 12.2615 892.212 13.0813 Q892.212 13.4912 891.105 14.5159 Q877.579 28.2883 877.62 54.2346 Q877.62 80.2627 890.777 93.5023 Q892.212 94.9369 892.212 95.3878 Q892.212 96.2076 891.351 96.2076 Q890.777 96.2076 888.769 94.527 Q886.76 92.8465 883.645 88.9935 Q880.53 85.1405 878.276 80.4267 Q872.742 68.9907 872.742 54.2346 Z" fill="#000000" fill-rule="nonzero" fill-opacity="1" /><path clip-path="url(#clip220)" d="M938.228 51.8162 Q938.228 57.8826 935.113 63.5801 Q932.039 69.2776 927.202 72.7207 Q922.406 76.1638 917.569 76.1638 Q912.118 76.1638 909.29 70.5073 Q904.166 91.0429 903.879 91.5758 Q902.69 93.3383 900.969 93.3383 Q899.903 93.3383 899.247 92.6825 Q898.591 92.0677 898.591 91.0839 Q898.632 90.756 898.878 89.7313 L907.076 56.7349 Q908.962 49.0699 914.659 43.6183 Q920.398 38.1258 926.546 38.1258 Q931.424 38.1258 934.826 41.7738 Q938.228 45.4219 938.228 51.8162 M932.203 48.2091 Q932.203 44.1102 930.563 42.0607 Q928.923 39.9703 926.382 39.9703 Q924.046 39.9703 921.217 41.8558 Q918.43 43.7413 915.971 47.9222 Q914.659 50.3406 913.716 53.3328 Q912.774 56.325 910.929 63.7031 Q910.273 66.6543 910.273 66.8183 Q910.273 67.1462 910.437 67.884 Q910.642 68.6218 911.134 69.7695 Q911.667 70.8762 912.405 71.8599 Q913.143 72.8437 914.495 73.5815 Q915.848 74.2783 917.487 74.2783 Q920.029 74.2783 922.734 72.2288 Q925.48 70.1384 927.489 66.3264 Q929.169 63.2522 930.686 57.4727 Q932.203 51.6522 932.203 48.2091 Z" fill="#000000" fill-rule="nonzero" fill-opacity="1" /><path clip-path="url(#clip220)" d="M943.558 95.3878 Q943.558 94.9779 944.624 93.9532 Q958.15 80.1808 958.15 54.2346 Q958.15 28.2064 945.156 15.0488 Q943.558 13.5322 943.558 13.0813 Q943.558 12.2615 944.378 12.2615 Q944.952 12.2615 946.96 13.9421 Q949.009 15.6227 952.084 19.4756 Q955.199 23.3286 957.494 28.0424 Q963.028 39.4784 963.028 54.2346 Q963.028 68.4168 957.74 79.8529 Q955.486 84.6486 952.33 88.6655 Q949.173 92.6825 947.083 94.445 Q944.993 96.2076 944.378 96.2076 Q943.558 96.2076 943.558 95.3878 Z" fill="#000000" fill-rule="nonzero" fill-opacity="1" /><path clip-path="url(#clip220)" d="M999.082 62.4734 Q999.164 61.4487 1000.76 61.4487 L1052.2 61.4487 Q1054.62 61.4487 1054.66 62.3914 Q1054.66 63.4162 1052.37 63.3752 L1001.34 63.3752 Q999.082 63.4162 999.082 62.4734 M999.082 46.0777 Q999.082 45.053 1000.84 45.0939 L1052.12 45.0939 Q1054.62 45.0939 1054.66 46.0777 Q1054.66 47.0204 1052.53 47.0204 L1000.76 47.0204 Q999.082 47.0204 999.082 46.0777 Z" fill="#000000" fill-rule="nonzero" fill-opacity="1" /><path clip-path="url(#clip220)" d="M1106.02 94.527 Q1106.02 95.2238 1105.53 95.7157 Q1105.04 96.2076 1104.34 96.2076 Q1103.15 96.2076 1102.74 95.1009 L1087.12 54.8084 Q1087.04 54.6444 1087.04 54.2346 Q1087.04 53.8247 1087.12 53.6607 L1102.74 13.3682 Q1103.15 12.2615 1104.34 12.2615 Q1105.04 12.2615 1105.53 12.7534 Q1106.02 13.2453 1106.02 13.9421 Q1106.02 14.352 1105.94 14.5159 L1090.48 54.2346 L1105.94 93.9532 Q1106.02 94.1171 1106.02 94.527 Z" fill="#000000" fill-rule="nonzero" fill-opacity="1" /><path clip-path="url(#clip220)" d="M1170.22 43.9872 Q1170.22 46.4466 1169.28 50.7505 Q1168.38 55.0543 1167.64 57.1038 Q1165.59 62.5554 1161.49 67.1462 Q1159.24 69.6875 1156.78 71.532 Q1154.36 73.3356 1152.56 74.2373 Q1150.75 75.0981 1148.62 75.549 Q1146.49 76.0408 1145.51 76.0818 Q1144.52 76.1638 1143.13 76.1638 L1139.93 88.6655 Q1139.28 91.9037 1138.95 92.1086 Q1138.87 92.2726 1138.66 92.3546 Q1138.5 92.4366 1138.33 92.4366 L1138.17 92.4366 Q1137.72 92.4366 1137.47 92.2316 Q1137.23 92.0267 1137.19 91.7807 L1137.19 91.5758 Q1137.19 91.0019 1139.11 83.6239 Q1140.1 79.8529 1140.96 75.9589 Q1134.4 75.549 1130.34 72.6387 Q1126.32 69.7285 1126.32 64.072 Q1126.32 60.5879 1130.38 49.8897 Q1132.31 44.766 1132.31 42.6346 Q1132.31 41.6918 1132.1 41.118 Q1131.9 40.5031 1131.49 40.2982 Q1131.08 40.0523 1130.83 40.0113 Q1130.63 39.9703 1130.22 39.9703 Q1127.8 39.9703 1125.55 42.3887 Q1123.29 44.807 1121.73 50.3816 Q1121.41 51.4063 1121.2 51.6522 Q1121 51.8982 1120.38 51.8982 Q1119.36 51.8572 1119.36 51.0374 Q1119.36 50.7095 1119.72 49.4388 Q1120.09 48.1271 1120.95 46.2007 Q1121.86 44.2332 1123.09 42.4706 Q1124.32 40.6671 1126.24 39.3964 Q1128.21 38.1258 1130.46 38.1258 Q1133.54 38.1258 1135.42 40.1342 Q1137.35 42.1017 1137.35 45.012 Q1137.35 45.5858 1137.23 46.2416 Q1137.1 46.8975 1136.98 47.2664 Q1136.9 47.6353 1136.65 48.3321 Q1136.45 48.9879 1136.41 49.1109 Q1134.32 54.5215 1133.25 58.0466 Q1132.19 61.5306 1132.02 62.5554 Q1131.9 63.5391 1131.9 64.7278 Q1131.9 73.0076 1141.45 74.1144 L1155.39 18.6559 Q1155.63 17.5082 1155.84 17.2622 Q1156.04 16.9753 1156.66 16.9753 Q1157.64 16.9753 1157.64 17.8771 Q1157.64 18.164 1157.39 19.1477 L1143.54 74.2783 Q1144.85 74.2783 1145.67 74.2373 Q1146.49 74.1963 1148.21 73.8274 Q1149.97 73.4175 1151.45 72.6797 Q1152.97 71.9419 1155.1 70.4663 Q1157.23 68.9497 1159.32 66.8183 Q1161.94 64.154 1164.28 59.6861 Q1166.62 55.2183 1166.62 51.5293 Q1166.62 47.3893 1163.62 44.3971 Q1163.17 43.9872 1162.93 43.7413 Q1162.72 43.4954 1162.52 43.0855 Q1162.35 42.6756 1162.35 42.1427 Q1162.35 40.7491 1163.67 39.4374 Q1164.98 38.1258 1166.53 38.1258 Q1167.93 38.1258 1169.08 39.4784 Q1170.22 40.8311 1170.22 43.9872 Z" fill="#000000" fill-rule="nonzero" fill-opacity="1" /><path clip-path="url(#clip220)" d="M1174.66 73.8684 Q1173.47 72.5158 1173.47 70.7532 Q1173.47 68.9907 1174.62 67.679 Q1175.81 66.3264 1177.94 66.3264 Q1180.44 66.3264 1181.87 68.7448 Q1183.31 71.1221 1183.31 75.1391 Q1183.31 79.4839 1181.55 83.5009 Q1179.78 87.5588 1178.06 89.4853 Q1176.34 91.4118 1175.64 91.4118 Q1174.82 91.4118 1174.82 90.5101 Q1174.82 90.1821 1175.4 89.5673 Q1181.42 83.091 1181.46 75.1391 Q1181.46 73.8684 1181.3 73.8684 L1181.09 74.0324 Q1179.66 75.2211 1177.94 75.2211 Q1175.85 75.2211 1174.66 73.8684 Z" fill="#000000" fill-rule="nonzero" fill-opacity="1" /><path clip-path="url(#clip220)" d="M1249.43 51.8162 Q1249.43 57.8826 1246.32 63.5801 Q1243.24 69.2776 1238.41 72.7207 Q1233.61 76.1638 1228.78 76.1638 Q1223.32 76.1638 1220.5 70.5073 Q1215.37 91.0429 1215.08 91.5758 Q1213.9 93.3383 1212.17 93.3383 Q1211.11 93.3383 1210.45 92.6825 Q1209.8 92.0677 1209.8 91.0839 Q1209.84 90.756 1210.08 89.7313 L1218.28 56.7349 Q1220.17 49.0699 1225.87 43.6183 Q1231.6 38.1258 1237.75 38.1258 Q1242.63 38.1258 1246.03 41.7738 Q1249.43 45.4219 1249.43 51.8162 M1243.41 48.2091 Q1243.41 44.1102 1241.77 42.0607 Q1240.13 39.9703 1237.59 39.9703 Q1235.25 39.9703 1232.42 41.8558 Q1229.64 43.7413 1227.18 47.9222 Q1225.87 50.3406 1224.92 53.3328 Q1223.98 56.325 1222.14 63.7031 Q1221.48 66.6543 1221.48 66.8183 Q1221.48 67.1462 1221.64 67.884 Q1221.85 68.6218 1222.34 69.7695 Q1222.87 70.8762 1223.61 71.8599 Q1224.35 72.8437 1225.7 73.5815 Q1227.05 74.2783 1228.69 74.2783 Q1231.23 74.2783 1233.94 72.2288 Q1236.69 70.1384 1238.69 66.3264 Q1240.38 63.2522 1241.89 57.4727 Q1243.41 51.6522 1243.41 48.2091 Z" fill="#000000" fill-rule="nonzero" fill-opacity="1" /><path clip-path="url(#clip220)" d="M1271.6 53.6607 Q1271.68 53.8247 1271.68 54.2346 Q1271.68 54.6444 1271.6 54.8084 L1255.99 95.1009 Q1255.58 96.2076 1254.43 96.2076 Q1253.73 96.2076 1253.24 95.7157 Q1252.75 95.2238 1252.75 94.527 Q1252.75 94.1171 1252.83 93.9532 L1268.24 54.2346 L1252.83 14.5159 Q1252.75 14.352 1252.75 13.9421 Q1252.75 13.2453 1253.24 12.7534 Q1253.73 12.2615 1254.43 12.2615 Q1255.58 12.2615 1255.99 13.3682 L1271.6 53.6607 Z" fill="#000000" fill-rule="nonzero" fill-opacity="1" /><path clip-path="url(#clip220)" d="M1310.28 55.2593 Q1308.35 55.2593 1308.35 54.2346 Q1308.35 53.2098 1310.36 53.2098 Q1310.61 53.2098 1311.02 53.2508 Q1311.47 53.2918 1311.55 53.2918 L1335.2 53.2918 L1335.2 29.559 Q1335.2 29.477 1335.16 29.1081 Q1335.12 28.6982 1335.12 28.4523 Q1335.12 26.4438 1336.1 26.4438 Q1337.13 26.4438 1337.13 28.4523 L1337.13 53.2918 L1360.82 53.2918 Q1360.9 53.2918 1361.31 53.2508 Q1361.72 53.2098 1361.97 53.2098 Q1363.89 53.2098 1363.89 54.2346 Q1363.93 55.2593 1361.88 55.2593 Q1361.64 55.2593 1361.27 55.2183 Q1360.9 55.1773 1360.82 55.1773 L1337.13 55.1773 L1337.13 80.0988 Q1337.13 82.0253 1336.1 82.0253 Q1335.12 82.0253 1335.12 80.0168 Q1335.12 79.7709 1335.16 79.361 Q1335.2 78.9921 1335.2 78.9101 L1335.2 55.1773 L1311.55 55.1773 Q1311.47 55.1773 1310.98 55.2183 Q1310.53 55.2593 1310.28 55.2593 Z" fill="#000000" fill-rule="nonzero" fill-opacity="1" /><path clip-path="url(#clip220)" d="M1415.29 94.527 Q1415.29 95.2238 1414.8 95.7157 Q1414.31 96.2076 1413.61 96.2076 Q1412.42 96.2076 1412.01 95.1009 L1396.39 54.8084 Q1396.31 54.6444 1396.31 54.2346 Q1396.31 53.8247 1396.39 53.6607 L1412.01 13.3682 Q1412.42 12.2615 1413.61 12.2615 Q1414.31 12.2615 1414.8 12.7534 Q1415.29 13.2453 1415.29 13.9421 Q1415.29 14.352 1415.21 14.5159 L1399.76 54.2346 L1415.21 93.9532 Q1415.29 94.1171 1415.29 94.527 Z" fill="#000000" fill-rule="nonzero" fill-opacity="1" /><path clip-path="url(#clip220)" d="M1468.26 51.8162 Q1468.26 57.8826 1465.15 63.5801 Q1462.07 69.2776 1457.24 72.7207 Q1452.44 76.1638 1447.61 76.1638 Q1442.15 76.1638 1439.33 70.5073 Q1434.2 91.0429 1433.91 91.5758 Q1432.73 93.3383 1431 93.3383 Q1429.94 93.3383 1429.28 92.6825 Q1428.63 92.0677 1428.63 91.0839 Q1428.67 90.756 1428.91 89.7313 L1437.11 56.7349 Q1439 49.0699 1444.69 43.6183 Q1450.43 38.1258 1456.58 38.1258 Q1461.46 38.1258 1464.86 41.7738 Q1468.26 45.4219 1468.26 51.8162 M1462.24 48.2091 Q1462.24 44.1102 1460.6 42.0607 Q1458.96 39.9703 1456.42 39.9703 Q1454.08 39.9703 1451.25 41.8558 Q1448.47 43.7413 1446.01 47.9222 Q1444.69 50.3406 1443.75 53.3328 Q1442.81 56.325 1440.96 63.7031 Q1440.31 66.6543 1440.31 66.8183 Q1440.31 67.1462 1440.47 67.884 Q1440.68 68.6218 1441.17 69.7695 Q1441.7 70.8762 1442.44 71.8599 Q1443.18 72.8437 1444.53 73.5815 Q1445.88 74.2783 1447.52 74.2783 Q1450.06 74.2783 1452.77 72.2288 Q1455.52 70.1384 1457.52 66.3264 Q1459.21 63.2522 1460.72 57.4727 Q1462.24 51.6522 1462.24 48.2091 Z" fill="#000000" fill-rule="nonzero" fill-opacity="1" /><path clip-path="url(#clip220)" d="M1472.77 73.8684 Q1471.58 72.5158 1471.58 70.7532 Q1471.58 68.9907 1472.73 67.679 Q1473.91 66.3264 1476.05 66.3264 Q1478.55 66.3264 1479.98 68.7448 Q1481.42 71.1221 1481.42 75.1391 Q1481.42 79.4839 1479.65 83.5009 Q1477.89 87.5588 1476.17 89.4853 Q1474.45 91.4118 1473.75 91.4118 Q1472.93 91.4118 1472.93 90.5101 Q1472.93 90.1821 1473.5 89.5673 Q1479.53 83.091 1479.57 75.1391 Q1479.57 73.8684 1479.41 73.8684 L1479.2 74.0324 Q1477.77 75.2211 1476.05 75.2211 Q1473.96 75.2211 1472.77 73.8684 Z" fill="#000000" fill-rule="nonzero" fill-opacity="1" /><path clip-path="url(#clip220)" d="M1547.54 51.8162 Q1547.54 57.8826 1544.43 63.5801 Q1541.35 69.2776 1536.52 72.7207 Q1531.72 76.1638 1526.88 76.1638 Q1521.43 76.1638 1518.6 70.5073 Q1513.48 91.0429 1513.19 91.5758 Q1512 93.3383 1510.28 93.3383 Q1509.22 93.3383 1508.56 92.6825 Q1507.9 92.0677 1507.9 91.0839 Q1507.95 90.756 1508.19 89.7313 L1516.39 56.7349 Q1518.27 49.0699 1523.97 43.6183 Q1529.71 38.1258 1535.86 38.1258 Q1540.74 38.1258 1544.14 41.7738 Q1547.54 45.4219 1547.54 51.8162 M1541.52 48.2091 Q1541.52 44.1102 1539.88 42.0607 Q1538.24 39.9703 1535.7 39.9703 Q1533.36 39.9703 1530.53 41.8558 Q1527.74 43.7413 1525.28 47.9222 Q1523.97 50.3406 1523.03 53.3328 Q1522.09 56.325 1520.24 63.7031 Q1519.59 66.6543 1519.59 66.8183 Q1519.59 67.1462 1519.75 67.884 Q1519.96 68.6218 1520.45 69.7695 Q1520.98 70.8762 1521.72 71.8599 Q1522.46 72.8437 1523.81 73.5815 Q1525.16 74.2783 1526.8 74.2783 Q1529.34 74.2783 1532.05 72.2288 Q1534.79 70.1384 1536.8 66.3264 Q1538.48 63.2522 1540 57.4727 Q1541.52 51.6522 1541.52 48.2091 Z" fill="#000000" fill-rule="nonzero" fill-opacity="1" /><path clip-path="url(#clip220)" d="M1629.56 53.0459 Q1630.05 53.5377 1630.05 54.2346 Q1630.05 54.9314 1629.56 55.4232 Q1629.07 55.9151 1628.37 55.9151 L1575.83 55.9151 Q1575.13 55.9151 1574.64 55.4232 Q1574.15 54.9314 1574.15 54.2346 Q1574.15 53.5377 1574.64 53.0459 Q1575.13 52.554 1575.83 52.554 L1628.37 52.554 Q1629.07 52.554 1629.56 53.0459 Z" fill="#000000" fill-rule="nonzero" fill-opacity="1" /><path clip-path="url(#clip220)" d="M1662.11 27.3046 L1662.11 24.6813 Q1672.19 24.6813 1677.39 19.3117 Q1678.83 19.3117 1679.08 19.6396 Q1679.32 19.9675 1679.32 21.4841 L1679.32 68.5808 Q1679.32 71.0811 1680.55 71.8599 Q1681.78 72.6387 1687.15 72.6387 L1689.81 72.6387 L1689.81 75.2211 Q1686.86 74.9751 1676.21 74.9751 Q1665.55 74.9751 1662.64 75.2211 L1662.64 72.6387 L1665.3 72.6387 Q1670.59 72.6387 1671.86 71.9009 Q1673.13 71.1221 1673.13 68.5808 L1673.13 25.0912 Q1668.75 27.3046 1662.11 27.3046 Z" fill="#000000" fill-rule="nonzero" fill-opacity="1" /><path clip-path="url(#clip220)" d="M1722.53 53.6607 Q1722.61 53.8247 1722.61 54.2346 Q1722.61 54.6444 1722.53 54.8084 L1706.91 95.1009 Q1706.5 96.2076 1705.36 96.2076 Q1704.66 96.2076 1704.17 95.7157 Q1703.68 95.2238 1703.68 94.527 Q1703.68 94.1171 1703.76 93.9532 L1719.17 54.2346 L1703.76 14.5159 Q1703.68 14.352 1703.68 13.9421 Q1703.68 13.2453 1704.17 12.7534 Q1704.66 12.2615 1705.36 12.2615 Q1706.5 12.2615 1706.91 13.3682 L1722.53 53.6607 Z" fill="#000000" fill-rule="nonzero" fill-opacity="1" /><polyline clip-path="url(#clip222)" style="stroke:#ff0000; stroke-linecap:round; stroke-linejoin:round; stroke-width:4; stroke-opacity:1; fill:none" points="248.062,1447.87 280.497,1447.87 312.931,1447.87 345.366,1447.87 377.801,1447.87 410.236,1447.87 442.671,1447.87 475.105,1447.87 507.54,1447.87 539.975,1447.87 572.41,1447.87 604.845,1447.87 637.279,1447.87 669.714,1447.87 702.149,1447.87 734.584,1447.87 767.019,1447.87 799.453,1447.87 831.888,1447.87 864.323,1447.87 896.758,1447.87 929.193,1447.87 961.627,1447.87 994.062,1447.87 1026.5,162.047 1058.93,162.047 1091.37,162.047 1123.8,162.047 1156.24,162.047 1188.67,162.047 1221.11,162.047 1253.54,162.047 1285.98,162.047 1318.41,162.047 1350.85,162.047 1383.28,162.047 1415.71,162.047 1448.15,162.047 1480.58,162.047 1513.02,162.047 1545.45,1447.87 1577.89,1447.87 1610.32,1447.87 1642.76,1447.87 1675.19,1447.87 1707.63,1447.87 1740.06,1447.87 1772.5,1447.87 1804.93,1447.87 1837.37,1447.87 1869.8,1447.87 1902.24,1447.87 1934.67,1447.87 1967.11,1447.87 1999.54,1447.87 2031.98,1447.87 2064.41,1447.87 2096.85,1447.87 2129.28,1447.87 2161.71,1447.87 2194.15,1447.87 2226.58,1447.87 2259.02,1447.87 2291.45,1447.87 "/>
<polyline clip-path="url(#clip222)" style="stroke:#e3001c; stroke-linecap:round; stroke-linejoin:round; stroke-width:4; stroke-opacity:1; fill:none" points="248.062,1126.42 280.497,1126.42 312.931,1126.42 345.366,1126.42 377.801,1126.42 410.236,1126.42 442.671,1126.42 475.105,1126.42 507.54,1126.42 539.975,1126.42 572.41,1126.42 604.845,1126.42 637.279,1126.42 669.714,1126.42 702.149,1126.42 734.584,1126.42 767.019,1126.42 799.453,1126.42 831.888,1126.42 864.323,1126.42 896.758,1126.42 929.193,1126.42 961.627,1126.42 994.062,1126.42 1026.5,1126.42 1058.93,1126.42 1091.37,1126.42 1123.8,1126.42 1156.24,1126.42 1188.67,1126.42 1221.11,1126.42 1253.54,1126.42 1285.98,1126.42 1318.41,1126.42 1350.85,1126.42 1383.28,1126.42 1415.71,1126.42 1448.15,1126.42 1480.58,1126.42 1513.02,1126.42 1545.45,1126.42 1577.89,1126.42 1610.32,1126.42 1642.76,1126.42 1675.19,1126.42 1707.63,1126.42 1740.06,1126.42 1772.5,1126.42 1804.93,1126.42 1837.37,1126.42 1869.8,1126.42 1902.24,1126.42 1934.67,1126.42 1967.11,1126.42 1999.54,1126.42 2031.98,1126.42 2064.41,1126.42 2096.85,1126.42 2129.28,1126.42 2161.71,1126.42 2194.15,1126.42 2226.58,1126.42 2259.02,1126.42 2291.45,1126.42 "/>
<polyline clip-path="url(#clip222)" style="stroke:#c60039; stroke-linecap:round; stroke-linejoin:round; stroke-width:4; stroke-opacity:1; fill:none" points="248.062,1447.85 280.497,1447.77 312.931,1447.6 345.366,1447.21 377.801,1444.72 410.236,1413.2 442.671,1316.28 475.105,1141.38 507.54,964.208 539.975,851.807 572.41,814.087 604.845,821.974 637.279,846.682 669.714,877.924 702.149,910.882 734.584,941.961 767.019,971.503 799.453,1000.8 831.888,1028.24 864.323,1052.67 896.758,1074.9 929.193,1095.93 961.627,1115.53 994.062,1132.94 1026.5,1147.86 1058.93,1160.51 1091.37,1171.27 1123.8,1180.36 1156.24,1187.78 1188.67,1193.39 1221.11,1197.12 1253.54,1198.96 1285.98,1198.96 1318.41,1197.11 1350.85,1193.38 1383.28,1187.75 1415.71,1180.31 1448.15,1171.19 1480.58,1160.42 1513.02,1147.77 1545.45,1132.88 1577.89,1115.49 1610.32,1095.9 1642.76,1074.88 1675.19,1052.69 1707.63,1028.35 1740.06,1001.01 1772.5,971.819 1804.93,942.384 1837.37,911.359 1869.8,878.352 1902.24,846.924 1934.67,821.866 1967.11,813.716 1999.54,851.222 2031.98,963.542 2064.41,1141.29 2096.85,1316.44 2129.28,1413.2 2161.71,1444.72 2194.15,1447.21 2226.58,1447.6 2259.02,1447.77 2291.45,1447.85 "/>
<polyline clip-path="url(#clip222)" style="stroke:#aa0055; stroke-linecap:round; stroke-linejoin:round; stroke-width:4; stroke-opacity:1; fill:none" points="248.062,1447.87 280.497,1447.87 312.931,1447.87 345.366,1447.84 377.801,1447.72 410.236,1447.43 442.671,1446.47 475.105,1432.33 507.54,1377.56 539.975,1237.2 572.41,1016.03 604.845,791.032 637.279,635.77 669.714,575.935 702.149,593.228 734.584,657.33 767.019,740.888 799.453,825.323 831.888,902.193 864.323,969.59 896.758,1027.26 929.193,1074.68 961.627,1114.63 994.062,1147.5 1026.5,1174.12 1058.93,1195.92 1091.37,1213.35 1123.8,1226.84 1156.24,1237.19 1188.67,1244.78 1221.11,1249.62 1253.54,1251.96 1285.98,1251.95 1318.41,1249.61 1350.85,1244.74 1383.28,1237.14 1415.71,1226.77 1448.15,1213.23 1480.58,1195.76 1513.02,1173.98 1545.45,1147.37 1577.89,1114.53 1610.32,1074.87 1642.76,1027.3 1675.19,969.368 1707.63,902.075 1740.06,825.335 1772.5,741.087 1804.93,658.104 1837.37,594.157 1869.8,576.169 1902.24,635.061 1934.67,790.679 1967.11,1015.82 1999.54,1237.2 2031.98,1377.6 2064.41,1432.33 2096.85,1446.47 2129.28,1447.43 2161.71,1447.72 2194.15,1447.84 2226.58,1447.87 2259.02,1447.87 2291.45,1447.87 "/>
<polyline clip-path="url(#clip222)" style="stroke:#8e0071; stroke-linecap:round; stroke-linejoin:round; stroke-width:4; stroke-opacity:1; fill:none" points="248.062,1447.87 280.497,1447.87 312.931,1447.87 345.366,1447.86 377.801,1447.81 410.236,1447.65 442.671,1447.38 475.105,1446.54 507.54,1434.68 539.975,1386 572.41,1255.63 604.845,1027.98 637.279,764.5 669.714,558.213 702.149,449.059 734.584,437.325 767.019,513.163 799.453,622.282 831.888,755.29 864.323,872.037 896.758,971.458 929.193,1054.25 961.627,1114.5 994.062,1166.16 1026.5,1198.05 1058.93,1229.97 1091.37,1250.05 1123.8,1260.71 1156.24,1273.53 1188.67,1286.16 1221.11,1291.36 1253.54,1291.73 1285.98,1291.81 1318.41,1291.54 1350.85,1286.2 1383.28,1273.3 1415.71,1260.49 1448.15,1249.89 1480.58,1229.38 1513.02,1197.02 1545.45,1166.68 1577.89,1116.51 1610.32,1051.78 1642.76,970.614 1675.19,874.257 1707.63,750.829 1740.06,625.239 1772.5,512.178 1804.93,441.426 1837.37,448.378 1869.8,558.561 1902.24,764.636 1934.67,1027.87 1967.11,1255.87 1999.54,1385.73 2031.98,1434.68 2064.41,1446.54 2096.85,1447.38 2129.28,1447.65 2161.71,1447.81 2194.15,1447.86 2226.58,1447.87 2259.02,1447.87 2291.45,1447.87 "/>
<polyline clip-path="url(#clip222)" style="stroke:#71008e; stroke-linecap:round; stroke-linejoin:round; stroke-width:4; stroke-opacity:1; fill:none" points="248.062,1447.87 280.497,1447.87 312.931,1447.87 345.366,1447.87 377.801,1447.85 410.236,1447.74 442.671,1447.51 475.105,1447.03 507.54,1444.98 539.975,1417.88 572.41,1335.66 604.845,1150.9 637.279,884.465 669.714,621.232 702.149,433.975 734.584,355.86 767.019,382.94 799.453,485.642 831.888,627.179 864.323,779.112 896.758,914.104 929.193,1025.71 961.627,1114.44 994.062,1175.38 1026.5,1221.85 1058.93,1253.88 1091.37,1276.94 1123.8,1294.83 1156.24,1307.27 1188.67,1315.3 1221.11,1320.5 1253.54,1323.35 1285.98,1323.32 1318.41,1320.44 1350.85,1315.25 1383.28,1307.21 1415.71,1294.71 1448.15,1276.75 1480.58,1253.73 1513.02,1221.54 1545.45,1174.63 1577.89,1114.51 1610.32,1025.84 1642.76,914.257 1675.19,777.36 1707.63,624.876 1740.06,484.071 1772.5,385.194 1804.93,358.406 1837.37,433.075 1869.8,623.163 1902.24,885.932 1934.67,1151.14 1967.11,1336.02 1999.54,1417.65 2031.98,1444.98 2064.41,1447.03 2096.85,1447.51 2129.28,1447.74 2161.71,1447.85 2194.15,1447.87 2226.58,1447.87 2259.02,1447.87 2291.45,1447.87 "/>
<polyline clip-path="url(#clip222)" style="stroke:#5500aa; stroke-linecap:round; stroke-linejoin:round; stroke-width:4; stroke-opacity:1; fill:none" points="248.062,1447.87 280.497,1447.87 312.931,1447.87 345.366,1447.87 377.801,1447.84 410.236,1447.74 442.671,1447.51 475.105,1447.09 507.54,1445.76 539.975,1435 572.41,1361.83 604.845,1205.25 637.279,946.255 669.714,671.097 702.149,437.924 734.584,323.655 767.019,318.732 799.453,405.811 831.888,545.861 864.323,708.111 896.758,866.366 929.193,1002.1 961.627,1106.63 994.062,1186.78 1026.5,1237.21 1058.93,1274.8 1091.37,1303.13 1123.8,1318.84 1156.24,1328.37 1188.67,1337.53 1221.11,1345.81 1253.54,1350.44 1285.98,1350.46 1318.41,1345.92 1350.85,1337.84 1383.28,1328.91 1415.71,1319.37 1448.15,1303.21 1480.58,1274.03 1513.02,1236.45 1545.45,1186.45 1577.89,1106.77 1610.32,999.717 1642.76,869.758 1675.19,711.576 1707.63,541.098 1740.06,400.563 1772.5,316.218 1804.93,326.303 1837.37,440.43 1869.8,674.98 1902.24,945.533 1934.67,1205.78 1967.11,1361.91 1999.54,1434.96 2031.98,1445.76 2064.41,1447.09 2096.85,1447.51 2129.28,1447.74 2161.71,1447.84 2194.15,1447.87 2226.58,1447.87 2259.02,1447.87 2291.45,1447.87 "/>
<polyline clip-path="url(#clip222)" style="stroke:#3900c6; stroke-linecap:round; stroke-linejoin:round; stroke-width:4; stroke-opacity:1; fill:none" points="248.062,1447.87 280.497,1447.87 312.931,1447.87 345.366,1447.87 377.801,1447.84 410.236,1447.73 442.671,1447.5 475.105,1447.11 507.54,1445.85 539.975,1435.83 572.41,1372.2 604.845,1234.9 637.279,979.178 669.714,683.628 702.149,447.79 734.584,311.82 767.019,278.413 799.453,359.001 831.888,501.098 864.323,662.264 896.758,823.126 929.193,979.831 961.627,1106.85 994.062,1195.54 1026.5,1255.39 1058.93,1290.98 1091.37,1323.39 1123.8,1338.44 1156.24,1347.75 1188.67,1357.13 1221.11,1363.77 1253.54,1366.58 1285.98,1366.8 1318.41,1364.41 1350.85,1358.01 1383.28,1348.43 1415.71,1339.15 1448.15,1324.76 1480.58,1291.99 1513.02,1251.28 1545.45,1196.16 1577.89,1105.76 1610.32,980.564 1642.76,831.994 1675.19,663.996 1707.63,491.223 1740.06,354.265 1772.5,284.906 1804.93,313.271 1837.37,447.718 1869.8,683.574 1902.24,980.276 1934.67,1234.58 1967.11,1371.76 1999.54,1435.84 2031.98,1445.84 2064.41,1447.1 2096.85,1447.5 2129.28,1447.73 2161.71,1447.84 2194.15,1447.87 2226.58,1447.87 2259.02,1447.87 2291.45,1447.87 "/>
<polyline clip-path="url(#clip222)" style="stroke:#1c00e3; stroke-linecap:round; stroke-linejoin:round; stroke-width:4; stroke-opacity:1; fill:none" points="248.062,1447.87 280.497,1447.87 312.931,1447.87 345.366,1447.87 377.801,1447.83 410.236,1447.71 442.671,1447.47 475.105,1447.09 507.54,1445.92 539.975,1437.21 572.41,1376.9 604.845,1239.73 637.279,994.138 669.714,698.931 702.149,452.514 734.584,296.172 767.019,263.66 799.453,321.192 831.888,460.826 864.323,629.985 896.758,814.514 929.193,975.256 961.627,1103.38 994.062,1195.79 1026.5,1259.01 1058.93,1307.26 1091.37,1341.79 1123.8,1355.43 1156.24,1362.47 1188.67,1371.47 1221.11,1378.74 1253.54,1379.44 1285.98,1379.54 1318.41,1379.2 1350.85,1372.28 1383.28,1363.29 1415.71,1356.47 1448.15,1342.36 1480.58,1306.13 1513.02,1260.41 1545.45,1194.05 1577.89,1108.49 1610.32,974.089 1642.76,807.241 1675.19,629.544 1707.63,456.016 1740.06,329.614 1772.5,252.807 1804.93,307.021 1837.37,458.161 1869.8,695.128 1902.24,994.223 1934.67,1239.01 1967.11,1377.71 1999.54,1437.07 2031.98,1445.9 2064.41,1447.08 2096.85,1447.47 2129.28,1447.71 2161.71,1447.83 2194.15,1447.87 2226.58,1447.87 2259.02,1447.87 2291.45,1447.87 "/>
<polyline clip-path="url(#clip222)" style="stroke:#0000ff; stroke-linecap:round; stroke-linejoin:round; stroke-width:4; stroke-opacity:1; fill:none" points="248.062,1447.87 280.497,1447.87 312.931,1447.87 345.366,1447.87 377.801,1447.84 410.236,1447.73 442.671,1447.56 475.105,1447.26 507.54,1446.23 539.975,1436.71 572.41,1381.86 604.845,1241.15 637.279,994.857 669.714,699.81 702.149,448.349 734.584,290.436 767.019,245.257 799.453,302.253 831.888,435.063 864.323,617.406 896.758,796.187 929.193,973.554 961.627,1099.77 994.062,1200.78 1026.5,1274.81 1058.93,1317.8 1091.37,1352.26 1123.8,1366.55 1156.24,1374.51 1188.67,1384.61 1221.11,1392.39 1253.54,1390.17 1285.98,1390.09 1318.41,1392.27 1350.85,1384.45 1383.28,1374.41 1415.71,1366.5 1448.15,1352.58 1480.58,1317.48 1513.02,1273.46 1545.45,1199.06 1577.89,1099.9 1610.32,969.789 1642.76,793.529 1675.19,611.793 1707.63,436.347 1740.06,304.796 1772.5,252.767 1804.93,285.843 1837.37,449.795 1869.8,706.737 1902.24,996.061 1934.67,1241.76 1967.11,1381.86 1999.54,1436.66 2031.98,1446.22 2064.41,1447.26 2096.85,1447.55 2129.28,1447.73 2161.71,1447.84 2194.15,1447.87 2226.58,1447.87 2259.02,1447.87 2291.45,1447.87 "/>
</svg>
