<?xml version="1.0" encoding="utf-8"?>
<svg xmlns="http://www.w3.org/2000/svg" xmlns:xlink="http://www.w3.org/1999/xlink" width="600" height="400" viewBox="0 0 2400 1600">
<defs>
  <clipPath id="clip780">
    <rect x="0" y="0" width="2400" height="1600"/>
  </clipPath>
</defs>
<path clip-path="url(#clip780)" d="
M0 1600 L2400 1600 L2400 0 L0 0  Z
  " fill="#ffffff" fill-rule="evenodd" fill-opacity="1"/>
<defs>
  <clipPath id="clip781">
    <rect x="480" y="0" width="1681" height="1600"/>
  </clipPath>
</defs>
<path clip-path="url(#clip780)" d="
M147.478 1486.45 L2352.76 1486.45 L2352.76 123.472 L147.478 123.472  Z
  " fill="#ffffff" fill-rule="evenodd" fill-opacity="1"/>
<defs>
  <clipPath id="clip782">
    <rect x="147" y="123" width="2206" height="1364"/>
  </clipPath>
</defs>
<polyline clip-path="url(#clip782)" style="stroke:#000000; stroke-linecap:butt; stroke-linejoin:round; stroke-width:2; stroke-opacity:0.1; fill:none" points="
  492.801,1486.45 492.801,123.472 
  "/>
<polyline clip-path="url(#clip782)" style="stroke:#000000; stroke-linecap:butt; stroke-linejoin:round; stroke-width:2; stroke-opacity:0.1; fill:none" points="
  874.422,1486.45 874.422,123.472 
  "/>
<polyline clip-path="url(#clip782)" style="stroke:#000000; stroke-linecap:butt; stroke-linejoin:round; stroke-width:2; stroke-opacity:0.1; fill:none" points="
  1256.04,1486.45 1256.04,123.472 
  "/>
<polyline clip-path="url(#clip782)" style="stroke:#000000; stroke-linecap:butt; stroke-linejoin:round; stroke-width:2; stroke-opacity:0.1; fill:none" points="
  1637.66,1486.45 1637.66,123.472 
  "/>
<polyline clip-path="url(#clip782)" style="stroke:#000000; stroke-linecap:butt; stroke-linejoin:round; stroke-width:2; stroke-opacity:0.1; fill:none" points="
  2019.28,1486.45 2019.28,123.472 
  "/>
<polyline clip-path="url(#clip780)" style="stroke:#000000; stroke-linecap:butt; stroke-linejoin:round; stroke-width:4; stroke-opacity:1; fill:none" points="
  147.478,1486.45 2352.76,1486.45 
  "/>
<polyline clip-path="url(#clip780)" style="stroke:#000000; stroke-linecap:butt; stroke-linejoin:round; stroke-width:4; stroke-opacity:1; fill:none" points="
  492.801,1486.45 492.801,1467.55 
  "/>
<polyline clip-path="url(#clip780)" style="stroke:#000000; stroke-linecap:butt; stroke-linejoin:round; stroke-width:4; stroke-opacity:1; fill:none" points="
  874.422,1486.45 874.422,1467.55 
  "/>
<polyline clip-path="url(#clip780)" style="stroke:#000000; stroke-linecap:butt; stroke-linejoin:round; stroke-width:4; stroke-opacity:1; fill:none" points="
  1256.04,1486.45 1256.04,1467.55 
  "/>
<polyline clip-path="url(#clip780)" style="stroke:#000000; stroke-linecap:butt; stroke-linejoin:round; stroke-width:4; stroke-opacity:1; fill:none" points="
  1637.66,1486.45 1637.66,1467.55 
  "/>
<polyline clip-path="url(#clip780)" style="stroke:#000000; stroke-linecap:butt; stroke-linejoin:round; stroke-width:4; stroke-opacity:1; fill:none" points="
  2019.28,1486.45 2019.28,1467.55 
  "/>
<path clip-path="url(#clip780)" d="M462.744 1532.02 L492.419 1532.02 L492.419 1535.95 L462.744 1535.95 L462.744 1532.02 Z" fill="#000000" fill-rule="evenodd" fill-opacity="1" /><path clip-path="url(#clip780)" d="M506.54 1544.91 L522.859 1544.91 L522.859 1548.85 L500.915 1548.85 L500.915 1544.91 Q503.577 1542.16 508.16 1537.53 Q512.767 1532.88 513.947 1531.53 Q516.192 1529.01 517.072 1527.27 Q517.975 1525.51 517.975 1523.82 Q517.975 1521.07 516.03 1519.33 Q514.109 1517.6 511.007 1517.6 Q508.808 1517.6 506.355 1518.36 Q503.924 1519.13 501.146 1520.68 L501.146 1515.95 Q503.97 1514.82 506.424 1514.24 Q508.878 1513.66 510.915 1513.66 Q516.285 1513.66 519.479 1516.35 Q522.674 1519.03 522.674 1523.52 Q522.674 1525.65 521.864 1527.57 Q521.077 1529.47 518.97 1532.07 Q518.392 1532.74 515.29 1535.95 Q512.188 1539.15 506.54 1544.91 Z" fill="#000000" fill-rule="evenodd" fill-opacity="1" /><path clip-path="url(#clip780)" d="M844.179 1532.02 L873.855 1532.02 L873.855 1535.95 L844.179 1535.95 L844.179 1532.02 Z" fill="#000000" fill-rule="evenodd" fill-opacity="1" /><path clip-path="url(#clip780)" d="M884.758 1544.91 L892.397 1544.91 L892.397 1518.55 L884.086 1520.21 L884.086 1515.95 L892.35 1514.29 L897.026 1514.29 L897.026 1544.91 L904.665 1544.91 L904.665 1548.85 L884.758 1548.85 L884.758 1544.91 Z" fill="#000000" fill-rule="evenodd" fill-opacity="1" /><path clip-path="url(#clip780)" d="M1256.04 1517.37 Q1252.43 1517.37 1250.6 1520.93 Q1248.8 1524.47 1248.8 1531.6 Q1248.8 1538.71 1250.6 1542.27 Q1252.43 1545.82 1256.04 1545.82 Q1259.68 1545.82 1261.48 1542.27 Q1263.31 1538.71 1263.31 1531.6 Q1263.31 1524.47 1261.48 1520.93 Q1259.68 1517.37 1256.04 1517.37 M1256.04 1513.66 Q1261.85 1513.66 1264.91 1518.27 Q1267.99 1522.85 1267.99 1531.6 Q1267.99 1540.33 1264.91 1544.94 Q1261.85 1549.52 1256.04 1549.52 Q1250.23 1549.52 1247.15 1544.94 Q1244.1 1540.33 1244.1 1531.6 Q1244.1 1522.85 1247.15 1518.27 Q1250.23 1513.66 1256.04 1513.66 Z" fill="#000000" fill-rule="evenodd" fill-opacity="1" /><path clip-path="url(#clip780)" d="M1628.05 1544.91 L1635.68 1544.91 L1635.68 1518.55 L1627.37 1520.21 L1627.37 1515.95 L1635.64 1514.29 L1640.31 1514.29 L1640.31 1544.91 L1647.95 1544.91 L1647.95 1548.85 L1628.05 1548.85 L1628.05 1544.91 Z" fill="#000000" fill-rule="evenodd" fill-opacity="1" /><path clip-path="url(#clip780)" d="M2013.94 1544.91 L2030.26 1544.91 L2030.26 1548.85 L2008.31 1548.85 L2008.31 1544.91 Q2010.97 1542.16 2015.56 1537.53 Q2020.16 1532.88 2021.34 1531.53 Q2023.59 1529.01 2024.47 1527.27 Q2025.37 1525.51 2025.37 1523.82 Q2025.37 1521.07 2023.43 1519.33 Q2021.51 1517.6 2018.4 1517.6 Q2016.21 1517.6 2013.75 1518.36 Q2011.32 1519.13 2008.54 1520.68 L2008.54 1515.95 Q2011.37 1514.82 2013.82 1514.24 Q2016.28 1513.66 2018.31 1513.66 Q2023.68 1513.66 2026.88 1516.35 Q2030.07 1519.03 2030.07 1523.52 Q2030.07 1525.65 2029.26 1527.57 Q2028.47 1529.47 2026.37 1532.07 Q2025.79 1532.74 2022.69 1535.95 Q2019.59 1539.15 2013.94 1544.91 Z" fill="#000000" fill-rule="evenodd" fill-opacity="1" /><polyline clip-path="url(#clip782)" style="stroke:#000000; stroke-linecap:butt; stroke-linejoin:round; stroke-width:2; stroke-opacity:0.1; fill:none" points="
  147.478,1452.26 2352.76,1452.26 
  "/>
<polyline clip-path="url(#clip782)" style="stroke:#000000; stroke-linecap:butt; stroke-linejoin:round; stroke-width:2; stroke-opacity:0.1; fill:none" points="
  147.478,1183.39 2352.76,1183.39 
  "/>
<polyline clip-path="url(#clip782)" style="stroke:#000000; stroke-linecap:butt; stroke-linejoin:round; stroke-width:2; stroke-opacity:0.1; fill:none" points="
  147.478,914.521 2352.76,914.521 
  "/>
<polyline clip-path="url(#clip782)" style="stroke:#000000; stroke-linecap:butt; stroke-linejoin:round; stroke-width:2; stroke-opacity:0.1; fill:none" points="
  147.478,645.65 2352.76,645.65 
  "/>
<polyline clip-path="url(#clip782)" style="stroke:#000000; stroke-linecap:butt; stroke-linejoin:round; stroke-width:2; stroke-opacity:0.1; fill:none" points="
  147.478,376.779 2352.76,376.779 
  "/>
<polyline clip-path="url(#clip780)" style="stroke:#000000; stroke-linecap:butt; stroke-linejoin:round; stroke-width:4; stroke-opacity:1; fill:none" points="
  147.478,1486.45 147.478,123.472 
  "/>
<polyline clip-path="url(#clip780)" style="stroke:#000000; stroke-linecap:butt; stroke-linejoin:round; stroke-width:4; stroke-opacity:1; fill:none" points="
  147.478,1452.26 166.376,1452.26 
  "/>
<polyline clip-path="url(#clip780)" style="stroke:#000000; stroke-linecap:butt; stroke-linejoin:round; stroke-width:4; stroke-opacity:1; fill:none" points="
  147.478,1183.39 166.376,1183.39 
  "/>
<polyline clip-path="url(#clip780)" style="stroke:#000000; stroke-linecap:butt; stroke-linejoin:round; stroke-width:4; stroke-opacity:1; fill:none" points="
  147.478,914.521 166.376,914.521 
  "/>
<polyline clip-path="url(#clip780)" style="stroke:#000000; stroke-linecap:butt; stroke-linejoin:round; stroke-width:4; stroke-opacity:1; fill:none" points="
  147.478,645.65 166.376,645.65 
  "/>
<polyline clip-path="url(#clip780)" style="stroke:#000000; stroke-linecap:butt; stroke-linejoin:round; stroke-width:4; stroke-opacity:1; fill:none" points="
  147.478,376.779 166.376,376.779 
  "/>
<path clip-path="url(#clip780)" d="M51.3625 1452.71 L81.0383 1452.71 L81.0383 1456.65 L51.3625 1456.65 L51.3625 1452.71 Z" fill="#000000" fill-rule="evenodd" fill-opacity="1" /><path clip-path="url(#clip780)" d="M95.1586 1465.61 L111.478 1465.61 L111.478 1469.54 L89.5336 1469.54 L89.5336 1465.61 Q92.1956 1462.85 96.7789 1458.22 Q101.385 1453.57 102.566 1452.23 Q104.811 1449.71 105.691 1447.97 Q106.594 1446.21 106.594 1444.52 Q106.594 1441.77 104.649 1440.03 Q102.728 1438.29 99.6261 1438.29 Q97.4271 1438.29 94.9734 1439.06 Q92.5428 1439.82 89.7651 1441.37 L89.7651 1436.65 Q92.5891 1435.52 95.0428 1434.94 Q97.4965 1434.36 99.5335 1434.36 Q104.904 1434.36 108.098 1437.04 Q111.293 1439.73 111.293 1444.22 Q111.293 1446.35 110.483 1448.27 Q109.696 1450.17 107.589 1452.76 Q107.01 1453.43 103.909 1456.65 Q100.807 1459.84 95.1586 1465.61 Z" fill="#000000" fill-rule="evenodd" fill-opacity="1" /><path clip-path="url(#clip780)" d="M50.9921 1183.84 L80.6679 1183.84 L80.6679 1187.78 L50.9921 1187.78 L50.9921 1183.84 Z" fill="#000000" fill-rule="evenodd" fill-opacity="1" /><path clip-path="url(#clip780)" d="M91.5706 1196.74 L99.2095 1196.74 L99.2095 1170.37 L90.8993 1172.04 L90.8993 1167.78 L99.1632 1166.11 L103.839 1166.11 L103.839 1196.74 L111.478 1196.74 L111.478 1200.67 L91.5706 1200.67 L91.5706 1196.74 Z" fill="#000000" fill-rule="evenodd" fill-opacity="1" /><path clip-path="url(#clip780)" d="M99.5335 900.319 Q95.9224 900.319 94.0937 903.884 Q92.2882 907.426 92.2882 914.555 Q92.2882 921.662 94.0937 925.227 Q95.9224 928.768 99.5335 928.768 Q103.168 928.768 104.973 925.227 Q106.802 921.662 106.802 914.555 Q106.802 907.426 104.973 903.884 Q103.168 900.319 99.5335 900.319 M99.5335 896.616 Q105.344 896.616 108.399 901.222 Q111.478 905.806 111.478 914.555 Q111.478 923.282 108.399 927.889 Q105.344 932.472 99.5335 932.472 Q93.7234 932.472 90.6447 927.889 Q87.5892 923.282 87.5892 914.555 Q87.5892 905.806 90.6447 901.222 Q93.7234 896.616 99.5335 896.616 Z" fill="#000000" fill-rule="evenodd" fill-opacity="1" /><path clip-path="url(#clip780)" d="M91.5706 658.995 L99.2095 658.995 L99.2095 632.629 L90.8993 634.296 L90.8993 630.036 L99.1632 628.37 L103.839 628.37 L103.839 658.995 L111.478 658.995 L111.478 662.93 L91.5706 662.93 L91.5706 658.995 Z" fill="#000000" fill-rule="evenodd" fill-opacity="1" /><path clip-path="url(#clip780)" d="M95.1586 390.123 L111.478 390.123 L111.478 394.059 L89.5336 394.059 L89.5336 390.123 Q92.1956 387.369 96.7789 382.739 Q101.385 378.086 102.566 376.744 Q104.811 374.221 105.691 372.485 Q106.594 370.725 106.594 369.036 Q106.594 366.281 104.649 364.545 Q102.728 362.809 99.6261 362.809 Q97.4271 362.809 94.9734 363.573 Q92.5428 364.337 89.7651 365.887 L89.7651 361.165 Q92.5891 360.031 95.0428 359.452 Q97.4965 358.874 99.5335 358.874 Q104.904 358.874 108.098 361.559 Q111.293 364.244 111.293 368.735 Q111.293 370.864 110.483 372.786 Q109.696 374.684 107.589 377.276 Q107.01 377.948 103.909 381.165 Q100.807 384.36 95.1586 390.123 Z" fill="#000000" fill-rule="evenodd" fill-opacity="1" /><path clip-path="url(#clip780)" d="M1270.57 54.8446 Q1269.5 60.1322 1268.07 63.1654 Q1265.77 67.7972 1261.84 67.7972 Q1259.05 67.7972 1256.92 66.1166 Q1254.83 64.4361 1254.29 61.6488 Q1253.23 62.9195 1252.45 63.6573 Q1251.71 64.3951 1250.24 65.5428 Q1248.8 66.6495 1247 67.2233 Q1245.19 67.7972 1243.15 67.7972 Q1238.14 67.7972 1234.99 65.1739 Q1230.73 82.3484 1230.36 83.2092 Q1229.17 84.9717 1227.45 84.9717 Q1226.38 84.9717 1225.73 84.3159 Q1225.07 83.701 1225.07 82.7173 Q1225.11 82.3894 1225.36 81.3646 L1237.41 32.7923 Q1237.73 31.4807 1238.55 30.7429 Q1239.42 29.9641 1239.91 29.8821 Q1240.4 29.7591 1240.77 29.7591 Q1241.87 29.7591 1242.53 30.374 Q1243.23 30.9478 1243.23 32.0136 Q1243.23 32.1775 1242.98 33.1203 Q1242.78 34.022 1242.45 35.4157 Q1242.12 36.7683 1241.96 37.3831 L1238.43 51.4835 Q1237.24 56.3202 1237.24 58.6156 Q1237.24 62.0997 1238.8 64.0262 Q1240.4 65.9117 1243.47 65.9117 Q1245.4 65.9117 1247.2 65.1329 Q1249.01 64.3131 1250.24 63.2064 Q1251.47 62.0997 1252.45 60.911 Q1253.43 59.6813 1253.88 58.9025 Q1254.34 58.0827 1254.38 57.8778 L1256.55 49.311 L1260.52 33.6121 Q1260.77 32.6284 1261.22 31.9726 Q1261.71 31.2757 1262.29 31.0298 Q1262.86 30.7839 1263.19 30.7429 Q1263.52 30.6609 1263.8 30.6609 Q1264.83 30.6609 1265.53 31.2757 Q1266.22 31.8906 1266.22 32.9563 Q1266.22 33.1613 1265.98 34.145 Q1265.77 35.0877 1265.44 36.4814 Q1265.12 37.834 1264.95 38.5718 Q1263.64 43.7365 1263.52 44.2693 L1261.18 53.328 Q1261.06 53.8608 1260.65 55.5824 Q1260.28 57.3039 1260.07 58.2057 Q1259.87 59.0665 1259.66 60.2552 Q1259.5 61.4029 1259.5 62.0587 Q1259.5 65.9117 1262.04 65.9117 Q1263.03 65.9117 1263.89 65.3378 Q1264.75 64.723 1265.32 63.8622 Q1265.94 63.0014 1266.51 61.5258 Q1267.12 60.0092 1267.49 58.7795 Q1267.86 57.5089 1268.39 55.5414 Q1268.6 54.5986 1268.8 54.3117 Q1269.01 54.0248 1269.58 54.0248 Q1270.57 54.0248 1270.57 54.8446 Z" fill="#000000" fill-rule="evenodd" fill-opacity="1" /><circle clip-path="url(#clip782)" cx="2290.34" cy="1185.57" r="14" fill="#009af9" fill-rule="evenodd" fill-opacity="0.25" stroke="#000000" stroke-opacity="0.25" stroke-width="3.2"/>
<circle clip-path="url(#clip782)" cx="1247.37" cy="385.917" r="14" fill="#009af9" fill-rule="evenodd" fill-opacity="0.25" stroke="#000000" stroke-opacity="0.25" stroke-width="3.2"/>
<circle clip-path="url(#clip782)" cx="1159.41" cy="477.518" r="14" fill="#009af9" fill-rule="evenodd" fill-opacity="0.25" stroke="#000000" stroke-opacity="0.25" stroke-width="3.2"/>
<circle clip-path="url(#clip782)" cx="741.527" cy="1276.58" r="14" fill="#009af9" fill-rule="evenodd" fill-opacity="0.25" stroke="#000000" stroke-opacity="0.25" stroke-width="3.2"/>
<circle clip-path="url(#clip782)" cx="603.748" cy="1266.53" r="14" fill="#009af9" fill-rule="evenodd" fill-opacity="0.25" stroke="#000000" stroke-opacity="0.25" stroke-width="3.2"/>
<circle clip-path="url(#clip782)" cx="1067.95" cy="345.025" r="14" fill="#009af9" fill-rule="evenodd" fill-opacity="0.25" stroke="#000000" stroke-opacity="0.25" stroke-width="3.2"/>
<circle clip-path="url(#clip782)" cx="1743.84" cy="1314.97" r="14" fill="#009af9" fill-rule="evenodd" fill-opacity="0.25" stroke="#000000" stroke-opacity="0.25" stroke-width="3.2"/>
<circle clip-path="url(#clip782)" cx="2011.13" cy="1111.21" r="14" fill="#009af9" fill-rule="evenodd" fill-opacity="0.25" stroke="#000000" stroke-opacity="0.25" stroke-width="3.2"/>
<circle clip-path="url(#clip782)" cx="1256.65" cy="625.268" r="14" fill="#009af9" fill-rule="evenodd" fill-opacity="0.25" stroke="#000000" stroke-opacity="0.25" stroke-width="3.2"/>
<circle clip-path="url(#clip782)" cx="2198.31" cy="1169.88" r="14" fill="#009af9" fill-rule="evenodd" fill-opacity="0.25" stroke="#000000" stroke-opacity="0.25" stroke-width="3.2"/>
<circle clip-path="url(#clip782)" cx="931.268" cy="1183.7" r="14" fill="#009af9" fill-rule="evenodd" fill-opacity="0.25" stroke="#000000" stroke-opacity="0.25" stroke-width="3.2"/>
<circle clip-path="url(#clip782)" cx="1807.24" cy="1179.64" r="14" fill="#009af9" fill-rule="evenodd" fill-opacity="0.25" stroke="#000000" stroke-opacity="0.25" stroke-width="3.2"/>
<circle clip-path="url(#clip782)" cx="708.087" cy="1129.78" r="14" fill="#009af9" fill-rule="evenodd" fill-opacity="0.25" stroke="#000000" stroke-opacity="0.25" stroke-width="3.2"/>
<circle clip-path="url(#clip782)" cx="2001.64" cy="1333.24" r="14" fill="#009af9" fill-rule="evenodd" fill-opacity="0.25" stroke="#000000" stroke-opacity="0.25" stroke-width="3.2"/>
<circle clip-path="url(#clip782)" cx="1962.87" cy="1102.7" r="14" fill="#009af9" fill-rule="evenodd" fill-opacity="0.25" stroke="#000000" stroke-opacity="0.25" stroke-width="3.2"/>
<circle clip-path="url(#clip782)" cx="981.385" cy="205.576" r="14" fill="#009af9" fill-rule="evenodd" fill-opacity="0.25" stroke="#000000" stroke-opacity="0.25" stroke-width="3.2"/>
<circle clip-path="url(#clip782)" cx="1922.22" cy="1218.05" r="14" fill="#009af9" fill-rule="evenodd" fill-opacity="0.25" stroke="#000000" stroke-opacity="0.25" stroke-width="3.2"/>
<circle clip-path="url(#clip782)" cx="1235.36" cy="618.979" r="14" fill="#009af9" fill-rule="evenodd" fill-opacity="0.25" stroke="#000000" stroke-opacity="0.25" stroke-width="3.2"/>
<circle clip-path="url(#clip782)" cx="1524.69" cy="491.839" r="14" fill="#009af9" fill-rule="evenodd" fill-opacity="0.25" stroke="#000000" stroke-opacity="0.25" stroke-width="3.2"/>
<circle clip-path="url(#clip782)" cx="738.426" cy="1055.7" r="14" fill="#009af9" fill-rule="evenodd" fill-opacity="0.25" stroke="#000000" stroke-opacity="0.25" stroke-width="3.2"/>
<circle clip-path="url(#clip782)" cx="1301.91" cy="500.651" r="14" fill="#009af9" fill-rule="evenodd" fill-opacity="0.25" stroke="#000000" stroke-opacity="0.25" stroke-width="3.2"/>
<circle clip-path="url(#clip782)" cx="1750.55" cy="1236.13" r="14" fill="#009af9" fill-rule="evenodd" fill-opacity="0.25" stroke="#000000" stroke-opacity="0.25" stroke-width="3.2"/>
<circle clip-path="url(#clip782)" cx="1913.82" cy="1071.43" r="14" fill="#009af9" fill-rule="evenodd" fill-opacity="0.25" stroke="#000000" stroke-opacity="0.25" stroke-width="3.2"/>
<circle clip-path="url(#clip782)" cx="1033.23" cy="253.493" r="14" fill="#009af9" fill-rule="evenodd" fill-opacity="0.25" stroke="#000000" stroke-opacity="0.25" stroke-width="3.2"/>
<circle clip-path="url(#clip782)" cx="2198.43" cy="1155.04" r="14" fill="#009af9" fill-rule="evenodd" fill-opacity="0.25" stroke="#000000" stroke-opacity="0.25" stroke-width="3.2"/>
<circle clip-path="url(#clip782)" cx="2125.46" cy="1351.08" r="14" fill="#009af9" fill-rule="evenodd" fill-opacity="0.25" stroke="#000000" stroke-opacity="0.25" stroke-width="3.2"/>
<circle clip-path="url(#clip782)" cx="2074.07" cy="1137.87" r="14" fill="#009af9" fill-rule="evenodd" fill-opacity="0.25" stroke="#000000" stroke-opacity="0.25" stroke-width="3.2"/>
<circle clip-path="url(#clip782)" cx="529.725" cy="1250.21" r="14" fill="#009af9" fill-rule="evenodd" fill-opacity="0.25" stroke="#000000" stroke-opacity="0.25" stroke-width="3.2"/>
<circle clip-path="url(#clip782)" cx="1300.39" cy="432.315" r="14" fill="#009af9" fill-rule="evenodd" fill-opacity="0.25" stroke="#000000" stroke-opacity="0.25" stroke-width="3.2"/>
<circle clip-path="url(#clip782)" cx="1086.59" cy="318.092" r="14" fill="#009af9" fill-rule="evenodd" fill-opacity="0.25" stroke="#000000" stroke-opacity="0.25" stroke-width="3.2"/>
<circle clip-path="url(#clip782)" cx="1616.23" cy="1061.79" r="14" fill="#009af9" fill-rule="evenodd" fill-opacity="0.25" stroke="#000000" stroke-opacity="0.25" stroke-width="3.2"/>
<circle clip-path="url(#clip782)" cx="2017.03" cy="1128.35" r="14" fill="#009af9" fill-rule="evenodd" fill-opacity="0.25" stroke="#000000" stroke-opacity="0.25" stroke-width="3.2"/>
<circle clip-path="url(#clip782)" cx="1816.6" cy="1135.06" r="14" fill="#009af9" fill-rule="evenodd" fill-opacity="0.25" stroke="#000000" stroke-opacity="0.25" stroke-width="3.2"/>
<circle clip-path="url(#clip782)" cx="1904.28" cy="1252.85" r="14" fill="#009af9" fill-rule="evenodd" fill-opacity="0.25" stroke="#000000" stroke-opacity="0.25" stroke-width="3.2"/>
<circle clip-path="url(#clip782)" cx="596.652" cy="1367.1" r="14" fill="#009af9" fill-rule="evenodd" fill-opacity="0.25" stroke="#000000" stroke-opacity="0.25" stroke-width="3.2"/>
<circle clip-path="url(#clip782)" cx="2063.82" cy="1152.89" r="14" fill="#009af9" fill-rule="evenodd" fill-opacity="0.25" stroke="#000000" stroke-opacity="0.25" stroke-width="3.2"/>
<circle clip-path="url(#clip782)" cx="560.984" cy="1097.9" r="14" fill="#009af9" fill-rule="evenodd" fill-opacity="0.25" stroke="#000000" stroke-opacity="0.25" stroke-width="3.2"/>
<circle clip-path="url(#clip782)" cx="2181.13" cy="1236.02" r="14" fill="#009af9" fill-rule="evenodd" fill-opacity="0.25" stroke="#000000" stroke-opacity="0.25" stroke-width="3.2"/>
<circle clip-path="url(#clip782)" cx="1254.32" cy="228.503" r="14" fill="#009af9" fill-rule="evenodd" fill-opacity="0.25" stroke="#000000" stroke-opacity="0.25" stroke-width="3.2"/>
<circle clip-path="url(#clip782)" cx="2033.16" cy="1010.48" r="14" fill="#009af9" fill-rule="evenodd" fill-opacity="0.25" stroke="#000000" stroke-opacity="0.25" stroke-width="3.2"/>
<circle clip-path="url(#clip782)" cx="908.448" cy="1278.99" r="14" fill="#009af9" fill-rule="evenodd" fill-opacity="0.25" stroke="#000000" stroke-opacity="0.25" stroke-width="3.2"/>
<circle clip-path="url(#clip782)" cx="1988.11" cy="1002.84" r="14" fill="#009af9" fill-rule="evenodd" fill-opacity="0.25" stroke="#000000" stroke-opacity="0.25" stroke-width="3.2"/>
<circle clip-path="url(#clip782)" cx="443.537" cy="997.54" r="14" fill="#009af9" fill-rule="evenodd" fill-opacity="0.25" stroke="#000000" stroke-opacity="0.25" stroke-width="3.2"/>
<circle clip-path="url(#clip782)" cx="919.735" cy="188.746" r="14" fill="#009af9" fill-rule="evenodd" fill-opacity="0.25" stroke="#000000" stroke-opacity="0.25" stroke-width="3.2"/>
<circle clip-path="url(#clip782)" cx="1894.07" cy="1177.14" r="14" fill="#009af9" fill-rule="evenodd" fill-opacity="0.25" stroke="#000000" stroke-opacity="0.25" stroke-width="3.2"/>
<circle clip-path="url(#clip782)" cx="407.328" cy="1337.6" r="14" fill="#009af9" fill-rule="evenodd" fill-opacity="0.25" stroke="#000000" stroke-opacity="0.25" stroke-width="3.2"/>
<circle clip-path="url(#clip782)" cx="947.405" cy="186.6" r="14" fill="#009af9" fill-rule="evenodd" fill-opacity="0.25" stroke="#000000" stroke-opacity="0.25" stroke-width="3.2"/>
<circle clip-path="url(#clip782)" cx="1582.97" cy="1094.02" r="14" fill="#009af9" fill-rule="evenodd" fill-opacity="0.25" stroke="#000000" stroke-opacity="0.25" stroke-width="3.2"/>
<circle clip-path="url(#clip782)" cx="1442.87" cy="257.852" r="14" fill="#009af9" fill-rule="evenodd" fill-opacity="0.25" stroke="#000000" stroke-opacity="0.25" stroke-width="3.2"/>
<circle clip-path="url(#clip782)" cx="422.778" cy="1020.4" r="14" fill="#009af9" fill-rule="evenodd" fill-opacity="0.25" stroke="#000000" stroke-opacity="0.25" stroke-width="3.2"/>
<circle clip-path="url(#clip782)" cx="513.259" cy="1160.22" r="14" fill="#009af9" fill-rule="evenodd" fill-opacity="0.25" stroke="#000000" stroke-opacity="0.25" stroke-width="3.2"/>
<circle clip-path="url(#clip782)" cx="1966.07" cy="1189.19" r="14" fill="#009af9" fill-rule="evenodd" fill-opacity="0.25" stroke="#000000" stroke-opacity="0.25" stroke-width="3.2"/>
<circle clip-path="url(#clip782)" cx="1459.78" cy="162.047" r="14" fill="#009af9" fill-rule="evenodd" fill-opacity="0.25" stroke="#000000" stroke-opacity="0.25" stroke-width="3.2"/>
<circle clip-path="url(#clip782)" cx="620.857" cy="1279.13" r="14" fill="#009af9" fill-rule="evenodd" fill-opacity="0.25" stroke="#000000" stroke-opacity="0.25" stroke-width="3.2"/>
<circle clip-path="url(#clip782)" cx="2071.59" cy="1098.65" r="14" fill="#009af9" fill-rule="evenodd" fill-opacity="0.25" stroke="#000000" stroke-opacity="0.25" stroke-width="3.2"/>
<circle clip-path="url(#clip782)" cx="1498.14" cy="307.949" r="14" fill="#009af9" fill-rule="evenodd" fill-opacity="0.25" stroke="#000000" stroke-opacity="0.25" stroke-width="3.2"/>
<circle clip-path="url(#clip782)" cx="1173.52" cy="581.242" r="14" fill="#009af9" fill-rule="evenodd" fill-opacity="0.25" stroke="#000000" stroke-opacity="0.25" stroke-width="3.2"/>
<circle clip-path="url(#clip782)" cx="360.077" cy="1056.21" r="14" fill="#009af9" fill-rule="evenodd" fill-opacity="0.25" stroke="#000000" stroke-opacity="0.25" stroke-width="3.2"/>
<circle clip-path="url(#clip782)" cx="1913.53" cy="1169.15" r="14" fill="#009af9" fill-rule="evenodd" fill-opacity="0.25" stroke="#000000" stroke-opacity="0.25" stroke-width="3.2"/>
<circle clip-path="url(#clip782)" cx="1501.1" cy="424.876" r="14" fill="#009af9" fill-rule="evenodd" fill-opacity="0.25" stroke="#000000" stroke-opacity="0.25" stroke-width="3.2"/>
<circle clip-path="url(#clip782)" cx="511.064" cy="1148.78" r="14" fill="#009af9" fill-rule="evenodd" fill-opacity="0.25" stroke="#000000" stroke-opacity="0.25" stroke-width="3.2"/>
<circle clip-path="url(#clip782)" cx="2150.97" cy="1165.64" r="14" fill="#009af9" fill-rule="evenodd" fill-opacity="0.25" stroke="#000000" stroke-opacity="0.25" stroke-width="3.2"/>
<circle clip-path="url(#clip782)" cx="1442.02" cy="451.455" r="14" fill="#009af9" fill-rule="evenodd" fill-opacity="0.25" stroke="#000000" stroke-opacity="0.25" stroke-width="3.2"/>
<circle clip-path="url(#clip782)" cx="2021.38" cy="1358.93" r="14" fill="#009af9" fill-rule="evenodd" fill-opacity="0.25" stroke="#000000" stroke-opacity="0.25" stroke-width="3.2"/>
<circle clip-path="url(#clip782)" cx="1064.39" cy="474.457" r="14" fill="#009af9" fill-rule="evenodd" fill-opacity="0.25" stroke="#000000" stroke-opacity="0.25" stroke-width="3.2"/>
<circle clip-path="url(#clip782)" cx="2027.82" cy="1005.17" r="14" fill="#009af9" fill-rule="evenodd" fill-opacity="0.25" stroke="#000000" stroke-opacity="0.25" stroke-width="3.2"/>
<circle clip-path="url(#clip782)" cx="640.236" cy="1242.11" r="14" fill="#009af9" fill-rule="evenodd" fill-opacity="0.25" stroke="#000000" stroke-opacity="0.25" stroke-width="3.2"/>
<circle clip-path="url(#clip782)" cx="1223.9" cy="325.53" r="14" fill="#009af9" fill-rule="evenodd" fill-opacity="0.25" stroke="#000000" stroke-opacity="0.25" stroke-width="3.2"/>
<circle clip-path="url(#clip782)" cx="2170.03" cy="1123.74" r="14" fill="#009af9" fill-rule="evenodd" fill-opacity="0.25" stroke="#000000" stroke-opacity="0.25" stroke-width="3.2"/>
<circle clip-path="url(#clip782)" cx="1573.04" cy="1198.42" r="14" fill="#009af9" fill-rule="evenodd" fill-opacity="0.25" stroke="#000000" stroke-opacity="0.25" stroke-width="3.2"/>
<circle clip-path="url(#clip782)" cx="1209.94" cy="394.634" r="14" fill="#009af9" fill-rule="evenodd" fill-opacity="0.25" stroke="#000000" stroke-opacity="0.25" stroke-width="3.2"/>
<circle clip-path="url(#clip782)" cx="570.644" cy="1241.36" r="14" fill="#009af9" fill-rule="evenodd" fill-opacity="0.25" stroke="#000000" stroke-opacity="0.25" stroke-width="3.2"/>
<circle clip-path="url(#clip782)" cx="530.042" cy="1352.23" r="14" fill="#009af9" fill-rule="evenodd" fill-opacity="0.25" stroke="#000000" stroke-opacity="0.25" stroke-width="3.2"/>
<circle clip-path="url(#clip782)" cx="1440.41" cy="291.759" r="14" fill="#009af9" fill-rule="evenodd" fill-opacity="0.25" stroke="#000000" stroke-opacity="0.25" stroke-width="3.2"/>
<circle clip-path="url(#clip782)" cx="499.336" cy="1294.31" r="14" fill="#009af9" fill-rule="evenodd" fill-opacity="0.25" stroke="#000000" stroke-opacity="0.25" stroke-width="3.2"/>
<circle clip-path="url(#clip782)" cx="1742.45" cy="959.823" r="14" fill="#009af9" fill-rule="evenodd" fill-opacity="0.25" stroke="#000000" stroke-opacity="0.25" stroke-width="3.2"/>
<circle clip-path="url(#clip782)" cx="2159.64" cy="1260.81" r="14" fill="#009af9" fill-rule="evenodd" fill-opacity="0.25" stroke="#000000" stroke-opacity="0.25" stroke-width="3.2"/>
<circle clip-path="url(#clip782)" cx="1886.08" cy="1447.87" r="14" fill="#009af9" fill-rule="evenodd" fill-opacity="0.25" stroke="#000000" stroke-opacity="0.25" stroke-width="3.2"/>
<circle clip-path="url(#clip782)" cx="1716.57" cy="1092.97" r="14" fill="#009af9" fill-rule="evenodd" fill-opacity="0.25" stroke="#000000" stroke-opacity="0.25" stroke-width="3.2"/>
<circle clip-path="url(#clip782)" cx="1874.56" cy="935.156" r="14" fill="#009af9" fill-rule="evenodd" fill-opacity="0.25" stroke="#000000" stroke-opacity="0.25" stroke-width="3.2"/>
<circle clip-path="url(#clip782)" cx="955.781" cy="1105.04" r="14" fill="#009af9" fill-rule="evenodd" fill-opacity="0.25" stroke="#000000" stroke-opacity="0.25" stroke-width="3.2"/>
<circle clip-path="url(#clip782)" cx="1441.8" cy="610.922" r="14" fill="#009af9" fill-rule="evenodd" fill-opacity="0.25" stroke="#000000" stroke-opacity="0.25" stroke-width="3.2"/>
<circle clip-path="url(#clip782)" cx="409.262" cy="1170.48" r="14" fill="#009af9" fill-rule="evenodd" fill-opacity="0.25" stroke="#000000" stroke-opacity="0.25" stroke-width="3.2"/>
<circle clip-path="url(#clip782)" cx="1031.16" cy="255.605" r="14" fill="#009af9" fill-rule="evenodd" fill-opacity="0.25" stroke="#000000" stroke-opacity="0.25" stroke-width="3.2"/>
<circle clip-path="url(#clip782)" cx="1296.35" cy="538.98" r="14" fill="#009af9" fill-rule="evenodd" fill-opacity="0.25" stroke="#000000" stroke-opacity="0.25" stroke-width="3.2"/>
<circle clip-path="url(#clip782)" cx="209.891" cy="1079.53" r="14" fill="#009af9" fill-rule="evenodd" fill-opacity="0.25" stroke="#000000" stroke-opacity="0.25" stroke-width="3.2"/>
<circle clip-path="url(#clip782)" cx="630.526" cy="1243.58" r="14" fill="#009af9" fill-rule="evenodd" fill-opacity="0.25" stroke="#000000" stroke-opacity="0.25" stroke-width="3.2"/>
<circle clip-path="url(#clip782)" cx="641.925" cy="1293.47" r="14" fill="#009af9" fill-rule="evenodd" fill-opacity="0.25" stroke="#000000" stroke-opacity="0.25" stroke-width="3.2"/>
<circle clip-path="url(#clip782)" cx="2147.33" cy="1295.09" r="14" fill="#009af9" fill-rule="evenodd" fill-opacity="0.25" stroke="#000000" stroke-opacity="0.25" stroke-width="3.2"/>
<circle clip-path="url(#clip782)" cx="325.097" cy="1201.61" r="14" fill="#009af9" fill-rule="evenodd" fill-opacity="0.25" stroke="#000000" stroke-opacity="0.25" stroke-width="3.2"/>
<circle clip-path="url(#clip782)" cx="1825.36" cy="1259.21" r="14" fill="#009af9" fill-rule="evenodd" fill-opacity="0.25" stroke="#000000" stroke-opacity="0.25" stroke-width="3.2"/>
<circle clip-path="url(#clip782)" cx="2156.32" cy="1154.99" r="14" fill="#009af9" fill-rule="evenodd" fill-opacity="0.25" stroke="#000000" stroke-opacity="0.25" stroke-width="3.2"/>
<circle clip-path="url(#clip782)" cx="2279.46" cy="1107.63" r="14" fill="#009af9" fill-rule="evenodd" fill-opacity="0.25" stroke="#000000" stroke-opacity="0.25" stroke-width="3.2"/>
<circle clip-path="url(#clip782)" cx="1893.02" cy="1057.49" r="14" fill="#009af9" fill-rule="evenodd" fill-opacity="0.25" stroke="#000000" stroke-opacity="0.25" stroke-width="3.2"/>
<circle clip-path="url(#clip782)" cx="1245.37" cy="507.427" r="14" fill="#009af9" fill-rule="evenodd" fill-opacity="0.25" stroke="#000000" stroke-opacity="0.25" stroke-width="3.2"/>
<circle clip-path="url(#clip782)" cx="320.923" cy="1164.26" r="14" fill="#009af9" fill-rule="evenodd" fill-opacity="0.25" stroke="#000000" stroke-opacity="0.25" stroke-width="3.2"/>
<circle clip-path="url(#clip782)" cx="1278.78" cy="414.088" r="14" fill="#009af9" fill-rule="evenodd" fill-opacity="0.25" stroke="#000000" stroke-opacity="0.25" stroke-width="3.2"/>
<circle clip-path="url(#clip782)" cx="598.118" cy="1038.55" r="14" fill="#009af9" fill-rule="evenodd" fill-opacity="0.25" stroke="#000000" stroke-opacity="0.25" stroke-width="3.2"/>
<circle clip-path="url(#clip782)" cx="1315.21" cy="386.26" r="14" fill="#009af9" fill-rule="evenodd" fill-opacity="0.25" stroke="#000000" stroke-opacity="0.25" stroke-width="3.2"/>
<circle clip-path="url(#clip782)" cx="571.973" cy="1249.72" r="14" fill="#009af9" fill-rule="evenodd" fill-opacity="0.25" stroke="#000000" stroke-opacity="0.25" stroke-width="3.2"/>
<path clip-path="url(#clip780)" d="
M1986.82 272.585 L2279.25 272.585 L2279.25 168.905 L1986.82 168.905  Z
  " fill="#ffffff" fill-rule="evenodd" fill-opacity="1"/>
<polyline clip-path="url(#clip780)" style="stroke:#000000; stroke-linecap:butt; stroke-linejoin:round; stroke-width:4; stroke-opacity:1; fill:none" points="
  1986.82,272.585 2279.25,272.585 2279.25,168.905 1986.82,168.905 1986.82,272.585 
  "/>
<circle clip-path="url(#clip780)" cx="2082.82" cy="220.745" r="23" fill="#009af9" fill-rule="evenodd" fill-opacity="0.25" stroke="#000000" stroke-opacity="0.25" stroke-width="5.12"/>
<path clip-path="url(#clip780)" d="M2192.66 240.432 Q2190.85 245.062 2189.14 246.474 Q2187.43 247.886 2184.56 247.886 L2181.15 247.886 L2181.15 244.321 L2183.65 244.321 Q2185.41 244.321 2186.39 243.488 Q2187.36 242.654 2188.54 239.552 L2189.3 237.608 L2178.82 212.099 L2183.33 212.099 L2191.43 232.377 L2199.53 212.099 L2204.05 212.099 L2192.66 240.432 Z" fill="#000000" fill-rule="evenodd" fill-opacity="1" /><path clip-path="url(#clip780)" d="M2211.34 234.089 L2218.98 234.089 L2218.98 207.724 L2210.67 209.391 L2210.67 205.131 L2218.93 203.465 L2223.61 203.465 L2223.61 234.089 L2231.25 234.089 L2231.25 238.025 L2211.34 238.025 L2211.34 234.089 Z" fill="#000000" fill-rule="evenodd" fill-opacity="1" /></svg>
