<?xml version="1.0" encoding="utf-8"?>
<svg xmlns="http://www.w3.org/2000/svg" xmlns:xlink="http://www.w3.org/1999/xlink" width="600" height="400" viewBox="0 0 2400 1600">
<defs>
  <clipPath id="clip440">
    <rect x="0" y="0" width="2400" height="1600"/>
  </clipPath>
</defs>
<path clip-path="url(#clip440)" d="
M0 1600 L2400 1600 L2400 0 L0 0  Z
  " fill="#ffffff" fill-rule="evenodd" fill-opacity="1"/>
<defs>
  <clipPath id="clip441">
    <rect x="480" y="0" width="1681" height="1600"/>
  </clipPath>
</defs>
<path clip-path="url(#clip440)" d="
M156.598 1486.45 L2352.76 1486.45 L2352.76 123.472 L156.598 123.472  Z
  " fill="#ffffff" fill-rule="evenodd" fill-opacity="1"/>
<defs>
  <clipPath id="clip442">
    <rect x="156" y="123" width="2197" height="1364"/>
  </clipPath>
</defs>
<polyline clip-path="url(#clip442)" style="stroke:#000000; stroke-linecap:butt; stroke-linejoin:round; stroke-width:2; stroke-opacity:0.1; fill:none" points="
  391.408,1486.45 391.408,123.472 
  "/>
<polyline clip-path="url(#clip442)" style="stroke:#000000; stroke-linecap:butt; stroke-linejoin:round; stroke-width:2; stroke-opacity:0.1; fill:none" points="
  823.042,1486.45 823.042,123.472 
  "/>
<polyline clip-path="url(#clip442)" style="stroke:#000000; stroke-linecap:butt; stroke-linejoin:round; stroke-width:2; stroke-opacity:0.1; fill:none" points="
  1254.68,1486.45 1254.68,123.472 
  "/>
<polyline clip-path="url(#clip442)" style="stroke:#000000; stroke-linecap:butt; stroke-linejoin:round; stroke-width:2; stroke-opacity:0.1; fill:none" points="
  1686.31,1486.45 1686.31,123.472 
  "/>
<polyline clip-path="url(#clip442)" style="stroke:#000000; stroke-linecap:butt; stroke-linejoin:round; stroke-width:2; stroke-opacity:0.1; fill:none" points="
  2117.95,1486.45 2117.95,123.472 
  "/>
<polyline clip-path="url(#clip440)" style="stroke:#000000; stroke-linecap:butt; stroke-linejoin:round; stroke-width:4; stroke-opacity:1; fill:none" points="
  156.598,1486.45 2352.76,1486.45 
  "/>
<polyline clip-path="url(#clip440)" style="stroke:#000000; stroke-linecap:butt; stroke-linejoin:round; stroke-width:4; stroke-opacity:1; fill:none" points="
  391.408,1486.45 391.408,1467.55 
  "/>
<polyline clip-path="url(#clip440)" style="stroke:#000000; stroke-linecap:butt; stroke-linejoin:round; stroke-width:4; stroke-opacity:1; fill:none" points="
  823.042,1486.45 823.042,1467.55 
  "/>
<polyline clip-path="url(#clip440)" style="stroke:#000000; stroke-linecap:butt; stroke-linejoin:round; stroke-width:4; stroke-opacity:1; fill:none" points="
  1254.68,1486.45 1254.68,1467.55 
  "/>
<polyline clip-path="url(#clip440)" style="stroke:#000000; stroke-linecap:butt; stroke-linejoin:round; stroke-width:4; stroke-opacity:1; fill:none" points="
  1686.31,1486.45 1686.31,1467.55 
  "/>
<polyline clip-path="url(#clip440)" style="stroke:#000000; stroke-linecap:butt; stroke-linejoin:round; stroke-width:4; stroke-opacity:1; fill:none" points="
  2117.95,1486.45 2117.95,1467.55 
  "/>
<path clip-path="url(#clip440)" d="M345.47 1532.02 L375.146 1532.02 L375.146 1535.95 L345.47 1535.95 L345.47 1532.02 Z" fill="#000000" fill-rule="evenodd" fill-opacity="1" /><path clip-path="url(#clip440)" d="M386.049 1544.91 L393.688 1544.91 L393.688 1518.55 L385.377 1520.21 L385.377 1515.95 L393.641 1514.29 L398.317 1514.29 L398.317 1544.91 L405.956 1544.91 L405.956 1548.85 L386.049 1548.85 L386.049 1544.91 Z" fill="#000000" fill-rule="evenodd" fill-opacity="1" /><path clip-path="url(#clip440)" d="M425.4 1517.37 Q421.789 1517.37 419.961 1520.93 Q418.155 1524.47 418.155 1531.6 Q418.155 1538.71 419.961 1542.27 Q421.789 1545.82 425.4 1545.82 Q429.035 1545.82 430.84 1542.27 Q432.669 1538.71 432.669 1531.6 Q432.669 1524.47 430.84 1520.93 Q429.035 1517.37 425.4 1517.37 M425.4 1513.66 Q431.211 1513.66 434.266 1518.27 Q437.345 1522.85 437.345 1531.6 Q437.345 1540.33 434.266 1544.94 Q431.211 1549.52 425.4 1549.52 Q419.59 1549.52 416.512 1544.94 Q413.456 1540.33 413.456 1531.6 Q413.456 1522.85 416.512 1518.27 Q419.59 1513.66 425.4 1513.66 Z" fill="#000000" fill-rule="evenodd" fill-opacity="1" /><path clip-path="url(#clip440)" d="M792.684 1532.02 L822.359 1532.02 L822.359 1535.95 L792.684 1535.95 L792.684 1532.02 Z" fill="#000000" fill-rule="evenodd" fill-opacity="1" /><path clip-path="url(#clip440)" d="M832.498 1514.29 L850.855 1514.29 L850.855 1518.22 L836.781 1518.22 L836.781 1526.7 Q837.799 1526.35 838.818 1526.19 Q839.836 1526 840.855 1526 Q846.642 1526 850.021 1529.17 Q853.401 1532.34 853.401 1537.76 Q853.401 1543.34 849.929 1546.44 Q846.457 1549.52 840.137 1549.52 Q837.961 1549.52 835.693 1549.15 Q833.447 1548.78 831.04 1548.04 L831.04 1543.34 Q833.123 1544.47 835.345 1545.03 Q837.568 1545.58 840.045 1545.58 Q844.049 1545.58 846.387 1543.48 Q848.725 1541.37 848.725 1537.76 Q848.725 1534.15 846.387 1532.04 Q844.049 1529.94 840.045 1529.94 Q838.17 1529.94 836.295 1530.35 Q834.443 1530.77 832.498 1531.65 L832.498 1514.29 Z" fill="#000000" fill-rule="evenodd" fill-opacity="1" /><path clip-path="url(#clip440)" d="M1254.68 1517.37 Q1251.07 1517.37 1249.24 1520.93 Q1247.43 1524.47 1247.43 1531.6 Q1247.43 1538.71 1249.24 1542.27 Q1251.07 1545.82 1254.68 1545.82 Q1258.31 1545.82 1260.12 1542.27 Q1261.95 1538.71 1261.95 1531.6 Q1261.95 1524.47 1260.12 1520.93 Q1258.31 1517.37 1254.68 1517.37 M1254.68 1513.66 Q1260.49 1513.66 1263.54 1518.27 Q1266.62 1522.85 1266.62 1531.6 Q1266.62 1540.33 1263.54 1544.94 Q1260.49 1549.52 1254.68 1549.52 Q1248.87 1549.52 1245.79 1544.94 Q1242.73 1540.33 1242.73 1531.6 Q1242.73 1522.85 1245.79 1518.27 Q1248.87 1513.66 1254.68 1513.66 Z" fill="#000000" fill-rule="evenodd" fill-opacity="1" /><path clip-path="url(#clip440)" d="M1676.59 1514.29 L1694.95 1514.29 L1694.95 1518.22 L1680.87 1518.22 L1680.87 1526.7 Q1681.89 1526.35 1682.91 1526.19 Q1683.93 1526 1684.95 1526 Q1690.73 1526 1694.11 1529.17 Q1697.49 1532.34 1697.49 1537.76 Q1697.49 1543.34 1694.02 1546.44 Q1690.55 1549.52 1684.23 1549.52 Q1682.05 1549.52 1679.78 1549.15 Q1677.54 1548.78 1675.13 1548.04 L1675.13 1543.34 Q1677.21 1544.47 1679.44 1545.03 Q1681.66 1545.58 1684.14 1545.58 Q1688.14 1545.58 1690.48 1543.48 Q1692.82 1541.37 1692.82 1537.76 Q1692.82 1534.15 1690.48 1532.04 Q1688.14 1529.94 1684.14 1529.94 Q1682.26 1529.94 1680.39 1530.35 Q1678.53 1530.77 1676.59 1531.65 L1676.59 1514.29 Z" fill="#000000" fill-rule="evenodd" fill-opacity="1" /><path clip-path="url(#clip440)" d="M2092.63 1544.91 L2100.27 1544.91 L2100.27 1518.55 L2091.96 1520.21 L2091.96 1515.95 L2100.23 1514.29 L2104.9 1514.29 L2104.9 1544.91 L2112.54 1544.91 L2112.54 1548.85 L2092.63 1548.85 L2092.63 1544.91 Z" fill="#000000" fill-rule="evenodd" fill-opacity="1" /><path clip-path="url(#clip440)" d="M2131.99 1517.37 Q2128.37 1517.37 2126.55 1520.93 Q2124.74 1524.47 2124.74 1531.6 Q2124.74 1538.71 2126.55 1542.27 Q2128.37 1545.82 2131.99 1545.82 Q2135.62 1545.82 2137.43 1542.27 Q2139.25 1538.71 2139.25 1531.6 Q2139.25 1524.47 2137.43 1520.93 Q2135.62 1517.37 2131.99 1517.37 M2131.99 1513.66 Q2137.8 1513.66 2140.85 1518.27 Q2143.93 1522.85 2143.93 1531.6 Q2143.93 1540.33 2140.85 1544.94 Q2137.8 1549.52 2131.99 1549.52 Q2126.18 1549.52 2123.1 1544.94 Q2120.04 1540.33 2120.04 1531.6 Q2120.04 1522.85 2123.1 1518.27 Q2126.18 1513.66 2131.99 1513.66 Z" fill="#000000" fill-rule="evenodd" fill-opacity="1" /><polyline clip-path="url(#clip442)" style="stroke:#000000; stroke-linecap:butt; stroke-linejoin:round; stroke-width:2; stroke-opacity:0.1; fill:none" points="
  156.598,1447.87 2352.76,1447.87 
  "/>
<polyline clip-path="url(#clip442)" style="stroke:#000000; stroke-linecap:butt; stroke-linejoin:round; stroke-width:2; stroke-opacity:0.1; fill:none" points="
  156.598,1150.46 2352.76,1150.46 
  "/>
<polyline clip-path="url(#clip442)" style="stroke:#000000; stroke-linecap:butt; stroke-linejoin:round; stroke-width:2; stroke-opacity:0.1; fill:none" points="
  156.598,853.041 2352.76,853.041 
  "/>
<polyline clip-path="url(#clip442)" style="stroke:#000000; stroke-linecap:butt; stroke-linejoin:round; stroke-width:2; stroke-opacity:0.1; fill:none" points="
  156.598,555.625 2352.76,555.625 
  "/>
<polyline clip-path="url(#clip442)" style="stroke:#000000; stroke-linecap:butt; stroke-linejoin:round; stroke-width:2; stroke-opacity:0.1; fill:none" points="
  156.598,258.209 2352.76,258.209 
  "/>
<polyline clip-path="url(#clip440)" style="stroke:#000000; stroke-linecap:butt; stroke-linejoin:round; stroke-width:4; stroke-opacity:1; fill:none" points="
  156.598,1486.45 156.598,123.472 
  "/>
<polyline clip-path="url(#clip440)" style="stroke:#000000; stroke-linecap:butt; stroke-linejoin:round; stroke-width:4; stroke-opacity:1; fill:none" points="
  156.598,1447.87 175.496,1447.87 
  "/>
<polyline clip-path="url(#clip440)" style="stroke:#000000; stroke-linecap:butt; stroke-linejoin:round; stroke-width:4; stroke-opacity:1; fill:none" points="
  156.598,1150.46 175.496,1150.46 
  "/>
<polyline clip-path="url(#clip440)" style="stroke:#000000; stroke-linecap:butt; stroke-linejoin:round; stroke-width:4; stroke-opacity:1; fill:none" points="
  156.598,853.041 175.496,853.041 
  "/>
<polyline clip-path="url(#clip440)" style="stroke:#000000; stroke-linecap:butt; stroke-linejoin:round; stroke-width:4; stroke-opacity:1; fill:none" points="
  156.598,555.625 175.496,555.625 
  "/>
<polyline clip-path="url(#clip440)" style="stroke:#000000; stroke-linecap:butt; stroke-linejoin:round; stroke-width:4; stroke-opacity:1; fill:none" points="
  156.598,258.209 175.496,258.209 
  "/>
<path clip-path="url(#clip440)" d="M63.4226 1433.67 Q59.8115 1433.67 57.9828 1437.24 Q56.1773 1440.78 56.1773 1447.91 Q56.1773 1455.01 57.9828 1458.58 Q59.8115 1462.12 63.4226 1462.12 Q67.0569 1462.12 68.8624 1458.58 Q70.6911 1455.01 70.6911 1447.91 Q70.6911 1440.78 68.8624 1437.24 Q67.0569 1433.67 63.4226 1433.67 M63.4226 1429.97 Q69.2328 1429.97 72.2883 1434.57 Q75.367 1439.16 75.367 1447.91 Q75.367 1456.63 72.2883 1461.24 Q69.2328 1465.82 63.4226 1465.82 Q57.6125 1465.82 54.5338 1461.24 Q51.4782 1456.63 51.4782 1447.91 Q51.4782 1439.16 54.5338 1434.57 Q57.6125 1429.97 63.4226 1429.97 Z" fill="#000000" fill-rule="evenodd" fill-opacity="1" /><path clip-path="url(#clip440)" d="M83.5845 1459.27 L88.4688 1459.27 L88.4688 1465.15 L83.5845 1465.15 L83.5845 1459.27 Z" fill="#000000" fill-rule="evenodd" fill-opacity="1" /><path clip-path="url(#clip440)" d="M108.654 1433.67 Q105.043 1433.67 103.214 1437.24 Q101.409 1440.78 101.409 1447.91 Q101.409 1455.01 103.214 1458.58 Q105.043 1462.12 108.654 1462.12 Q112.288 1462.12 114.094 1458.58 Q115.922 1455.01 115.922 1447.91 Q115.922 1440.78 114.094 1437.24 Q112.288 1433.67 108.654 1433.67 M108.654 1429.97 Q114.464 1429.97 117.52 1434.57 Q120.598 1439.16 120.598 1447.91 Q120.598 1456.63 117.52 1461.24 Q114.464 1465.82 108.654 1465.82 Q102.844 1465.82 99.765 1461.24 Q96.7095 1456.63 96.7095 1447.91 Q96.7095 1439.16 99.765 1434.57 Q102.844 1429.97 108.654 1429.97 Z" fill="#000000" fill-rule="evenodd" fill-opacity="1" /><path clip-path="url(#clip440)" d="M64.6495 1136.26 Q61.0384 1136.26 59.2097 1139.82 Q57.4041 1143.36 57.4041 1150.49 Q57.4041 1157.6 59.2097 1161.16 Q61.0384 1164.7 64.6495 1164.7 Q68.2837 1164.7 70.0892 1161.16 Q71.9179 1157.6 71.9179 1150.49 Q71.9179 1143.36 70.0892 1139.82 Q68.2837 1136.26 64.6495 1136.26 M64.6495 1132.55 Q70.4596 1132.55 73.5152 1137.16 Q76.5938 1141.74 76.5938 1150.49 Q76.5938 1159.22 73.5152 1163.83 Q70.4596 1168.41 64.6495 1168.41 Q58.8393 1168.41 55.7606 1163.83 Q52.7051 1159.22 52.7051 1150.49 Q52.7051 1141.74 55.7606 1137.16 Q58.8393 1132.55 64.6495 1132.55 Z" fill="#000000" fill-rule="evenodd" fill-opacity="1" /><path clip-path="url(#clip440)" d="M84.8114 1161.86 L89.6956 1161.86 L89.6956 1167.74 L84.8114 1167.74 L84.8114 1161.86 Z" fill="#000000" fill-rule="evenodd" fill-opacity="1" /><path clip-path="url(#clip440)" d="M100.691 1163.8 L108.33 1163.8 L108.33 1137.44 L100.02 1139.1 L100.02 1134.84 L108.283 1133.18 L112.959 1133.18 L112.959 1163.8 L120.598 1163.8 L120.598 1167.74 L100.691 1167.74 L100.691 1163.8 Z" fill="#000000" fill-rule="evenodd" fill-opacity="1" /><path clip-path="url(#clip440)" d="M65.0198 838.84 Q61.4087 838.84 59.58 842.405 Q57.7745 845.946 57.7745 853.076 Q57.7745 860.182 59.58 863.747 Q61.4087 867.289 65.0198 867.289 Q68.6541 867.289 70.4596 863.747 Q72.2883 860.182 72.2883 853.076 Q72.2883 845.946 70.4596 842.405 Q68.6541 838.84 65.0198 838.84 M65.0198 835.136 Q70.83 835.136 73.8855 839.743 Q76.9642 844.326 76.9642 853.076 Q76.9642 861.803 73.8855 866.409 Q70.83 870.992 65.0198 870.992 Q59.2097 870.992 56.131 866.409 Q53.0754 861.803 53.0754 853.076 Q53.0754 844.326 56.131 839.743 Q59.2097 835.136 65.0198 835.136 Z" fill="#000000" fill-rule="evenodd" fill-opacity="1" /><path clip-path="url(#clip440)" d="M85.1818 864.441 L90.066 864.441 L90.066 870.321 L85.1818 870.321 L85.1818 864.441 Z" fill="#000000" fill-rule="evenodd" fill-opacity="1" /><path clip-path="url(#clip440)" d="M104.279 866.386 L120.598 866.386 L120.598 870.321 L98.6539 870.321 L98.6539 866.386 Q101.316 863.631 105.899 859.002 Q110.506 854.349 111.686 853.006 Q113.932 850.483 114.811 848.747 Q115.714 846.988 115.714 845.298 Q115.714 842.543 113.77 840.807 Q111.848 839.071 108.746 839.071 Q106.547 839.071 104.094 839.835 Q101.663 840.599 98.8854 842.15 L98.8854 837.428 Q101.709 836.293 104.163 835.715 Q106.617 835.136 108.654 835.136 Q114.024 835.136 117.219 837.821 Q120.413 840.506 120.413 844.997 Q120.413 847.127 119.603 849.048 Q118.816 850.946 116.709 853.539 Q116.131 854.21 113.029 857.428 Q109.927 860.622 104.279 866.386 Z" fill="#000000" fill-rule="evenodd" fill-opacity="1" /><path clip-path="url(#clip440)" d="M64.0708 541.424 Q60.4597 541.424 58.631 544.989 Q56.8254 548.53 56.8254 555.66 Q56.8254 562.766 58.631 566.331 Q60.4597 569.873 64.0708 569.873 Q67.705 569.873 69.5105 566.331 Q71.3392 562.766 71.3392 555.66 Q71.3392 548.53 69.5105 544.989 Q67.705 541.424 64.0708 541.424 M64.0708 537.72 Q69.8809 537.72 72.9365 542.327 Q76.0151 546.91 76.0151 555.66 Q76.0151 564.387 72.9365 568.993 Q69.8809 573.576 64.0708 573.576 Q58.2606 573.576 55.1819 568.993 Q52.1264 564.387 52.1264 555.66 Q52.1264 546.91 55.1819 542.327 Q58.2606 537.72 64.0708 537.72 Z" fill="#000000" fill-rule="evenodd" fill-opacity="1" /><path clip-path="url(#clip440)" d="M84.2327 567.025 L89.1169 567.025 L89.1169 572.905 L84.2327 572.905 L84.2327 567.025 Z" fill="#000000" fill-rule="evenodd" fill-opacity="1" /><path clip-path="url(#clip440)" d="M113.469 554.271 Q116.825 554.988 118.7 557.257 Q120.598 559.525 120.598 562.859 Q120.598 567.975 117.08 570.775 Q113.561 573.576 107.08 573.576 Q104.904 573.576 102.589 573.137 Q100.297 572.72 97.8437 571.863 L97.8437 567.35 Q99.7882 568.484 102.103 569.062 Q104.418 569.641 106.941 569.641 Q111.339 569.641 113.631 567.905 Q115.945 566.169 115.945 562.859 Q115.945 559.803 113.793 558.09 Q111.663 556.354 107.844 556.354 L103.816 556.354 L103.816 552.512 L108.029 552.512 Q111.478 552.512 113.307 551.146 Q115.135 549.757 115.135 547.164 Q115.135 544.502 113.237 543.09 Q111.362 541.655 107.844 541.655 Q105.922 541.655 103.723 542.072 Q101.524 542.489 98.8854 543.368 L98.8854 539.202 Q101.547 538.461 103.862 538.09 Q106.2 537.72 108.26 537.72 Q113.584 537.72 116.686 540.151 Q119.788 542.558 119.788 546.678 Q119.788 549.549 118.145 551.539 Q116.501 553.507 113.469 554.271 Z" fill="#000000" fill-rule="evenodd" fill-opacity="1" /><path clip-path="url(#clip440)" d="M62.9365 244.008 Q59.3254 244.008 57.4967 247.573 Q55.6912 251.114 55.6912 258.244 Q55.6912 265.35 57.4967 268.915 Q59.3254 272.457 62.9365 272.457 Q66.5707 272.457 68.3763 268.915 Q70.205 265.35 70.205 258.244 Q70.205 251.114 68.3763 247.573 Q66.5707 244.008 62.9365 244.008 M62.9365 240.304 Q68.7467 240.304 71.8022 244.911 Q74.8809 249.494 74.8809 258.244 Q74.8809 266.971 71.8022 271.577 Q68.7467 276.16 62.9365 276.16 Q57.1264 276.16 54.0477 271.577 Q50.9921 266.971 50.9921 258.244 Q50.9921 249.494 54.0477 244.911 Q57.1264 240.304 62.9365 240.304 Z" fill="#000000" fill-rule="evenodd" fill-opacity="1" /><path clip-path="url(#clip440)" d="M83.0984 269.609 L87.9827 269.609 L87.9827 275.489 L83.0984 275.489 L83.0984 269.609 Z" fill="#000000" fill-rule="evenodd" fill-opacity="1" /><path clip-path="url(#clip440)" d="M111.015 245.003 L99.2095 263.452 L111.015 263.452 L111.015 245.003 M109.788 240.929 L115.668 240.929 L115.668 263.452 L120.598 263.452 L120.598 267.341 L115.668 267.341 L115.668 275.489 L111.015 275.489 L111.015 267.341 L95.4132 267.341 L95.4132 262.827 L109.788 240.929 Z" fill="#000000" fill-rule="evenodd" fill-opacity="1" /><path clip-path="url(#clip440)" d="M762.472 12.096 L773.49 12.096 L800.307 62.6918 L800.307 12.096 L808.247 12.096 L808.247 72.576 L797.229 72.576 L770.412 21.9802 L770.412 72.576 L762.472 72.576 L762.472 12.096 Z" fill="#000000" fill-rule="evenodd" fill-opacity="1" /><path clip-path="url(#clip440)" d="M824.532 12.096 L836.725 12.096 L852.159 53.2532 L867.674 12.096 L879.867 12.096 L879.867 72.576 L871.887 72.576 L871.887 19.4686 L856.291 60.9499 L848.068 60.9499 L832.472 19.4686 L832.472 72.576 L824.532 72.576 L824.532 12.096 Z" fill="#000000" fill-rule="evenodd" fill-opacity="1" /><path clip-path="url(#clip440)" d="M896.111 12.096 L930.868 12.096 L930.868 18.9825 L904.294 18.9825 L904.294 36.8065 L928.275 36.8065 L928.275 43.6931 L904.294 43.6931 L904.294 72.576 L896.111 72.576 L896.111 12.096 Z" fill="#000000" fill-rule="evenodd" fill-opacity="1" /><path clip-path="url(#clip440)" d="M965.544 27.2059 L972.997 27.2059 L982.315 62.6108 L991.591 27.2059 L1000.38 27.2059 L1009.7 62.6108 L1018.98 27.2059 L1026.43 27.2059 L1014.56 72.576 L1005.77 72.576 L996.007 35.3887 L986.203 72.576 L977.413 72.576 L965.544 27.2059 Z" fill="#000000" fill-rule="evenodd" fill-opacity="1" /><path clip-path="url(#clip440)" d="M1037.73 27.2059 L1045.18 27.2059 L1045.18 72.576 L1037.73 72.576 L1037.73 27.2059 M1037.73 9.54393 L1045.18 9.54393 L1045.18 18.9825 L1037.73 18.9825 L1037.73 9.54393 Z" fill="#000000" fill-rule="evenodd" fill-opacity="1" /><path clip-path="url(#clip440)" d="M1068.15 14.324 L1068.15 27.2059 L1083.51 27.2059 L1083.51 32.9987 L1068.15 32.9987 L1068.15 57.6282 Q1068.15 63.1779 1069.65 64.7578 Q1071.19 66.3376 1075.85 66.3376 L1083.51 66.3376 L1083.51 72.576 L1075.85 72.576 Q1067.22 72.576 1063.94 69.3758 Q1060.66 66.1351 1060.66 57.6282 L1060.66 32.9987 L1055.19 32.9987 L1055.19 27.2059 L1060.66 27.2059 L1060.66 14.324 L1068.15 14.324 Z" fill="#000000" fill-rule="evenodd" fill-opacity="1" /><path clip-path="url(#clip440)" d="M1131.02 45.1919 L1131.02 72.576 L1123.57 72.576 L1123.57 45.4349 Q1123.57 38.994 1121.06 35.7938 Q1118.55 32.5936 1113.52 32.5936 Q1107.49 32.5936 1104 36.4419 Q1100.52 40.2903 1100.52 46.9338 L1100.52 72.576 L1093.03 72.576 L1093.03 9.54393 L1100.52 9.54393 L1100.52 34.2544 Q1103.19 30.163 1106.8 28.1376 Q1110.44 26.1121 1115.18 26.1121 Q1123 26.1121 1127.01 30.9732 Q1131.02 35.7938 1131.02 45.1919 Z" fill="#000000" fill-rule="evenodd" fill-opacity="1" /><path clip-path="url(#clip440)" d="M1172.59 12.096 L1207.34 12.096 L1207.34 18.9825 L1180.77 18.9825 L1180.77 36.8065 L1204.75 36.8065 L1204.75 43.6931 L1180.77 43.6931 L1180.77 72.576 L1172.59 72.576 L1172.59 12.096 Z" fill="#000000" fill-rule="evenodd" fill-opacity="1" /><path clip-path="url(#clip440)" d="M1240.24 34.1734 Q1238.98 33.4443 1237.48 33.1202 Q1236.02 32.7556 1234.24 32.7556 Q1227.92 32.7556 1224.52 36.8875 Q1221.16 40.9789 1221.16 48.6757 L1221.16 72.576 L1213.66 72.576 L1213.66 27.2059 L1221.16 27.2059 L1221.16 34.2544 Q1223.51 30.1225 1227.27 28.1376 Q1231.04 26.1121 1236.43 26.1121 Q1237.2 26.1121 1238.13 26.2337 Q1239.06 26.3147 1240.2 26.5172 L1240.24 34.1734 Z" fill="#000000" fill-rule="evenodd" fill-opacity="1" /><path clip-path="url(#clip440)" d="M1263.81 32.4315 Q1257.82 32.4315 1254.33 37.1306 Q1250.85 41.7891 1250.85 49.9314 Q1250.85 58.0738 1254.29 62.7728 Q1257.78 67.4314 1263.81 67.4314 Q1269.77 67.4314 1273.25 62.7323 Q1276.73 58.0333 1276.73 49.9314 Q1276.73 41.8701 1273.25 37.1711 Q1269.77 32.4315 1263.81 32.4315 M1263.81 26.1121 Q1273.53 26.1121 1279.08 32.4315 Q1284.63 38.7509 1284.63 49.9314 Q1284.63 61.0714 1279.08 67.4314 Q1273.53 73.7508 1263.81 73.7508 Q1254.05 73.7508 1248.5 67.4314 Q1242.99 61.0714 1242.99 49.9314 Q1242.99 38.7509 1248.5 32.4315 Q1254.05 26.1121 1263.81 26.1121 Z" fill="#000000" fill-rule="evenodd" fill-opacity="1" /><path clip-path="url(#clip440)" d="M1329.56 49.9314 Q1329.56 41.7081 1326.16 37.0496 Q1322.79 32.3505 1316.88 32.3505 Q1310.96 32.3505 1307.56 37.0496 Q1304.2 41.7081 1304.2 49.9314 Q1304.2 58.1548 1307.56 62.8538 Q1310.96 67.5124 1316.88 67.5124 Q1322.79 67.5124 1326.16 62.8538 Q1329.56 58.1548 1329.56 49.9314 M1304.2 34.0924 Q1306.55 30.0415 1310.11 28.0971 Q1313.72 26.1121 1318.7 26.1121 Q1326.97 26.1121 1332.11 32.6746 Q1337.3 39.2371 1337.3 49.9314 Q1337.3 60.6258 1332.11 67.1883 Q1326.97 73.7508 1318.7 73.7508 Q1313.72 73.7508 1310.11 71.8063 Q1306.55 69.8214 1304.2 65.7705 L1304.2 72.576 L1296.71 72.576 L1296.71 9.54393 L1304.2 9.54393 L1304.2 34.0924 Z" fill="#000000" fill-rule="evenodd" fill-opacity="1" /><path clip-path="url(#clip440)" d="M1388.46 48.0275 L1388.46 51.6733 L1354.19 51.6733 Q1354.67 59.3701 1358.81 63.421 Q1362.98 67.4314 1370.39 67.4314 Q1374.69 67.4314 1378.7 66.3781 Q1382.75 65.3249 1386.72 63.2184 L1386.72 70.267 Q1382.71 71.9684 1378.49 72.8596 Q1374.28 73.7508 1369.95 73.7508 Q1359.09 73.7508 1352.73 67.4314 Q1346.41 61.1119 1346.41 50.3365 Q1346.41 39.1965 1352.41 32.6746 Q1358.44 26.1121 1368.65 26.1121 Q1377.8 26.1121 1383.11 32.0264 Q1388.46 37.9003 1388.46 48.0275 M1381 45.84 Q1380.92 39.7232 1377.56 36.0774 Q1374.24 32.4315 1368.73 32.4315 Q1362.49 32.4315 1358.72 35.9558 Q1355 39.4801 1354.43 45.8805 L1381 45.84 Z" fill="#000000" fill-rule="evenodd" fill-opacity="1" /><path clip-path="url(#clip440)" d="M1438.41 45.1919 L1438.41 72.576 L1430.95 72.576 L1430.95 45.4349 Q1430.95 38.994 1428.44 35.7938 Q1425.93 32.5936 1420.91 32.5936 Q1414.87 32.5936 1411.39 36.4419 Q1407.9 40.2903 1407.9 46.9338 L1407.9 72.576 L1400.41 72.576 L1400.41 27.2059 L1407.9 27.2059 L1407.9 34.2544 Q1410.58 30.163 1414.18 28.1376 Q1417.83 26.1121 1422.57 26.1121 Q1430.39 26.1121 1434.4 30.9732 Q1438.41 35.7938 1438.41 45.1919 Z" fill="#000000" fill-rule="evenodd" fill-opacity="1" /><path clip-path="url(#clip440)" d="M1453.27 27.2059 L1460.73 27.2059 L1460.73 72.576 L1453.27 72.576 L1453.27 27.2059 M1453.27 9.54393 L1460.73 9.54393 L1460.73 18.9825 L1453.27 18.9825 L1453.27 9.54393 Z" fill="#000000" fill-rule="evenodd" fill-opacity="1" /><path clip-path="url(#clip440)" d="M1475.55 54.671 L1475.55 27.2059 L1483.01 27.2059 L1483.01 54.3874 Q1483.01 60.8284 1485.52 64.0691 Q1488.03 67.2693 1493.05 67.2693 Q1499.09 67.2693 1502.57 63.421 Q1506.1 59.5726 1506.1 52.9291 L1506.1 27.2059 L1513.55 27.2059 L1513.55 72.576 L1506.1 72.576 L1506.1 65.6084 Q1503.38 69.7404 1499.78 71.7658 Q1496.21 73.7508 1491.47 73.7508 Q1483.65 73.7508 1479.6 68.8897 Q1475.55 64.0286 1475.55 54.671 M1494.31 26.1121 L1494.31 26.1121 Z" fill="#000000" fill-rule="evenodd" fill-opacity="1" /><path clip-path="url(#clip440)" d="M1557.83 28.5427 L1557.83 35.5912 Q1554.67 33.9709 1551.26 33.1607 Q1547.86 32.3505 1544.22 32.3505 Q1538.67 32.3505 1535.87 34.0519 Q1533.12 35.7533 1533.12 39.156 Q1533.12 41.7486 1535.1 43.2475 Q1537.09 44.7058 1543.08 46.0426 L1545.63 46.6097 Q1553.57 48.3111 1556.89 51.4303 Q1560.26 54.509 1560.26 60.0587 Q1560.26 66.3781 1555.23 70.0644 Q1550.25 73.7508 1541.5 73.7508 Q1537.86 73.7508 1533.89 73.0216 Q1529.96 72.3329 1525.58 70.9151 L1525.58 63.2184 Q1529.71 65.3654 1533.72 66.4591 Q1537.73 67.5124 1541.66 67.5124 Q1546.93 67.5124 1549.77 65.73 Q1552.6 63.9071 1552.6 60.6258 Q1552.6 57.5877 1550.53 55.9673 Q1548.51 54.3469 1541.58 52.8481 L1538.99 52.2405 Q1532.06 50.7821 1528.98 47.7845 Q1525.91 44.7463 1525.91 39.4801 Q1525.91 33.0797 1530.44 29.5959 Q1534.98 26.1121 1543.32 26.1121 Q1547.46 26.1121 1551.1 26.7198 Q1554.75 27.3274 1557.83 28.5427 Z" fill="#000000" fill-rule="evenodd" fill-opacity="1" /><path clip-path="url(#clip440)" d="M1598.5 9.54393 L1605.95 9.54393 L1605.95 72.576 L1598.5 72.576 L1598.5 9.54393 Z" fill="#000000" fill-rule="evenodd" fill-opacity="1" /><path clip-path="url(#clip440)" d="M1639.13 32.4315 Q1633.13 32.4315 1629.65 37.1306 Q1626.17 41.7891 1626.17 49.9314 Q1626.17 58.0738 1629.61 62.7728 Q1633.09 67.4314 1639.13 67.4314 Q1645.08 67.4314 1648.57 62.7323 Q1652.05 58.0333 1652.05 49.9314 Q1652.05 41.8701 1648.57 37.1711 Q1645.08 32.4315 1639.13 32.4315 M1639.13 26.1121 Q1648.85 26.1121 1654.4 32.4315 Q1659.95 38.7509 1659.95 49.9314 Q1659.95 61.0714 1654.4 67.4314 Q1648.85 73.7508 1639.13 73.7508 Q1629.37 73.7508 1623.82 67.4314 Q1618.31 61.0714 1618.31 49.9314 Q1618.31 38.7509 1623.82 32.4315 Q1629.37 26.1121 1639.13 26.1121 Z" fill="#000000" fill-rule="evenodd" fill-opacity="1" /><path clip-path="url(#clip440)" d="M1701.23 28.5427 L1701.23 35.5912 Q1698.07 33.9709 1694.67 33.1607 Q1691.26 32.3505 1687.62 32.3505 Q1682.07 32.3505 1679.27 34.0519 Q1676.52 35.7533 1676.52 39.156 Q1676.52 41.7486 1678.5 43.2475 Q1680.49 44.7058 1686.48 46.0426 L1689.04 46.6097 Q1696.98 48.3111 1700.3 51.4303 Q1703.66 54.509 1703.66 60.0587 Q1703.66 66.3781 1698.64 70.0644 Q1693.65 73.7508 1684.9 73.7508 Q1681.26 73.7508 1677.29 73.0216 Q1673.36 72.3329 1668.98 70.9151 L1668.98 63.2184 Q1673.12 65.3654 1677.13 66.4591 Q1681.14 67.5124 1685.07 67.5124 Q1690.33 67.5124 1693.17 65.73 Q1696 63.9071 1696 60.6258 Q1696 57.5877 1693.94 55.9673 Q1691.91 54.3469 1684.98 52.8481 L1682.39 52.2405 Q1675.46 50.7821 1672.39 47.7845 Q1669.31 44.7463 1669.31 39.4801 Q1669.31 33.0797 1673.84 29.5959 Q1678.38 26.1121 1686.73 26.1121 Q1690.86 26.1121 1694.5 26.7198 Q1698.15 27.3274 1701.23 28.5427 Z" fill="#000000" fill-rule="evenodd" fill-opacity="1" /><path clip-path="url(#clip440)" d="M1744.45 28.5427 L1744.45 35.5912 Q1741.29 33.9709 1737.89 33.1607 Q1734.49 32.3505 1730.84 32.3505 Q1725.29 32.3505 1722.5 34.0519 Q1719.74 35.7533 1719.74 39.156 Q1719.74 41.7486 1721.73 43.2475 Q1723.71 44.7058 1729.71 46.0426 L1732.26 46.6097 Q1740.2 48.3111 1743.52 51.4303 Q1746.88 54.509 1746.88 60.0587 Q1746.88 66.3781 1741.86 70.0644 Q1736.88 73.7508 1728.13 73.7508 Q1724.48 73.7508 1720.51 73.0216 Q1716.58 72.3329 1712.21 70.9151 L1712.21 63.2184 Q1716.34 65.3654 1720.35 66.4591 Q1724.36 67.5124 1728.29 67.5124 Q1733.55 67.5124 1736.39 65.73 Q1739.23 63.9071 1739.23 60.6258 Q1739.23 57.5877 1737.16 55.9673 Q1735.13 54.3469 1728.21 52.8481 L1725.61 52.2405 Q1718.69 50.7821 1715.61 47.7845 Q1712.53 44.7463 1712.53 39.4801 Q1712.53 33.0797 1717.07 29.5959 Q1721.6 26.1121 1729.95 26.1121 Q1734.08 26.1121 1737.73 26.7198 Q1741.37 27.3274 1744.45 28.5427 Z" fill="#000000" fill-rule="evenodd" fill-opacity="1" /><polyline clip-path="url(#clip442)" style="stroke:#e31a1c; stroke-linecap:butt; stroke-linejoin:round; stroke-width:4; stroke-opacity:1; fill:none" points="
  218.754,1447.87 239.681,1447.87 260.609,1447.87 281.537,1447.87 302.465,1447.87 323.392,1447.87 344.32,1447.87 365.248,1447.87 386.176,1447.87 407.103,1447.87 
  428.031,1447.87 448.959,1447.87 469.887,1447.87 490.814,1447.87 511.742,1447.87 532.67,1447.87 553.598,1447.87 574.525,1447.25 595.453,1411.06 616.381,1317.55 
  637.309,1175.31 658.236,984.778 679.164,757.135 700.092,444.589 721.02,274.443 741.947,179.439 762.875,162.047 783.803,225.914 804.731,357.846 825.658,533.127 
  846.586,728.094 867.514,918.099 888.442,1079.64 909.369,1208.47 930.297,1304.29 951.225,1371.36 972.152,1415.69 993.08,1447.5 1014.01,1447.87 1034.94,1447.87 
  1055.86,1447.87 1076.79,1447.81 1097.72,1445.48 1118.65,1428.31 1139.57,1385.51 1160.5,1322.1 1181.43,1248.38 1202.36,1182.2 1223.29,1161.57 1244.21,1165.83 
  1265.14,1192.68 1286.07,1235.49 1307,1286.73 1327.92,1336.18 1348.85,1411.6 1369.78,1447.87 1390.71,1447.87 1411.64,1447.87 1432.56,1447.87 1453.49,1447.87 
  1474.42,1447.87 1495.35,1447.87 1516.27,1434.7 1537.2,1414.08 1558.13,1398.47 1579.06,1385.96 1599.98,1373.54 1620.91,1383.74 1641.84,1390.82 1662.77,1398.91 
  1683.7,1409.64 1704.62,1423.48 1725.55,1437.44 1746.48,1444.92 1767.41,1446.8 1788.33,1446.8 1809.26,1444.3 1830.19,1425.97 1851.12,1385.53 1872.05,1349.45 
  1892.97,1339.48 1913.9,1342.23 1934.83,1353.7 1955.76,1370.36 1976.68,1388.39 1997.61,1404.87 2018.54,1418.33 2039.47,1429.75 2060.4,1436.78 2081.32,1441.37 
  2102.25,1444.27 2123.18,1445.99 2144.11,1446.9 2165.03,1447.37 2185.96,1447.66 2206.89,1447.8 2227.82,1447.85 2248.75,1447.87 2269.67,1447.87 2290.6,1447.87 
  
  "/>
<polyline clip-path="url(#clip442)" style="stroke:#377db8; stroke-linecap:butt; stroke-linejoin:round; stroke-width:4; stroke-opacity:1; fill:none" points="
  218.754,1447.87 239.681,1447.87 260.609,1447.87 281.537,1447.87 302.465,1447.86 323.392,1447.83 344.32,1447.73 365.248,1447.45 386.176,1446.7 407.103,1444.92 
  428.031,1441.09 448.959,1433.71 469.887,1420.85 490.814,1400.68 511.742,1372.19 532.67,1336.04 553.598,1295.05 574.525,1254.31 595.453,1227.74 616.381,1225.43 
  637.309,1247.8 658.236,1292.54 679.164,1350.8 700.092,1414.39 721.02,1447.87 741.947,1447.87 762.875,1447.87 783.803,1447.87 804.731,1447.87 825.658,1447.83 
  846.586,1436.58 867.514,1418.34 888.442,1414.16 909.369,1414.91 930.297,1420.06 951.225,1429.02 972.152,1441.01 993.08,1447.87 1014.01,1447.87 1034.94,1447.87 
  1055.86,1447.87 1076.79,1447.87 1097.72,1447.87 1118.65,1447.87 1139.57,1447.87 1160.5,1447.87 1181.43,1447.87 1202.36,1425.17 1223.29,1283.7 1244.21,1115.54 
  1265.14,937.127 1286.07,770.351 1307,635.15 1327.92,544.151 1348.85,511.542 1369.78,539.407 1390.71,617.057 1411.64,725.514 1432.56,853.453 1453.49,985.621 
  1474.42,1105.47 1495.35,1199.37 1516.27,1264.35 1537.2,1298.49 1558.13,1302.66 1579.06,1284.56 1599.98,1251.86 1620.91,1218.49 1641.84,1183.3 1662.77,1153.86 
  1683.7,1135.11 1704.62,1130.67 1725.55,1142.24 1746.48,1169.26 1767.41,1207.21 1788.33,1250.07 1809.26,1293.31 1830.19,1336.23 1851.12,1378.67 1872.05,1436.64 
  1892.97,1447.87 1913.9,1447.87 1934.83,1447.87 1955.76,1447.87 1976.68,1447.87 1997.61,1447.87 2018.54,1447.62 2039.47,1443.03 2060.4,1443.45 2081.32,1444.47 
  2102.25,1445.61 2123.18,1446.55 2144.11,1447.18 2165.03,1447.54 2185.96,1447.73 2206.89,1447.82 2227.82,1447.86 2248.75,1447.87 2269.67,1447.87 2290.6,1447.87 
  
  "/>
<polyline clip-path="url(#clip442)" style="stroke:#4dae49; stroke-linecap:butt; stroke-linejoin:round; stroke-width:4; stroke-opacity:1; fill:none" points="
  218.754,1447.87 239.681,1447.87 260.609,1447.86 281.537,1447.83 302.465,1447.75 323.392,1447.51 344.32,1446.94 365.248,1445.71 386.176,1443.35 407.103,1439.31 
  428.031,1433.06 448.959,1424.27 469.887,1412.8 490.814,1398.43 511.742,1380.3 532.67,1356.46 553.598,1323.76 574.525,1279.12 595.453,1234.72 616.381,1200.93 
  637.309,1181.52 658.236,1187.04 679.164,1224.48 700.092,1434.46 721.02,1447.87 741.947,1447.87 762.875,1447.87 783.803,1447.87 804.731,1447.87 825.658,1447.72 
  846.586,1446.85 867.514,1445.28 888.442,1442.91 909.369,1439.74 930.297,1433.27 951.225,1419.54 972.152,1395.03 993.08,1355.73 1014.01,1308.53 1034.94,1236.17 
  1055.86,1138.98 1076.79,1020.52 1097.72,889.116 1118.65,761.565 1139.57,656.663 1160.5,588.078 1181.43,566.461 1202.36,600.558 1223.29,700.873 1244.21,843.335 
  1265.14,1006.93 1286.07,1168.04 1307,1307.86 1327.92,1425.18 1348.85,1447.87 1369.78,1447.87 1390.71,1447.87 1411.64,1447.87 1432.56,1447.87 1453.49,1447.87 
  1474.42,1447.87 1495.35,1447.87 1516.27,1447.87 1537.2,1447.87 1558.13,1447.87 1579.06,1447.87 1599.98,1447.87 1620.91,1387.87 1641.84,1323.1 1662.77,1238.5 
  1683.7,1132.75 1704.62,1009.44 1725.55,879.212 1746.48,759.863 1767.41,669.325 1788.33,622.49 1809.26,628.508 1830.19,690.772 1851.12,800.37 1872.05,923.302 
  1892.97,1049.41 1913.9,1161.54 1934.83,1251.52 1955.76,1318.67 1976.68,1365.78 1997.61,1397.11 2018.54,1417.05 2039.47,1429.96 2060.4,1437.43 2081.32,1441.91 
  2102.25,1444.61 2123.18,1446.2 2144.11,1447.17 2165.03,1447.73 2185.96,1447.86 2206.89,1447.87 2227.82,1447.87 2248.75,1447.87 2269.67,1447.87 2290.6,1447.87 
  
  "/>
<path clip-path="url(#clip440)" d="
M1986.54 376.265 L2279.55 376.265 L2279.55 168.905 L1986.54 168.905  Z
  " fill="#ffffff" fill-rule="evenodd" fill-opacity="1"/>
<polyline clip-path="url(#clip440)" style="stroke:#000000; stroke-linecap:butt; stroke-linejoin:round; stroke-width:4; stroke-opacity:1; fill:none" points="
  1986.54,376.265 2279.55,376.265 2279.55,168.905 1986.54,168.905 1986.54,376.265 
  "/>
<polyline clip-path="url(#clip440)" style="stroke:#e31a1c; stroke-linecap:butt; stroke-linejoin:round; stroke-width:4; stroke-opacity:1; fill:none" points="
  2010.54,220.745 2154.54,220.745 
  "/>
<path clip-path="url(#clip440)" d="M2192.38 240.432 Q2190.58 245.062 2188.87 246.474 Q2187.15 247.886 2184.28 247.886 L2180.88 247.886 L2180.88 244.321 L2183.38 244.321 Q2185.14 244.321 2186.11 243.488 Q2187.08 242.654 2188.26 239.552 L2189.03 237.608 L2178.54 212.099 L2183.06 212.099 L2191.16 232.377 L2199.26 212.099 L2203.77 212.099 L2192.38 240.432 Z" fill="#000000" fill-rule="evenodd" fill-opacity="1" /><path clip-path="url(#clip440)" d="M2211.06 234.089 L2218.7 234.089 L2218.7 207.724 L2210.39 209.391 L2210.39 205.131 L2218.66 203.465 L2223.33 203.465 L2223.33 234.089 L2230.97 234.089 L2230.97 238.025 L2211.06 238.025 L2211.06 234.089 Z" fill="#000000" fill-rule="evenodd" fill-opacity="1" /><polyline clip-path="url(#clip440)" style="stroke:#377db8; stroke-linecap:butt; stroke-linejoin:round; stroke-width:4; stroke-opacity:1; fill:none" points="
  2010.54,272.585 2154.54,272.585 
  "/>
<path clip-path="url(#clip440)" d="M2192.38 292.272 Q2190.58 296.902 2188.87 298.314 Q2187.15 299.726 2184.28 299.726 L2180.88 299.726 L2180.88 296.161 L2183.38 296.161 Q2185.14 296.161 2186.11 295.328 Q2187.08 294.494 2188.26 291.392 L2189.03 289.448 L2178.54 263.939 L2183.06 263.939 L2191.16 284.217 L2199.26 263.939 L2203.77 263.939 L2192.38 292.272 Z" fill="#000000" fill-rule="evenodd" fill-opacity="1" /><path clip-path="url(#clip440)" d="M2214.28 285.929 L2230.6 285.929 L2230.6 289.865 L2208.66 289.865 L2208.66 285.929 Q2211.32 283.175 2215.9 278.545 Q2220.51 273.893 2221.69 272.55 Q2223.93 270.027 2224.81 268.291 Q2225.72 266.531 2225.72 264.842 Q2225.72 262.087 2223.77 260.351 Q2221.85 258.615 2218.75 258.615 Q2216.55 258.615 2214.1 259.379 Q2211.67 260.143 2208.89 261.694 L2208.89 256.971 Q2211.71 255.837 2214.17 255.258 Q2216.62 254.68 2218.66 254.68 Q2224.03 254.68 2227.22 257.365 Q2230.42 260.05 2230.42 264.541 Q2230.42 266.67 2229.61 268.592 Q2228.82 270.49 2226.71 273.082 Q2226.13 273.754 2223.03 276.971 Q2219.93 280.166 2214.28 285.929 Z" fill="#000000" fill-rule="evenodd" fill-opacity="1" /><polyline clip-path="url(#clip440)" style="stroke:#4dae49; stroke-linecap:butt; stroke-linejoin:round; stroke-width:4; stroke-opacity:1; fill:none" points="
  2010.54,324.425 2154.54,324.425 
  "/>
<path clip-path="url(#clip440)" d="M2192.38 344.112 Q2190.58 348.742 2188.87 350.154 Q2187.15 351.566 2184.28 351.566 L2180.88 351.566 L2180.88 348.001 L2183.38 348.001 Q2185.14 348.001 2186.11 347.168 Q2187.08 346.334 2188.26 343.232 L2189.03 341.288 L2178.54 315.779 L2183.06 315.779 L2191.16 336.057 L2199.26 315.779 L2203.77 315.779 L2192.38 344.112 Z" fill="#000000" fill-rule="evenodd" fill-opacity="1" /><path clip-path="url(#clip440)" d="M2224.42 323.07 Q2227.78 323.788 2229.65 326.057 Q2231.55 328.325 2231.55 331.658 Q2231.55 336.774 2228.03 339.575 Q2224.51 342.376 2218.03 342.376 Q2215.86 342.376 2213.54 341.936 Q2211.25 341.519 2208.8 340.663 L2208.8 336.149 Q2210.74 337.283 2213.06 337.862 Q2215.37 338.441 2217.89 338.441 Q2222.29 338.441 2224.58 336.705 Q2226.9 334.969 2226.9 331.658 Q2226.9 328.603 2224.75 326.89 Q2222.62 325.154 2218.8 325.154 L2214.77 325.154 L2214.77 321.311 L2218.98 321.311 Q2222.43 321.311 2224.26 319.946 Q2226.09 318.557 2226.09 315.964 Q2226.09 313.302 2224.19 311.89 Q2222.31 310.455 2218.8 310.455 Q2216.87 310.455 2214.68 310.871 Q2212.48 311.288 2209.84 312.168 L2209.84 308.001 Q2212.5 307.26 2214.81 306.89 Q2217.15 306.52 2219.21 306.52 Q2224.54 306.52 2227.64 308.95 Q2230.74 311.358 2230.74 315.478 Q2230.74 318.348 2229.1 320.339 Q2227.45 322.307 2224.42 323.07 Z" fill="#000000" fill-rule="evenodd" fill-opacity="1" /></svg>
